<svg xmlns="http://www.w3.org/2000/svg" viewBox="0 0 1000 1000"><defs><style>.st0{fill:#181818}.st1{fill:#f4cdcb}</style></defs><g id="Layer_3"><path d="M289.1 112.15c4.91-2.56 14.49-8.92 20.01-7.95 4.56.79 7.5 11.7 7.31 15.95-.74 17.19-11.27 17.63-25.03 15.29 1.29 3.83 4.41 6.44 6.17 9.96a62.6 62.6 0 0 1 6.65 30.49c-.19 7.49-1.24 15.5-1.27 23.26 0 5.09 1.61 12.57-.18 17.13-.66 1.61-3.43 3.22-4.43 5.14s-1.27 7.47-3.86 4.38c-1.82-3.5-3.39-7.12-4.68-10.85-5.57-16.42 2.29-29.73-1.35-46.3-3.22-14.67-13.52-24.15-15.7-39.04-2.75 3.65-4.09 8.16-6.44 12.09-4.29 6.72-9.14 13.07-14.49 18.98-6.71 7.31-15.12 11.27-22.97 17-.29 3.65-3.78 17.51-2.54 19.78.87 1.61 7.73 3.54 9.76 4.11 9.92 2.72 20.54 4.23 30.76 2.82 1.87-.27 5.78-2.64 6.44 0 .35 1.29-2.53 11.54-2.93 13.89-1.98 11.46-4.14 21.6-6.44 32.9-1.71 8.18 1.11 15.9-9.35 15.53-8.05-.31-21.22-2.48-28.67-5.43-3.46-1.37-6.68-4.01-10.33-4.83-.24 5.22 1.82 7.68 5.51 10.77 16.39 13.75 43.93 15.79 63.8 9.66 2.48-.77 6.57-2.5 7.61-5.23 1.61-5.42 2.86-10.94 3.72-16.53 1.21-6.71 1.43-14.15 2.85-20.72.85-3.93 2.53-2.7 2.5.35 0 4.99-1.85 12.28-2.53 17.56-.85 6.52-1.05 12.64-2.77 19.32-1.24 4.83-4.57 7.2-9 8.55-22.18 6.83-44.82 6.18-64.84-6.13-4.46-2.74-10.24-6.34-10.88-12.14-.89-7.82 2.06-24.65 3.56-32.9 2.98-16.31 8.9-32.05 11.17-48.47l-5.09 5.31c-3.4 1.69-5.18 5.22-7.57 7.53-3.22 3.14-2.83-.42-2.8-2.77s-.23-8.35.1-10.05c.98-5.33 13.18-6.81 17.18-9.5 2.64-8.56 5.59-17.24 10.59-24.65 4.57-6.78 11.27-12.09 17.13-17.56-7.2-2.48-13.99-8.05-13.73-16.6.52-18.17 17.14-17.71 26.22-6.2 1.37-14.49 1.85-29.33 5.46-43.46 1.69-.26 1.92-2.14 2.69-2.67 2.21-1.51 9.1-.85 11.67-.21 4.35 1.08 11.83 6.28 9.08 11.69-.47.93-2.56 1.26-2.61 1.61l-5.43 39.12Zm-11.17-46.21c3.43 1.09 10.03 1.42 13.96 1.96 1.34.19 1.14-1.71 0-2.83-4.59-4.83-11.06-.64-16.48-1.38.14.87 1.98 2.06 2.53 2.25Zm5.1 49.51c0 3.06-1.37 7.12-1.46 10.32 3.98 1.37 25.76-.89 27.27 1.92 1.05 2.04-3.59 1.85-4.67 1.82-6.73-.21-13.67-1.42-20.43-1.51-.27.89.93 1 1.61 1.29 4.2 2.08 18.48 4.22 22.7 2.48 5.86-2.4 5.43-19.32 1.61-22.54-2.74-2.3-12.01 1.61-15.21 3.12-1.61.69-10.32 6.44-11.08 5.34 0-1.71 1.11-2.35 2.3-3.22.31-.48-1.14 0-1.09-1.37.13-4.12 1.72-8.97 1.88-13.22l5.59-26.29c-5.63-1.35-11.27-2.27-16.23-5.49-2.69 10.83-2.95 21.96-3.73 32.99-.19 2.87-2.58 10.64 1.21 11.9.69.23 3.54-1.95 5.6-1.51 1.32.34 4.14 2.48 4.19 3.98h-.05Zm-14.37 5.32c1.35-3.86 3.56-3.77.79-7.57-7.26-10.01-21.68-19.08-23.28.56 7.82-.37 15.34 4.23 22.54 7h-.05Zm10.07-5.61c-1.2-.14-2.42-.04-3.59.29a43 43 0 0 0-2.87 6.2c-.21 1.87 2.66 1.92 3.54 3.3 1.18-1.11 3.38-9.18 2.96-9.76l-.05-.03Zm-14.84 8.76-14.63-5.88c1.77 3.51 9.29 6.71 12.88 6.75.48.06 1.87-.05 1.8-.87zm6.94 3.53c-2.14.77-6.04.79-7.84 1.61-3.98 1.74-9.35 18.08-11.78 22.63-1.75 3.22-4.46 5.86-6.1 9.18 11.56-8.11 18.92-21.23 25.77-33.42zm17.29 7.71c-.72-.8-4.35-2.19-5.96-3.45-1.13-.87-3.14-4.14-3.11-.37 0 1.61 4.02 10.85 5.15 12.43 2.96 4.17 8.93 6.83 11.77 11.46-.4-2.1-.97-4.17-1.71-6.18-.58-1.75-5.47-13.18-6.1-13.89h-.05Zm-49.44 30.29c1.61-1.26 6.66-9.11 7.82-11.27 4.14-7.71 5.96-16.77 10.96-24.15-10.58 10.91-21.62 22.05-23.91 38.09 1.42-1.16 3.96-1.74 5.17-2.67h-.05Zm56.54 56.65c.1-2.8 3.94-5.97 4.27-8.05.42-2.51-1.08-10.62-1.05-14.28 0-5.59 1-11.27.98-16.9 0-13.35-3.65-28.54-15.99-35.19 4.11 6.92 8.4 14.2 9.37 22.54 1.61 13.22-5.44 26.59-2.51 39.28 1.06 4.41 2.74 8.66 4.97 12.6h-.05Zm-70.41-43.72c-1.5.63-10.4 1.96-10.77 2.37-.69.76.24 7.15-.69 8.76l11.46-11.12Zm43.35 30.33c-14.8 2.4-29.97-.64-42.69-8.56l-6.44 32.28c6.86-1.53 8.21 8.18 13.76 6.55 2.21-.64 5.83-4.96 8.19-2.75 1.03.95 1.03 2.87 2.83 3.41s5.92-3.04 6.78.1c.85 3.14-6.89 4.83-9.66 3.75a4.96 4.96 0 0 1-2.4-2.58c-1.48.24-4.19 2.4-6.23 2.64-9.43 1.18-5.46-8.66-13.65-8.63-.56 5.47-2.51 10.67-2.19 16.19 5.96 2.84 12.14 5.21 18.48 7.07 3.09.84 21.91 5.33 23.1 3.88 2.19-17.98 5.55-35.8 10.05-53.35h.06Z" class="st1"/><path d="M238.63 210.47c1.71 2.43-1.61 7.45-3.06 9.66 2.04 1.14 3.12 2.64 5.7 1.5 3.51-1.61.74-8.66 4.73-7.68 3.62.87.72 5.31.77 6.75 0 1.74 4.07 4.25 5.7 4.36 1.93.14 7.39-5.26 6.44 0-.47 2.77-5.28 3.7-7.63 3.64-4.2-.11-6.81-5.3-7.26-5.34s-3.59 3.32-7.94 1.13c-1.05-.53-1.95-2.35-2.4-2.45-1.05-.24-4.04 3.01-7.12.4-2.19-1.85-3.22-7.89-1.43-10.08.4-.5 1.13-.58 1.63-.17.26.21.42.53.43.87.13 1.79-2.78 5.88 1.37 7.86 4.6 2.21 3.61-4.59 3.99-6.52.58-2.69 4.07-6.75 6.07-3.91Z" class="st1"/></g><g id="Layer_2"><path d="M225.26 153.81c-.7.06-1.86.07-3.48.04-1.61-.03-3.46 0-5.54.09s-4.21.26-6.38.53q-3.255.39-5.94 1.32c-1.79.62-3.23 1.41-4.31 2.38-1.09.97-1.57 2.24-1.45 3.83.12 1.17.67 2.51 1.67 4 1 1.5 2.05 3.14 3.17 4.93a35 35 0 0 1 2.82 5.63c.76 1.97.97 4 .62 6.12 0 1.29-.26 2.8-.79 4.53s-1.41 3.36-2.64 4.88q-2.025 2.64-4.62 4.14c-1.73 1-3.39 1.5-4.97 1.5-2.35 0-3.52-1.47-3.52-4.4 0-3.87 1.88-7.71 5.63-11.53 3.17-3.23 5.48-4.84 6.95-4.84.94 0 1.41.29 1.41.88 0 .24-.18.47-.53.7-1.47.29-3.37 1.79-5.72 4.49-2.93 3.29-4.4 6.45-4.4 9.5 0 2 .7 2.99 2.11 2.99 2.05 0 4.14-1.2 6.25-3.61.53-.7 1.03-1.47 1.5-2.29q.705-1.23 1.23-2.46c.35-.82.63-1.63.84-2.42s.31-1.48.31-2.07c0-1.41-.09-2.58-.26-3.52-.18-.94-.44-1.77-.79-2.51q-.525-1.095-1.32-2.16c-.53-.7-1.12-1.55-1.76-2.55-.7-1.06-1.38-2.08-2.02-3.08-.65-1-1.2-1.99-1.67-2.99s-.78-1.99-.92-2.99c-.15-1-.04-2.02.31-3.08.88-1.41 2.23-2.64 4.05-3.7s3.86-1.92 6.12-2.6c2.26-.67 4.63-1.19 7.13-1.54 2.49-.35 4.88-.56 7.17-.62s4.37.03 6.25.26 3.31.56 4.31.97c.82.35 1.19.66 1.1.92s-.81.37-2.16.31h-5.72Zm7.92 35.64c0 .24-.29.59-.88 1.06-2.58 2.17-5.19 3.26-7.83 3.26-1.64 0-3.05-.44-4.22-1.32-2.7 3.52-5.63 5.28-8.8 5.28-2.35 0-3.52-1.47-3.52-4.4 0-3.81 1.88-7.66 5.63-11.53 3.17-3.23 5.48-4.84 6.95-4.84.94 0 1.41.29 1.41.88 0 .18-.18.41-.53.7-1.41.29-3.31 1.79-5.72 4.49-2.93 3.29-4.4 6.45-4.4 9.5 0 2 .7 2.99 2.11 2.99 2.05 0 4.14-1.2 6.25-3.61-1.12-1.23-1.67-2.76-1.67-4.58 0-2.11.53-3.93 1.58-5.46.94-1.29 1.94-1.94 2.99-1.94s1.67.73 1.85 2.2c0 2.58-.91 5.37-2.73 8.36 1 1.11 2.35 1.67 4.05 1.67q3.435 0 6.69-2.82c.18-.18.35-.26.53-.26s.26.12.26.35Zm-9.68-6.78c0-.59-.21-.88-.62-.88-.53 0-1.09.47-1.67 1.41-.59.94-.88 2.14-.88 3.61 0 1.23.26 2.26.79 3.08 1.58-2.46 2.38-4.87 2.38-7.22" class="st0"/><path d="M234.76 194.02c.47 0 1.61-.41 3.43-1.23 3.23-1.52 6.09-3.36 8.58-5.5s4.62-4.36 6.38-6.64c.88-.88 1.52-1.32 1.94-1.32q1.14 0 1.14 1.14c0 .47-.21 1-.62 1.58-3.52 5.28-5.28 8.71-5.28 10.3 0 1.47.67 2.2 2.02 2.2 2.05 0 5.78-1.85 11.18-5.54.12-.12.4-.32.84-.62.44-.29.75-.44.92-.44s.26.12.26.35q0 .525-1.32 1.41c-7.28 4.87-12.14 7.3-14.61 7.3q-2.46 0-2.46-2.82c0-.59.07-1.22.22-1.89s.32-1.28.53-1.8c.21-.53.38-.97.53-1.32s.22-.5.22-.44c0-.23-.09-.35-.26-.35-.29 0-.9.35-1.8 1.06q-1.365 1.05-4.44 2.82-1.5.705-2.73 1.41c-.82.47-1.61.91-2.38 1.32-.76.41-1.5.73-2.2.97a5.6 5.6 0 0 1-2.2.26c-.82-.06-1.57-.25-2.24-.57s-1.01-1.04-1.01-2.16c0-.64.16-1.2.48-1.67s.66-.7 1.01-.7c.29 0 .53.15.7.44.18.29.38.63.62 1.01.23.38.5.72.79 1.01s.7.44 1.23.44h.53Z" class="st0"/><path d="M284.66 189.45c0 .41-1.2 1.38-3.61 2.9-5.93 3.76-10.18 5.63-12.76 5.63-3.81 0-5.72-2.23-5.72-6.69 0-3.29 1.6-6.58 4.8-9.9 3.2-3.31 6.23-4.97 9.11-4.97q1.32 0 1.32 1.23c0 2-1.73 4.81-5.19 8.45-2.76 2.88-5.02 4.84-6.78 5.9.18 2.58 1.41 3.87 3.7 3.87 2.17 0 5.81-1.47 10.91-4.4.41-.23 1.55-.94 3.43-2.11.18-.18.35-.26.53-.26s.26.12.26.35m-9.6-10.12c0-.7-.21-1.06-.62-1.06-1.47 0-3.26 1.47-5.37 4.4s-3.2 5.57-3.26 7.92c1.11-.35 2.87-1.88 5.28-4.58q3.96-4.395 3.96-6.69Z" class="st0"/><path d="M305.25 189.45c0 .41-1.2 1.38-3.61 2.9-5.93 3.76-10.18 5.63-12.76 5.63-3.81 0-5.72-2.23-5.72-6.69 0-3.29 1.6-6.58 4.8-9.9 3.2-3.31 6.23-4.97 9.11-4.97q1.32 0 1.32 1.23c0 2-1.73 4.81-5.19 8.45-2.76 2.88-5.02 4.84-6.78 5.9.18 2.58 1.41 3.87 3.7 3.87 2.17 0 5.81-1.47 10.91-4.4.41-.23 1.55-.94 3.43-2.11.18-.18.35-.26.53-.26s.26.12.26.35m-9.59-10.12c0-.7-.21-1.06-.62-1.06-1.47 0-3.26 1.47-5.37 4.4s-3.2 5.57-3.26 7.92c1.11-.35 2.87-1.88 5.28-4.58q3.96-4.395 3.96-6.69Zm53.94 17.42q0 1.14-1.5 1.14c-2.17 0-4.66-.56-7.48-1.67-.59-.23-2.99-1.32-7.22-3.26-3.11 2.82-5.72 4.22-7.83 4.22q-2.55 0-4.14-1.65c-.94-.93-1.41-2.03-1.41-3.31q0-3.48 4.14-3.48c4.14 0 5.95.82 9.59 2.46 3.11-2.99 5.85-6.78 8.23-11.35 2.38-4.58 3.56-8.51 3.56-11.79 0-4.05-1.88-6.07-5.63-6.07-2.46 0-4.66 1.03-6.6 3.08-2.11 2.29-3.17 5.1-3.17 8.45s1.03 4.84 3.08 4.84c1 0 1.96-.45 2.9-1.36s1.47-2.04 1.58-3.39c.7 0 1.08.15 1.14.44 0 1.53-.81 3.04-2.42 4.53-1.61 1.5-3.21 2.24-4.8 2.24-2.58 0-3.87-2.02-3.87-6.07s1.5-7.36 4.49-10.3q4.14-4.14 9.06-4.14c4.34 0 6.51 2.38 6.51 7.13 0 3.46-1.35 7.63-4.05 12.5-2.52 4.4-5.52 8.3-8.98 11.7 4.46 2.17 6.81 3.31 7.04 3.43 2.7 1.11 5.28 1.67 7.74 1.67Zm-17.34-4.31c-3.29-1.52-5.69-2.29-7.22-2.29-1.76 0-2.64.67-2.64 2.02 0 .76.32 1.5.97 2.2.64.7 1.38 1.06 2.2 1.06 1.99 0 4.22-1 6.69-2.99m45.5-21.56c0 6.04-2.1 12.14-6.29 18.3-4.2 6.16-8.49 9.24-12.89 9.24-2.46 0-4.37-.94-5.72-2.82s-2.02-4.46-2.02-7.74c0-4.93 1.44-9.62 4.31-14.08 2.35-3.58 5.31-6.66 8.89-9.24 3.11-2.17 5.51-3.26 7.22-3.26 1.99 0 3.58.87 4.75 2.6s1.76 4.06 1.76 7Zm-1.85 2.02c0-5.98-1.91-8.98-5.72-8.98s-7.69 2.41-11.44 7.22c-3.93 4.93-5.9 10.12-5.9 15.58 0 2.7.62 4.87 1.85 6.51s2.9 2.46 5.02 2.46c3.58 0 7.13-2.35 10.65-7.04 3.7-4.93 5.54-10.18 5.54-15.75m30.89-2.02c0 6.04-2.1 12.14-6.29 18.3-4.2 6.16-8.49 9.24-12.89 9.24-2.46 0-4.37-.94-5.72-2.82s-2.02-4.46-2.02-7.74c0-4.93 1.44-9.62 4.31-14.08 2.35-3.58 5.31-6.66 8.89-9.24 3.11-2.17 5.51-3.26 7.22-3.26 1.99 0 3.58.87 4.75 2.6s1.76 4.06 1.76 7Zm-1.85 2.02c0-5.98-1.91-8.98-5.72-8.98s-7.69 2.41-11.44 7.22c-3.93 4.93-5.9 10.12-5.9 15.58 0 2.7.62 4.87 1.85 6.51s2.9 2.46 5.02 2.46c3.58 0 7.13-2.35 10.65-7.04 3.7-4.93 5.54-10.18 5.54-15.75m30.89-2.02c0 6.04-2.1 12.14-6.29 18.3-4.2 6.16-8.49 9.24-12.89 9.24-2.46 0-4.37-.94-5.72-2.82s-2.02-4.46-2.02-7.74c0-4.93 1.44-9.62 4.31-14.08 2.35-3.58 5.31-6.66 8.89-9.24 3.11-2.17 5.51-3.26 7.22-3.26 1.99 0 3.58.87 4.75 2.6s1.76 4.06 1.76 7Zm-1.85 2.02c0-5.98-1.91-8.98-5.72-8.98s-7.69 2.41-11.44 7.22c-3.93 4.93-5.9 10.12-5.9 15.58 0 2.7.62 4.87 1.85 6.51s2.9 2.46 5.02 2.46c3.58 0 7.13-2.35 10.65-7.04 3.7-4.93 5.54-10.18 5.54-15.75m51.74 16.55c-.35 1-2.49 2.49-6.42 4.49s-6.83 2.99-8.71 2.99c-1 0-1.5-.35-1.5-1.06 0-.94.98-2.82 2.95-5.63 1.96-2.82 2.95-4.66 2.95-5.54q0-1.5-1.41-1.5c-1.41 0-4.22 1.91-8.45 5.72-2.88 2.58-5.4 5.07-7.57 7.48-.82.88-1.47 1.32-1.94 1.32q-1.14 0-1.14-1.23c0-.24.21-.82.62-1.76a347 347 0 0 0 4.14-5.81c2.05-2.93 3.08-5.02 3.08-6.25 0-.53-.18-.79-.53-.79-.18 0-.53.12-1.06.35-2.99 2.23-7.25 5.4-12.76 9.5h-.62c-.41 0-.62-.06-.62-.18 0-.18.32-.47.97-.88 4.11-3.23 8.65-6.72 13.64-10.47.7-.59 1.61-.88 2.73-.88 1.17 0 1.76.53 1.76 1.58 0 1.23-.84 3.1-2.51 5.59s-2.51 3.86-2.51 4.09q0 .09.18.09c-.06 0 1.91-1.66 5.9-4.97s6.69-4.97 8.1-4.97c2.17 0 3.26.73 3.26 2.2 0 1.29-.94 3.4-2.82 6.34-1.88 2.93-2.82 4.61-2.82 5.02 0 .47.29.7.88.7 1.11 0 3.26-.85 6.42-2.55 2.17-1.23 3.84-2.26 5.02-3.08.18-.18.35-.26.53-.26s.26.12.26.35" class="st0"/><path d="M487.22 194.02c.47 0 1.61-.41 3.43-1.23 3.23-1.52 6.08-3.36 8.58-5.5 2.49-2.14 4.62-4.36 6.38-6.64.88-.88 1.52-1.32 1.94-1.32q1.14 0 1.14 1.14c0 .47-.21 1-.62 1.58-3.52 5.28-5.28 8.71-5.28 10.3 0 1.47.67 2.2 2.02 2.2 2.05 0 5.78-1.85 11.18-5.54.12-.12.4-.32.84-.62.44-.29.75-.44.92-.44s.26.12.26.35q0 .525-1.32 1.41c-7.28 4.87-12.14 7.3-14.61 7.3q-2.46 0-2.46-2.82c0-.59.07-1.22.22-1.89s.32-1.28.53-1.8c.21-.53.38-.97.53-1.32s.22-.5.22-.44c0-.23-.09-.35-.26-.35-.29 0-.9.35-1.8 1.06q-1.365 1.05-4.44 2.82-1.5.705-2.73 1.41c-.82.47-1.61.91-2.38 1.32-.76.41-1.5.73-2.2.97a5.6 5.6 0 0 1-2.2.26c-.82-.06-1.57-.25-2.24-.57s-1.01-1.04-1.01-2.16c0-.64.16-1.2.48-1.67s.66-.7 1.01-.7c.29 0 .53.15.7.44.18.29.38.63.62 1.01.23.38.5.72.79 1.01s.7.44 1.23.44h.53Z" class="st0"/><path d="M543.9 189.45q0 1.05-5.46 4.05c-3.81 2.11-6.54 3.17-8.18 3.17-3.05 0-4.58-1.61-4.58-4.84 0-.88.47-1.88 1.41-2.99q0-.09-.09-.09c.06 0-1.53 1.22-4.75 3.65-3.23 2.44-5.54 3.65-6.95 3.65s-2.02-.56-2.02-1.67q0-4.05 6.78-9.42c4.28-3.46 7.63-5.19 10.03-5.19.35.06.75.25 1.19.57q.66.48.66.75 0 .09-.09.18c-3.29 0-7.48 2.55-12.58 7.66q-2.46 2.46-2.46 4.14c0 .41.2.62.62.62 1.29 0 3.75-1.5 7.39-4.49 2.93-2.46 5.02-4.43 6.25-5.9.59-.7 1-1.06 1.23-1.06.59 0 .88.41.88 1.23 0 .29-.38.97-1.14 2.02q-3.78 5.19-3.78 6.6 0 2.46 2.73 2.46c2.99 0 7.04-1.73 12.14-5.19.18-.18.35-.26.53-.26s.26.12.26.35Z" class="st0"/><path d="M597.05 189.45q0 .525-1.32 1.41c-4.17 2.82-6.48 4.37-6.95 4.66-2.64 1.58-4.84 2.38-6.6 2.38-1 0-1.83-.35-2.51-1.06-.68-.7-1.01-1.55-1.01-2.55 0-2.93 1.88-7.13 5.63-12.58.29-.41.44-.67.44-.79q0-.09-.09-.09c-.24 0-.65.21-1.23.62-3.29 2.46-6.92 5.19-10.91 8.18-1.7 1.47-4.2 3.52-7.48 6.16-.47.35-1.12.67-1.94.97-.41 0-.62-.29-.62-.88 0-1.17.98-3.06 2.95-5.68 1.96-2.61 2.95-4.44 2.95-5.5q0-1.5-1.41-1.5c-1.41 0-4.22 1.91-8.45 5.72-2.88 2.58-5.4 5.07-7.57 7.48-.82.88-1.47 1.32-1.94 1.32q-1.14 0-1.14-1.23c0-.24.21-.82.62-1.76a347 347 0 0 0 4.14-5.81c2.05-2.93 3.08-5.02 3.08-6.25 0-.53-.18-.79-.53-.79-.18 0-.53.12-1.06.35-2.99 2.23-7.25 5.4-12.76 9.5h-.62c-.41 0-.62-.06-.62-.18 0-.18.32-.47.97-.88 4.11-3.23 8.65-6.72 13.64-10.47.7-.59 1.61-.88 2.73-.88 1.17 0 1.76.53 1.76 1.58 0 .24-.06.59-.18 1.06-1.17 2.05-2.67 4.66-4.49 7.83-.24.41-.35.68-.35.79q0 .09.18.09l.26-.09c2.17-1.88 4.34-3.75 6.51-5.63 3.34-2.82 5.75-4.22 7.22-4.22 1.94 0 2.9.62 2.9 1.85 0 1.06-.57 2.65-1.72 4.8-1.14 2.14-1.72 3.3-1.72 3.48s.06.26.18.26c.23 0 .64-.2 1.23-.62l18.3-13.82c.59-.47 1.2-.7 1.85-.7.41 0 .7.07.88.22s.26.4.26.75c0 .41-.12.76-.35 1.06-1.64 2.35-3.32 4.72-5.02 7.13-2 3.05-2.99 5.69-2.99 7.92 0 1.41.76 2.08 2.29 2.02 1.82-.06 3.87-.79 6.16-2.2 1.88-1.17 3.75-2.35 5.63-3.52.18-.18.35-.26.53-.26s.26.12.26.35Z" class="st0"/><path d="M598.45 192.62c0 1.58.64 2.38 1.94 2.38.94 0 1.88-.26 2.82-.79s1.85-1.2 2.73-2.02c-.88-.88-1.32-1.96-1.32-3.26 0-1.41.4-2.62 1.19-3.65s1.69-1.54 2.68-1.54 1.58.47 1.76 1.41c0 .88-.15 1.83-.44 2.86s-.82 2.13-1.58 3.3c.88.88 2.11 1.32 3.7 1.32 1.94 0 3.93-.79 5.98-2.38.18-.18.32-.26.44-.26.18 0 .26.12.26.35 0 .47-.32.91-.97 1.32s-1.39.79-2.24 1.14-1.72.63-2.6.84-1.55.31-2.02.31c-.82 0-1.47-.1-1.94-.31s-.97-.51-1.5-.92c-1.23 1.47-2.64 2.61-4.22 3.43s-3.11 1.23-4.58 1.23c-1.12 0-1.94-.46-2.46-1.36-.53-.91-.79-1.95-.79-3.12 0-.76.34-1.99 1.01-3.7.67-1.7 1.51-3.43 2.51-5.19q1.5-2.64 3.3-4.62t3.3-1.98c.47.12.7.26.7.44 0 .06-.48.73-1.45 2.02s-1.95 2.79-2.95 4.49-1.79 3.3-2.38 4.8-.88 2.66-.88 3.48Zm10.83-7.13c.23-.12.25-.22.04-.31s-.43-.13-.66-.13c-.47 0-.92.32-1.36.97q-.66.975-.66 2.55c0 .88.21 1.61.62 2.2.7-.88 1.22-1.8 1.54-2.77s.48-1.74.48-2.33z" class="st0"/><path d="M639.55 189.45c0 .41-1.2 1.38-3.61 2.9-5.93 3.76-10.18 5.63-12.76 5.63-3.81 0-5.72-2.23-5.72-6.69 0-3.29 1.6-6.58 4.8-9.9 3.2-3.31 6.23-4.97 9.11-4.97q1.32 0 1.32 1.23c0 2-1.73 4.81-5.19 8.45-2.76 2.88-5.02 4.84-6.78 5.9.18 2.58 1.41 3.87 3.7 3.87 2.17 0 5.81-1.47 10.91-4.4.41-.23 1.55-.94 3.43-2.11.18-.18.35-.26.53-.26s.26.12.26.35m-9.59-10.12c0-.7-.21-1.06-.62-1.06-1.47 0-3.26 1.47-5.37 4.4s-3.2 5.57-3.26 7.92c1.11-.35 2.87-1.88 5.28-4.58q3.96-4.395 3.96-6.69Z" class="st0"/><path d="M677.04 134.89c0 5.93-2.85 13.26-8.54 22-4.4 6.81-9.86 13.49-16.37 20.06-5.75 5.87-9.27 8.8-10.56 8.8.18 5.52 1.91 8.27 5.19 8.27 2.52 0 5.25-1.08 8.18-3.26-.59-1.06-.88-2.2-.88-3.43 0-3.99 1.29-5.98 3.87-5.98 1.06 0 1.67.73 1.85 2.2 0 2.05-.88 4.11-2.64 6.16 1 1.64 2.55 2.46 4.66 2.46q3.435 0 6.69-2.82c.18-.18.35-.26.53-.26s.26.12.26.35-.29.59-.88 1.06c-2.58 2.17-5.19 3.26-7.83 3.26-2.17 0-3.9-.73-5.19-2.2-3.46 3.17-6.84 4.75-10.12 4.75-1.94 0-3.54-.81-4.8-2.42q-1.89-2.415-1.89-5.85c0-6.51 2.29-14.4 6.86-23.67 4.17-8.45 9.12-15.94 14.87-22.48s10.38-9.81 13.9-9.81q2.82 0 2.82 2.82Zm-2.56 1.32c0-1.35-.53-2.02-1.58-2.02-2.76 0-6.72 3.32-11.88 9.94q-7.305 9.33-13.11 21.03c-4.11 8.21-6.16 14.4-6.16 18.57 0 .24.06.35.18.35 1.11 0 4.34-2.87 9.68-8.62 5.92-6.34 10.94-12.73 15.05-19.18 5.22-8.21 7.83-14.9 7.83-20.06Zm-15.57 47.87c0-.59-.21-.88-.62-.88-1.23 0-1.85 1.2-1.85 3.61 0 .82.12 1.56.35 2.2 1.41-1.58 2.11-3.23 2.11-4.93Zm-349.52 55.86c0 .1-.07.15-.22.15q-1.23-.09-6.03-.09c-.79 0-1.36-.15-1.69-.44-.34-.29-.57-.66-.68-1.1l-1.41-3.83c-.41-1.23-.83-2.19-1.25-2.88-.43-.69-.97-1.21-1.63-1.56s-1.53-.53-2.62-.53h-.13v5.76c0 1.56.23 2.66.68 3.3.45.65 1.17.97 2.13.97.15 0 .22.06.22.18s-.07.18-.22.18c-.44-.03-1.35-.04-2.73-.04h-5.24c-1.35 0-2.26.01-2.73.04-.15 0-.22-.06-.22-.18s.07-.18.22-.18c.97 0 1.68-.32 2.13-.97s.68-1.75.68-3.3v-5.76h-.09c-1.09 0-1.97.18-2.64.53q-1.02.525-1.65 1.56c-.43.69-.84 1.65-1.25 2.88l-1.36 3.83c-.15.47-.38.84-.7 1.12s-.88.42-1.67.42q-4.89 0-6.03.09c-.15 0-.22-.05-.22-.15s.07-.15.22-.15q1.275-.045 1.98-.81c.47-.51 1-1.49 1.58-2.93l.7-1.58c.73-1.85 1.74-3.15 3.01-3.89 1.28-.75 3.04-1.14 5.3-1.17-1.23-.23-2.27-.68-3.1-1.34-.84-.66-1.64-1.61-2.4-2.84l-.66-1.14c-.88-1.47-1.62-2.47-2.22-3.01s-1.36-.81-2.27-.81c-.15 0-.22-.06-.22-.18s.07-.18.22-.18l2.77.04h1.06l2.73-.04c.15 0 .22.06.22.18s-.07.18-.22.18c-1.38 0-2.07.53-2.07 1.58 0 .65.25 1.42.75 2.33l.44.84c.85 1.58 1.83 2.71 2.93 3.39s2.69 1.01 4.77 1.01h.09v-4.84c0-1.55-.23-2.66-.68-3.32q-.69-.99-2.13-.99c-.15 0-.22-.06-.22-.18s.07-.18.22-.18q1.41.09 2.73.09h5.24q1.41 0 2.73-.09c.15 0 .22.06.22.18s-.07.18-.22.18q-1.455 0-2.13.99c-.46.66-.68 1.77-.68 3.32v4.84h.13c2.08 0 3.67-.33 4.75-.99s2.07-1.8 2.95-3.41l.44-.84c.5-.91.75-1.69.75-2.33 0-1.06-.7-1.58-2.11-1.58-.15 0-.22-.06-.22-.18s.07-.18.22-.18l2.73.04h1.06l2.73-.04c.15 0 .22.06.22.18s-.07.18-.22.18c-.91 0-1.66.27-2.24.81-.59.54-1.32 1.55-2.2 3.01l-.66 1.14c-.73 1.23-1.52 2.18-2.35 2.84-.84.66-1.87 1.11-3.1 1.34 2.23.03 3.97.42 5.24 1.17 1.26.75 2.29 2.05 3.08 3.89l.66 1.58c.62 1.44 1.16 2.41 1.63 2.93.47.51 1.13.79 1.98.81.15 0 .22.05.22.15Zm23.72-19.98c0 .1-.09.17-.26.2-1.03.03-1.81.39-2.35 1.08q-.81 1.035-.81 3.45v15h2.46c.21 0 .31.1.31.31l.09 1.54c.15 1.85.23 2.96.26 3.34.03.18 0 .26-.11.26s-.17-.07-.2-.22c-.32-1.7-.86-2.95-1.61-3.74s-1.86-1.19-3.32-1.19h-12.41c-1.47 0-2.57.4-3.32 1.19s-1.28 2.04-1.61 3.74c-.03.15-.1.22-.2.22s-.14-.09-.11-.26c.18-1.53.26-2.64.26-3.34l.09-1.54c0-.21.1-.31.31-.31h1.36c1.03 0 1.81-1.63 2.35-4.88.54-3.26.89-7.02 1.03-11.31-.12-1.2-.44-2.05-.97-2.55s-1.25-.76-2.16-.79c-.18-.03-.26-.09-.24-.2.01-.1.1-.15.24-.15 1.23.09 2.08.13 2.55.13h15.53c.56 0 1.41-.04 2.55-.13.18 0 .26.05.26.15Zm-8.49 19.74v-19.45h-8.93c0 4.19-.24 8.28-.73 12.25-.48 3.98-1.22 6.37-2.22 7.19h11.88Zm32.21-19.63q0 .18-.18.18c-.65 0-1.18.28-1.61.84-.42.56-.96 1.61-1.61 3.17l-6.86 16.24c-.94 2.11-1.8 3.79-2.57 5.04-.78 1.25-1.62 2.18-2.53 2.79-.91.62-1.95.92-3.12.92-1.29 0-2.46-.31-3.52-.92-1.06-.62-1.64-1.33-1.76-2.16-.03-.41.16-1.06.57-1.96s.82-1.61 1.23-2.16c.41-.54.6-.58.57-.11-.03.62.18 1.41.64 2.38s1.05 1.82 1.78 2.55 1.51 1.1 2.33 1.1 1.6-.34 2.24-1.01q.96-1.02 1.98-3.3c.09-.44 0-1.06-.29-1.87-.28-.81-.59-1.58-.95-2.31l-6.42-15.22c-.65-1.55-1.18-2.61-1.61-3.17s-.96-.84-1.61-.84q-.18 0-.18-.18c0-.18.06-.18.18-.18l1.94.04h5.59l3.26-.04c.21 0 .31.06.31.18s-.1.18-.31.18c-1.76 0-2.64.65-2.64 1.94q0 .93.48 2.07l5.19 12.23c.06.18.14.27.24.29s.18-.07.24-.24l5.19-12.28c.35-.85.53-1.52.53-2.02q0-1.98-2.82-1.98c-.18 0-.26-.06-.26-.18s.09-.18.26-.18l3.43.04h.53l1.94-.04q.18 0 .18.18Zm21.38 7.66q-.135 0-.18-.18c-1.09-4.08-2.29-6.35-3.61-6.82-.26-.21-1.29-.31-3.08-.31-.18 0-.32.1-.44.29s-.18.43-.18.73v13.99c0 1.56.23 2.66.68 3.3.45.65 1.17.97 2.13.97.15 0 .22.06.22.18s-.07.18-.22.18c-.44-.03-1.35-.04-2.73-.04h-5.24c-1.38 0-2.29.01-2.73.04-.15 0-.22-.06-.22-.18s.07-.18.22-.18c.97 0 1.68-.32 2.13-.97s.68-1.75.68-3.3v-13.99c0-.29-.06-.54-.18-.73s-.26-.29-.44-.29c-1.79 0-2.82.1-3.08.31-1.32.47-2.52 2.74-3.61 6.82q-.045.18-.18.18c-.135 0-.12-.06-.09-.18.35-2.61.53-5 .53-7.17 0-.47.19-.7.57-.7.18 0 .68.06 1.52.18s2.49.18 4.95.18h5.06c2.38 0 4-.06 4.88-.18s1.42-.18 1.63-.18c.35 0 .53.24.53.7 0 2.17.18 4.56.53 7.17q.045.18-.09.18Zm38.76 12.14c0 .12-.07.18-.22.18-.44-.03-1.35-.04-2.73-.04h-5.24c-1.38 0-2.29.01-2.73.04-.15 0-.22-.06-.22-.18s.07-.18.22-.18c.97 0 1.68-.32 2.13-.97s.68-1.75.68-3.3v-10.6l-10.52 10.56v.04c0 1.56.23 2.66.68 3.3.45.65 1.17.97 2.13.97.15 0 .22.06.22.18s-.07.18-.22.18c-.47-.03-1.38-.04-2.73-.04h-5.24c-1.38 0-2.3.01-2.77.04-.15 0-.22-.06-.22-.18s.07-.18.22-.18c.97 0 1.69-.32 2.16-.97s.7-1.75.7-3.3v-10.87c0-1.55-.24-2.66-.7-3.32q-.705-.99-2.16-.99c-.15 0-.22-.06-.22-.18s.07-.18.22-.18c.94.06 1.86.09 2.77.09h5.24q1.32 0 2.73-.09c.15 0 .22.06.22.18s-.07.18-.22.18q-1.455 0-2.13.99c-.46.66-.68 1.77-.68 3.32v10.25l10.52-10.56c-.03-1.47-.27-2.5-.73-3.1s-1.15-.9-2.09-.9c-.15 0-.22-.06-.22-.18s.07-.18.22-.18q1.32.09 2.73.09h5.24q1.41 0 2.73-.09c.15 0 .22.06.22.18s-.07.18-.22.18q-1.455 0-2.13.99c-.46.66-.68 1.77-.68 3.32v10.87c0 1.56.23 2.66.68 3.3.45.65 1.17.97 2.13.97.15 0 .22.06.22.18Zm30.76 0c0 .12-.07.18-.22.18-.47-.03-1.38-.04-2.73-.04h-5.28c-1.35 0-2.26.01-2.73.04-.15 0-.22-.06-.22-.18s.07-.18.22-.18c.88 0 1.53-.25 1.96-.75.42-.5.64-1.33.64-2.51 0-.44-.01-.78-.04-1.01l-.97-11.66c-.03-.35-.12-.53-.26-.53-.09 0-.16.04-.22.13s-.12.22-.18.4l-6.2 15.71q-.18.48-.48.48c-.26 0-.46-.16-.57-.48l-6.16-15.88c-.09-.23-.18-.35-.26-.35h-.09l.31 1.14-.31-1.1c-.09.03-.13.13-.13.31l-1.06 11.84c-.03.26-.04.63-.04 1.1 0 1.14.21 1.96.62 2.44s1.06.73 1.94.73c.15 0 .22.06.22.18s-.07.18-.22.18c-.44-.03-1.35-.04-2.73-.04h-.53c-1.38 0-2.29.01-2.73.04-.15 0-.22-.06-.22-.18s.07-.18.22-.18c.97 0 1.69-.31 2.18-.95.48-.63.8-1.74.95-3.32l1.19-13.07c-.29-.76-.66-1.3-1.1-1.63-.44-.32-1-.48-1.67-.48-.15 0-.22-.06-.22-.18s.07-.18.22-.18l2.6.04h4.22c.41 0 .67.16.79.48l4.88 12.06c.09.21.19.31.31.31.15 0 .23-.1.26-.31l4.75-12.1c.06-.18.13-.29.22-.35s.22-.09.4-.09h3.87l2.77-.04c.15 0 .22.06.22.18s-.07.18-.22.18c-.88 0-1.53.24-1.96.73-.42.48-.64 1.3-.64 2.44 0 .47.01.84.04 1.1l1.06 10.91c.15 1.58.46 2.69.95 3.32.48.63 1.21.95 2.18.95.15 0 .22.06.22.18Zm20.83-3.74c.07.06.08.13.02.22a11.16 11.16 0 0 1-4.14 3.21c-1.61.73-3.3 1.1-5.06 1.1-1.85 0-3.56-.43-5.15-1.28a9.5 9.5 0 0 1-3.76-3.63c-.92-1.57-1.39-3.38-1.39-5.43s.51-3.89 1.52-5.59 2.38-3.04 4.11-4.03c1.73-.98 3.62-1.47 5.68-1.47 2.29 0 4.19.62 5.72 1.87 1.52 1.25 2.29 2.94 2.29 5.08 0 .97-.18 2.01-.53 3.12-3.08.06-7.8.19-14.17.4.5 1.61 1.27 3.06 2.31 4.33 1.04 1.28 2.24 2.27 3.59 2.99q2.025 1.08 3.96 1.08c2.14 0 3.75-.67 4.84-2.02.03-.03.08-.01.15.04Zm-14.08-14.54c-.87 1.01-1.3 2.53-1.3 4.55 0 1 .15 2.08.44 3.26 1.67-.03 3.64-.1 5.9-.22.59-.03 1.19-.06 1.83-.09.63-.03 1.27-.04 1.91-.04.26-.44.4-.98.4-1.63 0-.97-.27-2.03-.81-3.19s-1.23-2.14-2.07-2.95-1.68-1.21-2.53-1.21c-1.64 0-2.9.51-3.76 1.52Zm42.4 18.28c0 .12-.07.18-.22.18-.44-.03-1.35-.04-2.73-.04h-5.24c-1.29 0-2.16.01-2.6.04-.15 0-.22-.06-.22-.18s.07-.18.22-.18c.94 0 1.62-.32 2.05-.97.42-.65.64-1.75.64-3.3v-5.76c0-.35-.13-.51-.4-.48-1.56.24-3.1.35-4.62.35s-3.07-.12-4.62-.35h-.04c-.18 0-.26.16-.26.48v5.76c0 1.56.21 2.66.64 3.3.42.65 1.11.97 2.05.97.15 0 .22.06.22.18s-.07.18-.22.18c-.44-.03-1.31-.04-2.6-.04h-5.24c-1.38 0-2.3.01-2.77.04-.15 0-.22-.06-.22-.18s.07-.18.22-.18c.97 0 1.69-.32 2.16-.97s.7-1.75.7-3.3v-10.91c0-1.55-.24-2.65-.7-3.3-.47-.65-1.19-.97-2.16-.97-.15 0-.22-.06-.22-.18s.07-.18.22-.18l2.77.04h5.24l2.6-.04c.15 0 .22.06.22.18s-.07.18-.22.18c-.94 0-1.62.32-2.05.97s-.64 1.75-.64 3.3v3.83c0 .32.1.5.31.53 1.5.23 2.99.35 4.49.35 1.58 0 3.17-.12 4.75-.35.15-.03.25-.09.31-.18s.09-.2.09-.35v-3.83c0-1.55-.21-2.65-.64-3.3s-1.11-.97-2.05-.97c-.15 0-.22-.06-.22-.18s.07-.18.22-.18l2.6.04h5.24l2.73-.04c.15 0 .22.06.22.18s-.07.18-.22.18c-.97 0-1.68.32-2.13.97-.46.65-.68 1.75-.68 3.3v10.91c0 1.56.23 2.66.68 3.3.45.65 1.17.97 2.13.97.15 0 .22.06.22.18Zm28.24 0c0 .12-.07.18-.22.18-.44-.03-1.35-.04-2.73-.04h-5.24c-1.29 0-2.16.01-2.6.04-.15 0-.22-.06-.22-.18s.07-.18.22-.18c.94 0 1.62-.32 2.05-.97.42-.65.64-1.75.64-3.3v-5.76c0-.35-.13-.51-.4-.48-1.56.24-3.1.35-4.62.35s-3.07-.12-4.62-.35h-.04c-.18 0-.26.16-.26.48v5.76c0 1.56.21 2.66.64 3.3.42.65 1.11.97 2.05.97.15 0 .22.06.22.18s-.07.18-.22.18c-.44-.03-1.31-.04-2.6-.04h-5.24c-1.38 0-2.3.01-2.77.04-.15 0-.22-.06-.22-.18s.07-.18.22-.18c.97 0 1.69-.32 2.16-.97s.7-1.75.7-3.3v-10.91c0-1.55-.24-2.65-.7-3.3-.47-.65-1.19-.97-2.16-.97-.15 0-.22-.06-.22-.18s.07-.18.22-.18l2.77.04h5.24l2.6-.04c.15 0 .22.06.22.18s-.07.18-.22.18c-.94 0-1.62.32-2.05.97s-.64 1.75-.64 3.3v3.83c0 .32.1.5.31.53 1.5.23 2.99.35 4.49.35 1.58 0 3.17-.12 4.75-.35.15-.03.25-.09.31-.18s.09-.2.09-.35v-3.83c0-1.55-.21-2.65-.64-3.3s-1.11-.97-2.05-.97c-.15 0-.22-.06-.22-.18s.07-.18.22-.18l2.6.04h5.24l2.73-.04c.15 0 .22.06.22.18s-.07.18-.22.18c-.97 0-1.68.32-2.13.97-.46.65-.68 1.75-.68 3.3v10.91c0 1.56.23 2.66.68 3.3.45.65 1.17.97 2.13.97.15 0 .22.06.22.18Zm7.29-.46a9.53 9.53 0 0 1-3.83-3.67c-.92-1.58-1.39-3.39-1.39-5.41s.53-3.92 1.58-5.61c1.06-1.69 2.5-3.01 4.33-3.98s3.85-1.45 6.05-1.45c2.05 0 3.91.43 5.57 1.3s2.96 2.08 3.89 3.63c.94 1.56 1.41 3.33 1.41 5.32s-.54 3.94-1.61 5.65c-1.07 1.72-2.54 3.07-4.4 4.05s-3.91 1.47-6.14 1.47c-2.02 0-3.85-.43-5.48-1.3Zm11.83-1.19c.95-.95 1.43-2.35 1.43-4.2s-.46-3.77-1.39-5.94q-1.38-3.255-3.48-5.52c-1.39-1.51-2.75-2.27-4.07-2.27q-2.46 0-3.87 1.41c-.94.94-1.41 2.35-1.41 4.22 0 1.76.45 3.73 1.36 5.92s2.06 4.03 3.45 5.54 2.74 2.27 4.03 2.27c1.67 0 2.98-.48 3.94-1.43Zm37.82-10.49q-.135 0-.18-.18c-1.09-4.08-2.29-6.35-3.61-6.82-.26-.21-1.29-.31-3.08-.31-.18 0-.32.1-.44.29s-.18.43-.18.73v13.99c0 1.56.23 2.66.68 3.3.45.65 1.17.97 2.13.97.15 0 .22.06.22.18s-.07.18-.22.18c-.44-.03-1.35-.04-2.73-.04h-5.24c-1.38 0-2.29.01-2.73.04-.15 0-.22-.06-.22-.18s.07-.18.22-.18c.97 0 1.68-.32 2.13-.97s.68-1.75.68-3.3v-13.99c0-.29-.06-.54-.18-.73s-.26-.29-.44-.29c-1.79 0-2.82.1-3.08.31-1.32.47-2.52 2.74-3.61 6.82q-.045.18-.18.18c-.135 0-.12-.06-.09-.18.35-2.61.53-5 .53-7.17 0-.47.19-.7.57-.7.18 0 .68.06 1.52.18s2.49.18 4.95.18h5.06c2.38 0 4-.06 4.88-.18s1.42-.18 1.63-.18c.35 0 .53.24.53.7 0 2.17.18 4.56.53 7.17q.045.18-.09.18Zm21.67 8.4c.07.06.08.13.02.22a11.16 11.16 0 0 1-4.14 3.21c-1.61.73-3.3 1.1-5.06 1.1-1.85 0-3.56-.43-5.15-1.28a9.5 9.5 0 0 1-3.76-3.63c-.92-1.57-1.39-3.38-1.39-5.43s.51-3.89 1.52-5.59 2.38-3.04 4.11-4.03c1.73-.98 3.62-1.47 5.68-1.47 2.29 0 4.19.62 5.72 1.87 1.52 1.25 2.29 2.94 2.29 5.08 0 .97-.18 2.01-.53 3.12-3.08.06-7.8.19-14.17.4.5 1.61 1.27 3.06 2.31 4.33 1.04 1.28 2.24 2.27 3.59 2.99q2.025 1.08 3.96 1.08c2.14 0 3.75-.67 4.84-2.02.03-.03.08-.01.15.04Zm-14.08-14.54c-.87 1.01-1.3 2.53-1.3 4.55 0 1 .15 2.08.44 3.26 1.67-.03 3.64-.1 5.9-.22.59-.03 1.19-.06 1.83-.09.63-.03 1.27-.04 1.91-.04.26-.44.4-.98.4-1.63 0-.97-.27-2.03-.81-3.19s-1.23-2.14-2.07-2.95-1.68-1.21-2.53-1.21c-1.64 0-2.9.51-3.76 1.52Zm34.63-.09c1.66.87 2.96 2.05 3.92 3.54s1.43 3.2 1.43 5.1-.54 3.71-1.61 5.32-2.54 2.89-4.4 3.83-3.91 1.41-6.14 1.41c-2 0-3.79-.4-5.39-1.19s-2.87-1.91-3.81-3.34c-.94-1.44-1.44-3.08-1.5-4.93V229c0-3.75.62-6.92 1.85-9.5s2.84-4.55 4.82-5.9q2.97-2.025 6.45-2.46c2.11-.29 3.7-.58 4.75-.86 1.06-.28 1.75-.57 2.09-.88s.51-.68.51-1.12c0-.15.05-.22.15-.22s.17.07.2.22c.06.47.09.84.09 1.1 0 1.44-.48 2.72-1.43 3.85q-1.425 1.695-5.04 2.31c-1.47.26-3.12.51-4.97.75-1.76.23-3.03.44-3.81.62s-1.43.47-1.96.88c-.62.41-1.07 1.04-1.36 1.89s-.44 2.02-.44 3.52c0 .79.01 1.42.04 1.89 1.08-1.5 2.51-2.68 4.27-3.56s3.65-1.32 5.68-1.32 3.95.43 5.61 1.3Zm-.44 16.79c.95-.97 1.43-2.42 1.43-4.36 0-1.64-.43-3.48-1.3-5.5s-1.98-3.75-3.34-5.17-2.75-2.13-4.16-2.13c-1.7 0-3.03.48-3.98 1.43s-1.43 2.41-1.43 4.38c0 1.61.43 3.44 1.3 5.48s1.97 3.77 3.32 5.19 2.71 2.13 4.09 2.13c1.76 0 3.12-.48 4.07-1.45m30.03 1.58c0 .12-.07.18-.22.18-.47-.03-1.39-.04-2.77-.04h-5.24c-1.35 0-2.26.01-2.73.04-.15 0-.22-.06-.22-.18s.07-.18.22-.18c.97 0 1.68-.32 2.13-.97s.68-1.75.68-3.3v-12.76q0-2.07-1.23-2.16l-1.54-.04c-1.17-.03-2.05.12-2.62.44s-.94.81-1.1 1.47-.24 1.62-.24 2.88.21 2.19.64 2.97c.42.78 1.06 1.39 1.91 1.83 0-.03.03-.04.09-.04l.13.13q.93.435 2.73.66.18.045.15.18c-.03.135-.07.13-.15.13-.41.03-1 .04-1.76.04-1.2.03-2.11.12-2.73.26-.62.15-1.12.46-1.52.95-.4.48-.71 1.24-.95 2.27q-.705 2.865-1.89 4.2c-.79.9-2.04 1.27-3.74 1.12-.26-.03-.4-.34-.4-.92 0-.47.09-1 .26-1.61.18-.6.38-1.08.62-1.43.23-.35.44-.42.62-.22.7.5 1.38.75 2.02.75.29 0 .54-.04.75-.13q.885-.48 1.23-1.89c.47-1.64 1.3-2.84 2.51-3.61-1.91-.32-3.35-.94-4.33-1.85s-1.47-2.05-1.47-3.43c0-1.88.75-3.3 2.27-4.27 1.51-.97 3.85-1.45 7.02-1.45l7.88.04 2.77-.04c.15 0 .22.06.22.18s-.07.18-.22.18c-.97 0-1.69.32-2.16.97s-.7 1.75-.7 3.3v10.91c0 1.56.23 2.66.7 3.3.47.65 1.19.97 2.16.97.15 0 .22.06.22.18Zm4.9.09c-.51-.35-.77-.79-.77-1.32 0-.7.37-1.31 1.12-1.83.75-.51 1.69-.77 2.84-.77.85 0 1.54.18 2.07.53s.79.79.79 1.32c0 .67-.38 1.28-1.14 1.8-.76.53-1.72.79-2.86.79-.85 0-1.53-.18-2.05-.53Zm1.85-13.95c-.28-1.76-.7-4.21-1.25-7.35-.38-2.08-.67-3.72-.86-4.91s-.29-2.21-.29-3.06c0-1.35 1.06-2.02 3.17-2.02s3.08.68 3.08 2.02c0 .85-.09 1.85-.26 2.99s-.47 2.8-.88 4.97c-.56 3.02-.98 5.43-1.25 7.24-.28 1.8-.46 3.69-.55 5.65 0 .15-.05.22-.15.22s-.17-.07-.2-.22a50 50 0 0 0-.55-5.54Z" class="st0"/></g></svg>