<svg width="207" height="89" viewBox="0 0 207 89" fill="none" xmlns="http://www.w3.org/2000/svg">
<path d="M37.3917 81C37.0651 80.9767 36.6684 80.9767 36.2017 81C35.7584 81 35.4434 81 35.2567 81C35.1401 81 35.0817 80.965 35.0817 80.895C35.1051 80.8017 35.1751 80.755 35.2917 80.755C36.0384 80.755 36.5867 80.5333 36.9367 80.09C37.3101 79.6467 37.4967 78.9 37.4967 77.85V68.365C37.4967 67.315 37.3101 66.5683 36.9367 66.125C36.5867 65.6817 36.0384 65.46 35.2917 65.46C35.1751 65.46 35.1167 65.425 35.1167 65.355C35.1167 65.2617 35.1751 65.215 35.2917 65.215L37.3917 65.25L45.0917 65.18C46.7717 65.18 48.0784 65.4833 49.0117 66.09C49.9684 66.6967 50.4467 67.6067 50.4467 68.82C50.4467 69.66 50.0851 70.4067 49.3617 71.06C48.6384 71.7133 47.7984 72.0983 46.8417 72.215C48.1484 72.3083 49.2334 72.7167 50.0967 73.44C50.9601 74.14 51.3917 75.12 51.3917 76.38C51.3917 77.8033 50.8434 78.9467 49.7467 79.81C48.6501 80.65 47.1217 81.07 45.1617 81.07L37.3917 81ZM44.2167 72.075C45.5234 71.935 46.4451 71.62 46.9817 71.13C47.5184 70.64 47.7867 69.87 47.7867 68.82C47.7867 67.7467 47.4834 66.9417 46.8767 66.405C46.2701 65.845 45.4651 65.5417 44.4617 65.495L41.4167 65.39C41.1134 65.3667 40.9151 65.425 40.8217 65.565C40.7284 65.6817 40.6817 65.9267 40.6817 66.3V79.74C40.6817 80.1833 40.7401 80.4867 40.8567 80.65C40.9967 80.79 41.2534 80.86 41.6267 80.86H44.3217C45.6517 80.8367 46.6667 80.475 47.3667 79.775C48.0901 79.075 48.4517 78.06 48.4517 76.73C48.4517 75.3767 48.1251 74.35 47.4717 73.65C46.8417 72.9267 45.7917 72.5417 44.3217 72.495L42.8867 72.425C42.7934 72.425 42.7467 72.39 42.7467 72.32C42.7467 72.25 42.7934 72.215 42.8867 72.215L44.2167 72.075ZM61.6596 81.525C60.1196 81.525 58.7196 81.1867 57.4596 80.51C56.2229 79.8333 55.2429 78.8767 54.5196 77.64C53.8196 76.4033 53.4696 74.9917 53.4696 73.405C53.4696 71.8183 53.8662 70.36 54.6596 69.03C55.4529 67.7 56.5496 66.65 57.9496 65.88C59.3496 65.0867 60.9012 64.69 62.6046 64.69C64.1679 64.69 65.5796 65.0283 66.8396 65.705C68.0996 66.3817 69.0912 67.3383 69.8146 68.575C70.5612 69.7883 70.9346 71.1883 70.9346 72.775C70.9346 74.3617 70.5262 75.8317 69.7096 77.185C68.8929 78.515 67.7729 79.5767 66.3496 80.37C64.9496 81.14 63.3862 81.525 61.6596 81.525ZM63.1996 80.72C64.7629 80.72 65.9879 80.2767 66.8746 79.39C67.7612 78.5033 68.2046 77.1967 68.2046 75.47C68.2046 74.0467 67.8546 72.5533 67.1546 70.99C66.4779 69.4267 65.5796 68.12 64.4596 67.07C63.3629 66.02 62.2312 65.495 61.0646 65.495C59.5246 65.495 58.3229 65.9383 57.4596 66.825C56.5962 67.6883 56.1646 68.9833 56.1646 70.71C56.1646 72.11 56.5029 73.6033 57.1796 75.19C57.8796 76.7533 58.7662 78.0717 59.8396 79.145C60.9362 80.195 62.0562 80.72 63.1996 80.72ZM91.7519 80.79C91.8686 80.79 91.9269 80.8367 91.9269 80.93C91.9269 81 91.8686 81.035 91.7519 81.035C91.4019 81.0117 90.7019 81 89.6519 81H86.3269C85.3236 81 84.6469 81.0117 84.2969 81.035C84.1802 81.035 84.1219 81 84.1219 80.93C84.1219 80.8367 84.1802 80.79 84.2969 80.79C84.9969 80.79 85.5219 80.5683 85.8719 80.125C86.2219 79.6817 86.3969 78.9233 86.3969 77.85V65.425H78.3119V77.85C78.3119 78.9233 78.4869 79.6817 78.8369 80.125C79.1869 80.5683 79.7236 80.79 80.4469 80.79C80.5636 80.79 80.6219 80.8367 80.6219 80.93C80.6219 81 80.5636 81.035 80.4469 81.035C80.0969 81.0117 79.4202 81 78.4169 81H75.0919C74.0419 81 73.3302 81.0117 72.9569 81.035C72.8636 81.035 72.8169 81 72.8169 80.93C72.8169 80.8367 72.8636 80.79 72.9569 80.79C73.7036 80.79 74.2519 80.5683 74.6019 80.125C74.9752 79.6817 75.1619 78.9233 75.1619 77.85V68.33C75.1619 67.28 74.9752 66.5333 74.6019 66.09C74.2519 65.6467 73.7036 65.425 72.9569 65.425C72.8636 65.425 72.8169 65.39 72.8169 65.32C72.8169 65.2267 72.8636 65.18 72.9569 65.18L75.0919 65.215H89.6519L91.6819 65.18C91.7986 65.18 91.8569 65.2267 91.8569 65.32C91.8569 65.39 91.7986 65.425 91.6819 65.425C90.9586 65.425 90.4219 65.6467 90.0719 66.09C89.7219 66.5333 89.5469 67.28 89.5469 68.33V77.85C89.5469 78.9233 89.7219 79.6817 90.0719 80.125C90.4452 80.5683 91.0052 80.79 91.7519 80.79ZM105.492 64.69C106.705 64.69 107.813 65.0283 108.817 65.705C109.843 66.3583 110.648 67.2917 111.232 68.505C111.838 69.7183 112.142 71.13 112.142 72.74C112.142 74.2567 111.792 75.6917 111.092 77.045C110.415 78.375 109.47 79.4483 108.257 80.265C107.067 81.0817 105.748 81.49 104.302 81.49C103.298 81.49 102.482 81.35 101.852 81.07C101.245 80.79 100.673 80.44 100.137 80.02C99.7866 79.7633 99.5649 79.635 99.4716 79.635C99.2849 79.635 99.1916 79.8567 99.1916 80.3V84.92C99.1916 85.9467 99.3549 86.6817 99.6816 87.125C100.032 87.5683 100.533 87.8017 101.187 87.825C101.28 87.825 101.327 87.86 101.327 87.93C101.327 88.0233 101.28 88.07 101.187 88.07C100.207 88.0233 99.1449 88 98.0016 88C96.5316 88 95.2133 88.0233 94.0466 88.07C93.9299 88.07 93.8716 88.0233 93.8716 87.93C93.8949 87.86 93.9649 87.825 94.0816 87.825C94.7583 87.825 95.2483 87.6033 95.5516 87.16C95.8783 86.7167 96.0416 85.9583 96.0416 84.885V69.03C96.0416 68.2833 95.9249 67.735 95.6916 67.385C95.4816 67.035 95.0966 66.86 94.5366 66.86C94.4433 66.86 94.2333 66.8833 93.9066 66.93C93.8133 66.9533 93.7549 66.9417 93.7316 66.895C93.7316 66.825 93.7549 66.7783 93.8016 66.755C94.8049 66.4983 95.7966 66.195 96.7766 65.845C97.7566 65.495 98.5383 65.1217 99.1216 64.725C99.2383 64.655 99.3316 64.6317 99.4016 64.655C99.4716 64.6783 99.5066 64.7367 99.5066 64.83C99.3433 66.3467 99.2499 67.3383 99.2266 67.805C99.2733 68.6683 99.3549 69.1117 99.4716 69.135C100.918 66.1717 102.925 64.69 105.492 64.69ZM104.512 80.895C106.238 80.895 107.487 80.4283 108.257 79.495C109.027 78.5617 109.412 77.1733 109.412 75.33C109.412 73.79 109.155 72.3433 108.642 70.99C108.128 69.6367 107.405 68.5517 106.472 67.735C105.562 66.9183 104.535 66.51 103.392 66.51C102.155 66.51 101.14 67.0233 100.347 68.05C99.5766 69.0767 99.1916 70.4183 99.1916 72.075V74.105C99.1916 76.065 99.6583 77.6867 100.592 78.97C101.525 80.2533 102.832 80.895 104.512 80.895ZM122.397 81.525C120.857 81.525 119.457 81.1867 118.197 80.51C116.96 79.8333 115.98 78.8767 115.257 77.64C114.557 76.4033 114.207 74.9917 114.207 73.405C114.207 71.8183 114.604 70.36 115.397 69.03C116.19 67.7 117.287 66.65 118.687 65.88C120.087 65.0867 121.639 64.69 123.342 64.69C124.905 64.69 126.317 65.0283 127.577 65.705C128.837 66.3817 129.829 67.3383 130.552 68.575C131.299 69.7883 131.672 71.1883 131.672 72.775C131.672 74.3617 131.264 75.8317 130.447 77.185C129.63 78.515 128.51 79.5767 127.087 80.37C125.687 81.14 124.124 81.525 122.397 81.525ZM123.937 80.72C125.5 80.72 126.725 80.2767 127.612 79.39C128.499 78.5033 128.942 77.1967 128.942 75.47C128.942 74.0467 128.592 72.5533 127.892 70.99C127.215 69.4267 126.317 68.12 125.197 67.07C124.1 66.02 122.969 65.495 121.802 65.495C120.262 65.495 119.06 65.9383 118.197 66.825C117.334 67.6883 116.902 68.9833 116.902 70.71C116.902 72.11 117.24 73.6033 117.917 75.19C118.617 76.7533 119.504 78.0717 120.577 79.145C121.674 80.195 122.794 80.72 123.937 80.72ZM146.603 73.23C146.58 73.3467 146.522 73.3933 146.428 73.37C146.358 73.3467 146.347 73.2767 146.393 73.16C146.51 72.6233 146.568 72.1333 146.568 71.69C146.568 70.64 146.335 69.625 145.868 68.645C145.402 67.665 144.76 66.8833 143.943 66.3C143.15 65.6933 142.263 65.39 141.283 65.39C138.04 65.39 136.418 67.1983 136.418 70.815C136.418 72.5417 136.803 74.0933 137.573 75.47C138.367 76.8467 139.37 77.92 140.583 78.69C141.82 79.4367 143.057 79.81 144.293 79.81C145.04 79.81 145.81 79.6817 146.603 79.425C147.397 79.1683 148.073 78.69 148.633 77.99C148.727 77.92 148.785 77.9083 148.808 77.955C148.855 78.0017 148.855 78.06 148.808 78.13C147.875 79.2967 146.825 80.1483 145.658 80.685C144.492 81.2217 143.185 81.49 141.738 81.49C140.292 81.49 138.95 81.1517 137.713 80.475C136.5 79.7983 135.532 78.8417 134.808 77.605C134.085 76.3683 133.723 74.9567 133.723 73.37C133.723 71.76 134.12 70.3017 134.913 68.995C135.707 67.665 136.768 66.615 138.098 65.845C139.452 65.075 140.922 64.69 142.508 64.69C143.535 64.69 144.48 64.83 145.343 65.11C146.23 65.39 146.93 65.7517 147.443 66.195C147.98 66.6383 148.248 67.0933 148.248 67.56C148.248 67.6767 148.237 67.77 148.213 67.84L146.603 73.23ZM172.878 80.79C172.995 80.79 173.053 80.8367 173.053 80.93C173.053 81 172.995 81.035 172.878 81.035C172.505 81.0117 171.793 81 170.743 81H167.453C166.403 81 165.691 81.0117 165.318 81.035C165.201 81.035 165.143 81 165.143 80.93C165.143 80.8367 165.201 80.79 165.318 80.79C166.065 80.79 166.613 80.5683 166.963 80.125C167.336 79.6817 167.523 78.9233 167.523 77.85V68.26C167.523 67.1867 167.336 66.44 166.963 66.02C166.613 65.5767 166.065 65.355 165.318 65.355C165.201 65.355 165.143 65.3083 165.143 65.215C165.143 65.1217 165.201 65.075 165.318 65.075C166.065 65.1217 166.776 65.145 167.453 65.145H170.743C171.42 65.145 172.131 65.1217 172.878 65.075C172.995 65.075 173.053 65.1217 173.053 65.215C173.053 65.3083 172.995 65.355 172.878 65.355C172.131 65.355 171.571 65.5767 171.198 66.02C170.848 66.44 170.673 67.1867 170.673 68.26V77.85C170.673 78.9233 170.848 79.6817 171.198 80.125C171.571 80.5683 172.131 80.79 172.878 80.79ZM158.703 71.97C163.23 71.9 165.493 73.335 165.493 76.275C165.493 77.7683 164.956 78.935 163.883 79.775C162.81 80.5917 161.258 81 159.228 81H155.763H152.543C151.493 81 150.781 81.0117 150.408 81.035C150.315 81.035 150.268 81 150.268 80.93C150.268 80.8367 150.315 80.79 150.408 80.79C151.155 80.79 151.703 80.5683 152.053 80.125C152.426 79.6817 152.613 78.9233 152.613 77.85V68.33C152.613 67.28 152.426 66.5333 152.053 66.09C151.703 65.6467 151.155 65.425 150.408 65.425C150.315 65.425 150.268 65.39 150.268 65.32C150.268 65.2267 150.315 65.18 150.408 65.18L152.543 65.215H155.868L157.968 65.18C158.085 65.18 158.143 65.2267 158.143 65.32C158.143 65.39 158.085 65.425 157.968 65.425C157.221 65.425 156.661 65.6467 156.288 66.09C155.938 66.5333 155.763 67.28 155.763 68.33V71.585C155.763 71.865 155.868 72.005 156.078 72.005L158.703 71.97ZM158.318 80.72C159.555 80.6967 160.511 80.3 161.188 79.53C161.865 78.7367 162.203 77.6633 162.203 76.31C162.203 75.0267 161.865 74.0233 161.188 73.3C160.511 72.5533 159.531 72.1917 158.248 72.215L156.078 72.285C155.868 72.285 155.763 72.4133 155.763 72.67V79.81C155.763 80.16 155.81 80.405 155.903 80.545C155.996 80.685 156.183 80.755 156.463 80.755L158.318 80.72Z" fill="#181818"/>
<path d="M47.3394 48.528C47.3394 49.2 45.6114 50.448 42.1554 52.272C38.6994 54.096 34.4994 55.008 29.5554 55.008C26.7234 55.008 25.1874 54.72 24.9474 54.144C24.9474 53.808 25.2114 53.64 25.7394 53.64C26.4594 53.784 26.9154 53.856 27.1074 53.856C29.5554 53.856 32.1714 52.608 34.9554 50.112C37.5954 47.76 38.9154 45.744 38.9154 44.064C38.9154 43.344 38.4594 42.984 37.5474 42.984C33.0354 42.984 28.1154 47.256 22.7874 55.8C22.3554 56.472 19.7394 61.56 14.9394 71.064C10.0914 80.616 7.52344 85.728 7.23544 86.4C6.89944 87.216 6.46744 87.624 5.93944 87.624C5.74744 87.624 5.60344 87.6 5.50744 87.552C5.21944 87.456 5.07544 87.168 5.07544 86.688C5.07544 84.96 15.8754 64.8 37.4754 26.208C37.8594 25.536 38.2194 25.2 38.5554 25.2C38.6034 25.2 38.6994 25.248 38.8434 25.344C38.9874 25.44 39.0594 25.632 39.0594 25.92C39.0594 26.448 38.9154 26.856 38.6274 27.144C38.5794 27.288 36.6114 30.84 32.7234 37.8C29.0274 44.52 27.1794 48.096 27.1794 48.528C27.1794 48.576 27.2034 48.624 27.2514 48.672C27.2994 48.576 27.4674 48.384 27.7554 48.096C28.9074 46.704 30.4914 45.288 32.5074 43.848C35.1954 42.024 37.5474 41.112 39.5634 41.112C41.0514 41.112 41.7954 41.688 41.7954 42.84C41.7954 46.344 38.9874 49.776 33.3714 53.136C37.6434 53.136 42.0834 51.576 46.6914 48.456C46.8354 48.312 46.9794 48.24 47.1234 48.24C47.2674 48.24 47.3394 48.336 47.3394 48.528ZM64.3995 48.528C64.3995 48.864 63.4155 49.656 61.4475 50.904C56.5995 53.976 53.1195 55.512 51.0075 55.512C47.8875 55.512 46.3275 53.688 46.3275 50.04C46.3275 47.352 47.6235 44.664 50.2155 41.976C52.8555 39.24 55.3515 37.872 57.7035 37.872C58.4235 37.872 58.7835 38.208 58.7835 38.88C58.7835 40.512 57.3675 42.816 54.5355 45.792C52.2795 48.144 50.4315 49.752 48.9915 50.616C49.1355 52.728 50.1435 53.784 52.0155 53.784C53.7915 53.784 56.7675 52.584 60.9435 50.184C61.2795 49.992 62.2155 49.416 63.7515 48.456C63.8955 48.312 64.0395 48.24 64.1835 48.24C64.3275 48.24 64.3995 48.336 64.3995 48.528ZM56.5515 40.248C56.5515 39.672 56.3835 39.384 56.0475 39.384C54.8475 39.384 53.3835 40.584 51.6555 42.984C49.9275 45.384 49.0395 47.544 48.9915 49.464C49.9035 49.176 51.3435 47.928 53.3115 45.72C55.4715 43.32 56.5515 41.496 56.5515 40.248ZM79.8345 43.416C79.7385 43.656 79.4505 44.232 78.9705 45.144C78.5385 46.056 78.0585 47.016 77.5305 48.024C77.0025 49.032 76.5225 49.992 76.0905 50.904C75.6585 51.768 75.4425 52.272 75.4425 52.416C75.4425 52.8 75.6105 52.992 75.9465 52.992C76.7145 52.992 78.5865 51.72 81.5625 49.176C84.5385 46.728 86.8665 44.424 88.5465 42.264C89.2665 41.544 89.7945 41.184 90.1305 41.184C90.7545 41.184 91.0665 41.496 91.0665 42.12C91.0665 42.504 90.8985 42.936 90.5625 43.416C87.6825 47.736 86.2425 50.544 86.2425 51.84C86.2425 53.04 86.7945 53.64 87.8985 53.64C89.5785 53.64 92.6265 52.128 97.0425 49.104C97.2345 48.912 97.5705 48.696 98.0505 48.456C98.1945 48.312 98.3385 48.24 98.4825 48.24C98.6265 48.24 98.6985 48.336 98.6985 48.528C98.6985 48.816 98.3385 49.2 97.6185 49.68C91.6665 53.664 87.6825 55.656 85.6665 55.656C84.3225 55.656 83.6505 54.888 83.6505 53.352C83.6505 52.44 83.8185 51.576 84.1545 50.76C84.6345 49.608 84.8745 48.984 84.8745 48.888C84.8745 48.696 84.8025 48.6 84.6585 48.6C84.7065 48.6 84.5865 48.648 84.2985 48.744C83.7705 49.272 83.1225 49.848 82.3545 50.472C81.5865 51.096 80.6985 51.792 79.6905 52.56C77.1465 54.48 75.3465 55.44 74.2905 55.44C73.1385 55.44 72.5625 54.864 72.5625 53.712C72.5625 53.376 72.7545 52.824 73.1385 52.056C73.5225 51.288 74.1225 50.136 74.9385 48.6C74.9865 48.6 74.8665 48.648 74.5785 48.744C74.0505 49.272 73.4025 49.848 72.6345 50.472C71.8665 51.096 70.9785 51.792 69.9705 52.56C67.4265 54.48 65.6265 55.44 64.5705 55.44C63.4185 55.44 62.8425 54.864 62.8425 53.712C62.8425 53.088 63.6825 51.24 65.3625 48.168C67.0425 45.048 67.8825 43.272 67.8825 42.84C67.8825 42.312 67.4505 42.048 66.5865 42.048C66.3945 42.048 66.2985 41.76 66.2985 41.184C66.7305 41.04 67.1865 40.968 67.6665 40.968C69.3465 40.968 70.1865 41.448 70.1865 42.408C70.1865 43.464 69.4425 45.24 67.9545 47.736C66.4665 50.232 65.7225 51.792 65.7225 52.416C65.7225 52.8 65.8905 52.992 66.2265 52.992C66.9945 52.992 68.8665 51.72 71.8425 49.176C72.9945 48.216 74.0985 47.136 75.1545 45.936C76.2585 44.688 77.1465 43.464 77.8185 42.264C78.5385 41.544 79.0665 41.184 79.4025 41.184C80.0265 41.184 80.3385 41.496 80.3385 42.12C80.3385 42.504 80.1705 42.936 79.8345 43.416ZM120.99 48.528C120.99 49.104 119.502 50.208 116.526 51.84C113.406 53.568 111.174 54.432 109.83 54.432C107.334 54.432 106.086 53.112 106.086 50.472C106.086 49.752 106.47 48.936 107.238 48.024C107.238 47.976 107.214 47.952 107.166 47.952C107.214 47.952 105.918 48.96 103.278 50.976C100.638 52.944 98.7424 53.928 97.5904 53.928C96.4864 53.928 95.9344 53.472 95.9344 52.56C95.9344 50.352 97.7824 47.784 101.478 44.856C104.982 42.024 107.718 40.608 109.686 40.608C109.974 40.656 110.286 40.824 110.622 41.112C111.006 41.352 111.198 41.544 111.198 41.688C111.198 41.736 111.174 41.784 111.126 41.832C108.438 41.832 105.006 43.92 100.83 48.096C99.4864 49.44 98.8144 50.568 98.8144 51.48C98.8144 51.816 98.9824 51.984 99.3184 51.984C100.374 51.984 102.39 50.76 105.366 48.312C107.766 46.296 109.47 44.688 110.478 43.488C110.958 42.912 111.294 42.624 111.486 42.624C111.966 42.624 112.206 42.96 112.206 43.632C112.206 43.872 111.894 44.424 111.27 45.288C109.206 48.12 108.174 49.92 108.174 50.688C108.174 52.032 108.918 52.704 110.406 52.704C112.854 52.704 116.166 51.288 120.342 48.456C120.486 48.312 120.63 48.24 120.774 48.24C120.918 48.24 120.99 48.336 120.99 48.528ZM164.444 48.528C164.444 48.816 164.084 49.2 163.364 49.68C159.956 51.984 158.06 53.256 157.676 53.496C155.516 54.792 153.716 55.44 152.276 55.44C151.46 55.44 150.764 55.152 150.188 54.576C149.66 54 149.396 53.304 149.396 52.488C149.396 50.088 150.932 46.656 154.004 42.192C154.244 41.856 154.364 41.64 154.364 41.544C154.364 41.496 154.34 41.472 154.292 41.472C154.1 41.472 153.764 41.64 153.284 41.976C150.596 43.992 147.62 46.224 144.356 48.672C142.964 49.872 140.924 51.552 138.236 53.712C137.852 54 137.324 54.264 136.652 54.504C136.316 54.504 136.148 54.264 136.148 53.784C136.148 52.824 136.94 51.288 138.524 49.176C140.156 47.016 140.972 45.504 140.972 44.64C140.972 43.824 140.588 43.416 139.82 43.416C138.668 43.416 136.364 44.976 132.908 48.096C130.556 50.208 128.492 52.248 126.716 54.216C126.044 54.936 125.516 55.296 125.132 55.296C124.508 55.296 124.196 54.96 124.196 54.288C124.196 54.096 124.364 53.616 124.7 52.848C125.852 51.264 126.98 49.68 128.084 48.096C129.764 45.696 130.604 43.992 130.604 42.984C130.604 42.552 130.46 42.336 130.172 42.336C130.028 42.336 129.74 42.432 129.308 42.624C126.86 44.448 123.38 47.04 118.868 50.4H118.364C118.028 50.4 117.86 50.352 117.86 50.256C117.86 50.112 118.124 49.872 118.652 49.536C122.012 46.896 125.732 44.04 129.812 40.968C130.388 40.488 131.132 40.248 132.044 40.248C133.004 40.248 133.484 40.68 133.484 41.544C133.484 41.736 133.436 42.024 133.34 42.408C132.38 44.088 131.156 46.224 129.668 48.816C129.476 49.152 129.38 49.368 129.38 49.464C129.38 49.512 129.428 49.536 129.524 49.536L129.74 49.464C131.516 47.928 133.292 46.392 135.068 44.856C137.804 42.552 139.772 41.4 140.972 41.4C142.556 41.4 143.348 41.904 143.348 42.912C143.348 43.776 142.868 45.096 141.908 46.872C140.996 48.6 140.54 49.536 140.54 49.68C140.54 49.824 140.588 49.896 140.684 49.896C140.876 49.896 141.212 49.728 141.692 49.392L156.668 38.088C157.148 37.704 157.652 37.512 158.18 37.512C158.516 37.512 158.756 37.584 158.9 37.728C159.044 37.824 159.116 38.016 159.116 38.304C159.116 38.64 159.02 38.928 158.828 39.168C157.484 41.088 156.116 43.032 154.724 45C153.092 47.496 152.276 49.656 152.276 51.48C152.276 52.632 152.9 53.184 154.148 53.136C155.636 53.088 157.316 52.488 159.188 51.336C160.724 50.376 162.26 49.416 163.796 48.456C163.94 48.312 164.084 48.24 164.228 48.24C164.372 48.24 164.444 48.336 164.444 48.528ZM165.561 51.12C165.561 52.416 166.089 53.064 167.145 53.064C167.913 53.064 168.681 52.848 169.449 52.416C170.217 51.984 170.961 51.432 171.681 50.76C170.961 50.04 170.601 49.152 170.601 48.096C170.601 46.944 170.913 45.96 171.537 45.144C172.209 44.28 172.953 43.848 173.769 43.848C174.585 43.848 175.065 44.232 175.209 45C175.209 45.72 175.089 46.512 174.849 47.376C174.609 48.192 174.177 49.08 173.553 50.04C174.273 50.76 175.281 51.12 176.577 51.12C178.161 51.12 179.793 50.472 181.473 49.176C181.617 49.032 181.737 48.96 181.833 48.96C181.977 48.96 182.049 49.056 182.049 49.248C182.049 49.632 181.785 49.992 181.257 50.328C180.729 50.664 180.105 50.976 179.385 51.264C178.713 51.552 178.017 51.792 177.297 51.984C176.577 52.128 176.025 52.2 175.641 52.2C174.969 52.2 174.441 52.128 174.057 51.984C173.673 51.792 173.265 51.528 172.833 51.192C171.825 52.392 170.673 53.328 169.377 54C168.081 54.672 166.833 55.008 165.633 55.008C164.721 55.008 164.049 54.648 163.617 53.928C163.185 53.16 162.969 52.296 162.969 51.336C162.969 50.712 163.233 49.704 163.761 48.312C164.337 46.92 165.033 45.504 165.849 44.064C166.665 42.624 167.553 41.376 168.513 40.32C169.521 39.216 170.433 38.664 171.249 38.664C171.633 38.76 171.825 38.88 171.825 39.024C171.825 39.072 171.417 39.624 170.601 40.68C169.833 41.736 169.041 42.96 168.225 44.352C167.409 45.744 166.761 47.064 166.281 48.312C165.801 49.512 165.561 50.448 165.561 51.12ZM174.417 45.288C174.609 45.192 174.609 45.12 174.417 45.072C174.273 44.976 174.105 44.928 173.913 44.928C173.529 44.928 173.145 45.192 172.761 45.72C172.425 46.248 172.257 46.944 172.257 47.808C172.257 48.528 172.425 49.128 172.761 49.608C173.337 48.888 173.745 48.144 173.985 47.376C174.273 46.56 174.417 45.912 174.417 45.432V45.288Z" fill="#181818"/>
<path d="M61.6136 26.79C61.7303 26.79 61.7886 26.8367 61.7886 26.93C61.7886 27 61.7303 27.035 61.6136 27.035C61.2636 27.0117 60.5636 27 59.5136 27H56.1886C55.1853 27 54.5086 27.0117 54.1586 27.035C54.042 27.035 53.9836 27 53.9836 26.93C53.9836 26.8367 54.042 26.79 54.1586 26.79C54.8586 26.79 55.3836 26.5683 55.7336 26.125C56.0836 25.6817 56.2586 24.9233 56.2586 23.85V18.845C56.2586 18.565 56.1653 18.4367 55.9786 18.46C54.7186 18.67 53.4003 18.775 52.0236 18.775C50.6703 18.775 49.3636 18.67 48.1036 18.46H48.0686C47.9053 18.46 47.8236 18.5883 47.8236 18.845V23.85C47.8236 24.9233 47.9986 25.6817 48.3486 26.125C48.6986 26.5683 49.2353 26.79 49.9586 26.79C50.0753 26.79 50.1336 26.8367 50.1336 26.93C50.1336 27 50.0753 27.035 49.9586 27.035C49.6086 27.0117 48.932 27 47.9286 27H44.6036C43.5536 27 42.842 27.0117 42.4686 27.035C42.3753 27.035 42.3286 27 42.3286 26.93C42.3286 26.8367 42.3753 26.79 42.4686 26.79C43.2153 26.79 43.7636 26.5683 44.1136 26.125C44.487 25.6817 44.6736 24.9233 44.6736 23.85V14.33C44.6736 13.28 44.487 12.5333 44.1136 12.09C43.7636 11.6467 43.2153 11.425 42.4686 11.425C42.3753 11.425 42.3286 11.39 42.3286 11.32C42.3286 11.2267 42.3753 11.18 42.4686 11.18L44.6036 11.215H47.9286L49.9586 11.18C50.0753 11.18 50.1336 11.2267 50.1336 11.32C50.1336 11.39 50.0753 11.425 49.9586 11.425C49.2353 11.425 48.6986 11.6467 48.3486 12.09C47.9986 12.5333 47.8236 13.28 47.8236 14.33V17.795C47.8236 18.0517 47.917 18.1917 48.1036 18.215C49.3636 18.425 50.6703 18.53 52.0236 18.53C53.4003 18.53 54.7186 18.425 55.9786 18.215C56.1653 18.1917 56.2586 18.0517 56.2586 17.795V14.33C56.2586 13.28 56.0836 12.5333 55.7336 12.09C55.3836 11.6467 54.8586 11.425 54.1586 11.425C54.042 11.425 53.9836 11.39 53.9836 11.32C53.9836 11.2267 54.042 11.18 54.1586 11.18L56.1886 11.215H59.5136L61.6136 11.18C61.7303 11.18 61.7886 11.2267 61.7886 11.32C61.7886 11.39 61.7303 11.425 61.6136 11.425C60.867 11.425 60.307 11.6467 59.9336 12.09C59.5836 12.5333 59.4086 13.28 59.4086 14.33V23.85C59.4086 24.9233 59.5836 25.6817 59.9336 26.125C60.307 26.5683 60.867 26.79 61.6136 26.79ZM80.6293 21.575C80.6293 21.4583 80.6643 21.4 80.7343 21.4C80.8043 21.4 80.8393 21.4583 80.8393 21.575C80.8393 23.185 80.5243 24.5617 79.8943 25.705C79.2876 26.825 78.436 27.385 77.3393 27.385C76.5226 27.385 75.846 27.0933 75.3093 26.51C74.796 25.9033 74.5393 25.005 74.5393 23.815V23.64C73.9793 24.8533 73.221 25.7983 72.2643 26.475C71.3076 27.1517 70.2576 27.49 69.1143 27.49C67.2943 27.49 65.9293 26.9883 65.0193 25.985C64.1326 24.9817 63.6893 23.7917 63.6893 22.415C63.6893 21.1083 64.3076 20.0583 65.5443 19.265C66.8043 18.4717 68.356 18.075 70.1993 18.075C70.876 18.075 71.611 18.1333 72.4043 18.25C73.221 18.3667 73.9326 18.53 74.5393 18.74V17.06C74.5393 15.17 74.131 13.805 73.3143 12.965C72.4976 12.1017 71.3193 11.67 69.7793 11.67C68.4026 11.67 67.2243 12.1133 66.2443 13C65.2876 13.8867 64.8093 15.1817 64.8093 16.885C64.8093 17.0717 64.751 17.165 64.6343 17.165C64.541 17.165 64.4943 17.0717 64.4943 16.885C64.4943 15.625 64.8093 14.5283 65.4393 13.595C66.0693 12.6617 66.886 11.95 67.8893 11.46C68.916 10.9467 69.9893 10.69 71.1093 10.69C75.496 10.69 77.6893 12.8017 77.6893 17.025V23.185C77.6893 23.955 77.771 24.5267 77.9343 24.9C78.121 25.25 78.4243 25.425 78.8443 25.425C79.5676 25.425 80.0343 25.0867 80.2443 24.41C80.4776 23.7333 80.606 22.7883 80.6293 21.575ZM70.5493 25.81C73.2093 25.81 74.5393 24.2817 74.5393 21.225V21.015C74.2126 20.2917 73.6526 19.7083 72.8593 19.265C72.0893 18.8217 71.261 18.6 70.3743 18.6C67.691 18.6 66.3493 19.5333 66.3493 21.4C66.3493 22.59 66.711 23.6283 67.4343 24.515C68.181 25.3783 69.2193 25.81 70.5493 25.81ZM98.5094 11.11C98.626 11.11 98.6844 11.1567 98.6844 11.25C98.7077 11.32 98.6494 11.355 98.5094 11.355C97.646 11.4017 97.0044 11.6583 96.5844 12.125C96.1644 12.5683 95.966 13.3617 95.9894 14.505V26.79H97.9144C98.0777 26.79 98.1594 26.86 98.1594 27L98.1944 28.225C98.2644 29.345 98.3344 30.1733 98.4044 30.71C98.4277 30.8267 98.3927 30.885 98.2994 30.885C98.2294 30.9083 98.1827 30.8617 98.1594 30.745C97.926 29.3917 97.5527 28.4233 97.0394 27.84C96.526 27.28 95.7327 27 94.6594 27H84.6844C83.611 27 82.8177 27.28 82.3044 27.84C81.791 28.4233 81.4177 29.3917 81.1844 30.745C81.161 30.8617 81.1027 30.9083 81.0094 30.885C80.9394 30.885 80.916 30.8267 80.9394 30.71C81.0094 30.1733 81.0794 29.345 81.1494 28.225L81.1844 27C81.1844 26.86 81.266 26.79 81.4294 26.79H82.4794C83.296 26.7667 83.9144 25.4133 84.3344 22.73C84.7777 20.0467 85.0344 17.0017 85.1044 13.595C85.011 12.8017 84.7544 12.2417 84.3344 11.915C83.9377 11.5883 83.3777 11.4017 82.6544 11.355C82.5144 11.355 82.4444 11.32 82.4444 11.25C82.4677 11.1567 82.5377 11.11 82.6544 11.11L84.5444 11.215H96.5844L98.5094 11.11ZM92.8394 26.79V11.425H85.3844C85.3844 14.9017 85.186 18.18 84.7894 21.26C84.3927 24.34 83.8094 26.1833 83.0394 26.79H92.8394ZM107.7 27.525C106.16 27.525 104.76 27.1867 103.5 26.51C102.263 25.8333 101.283 24.8767 100.56 23.64C99.8596 22.4033 99.5096 20.9917 99.5096 19.405C99.5096 17.8183 99.9063 16.36 100.7 15.03C101.493 13.7 102.59 12.65 103.99 11.88C105.39 11.0867 106.941 10.69 108.645 10.69C110.208 10.69 111.62 11.0283 112.88 11.705C114.14 12.3817 115.131 13.3383 115.855 14.575C116.601 15.7883 116.975 17.1883 116.975 18.775C116.975 20.3617 116.566 21.8317 115.75 23.185C114.933 24.515 113.813 25.5767 112.39 26.37C110.99 27.14 109.426 27.525 107.7 27.525ZM109.24 26.72C110.803 26.72 112.028 26.2767 112.915 25.39C113.801 24.5033 114.245 23.1967 114.245 21.47C114.245 20.0467 113.895 18.5533 113.195 16.99C112.518 15.4267 111.62 14.12 110.5 13.07C109.403 12.02 108.271 11.495 107.105 11.495C105.565 11.495 104.363 11.9383 103.5 12.825C102.636 13.6883 102.205 14.9833 102.205 16.71C102.205 18.11 102.543 19.6033 103.22 21.19C103.92 22.7533 104.806 24.0717 105.88 25.145C106.976 26.195 108.096 26.72 109.24 26.72ZM133.901 23.99C133.925 23.9433 133.96 23.9433 134.006 23.99C134.076 24.0367 134.088 24.095 134.041 24.165C133.155 25.285 132.105 26.125 130.891 26.685C129.678 27.2217 128.371 27.49 126.971 27.49C125.548 27.49 124.23 27.1517 123.016 26.475C121.803 25.7983 120.835 24.8417 120.111 23.605C119.388 22.3683 119.026 20.9567 119.026 19.37C119.026 17.7367 119.411 16.2667 120.181 14.96C120.975 13.63 122.036 12.5917 123.366 11.845C124.696 11.075 126.143 10.69 127.706 10.69C129.456 10.69 130.903 11.18 132.046 12.16C133.213 13.14 133.796 14.4583 133.796 16.115C133.796 16.9317 133.668 17.725 133.411 18.495C131.498 18.5183 127.625 18.6117 121.791 18.775C122.071 20.1517 122.62 21.3767 123.436 22.45C124.276 23.5233 125.245 24.3517 126.341 24.935C127.438 25.5183 128.511 25.81 129.561 25.81C131.498 25.81 132.945 25.2033 133.901 23.99ZM126.376 11.285C124.836 11.285 123.658 11.7517 122.841 12.685C122.025 13.595 121.616 14.9833 121.616 16.85C121.616 17.5033 121.663 18.075 121.756 18.565L125.886 18.425C126.89 18.355 128.441 18.2967 130.541 18.25C130.728 17.8767 130.821 17.41 130.821 16.85C130.821 16.0333 130.611 15.1933 130.191 14.33C129.771 13.4433 129.211 12.72 128.511 12.16C127.835 11.5767 127.123 11.285 126.376 11.285ZM153.554 26.79C153.671 26.79 153.729 26.8367 153.729 26.93C153.729 27 153.671 27.035 153.554 27.035C153.204 27.0117 152.504 27 151.454 27H148.129C147.079 27 146.368 27.0117 145.994 27.035C145.901 27.035 145.854 27 145.854 26.93C145.854 26.8367 145.901 26.79 145.994 26.79C146.741 26.79 147.289 26.5683 147.639 26.125C148.013 25.6817 148.199 24.9233 148.199 23.85V11.425H140.779L139.939 22.45C139.869 23.9667 139.624 25.1917 139.204 26.125C138.808 27.0583 138.096 27.525 137.069 27.525C135.903 27.525 135.319 27.1983 135.319 26.545C135.319 26.4283 135.331 26.335 135.354 26.265L136.054 23.185C136.101 23.0683 136.148 23.0217 136.194 23.045C136.264 23.045 136.299 23.1033 136.299 23.22C136.276 24.2467 136.369 24.9467 136.579 25.32C136.813 25.67 137.198 25.845 137.734 25.845C138.901 25.845 139.566 24.7133 139.729 22.45L140.324 14.33C140.394 13.28 140.254 12.5333 139.904 12.09C139.554 11.6467 139.006 11.425 138.259 11.425C138.143 11.425 138.084 11.39 138.084 11.32C138.084 11.2267 138.143 11.18 138.259 11.18L140.394 11.215H151.454L153.554 11.18C153.671 11.18 153.729 11.2267 153.729 11.32C153.729 11.39 153.671 11.425 153.554 11.425C152.808 11.425 152.248 11.6467 151.874 12.09C151.524 12.5333 151.349 13.28 151.349 14.33V23.85C151.349 24.9233 151.524 25.6817 151.874 26.125C152.248 26.5683 152.808 26.79 153.554 26.79ZM163.823 27.525C162.283 27.525 160.883 27.1867 159.623 26.51C158.386 25.8333 157.406 24.8767 156.683 23.64C155.983 22.4033 155.633 20.9917 155.633 19.405C155.633 17.8183 156.029 16.36 156.823 15.03C157.616 13.7 158.713 12.65 160.113 11.88C161.513 11.0867 163.064 10.69 164.768 10.69C166.331 10.69 167.743 11.0283 169.003 11.705C170.263 12.3817 171.254 13.3383 171.978 14.575C172.724 15.7883 173.098 17.1883 173.098 18.775C173.098 20.3617 172.689 21.8317 171.873 23.185C171.056 24.515 169.936 25.5767 168.513 26.37C167.113 27.14 165.549 27.525 163.823 27.525ZM165.363 26.72C166.926 26.72 168.151 26.2767 169.038 25.39C169.924 24.5033 170.368 23.1967 170.368 21.47C170.368 20.0467 170.018 18.5533 169.318 16.99C168.641 15.4267 167.743 14.12 166.623 13.07C165.526 12.02 164.394 11.495 163.228 11.495C161.688 11.495 160.486 11.9383 159.623 12.825C158.759 13.6883 158.328 14.9833 158.328 16.71C158.328 18.11 158.666 19.6033 159.343 21.19C160.043 22.7533 160.929 24.0717 162.003 25.145C163.099 26.195 164.219 26.72 165.363 26.72Z" fill="#181818"/>
</svg>
