<svg xmlns="http://www.w3.org/2000/svg" width="207" height="89" fill="none" viewBox="0 0 207 89"><path fill="#181818" d="M37.392 81a10 10 0 0 0-1.19 0h-.945q-.175 0-.175-.105.035-.14.21-.14 1.12 0 1.645-.665.56-.665.56-2.24v-9.485q0-1.575-.56-2.24-.526-.665-1.645-.665-.175 0-.175-.105 0-.14.175-.14l2.1.035 7.7-.07q2.52 0 3.92.91 1.435.91 1.435 2.73 0 1.26-1.085 2.24a4.5 4.5 0 0 1-2.52 1.155q1.959.14 3.255 1.225 1.295 1.05 1.295 2.94 0 2.135-1.645 3.43-1.645 1.26-4.585 1.26zm6.825-8.925q1.96-.21 2.765-.945t.805-2.31q0-1.61-.91-2.415-.91-.84-2.415-.91l-3.045-.105q-.456-.035-.595.175-.14.175-.14.735v13.44q0 .665.175.91.21.21.77.21h2.695q1.995-.035 3.045-1.085 1.085-1.05 1.085-3.045 0-2.03-.98-3.08-.945-1.085-3.15-1.155l-1.435-.07q-.14 0-.14-.105t.14-.105zm17.443 9.45q-2.31 0-4.2-1.015a7.55 7.55 0 0 1-2.94-2.87q-1.05-1.855-1.05-4.235t1.19-4.375 3.29-3.15q2.1-1.19 4.655-1.19 2.345 0 4.235 1.015a7.5 7.5 0 0 1 2.975 2.87q1.12 1.82 1.12 4.2a8.4 8.4 0 0 1-1.225 4.41q-1.226 1.995-3.36 3.185-2.1 1.155-4.69 1.155m1.54-.805q2.345 0 3.675-1.33t1.33-3.92q0-2.135-1.05-4.48-1.015-2.345-2.695-3.92-1.646-1.575-3.395-1.575-2.31 0-3.605 1.33-1.295 1.295-1.295 3.885 0 2.1 1.015 4.48 1.05 2.345 2.66 3.955 1.644 1.575 3.36 1.575m28.552.07q.175 0 .175.14 0 .105-.175.105-.525-.035-2.1-.035h-3.325q-1.505 0-2.03.035-.175 0-.175-.105 0-.14.175-.14 1.05 0 1.575-.665t.525-2.275V65.425h-8.085V77.85q0 1.61.525 2.275t1.61.665q.175 0 .175.14 0 .105-.175.105-.525-.035-2.03-.035h-3.325q-1.575 0-2.135.035-.14 0-.14-.105 0-.14.14-.14 1.12 0 1.645-.665.56-.665.56-2.275v-9.52q0-1.575-.56-2.24-.525-.665-1.645-.665-.14 0-.14-.105 0-.14.14-.14l2.135.035h14.56l2.03-.035q.175 0 .175.14 0 .105-.175.105-1.085 0-1.61.665t-.525 2.24v9.52q0 1.61.525 2.275.56.665 1.68.665m13.74-16.1q1.82 0 3.325 1.015 1.539.98 2.415 2.8.91 1.82.91 4.235a9.24 9.24 0 0 1-1.05 4.305 8.4 8.4 0 0 1-2.835 3.22 6.84 6.84 0 0 1-3.955 1.225q-1.505 0-2.45-.42a8.6 8.6 0 0 1-1.715-1.05q-.525-.385-.665-.385-.28 0-.28.665v4.62q0 1.54.49 2.205.524.665 1.505.7.14 0 .14.105 0 .14-.14.14-1.47-.07-3.185-.07-2.206 0-3.955.07-.175 0-.175-.14.035-.105.21-.105 1.014 0 1.47-.665.49-.665.49-2.275V69.03q0-1.12-.35-1.645-.315-.525-1.155-.525-.141 0-.63.07-.14.035-.175-.035 0-.105.07-.14a34 34 0 0 0 2.975-.91q1.47-.525 2.345-1.12.174-.105.28-.07.105.035.105.175-.246 2.275-.28 2.975.07 1.295.245 1.33 2.17-4.445 6.02-4.445m-.98 16.205q2.59 0 3.745-1.4t1.155-4.165q0-2.31-.77-4.34t-2.17-3.255q-1.365-1.225-3.08-1.225-1.855 0-3.045 1.54-1.155 1.54-1.155 4.025v2.03q0 2.94 1.4 4.865t3.92 1.925m17.885.63q-2.31 0-4.2-1.015a7.55 7.55 0 0 1-2.94-2.87q-1.05-1.855-1.05-4.235t1.19-4.375 3.29-3.15q2.1-1.19 4.655-1.19 2.345 0 4.235 1.015a7.5 7.5 0 0 1 2.975 2.87q1.12 1.82 1.12 4.2a8.4 8.4 0 0 1-1.225 4.41q-1.226 1.995-3.36 3.185-2.1 1.155-4.69 1.155m1.54-.805q2.344 0 3.675-1.33t1.33-3.92q0-2.135-1.05-4.48-1.015-2.345-2.695-3.92-1.645-1.575-3.395-1.575-2.31 0-3.605 1.33-1.295 1.295-1.295 3.885 0 2.1 1.015 4.48 1.05 2.345 2.66 3.955 1.645 1.575 3.36 1.575m22.666-7.49q-.034.175-.175.14-.104-.035-.035-.21a7 7 0 0 0 .175-1.47 7 7 0 0 0-.7-3.045q-.7-1.47-1.925-2.345a4.27 4.27 0 0 0-2.66-.91q-4.865 0-4.865 5.425 0 2.59 1.155 4.655 1.19 2.065 3.01 3.22 1.856 1.12 3.71 1.12 1.12 0 2.31-.385t2.03-1.435q.14-.105.175-.035.07.07 0 .175-1.4 1.75-3.15 2.555t-3.92.805a8.25 8.25 0 0 1-4.025-1.015q-1.82-1.015-2.905-2.87t-1.085-4.235q0-2.415 1.19-4.375a8.8 8.8 0 0 1 3.185-3.15 8.77 8.77 0 0 1 4.41-1.155q1.54 0 2.835.42 1.33.42 2.1 1.085.805.665.805 1.365a.9.9 0 0 1-.035.28zm26.275 7.56q.175 0 .175.14 0 .105-.175.105-.56-.035-2.135-.035h-3.29q-1.575 0-2.135.035-.175 0-.175-.105 0-.14.175-.14 1.12 0 1.645-.665.56-.665.56-2.275v-9.59q0-1.61-.56-2.24-.525-.665-1.645-.665-.175 0-.175-.14t.175-.14q1.12.07 2.135.07h3.29q1.015 0 2.135-.07.175 0 .175.14t-.175.14q-1.12 0-1.68.665-.525.63-.525 2.24v9.59q0 1.61.525 2.275.56.665 1.68.665m-14.175-8.82q6.79-.105 6.79 4.305 0 2.24-1.61 3.5Q162.273 81 159.228 81h-6.685q-1.575 0-2.135.035-.14 0-.14-.105 0-.14.14-.14 1.12 0 1.645-.665.56-.665.56-2.275v-9.52q0-1.575-.56-2.24-.525-.665-1.645-.665-.14 0-.14-.105 0-.14.14-.14l2.135.035h3.325l2.1-.035q.175 0 .175.14 0 .105-.175.105-1.12 0-1.68.665-.525.665-.525 2.24v3.255q0 .42.315.42zm-.385 8.75q1.855-.035 2.87-1.19 1.015-1.19 1.015-3.22 0-1.925-1.015-3.01-1.015-1.12-2.94-1.085l-2.17.07q-.315 0-.315.385v7.14q0 .525.14.735t.56.21zM47.34 48.528q0 1.008-5.185 3.744t-12.6 2.736q-4.248 0-4.608-.864 0-.504.792-.504 1.08.216 1.368.216 3.672 0 7.848-3.744 3.96-3.528 3.96-6.048 0-1.08-1.368-1.08-6.768 0-14.76 12.816-.648 1.008-7.848 15.264Q7.667 85.392 7.235 86.4q-.504 1.224-1.296 1.224-.288 0-.432-.072-.432-.144-.432-.864 0-2.592 32.4-60.48.576-1.008 1.08-1.008.072 0 .288.144t.216.576q0 .792-.432 1.224-.072.216-5.904 10.656-5.544 10.08-5.544 10.728 0 .072.072.144.072-.144.504-.576 1.728-2.088 4.752-4.248 4.032-2.736 7.056-2.736 2.232 0 2.232 1.728 0 5.256-8.424 10.296 6.408 0 13.32-4.68.216-.216.432-.216t.216.288m17.06 0q0 .504-2.953 2.376-7.271 4.608-10.44 4.608-4.68 0-4.68-5.472 0-4.032 3.889-8.064 3.96-4.104 7.487-4.104 1.08 0 1.08 1.008 0 2.448-4.248 6.912-3.383 3.528-5.543 4.824.216 3.168 3.024 3.168 2.664 0 8.928-3.6.503-.288 2.807-1.728.217-.216.432-.216.216 0 .216.288m-7.849-8.28q0-.864-.504-.864-1.8 0-4.391 3.6-2.593 3.6-2.664 6.48 1.368-.432 4.32-3.744 3.24-3.6 3.24-5.472m23.284 3.168q-.144.36-.864 1.728a80 80 0 0 1-1.44 2.88 80 80 0 0 0-1.44 2.88q-.648 1.296-.648 1.512 0 .576.504.576 1.151 0 5.615-3.816 4.466-3.672 6.984-6.912 1.08-1.08 1.584-1.08.936 0 .937.936 0 .576-.504 1.296-4.32 6.48-4.32 8.424 0 1.8 1.656 1.8 2.52 0 9.144-4.536.287-.288 1.007-.648.216-.216.433-.216.215 0 .215.288 0 .432-1.08 1.152-8.927 5.976-11.951 5.976-2.016 0-2.017-2.304 0-1.368.504-2.592.72-1.728.72-1.872 0-.288-.215-.288.07 0-.36.144a26 26 0 0 1-1.945 1.728q-1.151.936-2.663 2.088-3.816 2.88-5.4 2.88-1.729 0-1.728-1.728 0-.504.575-1.656.576-1.152 1.8-3.456.073 0-.36.144a26 26 0 0 1-1.944 1.728q-1.151.936-2.663 2.088-3.817 2.88-5.4 2.88-1.728 0-1.728-1.728 0-.936 2.52-5.544 2.52-4.68 2.52-5.328 0-.792-1.296-.792-.289 0-.288-.864a4.3 4.3 0 0 1 1.367-.216q2.52 0 2.52 1.44 0 1.584-2.232 5.328-2.23 3.744-2.231 4.68 0 .576.504.576 1.152 0 5.615-3.816a30 30 0 0 0 3.313-3.24q1.656-1.872 2.663-3.672 1.08-1.08 1.585-1.08.935 0 .935.936 0 .576-.503 1.296m41.155 5.112q0 .864-4.464 3.312-4.68 2.592-6.696 2.592-3.744 0-3.744-3.96 0-1.08 1.152-2.448 0-.072-.072-.072.072 0-3.888 3.024-3.96 2.952-5.688 2.952-1.656 0-1.656-1.368 0-3.312 5.544-7.704 5.256-4.248 8.208-4.248.432.072.936.504.576.36.576.576 0 .072-.072.144-4.032 0-10.296 6.264-2.016 2.016-2.016 3.384 0 .504.504.504 1.584 0 6.048-3.672 3.6-3.024 5.112-4.824.72-.864 1.008-.864.72 0 .72 1.008 0 .36-.936 1.656-3.096 4.248-3.096 5.4 0 2.016 2.232 2.016 3.672 0 9.936-4.248.216-.216.432-.216t.216.288m43.454 0q0 .432-1.08 1.152-5.112 3.456-5.688 3.816-3.24 1.944-5.4 1.944a2.85 2.85 0 0 1-2.088-.864q-.792-.864-.792-2.088 0-3.6 4.608-10.296.36-.504.36-.648 0-.072-.072-.072-.288 0-1.008.504l-8.928 6.696q-2.088 1.8-6.12 5.04-.576.432-1.584.792-.504 0-.504-.72 0-1.44 2.376-4.608 2.448-3.24 2.448-4.536 0-1.224-1.152-1.224-1.728 0-6.912 4.68-3.528 3.168-6.192 6.12-1.008 1.08-1.584 1.08-.936 0-.936-1.008 0-.288.504-1.44a290 290 0 0 0 3.384-4.752q2.52-3.6 2.52-5.112 0-.648-.432-.648-.216 0-.864.288l-10.44 7.776h-.504q-.504 0-.504-.144 0-.216.792-.72 5.04-3.96 11.16-8.568.864-.72 2.232-.72 1.44 0 1.44 1.296 0 .288-.144.864-1.44 2.52-3.672 6.408-.288.504-.288.648 0 .072.144.072l.216-.072 5.328-4.608q4.104-3.456 5.904-3.456 2.376 0 2.376 1.512 0 1.296-1.44 3.96-1.368 2.592-1.368 2.808t.144.216q.288 0 1.008-.504l14.976-11.304q.72-.576 1.512-.576.504 0 .72.216.216.144.216.576 0 .504-.288.864-2.016 2.88-4.104 5.832-2.448 3.744-2.448 6.48 0 1.728 1.872 1.656 2.232-.072 5.04-1.8l4.608-2.88q.216-.216.432-.216t.216.288m1.117 2.592q0 1.944 1.584 1.944 1.152 0 2.304-.648a11.7 11.7 0 0 0 2.232-1.656q-1.08-1.08-1.08-2.664 0-1.728.936-2.952 1.008-1.296 2.232-1.296t1.44 1.152q0 1.08-.36 2.376-.36 1.224-1.296 2.664 1.08 1.08 3.024 1.08 2.376 0 4.896-1.944.216-.216.36-.216.216 0 .216.288 0 .576-.792 1.08t-1.872.936q-1.008.432-2.088.72-1.08.216-1.656.216-1.008 0-1.584-.216a7.5 7.5 0 0 1-1.224-.792q-1.512 1.8-3.456 2.808t-3.744 1.008q-1.368 0-2.016-1.08-.648-1.152-.648-2.592 0-.936.792-3.024a39 39 0 0 1 2.088-4.248q1.224-2.16 2.664-3.744 1.512-1.656 2.736-1.656.576.144.576.36 0 .072-1.224 1.656a45 45 0 0 0-2.376 3.672q-1.224 2.088-1.944 3.96-.72 1.8-.72 2.808m8.856-5.832q.288-.144 0-.216a.9.9 0 0 0-.504-.144q-.576 0-1.152.792-.504.792-.504 2.088 0 1.08.504 1.8.864-1.08 1.224-2.232.432-1.224.432-1.944zM61.614 26.79q.174 0 .175.14 0 .105-.175.105-.525-.035-2.1-.035h-3.325q-1.505 0-2.03.035-.175 0-.175-.105 0-.14.175-.14 1.05 0 1.575-.665t.525-2.275v-5.005q0-.42-.28-.385-1.89.315-3.955.315-2.03 0-3.92-.315h-.035q-.245 0-.245.385v5.005q0 1.61.525 2.275t1.61.665q.174 0 .175.14 0 .105-.175.105-.525-.035-2.03-.035h-3.325q-1.575 0-2.135.035-.14 0-.14-.105 0-.14.14-.14 1.12 0 1.645-.665.56-.665.56-2.275v-9.52q0-1.575-.56-2.24-.526-.665-1.645-.665-.14 0-.14-.105 0-.14.14-.14l2.135.035h3.325l2.03-.035q.174 0 .175.14 0 .105-.175.105-1.085 0-1.61.665t-.525 2.24v3.465q0 .386.28.42 1.89.315 3.92.315 2.064 0 3.955-.315.28-.034.28-.42V14.33q0-1.575-.525-2.24t-1.575-.665q-.175 0-.175-.105 0-.14.175-.14l2.03.035h3.325l2.1-.035q.174 0 .175.14 0 .105-.175.105-1.12 0-1.68.665-.525.665-.525 2.24v9.52q0 1.61.525 2.275.56.665 1.68.665m19.015-5.215q0-.175.105-.175t.105.175q0 2.415-.945 4.13-.91 1.68-2.555 1.68-1.224 0-2.03-.875-.77-.91-.77-2.695v-.175q-.84 1.82-2.275 2.835-1.434 1.015-3.15 1.015-2.73 0-4.095-1.505-1.33-1.505-1.33-3.57 0-1.96 1.855-3.15 1.89-1.19 4.655-1.19 1.016 0 2.205.175 1.226.175 2.135.49v-1.68q0-2.835-1.225-4.095-1.225-1.295-3.535-1.295-2.065 0-3.535 1.33-1.435 1.33-1.435 3.885 0 .28-.175.28-.14 0-.14-.28 0-1.89.945-3.29a6.2 6.2 0 0 1 2.45-2.135 7.1 7.1 0 0 1 3.22-.77q6.58 0 6.58 6.335v6.16q0 1.155.245 1.715.28.525.91.525 1.085 0 1.4-1.015.35-1.015.385-2.835M70.55 25.81q3.99 0 3.99-4.585v-.21q-.489-1.085-1.68-1.75a4.9 4.9 0 0 0-2.485-.665q-4.025 0-4.025 2.8 0 1.785 1.085 3.115 1.12 1.295 3.115 1.295m27.96-14.7q.175 0 .175.14.035.105-.175.105-1.295.07-1.925.77-.63.665-.595 2.38V26.79h1.925q.246 0 .245.21l.035 1.225q.105 1.68.21 2.485.036.175-.105.175-.104.035-.14-.14-.35-2.03-1.12-2.905-.77-.84-2.38-.84h-9.975q-1.61 0-2.38.84-.77.875-1.12 2.905-.034.175-.175.14-.105 0-.07-.175.105-.805.21-2.485L81.184 27q0-.21.245-.21h1.05q1.225-.035 1.855-4.06.666-4.024.77-9.135-.14-1.19-.77-1.68-.594-.49-1.68-.56-.21 0-.21-.105.036-.14.21-.14l1.89.105h12.04zm-5.67 15.68V11.425h-7.455q0 5.215-.595 9.835-.594 4.62-1.75 5.53zm14.861.735q-2.31 0-4.2-1.015a7.55 7.55 0 0 1-2.94-2.87q-1.05-1.855-1.05-4.235t1.19-4.375 3.29-3.15q2.1-1.19 4.655-1.19 2.345 0 4.235 1.015a7.5 7.5 0 0 1 2.975 2.87q1.12 1.82 1.12 4.2a8.4 8.4 0 0 1-1.225 4.41q-1.225 1.995-3.36 3.185-2.1 1.155-4.69 1.155m1.54-.805q2.344 0 3.675-1.33t1.33-3.92q0-2.135-1.05-4.48-1.015-2.345-2.695-3.92-1.646-1.575-3.395-1.575-2.31 0-3.605 1.33-1.295 1.294-1.295 3.885 0 2.1 1.015 4.48 1.05 2.345 2.66 3.955 1.644 1.575 3.36 1.575m24.661-2.73q.036-.07.105 0 .105.07.035.175-1.329 1.68-3.15 2.52-1.82.805-3.92.805a8 8 0 0 1-3.955-1.015q-1.82-1.015-2.905-2.87t-1.085-4.235q0-2.45 1.155-4.41a8.5 8.5 0 0 1 3.185-3.115 8.5 8.5 0 0 1 4.34-1.155q2.625 0 4.34 1.47 1.75 1.47 1.75 3.955 0 1.225-.385 2.38-2.87.035-11.62.28a8.9 8.9 0 0 0 1.645 3.675q1.26 1.61 2.905 2.485t3.22.875q2.906 0 4.34-1.82m-7.525-12.705q-2.31 0-3.535 1.4-1.224 1.365-1.225 4.165 0 .98.14 1.715l4.13-.14q1.506-.105 4.655-.175.28-.56.28-1.4 0-1.226-.63-2.52-.63-1.33-1.68-2.17-1.014-.875-2.135-.875m27.178 15.505q.175 0 .175.14 0 .105-.175.105-.525-.035-2.1-.035h-3.325q-1.575 0-2.135.035-.14 0-.14-.105 0-.14.14-.14 1.12 0 1.645-.665.56-.665.56-2.275V11.425h-7.42l-.84 11.025q-.105 2.275-.735 3.675-.594 1.4-2.135 1.4-1.75 0-1.75-.98a1 1 0 0 1 .035-.28l.7-3.08q.07-.175.14-.14.105 0 .105.175-.035 1.54.28 2.1.351.525 1.155.525 1.75 0 1.995-3.395l.595-8.12q.105-1.575-.42-2.24t-1.645-.665q-.174 0-.175-.105 0-.14.175-.14l2.135.035h11.06l2.1-.035q.175 0 .175.14 0 .105-.175.105-1.119 0-1.68.665-.525.665-.525 2.24v9.52q0 1.61.525 2.275.561.665 1.68.665m10.269.735q-2.31 0-4.2-1.015a7.55 7.55 0 0 1-2.94-2.87q-1.05-1.855-1.05-4.235t1.19-4.375 3.29-3.15q2.1-1.19 4.655-1.19 2.345 0 4.235 1.015a7.5 7.5 0 0 1 2.975 2.87q1.12 1.82 1.12 4.2a8.4 8.4 0 0 1-1.225 4.41q-1.226 1.995-3.36 3.185-2.1 1.155-4.69 1.155m1.54-.805q2.344 0 3.675-1.33t1.33-3.92q0-2.135-1.05-4.48-1.015-2.345-2.695-3.92-1.646-1.575-3.395-1.575-2.31 0-3.605 1.33-1.296 1.294-1.295 3.885 0 2.1 1.015 4.48 1.05 2.345 2.66 3.955 1.644 1.575 3.36 1.575"/></svg>