<svg xmlns="http://www.w3.org/2000/svg" width="196" height="98" fill="none" viewBox="0 0 196 98"><path fill="#181818" d="M17.368 90.525q-2.31 0-4.2-1.015a7.55 7.55 0 0 1-2.94-2.87q-1.05-1.855-1.05-4.235t1.19-4.375 3.29-3.15q2.1-1.19 4.655-1.19 2.345 0 4.235 1.015a7.5 7.5 0 0 1 2.975 2.87q1.12 1.82 1.12 4.2a8.4 8.4 0 0 1-1.225 4.41q-1.226 1.995-3.36 3.185-2.1 1.155-4.69 1.155m1.54-.805q2.345 0 3.675-1.33t1.33-3.92q0-2.135-1.05-4.48-1.015-2.345-2.695-3.92-1.646-1.575-3.395-1.575-2.31 0-3.605 1.33-1.296 1.295-1.295 3.885 0 2.1 1.015 4.48 1.05 2.345 2.66 3.955 1.644 1.575 3.36 1.575m19.067-15.47q2.345 0 4.27 1.015t3.045 2.8 1.12 4.06a7.67 7.67 0 0 1-1.225 4.2q-1.225 1.925-3.36 3.08-2.1 1.12-4.69 1.12-2.275 0-4.13-.945a7.7 7.7 0 0 1-2.905-2.695q-1.085-1.75-1.12-3.99V81.04q0-4.55 1.435-7.525 1.47-2.975 3.71-4.41a11.8 11.8 0 0 1 4.9-1.82q2.555-.42 3.78-.77t1.575-.7q.385-.35.385-.91 0-.175.105-.175t.14.175.035.56q0 3.605-5.18 4.55L37.8 70.4q-2.94.525-4.2.91-1.26.35-1.995 1.085-.7.595-1.05 1.75-.315 1.155-.315 3.045 0 .77.035 1.19a9 9 0 0 1 3.255-3.01 9.2 9.2 0 0 1 4.445-1.12m.595 15.54q2.415 0 3.745-1.33 1.365-1.33 1.365-4.025 0-2.03-.98-4.235-.98-2.24-2.625-3.71-1.61-1.505-3.43-1.505-2.344 0-3.675 1.33-1.295 1.294-1.295 3.99 0 1.96.945 4.2.98 2.24 2.59 3.78 1.61 1.505 3.36 1.505m22.794-7.56q-.034.175-.175.14-.105-.035-.035-.21a7 7 0 0 0 .175-1.47q0-1.575-.7-3.045T58.704 75.3a4.27 4.27 0 0 0-2.66-.91q-4.865 0-4.865 5.425 0 2.59 1.155 4.655 1.19 2.065 3.01 3.22 1.856 1.12 3.71 1.12 1.12 0 2.31-.385t2.03-1.435q.14-.105.175-.035.07.07 0 .175-1.4 1.75-3.15 2.555t-3.92.805a8.25 8.25 0 0 1-4.025-1.015q-1.82-1.015-2.905-2.87t-1.085-4.235q0-2.415 1.19-4.375a8.77 8.77 0 0 1 3.185-3.15 8.77 8.77 0 0 1 4.41-1.155q1.54 0 2.835.42 1.33.42 2.1 1.085.805.665.805 1.365 0 .175-.035.28zm18.75-2.24q.035.14-.07.14t-.14-.105q-1.085-4.62-2.415-5.145-.21-.175-.91-.21a28 28 0 0 0-1.995-.105q-.21 0-.385.21-.14.21-.14.595v11.48q0 1.61.525 2.275.56.665 1.68.665.175 0 .175.14 0 .105-.175.105-.56-.035-2.135-.035h-3.29q-1.575 0-2.135.035-.14 0-.14-.105 0-.14.14-.14 1.12 0 1.645-.665.56-.665.56-2.275V75.37q0-.385-.14-.595t-.35-.21q-1.33.035-2.03.105-.7.034-.91.21-1.33.525-2.415 5.145-.035.105-.14.105-.07 0-.035-.14.42-3.43.42-5.425.034-.315.105-.42.105-.105.315-.105t1.12.14q.91.105 4.06.105h3.15q3.15 0 4.06-.105.945-.14 1.155-.14.385 0 .385.525.07 2.66.455 5.425m18.67 4.585q0-.175.105-.175t.105.175q0 2.415-.945 4.13-.91 1.68-2.555 1.68-1.226 0-2.03-.875-.77-.91-.77-2.695v-.175q-.84 1.82-2.275 2.835t-3.15 1.015q-2.73 0-4.095-1.505-1.33-1.505-1.33-3.57 0-1.96 1.855-3.15 1.89-1.19 4.655-1.19 1.014 0 2.205.175 1.224.175 2.135.49v-1.68q0-2.835-1.225-4.095-1.225-1.295-3.535-1.295-2.065 0-3.535 1.33-1.435 1.33-1.435 3.885 0 .28-.175.28-.14 0-.14-.28 0-1.89.945-3.29a6.2 6.2 0 0 1 2.45-2.135 7.1 7.1 0 0 1 3.22-.77q6.58 0 6.58 6.335v6.16q0 1.155.245 1.715.28.525.91.525 1.085 0 1.4-1.015.35-1.016.385-2.835m-10.08 4.235q3.99 0 3.99-4.585v-.21q-.49-1.085-1.68-1.75a4.9 4.9 0 0 0-2.485-.665q-4.026 0-4.025 2.8 0 1.785 1.085 3.115 1.12 1.295 3.115 1.295m29.516.98q.175 0 .175.14 0 .105-.175.105-.525-.035-2.1-.035h-3.325q-1.505 0-2.03.035-.175 0-.175-.105 0-.14.175-.14 1.05 0 1.575-.665t.525-2.275v-5.005q0-.42-.28-.385-1.89.315-3.955.315-2.03 0-3.92-.315h-.035q-.245 0-.245.385v5.005q0 1.61.525 2.275t1.61.665q.175 0 .175.14 0 .105-.175.105-.525-.035-2.03-.035h-3.325q-1.575 0-2.135.035-.14 0-.14-.105 0-.14.14-.14 1.12 0 1.645-.665.56-.665.56-2.275v-9.52q0-1.575-.56-2.24-.525-.665-1.645-.665-.14 0-.14-.105 0-.14.14-.14l2.135.035h3.325l2.03-.035q.175 0 .175.14 0 .105-.175.105-1.085 0-1.61.665t-.525 2.24v3.465q0 .385.28.42 1.89.315 3.92.315 2.065 0 3.955-.315.28-.035.28-.42V77.33q0-1.575-.525-2.24t-1.575-.665q-.175 0-.175-.105 0-.14.175-.14l2.03.035h3.325l2.1-.035q.175 0 .175.14 0 .105-.175.105-1.12 0-1.68.665-.525.665-.525 2.24v9.52q0 1.61.525 2.275.56.665 1.68.665m10.266.735q-2.31 0-4.2-1.015a7.55 7.55 0 0 1-2.94-2.87q-1.05-1.855-1.05-4.235t1.19-4.375 3.29-3.15q2.1-1.19 4.655-1.19 2.345 0 4.235 1.015a7.5 7.5 0 0 1 2.975 2.87q1.12 1.82 1.12 4.2a8.4 8.4 0 0 1-1.225 4.41q-1.226 1.995-3.36 3.185-2.1 1.155-4.69 1.155m1.54-.805q2.344 0 3.675-1.33t1.33-3.92q0-2.135-1.05-4.48-1.015-2.345-2.695-3.92-1.646-1.575-3.395-1.575-2.31 0-3.605 1.33-1.296 1.295-1.295 3.885 0 2.1 1.015 4.48 1.05 2.345 2.66 3.955 1.644 1.575 3.36 1.575m11.892.28a10 10 0 0 0-1.19 0h-.945q-.175 0-.175-.105.034-.14.21-.14 1.12 0 1.645-.665.56-.665.56-2.24v-9.485q0-1.575-.56-2.24-.525-.665-1.645-.665-.175 0-.175-.105 0-.14.175-.14l2.1.035 7.7-.07q2.52 0 3.92.91 1.435.91 1.435 2.73 0 1.26-1.085 2.24a4.5 4.5 0 0 1-2.52 1.155q1.96.14 3.255 1.225 1.295 1.05 1.295 2.94 0 2.135-1.645 3.43-1.645 1.26-4.585 1.26zm6.825-8.925q1.96-.21 2.765-.945t.805-2.31q0-1.61-.91-2.415-.91-.84-2.415-.91l-3.045-.105q-.455-.035-.595.175-.14.175-.14.735v13.44q0 .665.175.91.21.21.77.21h2.695q1.995-.035 3.045-1.085 1.085-1.05 1.085-3.045 0-2.03-.98-3.08-.945-1.085-3.15-1.155l-1.435-.07q-.14 0-.14-.105t.14-.105zm26.654 8.75q.175 0 .175.14 0 .105-.175.105-1.05-.07-4.025-.07-.735 0-1.05-.28a1.6 1.6 0 0 1-.455-.735l-1.19-3.15q-.56-1.504-1.085-2.31a3.13 3.13 0 0 0-1.365-1.225q-.84-.42-2.275-.42h-.595v4.97q0 1.61.525 2.275.56.665 1.68.665.175 0 .175.14 0 .105-.175.105-.56-.035-2.135-.035h-3.325q-1.575 0-2.135.035-.14 0-.14-.105 0-.14.14-.14 1.12 0 1.645-.665.56-.665.56-2.275v-9.485q0-1.575-.56-2.24-.525-.665-1.645-.665-.14 0-.14-.105 0-.14.14-.14l2.135.035h3.325l2.135-.035q.175 0 .175.14 0 .105-.175.105-1.12 0-1.68.665-.525.665-.525 2.24v4.305h.595q2.31 0 3.57-.805 1.295-.84 2.24-2.66l.56-1.085q.42-.91.42-1.435 0-1.26-1.715-1.26-.14 0-.14-.105 0-.14.14-.14l2.135.035h.77l2.135-.035q.175 0 .175.14 0 .105-.175.105-1.05 0-1.715.595-.665.56-1.505 2.065l-.735 1.26q-.84 1.435-1.82 2.24-.946.805-2.38 1.085 2.484.07 3.885.98 1.4.875 2.275 3.01l.63 1.47q.7 1.575 1.19 2.135.525.525 1.505.56M193.67 74.18q.14 0 .14.14 0 .105-.14.105-.7 0-1.19.595-.456.595-1.12 2.17l-5.635 13.195q-1.68 3.745-3.115 5.32-1.4 1.575-3.29 1.575-1.401 0-2.52-.7-1.12-.665-1.295-1.61-.036-.42.315-1.26.385-.805.805-1.295t.42-.105q0 .665.455 1.645a5.2 5.2 0 0 0 1.225 1.68q.804.735 1.715.735 1.154 0 2.03-.91.874-.91 1.855-3.08.035-.105.035-.315 0-.77-.735-2.415l-5.32-12.46q-.7-1.61-1.155-2.17-.456-.595-1.19-.595-.105 0-.105-.105 0-.14.105-.14l1.505.035H181l2.52-.035q.21 0 .21.14 0 .105-.21.105-2.135 0-2.135 1.47 0 .49.315 1.295l4.48 10.535q.21.386.385 0l4.515-10.535q.315-.735.315-1.26 0-1.505-2.24-1.505-.21 0-.21-.105 0-.14.21-.14l2.625.035h.42zM30.785 51.528q0 .288-1.08 1.152a586 586 0 0 0-5.688 3.744q-4.104 2.448-6.696 2.448-1.512 0-2.664-1.08t-1.152-2.448q0-4.752 4.608-8.712 4.104-3.528 7.632-3.528 2.232 0 2.232 1.8 0 1.008-2.952 3.96a.9.9 0 0 1-.648.288q-.576 0-.576-.648 0-.288.216-.432.216-.216.864-1.584.648-1.44.648-2.16 0-.216-.504-.216-1.8 0-5.256 2.952-4.176 3.528-4.176 7.272 0 2.736 2.376 2.736 3.672 0 11.16-4.968.36-.288 1.008-.648.216-.216.432-.216t.216.288m18.71-1.656q.863-1.008 2.16-2.592a105 105 0 0 0 2.52-3.024q.647-.432 1.295-.216t.36.576q-2.16 3.24-3.168 5.76t-1.008 3.528q0 1.8 1.656 1.8 2.52 0 9.144-4.536.144-.144.648-.504.576-.36.792-.36t.216.288q0 .432-1.08 1.152-8.928 5.976-11.952 5.976-2.016 0-2.016-2.304 0-.72.144-1.512.216-.864.432-1.512.288-.648.432-1.08.216-.432.216-.36 0-.288-.216-.288-.504.576-1.584 1.656t-2.304 2.16a21 21 0 0 1-2.448 1.872q-1.224.72-1.944.648-.864-.072-1.08-.576-.216-.576 0-1.368t.72-1.728 1.08-1.8q.144-.216.504-.792.36-.648.648-1.224.36-.576.504-.936t-.144-.144q-.072-.144-.576.432-.432.504-1.224 1.368t-1.872 1.872q-1.008.936-2.304 1.728-.936.576-1.944 1.224-1.008.576-2.016 1.08-.936.432-1.944.72a5 5 0 0 1-1.872.216q-1.008-.072-1.8-.432-.864-.432-.864-1.8 0-.792.432-1.368.36-.576.792-.576.36 0 .576.36t.504.864q.288.432.648.792t1.008.36h.432q.576 0 2.808-1.008 3.96-1.872 6.624-4.608a57 57 0 0 0 4.896-5.544q1.08-1.08 1.584-1.08.216 0 .504.216.36.144.432.576.144.432-.216 1.224-.288.72-1.224 1.872-.576.576-1.368 1.728-.72 1.152-1.512 2.448-.72 1.296-1.368 2.448-.576 1.152-.792 1.656.072.576.936.072.936-.504 2.088-1.44a31 31 0 0 0 2.376-2.016q1.152-1.152 1.728-1.944m30.822 1.656q0 .504-2.951 2.376-7.274 4.608-10.44 4.608-4.68 0-4.68-5.472 0-4.032 3.887-8.064 3.96-4.104 7.489-4.104 1.08 0 1.08 1.008 0 2.448-4.248 6.912-3.384 3.528-5.544 4.824.216 3.168 3.023 3.168 2.664 0 8.929-3.6.504-.288 2.808-1.728.216-.216.431-.216.217 0 .216.288m-7.847-8.28q0-.864-.504-.864-1.8 0-4.392 3.6t-2.665 6.48q1.368-.432 4.32-3.744 3.24-3.6 3.24-5.472m14.282 12.24a45 45 0 0 0-.575.792l-.72.864a3.8 3.8 0 0 1-.576.792q-.288.36-.433.36-.935 0-.935-1.008 0-.36.503-1.44.864-1.224 1.728-2.376a42 42 0 0 0 1.656-2.376q2.52-3.6 2.52-5.112 0-.648-.431-.648-.289 0-.865.288a457 457 0 0 0-4.463 3.312 280 280 0 0 1-5.977 4.464h-.504q-.504 0-.504-.144t.793-.72a292 292 0 0 1 5.256-4.104q2.808-2.16 5.904-4.464.79-.72 2.231-.72t1.44 1.296q0 1.44-2.087 4.608a4 4 0 0 1-.36.576 2 2 0 0 0-.36.504h1.368q.79 0 1.8-.072 1.727-.144 2.951 0l.577-1.008q.288-.504.648-1.08a59 59 0 0 1 1.511-2.232 20 20 0 0 1 1.584-1.8q.504-.648 1.584-.648.576.144.576.36l-2.52 4.176q-2.52 4.176-2.52 6.048 0 2.232 1.944 2.232 2.448 0 7.128-4.248.216-.216.432-.216t.216.288q0 .432-1.44 1.44-2.304 2.016-4.176 3.096-1.872 1.008-3.528 1.008-3.24 0-3.24-2.736 0-1.8.792-3.672a26.3 26.3 0 0 0-4.68.072q-1.007.072-1.296.072h-.431a53 53 0 0 0-1.8 2.736q-.72 1.296-.72 1.44m44.341-3.96q0 .432-1.08 1.152-8.856 5.976-11.952 5.976-2.016 0-2.016-2.304 0-1.296.504-2.592.72-1.8.72-1.872 0-.288-.216-.288-.072 0-.36.144-1.584 1.584-4.608 3.816-3.888 2.88-5.4 2.88-1.728 0-1.728-1.728 0-1.008 2.52-5.544 2.52-4.608 2.52-5.328 0-.792-1.296-.792-.288 0-.288-.864a4.3 4.3 0 0 1 1.368-.216q2.52 0 2.52 1.44 0 1.584-2.232 5.328t-2.232 4.68q0 .576.504.576 1.152 0 5.616-3.816 4.536-3.816 6.984-6.912 1.08-1.08 1.584-1.08.936 0 .936.936 0 .504-.504 1.296-4.32 6.48-4.32 8.424 0 1.8 1.656 1.8 2.52 0 9.144-4.536.36-.288 1.008-.648.216-.216.432-.216t.216.288m43.433 0q0 .432-1.08 1.152-5.112 3.456-5.688 3.816-3.24 1.944-5.4 1.944a2.85 2.85 0 0 1-2.088-.864q-.792-.864-.792-2.088 0-3.6 4.608-10.296.36-.504.36-.648 0-.072-.072-.072-.288 0-1.008.504l-8.928 6.696q-2.088 1.8-6.12 5.04-.576.432-1.584.792-.504 0-.504-.72 0-1.44 2.376-4.608 2.448-3.24 2.448-4.536 0-1.224-1.152-1.224-1.728 0-6.912 4.68-3.528 3.168-6.192 6.12-1.008 1.08-1.584 1.08-.936 0-.936-1.008 0-.288.504-1.44a290 290 0 0 0 3.384-4.752q2.52-3.6 2.52-5.112 0-.648-.432-.648-.216 0-.864.288L128.95 53.4h-.504q-.504 0-.504-.144 0-.216.792-.72 5.04-3.96 11.16-8.568.864-.72 2.232-.72 1.44 0 1.44 1.296 0 .288-.144.864-1.44 2.52-3.672 6.408-.288.504-.288.648 0 .072.144.072l.216-.072 5.328-4.608q4.104-3.456 5.904-3.456 2.376 0 2.376 1.512 0 1.296-1.44 3.96-1.368 2.592-1.368 2.808t.144.216q.288 0 1.008-.504l14.976-11.304q.72-.576 1.512-.576.504 0 .72.216.216.144.216.576 0 .504-.288.864-2.016 2.88-4.104 5.832-2.448 3.744-2.448 6.48 0 1.728 1.872 1.656 2.232-.072 5.04-1.8l4.608-2.88q.216-.216.432-.216t.216.288m1.117 2.592q0 1.944 1.584 1.944 1.152 0 2.304-.648a11.7 11.7 0 0 0 2.232-1.656q-1.08-1.08-1.08-2.664 0-1.728.936-2.952 1.008-1.296 2.232-1.296t1.44 1.152q0 1.08-.36 2.376-.36 1.224-1.296 2.664 1.08 1.08 3.024 1.08 2.376 0 4.896-1.944.216-.216.36-.216.216 0 .216.288 0 .576-.792 1.08t-1.872.936q-1.008.432-2.088.72-1.08.216-1.656.216-1.008 0-1.584-.216a7.5 7.5 0 0 1-1.224-.792q-1.512 1.8-3.456 2.808t-3.744 1.008q-1.368 0-2.016-1.08-.648-1.152-.648-2.592 0-.936.792-3.024a39 39 0 0 1 2.088-4.248q1.224-2.16 2.664-3.744 1.512-1.656 2.736-1.656.576.144.576.36 0 .072-1.224 1.656a45 45 0 0 0-2.376 3.672q-1.224 2.088-1.944 3.96-.72 1.8-.72 2.808m8.856-5.832q.288-.144 0-.216a.9.9 0 0 0-.504-.144q-.576 0-1.152.792-.504.792-.504 2.088 0 1.08.504 1.8.864-1.08 1.224-2.232.432-1.224.432-1.944zM57.058 25.79q.175 0 .175.14 0 .105-.175.105-.525-.035-2.1-.035h-3.815q-1.575 0-2.1.035-.175 0-.175-.105 0-.14.174-.14.735 0 1.19-.28.456-.28.456-.84 0-.595-.56-1.47l-3.465-5.215-3.57 5.215q-.596.84-.596 1.47 0 .56.456.84.489.28 1.224.28.175 0 .175.14 0 .105-.174.105-.56-.035-2.136-.035h-.455q-1.575 0-2.135.035-.174 0-.174-.105 0-.14.175-.14 1.014 0 1.644-.525.666-.56 1.715-2.03l3.746-5.46-3.15-4.76q-.98-1.505-1.61-2.03-.63-.56-1.576-.56-.14 0-.14-.105 0-.14.14-.14l1.995.035h3.78l2.276-.035q.174 0 .174.14 0 .105-.175.105-.84 0-1.33.28t-.49.875q0 .56.56 1.435l2.766 4.165 2.834-4.2q.596-.84.596-1.435a.91.91 0 0 0-.49-.84q-.49-.28-1.296-.28-.21 0-.21-.105 0-.14.21-.14l2.24.035h.49l2.1-.035q.175 0 .175.14 0 .105-.175.105-1.014 0-1.68.56-.63.525-1.645 1.995l-3.01 4.375 3.85 5.845q.98 1.47 1.61 2.03.666.56 1.68.56m7.863.735q-2.31 0-4.2-1.015a7.55 7.55 0 0 1-2.94-2.87q-1.05-1.855-1.05-4.235t1.19-4.375 3.29-3.15q2.1-1.19 4.655-1.19 2.345 0 4.235 1.015a7.5 7.5 0 0 1 2.975 2.87q1.12 1.82 1.12 4.2a8.4 8.4 0 0 1-1.225 4.41q-1.224 1.995-3.36 3.185-2.1 1.155-4.69 1.155m1.54-.805q2.346 0 3.675-1.33 1.33-1.33 1.33-3.92 0-2.135-1.05-4.48-1.014-2.345-2.695-3.92-1.644-1.575-3.395-1.575-2.31 0-3.605 1.33-1.295 1.294-1.295 3.885 0 2.1 1.015 4.48 1.05 2.345 2.66 3.955 1.646 1.575 3.36 1.575m27.888.07q.174 0 .175.14 0 .105-.175.105-.56-.035-2.135-.035h-3.29q-1.575 0-2.135.035-.175 0-.175-.105 0-.14.175-.14 1.12 0 1.645-.665.56-.665.56-2.275v-4.97q-2.415 2.31-5.845 2.31-2.38 0-3.99-1.225-1.575-1.226-1.575-4.095v-1.54q0-1.575-.56-2.24-.525-.665-1.645-.665-.175 0-.175-.105 0-.14.175-.14l2.135.035h3.29l2.135-.035q.174 0 .175.14 0 .105-.175.105-1.12 0-1.68.665-.525.665-.525 2.24v1.89q0 2.24 1.05 3.22 1.085.98 2.625.98 2.484 0 4.585-2.065V13.33q0-1.575-.56-2.24-.526-.665-1.645-.665-.175 0-.175-.105 0-.14.175-.14l2.135.035h3.29l2.135-.035q.174 0 .175.14 0 .105-.175.105-1.12 0-1.68.665-.525.665-.525 2.24v9.52q0 1.61.525 2.275.56.665 1.68.665m16.906-2.8q.034-.07.105 0 .104.07.035.175-1.33 1.68-3.15 2.52-1.82.805-3.92.805a8 8 0 0 1-3.955-1.015q-1.82-1.015-2.905-2.87-1.086-1.855-1.085-4.235 0-2.45 1.155-4.41a8.5 8.5 0 0 1 3.185-3.115 8.5 8.5 0 0 1 4.34-1.155q2.625 0 4.34 1.47 1.75 1.47 1.75 3.955 0 1.225-.385 2.38-2.87.035-11.62.28a8.9 8.9 0 0 0 1.645 3.675q1.26 1.61 2.905 2.485t3.22.875q2.904 0 4.34-1.82m-7.525-12.705q-2.31 0-3.535 1.4-1.225 1.365-1.225 4.165 0 .98.14 1.715l4.13-.14q1.505-.105 4.655-.175.28-.56.28-1.4 0-1.226-.63-2.52-.63-1.33-1.68-2.17-1.016-.875-2.135-.875m24.553 5.705q.035.14-.07.14t-.14-.105q-1.086-4.62-2.415-5.145-.21-.175-.91-.21a28 28 0 0 0-1.995-.105q-.21 0-.385.21-.14.21-.14.595v11.48q0 1.61.525 2.275.56.665 1.68.665.175 0 .175.14 0 .105-.175.105-.56-.035-2.135-.035h-3.29q-1.575 0-2.135.035-.14 0-.14-.105 0-.14.14-.14 1.12 0 1.645-.665.56-.665.56-2.275V11.37q0-.385-.14-.595t-.35-.21q-1.33.034-2.03.105-.7.034-.91.21-1.33.525-2.415 5.145-.035.105-.14.105-.07 0-.035-.14.42-3.43.42-5.425.034-.315.105-.42.105-.105.315-.105t1.12.14q.91.105 4.06.105h3.15q3.15 0 4.06-.105.945-.14 1.155-.14.385 0 .385.525.07 2.66.455 5.425m14.61 2.24q-.036.175-.175.14-.105-.034-.035-.21a7 7 0 0 0 .175-1.47q0-1.575-.7-3.045t-1.925-2.345a4.27 4.27 0 0 0-2.66-.91q-4.865 0-4.865 5.425 0 2.59 1.155 4.655 1.19 2.065 3.01 3.22 1.854 1.12 3.71 1.12 1.119 0 2.31-.385 1.19-.385 2.03-1.435.14-.105.175-.035.069.07 0 .175-1.401 1.75-3.15 2.555-1.75.805-3.92.805a8.25 8.25 0 0 1-4.025-1.015q-1.82-1.015-2.905-2.87-1.086-1.855-1.085-4.235 0-2.415 1.19-4.375a8.77 8.77 0 0 1 3.185-3.15 8.77 8.77 0 0 1 4.41-1.155q1.539 0 2.835.42 1.329.42 2.1 1.085.805.664.805 1.365a1 1 0 0 1-.035.28zm19.939 7.56q.175 0 .175.14 0 .105-.175.105-.525-.035-2.1-.035h-3.325q-1.575 0-2.1.035-.175 0-.175-.105 0-.14.175-.14 1.12 0 1.645-.665t.525-2.275V12.14q0-1.365-.91-1.435l-1.47-.07q-1.645-.035-2.45.35t-1.05 1.19-.245 2.275q0 1.505.63 2.485.665.945 2.03 1.435.035-.035.14-.035l.14.105q.874.315 2.1.42.105 0 .105.105t-.105.105q-.735.034-1.4 0l.035.035q-1.505.034-2.275.21a2.06 2.06 0 0 0-1.26.735q-.49.596-.77 1.89-.49 2.134-1.4 3.15-.875.98-2.765.875-.28-.035-.28-.665 0-.7.28-1.435.315-.735.595-.49.665.35 1.295.35.49 0 .84-.21t.595-.595.42-1.085q.56-2.135 2.275-3.01-2.205-.42-3.36-1.47-1.155-1.085-1.155-2.695 0-4.48 7.14-4.48l5.53.035 2.1-.035q.175 0 .175.14 0 .105-.175.105-1.12 0-1.68.665-.525.665-.525 2.24v9.52q0 1.61.525 2.275.56.665 1.68.665"/></svg>