<svg xmlns="http://www.w3.org/2000/svg" width="233" height="99" fill="none" viewBox="0 0 233 99"><path fill="#181818" d="M39.816 50.528q-.288.936-4.968 3.744-4.68 2.736-7.992 4.896Q16.56 79.328 14.04 83.504 6.912 95.312 2.16 95.312 0 95.312 0 92.504q0-16.56 24.984-33.408 1.656-3.24 6.048-12.312 0-.072-.144-.072t-.504.36q-1.44 1.368-3.816 3.528-5.112 4.752-8.352 4.752-1.512 0-1.512-1.8 0-3.24 4.68-7.488 5.04-4.608 9.864-4.608 1.368 0 2.304.576l1.512-2.088q.504-.648 1.008-.648.936 0 .936 1.008 0 .504-.36 1.008-3.384 5.04-8.856 15.984 3.672-2.304 6.696-3.888 3.6-2.088 4.68-2.952.216-.216.432-.216t.216.288m-6.768-7.632q0-.288-.648-.288-3.888 0-8.496 3.744-4.608 3.672-4.608 6.552 0 .864.792.864 2.952 0 12.6-10.296.36-.504.36-.576m-9.072 18.288Q2.016 76.736 2.016 91.928q0 1.872 1.224 1.872 4.608 0 20.736-32.616M70.618 5.888q0 7.272-6.984 18-5.4 8.352-13.392 16.416-7.056 7.2-8.64 7.2.216 6.768 4.248 6.768 3.096 0 6.696-2.664-.72-1.296-.72-2.808 0-4.896 3.168-4.896 1.296 0 1.512 1.8 0 2.52-2.16 5.04 1.224 2.016 3.816 2.016 2.808 0 5.472-2.304.216-.216.432-.216t.216.288-.72.864q-3.168 2.664-6.408 2.664-2.664 0-4.248-1.8-4.248 3.888-8.28 3.888-2.376 0-3.96-1.944-1.512-2.016-1.512-4.824 0-7.992 5.616-19.368 5.112-10.368 12.168-18.36 7.056-8.064 11.376-8.064 2.304 0 2.304 2.304m-2.088 1.08q0-1.656-1.296-1.656-3.384 0-9.72 8.136-5.976 7.632-10.728 17.208-5.04 10.08-5.04 15.192 0 .288.144.288 1.368 0 7.92-7.056 7.272-7.776 12.312-15.696 6.408-10.08 6.408-16.416M55.786 46.136q0-.72-.504-.72-1.512 0-1.512 2.952 0 1.008.288 1.8 1.728-1.944 1.728-4.032M87.6 50.528q0 .432-1.08 1.152-8.856 5.976-11.951 5.976-2.016 0-2.017-2.304 0-1.296.504-2.592.72-1.8.72-1.872 0-.288-.215-.288-.074 0-.36.144-1.584 1.584-4.608 3.816-3.889 2.88-5.4 2.88-1.728 0-1.728-1.728 0-1.008 2.52-5.544 2.52-4.608 2.52-5.328 0-.792-1.296-.792-.289 0-.288-.864a4.3 4.3 0 0 1 1.367-.216q2.52 0 2.52 1.44 0 1.584-2.232 5.328-2.23 3.744-2.231 4.68 0 .576.504.576 1.151 0 5.615-3.816 4.538-3.816 6.984-6.912 1.08-1.08 1.585-1.08.935 0 .936.936 0 .504-.504 1.296-4.32 6.48-4.32 8.424 0 1.8 1.656 1.8 2.52 0 9.144-4.536.36-.288 1.008-.648.216-.216.431-.216.216 0 .216.288m38.178.432q0 .216-.792.792-.72.576-1.8 1.224t-2.232 1.296-1.944 1.152q-2.088 1.296-3.816 1.872-1.656.576-2.88.576-1.512 0-2.664-1.08t-1.152-2.448q0-2.16 1.152-4.32a16.4 16.4 0 0 1 3.024-3.96q1.872-1.728 3.96-2.808 2.16-1.152 4.104-1.152 1.152 0 1.728.432t.864 1.296q.144.36-.216 1.44-.288 1.08-2.16 1.728-.288.144-.432-.144a.5.5 0 0 1 .144-.504q.864-.792.936-1.44t-.144-1.008q-.216-.432-.576-.576t-.36 0q0-.216-.504-.216-1.08 0-2.736 1.008-1.584 1.008-3.096 2.52a17.2 17.2 0 0 0-2.592 3.312q-1.008 1.8-1.008 3.384 0 2.736 2.376 2.736 1.872 0 4.608-1.008 2.808-1.008 6.552-3.528.144-.144.648-.504.576-.36.792-.36t.216.288m-24.336-3.672q.144-1.8-.432-2.52-.504-.792-1.728-.792-1.872 0-4.536 1.8-2.592 1.8-6.336 4.32-.072.072-.432.288-.288.216-.72.504l-.72.432q-.36.144-.432.144-.216 0-.216-.36 0-.216 1.008-1.008 1.08-.864 2.52-1.872t2.88-1.944a141 141 0 0 1 2.304-1.512q2.016-1.224 3.456-1.728 1.512-.504 2.808-.504 1.512 0 2.232.936.792.936.576 3.096t-1.656 4.176a17.5 17.5 0 0 1-3.456 3.6 17.7 17.7 0 0 1-4.248 2.376q-2.232.864-4.176.648-2.232-.216-2.016-2.016.144-1.08 3.384-3.672.288-.216.648-.216.576.144.504.72-.072.36-.288.504t-1.008 1.368q-.792 1.44-.864 2.088 0 .216.504.288 1.08.144 2.736-.648a18 18 0 0 0 3.384-2.232 17 17 0 0 0 2.88-3.024q1.296-1.656 1.44-3.24m4.464 5.76q.864-1.224 2.304-2.088 1.44-.936 2.52-1.368.144.576-.216.864-.36.216-.648.36-1.152.648-2.664 1.872a9.7 9.7 0 0 0-2.448 2.952q-.576.288-.72.432-.144.216-.288.216-.36-.072-.648-.432t-.144-.936q.144-.072.576-.792.432-.792.792-1.656.288-.792.792-1.944.504-1.224.936-2.448l.288-1.008q.216-.504.432-1.08-.216 0-.36.36-1.8 2.592-3.96 3.456-.216-1.152.216-1.368 1.152-.648 2.664-1.872a9.7 9.7 0 0 0 2.448-2.952q.576-.288.72-.432.144-.216.288-.216.36.072.648.432t.144.936q-.144.072-.576.864-.432.72-.792 1.584-.36 1.008-.936 2.664a152 152 0 0 1-1.368 3.6m40.737-2.52q0 .864-4.464 3.312-4.68 2.592-6.696 2.592-3.744 0-3.744-3.96 0-1.08 1.152-2.448 0-.072-.072-.072.072 0-3.888 3.024-3.96 2.952-5.688 2.952-1.656 0-1.656-1.368 0-3.312 5.544-7.704 5.256-4.248 8.208-4.248.432.072.936.504.576.36.576.576 0 .072-.072.144-4.032 0-10.296 6.264-2.016 2.016-2.016 3.384 0 .504.504.504 1.584 0 6.048-3.672 3.6-3.024 5.112-4.824.72-.864 1.008-.864.72 0 .72 1.008 0 .36-.936 1.656-3.096 4.248-3.096 5.4 0 2.016 2.232 2.016 3.672 0 9.936-4.248.216-.216.432-.216t.216.288M94.204 31.79q.174 0 .175.14 0 .105-.175.105-.525-.035-2.1-.035h-3.326q-1.505 0-2.03.035-.174 0-.175-.105 0-.14.176-.14 1.05 0 1.575-.665t.525-2.275v-5.005q0-.42-.28-.385-1.89.315-3.956.315-2.03 0-3.92-.315h-.034q-.246 0-.246.385v5.005q0 1.61.526 2.275.524.665 1.61.665.174 0 .174.14 0 .105-.174.105-.525-.035-2.03-.035h-3.326q-1.575 0-2.135.035-.14 0-.14-.105 0-.14.14-.14 1.12 0 1.645-.665.56-.665.56-2.275v-9.52q0-1.575-.56-2.24-.525-.665-1.645-.665-.14 0-.14-.105 0-.14.14-.14l2.135.035h3.326l2.03-.035q.174 0 .174.14 0 .105-.174.105-1.086 0-1.61.665-.525.665-.525 2.24v3.465q0 .385.28.42 1.89.315 3.92.315 2.064 0 3.954-.315.28-.035.28-.42V19.33q0-1.575-.525-2.24-.524-.665-1.574-.665-.175 0-.175-.105 0-.14.175-.14l2.03.035h3.325l2.1-.035q.174 0 .175.14 0 .105-.175.105-1.12 0-1.68.665-.525.665-.525 2.24v9.52q0 1.61.525 2.275.56.665 1.68.665m16.95-2.8q.034-.07.105 0 .105.07.035.175-1.33 1.68-3.15 2.52-1.82.805-3.92.805a8 8 0 0 1-3.955-1.015q-1.82-1.015-2.905-2.87T96.28 24.37q0-2.45 1.155-4.41a8.5 8.5 0 0 1 3.185-3.115 8.5 8.5 0 0 1 4.34-1.155q2.625 0 4.34 1.47 1.75 1.47 1.75 3.955 0 1.225-.385 2.38-2.87.035-11.62.28a8.9 8.9 0 0 0 1.645 3.675q1.26 1.61 2.905 2.485t3.22.875q2.905 0 4.34-1.82m-7.525-12.705q-2.31 0-3.535 1.4-1.225 1.365-1.225 4.165 0 .98.14 1.715l4.13-.14q1.505-.105 4.655-.175.28-.56.28-1.4 0-1.225-.63-2.52-.63-1.33-1.68-2.17-1.015-.875-2.135-.875m24.695 15.505q.175 0 .175.14 0 .105-.175.105-.525-.035-2.1-.035h-3.815q-1.575 0-2.1.035-.175 0-.175-.105 0-.14.175-.14.735 0 1.19-.28t.455-.84q0-.595-.56-1.47l-3.465-5.215-3.57 5.215q-.595.84-.595 1.47 0 .56.455.84.49.28 1.225.28.175 0 .175.14 0 .105-.175.105-.56-.035-2.135-.035h-.455q-1.575 0-2.135.035-.175 0-.175-.105 0-.14.175-.14 1.015 0 1.645-.525.665-.56 1.715-2.03l3.745-5.46-3.15-4.76q-.98-1.505-1.61-2.03-.63-.56-1.575-.56-.14 0-.14-.105 0-.14.14-.14l1.995.035h3.78l2.275-.035q.175 0 .175.14 0 .105-.175.105-.84 0-1.33.28t-.49.875q0 .56.56 1.435l2.765 4.165 2.835-4.2q.595-.84.595-1.435a.91.91 0 0 0-.49-.84q-.49-.28-1.295-.28-.21 0-.21-.105 0-.14.21-.14l2.24.035h.49l2.1-.035q.175 0 .175.14 0 .105-.175.105-1.016 0-1.68.56-.63.525-1.645 1.995l-3.01 4.375 3.85 5.845q.98 1.47 1.61 2.03.665.56 1.68.56m3.42.21a10 10 0 0 0-1.19 0h-.945q-.174 0-.175-.105.036-.14.21-.14 1.12 0 1.645-.665.56-.665.56-2.24v-9.485q0-1.575-.56-2.24-.525-.665-1.645-.665-.175 0-.175-.105 0-.14.175-.14l2.1.035 7.7-.07q2.52 0 3.92.91 1.435.91 1.435 2.73 0 1.26-1.085 2.24a4.5 4.5 0 0 1-2.52 1.155q1.96.14 3.255 1.225 1.296 1.05 1.295 2.94 0 2.135-1.645 3.43-1.644 1.26-4.585 1.26zm6.825-8.925q1.96-.21 2.765-.945t.805-2.31q0-1.61-.91-2.415-.909-.84-2.415-.91l-3.045-.105q-.454-.035-.595.175-.14.175-.14.735v13.44q0 .665.175.91.21.21.77.21h2.695q1.995-.035 3.045-1.085 1.086-1.05 1.085-3.045 0-2.03-.98-3.08-.945-1.084-3.15-1.155l-1.435-.07q-.14 0-.14-.105t.14-.105zm25.954 3.5q0-.175.105-.175t.105.175q0 2.415-.945 4.13-.91 1.68-2.555 1.68-1.225 0-2.03-.875-.77-.91-.77-2.695v-.175q-.84 1.82-2.275 2.835t-3.15 1.015q-2.73 0-4.095-1.505-1.33-1.505-1.33-3.57 0-1.96 1.855-3.15 1.89-1.19 4.655-1.19 1.016 0 2.205.175 1.225.175 2.135.49v-1.68q0-2.835-1.225-4.095-1.225-1.295-3.535-1.295-2.065 0-3.535 1.33-1.435 1.33-1.435 3.885 0 .28-.175.28-.14 0-.14-.28 0-1.89.945-3.29a6.2 6.2 0 0 1 2.45-2.135 7.1 7.1 0 0 1 3.22-.77q6.58 0 6.58 6.335v6.16q0 1.155.245 1.715.28.525.91.525 1.085 0 1.4-1.015.35-1.015.385-2.835m-10.08 4.235q3.99 0 3.99-4.585v-.21q-.49-1.085-1.68-1.75a4.9 4.9 0 0 0-2.485-.665q-4.025 0-4.025 2.8 0 1.785 1.085 3.115 1.12 1.295 3.115 1.295M180 21.99q.035.14-.07.14t-.14-.105q-1.086-4.62-2.415-5.145-.21-.176-.91-.21a28 28 0 0 0-1.995-.105q-.21 0-.385.21-.14.21-.14.595v11.48q0 1.61.525 2.275.56.665 1.68.665.175 0 .175.14 0 .105-.175.105-.56-.035-2.135-.035h-3.29q-1.575 0-2.135.035-.14 0-.14-.105 0-.14.14-.14 1.12 0 1.645-.665.56-.665.56-2.275V17.37q0-.385-.14-.595t-.35-.21q-1.33.034-2.03.105-.7.035-.91.21-1.33.525-2.415 5.145-.036.105-.14.105-.07 0-.035-.14.42-3.43.42-5.425.035-.315.105-.42.105-.105.315-.105t1.12.14q.91.105 4.06.105h3.15q3.15 0 4.06-.105.945-.14 1.155-.14.385 0 .385.525.07 2.66.455 5.425m18.669 4.585q0-.175.105-.175t.105.175q0 2.415-.945 4.13-.91 1.68-2.555 1.68-1.224 0-2.03-.875-.77-.91-.77-2.695v-.175q-.84 1.82-2.275 2.835a5.33 5.33 0 0 1-3.15 1.015q-2.73 0-4.095-1.505-1.33-1.505-1.33-3.57 0-1.96 1.855-3.15 1.89-1.19 4.655-1.19 1.016 0 2.205.175 1.226.175 2.135.49v-1.68q0-2.835-1.225-4.095-1.224-1.295-3.535-1.295-2.065 0-3.535 1.33-1.434 1.33-1.435 3.885 0 .28-.175.28-.14 0-.14-.28 0-1.89.945-3.29a6.2 6.2 0 0 1 2.45-2.135 7.1 7.1 0 0 1 3.22-.77q6.58 0 6.58 6.335v6.16q0 1.155.245 1.715.28.525.91.525 1.085 0 1.4-1.015.35-1.015.385-2.835m-10.08 4.235q3.99 0 3.99-4.585v-.21q-.489-1.085-1.68-1.75a4.9 4.9 0 0 0-2.485-.665q-4.025 0-4.025 2.8 0 1.785 1.085 3.115 1.12 1.295 3.115 1.295m25.72-1.82q.036-.07.105 0 .105.07.035.175-1.329 1.68-3.15 2.52-1.82.805-3.92.805a8 8 0 0 1-3.955-1.015q-1.82-1.015-2.905-2.87t-1.085-4.235q0-2.45 1.155-4.41a8.5 8.5 0 0 1 3.185-3.115 8.5 8.5 0 0 1 4.34-1.155q2.625 0 4.34 1.47 1.75 1.47 1.75 3.955 0 1.225-.385 2.38-2.87.035-11.62.28a8.9 8.9 0 0 0 1.645 3.675q1.26 1.61 2.905 2.485t3.22.875q2.906 0 4.34-1.82m-7.525-12.705q-2.31 0-3.535 1.4-1.225 1.365-1.225 4.165 0 .98.14 1.715l4.13-.14q1.506-.105 4.655-.175.28-.56.28-1.4 0-1.225-.63-2.52-.63-1.33-1.68-2.17-1.014-.875-2.135-.875m24.553 5.705q.036.14-.07.14-.105 0-.14-.105-1.084-4.62-2.415-5.145-.21-.176-.91-.21a28 28 0 0 0-1.995-.105q-.21 0-.385.21-.14.21-.14.595v11.48q0 1.61.525 2.275.561.665 1.68.665.175 0 .175.14 0 .105-.175.105-.56-.035-2.135-.035h-3.29q-1.575 0-2.135.035-.14 0-.14-.105 0-.14.14-.14 1.12 0 1.645-.665.56-.665.56-2.275V17.37q0-.385-.14-.595t-.35-.21q-1.33.034-2.03.105-.7.035-.91.21-1.329.525-2.415 5.145-.035.105-.14.105-.07 0-.035-.14.42-3.43.42-5.425.036-.315.105-.42.105-.105.315-.105t1.12.14q.91.105 4.06.105h3.15q3.15 0 4.06-.105.945-.14 1.155-.14.385 0 .385.525.07 2.66.455 5.425"/></svg>