<svg xmlns="http://www.w3.org/2000/svg" width="91" height="99" fill="none" viewBox="0 0 91 99"><path fill="#681f2a" d="m62.251 20.928 1.512 2.64.58 1.775c-.024 7.584.59 14.367-1.71 21.755-.792 2.544-1.992 4.6-2.821 6.983a62 62 0 0 0-1.743 7.689c.029 1.991 2.886 4.824 3.507 6.865a20.2 20.2 0 0 1 .093 7.023c-.798 2.469-2.049 1.786-3.46 3.037-1.411 1.252-2.319 2.215-.975 3.648.404.433 4.038 3.8 4.316 3.95.28.15.75-.113 1.047-.047.926.214 4.267 6.51 6.37 7.722 2.276 1.302 8.421.935 9.69 1.934.945.746-.98.807-1.2.909a16 16 0 0 1-5.15 1.556c-2.551.129-3.317-.872-5.376-1.47-2.265-.64-5.123-.799-7.102-2.034-1.119-.704-4.27-4.185-5.235-5.35-1.583-1.914-3.286-3.965-2.579-6.548 1.032-3.682.778-3.554.939-7.17.147-3.232.264-6.775.728-9.962.715-5.03 2.513-9.545 2.716-14.688.167-3.695-.595-7.708-.181-11.36.823-7.14 6.967-15.83-1.05-21.15-5.674 2.861-5.345 9.707-8.293 14.601-.678 1.13-1.83 2.113-2.51 3.376-1.188 2.186-1.704 4.867-2.652 7.153-2.78 6.695-7.791 13.277-11.927 19.23-2.659 3.808-9.646 7.976-14.21 8.78-4.264.727-10.224 1.18-13.287-2.292-1.845-2.076-3.67-5.188-.77-7.307 1.942-1.425 1.775 1.716 2.25 2.572.914 1.674 4.594 1.783 6.319 1.579 6.885-.812 14.676-7.949 18.692-13.312 2.983-3.976 4.239-8.538 6.547-12.828.994-1.855 2.47-3.62 3.505-5.456 3.026-5.35 5.142-10.836 10.093-14.79-6.88 1.46-17.295 3.166-22.764-2.365-3.848-3.835-6.669-12.134-1.76-16.242C26.947-.774 34.527-.014 37.521 1.09c6.127 2.258 8.4 6.194 13.41 9.4 1.005.64 4.534 2.821 5.485 2.627.488-.101.485-1.2 1.114-1.318.36-.068.697.508 1.1.634 3.542 1.09 14.923-9.475 18.815-11.215 10.817-4.8 17.693 6.048 9.356 14.14-6.2 5.876-16.426 7.722-24.55 5.571M59.04 17.47c.39.503.868.933 1.41 1.269 2.283.69 10.883-1.1 13.42-1.973 3.345-1.091 9.057-4.057 10.549-7.404.63-1.358.611-6.84-.904-7.307-1.12-.346-4.572.84-5.687 1.41-5.212 2.706-9.37 7.336-15.107 9.87-.604.264-2.042.447-2.225.577s-.552 1.896-.756 2.447c-.197.401-.737.858-.7 1.11M88.26 6.338c-.133-.42-1.377-3.017-1.747-2.86-.047 3.944.201 6.766-2.652 9.91-4.425 4.876-12.268 5.654-18.333 6.796a24.08 24.08 0 0 0 14.89-2.315c3.844-2.142 9.423-6.523 7.842-11.53m-32.23 7.83c-9.884-1.892-14.184-11.4-24.708-11.846-3.961-.167-7.922 2.228-6.729 6.615.237-1.571 3.089-5.619 4.514-3.102.396.716-3.836 4.667-1.766 7.739 3.042 4.487 12.739 3.646 17.505 2.762zm-24.343 4.508c4.847 1.767 10.035 1.366 14.929.142a29 29 0 0 0 4.34-1.358c.394-.186.85-.129.962-.681a76 76 0 0 1-12.47 2.331zm30.846 7.652c-.041-.153-.814-1.69-.883-1.763-1.113-1.224-.454.978-.43 1.256.81 6.628-2.387 12.104-2.32 18.695l.04 5.789a44.2 44.2 0 0 0 3.489-12.177c.13-1.518.408-10.798.097-11.783zM40.96 40.393c.108.276-2.264 4.505-2.465 5.313.444.278.534-.49.7-.802.976-1.905 1.816-3.914 2.716-5.853 1.256-2.707 3.013-5.08 4.105-7.433s1.322-6.028 2.394-8.626q.407-.781.942-1.48c.141-.303.687-.839.188-.999-4.8 4.333-6.412 10.35-9.288 15.862-5.464 10.47-12.265 23.007-22.47 29.495a16.27 16.27 0 0 1-12.58 1.727l-3.23-2.227c-.046 1.27 1.588 2.674 2.59 3.252 2.316 1.372 6.058 1.458 8.618.801 1.322-.33 6.565-3.103 7.13-2.841.262.121.532.554.47.71-.254.548-6.58 2.87-7.647 3.226-.094.203.192.315.334.32a16.6 16.6 0 0 0 4.417-1.17c2.436-1.052 8.159-4.485 9.762-6.437 1.815-2.232 3.2-5.085 4.887-7.418l-9.257 9.9c-.796.39-1.026-.527-.634-1.063 4.758-5.837 10-11.257 13.755-17.847 1.226-2.157 2.275-4.725 3.534-6.908.208.168.989.408 1.029.498M55.146 77.94c1.259-1.055 4.424-4.783 4.69-6.218s-3.317-4.89-4.005-6.368c-.52.26-1.01 10.262-.97 11.48.01.22-.012 1.173.285 1.106m3.08 11.433c-1.93-1.807-3.046-4.304-4.372-6.549-1.783.926 2.785 5.638 3.508 6.312.264.225.703.737.863.237M63.8 91.96c-.793-.501-.72-1.431-1.164-2.108-1.296-1.934-3.97-3.616-5.992-4.76l2.45 3.403a30 30 0 0 0 3.821 3.228c.276.18.725.736.885.237M10.032 70.883l-5.67-1.032c1.057.54 2.194.91 3.368 1.091.581.116 1.83.296 2.31-.055z"/></svg>