<svg xmlns="http://www.w3.org/2000/svg" width="122" height="138" fill="none" viewBox="0 0 122 138"><path fill="#f9e5e9" d="m64.098 27.015-6.884.366-2.065-.366-9.11 8.734-6.6 10.522v4.712l4.373 3.575 6.762 2.194 4.575-1.422 9.435-11.172 6.276-8.368 1.579-2.438-6.236-5.484m7.491 3.128.688 7.353.608 1.869 3.644-.61v-6.093l-3.158-2.519z"/><path fill="#f9e5e9" d="m76.569 29.574 7.612-10.237 9.718-6.46 6.884-2.071 8.381 3.412 2.997 13.488-1.742 12.796-6.6 5.647-16.075-.975-5.911-3.29zm0 12.756-.689 11.781 3.807 5.525 8.26 5.119 6.074 3.168 5.87 6.378v9.344L94.71 89.17 82.32 99.326l-3.523 6.215 1.903 12.472 1.62 2.803 1.417-5.647 1.579-12.512 6.074-5.484 7.733-5.525 6.034-7.881 1.7-6.784-1.7-7.028-8.26-5.607-10.123-6.58-4.333-7.07-2.55-9.749-2.835.934m-3.848-1.665 1.58 1.218-2.066 4.388-1.862 6.337-2.146 5.89-3.28 6.785-6.52 6.825-9.15 5.28-8.342 1.626-4.21 3.25-3.928 5.281-1.903 7.678-.891 8.49-2.025 3.128-.769-.853-.607-4.428-.77-7.678 1.134-6.621 4.535-5.606 7.045-5.038 8.666-3.453 8.26-4.387 6.843-7.028 5.426-9.75 3.118-8.287z"/><path fill="#681f2a" d="M80.82 37.171c4.98 0 9.556-.325 14.415.975 2.754.731 6.114 3.128 8.908 1.503.81-.447 3.24-3.047 3.483-3.981.85-3.697-3.402-10.806-4.05-14.95-.485-3.168 1.539-7.8-3.401-6.987-6.316 1.056-14.536 15.193-21.136 17.509.89 1.95 2.227 3.656 1.781 5.931"/><path fill="#181818" d="M82.764 44.93c1.336 7.231 4.98 13.081 11.338 16.778 4.251 2.478 8.948 3.169 12.025 7.353 5.75 7.76-.445 22.262-7.936 26.934-3.766 2.356-6.64 2.396-10.042 6.256-6.397 7.19-.526 14.665-5.344 22.627-1.701 2.803-6.277 6.053-9.556 5.972-2.268-.04-5.75-.975-4.819-3.9 4.454 1.138 7.491 1.3 9.84-3.128 2.955-5.606 0-7.15-.527-12.268-.729-7.191 2.672-13.69 8.098-18.2 6.357-5.322 14.942-5.728 12.674-16.615-2.267-10.847-17.411-10.319-22.31-18.809-2.997-5.2-.608-9.75-.85-15.275-1.054.69-1.5 2.519-1.945 3.697-1.903 5.119-2.55 10.644-4.94 15.6-3.644 7.475-11.54 15.843-19.8 17.834-5.992 1.421-7.086.081-11.62 5.403-6.763 7.921-2.633 19.581-9.111 28.152-1.417 1.91-1.863 2.519-3.199 4.55-2.55 3.981-5.83 7.597-11.094 7.15-.77-.081-4.657-.934-3.28-2.153.85-.772 2.51-.041 3.077-.975-1.458.447-5.871-1.909-4.09-3.128.73-.488 4.13-1.056 5.467-1.544 3.765-1.34 11.297-5.159 11.823-9.506.891-7.556-3.563-11.984-.283-20.88 4.697-12.838 18.22-13.082 27.898-20.19 8.787-6.379 11.621-14.26 16.318-23.644.972-1.95 1.782-1.869 1.741-4.469 0-.365.203-1.34-.405-.772-8.138 6.338-13.119 24.903-26.319 20.597-5.142-1.666-8.868-5.972-7.329-11.619.972-3.615 8.26-12.106 10.973-15.396 1.458-1.747 1.255-2.844 3.685-4.063 3.685-1.828 10.568-2.64 14.253-.65 1.012.528 3.887 3.453 4.17 3.453.243 0 1.54-.73 2.106-.893.688-.203 1.539-.04 2.065-.244.486-.163 5.061-6.744 6.074-7.922 4.21-4.793 12.835-13.284 19.557-13 15.468.65 15.306 26.488 8.139 35.71-6.641 8.408-18.424 5.687-26.522 1.177m14.293-32.62c-5.506 1.868-11.337 6.62-15.305 10.886-1.58 1.707-3.483 4.103-4.454 6.216 1.984 1.828 12.876-12.431 14.9-13.61zM80.82 37.942l2.956 3.819c8.868 5.362 24.093 6.621 26.684-6.135 1.539-7.596.405-15.965-4.09-22.384l.446 8.125c1.134 6.581 6.235 14.097.162 19.662-6.519 5.932-12.755-.975-19.476-2.234-2.227-.366-4.535-.244-6.682-.853m0-.772c4.94 0 9.516-.325 14.334.975 2.754.731 6.074 3.128 8.868 1.503.81-.447 3.239-3.047 3.442-3.94.85-3.657-3.361-10.725-4.009-14.869-.486-3.168 1.539-7.759-3.361-6.946-6.276 1.056-14.455 15.112-21.015 17.387.85 1.95 2.187 3.615 1.741 5.89m-8.908-3.494c-3.968-5.728-11.337-7.353-17.694-4.753-1.741.732-5.386 5.2-6.681 6.907-.324.406-1.863 2.193-1.58 2.518 7.33-5.565 17.128-7.84 25.955-4.672m4.98-1.137c-.364-.285-1.497.528-2.064.366-.648-.204-.365-1.22-1.013-1.138.932 1.99.567 5.322 1.215 7.11.324.852 1.66.893 2.268.487 1.174-.813.486-6.216-.405-6.825M66.285 35.22c-1.255-.325-4.98 0-6.6 0-1.174 0-6.883 2.356-8.058 3.169-2.105 1.422-5.183 6.54-4.454 8.978.284.893 3.685 3.006 4.738 2.884 2.591-.284 11.823-12.35 14.779-14.259.364-.203-.283-.731-.405-.772m4.05.772c-.932-.163-1.256.081-1.944.569-3.766 2.559-7.896 9.668-11.783 13.04-3.523 3.047-5.993 4.347-9.88.975-1.66-1.422-2.835-3.087-2.956-5.362l1.62-6.46c-1.782 2.641-4.738 4.835-5.629 7.922-1.133 3.819.932 5.403 3.968 6.947 6.034 3.128 9.718 2.925 14.456-2.072zm-9.395 32.5c7.208-7.191 7.896-13.122 10.973-22.222.446-1.3 1.215-2.6 1.62-3.819.243-.65.364-.731-.445-1.015-4.09 8.978-6.479 18.971-14.132 25.633-9.515 8.288-25.226 9.06-30.45 20.719-2.915 6.54-.404 11.13-.323 17.752l2.146-6.215c.729-6.866 1.377-12.96 6.195-18.28 4.252-4.713 6.114-3.373 11.5-4.754 4.413-1.178 9.636-4.55 12.916-7.8m21.015 51.023c.77-5.078.04-9.343 1.66-14.462 3.24-10.156 10.609-10.4 16.521-17.225 3.968-4.59 6.559-9.912 3.968-16.006-2.187-5.078-8.665-6.215-12.957-8.734-6.317-3.737-10.326-9.953-11.46-17.265-.12-.812.244-4.022-.607-4.022-.121 0-1.7.934-1.74 1.056-.325.894-.73 4.997-.77 6.135-.81 17.915 23.525 12.228 24.78 28.355.81 10.36-3.482 10.928-10.446 15.6-5.629 3.778-10.407 9.14-10.892 16.29zm-61.951.772c.526.528 3.36-3.209 3.077-3.494-.445.813-2.591 1.056-2.713 1.178-.08.082.648 1.585-.364 2.316"/></svg>