<svg xmlns="http://www.w3.org/2000/svg" width="73" height="82" fill="none" viewBox="0 0 73 82"><path fill="#f9e5e9" d="m38.354 16.052-4.12.218L33 16.052l-5.451 5.19-3.95 6.252v2.8l2.617 2.125 4.046 1.303L33 32.877l5.645-6.638 3.756-4.973.944-1.448-3.73-3.259m4.481 1.859.412 4.37.363 1.11 2.18-.363v-3.62l-1.89-1.497z"/><path fill="#f9e5e9" d="m45.816 17.573 4.555-6.083 5.814-3.838 4.12-1.231 5.015 2.028 1.793 8.014-1.042 7.604-3.95 3.355-9.618-.58-3.538-1.955zm0 7.58-.412 7 2.277 3.283 4.943 3.041 3.634 1.883 3.513 3.79v5.552l-3.1 3.283-7.415 6.035-2.108 3.693 1.14 7.41.968 1.666.848-3.355.945-7.435 3.634-3.259 4.628-3.283 3.61-4.682 1.018-4.032-1.018-4.176-4.943-3.33-6.057-3.911-2.592-4.2-1.526-5.794-1.696.555m-2.302-.989.945.724-1.236 2.607-1.114 3.765-1.285 3.5-1.962 4.032-3.9 4.055-5.476 3.138-4.991.966-2.52 1.93-2.35 3.139-1.139 4.562-.533 5.045-1.212 1.859-.46-.507-.363-2.631-.46-4.562.678-3.935 2.713-3.331 4.216-2.993 5.185-2.052 4.943-2.607 4.094-4.176 3.247-5.794 1.865-4.924z"/><path fill="#181818" d="M49.523 26.698c.8 4.296 2.98 7.772 6.784 9.97 2.544 1.471 5.354 1.882 7.195 4.368 3.44 4.61-.266 13.228-4.748 16.004-2.253 1.4-3.974 1.425-6.009 3.718-3.828 4.272-.315 8.714-3.198 13.445-1.018 1.666-3.755 3.597-5.718 3.549-1.357-.025-3.44-.58-2.883-2.318 2.665.676 4.482.773 5.887-1.858 1.769-3.332 0-4.249-.315-7.29-.436-4.273 1.6-8.135 4.846-10.815 3.804-3.162 8.94-3.403 7.584-9.872-1.357-6.446-10.419-6.132-13.35-11.177-1.793-3.09-.364-5.793-.51-9.076-.629.41-.895 1.497-1.162 2.197-1.139 3.041-1.526 6.324-2.956 9.269-2.18 4.442-6.905 9.414-11.848 10.597-3.585.845-4.24.048-6.953 3.21-4.046 4.708-1.575 11.635-5.451 16.729-.848 1.134-1.115 1.496-1.915 2.703-1.526 2.366-3.488 4.514-6.638 4.249-.46-.049-2.786-.555-1.963-1.28.51-.458 1.503-.024 1.842-.579-.872.266-3.513-1.135-2.447-1.859.436-.29 2.471-.627 3.27-.917 2.254-.797 6.76-3.066 7.075-5.649.533-4.49-2.132-7.12-.17-12.407 2.811-7.628 10.903-7.773 16.694-11.997 5.258-3.79 6.953-8.473 9.764-14.049.582-1.158 1.066-1.11 1.042-2.655 0-.217.12-.797-.242-.459-4.87 3.766-7.85 14.797-15.749 12.239-3.077-.99-5.306-3.549-4.385-6.904.581-2.148 4.942-7.193 6.566-9.149.872-1.038.75-1.69 2.204-2.414 2.205-1.086 6.324-1.569 8.529-.386.605.314 2.326 2.052 2.495 2.052.146 0 .921-.434 1.26-.531.412-.12.92-.024 1.236-.145.29-.096 3.028-4.007 3.634-4.707 2.52-2.848 7.68-7.893 11.702-7.724 9.256.386 9.159 15.738 4.87 21.218-3.973 4.996-11.024 3.38-15.87.7m8.552-19.384c-3.295 1.11-6.784 3.935-9.158 6.47-.945 1.013-2.084 2.437-2.665 3.693 1.187 1.086 7.704-7.387 8.916-8.087zM48.36 22.546l1.768 2.269C55.434 28 64.544 28.75 66.095 21.17c.92-4.514.242-9.487-2.447-13.3l.266 4.827c.679 3.91 3.731 8.376.097 11.683-3.9 3.525-7.632-.579-11.654-1.327-1.332-.218-2.713-.145-3.997-.507m0-.459c2.956 0 5.693-.193 8.577.58 1.647.434 3.634 1.858 5.306.893.484-.266 1.938-1.81 2.059-2.342.509-2.172-2.011-6.373-2.399-8.835-.29-1.882.921-4.61-2.01-4.127-3.756.627-8.65 8.98-12.575 10.331.509 1.159 1.308 2.148 1.042 3.5m-5.33-2.076c-2.375-3.403-6.784-4.369-10.588-2.824-1.042.434-3.223 3.09-3.998 4.104-.194.241-1.114 1.303-.945 1.496 4.386-3.307 10.249-4.659 15.53-2.776m2.98-.676c-.218-.169-.897.314-1.236.218-.388-.121-.218-.725-.606-.676.557 1.183.34 3.162.727 4.224.194.507.993.531 1.357.29.703-.483.29-3.694-.242-4.056m-6.348 1.593c-.751-.193-2.98 0-3.95 0-.702 0-4.118 1.4-4.82 1.883-1.26.845-3.102 3.887-2.666 5.335.17.531 2.205 1.786 2.835 1.714 1.55-.17 7.074-7.338 8.843-8.473.218-.12-.17-.434-.242-.459m2.423.46c-.558-.097-.751.047-1.163.337-2.254 1.52-4.725 5.745-7.05 7.749-2.109 1.81-3.587 2.582-5.913.579-.993-.845-1.695-1.835-1.768-3.186l.969-3.838c-1.066 1.569-2.835 2.872-3.368 4.707-.678 2.269.557 3.21 2.375 4.127 3.61 1.86 5.814 1.738 8.65-1.23zm-5.621 19.31c4.312-4.272 4.724-7.797 6.566-13.204.266-.772.726-1.545.969-2.269.145-.386.218-.434-.267-.603-2.447 5.334-3.876 11.273-8.456 15.231-5.693 4.925-15.094 5.383-18.22 12.311-1.744 3.887-.242 6.614-.193 10.549l1.284-3.693c.436-4.08.824-7.7 3.707-10.863 2.544-2.8 3.658-2.003 6.88-2.824 2.642-.7 5.767-2.704 7.73-4.635m12.574 30.319c.46-3.018.024-5.552.994-8.594 1.938-6.034 6.347-6.18 9.885-10.235 2.374-2.727 3.925-5.89 2.374-9.51-1.308-3.018-5.185-3.694-7.753-5.19-3.78-2.221-6.178-5.914-6.857-10.26-.072-.482.146-2.389-.363-2.389-.073 0-1.018.555-1.042.628-.194.53-.436 2.969-.46 3.645-.485 10.645 14.076 7.265 14.828 16.849.484 6.155-2.084 6.493-6.251 9.269-3.368 2.245-6.227 5.431-6.518 9.68zm-37.07.458c.316.314 2.012-1.906 1.842-2.075-.266.482-1.55.627-1.623.7-.049.048.388.94-.218 1.375"/></svg>