<svg xmlns="http://www.w3.org/2000/svg" width="118" height="133" fill="none" viewBox="0 0 118 133"><path fill="#f9e5e9" d="m61.996 26.036-6.658.352-1.997-.352-8.812 8.418-6.384 10.14v4.542l4.23 3.445 6.54 2.114 4.426-1.37 9.125-10.767 6.07-8.065 1.528-2.35-6.031-5.285m7.245 3.015.666 7.087.587 1.8 3.525-.587V32.3L73 29.874z"/><path fill="#f9e5e9" d="m74.058 28.502 7.363-9.866 9.4-6.225 6.657-1.997 8.107 3.289 2.898 12.998-1.684 12.333-6.383 5.443-15.548-.94-5.718-3.172zm0 12.295-.665 11.354 3.681 5.325 7.99 4.933 5.874 3.054 5.679 6.147v9.005l-5.013 5.325-11.984 9.788-3.408 5.99 1.841 12.02 1.567 2.701 1.37-5.442 1.528-12.059 5.874-5.285 7.48-5.325 5.836-7.596 1.645-6.538-1.645-6.773-7.99-5.404-9.79-6.342-4.19-6.813-2.468-9.396-2.742.9m-3.72-1.606 1.527 1.175-1.997 4.229-1.802 6.108-2.075 5.677-3.173 6.538-6.305 6.577-8.85 5.09-8.069 1.566-4.073 3.133-3.798 5.09-1.841 7.4-.862 8.182-1.958 3.015-.744-.823-.587-4.267-.745-7.4 1.097-6.382 4.386-5.403 6.815-4.855 8.38-3.328 7.99-4.228 6.619-6.773 5.248-9.397 3.015-7.987z"/><path fill="#181818" d="M80.05 43.302c1.293 6.97 4.818 12.607 10.966 16.17 4.112 2.388 8.655 3.054 11.632 7.086 5.561 7.478-.431 21.456-7.676 25.958-3.642 2.271-6.423 2.31-9.713 6.03-6.188 6.93-.509 14.134-5.17 21.808-1.644 2.701-6.07 5.833-9.242 5.755-2.193-.039-5.561-.94-4.66-3.759 4.308 1.097 7.245 1.253 9.516-3.014 2.86-5.403 0-6.891-.509-11.824-.705-6.93 2.585-13.195 7.833-17.54 6.149-5.13 14.451-5.521 12.258-16.014-2.193-10.453-16.84-9.945-21.58-18.127-2.897-5.012-.587-9.397-.822-14.722-1.018.666-1.448 2.428-1.88 3.563-1.84 4.934-2.467 10.258-4.777 15.035-3.525 7.204-11.162 15.27-19.151 17.188-5.797 1.37-6.854.078-11.24 5.207-6.54 7.635-2.546 18.871-8.812 27.132-1.37 1.84-1.802 2.428-3.094 4.385-2.467 3.837-5.64 7.322-10.73 6.891-.745-.078-4.505-.9-3.173-2.075.822-.744 2.428-.039 2.976-.94-1.41.431-5.678-1.84-3.955-3.014.705-.47 3.994-1.018 5.287-1.488 3.642-1.292 10.927-4.972 11.436-9.162.861-7.282-3.447-11.55-.274-20.124C30.039 71.335 43.119 71.1 52.479 64.248c8.499-6.146 11.24-13.742 15.783-22.786.94-1.88 1.723-1.801 1.684-4.307 0-.352.196-1.292-.391-.744-7.872 6.108-12.69 24-25.457 19.85-4.974-1.605-8.577-5.755-7.088-11.197.94-3.485 7.989-11.667 10.613-14.839 1.41-1.683 1.214-2.74 3.564-3.915 3.564-1.762 10.222-2.545 13.785-.626.98.508 3.76 3.328 4.034 3.328.235 0 1.489-.705 2.037-.862.666-.196 1.488-.039 1.997-.235.47-.156 4.896-6.5 5.875-7.634C82.988 15.66 91.33 7.477 97.83 7.75c14.96.627 14.804 25.528 7.872 34.416-6.423 8.104-17.82 5.48-25.653 1.135m13.825-31.44c-5.326 1.802-10.966 6.383-14.804 10.494-1.527 1.644-3.368 3.954-4.308 5.99 1.92 1.762 12.454-11.98 14.413-13.116zM78.171 36.569l2.858 3.68c8.577 5.168 23.303 6.382 25.809-5.912 1.489-7.321.392-15.387-3.955-21.573l.431 7.83c1.096 6.343 6.031 13.587.156 18.95-6.305 5.717-12.336-.94-18.837-2.153-2.154-.352-4.387-.235-6.462-.822m0-.744c4.778 0 9.203-.313 13.863.94 2.664.704 5.875 3.014 8.577 1.448.784-.43 3.133-2.936 3.329-3.798.823-3.523-3.25-10.336-3.877-14.33-.47-3.053 1.488-7.477-3.25-6.694-6.07 1.018-13.982 14.564-20.326 16.757.822 1.88 2.114 3.484 1.684 5.677m-8.616-3.367c-3.838-5.52-10.966-7.087-17.115-4.58-1.684.704-5.209 5.01-6.462 6.655-.313.392-1.801 2.114-1.527 2.427 7.088-5.364 16.566-7.556 25.104-4.502m4.817-1.096c-.353-.274-1.45.509-1.998.352-.626-.196-.352-1.175-.979-1.096.901 1.918.549 5.129 1.175 6.851.314.822 1.606.862 2.193.47 1.136-.783.47-5.99-.391-6.577M64.11 33.945c-1.214-.314-4.817 0-6.384 0-1.136 0-6.658 2.27-7.793 3.053-2.037 1.37-5.013 6.304-4.308 8.653.274.861 3.564 2.897 4.582 2.78 2.506-.274 11.436-11.902 14.295-13.742.352-.196-.275-.705-.392-.744m3.916.743c-.9-.156-1.214.079-1.88.549-3.642 2.466-7.637 9.318-11.396 12.567-3.407 2.937-5.796 4.19-9.556.94-1.606-1.37-2.742-2.975-2.86-5.168l1.567-6.225c-1.723 2.545-4.582 4.659-5.443 7.635-1.097 3.68.9 5.207 3.838 6.695 5.835 3.014 9.399 2.819 13.981-1.997zM58.941 66.01c6.971-6.93 7.637-12.646 10.614-21.416.43-1.253 1.174-2.506 1.566-3.68.235-.627.353-.705-.43-.98-3.956 8.654-6.267 18.285-13.669 24.706-9.203 7.987-24.399 8.73-29.45 19.968-2.82 6.303-.392 10.727-.314 17.109l2.076-5.99c.704-6.617 1.331-12.49 5.992-17.619 4.112-4.541 5.913-3.25 11.122-4.58 4.269-1.136 9.321-4.386 12.493-7.518m20.326 49.175c.744-4.894.04-9.005 1.606-13.938 3.133-9.788 10.26-10.023 15.979-16.6 3.838-4.425 6.344-9.553 3.838-15.426-2.115-4.894-8.381-5.99-12.533-8.418-6.11-3.602-9.986-9.592-11.083-16.64-.117-.783.235-3.876-.587-3.876-.118 0-1.645.9-1.684 1.018-.314.862-.705 4.816-.745 5.912-.783 17.266 22.754 11.785 23.969 27.329.783 9.983-3.368 10.531-10.105 15.034-5.443 3.641-10.065 8.81-10.535 15.7zm-59.92.744c.509.509 3.25-3.093 2.976-3.367-.43.783-2.506 1.018-2.624 1.136-.078.078.627 1.527-.352 2.231"/></svg>