<svg xmlns="http://www.w3.org/2000/svg" width="108" height="123" fill="none" viewBox="0 0 108 123"><g fill="#681f2a" clip-path="url(#a)"><path d="m78.492 31.883 2.707-2.044c4.756-2.2 1.388 5.028.497 6.866 1.124-.392 3.878-2.61 4.494-.49.661 2.3-2.7 7.722-4.403 9.344-.311.295-.914.413-1.043.637-.28.466-.771 3.722-1.379 4.998-.788 1.65-2.08 2.504-3.2 3.859 9.765-2.322 15.74-12.291 12.154-21.892C82.768 18.296 59.08 5.347 43.652 9.932c-1.459.434-3.353 1.626-4.58 1.91-2.118.488-.718-.874.31-1.488C56.324.271 95.252 21.993 90.032 42.793c-.7 2.788-2.506 5.965-3.925 8.477-3.92 6.94-6.74 10.211-14.799 12.048-.587.139-3.129.593-1.415-.434 4.364-2.613 10.141-3.458 12.265-8.939-1.149.518-2.22 1.207-3.393 1.687-.694.286-3.895 1.071-4.054 1.208-.185.16-.052.81-.19.867-.536.247-.528-.66-.575-.665-.766-.096-3.306.515-4.373.575-16.27.909-39.127-12.685-42.74-29.215l-.565-3.41c-2.574 5.953-.37 12.157 2.297 17.653.696-.768-.118-2.978 1.226-3.144.064 1.14-.027 2.34-.116 3.479-.038.44-.386.915-.3 1.338.034.168 1.4 2.152 1.642 2.479.475.64 1.816 2.4 2.325 2.841.388.337.339-.12.38-.35.155-.909.062-1.985.18-2.91l-.633.47c-.75-.718.578-2.208 1.257-1.188.655.983-.392 4.785-.258 5 .041.067.457.132.623.22.458-1.213 1.458-3.2 2.627-1.448l.208 2.676c2.203-3.979 5.343-2.986 3.854 1.7-.413 1.3-1.352 2.707-1.328.454.012-.996.328-2.172.41-3.188-1.482-.143-2.098 1.95-2.889 2.891 2.35 2.057 5.036 3.672 7.718 5.27.054-1.236 3.669-7.126 4.964-4.469.567 1.167-.415 3.824-.36 4.018.16.511.403.005.538-.135.643-.67 1.149-1.932 2.232-2.127 2.906-.52 1.498 4.489.867 5.855.421.18 2.938.798 3.117.491-.034-.967.882-2.708.644-3.545-.22-.78-1.088.184-1.562.14.494-1.335 2.245-1.818 2.396-.017.041.544-.397 1.194.083 1.585.445-1.366 4.547-3.862 4.667-1.255l-.304 2.793c.642-1.158 3.007-4.13 4.461-3.707 1.59.46-.078 3.881-.811 4.674-.243.26-.432.488-.816.27l1.448-4.104c-.884-.273-1.963.68-2.581 1.24-1.327 1.2-2.343 2.817-3.34 4.283.403.574 4.472.634 5.34.542.745-.077 2.432-.695 2.975-.609.332.053.366.135.203.418-.205.22-2.705.81-3.19.878-2.784.402-6.569-.216-9.257-.988-.859-.248-3.777-1.544-4.311-1.418-.308.073-.84 1.21-.683-.356-.51.123-3.01-.716-3.157-.653-.11.053-.192.772-.29.821-.724.353-.447-1-.645-1.15-.224-.168-.773-.125-.835.05l-1.557 4.412c3.193-1.004 6.663-1.883 10.07-1.416 2.216.305 5.267 1.133 7.42 1.812 2.35.739 7.355 2.102 5.053 5.443-2.419 3.51-13.7 2.722-17.41 1.713-2.632-.717-4.526-2.114-6.787-3.52-.641 1.79.889 4.06 2.249 5.185 1.55 1.283 4.74 2.696 6.727 2.836.312.022.653.204.865-.165l-8.544-4.793c-.83-2.778 3.34.077 4.332.687 2.073 1.274 3.969 2.816 5.812 4.38 10.31-2.111 25.942-.47 22.102 13.957-.905 3.401-4.117 7.947-3.35 11.329.41 1.817 2.078 2.719 3.496 1.392.447-.42 1-2.438 1.583-1.403.9 1.606-2.729 3.381-4.198 3.107-2.69-.503-3.476-3.059-3.175-5.44.452-3.567 2.713-6.361 3.553-9.885 1.973-8.315-1.71-10.797-9.574-11.75-3.054-.37-6.061-.008-9.052.497 1.199 1.15 1.423 4.803 2.057 5.704.307.437 2.584 1.188 3.52 2.107 3.353 3.302 2.063 12.125.27 15.915-1.314 2.779-5.535 6.5-2.957 9.817 1.832 2.358 4.017.755 6.335 1.209-1.687 3.239-6.386 2.321-8.328-.442-3.139-4.465 1.45-8.299 3.105-11.904 1.513-3.295 3.373-12.147-1.015-14.062-.218-.094-.564-.387-.594.11-.029.478.286 1.46.309 2.08.456 12.068-9.848 14.793-19.951 12.767-15.071-3.022-37.393-23.316-14.962-33.621l4.705-1.109a31.5 31.5 0 0 1-5.075-2.829c-.74-.511-3.474-2.534-3.893-3.086-.457-.603.255-1.029.76-1.231 1.17-.483 4.216-.935 5.618-1.186 4.115-.74 8.055-1.621 11.9.617 1.814 1.055 2.793 2.557 4.521 3.602l1.195-3.385c.415-1.177-2.302-1.966-3.249-2.577-1.408-.913-2.707-2.298-3.883-3.488-.328-.298-.408.345-.805.352-1.21.023-.41-1.135-.694-1.774-.094-.215-1.414-1.315-1.56-1.277-.144.037-.356.656-.754.401-.335-.373.008-1.093-.154-1.384s-2.28-2.227-2.79-2.877c-.534-.68-2.561-3.616-2.518-4.294.126-1.979-.748-2.455-1.466-4.268-1.331-3.372-2.737-8.013-2.216-11.618.35-2.414 1.326-4.314 1.994-6.584 1.067-3.63.974-6.334 4.122-9.198.244-.221 1.069-.933 1.465-.702-7.858 6.626-4.63 18.239 1.009 25.275 1.542-1.216 3.833-1.264 5.753-1.26 3.266.011 6.293.701 9.444 1.548l-8.29-5.248c-1.752-1.47-5.174-3.027-5.203-5.508l-1.938 1.452c-.61.446-.992 1.06-1.449 1.64-.216.282-.025.65-.606.325 8.65-12.93 26.62-11.742 38.54-3.684 5.49 3.712 11.471 9.626 11.694 16.563 1.21-.713 5.215-6.918 4.514-7.855-.828-1.112-4.098 2.252-4.788 2.356-1.643.247.792-3.65.96-4.063.348-.86.793-1.994 1.026-2.875.262-.985.556-1.944-.833-1.332-1.255.555-3.425 3.087-3.925 3.257-.463.159-1.013-.162-.91-.456l2.969-8.412c.086-.245.002-1.425-.288-1.583-.61-.33-2.638 1.146-3.163 1.565-.65.52-2.218 2.362-2.707 2.576-1.934.846-.173-4.203-.04-4.944.643-3.56.083-5.2-3.505-2.706-.837.582-3.3 3.45-3.546 3.5-.164.035-.542-.12-.68-.233-.673-.558 1.512-5.418.55-6.592-1.157-1.413-3.914 1.164-4.697 2.034-.539.597-2.511 3.689-2.738 3.747-.34.088-1.07-.388-.847-.855.27-1.039 2.483-7.233 1.632-7.604-.975-.426-4.757 3.14-5.505 3.891-.587.589-2.98 3.83-3.615 3.482-.226-.125-.325-.632-.285-.902.194-1.316 1.125-3.373 1.445-4.788.173-.757.152-1.551.345-2.3-.477-.791-3.321 1.546-3.772 1.973-1.928 1.823-3.126 3.837-4.446 6.08-.342.582-1.09.674-.83-.282.495-1.803 2.058-6.061 1.53-7.738-.38-1.208-2.045.601-2.505 1.117-2.116 2.377-3.424 5.774-4.446 8.742l-.81-.421.815-7.195c-.155-.577-.892.164-1.049.322-2.716 2.668-4.06 7.324-5.332 10.808-.337-.234-.352-.576-.348-.946.032-2.613 2.638-8.118 4.327-10.173.923-1.121 2.444-2.682 3.525-.832l.063 3.086c.708-1.57 4.008-7.152 6.187-5.74 1.426.925.331 4.109.115 5.426 1.669-1.613 2.947-3.717 5.021-4.898 1.71-.974 3.085-.757 3.02 1.458l-.711 4.181c1.264-1.68 3.034-3.683 4.79-4.844 4.322-2.859 5.066.895 3.57 4.334l2.92-2.316c4.086-1.705 4.634 1.837 3.76 4.903 6.032-5.716 9.586-2.107 6.505 5.065.45.274.356.058.558-.099 1.172-.907 5.045-4.781 6.132-1.937.118.31.17 1.79.094 2.008zm-42.344-4.79c.877.163 2.204.777 3.116 1.099.831.293 3.136 2.26 3.905 2.953 1.309 1.19 2.356 2.63 3.621 3.854-1.097-2.746-2.44-5.994-2.555-8.978-.2-5.436 3.434-.267 3.863 1.946-.338.266-.422-.25-.551-.425-.645-.892-1.174-2.081-2.085-2.697-.758.383 1.443 7.784 1.8 8.819.256.747 2.225 5.107 2.075 5.347-.226.368-2.781-.468-3.381-.58-3.436-.635-7.42-1.015-10.702.11.463.675 10.142.465 11.915.975.231.067.833.144.655.462-4.145 1.065-8.863.813-13.082-.002-.408.112 3.143 3.384 3.405 3.615 6.472 5.708 15.127 10.23 23.638 11.79 1.165-2.37.97-3.802-.21-6.056-.707-1.351-2.673-3.406-3.075-4.54-.593-1.669.676-1.811 1.962-1.275 3.397 1.422 7.152 4.888 10.314 6.87-.201.377-1.11-.161-1.384-.29-2.584-1.201-4.935-3.032-7.526-4.24-.299.43-.008.384.096.563 1.655 2.829 4.165 6.489.882 9.239 3.131.627 6.345.71 9.497.244.395-.06 2.263-.376 2.431-.486.552-.36 3.173-2.893 3.562-3.473 4.224-6.253.769-13.889-3.986-18.726-7.928-8.066-20.26-12.954-31.457-9.938-1.799.486-6.341 2.34-7.52 3.654-.094.104-.16.333-.004.344.208-.035.637-.205.781-.179m11.309 9.989c-1.816-3.211-5.624-6.876-9.108-8.284-.47-.19-2.943-1.039-2.144-.013.33.426.999 1.005 1.427 1.377 3.021 2.624 6.592 4.58 9.825 6.918zM36.046 52.206c.315-.697.344-1.494.205-2.236-.99.58-1.523 1.657-.206 2.234zm12.615 8.604c.292-.136.857-3.677.873-4.26.006-.257.02-1.546-.514-1.381-.286.087-2.634 3.75-2.64 4.226-.002.528 1.786 1.166 2.28 1.416m13.443-1.024c-.715-.953-4.37 2.433-4.654 3.301l1.049.96-1.256.25 3.396.968c.674-1.776 1.293-3.576 1.463-5.479zm-9.288 2.49c.387-.705 1.466-4.574.453-4.927-1.857.193-2.56 2.534-3.57 3.828zm-5.845.014c-.315-.052-1.32-.561-1.45-.502-.572.27-1.364 5.761-2.113 6.627l.917-.057zm-.882 8.457c4.68 2.88 11.34 3.838 16.742 3.114 1.513-.203 6.628-1.8 3.34-3.413-.56-.275-4.98-1.502-5.225-1.353-.105.064-.3.852-.547 1.178-2.447 3.312-10.358.91-13.615.319-.196-.038-.654-.135-.694.153zm13.39-2.197c-4.11-1.358-8.904-1.68-13.095-.563-.5.132-1.286.151-1.447.736 3.247.8 6.842 1.862 10.205 1.702 1.592-.075 3.482-.388 4.335-1.874zm-19.845-4.004c-3.868-3.274-8.493-2.678-13.087-1.971-1.066.163-2.87.353-3.81.662-.292.096-.504.052-.55.456 4.268 2.74 7.855 4.502 13.02 4.662 1.715.053 5.134.225 5.587-1.786a13.7 13.7 0 0 0-2.329-.718c-1.995-.387-5.118.252-6.62-.144-.406-.107-.676-.167-.802-.618 1.225-1.155 3.195-.586 4.769-.807zm1.079 7.534c-.022-.757 1.511-2.35.91-2.91-.4-.364-.426-.117-.66.063-1.13.885-2.135 1.323-3.634 1.192l2.038 1.175zm2.646-1.588c-.038-.13-.57-.553-.831-.167-.129.193-1.19 2.337-1.129 2.457.028.056.463.136.623.22-.074-.752 1.508-1.972 1.338-2.509zm-3.072 2.129-4.258-1.503c-3.882-1.37-11.593.87-14.682 3.432-12.476 10.351 6.894 25.404 16.82 28.236 10.641 3.037 23.303-.476 20.258-13.823-5.672-1.575-13.535-1.306-16.559-7.248-.707 1.914-1.05 1.183-1.12-.33-.073-1.6.415-4.308.685-5.967.148-.903 1.102-2.114-.383-2.3-.6 1.42-1.59 2.94-2.528 4.183-.506.67-1.105 1.571-1.939 1.854.783-2.392 2.718-4.214 3.708-6.534zm17.896 14.16c-.174-1.162-1.167-5.016-2.167-5.552-.295-.157-2.351-.137-2.973-.241-3.72-.641-7.63-2.741-9.305-6.224-.88 3.247-.35 7.324 3.043 8.918 3.548 1.66 7.67 2.052 11.404 3.098z"/><path d="M45.999 97.48c-.337 1.144-1.745 1.365-2.794 1.51-6.475.89-14.614-2.883-18.6-7.948-2.452-3.119-4.37-7.9-2.153-11.56l-.359 3.335c.844 8.082 9.594 13.526 17.142 14.389 2.332.26 4.617-.433 6.764.274M31.874 46.811c-.647-.906-.346-2.66-.192-3.759.061-.425.283-2.911.941-2.667.336.13-.283 5.8-.75 6.426m38.77 14.605.724-2.052-1.038-.367c2.155-1.315 1.948 2.026.314 2.419M59.75 38.652c3.002-1.493 5.173-4.472 8.194-5.985 2.074-1.039 3.505-.741 1.787 1.554-1.586 2.121-3.997 3.466-5.679 5.485 3.184-1.079 6.606-1.996 10.014-1.879 6.504.225 5.047 2.635.02 3.584l-10.003 1.538c3.348 1.482 6.529 2.907 9.543 5.004 1.406.98 3.373 2.246 3.9 3.894-2.817-1.537-5.36-3.459-8.224-4.939-2.155-1.113-5.284-2.095-7.152-3.305-1.237-.798-.032-1.503-.076-1.588-.446-.273-.774.261-1.18.237-1.117-.07-.81-.968-.252-1.605 1.215-1.403 4.132-3.214 5.684-4.594a27 27 0 0 0 2.83-2.847c-1.07.387-2.212 1.18-3.138 1.862-1.51 1.112-4.634 4.383-6.027 4.947-1.938.784-1.407-1.614-1.512-1.782s-.708-.18-.973-.48c-.97-1.093 2.502-8.441 3.34-9.795.437-.71 1.939-3.017 2.601-1.382.06.16-.175 2.15-.24 2.337zm-1.028-1.055c.727-3.006 2.352-5.783 3.01-8.86-.444-.156-3.072 6.844-3.249 7.52-.102.391-.439 1.274.238 1.338zm19.042 1.644c-5.073-1.403-10.897.294-15.413 2.636 4.323-.389 9.996-.142 14.038-1.737.231-.096 1.548-.609 1.374-.899zM53.953 35.22c-.17.08-.638-.412-.715-.648-.519-1.567-.122-4.365-.449-6.074l-.508-3.095c-.184 1.514-.196 3.089-.169 4.612.038 2.09.836 6.662.514 8.313-.025.129-.063.357-.213.271-1.132-3.466-1.489-7.87-1.302-11.534.042-.831.016-4.16 1.188-3.95.914.161 1.314 6.008 1.393 7.011.045.581.493 4.987.26 5.094"/></g><defs><clipPath id="a"><path fill="#fff" d="m33.943 0 73.555 25.957-33.943 96.186L0 96.187z"/></clipPath></defs></svg>