<svg xmlns="http://www.w3.org/2000/svg" width="79" height="95" fill="none" viewBox="0 0 79 95"><g fill="#681f2a" clip-path="url(#a)"><path d="m56.25 20.967 1.957-1.937c3.583-2.28 1.632 3.908 1.108 5.485.86-.436 2.838-2.518 3.551-.874.767 1.785-1.365 6.515-2.563 8.005-.218.27-.69.43-.77.624-.176.406-.233 3.084-.588 4.178-.46 1.415-1.408 2.24-2.165 3.453 7.585-2.913 11.341-11.59 7.476-18.95C58.271 9.554 37.95 1.635 26.062 6.976c-1.124.505-2.518 1.669-3.472 2.028-1.647.62-.666-.629.095-1.233 12.533-9.936 45.972 3.435 43.94 20.765-.273 2.323-1.392 5.077-2.27 7.254-2.423 6.014-4.345 8.953-10.613 11.293-.456.174-2.446.81-1.179-.2 3.227-2.572 7.77-3.869 8.904-8.515-.867.54-1.654 1.21-2.544 1.722-.527.304-3.01 1.279-3.124 1.406-.131.148.042.659-.062.719-.404.257-.491-.476-.53-.475-.624.004-2.596.768-3.444.93-12.945 2.466-32.664-6.062-37.269-19.008l-.805-2.69c-1.447 5.075.96 9.844 3.665 13.992.479-.693-.401-2.39.658-2.666.17.913.22 1.89.267 2.818.015.358-.215.779-.103 1.111.045.132 1.345 1.586 1.573 1.824.447.465 1.703 1.742 2.156 2.044.346.23.26-.133.268-.322.031-.75-.155-1.609-.156-2.367l-.459.446c-.675-.499.235-1.842.885-1.092.627.723.18 3.901.31 4.06.04.05.38.058.522.112.242-1.028.838-2.736 1.955-1.448l.444 2.136c1.354-3.444 3.973-2.978 3.264.96-.197 1.093-.804 2.328-1.017.507-.094-.804.038-1.786-.001-2.614-1.203.043-1.48 1.797-2.017 2.64 2.097 1.408 4.416 2.424 6.73 3.428-.085-1.004 2.203-6.139 3.516-4.134.575.88.062 3.129.127 3.279.18.395.323-.039.416-.166.446-.61.721-1.681 1.57-1.953 2.274-.73 1.663 3.46 1.3 4.63.355.1 2.436.33 2.548.063-.128-.776.427-2.278.15-2.928-.258-.605-.854.265-1.238.28.258-1.13 1.611-1.705 1.918-.269.09.434-.195 1.005.23 1.269.215-1.149 3.244-3.598 3.61-1.509l.045 2.285c.395-1.002 1.983-3.651 3.192-3.465 1.322.202.338 3.138-.167 3.856-.168.236-.295.44-.626.304l.736-3.463c-.736-.127-1.502.757-1.94 1.275-.939 1.11-1.586 2.521-2.233 3.81.382.42 3.65.034 4.335-.132.588-.142 1.877-.82 2.32-.808.272.007.308.07.207.315-.142.199-2.084.94-2.465 1.048-2.19.62-5.287.525-7.521.189-.714-.108-3.186-.843-3.6-.684-.24.091-.55 1.066-.585-.215-.396.154-2.485-.256-2.597-.19-.083.055-.074.644-.147.693-.544.362-.462-.759-.636-.859-.197-.11-.633-.018-.664.13l-.792 3.724c2.455-1.15 5.145-2.228 7.922-2.214 1.808.01 4.339.352 6.134.67 1.96.346 6.111.911 4.612 3.852-1.575 3.088-10.696 3.654-13.774 3.235-2.183-.297-3.846-1.223-5.803-2.115-.328 1.512 1.133 3.18 2.339 3.942 1.375.87 4.076 1.669 5.683 1.57.253-.015.545.095.676-.225l-7.341-2.956c-.953-2.151 2.683-.293 3.542.093 1.793.807 3.471 1.849 5.11 2.914 8.043-2.801 20.74-3.143 19.153 8.9-.373 2.84-2.477 6.848-1.513 9.494.517 1.422 1.946 1.971 2.945.75.315-.386.55-2.072 1.124-1.3.887 1.2-1.837 3.017-3.043 2.953-2.208-.12-3.102-2.097-3.106-4.049-.007-2.924 1.516-5.419 1.825-8.35.721-6.916-2.486-8.526-8.887-8.456-2.485.027-4.858.639-7.202 1.365 1.08.8 1.637 3.722 2.238 4.38.292.32 2.194.683 3.038 1.325 3.03 2.306 2.908 9.559 1.864 12.806-.767 2.38-3.764 5.832-1.355 8.232 1.712 1.706 3.296.18 5.2.3-1.016 2.793-4.876 2.552-6.718.53-2.977-3.266.303-6.846 1.257-9.93.872-2.818 1.447-10.155-2.266-11.232-.185-.053-.492-.252-.466.152.027.388.38 1.147.463 1.644 1.613 9.684-6.362 12.98-14.667 12.421-12.39-.83-32.374-14.82-15.465-25.52l3.656-1.395a25 25 0 0 1-4.36-1.741c-.644-.334-3.044-1.674-3.438-2.074-.428-.438.099-.857.481-1.074.89-.515 3.283-1.203 4.38-1.555 3.221-1.034 6.287-2.166 9.6-.77 1.562.658 2.502 1.764 3.995 2.424l.607-2.858c.211-.993-2.048-1.34-2.87-1.732-1.222-.586-2.406-1.565-3.471-2.4-.294-.205-.292.323-.61.37-.966.148-.445-.871-.739-1.356-.098-.163-1.269-.91-1.381-.864s-.218.567-.564.404c-.307-.265-.106-.882-.266-1.1s-2.057-1.553-2.533-2.023c-.498-.491-2.426-2.643-2.462-3.195-.103-1.609-.853-1.9-1.616-3.285-1.415-2.578-3.021-6.171-2.977-9.134.031-1.984.617-3.62.918-5.523.48-3.04.125-5.211 2.352-7.856.173-.205.76-.866 1.101-.722-5.612 6.18-1.825 15.202 3.421 20.275 1.11-1.144 2.941-1.427 4.48-1.628 2.619-.34 5.116-.105 7.728.242l-7.186-3.35c-1.555-.998-4.458-1.889-4.738-3.887l-1.403 1.378c-.443.424-.685.96-.991 1.476-.145.25.047.528-.453.328 5.595-11.35 20.117-12.306 30.502-7.077 4.783 2.408 10.188 6.54 11.083 12.111.896-.703 3.464-6.134 2.805-6.815-.778-.808-3.05 2.253-3.593 2.41-1.291.374.258-3.028.349-3.379.19-.73.43-1.692.526-2.428.107-.822.243-1.626-.806-.985-.948.581-2.426 2.854-2.808 3.045-.355.177-.83-.024-.776-.271l1.509-7.1c.044-.208-.146-1.15-.395-1.247-.522-.2-1.995 1.205-2.373 1.6-.467.488-1.532 2.14-1.902 2.365-1.462.889-.573-3.37-.543-3.983.147-2.94-.471-4.203-3.09-1.809-.61.56-2.287 3.134-2.478 3.201-.128.045-.447-.039-.57-.115-.596-.379.652-4.53-.24-5.376-1.074-1.015-3.017 1.357-3.553 2.141-.37.54-1.632 3.242-1.807 3.314-.264.107-.898-.2-.768-.6.109-.866 1.243-6.098.522-6.306-.825-.24-3.487 3.04-4.008 3.725-.41.537-1.992 3.405-2.537 3.193-.195-.077-.327-.475-.322-.698.02-1.082.552-2.839.663-4.014.06-.63-.039-1.268.038-1.893-.463-.586-2.5 1.602-2.818 1.994-1.357 1.675-2.108 3.427-2.934 5.376-.214.506-.805.66-.694-.139.21-1.506 1.022-5.107.426-6.403-.429-.933-1.577.703-1.893 1.168-1.449 2.142-2.146 5.021-2.658 7.523l-.692-.253-.092-5.89c-.183-.448-.697.228-.806.373-1.902 2.44-2.497 6.339-3.156 9.284-.294-.153-.342-.428-.377-.726-.244-2.11 1.275-6.828 2.416-8.665.624-1.003 1.68-2.424 2.739-1.047l.369 2.483c.405-1.341 2.473-6.195 4.365-5.288 1.238.593.69 3.278.653 4.363 1.17-1.479 1.977-3.312 3.517-4.485 1.269-.968 2.393-.94 2.57.854l-.137 3.448c.84-1.49 2.05-3.294 3.337-4.417 3.168-2.766 4.152.182 3.31 3.114l2.1-2.178c3.097-1.81 3.902.988 3.519 3.554 4.243-5.252 7.464-2.72 5.737 3.391.388.173.29.01.437-.139.845-.856 3.547-4.393 4.712-2.215.127.237.322 1.426.283 1.61zm-34.427.647c.72.04 1.847.393 2.61.555.697.148 2.748 1.489 3.435 1.965 1.172.82 2.16 1.871 3.3 2.723-1.163-2.097-2.575-4.574-2.975-6.968-.722-4.362 2.723-.581 3.296 1.158-.243.25-.364-.157-.485-.284-.61-.651-1.156-1.554-1.95-1.953-.567.39 1.961 6.124 2.354 6.92.283.575 2.312 3.882 2.216 4.091-.144.32-2.277-.081-2.77-.107-2.818-.146-6.05-.029-8.563 1.229.44.494 8.174-.706 9.648-.484.192.03.682.028.572.303-3.211 1.3-7.018 1.6-10.482 1.392-.316.134 2.868 2.394 3.102 2.553 5.776 3.914 13.179 6.64 20.16 6.99.688-2.036.384-3.17-.794-4.861-.706-1.015-2.494-2.463-2.934-3.334-.648-1.283.355-1.533 1.44-1.237 2.87.784 6.237 3.18 8.976 4.441-.123.325-.907-.011-1.14-.086-2.194-.694-4.267-1.92-6.468-2.618-.195.379.033.31.135.444 1.619 2.105 4.008 4.79 1.661 7.357a22.3 22.3 0 0 0 7.636-.815c.31-.091 1.775-.545 1.898-.65.404-.35 2.243-2.672 2.495-3.18 2.738-5.494-.82-11.284-5.13-14.678-7.187-5.66-17.574-8.29-26.234-4.664-1.391.583-4.84 2.563-5.648 3.747-.065.094-.095.286.032.279.163-.05.49-.234.607-.228m10.095 6.852c-1.787-2.396-5.217-4.946-8.154-5.71-.397-.104-2.466-.525-1.72.217.308.308.904.704 1.286.959 2.692 1.794 5.756 2.992 8.588 4.532zm-7.58 13.412c.18-.595.12-1.241-.067-1.824-.734.572-1.05 1.498.066 1.823m10.998 5.596c.22-.141.306-3.057.259-3.53-.022-.207-.143-1.248-.555-1.058-.22.1-1.723 3.305-1.679 3.69.053.425 1.552.749 1.975.898m10.666-2.258c-.672-.693-3.25 2.427-3.388 3.157l.94.664-.98.334 2.82.419c.357-1.504.667-3.021.606-4.574zm-7.186 2.997c.238-.61.702-3.845-.145-4.022-1.469.353-1.79 2.317-2.465 3.467zm-4.682.634c-.257-.008-1.116-.312-1.213-.25-.43.278-.498 4.79-1.009 5.57l.73-.145zm.168 6.914c4.049 1.824 9.483 1.887 13.738.728 1.191-.325 5.125-2.157 2.324-3.108-.478-.162-4.146-.681-4.328-.535-.078.063-.153.72-.316 1.009-1.619 2.93-8.206 1.837-10.877 1.707-.161-.01-.538-.04-.54.197zm10.502-3.198c-3.433-.657-7.308-.407-10.55.94-.388.16-1.015.26-1.085.748 2.685.3 5.676.773 8.354.286 1.268-.23 2.75-.684 3.28-1.973zm-16.316-1.115c-3.437-2.228-7.082-1.255-10.69-.196-.837.246-2.263.59-2.984.94-.225.108-.399.096-.395.426 3.704 1.755 6.76 2.795 10.916 2.373 1.38-.14 4.137-.365 4.293-2.035a11 11 0 0 0-1.941-.331c-1.639-.1-4.075.748-5.32.589-.336-.043-.56-.062-.707-.413.863-1.062 2.5-.813 3.738-1.159zm1.644 5.96c-.096-.607.968-2.056.428-2.442-.358-.252-.353-.05-.522.12-.814.835-1.574 1.295-2.789 1.349l1.755.73zm1.956-1.562c-.044-.1-.514-.385-.683-.046-.083.17-.712 2.011-.65 2.102.028.042.384.06.521.111-.137-.598 1.005-1.751.813-2.166m-2.242 2.044-3.567-.758c-3.252-.691-9.2 1.936-11.41 4.332-8.928 9.677 8.15 19.753 16.396 20.98C40.106 83.76 49.89 79.578 46.07 69.14c-4.708-.666-10.981.388-14.019-4.082-.368 1.62-.718 1.066-.93-.147-.226-1.283-.114-3.518-.07-4.885.026-.744.666-1.822-.544-1.814-.335 1.21-.97 2.541-1.593 3.643-.337.595-.724 1.385-1.362 1.702.38-2.013 1.742-3.688 2.295-5.665m15.805 9.513c-.26-.918-1.454-3.92-2.311-4.246-.253-.095-1.898.14-2.407.122-3.047-.12-6.398-1.398-8.1-4.028-.37 2.712.478 5.944 3.36 6.868 3.015.961 6.359.837 9.459 1.284z"/><path d="M36.993 77.33c-.151.958-1.256 1.287-2.082 1.515-5.097 1.407-12.01-.768-15.726-4.428-2.287-2.254-4.32-5.905-2.92-9.093l.057 2.727c1.511 6.429 9.085 9.886 15.223 9.778 1.895-.038 3.655-.84 5.448-.499M20.437 37.972c-.613-.663-.553-2.109-.543-3.012.005-.349-.074-2.377.479-2.251.282.07.373 4.707.064 5.263m32.576 7.648.368-1.732-.87-.185c1.591-1.29 1.77 1.426.502 1.917M41.932 28.422c2.25-1.524 3.682-4.158 5.946-5.7 1.554-1.058 2.732-.97 1.593 1.063-1.052 1.88-2.845 3.221-3.984 5.029 2.44-1.21 5.088-2.314 7.83-2.582 5.235-.512 4.317 1.587.387 2.888l-7.857 2.306c2.836.838 5.532 1.649 8.164 3.019 1.228.64 2.936 1.452 3.528 2.724-2.416-.938-4.653-2.218-7.1-3.106-1.843-.669-4.451-1.127-6.073-1.904-1.074-.512-.182-1.208-.225-1.273-.386-.172-.594.294-.922.317-.901.063-.748-.694-.367-1.267.828-1.26 2.978-3.032 4.08-4.31a22 22 0 0 0 1.973-2.598c-.818.426-1.65 1.188-2.322 1.836-1.095 1.058-3.26 4.028-4.318 4.631-1.472.839-1.294-1.152-1.395-1.275-.102-.124-.587-.07-.83-.284-.89-.779 1.132-7.074 1.663-8.255.277-.62 1.242-2.64 1.942-1.392.065.122.082 1.752.049 1.91zm-.934-.742c.272-2.501 1.287-4.913 1.495-7.465-.371-.079-1.753 5.847-1.825 6.41-.041.327-.22 1.074.329 1.055m15.429-.702c-4.21-.59-8.702 1.398-12.079 3.768 3.424-.774 7.996-1.18 11.07-2.897.175-.102 1.178-.655 1.008-.87zm-19.496-.706c-.127.083-.553-.264-.64-.446-.577-1.209-.548-3.507-.987-4.851l-.727-2.442c.01 1.24.162 2.512.342 3.737.246 1.682 1.358 5.284 1.27 6.65-.006.106-.013.295-.142.241-1.266-2.674-2.007-6.189-2.236-9.163-.052-.675-.417-3.356.544-3.313.749.034 1.674 4.707 1.841 5.507.096.464.911 3.97.736 4.08"/></g><defs><clipPath id="a"><path fill="#fff" d="m17.256 0 61.623 13.098-17.255 81.186L0 81.186z"/></clipPath></defs></svg>