<svg xmlns="http://www.w3.org/2000/svg" width="64" height="116" fill="none" viewBox="0 0 64 116"><g fill="#f5cdcb" clip-path="url(#a)"><path d="M27.19 60.36a12 12 0 0 1-1.54-2.75c-2.43-6.73 1.31-23.05 3.67-30.07 3.16-9.36 8.46-18 10.94-27.54 1.19.67 2.56 0 3.55.23s2.11 1.08 3.27 1.26c4.49.68 13.08-1.11 14.3 5.05l-6 1c1.77.11 3.49.37 5.27.52.78.07 2-.53 1.76.73-4.11 2.23-13.43.3-17.6-1.5-1.63-.7-2.11-2-3.26-2.77-.51-.33-.39-.81-1 0-2.92 9.49-7.15 18.57-9.46 28.26-1.26 5.27-4.14 19.47-3.34 24.27.61 3.61 6.53 6.85 9.83 7.28 8.17 1.06 12.07-4.06 14.66-10.9 5.13-13.47 6.65-28.76 9.13-42.86.64 0 1.35-.18 1.78.49.82 1.3-4.15 26.74-5.05 30.19-1.36 5.2-4.53 15.78-8 19.62-2.18 2.38-5.12 3.21-7.8 4.77 5.09 1.57 12.12 5 13.61 10.56s-6.33 5.58-10 4.43c-4.13-1.29-6.33-5.25-9.64-7.7.09 4.93 2.19 11.08 5.79 14.58 3 2.9 5.5 3.3 9.55 3 1-.07 2.57-.89 3-.83 2 .24.74 2-.58 2.77-8.75 5.21-17.07-5.51-18.93-13.11l-1.36-5.42-4.54 20.1c7.7 1.51 22.07 10.79 11 18.33-8.08 5.53-27 2.16-32.26-6.9-4-6.94-2-13.85 6.53-14.82 2.4-.28 8.27 1.32 10-.07.85-.69 3.44-13.49 4.22-15.64l-6.27 6.05c-5.51 3.75-11.24 4.88-17.38 1.77-1.49-.76-5.56-3.52-5-5.5.82-2.85 6.05 2.89 7.82 3.66 4.63 2 8.8.68 13.11-1.36 2.26-1.07 7.34-5 8.73-7 .493-.996.83-2.062 1-3.16-2.39.89-4.37 2.54-6.7 3.61-4.57 2.09-12.34 5.57-14.76-1-1.43-3.88.64-7.26 4-9.25 2.14-.994 4.361-1.8 6.64-2.41zm17.6-56.84c-.37-.81-1.11-1.66-2-1.49.35.82 1.09 1.64 2 1.49m-31 62.54c-1.29 1.37-2.64 5.46-.66 6.6 3.5 2 18.3-4.51 18.48-6.51.31-3.62-9.29-1.74-11.19-1.24s-7.39 3.9-4.3 0c-.36-.33-2.03.83-2.33 1.15M30.2 82.48c.41-3.93 2.58-7.85 3.21-11.67.14-.86.53-1.24-.44-1.9-1 3.86-2.53 8-3.14 11.94-.09.54-.54 1.75.37 1.63m11.07-8c1 3 11.5 6.77 12.53 3.71 1.47-4.34-12.16-8.86-15.55-8.23l5 4.27zm-16.6 17.6c-3.67.93-8.49.1-11.73 2.1s-3.8 3.58-2.34 6.95l1.49-3.52c-1.62 8.68 11.63 10.94 17.86 10.55 1-.06 5.77-1.85 5.28.26-6.45 3.64-14.34 1-20.36-2.26-.14.72 1.24 1.84 1.75 2.27 4.66 3.88 18.29 5.36 23.31 2.18 7.2-4.58-1.1-9.94-5.69-12.26-1.36-.68-6.22-2.18-6.56-2.49a2.27 2.27 0 0 1-.5-1.77h-.49c-.46 2.52-3.82.38-2.02-2.05z"/><path d="M55.37 33.67c-.28.24-2.95-.91-3.5-1.28-1.24-.83-2.41-3.22-3-3.51s-3.24 1.37-4.68 1.18c-2.53-.33-4.34-3.94-5.76-4.35s-2.48.74-3.66.17c3.95-5.09 7.11 1.32 8.87 1.66 1.35.26 3.65-2 6.24-1.2.73.23 5.55 5.29 5.77 5.82a4.3 4.3 0 0 1-.28 1.51m-12.6 20.65c.59 2.18-2.77 3.52-3.51 1.76s2.36-1.41 3.51-1.76m-7.29-2.34c4.36-.94 2.46 2.95.24 2.09-.87-.34-1.5-1.81-.24-2.09m15.89-15.76c1.14 1.12-1.72 2.7-3 2-.48-1.43 2.38-2.55 3-2m-6.08 15.59c-.34-.31-.11-3 1.76-2.51 1.68.43-.68 3.44-1.76 2.51m-9.8-11.56c1.71-.46 2.31 1.64 1 2-1.72.42-2.32-1.65-1-2m14.32 1.5.51 2.51h-2c-.14-1.21-.07-2.59 1.49-2.51m-15.59 4.02c.36.31.67 2.5-.25 2.51s-1.12-3.61.25-2.51m24.15-26.1c.27.27-.55 2.76-1.5 2-.5-1 .89-2.64 1.5-2m-17.61 24.6c.17.18.32 1.88-.74 1.5-1.55-.56.25-2.03.74-1.5m12.57-24.15h-1v1.5h1z"/></g><defs><clipPath id="a"><path fill="#fff" d="M0 0h63.26v115.05H0z"/></clipPath></defs></svg>