<svg xmlns="http://www.w3.org/2000/svg" width="274" height="74" fill="none" viewBox="0 0 274 74"><path fill="#f5cdcb" d="M103.363 65.826c-.115-.74-1.033-3.121-1.863-3.498-.28 1.995 3.013 5.604.246 6.527-5.176-3.604-9.657-8.808-14.934-12.141-9.199-5.797-19.923-7.285-25.997-17.875-7.32-12.75 7.595-32.852 19.87-20.813 4.186 4.116 6.044 10.276 10.076 14.421-.816-9.097-5.07-15.856-4.186-25.431.772-8.436 5.736-9.663 8.942-1.498 2.897 7.435 1.101 16.518 1.782 24.359.608 6.966 1.226 14.01 1.868 21.006.358 3.898.483 8.88 3.723 11.445l-2.839-26.383c-.072-1.044.126-2.237 1.449-2.092 1.125 13.387 3.969 26.639 3.268 40.147h-1.395c-.28-2.541.357-5.73-.01-8.174M93.098 28.48c.295 2.613 0 6.125 0 8.87 0 .053-.68.932-.937.483-3.969-8.17-13.036-18.75-23.118-18.016-5.514.401-5.794 9.068-4.66 13.127 1.82 6.609 13.177 14.913 19.068 18.266 4.954 2.822 10.26 4.237 15.239 6.923-1.546-5.715-1.27-11.672-1.864-17.503-.45-4.425-1.58-9.18-1.86-13.527-.405-6.324 1.251-12.078-.13-18.538-1.067-4.995-5.152-11.111-5.929-1.99-.73 8.513 3.356 14.498 4.191 21.905m-9.802-4.436c.527-.56-3.94-5.314-4.65-5.845-4.282-3.285-9.381-3.15-13.075.966 1.449.034 2.226-.74 3.964-.74 5.07-.023 9.681 2.987 13.761 5.62M68.531 42.09c-4.302-4.348-6.76-9.18-6.224-15.46.116-1.381.966-2.638.7-3.971-8.247 13.044 4.39 23.248 15.451 27.93.43.178 1.188 1.014 1.555.313-3.684-2.783-8.242-5.527-11.482-8.812m32.959 24.905c-.748-1.624-1.82-6.672-2.805-7.692-.425-.44-2.946-1.531-3.728-1.87-2.69-1.168-5.688-1.874-8.392-3.038z"/><path fill="#000" d="M75.882 41.574q.084 0 .084.056 0 .042-.084.056-.49.014-.756.35-.252.323-.252 1.092v4.774h.784q.098 0 .098.098l.028.49.084 1.064q.014.084-.042.084-.042 0-.056-.07-.155-.812-.518-1.19Q74.9 48 74.202 48h-3.948q-.7 0-1.064.378-.351.378-.504 1.19-.015.07-.07.07-.043 0-.028-.084.084-.728.084-1.064L68.7 48q0-.098.098-.098h.434q.49 0 .742-1.554.266-1.554.336-3.598-.056-.574-.308-.812t-.686-.252q-.084-.014-.084-.056.014-.056.084-.056.588.042.812.042h4.942q.266 0 .812-.042m-2.618 6.328v-6.188h-2.842q0 2.002-.238 3.906-.225 1.89-.7 2.282zm10.473 0q.07 0 .07.056t-.07.056q-.225-.015-.868-.014h-1.666q-.659 0-.882.014-.07 0-.07-.056t.07-.056q.462 0 .686-.308.224-.307.224-1.05v-4.83h-2.842q-.057 1.134-.28 4.298-.057 1.022-.322 1.624-.252.588-.896.588-.756 0-.756-.42 0-.084.014-.126l.336-1.33q.028-.07.07-.056.042 0 .042.07.013.602.154.812t.462.21q.699 0 .798-1.372l.182-2.94.014-.28q0-.574-.21-.826t-.63-.252q-.07 0-.07-.056t.07-.056l.868.014h4.634l.868-.014q.07 0 .07.056t-.07.056q-.462 0-.686.308-.21.307-.21 1.05v3.472q0 .742.21 1.05.224.308.686.308m7.714 0q.07 0 .07.056t-.07.056q-.224-.015-.882-.014h-1.666q-.643 0-.868.014-.07 0-.07-.056t.07-.056q.462 0 .672-.308.225-.307.224-1.05v-4.06q0-.658-.392-.686l-.49-.014q-.56-.015-.84.14a.74.74 0 0 0-.35.476q-.07.308-.07.91 0 .574.196.952.21.364.616.574 0-.014.028-.014l.042.042q.295.14.868.21.057.014.042.056 0 .042-.042.042-.195.014-.56.014-.574.014-.868.084a.9.9 0 0 0-.49.308q-.18.224-.294.714-.224.91-.602 1.344-.377.42-1.19.35-.126-.014-.126-.294 0-.224.084-.504a1.7 1.7 0 0 1 .196-.462q.112-.168.196-.07.337.238.644.238a.6.6 0 0 0 .238-.042q.28-.154.392-.602.225-.784.798-1.148-.909-.155-1.386-.588a1.44 1.44 0 0 1-.462-1.092q0-.896.714-1.358.729-.462 2.24-.462l2.506.014.882-.014q.07 0 .07.056t-.07.056q-.462 0-.686.308-.224.307-.224 1.05v3.472q0 .742.224 1.05.225.308.686.308m11.417.028q.07 0 .07.056 0 .042-.07.042-.393-.028-1.918-.028-.378 0-.546-.14a.7.7 0 0 1-.21-.35l-.434-1.218q-.21-.615-.407-.938a1.2 1.2 0 0 0-.517-.49q-.309-.154-.84-.154h-.126v1.834q0 .742.21 1.05.223.308.686.308.07 0 .07.056t-.07.056q-.21-.015-.869-.014h-1.666q-.657 0-.881.014-.07 0-.07-.056t.07-.056q.462 0 .686-.308.224-.307.224-1.05v-3.458q0-.742-.225-1.05-.223-.308-.685-.308-.07 0-.07-.056t.07-.056l.882.014h1.665l.868-.014q.07 0 .07.056t-.07.056q-.462 0-.686.308-.21.307-.21 1.05v1.54h.127q.993 0 1.511-.308.519-.323.939-1.092l.14-.266q.237-.435.238-.742 0-.504-.672-.504-.07 0-.07-.056t.07-.056l.868.014h.336l.868-.014q.07 0 .07.056t-.07.056a1 1 0 0 0-.714.266q-.28.252-.7.952l-.21.364q-.351.588-.756.91-.392.308-.98.42 1.063.014 1.666.378.602.35.98 1.232l.21.504q.293.686.518.938.224.239.63.252m5.365-6.538q.728 0 1.33.406.616.392.98 1.148.378.742.378 1.722 0 .925-.434 1.75-.42.811-1.162 1.302a2.8 2.8 0 0 1-1.596.49q-.532 0-.882-.14a3.4 3.4 0 0 1-.658-.35q-.21-.14-.28-.14-.126 0-.126.238v1.54q0 .742.196 1.036.21.307.63.336.07 0 .07.042 0 .056-.07.056a31 31 0 0 0-1.456-.028q-1.105 0-1.806.028-.07 0-.07-.056t.07-.056q.42.014.616-.294.21-.308.21-1.078v-5.936q0-.532-.14-.77-.126-.252-.49-.252-.07 0-.238.028-.056.014-.07-.028 0-.055.042-.07.659-.154 1.344-.406.7-.252 1.134-.546.07-.042.112-.028.056.014.042.084-.084.728-.098 1.232 0 .168.014.322.028.14.07.126.378-.756.938-1.232t1.4-.476M107.841 48q.896 0 1.288-.504.406-.504.406-1.47 0-.937-.322-1.806-.322-.868-.868-1.4-.532-.532-1.162-.532t-1.022.532q-.378.532-.378 1.428v.938q0 1.218.546 2.016.56.798 1.512.798m10.848-2.394q0-.07.042-.07t.042.07q0 1.065-.462 1.82-.448.756-1.176.756-.533 0-.896-.35-.364-.364-.406-1.078-.336.7-.896 1.078a2.07 2.07 0 0 1-1.204.378q-1.107 0-1.638-.616a2.2 2.2 0 0 1-.532-1.456q0-.812.728-1.302.741-.49 1.848-.49.378 0 .84.07.476.07.854.182v-.616q0-2.156-1.876-2.156a1.87 1.87 0 0 0-1.316.504q-.532.504-.532 1.512 0 .056-.028.084-.029.028-.056.028-.056 0-.056-.112 0-.784.392-1.33a2.44 2.44 0 0 1 1.008-.84q.615-.28 1.302-.28 2.772 0 2.772 2.59v2.296q0 .924.476.924.462 0 .602-.406.14-.42.168-1.19m-4.228 1.806q1.372 0 1.372-1.666v-.084a1.45 1.45 0 0 0-.588-.798 1.6 1.6 0 0 0-.952-.308q-1.386 0-1.386 1.064 0 .714.406 1.26.405.532 1.148.532m9.693-2.324q-.028.07-.084.07-.042-.014-.014-.098.07-.28.07-.546 0-.644-.308-1.302a3.2 3.2 0 0 0-.812-1.106q-.504-.434-1.064-.434-1.652 0-1.652 1.89 0 1.036.476 1.932a3.9 3.9 0 0 0 1.232 1.4q.77.518 1.554.518 1.008 0 1.54-.644.056-.056.084-.014.029.028 0 .07-1.106 1.386-2.926 1.386a3.44 3.44 0 0 1-1.652-.406 3.2 3.2 0 0 1-1.218-1.148q-.448-.756-.448-1.736 0-.953.476-1.764.49-.811 1.316-1.288a3.53 3.53 0 0 1 1.792-.476q.672 0 1.26.182t.896.476q.323.28.252.56zm9.919 2.814q.07 0 .07.056t-.07.056q-.21-.015-.868-.014h-1.666q-.658 0-.868.014-.07 0-.07-.056t.07-.056q.462 0 .672-.308.224-.307.224-1.05V43.17l-3.346 3.36v.014q0 .742.21 1.05.224.308.686.308.07 0 .07.056t-.07.056q-.224-.015-.868-.014h-1.666q-.659 0-.882.014-.07 0-.07-.056t.07-.056q.462 0 .686-.308.224-.307.224-1.05v-3.458q0-.742-.224-1.05-.224-.322-.686-.322-.07 0-.07-.056t.07-.056q.449.028.882.028h1.666q.42 0 .868-.028.07 0 .07.056t-.07.056q-.462 0-.686.322-.21.307-.21 1.05v3.262l3.346-3.36q-.014-.7-.238-.98-.21-.294-.658-.294-.07 0-.07-.056t.07-.056q.42.028.868.028h1.666q.448 0 .868-.028.07 0 .07.056t-.07.056q-.462 0-.686.322-.21.307-.21 1.05v3.458q0 .742.21 1.05.224.308.686.308m.802.098q-.07 0-.07-.056t.07-.056q.476.014.686-.294.224-.307.224-1.05v-3.458q0-.742-.224-1.05-.21-.308-.672-.308-.07 0-.07-.056t.07-.056q.42.028.868.028 1.764-.042 3.206-.042 1.105 0 1.722.378.616.364.616 1.134 0 .505-.434.91-.42.392-1.05.462.812.042 1.358.476t.546 1.19q0 .882-.7 1.386-.686.504-1.904.504l-3.36-.056zm3.738-3.584q.714-.084 1.022-.378.308-.308.308-.938 0-.686-.364-1.022-.35-.336-.896-.35l-.994-.042h-.042q-.14 0-.182.07a.5.5 0 0 0-.042.252v5.516q0 .252.07.35.084.084.308.084l.882-.014q.714 0 1.106-.406.406-.42.406-1.232 0-.825-.364-1.26-.35-.448-1.176-.476l-.476-.014q-.056 0-.056-.042t.042-.056zm13.636 3.486q.07 0 .07.056t-.07.056q-.223-.015-.868-.014h-1.666q-.657 0-.882.014-.056 0-.056-.056t.056-.056q.476 0 .686-.308.225-.307.224-1.05V43.03q0-.742-.224-1.05-.21-.308-.686-.308-.056 0-.056-.056t.056-.056l.882.014h1.666l.868-.014q.07 0 .07.056t-.07.056q-.462 0-.686.308-.21.307-.21 1.05v3.514q0 .742.21 1.05.225.308.686.308m-6.188-3.556q2.87-.042 2.87 1.75 0 .924-.672 1.414t-2.002.49h-2.94q-.657 0-.882.014-.07 0-.07-.056t.07-.056q.462 0 .686-.308.224-.307.224-1.05v-3.472q0-.742-.224-1.05t-.686-.308q-.07 0-.07-.056t.07-.056l.882.014h1.666l.868-.014q.07 0 .07.056t-.07.056q-.462 0-.686.308-.21.307-.21 1.05v1.134q0 .154.126.154zm-.224 3.542q.673-.015 1.036-.49.378-.476.378-1.274 0-.785-.378-1.218-.378-.448-1.092-.434l-.7.014q-.126 0-.126.154v2.884q0 .224.056.308.057.07.224.07zm14.264.014q.07 0 .07.056t-.07.056q-.21-.015-.868-.014h-1.904q-.659 0-.882.014-.056 0-.056-.056t.056-.056q.308 0 .476-.112a.37.37 0 0 0 .182-.336q0-.28-.294-.742l-1.246-1.904-1.288 1.904q-.308.476-.308.742 0 .448.644.448.07 0 .07.056t-.07.056q-.224-.015-.882-.014h-.182q-.658 0-.868.014-.07 0-.07-.056t.07-.056q.42 0 .7-.238.294-.252.756-.952l1.372-2.002-1.176-1.806q-.462-.7-.728-.938a.86.86 0 0 0-.63-.252q-.056 0-.056-.056t.056-.056l.784.014h1.918l.952-.014q.07 0 .07.056t-.07.056q-.336 0-.532.126-.182.112-.182.35 0 .294.28.714l.966 1.484 1.022-1.484q.294-.434.294-.728a.37.37 0 0 0-.196-.35q-.182-.112-.518-.112-.084 0-.084-.056t.084-.056l.952.014h.196l.868-.014q.07 0 .07.056t-.07.056a1.08 1.08 0 0 0-.728.252q-.28.252-.742.938l-1.092 1.596 1.442 2.212q.448.686.728.938.294.252.714.252m8.705-2.814q-.027.07-.084.07-.042-.014-.014-.098.07-.28.07-.546 0-.644-.308-1.302a3.2 3.2 0 0 0-.812-1.106q-.504-.434-1.064-.434-1.652 0-1.652 1.89 0 1.036.476 1.932a3.9 3.9 0 0 0 1.232 1.4q.771.518 1.554.518 1.009 0 1.54-.644.057-.056.084-.014.029.028 0 .07-1.105 1.386-2.926 1.386a3.44 3.44 0 0 1-1.652-.406 3.2 3.2 0 0 1-1.218-1.148q-.448-.756-.448-1.736 0-.953.476-1.764.49-.811 1.316-1.288a3.53 3.53 0 0 1 1.792-.476q.672 0 1.26.182t.896.476q.322.28.252.56zm7.931-1.05q.015.056-.028.056-.041 0-.056-.056-.518-1.945-1.148-2.17-.126-.098-.98-.098-.084 0-.14.098a.4.4 0 0 0-.056.224v4.452q0 .742.21 1.05.225.308.686.308.07 0 .07.056t-.07.056q-.21-.015-.868-.014h-1.666q-.657 0-.868.014-.07 0-.07-.056t.07-.056q.462 0 .672-.308.224-.307.224-1.05v-4.452a.4.4 0 0 0-.056-.224q-.056-.098-.14-.098-.854 0-.98.098-.63.225-1.148 2.17-.014.056-.056.056t-.028-.056q.168-1.245.168-2.282 0-.224.182-.224.084 0 .476.056.406.056 1.582.056h1.61q1.134 0 1.554-.056t.518-.056q.168 0 .168.224 0 1.035.168 2.282m4.071 4.186a3.75 3.75 0 0 1-1.75-.406 3.14 3.14 0 0 1-1.218-1.176q-.434-.756-.434-1.722 0-.98.504-1.778a3.54 3.54 0 0 1 1.372-1.274 4.1 4.1 0 0 1 1.932-.462q.981 0 1.764.42.798.405 1.246 1.148t.448 1.694q0 .98-.518 1.806-.504.811-1.4 1.288a4.1 4.1 0 0 1-1.946.462m.77-.336q.799 0 1.246-.448.462-.462.462-1.344 0-.855-.448-1.89-.434-1.036-1.106-1.75-.657-.728-1.288-.728-.783 0-1.232.448t-.448 1.344q0 .84.434 1.89.435 1.036 1.092 1.764.672.714 1.288.714m8.672-6.496q.729 0 1.33.406.617.392.98 1.148.378.742.378 1.722 0 .925-.434 1.75-.42.811-1.162 1.302a2.8 2.8 0 0 1-1.596.49q-.531 0-.882-.14a3.5 3.5 0 0 1-.658-.35q-.21-.14-.28-.14-.126 0-.126.238v1.54q0 .742.196 1.036.21.307.63.336.07 0 .07.042 0 .056-.07.056a31 31 0 0 0-1.456-.028q-1.105 0-1.806.028-.07 0-.07-.056t.07-.056q.42.014.616-.294.21-.308.21-1.078v-5.936q0-.532-.14-.77-.126-.252-.49-.252-.07 0-.238.028-.055.014-.07-.028 0-.055.042-.07.659-.154 1.344-.406.7-.252 1.134-.546.07-.042.112-.028.057.014.042.084-.084.728-.098 1.232 0 .168.014.322.028.14.07.126.378-.756.938-1.232t1.4-.476M189.858 48q.897 0 1.288-.504.406-.504.406-1.47 0-.937-.322-1.806-.321-.868-.868-1.4-.532-.532-1.162-.532t-1.022.532q-.378.532-.378 1.428v.938q0 1.218.546 2.016.561.798 1.512.798m12.164-.098q.07 0 .07.056t-.07.056q-.21-.015-.868-.014h-1.666q-.657 0-.868.014-.07 0-.07-.056t.07-.056q.462 0 .672-.308.225-.307.224-1.05V43.17l-3.346 3.36v.014q0 .742.21 1.05.224.308.686.308.07 0 .07.056t-.07.056q-.223-.015-.868-.014h-1.666q-.657 0-.882.014-.07 0-.07-.056t.07-.056q.462 0 .686-.308.225-.307.224-1.05v-3.458q0-.742-.224-1.05-.224-.322-.686-.322-.07 0-.07-.056t.07-.056q.448.028.882.028h1.666q.42 0 .868-.028.07 0 .07.056t-.07.056q-.462 0-.686.322-.21.307-.21 1.05v3.262l3.346-3.36q-.013-.7-.238-.98-.21-.294-.658-.294-.07 0-.07-.056t.07-.056q.42.028.868.028h1.666q.448 0 .868-.028.07 0 .07.056t-.07.056q-.462 0-.686.322-.21.307-.21 1.05v3.458q0 .742.21 1.05.225.308.686.308m3.21-6.51q1.106 0 1.75.42.658.42.658 1.12 0 .602-.42.966t-1.064.448q.798.041 1.358.518.56.462.56 1.218 0 .98-.756 1.554t-2.044.574q-1.75 0-2.66-1.4-.029-.055 0-.07.042-.028.07.014.476.728 1.792.728.98 0 1.484-.35t.504-1.288q0-.714-.35-1.05-.35-.335-1.19-.35l-.476-.028q-.056 0-.056-.042t.042-.042l.448-.042q.77-.084 1.092-.406.336-.323.336-1.05 0-1.218-1.316-1.218-.84 0-1.358.616-.517.602-.84 1.848-.014.056-.07.042-.042-.015-.028-.07l.238-1.386q.055-.308.336-.602.28-.294.784-.476.504-.195 1.176-.196M90.716 33.228q.336-.392.84-1.008.53-.616.98-1.176a.56.56 0 0 1 .504-.084q.251.084.14.224-.84 1.26-1.232 2.24-.393.98-.392 1.372 0 .7.644.7.98 0 3.556-1.764.055-.056.252-.196.224-.14.308-.14t.084.112q0 .168-.42.448-3.472 2.325-4.648 2.324-.784 0-.784-.896 0-.28.056-.588a8 8 0 0 1 .168-.588q.111-.252.168-.42.084-.168.084-.14 0-.112-.084-.112-.196.224-.616.644-.421.42-.896.84-.477.42-.952.728-.477.28-.756.252-.336-.028-.42-.224-.084-.225 0-.532t.28-.672q.195-.364.42-.7.055-.084.196-.308.14-.252.252-.476.14-.224.196-.364t-.056-.056q-.03-.056-.224.168-.168.195-.476.532a13 13 0 0 1-.728.728q-.393.364-.896.672-.364.224-.756.476-.393.225-.784.42a5 5 0 0 1-.756.28 2 2 0 0 1-.728.084 2 2 0 0 1-.7-.168q-.336-.168-.336-.7 0-.308.168-.532.14-.224.308-.224.14 0 .224.14t.196.336q.111.168.252.308.14.14.392.14h.168q.224 0 1.092-.392 1.54-.728 2.576-1.792 1.064-1.065 1.904-2.156.42-.42.616-.42.083 0 .196.084.14.056.168.224.056.167-.084.476-.113.28-.476.728-.225.224-.532.672-.28.448-.588.952l-.532.952q-.224.448-.308.644.028.225.364.028.363-.195.812-.56a12 12 0 0 0 .924-.784q.447-.448.672-.756m14.478.644q0 .168-.42.448-3.444 2.324-4.648 2.324-.784 0-.784-.896 0-.504.197-1.008.28-.7.28-.728 0-.112-.085-.112a.5.5 0 0 0-.14.056q-.615.615-1.791 1.484-1.513 1.12-2.1 1.12-.673 0-.672-.672 0-.392.98-2.156.98-1.792.98-2.072 0-.308-.504-.308-.112 0-.112-.336.252-.084.531-.084.98 0 .98.56 0 .615-.867 2.072-.87 1.455-.869 1.82 0 .224.197.224.447 0 2.184-1.484 1.763-1.484 2.715-2.688.42-.42.616-.42.364 0 .364.364 0 .196-.196.504-1.68 2.52-1.68 3.276 0 .7.644.7.98 0 3.556-1.764.14-.113.392-.252.084-.084.168-.084t.084.112m.483 1.456q.225 0 1.092-.392a12 12 0 0 0 2.716-1.736q1.204-1.035 2.044-2.128.42-.42.616-.42.364 0 .364.364 0 .224-.196.504-1.68 2.52-1.68 3.276 0 .7.644.7.98 0 3.556-1.764.057-.056.252-.196.224-.14.308-.14t.084.112q0 .168-.42.448-3.472 2.325-4.648 2.324-.784 0-.784-.896 0-.28.056-.588a8 8 0 0 1 .168-.588q.113-.252.168-.42.084-.168.084-.14 0-.112-.084-.112-.14 0-.588.336-.42.336-1.4.896-.475.225-.868.448-.392.225-.756.42-.363.195-.7.308a1.8 1.8 0 0 1-.7.084 2 2 0 0 1-.7-.168q-.336-.168-.336-.7 0-.308.168-.532.14-.224.308-.224.14 0 .224.14t.196.336q.112.168.252.308t.392.14zm9.789 0q.225 0 1.092-.392a12 12 0 0 0 2.716-1.736q1.204-1.035 2.044-2.128.42-.42.616-.42.364 0 .364.364 0 .224-.196.504-1.68 2.52-1.68 3.276 0 .7.644.7.98 0 3.556-1.764.057-.056.252-.196.225-.14.308-.14.084 0 .084.112 0 .168-.42.448-3.471 2.325-4.648 2.324-.784 0-.784-.896 0-.28.056-.588a8 8 0 0 1 .168-.588q.112-.252.168-.42.084-.168.084-.14 0-.112-.084-.112-.14 0-.588.336-.42.336-1.4.896-.475.225-.868.448-.392.225-.756.42t-.7.308a1.8 1.8 0 0 1-.7.084 2 2 0 0 1-.7-.168q-.336-.168-.336-.7 0-.308.168-.532.14-.224.308-.224.14 0 .224.14t.196.336q.113.168.252.308.14.14.392.14zm18.357-1.456q0 .168-.42.448-3.444 2.324-4.648 2.324-.784 0-.784-.896 0-.504.196-1.008.28-.7.28-.728 0-.112-.084-.112a.5.5 0 0 0-.14.056q-.615.615-1.792 1.484-1.512 1.12-2.1 1.12-.672 0-.672-.672 0-.392.98-2.156.98-1.792.98-2.072 0-.308-.504-.308-.111 0-.112-.336.253-.084.532-.084.98 0 .98.56 0 .615-.868 2.072-.867 1.455-.868 1.82 0 .224.196.224.448 0 2.184-1.484 1.765-1.484 2.716-2.688.42-.42.616-.42.364 0 .364.364 0 .196-.196.504-1.68 2.52-1.68 3.276 0 .7.644.7.98 0 3.556-1.764.14-.113.392-.252.084-.084.168-.084t.084.112m7.595 0q0 .112-.28.336-1.232 1.035-2.492 1.036-.785 0-1.344-.42-1.288 1.68-2.8 1.68-1.12 0-1.12-1.4 0-1.82 1.792-3.668 1.512-1.54 2.212-1.54.448 0 .448.28 0 .083-.168.224-.672.14-1.82 1.428-1.4 1.567-1.4 3.024 0 .952.672.952.98 0 1.988-1.148-.532-.588-.532-1.456 0-1.007.504-1.736.448-.616.952-.616t.588.7q0 1.232-.868 2.66.476.532 1.288.532 1.092 0 2.128-.896.084-.084.168-.084t.084.112m-3.08-2.156q0-.28-.196-.28-.252 0-.532.448t-.28 1.148q0 .588.252.98.756-1.176.756-2.296m5.613 3.696a16 16 0 0 0-.224.308l-.28.336q-.112.195-.224.308-.112.14-.168.14-.364 0-.364-.392 0-.14.196-.56.336-.476.672-.924t.644-.924q.98-1.4.98-1.988 0-.252-.168-.252-.113 0-.336.112-.728.532-1.736 1.288-.98.756-2.324 1.736h-.196q-.196 0-.196-.056 0-.055.308-.28a178 178 0 0 1 4.34-3.332q.308-.28.868-.28t.56.504q0 .56-.812 1.792-.056.113-.14.224a.7.7 0 0 0-.14.196h.532q.308 0 .7-.028a6 6 0 0 1 1.148 0l.224-.392q.112-.195.252-.42.308-.476.588-.868.308-.392.616-.7.196-.252.616-.252.224.056.224.14l-.98 1.624q-.98 1.624-.98 2.352 0 .868.756.868.952 0 2.772-1.652.084-.084.168-.084t.084.112q0 .168-.56.56-.896.784-1.624 1.204-.728.392-1.372.392-1.26 0-1.26-1.064 0-.7.308-1.428a10 10 0 0 0-1.82.028 9 9 0 0 1-.504.028h-.168a21 21 0 0 0-.7 1.064q-.28.504-.28.56m20.374-2.184q.336-.392.84-1.008.532-.616.98-1.176a.56.56 0 0 1 .504-.084q.252.084.14.224-.84 1.26-1.232 2.24t-.392 1.372q0 .7.644.7.98 0 3.556-1.764.055-.056.252-.196.224-.14.308-.14t.084.112q0 .168-.42.448-3.472 2.325-4.648 2.324-.784 0-.784-.896 0-.28.056-.588a8 8 0 0 1 .168-.588q.112-.252.168-.42.084-.168.084-.14 0-.112-.084-.112-.196.224-.616.644t-.896.84-.952.728q-.476.28-.756.252-.336-.028-.42-.224-.084-.225 0-.532t.28-.672a9 9 0 0 1 .42-.7q.056-.084.196-.308.14-.252.252-.476.14-.224.196-.364t-.056-.056q-.028-.056-.224.168-.168.195-.476.532-.308.336-.728.728-.392.364-.896.672-.365.224-.756.476-.392.225-.784.42a5 5 0 0 1-.756.28 2 2 0 0 1-.728.084 2 2 0 0 1-.7-.168q-.336-.168-.336-.7 0-.308.168-.532.14-.224.308-.224.14 0 .224.14t.196.336q.112.168.252.308t.392.14h.168q.224 0 1.092-.392 1.54-.728 2.576-1.792a22 22 0 0 0 1.904-2.156q.42-.42.616-.42.084 0 .196.084.14.056.168.224.055.167-.084.476-.112.28-.476.728-.224.224-.532.672a97 97 0 0 0-.588.952l-.532.952q-.224.448-.308.644.028.225.364.028.364-.195.812-.56.475-.364.924-.784.448-.448.672-.756m11.987.644q0 .196-1.148.924-2.829 1.792-4.06 1.792-1.82 0-1.82-2.128 0-1.567 1.512-3.136 1.54-1.596 2.912-1.596.42 0 .42.392 0 .952-1.652 2.688-1.316 1.372-2.156 1.876.084 1.232 1.176 1.232 1.035 0 3.472-1.4.195-.113 1.092-.672.084-.084.168-.084t.084.112m-3.052-3.22q0-.336-.196-.336-.7 0-1.708 1.4t-1.036 2.52q.531-.168 1.68-1.456 1.26-1.4 1.26-2.128m9.082 3.22q0 .112-.42.448-1.12.727-2.212 1.456-1.596.952-2.604.952a1.47 1.47 0 0 1-1.036-.42q-.447-.42-.448-.952 0-1.848 1.792-3.388 1.597-1.372 2.968-1.372.868 0 .868.7 0 .392-1.148 1.54a.35.35 0 0 1-.252.112q-.224 0-.224-.252 0-.112.084-.168.084-.084.336-.616.252-.56.252-.84 0-.084-.196-.084-.7 0-2.044 1.148-1.623 1.372-1.624 2.828 0 1.065.924 1.064 1.428 0 4.34-1.932.14-.113.392-.252.084-.084.168-.084t.084.112m16.88 0q0 .168-.42.448-1.988 1.343-2.212 1.484-1.26.756-2.1.756-.476 0-.812-.336a1.16 1.16 0 0 1-.308-.812q0-1.4 1.792-4.004.14-.196.14-.252 0-.028-.028-.028-.112 0-.392.196l-3.472 2.604a96 96 0 0 1-2.38 1.96 2.4 2.4 0 0 1-.616.308q-.196 0-.196-.28 0-.56.924-1.792.952-1.26.952-1.764 0-.476-.448-.476-.672 0-2.688 1.82a32 32 0 0 0-2.408 2.38q-.392.42-.616.42-.364 0-.364-.392 0-.112.196-.56.672-.924 1.316-1.848.98-1.4.98-1.988 0-.252-.168-.252-.084 0-.336.112l-4.06 3.024h-.196q-.196 0-.196-.056 0-.084.308-.28a267 267 0 0 1 4.34-3.332q.336-.28.868-.28.56 0 .56.504 0 .113-.056.336-.56.98-1.428 2.492-.112.196-.112.252 0 .028.056.028l.084-.028 2.072-1.792q1.596-1.344 2.296-1.344.924 0 .924.588 0 .504-.56 1.54-.532 1.008-.532 1.092t.056.084q.112 0 .392-.196l5.824-4.396a.93.93 0 0 1 .588-.224q.196 0 .28.084.084.056.084.224a.52.52 0 0 1-.112.336q-.784 1.12-1.596 2.268-.952 1.455-.952 2.52 0 .672.728.644.868-.028 1.96-.7l1.792-1.12q.084-.084.168-.084t.084.112"/></svg>