<svg xmlns="http://www.w3.org/2000/svg" width="210" height="75" fill="none" viewBox="0 0 210 75"><g fill="#f5cdcb" clip-path="url(#a)"><path d="M56.14 39.348a7.8 7.8 0 0 1-.997-1.793c-1.575-4.387.849-15.026 2.378-19.602C59.57 11.851 63.004 6.22 64.611 0c.772.437 1.66 0 2.301.15s1.368.704 2.12.821c2.91.444 8.477-.723 9.268 3.292l-3.889.652c1.147.072 2.262.241 3.416.34.505.045 1.296-.346 1.14.475-2.663 1.454-8.704.196-11.406-.978-1.057-.456-1.368-1.303-2.113-1.805-.33-.216-.253-.528-.648 0-1.893 6.186-4.634 12.105-6.132 18.422-.816 3.435-2.683 12.692-2.164 15.821.395 2.354 4.232 4.466 6.37 4.746 5.296.691 7.824-2.647 9.502-7.105 3.325-8.782 4.31-18.749 5.917-27.94.415 0 .875-.118 1.154.319.531.847-2.69 17.431-3.273 19.68-.881 3.39-2.936 10.287-5.185 12.79-1.413 1.552-3.318 2.093-5.055 3.11 3.299 1.024 7.855 3.26 8.82 6.884.966 3.625-4.102 3.638-6.48 2.888-2.677-.841-4.103-3.422-6.248-5.02.058 3.214 1.419 7.223 3.752 9.505 1.945 1.89 3.565 2.151 6.19 1.956.648-.046 1.665-.58 1.944-.541 1.296.156.48 1.303-.376 1.805-5.67 3.397-11.063-3.592-12.269-8.546l-.881-3.533-2.943 13.103c4.991.984 14.304 7.034 7.13 11.949-5.237 3.605-17.5 1.408-20.909-4.498-2.592-4.524-1.296-9.029 4.233-9.661 1.555-.183 5.36.86 6.48-.046.552-.45 2.23-8.794 2.736-10.195l-4.064 3.944c-3.57 2.444-7.285 3.18-11.264 1.153-.966-.495-3.604-2.294-3.24-3.585.53-1.858 3.92 1.884 5.068 2.386 3 1.304 5.703.443 8.496-.887 1.465-.697 4.758-3.26 5.658-4.563.32-.65.538-1.344.649-2.06-1.55.58-2.833 1.656-4.343 2.353-2.962 1.363-7.998 3.631-9.566-.651-.927-2.53.415-4.733 2.593-6.03a26.3 26.3 0 0 1 4.303-1.571zM67.549 2.295c-.24-.528-.72-1.082-1.297-.972.227.535.707 1.07 1.297.972M47.456 43.064c-.836.893-1.711 3.56-.428 4.302 2.269 1.304 11.86-2.94 11.977-4.243.201-2.36-6.02-1.135-7.252-.809-1.231.326-4.79 2.543-2.787 0-.233-.215-1.316.541-1.51.75m10.636 10.704c.265-2.562 1.672-5.117 2.08-7.608.09-.56.344-.808-.285-1.238-.648 2.516-1.64 5.215-2.035 7.783-.059.352-.35 1.141.24 1.063m7.174-5.215c.648 1.956 7.454 4.413 8.121 2.418.953-2.829-7.881-5.775-10.078-5.365l3.24 2.784zM54.507 60.026c-2.378.606-5.502.065-7.602 1.37-2.1 1.303-2.463 2.333-1.517 4.53l.966-2.295c-1.05 5.658 7.538 7.132 11.575 6.877.649-.039 3.74-1.206 3.423.17-4.18 2.373-9.294.652-13.196-1.473-.09.469.804 1.2 1.134 1.48 3.02 2.529 11.854 3.494 15.108 1.42 4.666-2.985-.713-6.48-3.688-7.992-.882-.443-4.031-1.42-4.252-1.623a1.48 1.48 0 0 1-.324-1.154h-.317c-.298 1.643-2.476.248-1.31-1.336z"/><path d="M74.405 21.95c-.181.156-1.912-.594-2.269-.835-.803-.541-1.561-2.1-1.944-2.288-.382-.19-2.1.893-3.033.769-1.64-.215-2.813-2.569-3.733-2.836s-1.608.482-2.372.11c2.56-3.317 4.608.861 5.748 1.083.875.17 2.366-1.304 4.045-.782.473.15 3.597 3.448 3.74 3.794-.002.336-.063.67-.182.984M66.239 35.41c.382 1.422-1.796 2.295-2.275 1.148-.48-1.147 1.53-.92 2.275-1.147m-4.725-1.526c2.825-.612 1.594 1.923.155 1.363-.564-.222-.972-1.18-.155-1.363m10.298-10.273c.74.73-1.114 1.76-1.944 1.303-.311-.932 1.543-1.662 1.944-1.303m-3.94 10.162c-.22-.202-.071-1.955 1.14-1.636 1.09.28-.44 2.243-1.14 1.636m-6.352-7.535c1.109-.3 1.498 1.069.649 1.303-1.115.274-1.504-1.075-.648-1.304m9.28.979.33 1.636h-1.295c-.091-.789-.046-1.689.965-1.637m-10.104 2.621c.233.202.434 1.63-.162 1.636s-.726-2.353.162-1.636M76.35 12.823c.174.176-.357 1.799-.973 1.303-.324-.651.577-1.72.972-1.303M64.936 28.86c.11.117.207 1.225-.48.977-1.004-.365.162-1.323.48-.978m8.147-15.743h-.648v.978h.648z"/></g><path fill="#000" d="M49.196 24.392q1.105 0 1.75.42.658.42.658 1.12 0 .601-.42.966-.42.364-1.064.448.798.041 1.358.518.56.462.56 1.218 0 .98-.756 1.554t-2.044.574q-1.75 0-2.66-1.4-.028-.055 0-.07.042-.028.07.014.476.728 1.792.728.98 0 1.484-.35t.504-1.288q0-.714-.35-1.05-.35-.335-1.19-.35l-.476-.028q-.056 0-.056-.042t.042-.042l.448-.042q.77-.084 1.092-.406.336-.323.336-1.05 0-1.218-1.316-1.218-.84 0-1.358.616-.517.602-.84 1.848-.015.055-.07.042-.042-.015-.028-.07l.238-1.386q.056-.308.336-.602t.784-.476q.504-.195 1.176-.196m10.609 4.214q0-.07.042-.07t.042.07q0 1.065-.462 1.82-.448.756-1.176.756-.532 0-.896-.35-.364-.364-.406-1.078-.336.7-.896 1.078a2.07 2.07 0 0 1-1.204.378q-1.106 0-1.638-.616a2.2 2.2 0 0 1-.532-1.456q0-.812.728-1.302.742-.49 1.848-.49.378 0 .84.07.476.07.854.182v-.616q0-2.156-1.876-2.156-.77 0-1.316.504-.532.504-.532 1.512 0 .056-.028.084t-.056.028q-.056 0-.056-.112 0-.784.392-1.33a2.45 2.45 0 0 1 1.008-.84 3.1 3.1 0 0 1 1.302-.28q2.772 0 2.772 2.59v2.296q0 .924.476.924.462 0 .602-.406.14-.42.168-1.19m-4.228 1.806q1.372 0 1.372-1.666v-.084a1.45 1.45 0 0 0-.588-.798 1.6 1.6 0 0 0-.952-.308q-1.386 0-1.386 1.064 0 .714.406 1.26.405.532 1.148.532m4.322.588q-.07 0-.07-.056t.07-.056q.477.014.686-.294.224-.307.224-1.05v-3.458q0-.742-.224-1.05-.21-.308-.672-.308-.07 0-.07-.056t.07-.056q.42.028.868.028 1.764-.042 3.206-.042 1.107 0 1.722.378.616.364.616 1.134 0 .504-.434.91-.42.392-1.05.462.813.042 1.358.476t.546 1.19q0 .882-.7 1.386-.686.504-1.904.504l-3.36-.056zm3.738-3.584q.714-.084 1.022-.378.309-.308.308-.938 0-.686-.364-1.022-.35-.335-.896-.35l-.994-.042h-.042q-.14 0-.182.07a.5.5 0 0 0-.042.252v5.516q0 .252.07.35.084.084.308.084l.882-.014q.714 0 1.106-.406.406-.42.406-1.232 0-.825-.364-1.26-.35-.448-1.176-.476l-.476-.014q-.056 0-.056-.042t.042-.056zm10.207-.378q.014.056-.028.056t-.056-.056q-.519-1.945-1.148-2.17-.126-.098-.98-.098-.084 0-.14.098a.4.4 0 0 0-.056.224v4.452q0 .743.21 1.05.225.308.686.308.07 0 .07.056t-.07.056q-.21-.014-.868-.014h-1.666q-.658 0-.868.014-.07 0-.07-.056t.07-.056q.462 0 .672-.308.225-.307.224-1.05v-4.452a.4.4 0 0 0-.056-.224q-.056-.098-.14-.098-.855 0-.98.098-.63.225-1.148 2.17-.014.056-.056.056t-.028-.056q.168-1.245.168-2.282 0-.224.182-.224.084 0 .476.056.406.056 1.582.056h1.61q1.134 0 1.554-.056t.518-.056q.168 0 .168.224 0 1.035.168 2.282m5.597-2.646q.728 0 1.33.406.615.392.98 1.148.378.742.378 1.722 0 .925-.434 1.75-.42.812-1.162 1.302a2.8 2.8 0 0 1-1.596.49q-.532 0-.882-.14a3.4 3.4 0 0 1-.658-.35q-.21-.14-.28-.14-.126 0-.126.238v1.54q0 .742.196 1.036.21.307.63.336.07 0 .07.042 0 .056-.07.056a31 31 0 0 0-1.456-.028q-1.106 0-1.806.028-.07 0-.07-.056t.07-.056q.42.014.616-.294.21-.308.21-1.078v-5.936q0-.532-.14-.77-.126-.252-.49-.252-.07 0-.238.028-.055.014-.07-.028 0-.055.042-.07.659-.154 1.344-.406.7-.252 1.134-.546.07-.042.112-.028.056.014.042.084a15 15 0 0 0-.098 1.232q0 .168.014.322.028.14.07.126.378-.756.938-1.232t1.4-.476M79.049 31q.896 0 1.288-.504.405-.504.406-1.47a5.2 5.2 0 0 0-.322-1.806q-.322-.868-.868-1.4-.532-.532-1.162-.532t-1.022.532q-.378.532-.378 1.428v.938q0 1.218.546 2.016.56.798 1.512.798m10.848-2.394q0-.07.042-.07t.042.07q0 1.065-.462 1.82-.448.756-1.176.756-.533 0-.896-.35-.364-.364-.406-1.078-.336.7-.896 1.078a2.07 2.07 0 0 1-1.204.378q-1.107 0-1.638-.616a2.2 2.2 0 0 1-.532-1.456q0-.812.728-1.302.741-.49 1.848-.49.378 0 .84.07.476.07.854.182v-.616q0-2.156-1.876-2.156-.77 0-1.316.504-.532.504-.532 1.512 0 .056-.028.084-.029.028-.056.028-.056 0-.056-.112 0-.784.392-1.33a2.45 2.45 0 0 1 1.008-.84 3.1 3.1 0 0 1 1.302-.28q2.772 0 2.772 2.59v2.296q0 .924.476.924.462 0 .602-.406.14-.42.168-1.19m-4.228 1.806q1.371 0 1.372-1.666v-.084a1.45 1.45 0 0 0-.588-.798 1.6 1.6 0 0 0-.952-.308q-1.386 0-1.386 1.064 0 .714.406 1.26.405.532 1.148.532m11.84.518q.07 0 .07.056 0 .042-.07.042Q97.118 31 95.591 31q-.378 0-.546-.14a.7.7 0 0 1-.21-.35l-.434-1.218q-.21-.615-.406-.938a1.2 1.2 0 0 0-.518-.49q-.308-.154-.84-.154h-.126v1.834q0 .743.21 1.05.225.308.686.308.07 0 .07.056t-.07.056Q93.197 31 92.54 31h-1.666q-.658 0-.882.014-.07 0-.07-.056t.07-.056q.462 0 .686-.308.225-.307.224-1.05v-3.458q0-.742-.224-1.05-.225-.308-.686-.308-.07 0-.07-.056t.07-.056l.882.014h1.666l.868-.014q.07 0 .07.056t-.07.056q-.462 0-.686.308-.21.307-.21 1.05v1.54h.126q.995 0 1.512-.308.519-.323.938-1.092l.14-.266q.238-.435.238-.742 0-.504-.672-.504-.07 0-.07-.056t.07-.056l.868.014h.336l.868-.014q.07 0 .07.056t-.07.056a1 1 0 0 0-.714.266q-.28.252-.7.952l-.21.364q-.35.588-.756.91-.392.307-.98.42 1.065.014 1.666.378.602.35.98 1.232l.21.504q.294.686.518.938.225.238.63.252m8.88-.028q.07 0 .07.056t-.07.056q-.21-.014-.868-.014h-1.666q-.658 0-.868.014-.07 0-.07-.056t.07-.056q.462 0 .672-.308.224-.307.224-1.05V26.17l-3.346 3.36v.014q0 .743.21 1.05.224.308.686.308.07 0 .07.056t-.07.056q-.225-.014-.868-.014H98.9q-.659 0-.883.014-.07 0-.07-.056t.07-.056q.462 0 .686-.308.225-.307.225-1.05v-3.458q0-.742-.225-1.05-.223-.322-.686-.322-.07 0-.07-.056t.07-.056q.45.028.882.028h1.667q.42 0 .868-.028.07 0 .07.056t-.07.056q-.462 0-.686.322-.21.307-.21 1.05v3.262l3.346-3.36q-.015-.7-.238-.98-.21-.294-.658-.294-.07 0-.07-.056t.07-.056q.42.028.868.028h1.666q.447 0 .868-.028.07 0 .07.056t-.07.056q-.462 0-.686.322-.21.307-.21 1.05v3.458q0 .743.21 1.05.224.308.686.308m12.291 0q.07 0 .07.056t-.07.056q-.21-.014-.868-.014h-1.666q-.658 0-.868.014-.07 0-.07-.056t.07-.056q.462 0 .672-.308.224-.307.224-1.05V26.17l-3.346 3.36v.014q0 .743.21 1.05.224.308.686.308.07 0 .07.056t-.07.056Q113.5 31 112.857 31h-1.666q-.658 0-.882.014-.07 0-.07-.056t.07-.056q.462 0 .686-.308.224-.307.224-1.05v-3.458q0-.742-.224-1.05-.225-.322-.686-.322-.07 0-.07-.056t.07-.056q.447.028.882.028h1.666q.42 0 .868-.028.07 0 .07.056t-.07.056q-.462 0-.686.322-.21.307-.21 1.05v3.262l3.346-3.36q-.015-.7-.238-.98-.21-.294-.658-.294-.07 0-.07-.056t.07-.056q.42.028.868.028h1.666q.447 0 .868-.028.07 0 .07.056t-.07.056q-.462 0-.686.322-.21.307-.21 1.05v3.458q0 .743.21 1.05.224.308.686.308m7.251.322a3.75 3.75 0 0 1-1.75-.406 3.13 3.13 0 0 1-1.218-1.176q-.435-.756-.434-1.722 0-.98.504-1.778a3.54 3.54 0 0 1 1.372-1.274 4.1 4.1 0 0 1 1.932-.462q.98 0 1.764.42.798.405 1.246 1.148t.448 1.694q0 .98-.518 1.806-.504.811-1.4 1.288a4.1 4.1 0 0 1-1.946.462m.77-.336q.798 0 1.246-.448.462-.462.462-1.344 0-.855-.448-1.89-.435-1.036-1.106-1.75-.658-.728-1.288-.728-.785 0-1.232.448-.448.448-.448 1.344 0 .84.434 1.89.434 1.036 1.092 1.764.672.714 1.288.714m7.818-6.188q.993 0 1.778.42.798.406 1.246 1.12.462.714.462 1.624 0 .924-.518 1.694-.504.77-1.4 1.218a4.24 4.24 0 0 1-1.946.448 3.85 3.85 0 0 1-1.722-.378 2.97 2.97 0 0 1-1.68-2.632V27.5q0-1.793.588-3.024t1.526-1.876q.951-.644 2.058-.784a16 16 0 0 0 1.512-.266q.504-.14.658-.28a.48.48 0 0 0 .168-.364q0-.07.042-.07.055 0 .07.07.027.224.028.35 0 .686-.462 1.232-.448.532-1.596.728-.7.126-1.582.238-.84.112-1.218.196-.364.084-.616.28-.294.195-.434.602t-.14 1.12q0 .378.014.602a3.7 3.7 0 0 1 1.358-1.134q.84-.42 1.806-.42m.35 6.216q.84 0 1.288-.462.462-.462.462-1.386 0-.784-.42-1.75a5.2 5.2 0 0 0-1.064-1.638q-.644-.686-1.316-.686-.812 0-1.274.462-.448.448-.448 1.386 0 .77.406 1.75.42.966 1.064 1.652.644.672 1.302.672m10.061-1.162q.015-.015.042.014.042.028.014.07a3.6 3.6 0 0 1-1.316 1.022q-.77.35-1.61.35a3.4 3.4 0 0 1-1.638-.406 3.1 3.1 0 0 1-1.204-1.148q-.434-.756-.434-1.736 0-.966.476-1.778a3.5 3.5 0 0 1 1.316-1.274 3.56 3.56 0 0 1 1.806-.476q1.092 0 1.82.602.728.588.728 1.61 0 .462-.168.994-1.47.028-4.508.126.239.77.728 1.386.504.602 1.148.952.645.336 1.26.336 1.023 0 1.54-.644m-3.234-5.096q-.784 0-1.204.49-.406.476-.406 1.442 0 .476.14 1.036.798-.015 1.876-.07l.574-.028q.309-.014.616-.014a1 1 0 0 0 .126-.518q0-.462-.266-1.008a2.9 2.9 0 0 0-.658-.938q-.391-.392-.798-.392m11.077-.084q.084 0 .084.056 0 .042-.084.056-.489.015-.756.35-.252.322-.252 1.092v4.774h.784q.099 0 .098.098l.028.49.084 1.064q.015.084-.042.084-.042 0-.056-.07-.153-.812-.518-1.19-.35-.378-1.05-.378h-3.948q-.7 0-1.064.378-.35.378-.504 1.19-.013.07-.07.07-.042 0-.028-.084.084-.728.084-1.064l.028-.49q0-.098.098-.098h.434q.49 0 .742-1.554.267-1.554.336-3.598-.056-.574-.308-.812-.251-.238-.686-.252-.084-.014-.084-.056.015-.056.084-.056.588.042.812.042h4.942q.267 0 .812-.042m-2.618 6.328v-6.188h-2.842q0 2.002-.238 3.906-.223 1.89-.7 2.282zm12.937 0q.07 0 .07.056t-.07.056q-.223-.014-.868-.014h-1.666q-.657 0-.882.014-.056 0-.056-.056t.056-.056q.476 0 .686-.308.224-.307.224-1.05V26.03q0-.742-.224-1.05-.21-.308-.686-.308-.056 0-.056-.056t.056-.056l.882.014h1.666l.868-.014q.07 0 .07.056t-.07.056q-.461 0-.686.308-.21.307-.21 1.05v3.514q0 .743.21 1.05.224.308.686.308m-6.188-3.556q2.87-.042 2.87 1.75 0 .924-.672 1.414T157.1 31h-2.94q-.657 0-.882.014-.07 0-.07-.056t.07-.056q.462 0 .686-.308.224-.307.224-1.05v-3.472q0-.743-.224-1.05t-.686-.308q-.07 0-.07-.056t.07-.056l.882.014h1.666l.868-.014q.07 0 .07.056t-.07.056q-.461 0-.686.308-.21.307-.21 1.05v1.134q0 .154.126.154zm-.224 3.542q.673-.015 1.036-.49.378-.476.378-1.274 0-.784-.378-1.218-.378-.448-1.092-.434l-.7.014q-.126 0-.126.154v2.884q0 .224.056.308.056.07.224.07zM71.703 41.872q0 .168-.42.448-3.444 2.324-4.648 2.324-.784 0-.784-.896 0-.504.196-1.008.28-.7.28-.728 0-.112-.084-.112a.5.5 0 0 0-.14.056q-.615.615-1.792 1.484-1.512 1.12-2.1 1.12-.672 0-.672-.672 0-.392.98-2.156.98-1.792.98-2.072 0-.308-.504-.308-.111 0-.112-.336.252-.084.532-.084.98 0 .98.56 0 .615-.868 2.072-.867 1.455-.868 1.82 0 .224.196.224.449 0 2.184-1.484 1.764-1.484 2.716-2.688.42-.42.616-.42.364 0 .364.364 0 .196-.196.504-1.68 2.52-1.68 3.276 0 .7.644.7.98 0 3.556-1.764.14-.113.392-.252.084-.084.168-.084t.084.112m7.651 0q0 .14-.42.448l-3.864 2.856q-.056 2.155-2.016 5.74-1.82 3.36-4.172 5.936-2.492 2.716-3.92 2.688-.476 0-.812-.336a1.14 1.14 0 0 1-.336-.84q0-2.072 2.52-5.46 1.932-2.52 4.788-5.236 2.52-2.352 2.856-2.352a.6.6 0 0 0-.084-.308q-.392-.7-1.092-.7-.28 0-.616.112-.672.224-.812.224-.084 0-.112-.112 0-.28.56-.504.896-.392 2.156-1.484 1.484-1.316 1.484-2.128 0-.476-.448-.476-.391 0-1.708.896l-2.072 1.512q-.084.084-.168.084-.056 0-.056-.308.084-.056 1.008-.756.924-.728 1.876-1.484.98-.784 1.764-.784 1.008 0 1.008 1.064 0 1.288-3.304 3.444-.195.195-.196.28 0 .112.196.112 1.232 0 1.624.728.644-.364 2.044-1.484 1.289-1.008 2.072-1.4.084-.084.168-.084t.084.112m-5.236 4.032q0-.112-.028-.112-.615 0-2.94 2.352-2.464 2.464-4.256 5.068-2.156 3.165-2.156 4.928 0 .645.42.644.84 0 3.08-2.436a31 31 0 0 0 3.92-5.208q1.96-3.247 1.96-5.236m21.288-4.032q-.17.476-2.044 1.428-1.876.952-2.772.952-.477 0-.477-.336 0-.448.924-1.792.953-1.344.953-1.764 0-.476-.448-.476-.672 0-2.689 1.82a32 32 0 0 0-2.407 2.38q-.392.42-.617.42-.363 0-.363-.392 0-.112.196-.56.67-.924 1.316-1.848.98-1.4.98-1.988 0-.252-.168-.252-.084 0-.337.112l-4.06 3.024h-.195q-.197 0-.197-.056 0-.084.308-.28a267 267 0 0 1 4.34-3.332q.337-.28.868-.28.56 0 .56.504 0 .589-.811 1.792-.785 1.176-.785 1.288.001.028.056.028-.027 0 1.876-1.568Q91.319 39.1 91.99 39.1q1.035 0 1.035.7 0 .616-.896 2.016-.895 1.4-.895 1.596 0 .224.28.224.53 0 2.044-.812a21 21 0 0 0 1.595-.98q.084-.084.168-.084t.085.112m9.055 0q0 .168-.42.448-3.444 2.324-4.648 2.324-.784 0-.784-.896 0-.504.196-1.008.28-.7.28-.728 0-.112-.084-.112a.5.5 0 0 0-.14.056q-.615.615-1.792 1.484-1.512 1.12-2.1 1.12-.672 0-.672-.672 0-.392.98-2.156.98-1.792.98-2.072 0-.308-.504-.308-.112 0-.112-.336.252-.084.532-.084.98 0 .98.56 0 .615-.868 2.072-.868 1.455-.868 1.82 0 .224.196.224.448 0 2.184-1.484 1.764-1.484 2.716-2.688.42-.42.616-.42.364 0 .364.364 0 .196-.196.504-1.68 2.52-1.68 3.276 0 .7.644.7.98 0 3.556-1.764a3 3 0 0 1 .392-.252q.084-.084.168-.084t.084.112m2.499 1.54a16 16 0 0 0-.224.308l-.28.336q-.112.195-.224.308-.112.14-.168.14-.364 0-.364-.392 0-.14.196-.56.336-.476.672-.924t.644-.924q.98-1.4.98-1.988 0-.252-.168-.252-.112 0-.336.112-.728.532-1.736 1.288-.98.756-2.324 1.736h-.196q-.196 0-.196-.056 0-.055.308-.28a178 178 0 0 1 4.34-3.332q.308-.28.868-.28t.56.504q0 .56-.812 1.792-.056.113-.14.224a.7.7 0 0 0-.14.196h.532q.308 0 .7-.028a6 6 0 0 1 1.148 0l.224-.392q.112-.195.252-.42.308-.476.588-.868.308-.392.616-.7.196-.252.616-.252.224.056.224.14l-.98 1.624q-.98 1.624-.98 2.352 0 .868.756.868.953 0 2.772-1.652.084-.084.168-.084t.084.112q0 .168-.56.56-.896.784-1.624 1.204-.728.392-1.372.392-1.26 0-1.26-1.064 0-.7.308-1.428a10 10 0 0 0-1.82.028 9 9 0 0 1-.504.028h-.168a21 21 0 0 0-.7 1.064q-.28.504-.28.56m25.083-1.54q0 .168-.42.448a166 166 0 0 1-2.212 1.484q-1.26.756-2.1.756-.476 0-.812-.336a1.16 1.16 0 0 1-.308-.812q0-1.4 1.792-4.004.14-.196.14-.252 0-.028-.028-.028-.111 0-.392.196l-3.472 2.604a94 94 0 0 1-2.38 1.96 2.3 2.3 0 0 1-.616.308q-.195 0-.196-.28 0-.56.924-1.792.952-1.26.952-1.764 0-.476-.448-.476-.672 0-2.688 1.82a33 33 0 0 0-2.408 2.38q-.391.42-.616.42-.363 0-.364-.392 0-.112.196-.56.672-.924 1.316-1.848.98-1.4.98-1.988 0-.252-.168-.252-.084 0-.336.112l-4.06 3.024h-.196q-.195 0-.196-.056 0-.084.308-.28a272 272 0 0 1 4.34-3.332q.337-.28.868-.28.56 0 .56.504 0 .113-.056.336-.56.98-1.428 2.492-.112.196-.112.252 0 .028.056.028l.084-.028 2.072-1.792q1.596-1.344 2.296-1.344.924 0 .924.588 0 .504-.56 1.54-.532 1.008-.532 1.092t.056.084q.113 0 .392-.196l5.824-4.396a.93.93 0 0 1 .588-.224q.196 0 .28.084.084.056.084.224a.52.52 0 0 1-.112.336 454 454 0 0 1-1.596 2.268q-.952 1.455-.952 2.52 0 .672.728.644.868-.028 1.96-.7l1.792-1.12q.084-.084.168-.084t.084.112m6.567 0q0 .196-1.148.924-2.829 1.792-4.06 1.792-1.82 0-1.82-2.128 0-1.567 1.512-3.136 1.54-1.596 2.912-1.596.42 0 .42.392 0 .952-1.652 2.688-1.316 1.372-2.156 1.876.084 1.232 1.176 1.232 1.035 0 3.472-1.4.195-.113 1.092-.672.084-.084.168-.084t.084.112m-3.052-3.22q0-.336-.196-.336-.7 0-1.708 1.4t-1.036 2.52q.531-.168 1.68-1.456 1.26-1.4 1.26-2.128m11.21 3.22q0 .392-2.016 1.456t-4.9 1.064q-1.651 0-1.792-.336 0-.196.308-.196.42.084.532.084 1.429 0 3.052-1.456 1.54-1.373 1.54-2.352 0-.42-.532-.42-2.632 0-5.74 4.984-.252.392-3.052 5.936-2.828 5.573-2.996 5.964-.195.476-.504.476a.4.4 0 0 1-.168-.028q-.168-.056-.168-.336 0-1.008 12.6-23.52.225-.392.42-.392.028 0 .112.056t.084.224q0 .308-.168.476-.027.084-2.296 4.144-2.156 3.92-2.156 4.172 0 .028.028.056a1.3 1.3 0 0 1 .196-.224q.672-.812 1.848-1.652 1.568-1.065 2.744-1.064.868 0 .868.672 0 2.044-3.276 4.004 2.493 0 5.18-1.82.084-.084.168-.084t.084.112m6.635 0q0 .196-1.148.924-2.829 1.792-4.06 1.792-1.82 0-1.82-2.128 0-1.567 1.512-3.136 1.54-1.596 2.912-1.596.42 0 .42.392 0 .952-1.652 2.688-1.316 1.372-2.156 1.876.084 1.232 1.176 1.232 1.036 0 3.472-1.4.195-.113 1.092-.672.084-.084.168-.084t.084.112m-3.052-3.22q0-.336-.196-.336-.7 0-1.708 1.4t-1.036 2.52q.531-.168 1.68-1.456 1.26-1.4 1.26-2.128m9.082 3.22q0 .112-.42.448-1.12.727-2.212 1.456-1.596.952-2.604.952a1.47 1.47 0 0 1-1.036-.42q-.448-.42-.448-.952 0-1.848 1.792-3.388 1.596-1.372 2.968-1.372.868 0 .868.7 0 .392-1.148 1.54a.35.35 0 0 1-.252.112q-.224 0-.224-.252 0-.112.084-.168.084-.084.336-.616.252-.56.252-.84 0-.084-.196-.084-.7 0-2.044 1.148-1.624 1.372-1.624 2.828 0 1.065.924 1.064 1.428 0 4.34-1.932a3 3 0 0 1 .392-.252q.084-.084.168-.084t.084.112m16.88 0q0 .168-.42.448-1.989 1.343-2.212 1.484-1.26.756-2.1.756-.476 0-.812-.336a1.16 1.16 0 0 1-.308-.812q0-1.4 1.792-4.004.14-.196.14-.252 0-.028-.028-.028-.113 0-.392.196l-3.472 2.604a98 98 0 0 1-2.38 1.96q-.225.168-.616.308-.196 0-.196-.28 0-.56.924-1.792.952-1.26.952-1.764 0-.476-.448-.476-.672 0-2.688 1.82a32 32 0 0 0-2.408 2.38q-.393.42-.616.42-.364 0-.364-.392 0-.112.196-.56.672-.924 1.316-1.848.98-1.4.98-1.988 0-.252-.168-.252-.084 0-.336.112l-4.06 3.024h-.196q-.196 0-.196-.056 0-.084.308-.28a263 263 0 0 1 4.34-3.332q.336-.28.868-.28.56 0 .56.504 0 .113-.056.336l-1.428 2.492q-.112.196-.112.252 0 .028.056.028l.084-.028 2.072-1.792q1.596-1.344 2.296-1.344.924 0 .924.588 0 .504-.56 1.54-.532 1.008-.532 1.092t.056.084q.111 0 .392-.196l5.824-4.396a.93.93 0 0 1 .588-.224q.195 0 .28.084.084.056.084.224 0 .196-.112.336-.785 1.12-1.596 2.268-.952 1.455-.952 2.52 0 .672.728.644.868-.028 1.96-.7l1.792-1.12q.084-.084.168-.084t.084.112m8.722 0q0 .336-1.736 1.288-1.82 1.008-2.604 1.008-1.456 0-1.456-1.54 0-.42.448-.952 0-.028-.028-.028.029 0-1.512 1.176-1.54 1.148-2.212 1.148-.644 0-.644-.532 0-1.288 2.156-2.996 2.044-1.652 3.192-1.652a.8.8 0 0 1 .364.196q.224.14.224.224 0 .028-.028.056-1.568 0-4.004 2.436-.784.784-.784 1.316 0 .195.196.196.617 0 2.352-1.428 1.4-1.176 1.988-1.876.28-.336.392-.336.28 0 .28.392 0 .14-.364.644-1.203 1.652-1.204 2.1 0 .784.868.784 1.428 0 3.864-1.652.084-.084.168-.084t.084.112"/><defs><clipPath id="a"><path fill="#fff" d="M38.519 0h41v75h-41z"/></clipPath></defs></svg>