<svg xmlns="http://www.w3.org/2000/svg" width="334" height="86" fill="none" viewBox="0 0 334 86"><path fill="#f5cdcb" d="M47.9 32.076q-.793.264-1.54.44a5.5 5.5 0 0 1-1.32.176q-.573 0-1.013-.22-.396-.22-.528-.792-.132-.44.264-1.1.44-.704 1.1-1.452t1.364-1.496q.748-.792 1.276-1.408.572-.66.792-1.056.264-.44-.132-.528-.22-.264-.924.176-.66.44-1.584 1.188t-1.98 1.584q-1.012.835-1.892 1.32h-.044q-.088 0-.176-.176a1.2 1.2 0 0 1-.044-.264 30 30 0 0 0 2.2-1.628q1.144-.924 2.156-1.76a54 54 0 0 1 1.848-1.408q.792-.572 1.188-.572.527-.088.836.308.352.352.44.66.132.749-.528 1.584-.615.836-2.068 2.156-.748.66-1.364 1.452-.616.748-.88 1.364-.264.572-.044.924.22.308 1.144.132.924 0 1.672-.176.748-.22 1.496-.572a25 25 0 0 0 1.672-.924 72 72 0 0 1 2.156-1.276.5.5 0 0 0 .132-.088q.044-.044.132-.044.044 0 .044.308 0 .264-.22.308-.968.66-1.584 1.056t-1.188.66q-.528.264-1.188.528-.615.22-1.672.616m17.794-3.388q0 .175-.44.528-1.936 1.628-3.916 1.628-1.232 0-2.112-.66-2.024 2.64-4.4 2.64-1.76 0-1.76-2.2 0-2.86 2.816-5.764 2.376-2.42 3.476-2.42.704 0 .704.44 0 .132-.264.352-1.056.22-2.86 2.244-2.2 2.465-2.2 4.752 0 1.496 1.056 1.496 1.54 0 3.124-1.804-.836-.924-.836-2.288 0-1.584.792-2.728.704-.968 1.496-.968t.924 1.1q0 1.936-1.364 4.18.749.836 2.024.836 1.716 0 3.344-1.408.132-.132.264-.132t.132.176m-4.84-3.388q0-.44-.308-.44-.395 0-.836.704t-.44 1.804q0 .925.396 1.54 1.188-1.848 1.188-3.608m31.437 3.388q0 .263-.66.704-3.125 2.112-3.476 2.332-1.98 1.188-3.3 1.188-.749 0-1.276-.528a1.82 1.82 0 0 1-.484-1.276q0-2.2 2.816-6.292.22-.308.22-.396 0-.045-.044-.044-.177 0-.616.308l-5.456 4.092q-1.277 1.1-3.74 3.08-.353.264-.968.484-.309 0-.308-.44 0-.88 1.452-2.816 1.496-1.98 1.496-2.772 0-.748-.704-.748-1.056 0-4.224 2.86a51 51 0 0 0-3.784 3.74q-.617.66-.968.66-.572 0-.572-.616 0-.175.308-.88 1.056-1.452 2.068-2.904 1.54-2.2 1.54-3.124 0-.396-.264-.396-.132 0-.528.176l-6.38 4.752h-.308q-.308 0-.308-.088-.001-.132.484-.44a420 420 0 0 1 6.82-5.236q.528-.44 1.364-.44.88 0 .88.792 0 .175-.088.528-.88 1.54-2.244 3.916-.176.307-.176.396 0 .044.088.044l.132-.044 3.256-2.816q2.507-2.112 3.608-2.112 1.452 0 1.452.924 0 .792-.88 2.42-.837 1.584-.836 1.716 0 .132.088.132.175 0 .616-.308l9.152-6.908q.439-.352.924-.352.308 0 .44.132.132.088.132.352a.82.82 0 0 1-.176.528 889 889 0 0 1-2.508 3.564q-1.496 2.287-1.496 3.96-.001 1.056 1.144 1.012 1.364-.045 3.08-1.1l2.816-1.76q.132-.132.264-.132t.132.176m11.946 0q0 .175-.44.528-1.936 1.628-3.916 1.628-1.231 0-2.112-.66-2.025 2.64-4.4 2.64-1.76 0-1.76-2.2 0-2.86 2.816-5.764 2.376-2.42 3.476-2.42.704 0 .704.44 0 .132-.264.352-1.056.22-2.86 2.244-2.2 2.465-2.2 4.752 0 1.496 1.056 1.496 1.54 0 3.124-1.804-.836-.924-.836-2.288 0-1.584.792-2.728.704-.968 1.496-.968t.924 1.1q0 1.936-1.364 4.18.749.836 2.024.836 1.716 0 3.344-1.408.132-.132.264-.132t.132.176m-4.84-3.388q0-.44-.308-.44-.395 0-.836.704t-.44 1.804q0 .925.396 1.54 1.188-1.848 1.188-3.608m23.649-23.892q0 4.445-4.268 11-3.3 5.105-8.184 10.032-4.312 4.4-5.28 4.4.132 4.136 2.596 4.136 1.892 0 4.092-1.628a3.47 3.47 0 0 1-.44-1.716q0-2.992 1.936-2.992.792 0 .924 1.1 0 1.54-1.32 3.08.748 1.232 2.332 1.232 1.716 0 3.344-1.408.132-.132.264-.132t.132.176-.44.528q-1.936 1.628-3.916 1.628-1.629 0-2.596-1.1-2.597 2.376-5.06 2.376-1.452 0-2.42-1.188-.924-1.232-.924-2.948 0-4.884 3.432-11.836 3.123-6.336 7.436-11.22Q118.997 0 121.638 0q1.407 0 1.408 1.408m-1.276.66q0-1.012-.792-1.012-2.069 0-5.94 4.972-3.652 4.665-6.556 10.516-3.08 6.16-3.08 9.284 0 .176.088.176.835 0 4.84-4.312 4.443-4.752 7.524-9.592 3.916-6.16 3.916-10.032m-7.788 23.936q0-.44-.308-.44-.924 0-.924 1.804 0 .615.176 1.1 1.056-1.188 1.056-2.464m19.442 2.684q0 .263-.66.704-5.412 3.652-7.304 3.652-1.233 0-1.232-1.408 0-.792.308-1.584.44-1.1.44-1.144 0-.176-.132-.176a.8.8 0 0 0-.22.088q-.969.968-2.816 2.332-2.376 1.76-3.3 1.76-1.056 0-1.056-1.056 0-.615 1.54-3.388 1.54-2.816 1.54-3.256 0-.484-.792-.484-.176 0-.176-.528.395-.132.836-.132 1.54 0 1.54.88 0 .967-1.364 3.256t-1.364 2.86q0 .352.308.352.704 0 3.432-2.332 2.772-2.332 4.268-4.224.66-.66.968-.66.572 0 .572.572 0 .308-.308.792-2.64 3.96-2.64 5.148 0 1.1 1.012 1.1 1.54 0 5.588-2.772.22-.176.616-.396.132-.132.264-.132t.132.176m9.426-3.124q-.087.22-.528 1.056a49 49 0 0 1-.88 1.76 50 50 0 0 0-.88 1.76q-.396.792-.396.924 0 .352.308.352.705 0 3.432-2.332 2.729-2.244 4.268-4.224.66-.66.968-.66.572 0 .572.572 0 .352-.308.792-2.64 3.96-2.64 5.148 0 1.1 1.012 1.1 1.54 0 5.588-2.772.177-.176.616-.396.132-.132.264-.132t.132.176q0 .263-.66.704-5.456 3.652-7.304 3.652-1.232 0-1.232-1.408 0-.835.308-1.584.44-1.056.44-1.144 0-.176-.132-.176.044 0-.22.088a15 15 0 0 1-1.188 1.056q-.704.572-1.628 1.276-2.331 1.76-3.3 1.76-1.056 0-1.056-1.056 0-.308.352-1.012.353-.704 1.1-2.112.044 0-.22.088a15 15 0 0 1-1.188 1.056q-.704.572-1.628 1.276-2.331 1.76-3.3 1.76-1.056 0-1.056-1.056 0-.571 1.54-3.388 1.54-2.86 1.54-3.256 0-.484-.792-.484-.176 0-.176-.528.396-.132.836-.132 1.54 0 1.54.88 0 .967-1.364 3.256t-1.364 2.86q0 .352.308.352.705 0 3.432-2.332a18 18 0 0 0 2.024-1.98q1.013-1.144 1.628-2.244.66-.66.968-.66.572 0 .572.572 0 .352-.308.792m12.127 4.708q0 1.188.968 1.188.705 0 1.408-.396a7 7 0 0 0 1.364-1.012q-.66-.66-.66-1.628 0-1.056.572-1.804.617-.792 1.364-.792t.88.704q0 .66-.22 1.452-.219.748-.792 1.628.66.66 1.848.66 1.452 0 2.992-1.188.132-.132.22-.132.132 0 .132.176 0 .352-.484.66a7 7 0 0 1-1.144.572q-.615.264-1.276.44-.66.132-1.012.132-.615 0-.968-.132a4.6 4.6 0 0 1-.748-.484 6.9 6.9 0 0 1-2.112 1.716q-1.187.615-2.288.616-.836 0-1.232-.66a3.2 3.2 0 0 1-.396-1.584q0-.571.484-1.848.529-1.276 1.276-2.596a12.7 12.7 0 0 1 1.628-2.288q.925-1.012 1.672-1.012.352.088.352.22 0 .045-.748 1.012a28 28 0 0 0-1.452 2.244q-.747 1.275-1.188 2.42-.44 1.1-.44 1.716m5.412-3.564q.177-.088 0-.132a.54.54 0 0 0-.308-.088q-.351 0-.704.484-.308.484-.308 1.276 0 .66.308 1.1.529-.66.748-1.364.264-.748.264-1.188zm14.302 1.98q0 .176-.66.704a360 360 0 0 0-3.476 2.288q-2.508 1.496-4.092 1.496-.923 0-1.628-.66t-.704-1.496q0-2.904 2.816-5.324 2.508-2.156 4.664-2.156 1.364 0 1.364 1.1 0 .615-1.804 2.42a.55.55 0 0 1-.396.176q-.352 0-.352-.396 0-.176.132-.264.132-.132.528-.968.396-.88.396-1.32 0-.132-.308-.132-1.1 0-3.212 1.804-2.552 2.156-2.552 4.444 0 1.672 1.452 1.672 2.245 0 6.82-3.036.22-.176.616-.396.132-.132.264-.132t.132.176m9.057-1.364q.66-.66.968-.66.573 0 .572.572 0 .352-.308.792a25 25 0 0 0-.88 1.408q-.351.572-.44.968-.087.396.176.616.264.22 1.012.22 1.54 0 5.588-2.772.089-.088.396-.308.352-.22.484-.22t.132.176q0 .264-.66.704-5.456 3.652-7.304 3.652-1.232 0-1.232-1.408 0-.616.176-1.188a6 6 0 0 1 .352-.924q-.307 0-.616-.044a24 24 0 0 0-.572-.088q-.792.572-1.804 1.188a33 33 0 0 1-2.024 1.056q-1.011.485-1.936.792-.879.265-1.452.22a3.2 3.2 0 0 1-1.1-.264q-.528-.264-.528-1.1 0-.484.264-.836.22-.352.484-.352.22 0 .352.22t.308.528q.177.264.396.484t.616.22h.264q.132 0 .528-.132.441-.133 1.188-.484a33 33 0 0 1 1.98-.88q.88-.396 1.628-.88a6 6 0 0 1-1.584-.572q-1.056-.528-.924-1.936.089-.968.792-1.584.705-.616 1.584-.88a4.2 4.2 0 0 1 1.804-.132q.925.088 1.408.616.484.484.352 1.364-.087.88-1.232 2.2l-.308.308a1.8 1.8 0 0 1-.352.264l.748.22q.044-.088.176-.264.132-.22.264-.396.133-.22.22-.352.089-.132.044-.132m-.836-.836q.132-.22.22-.396a1.7 1.7 0 0 0 .22-.396q.132-.352.132-.748.045-.396-.264-.748-.396-.44-1.32-.176a3.8 3.8 0 0 0-1.584.836q-.703.616-.924 1.452-.175.792.792 1.408l1.32.352q.353-.308.704-.704.353-.396.704-.88m34.724-23.892q0 4.488-4.224 10.516-3.211 4.62-8.052 9.064-4.18 3.828-5.06 3.828-2.067 4.268-2.068 4.928a812 812 0 0 1 5.06-4.84q5.016-4.444 7.392-4.444.924.132.924.792 0 1.892-1.76 3.256a122 122 0 0 1-3.3 1.98q-1.76 1.1-1.76 2.332 0 1.935 1.54 1.936 1.805 0 6.38-2.904.22-.176.616-.396.132-.132.264-.132t.132.176q0 .045-.572.616-1.056 1.056-3.652 2.376-2.595 1.276-3.872 1.276-2.376 0-2.376-2.288 0-1.76 1.76-2.948 1.584-.924 3.256-1.892 1.716-1.012 1.716-2.376 0-.615-.572-.616-1.407 0-6.82 5.06-5.367 5.016-5.764 5.016-.528-.044-.528-.484 0-.308.264-.748l4.224-8.624q4.444-9.02 7.876-14.344 4.884-7.524 7.568-7.524 1.408 0 1.408 1.408m-1.276.66q0-1.012-.792-1.012-3.96 1.012-14.828 22.924 1.188-.396 4.928-4.18 4.224-4.313 7.084-8.624 3.608-5.456 3.608-9.108m14.491 25.432q0 .176-.66.704a360 360 0 0 0-3.476 2.288q-2.508 1.496-4.092 1.496-.923 0-1.628-.66t-.704-1.496q0-2.904 2.816-5.324 2.508-2.156 4.664-2.156 1.364 0 1.364 1.1 0 .615-1.804 2.42a.55.55 0 0 1-.396.176q-.351 0-.352-.396 0-.176.132-.264.132-.132.528-.968.396-.88.396-1.32 0-.132-.308-.132-1.1 0-3.212 1.804-2.552 2.156-2.552 4.444 0 1.672 1.452 1.672 2.245 0 6.82-3.036.22-.176.616-.396.132-.132.264-.132t.132.176m18.738-27.28q0 4.445-4.268 11-3.3 5.105-8.184 10.032-4.312 4.4-5.28 4.4.132 4.136 2.596 4.136 1.892 0 4.092-1.628a3.47 3.47 0 0 1-.44-1.716q0-2.992 1.936-2.992.792 0 .924 1.1 0 1.54-1.32 3.08.748 1.232 2.332 1.232 1.716 0 3.344-1.408.132-.132.264-.132t.132.176-.44.528q-1.936 1.628-3.916 1.628-1.629 0-2.596-1.1-2.597 2.376-5.06 2.376-1.452 0-2.42-1.188-.924-1.232-.924-2.948 0-4.884 3.432-11.836 3.123-6.336 7.436-11.22Q245.54 0 248.181 0q1.407 0 1.408 1.408m-1.276.66q0-1.012-.792-1.012-2.069 0-5.94 4.972-3.652 4.665-6.556 10.516-3.08 6.16-3.08 9.284 0 .176.088.176.835 0 4.84-4.312 4.443-4.752 7.524-9.592 3.916-6.16 3.916-10.032m-7.788 23.936q0-.44-.308-.44-.924 0-.924 1.804 0 .615.176 1.1 1.056-1.188 1.056-2.464m18.914 2.684q0 .528-2.728 2.024-2.86 1.584-4.092 1.584-2.289 0-2.288-2.42 0-.66.704-1.496 0-.044-.044-.044.043 0-2.376 1.848-2.42 1.804-3.476 1.804-1.012 0-1.012-.836 0-2.025 3.388-4.708 3.212-2.596 5.016-2.596.263.044.572.308.351.22.352.352 0 .045-.044.088-2.464 0-6.292 3.828-1.232 1.231-1.232 2.068 0 .308.308.308.968 0 3.696-2.244 2.2-1.848 3.124-2.948.44-.528.616-.528.44 0 .44.616 0 .22-.572 1.012-1.892 2.595-1.892 3.3 0 1.232 1.364 1.232 2.244 0 6.072-2.596.132-.132.264-.132t.132.176m13.135 0q-.177.572-3.036 2.288a119 119 0 0 0-4.884 2.992q-6.293 12.32-7.832 14.872-4.356 7.215-7.26 7.216-1.32 0-1.32-1.716 0-10.12 15.268-20.416 1.011-1.98 3.696-7.524 0-.044-.088-.044-.089 0-.308.22-.88.836-2.332 2.156-3.124 2.904-5.104 2.904-.924 0-.924-1.1 0-1.98 2.86-4.576 3.08-2.816 6.028-2.816.835 0 1.408.352l.924-1.276q.307-.396.616-.396.572 0 .572.616 0 .307-.22.616-2.069 3.08-5.412 9.768a61 61 0 0 1 4.092-2.376q2.2-1.276 2.86-1.804.132-.132.264-.132t.132.176m-4.136-4.664q0-.176-.396-.176-2.376 0-5.192 2.288-2.817 2.243-2.816 4.004 0 .528.484.528 1.803 0 7.7-6.292.22-.308.22-.352M262.894 35.2q-13.42 9.504-13.42 18.788 0 1.144.748 1.144 2.816 0 12.672-19.932m10.419-4.928q0 1.188.968 1.188.704 0 1.408-.396a7 7 0 0 0 1.364-1.012q-.66-.66-.66-1.628 0-1.056.572-1.804.616-.792 1.364-.792t.88.704q0 .66-.22 1.452-.22.748-.792 1.628.66.66 1.848.66 1.452 0 2.992-1.188.132-.132.22-.132.132 0 .132.176 0 .352-.484.66a7 7 0 0 1-1.144.572 9.4 9.4 0 0 1-1.276.44q-.66.132-1.012.132-.616 0-.968-.132a4.6 4.6 0 0 1-.748-.484 6.9 6.9 0 0 1-2.112 1.716q-1.188.615-2.288.616-.836 0-1.232-.66a3.2 3.2 0 0 1-.396-1.584q0-.571.484-1.848.528-1.276 1.276-2.596a12.7 12.7 0 0 1 1.628-2.288q.924-1.012 1.672-1.012.352.088.352.22 0 .045-.748 1.012a28 28 0 0 0-1.452 2.244q-.749 1.275-1.188 2.42-.44 1.1-.44 1.716m5.412-3.564q.175-.088 0-.132a.54.54 0 0 0-.308-.088q-.352 0-.704.484-.308.484-.308 1.276 0 .66.308 1.1.528-.66.748-1.364.264-.748.264-1.188zm21.826-15.84q-.527.045-1.76.044a30 30 0 0 0-2.772.044q-1.539.044-3.168.264a13.2 13.2 0 0 0-2.992.66q-1.32.44-2.156 1.188-.792.705-.704 1.892.089.88.836 2.024a62 62 0 0 1 1.584 2.464q.837 1.32 1.408 2.816.572 1.452.308 3.036 0 .968-.396 2.288-.396 1.275-1.32 2.42-1.011 1.32-2.332 2.068-1.276.748-2.464.748-1.76 0-1.76-2.2 0-2.904 2.816-5.764 2.376-2.42 3.476-2.42.705 0 .704.44 0 .176-.264.352-1.1.22-2.86 2.244-2.2 2.465-2.2 4.752 0 1.496 1.056 1.496 1.54 0 3.124-1.804.397-.528.748-1.144.352-.615.616-1.232.264-.616.396-1.188.176-.616.176-1.056 0-1.055-.132-1.76-.132-.704-.396-1.232a6 6 0 0 0-.66-1.1 23 23 0 0 1-.88-1.276q-.528-.792-1.012-1.54a13 13 0 0 1-.836-1.496 6 6 0 0 1-.484-1.496q-.087-.748.176-1.54.66-1.056 2.024-1.848 1.365-.792 3.036-1.276a23 23 0 0 1 3.564-.792 32 32 0 0 1 3.608-.308q1.716-.044 3.124.132t2.156.484q.616.264.528.484-.043.175-1.056.132zm2.336 17.82q0 .308-1.804 1.452-4.445 2.816-6.38 2.816-2.86 0-2.86-3.344 0-2.464 2.376-4.928 2.42-2.508 4.576-2.508.66 0 .66.616 0 1.495-2.596 4.224-2.068 2.156-3.388 2.948.132 1.935 1.848 1.936 1.628 0 5.456-2.2.308-.176 1.716-1.056.132-.132.264-.132t.132.176m-4.796-5.06q0-.528-.308-.528-1.1 0-2.684 2.2t-1.628 3.96q.836-.264 2.64-2.288 1.98-2.2 1.98-3.344m25.184-14.564q0 2.552-3.828 5.324a992 992 0 0 0-7.128 4.708q-3.828 2.816-3.828 5.544 0 2.465 1.804 2.772 0 .792-.704.792-1.056 0-1.76-.66-.66-.66-.66-1.76 0-3.52 3.74-6.512a2797 2797 0 0 0 6.996-4.532q3.74-2.552 3.74-5.016 0-1.716-1.232-2.772-1.188-1.056-3.388-1.056-2.86 0-5.192 2.024-2.552 2.244-2.552 5.456l.088.572q0 .44-.616.44-.66 0-.66-1.056 0-3.344 3.652-6.072 3.388-2.464 6.732-2.464 2.244 0 3.52 1.188 1.276 1.145 1.276 3.08m-14.608 22.308q0 .484-.528.924t-.924.44q-.835 0-.924-.88 0-.615.484-.968.484-.352.924-.352.968 0 .968.836M11.814 46.978q.088 0 .088.088t-.088.088q-.484 0-.814.418-.308.419-.792 1.584l-3.432 8.118q-.704 1.584-1.298 2.508-.572.945-1.254 1.408a2.7 2.7 0 0 1-1.562.462 3.43 3.43 0 0 1-1.76-.462q-.792-.462-.88-1.078-.023-.307.286-.99.307-.66.616-1.078.307-.396.286-.044-.022.462.308 1.188.352.727.902 1.276.55.55 1.166.55.638 0 1.122-.506t.99-1.65q.066-.33-.154-.946a10 10 0 0 0-.462-1.144L1.87 49.156q-.484-1.166-.814-1.584-.308-.418-.792-.418-.088 0-.088-.088t.088-.088l.968.022h2.794l1.628-.022q.154 0 .154.088t-.154.088q-1.32 0-1.32.968 0 .462.242 1.034l2.596 6.116q.045.133.11.154.088 0 .132-.132l2.596-6.138q.264-.638.264-1.012 0-.99-1.408-.99-.132 0-.132-.088t.132-.088l1.716.022h.264zm18.56 9.9q.11 0 .11.088t-.11.088q-.33-.022-1.363-.022h-2.618q-.969 0-1.298.022-.11 0-.11-.088t.11-.088q.704 0 1.012-.484.33-.485.33-1.65v-2.882q0-.264-.198-.242-1.165.176-2.31.176-1.144 0-2.31-.176h-.022q-.132 0-.132.242v2.882q0 1.165.308 1.65.33.484 1.034.484.11 0 .11.088t-.11.088q-.33-.022-1.298-.022H18.89q-1.034 0-1.386.022-.11 0-.11-.088t.11-.088q.726 0 1.078-.484.352-.485.352-1.65v-5.456q0-1.166-.352-1.65t-1.078-.484q-.11 0-.11-.088t.11-.088L18.89 47h2.618l1.298-.022q.11 0 .11.088t-.11.088q-.704 0-1.034.484-.308.484-.308 1.65v1.914q0 .242.154.264 1.122.176 2.244.176 1.188 0 2.376-.176.11-.022.154-.088a.3.3 0 0 0 .044-.176v-1.914q0-1.166-.33-1.65-.309-.484-1.012-.484-.11 0-.11-.088t.11-.088l1.298.022h2.618l1.364-.022q.11 0 .11.088t-.11.088q-.726 0-1.078.484-.33.484-.33 1.65v5.456q0 1.165.33 1.65.352.484 1.078.484m12.334-3.608q0-.11.066-.11t.066.11q0 1.672-.726 2.86-.704 1.188-1.848 1.188-.836 0-1.408-.55-.572-.572-.638-1.694-.528 1.1-1.408 1.694a3.25 3.25 0 0 1-1.892.594q-1.739 0-2.574-.968a3.44 3.44 0 0 1-.836-2.288q0-1.276 1.144-2.046 1.166-.77 2.904-.77.594 0 1.32.11.748.11 1.342.286v-.968q0-3.388-2.948-3.388-1.21 0-2.068.792-.836.792-.836 2.376 0 .089-.044.132-.045.044-.088.044-.088 0-.088-.176 0-1.232.616-2.09a3.84 3.84 0 0 1 1.584-1.32 4.9 4.9 0 0 1 2.046-.44q4.356 0 4.356 4.07v3.608q0 1.452.748 1.452.727 0 .946-.638.22-.66.264-1.87m-6.644 2.838q2.156 0 2.156-2.618v-.132a2.27 2.27 0 0 0-.924-1.254 2.53 2.53 0 0 0-1.496-.484q-2.178 0-2.178 1.672 0 1.122.638 1.98.638.836 1.804.836m15.232-3.652q-.044.11-.132.11-.066-.022-.022-.154.11-.44.11-.858 0-1.013-.484-2.046-.484-1.056-1.276-1.738t-1.672-.682q-2.596 0-2.596 2.97 0 1.628.748 3.036.748 1.386 1.936 2.2 1.21.814 2.442.814 1.584 0 2.42-1.012.089-.088.132-.022.045.045 0 .11-1.738 2.178-4.598 2.178a5.4 5.4 0 0 1-2.596-.638 5 5 0 0 1-1.914-1.804q-.704-1.188-.704-2.728 0-1.495.748-2.772a5.7 5.7 0 0 1 2.068-2.024 5.54 5.54 0 0 1 2.816-.748q1.056 0 1.98.286.924.285 1.408.748.506.44.396.88zm19.98 4.422q.11 0 .11.088t-.11.088q-.33-.022-1.364-.022h-2.618q-.968 0-1.298.022-.11 0-.11-.088t.11-.088q.705 0 1.012-.484.33-.485.33-1.65v-7.59h-4.752v7.59q0 1.165.308 1.65.33.484 1.034.484.11 0 .11.088t-.11.088q-.33-.022-1.298-.022h-2.618q-1.034 0-1.386.022-.11 0-.11-.088t.11-.088q.726 0 1.078-.484.352-.485.352-1.65v-5.456q0-1.166-.352-1.65t-1.078-.484q-.11 0-.11-.088t.11-.088l1.386.022h9.9l1.298-.022q.11 0 .11.088t-.11.088q-.704 0-1.034.484-.308.484-.308 1.65v5.456q0 1.165.33 1.65.352.484 1.078.484m8.884-10.23q1.145 0 2.09.638.969.615 1.54 1.804.594 1.166.594 2.706a5.8 5.8 0 0 1-.682 2.75 5.35 5.35 0 0 1-1.826 2.046 4.4 4.4 0 0 1-2.508.77q-.836 0-1.386-.22a5.4 5.4 0 0 1-1.034-.55q-.33-.22-.44-.22-.198 0-.198.374v2.42q0 1.166.308 1.628.33.484.99.528.11 0 .11.066 0 .088-.11.088a49 49 0 0 0-2.288-.044 74 74 0 0 0-2.838.044q-.11 0-.11-.088t.11-.088q.66.022.968-.462.33-.484.33-1.694v-9.328q0-.835-.22-1.21-.198-.396-.77-.396a3 3 0 0 0-.374.044q-.087.022-.11-.044 0-.088.066-.11 1.035-.242 2.112-.638 1.101-.396 1.782-.858.11-.066.176-.044.088.023.066.132-.132 1.144-.154 1.936 0 .264.022.506.045.22.11.198.595-1.188 1.474-1.936.88-.748 2.2-.748m-.616 10.384q1.409 0 2.024-.792.638-.792.638-2.31 0-1.474-.506-2.838t-1.364-2.2q-.836-.836-1.826-.836t-1.606.836q-.594.836-.594 2.244v1.474q0 1.914.858 3.168.88 1.254 2.376 1.254m11.41.352q-1.518 0-2.75-.638a4.93 4.93 0 0 1-1.914-1.848q-.682-1.188-.682-2.706 0-1.54.792-2.794a5.56 5.56 0 0 1 2.156-2.002q1.386-.726 3.036-.726 1.539 0 2.772.66a4.75 4.75 0 0 1 1.958 1.804q.704 1.166.704 2.662a5.24 5.24 0 0 1-.814 2.838q-.793 1.275-2.2 2.024-1.386.726-3.058.726m1.21-.528q1.254 0 1.958-.704.726-.726.726-2.112 0-1.342-.704-2.97-.682-1.628-1.738-2.75-1.034-1.144-2.024-1.144-1.233 0-1.936.704-.705.704-.704 2.112 0 1.32.682 2.97.681 1.628 1.716 2.772 1.055 1.122 2.024 1.122m16.115.022q.11 0 .11.088t-.11.088a26 26 0 0 0-1.364-.022h-2.992q-1.034 0-1.386.022-.088 0-.088-.088t.088-.088q.484 0 .748-.176a.58.58 0 0 0 .286-.528q0-.44-.462-1.166l-1.958-2.992-2.024 2.992q-.484.748-.484 1.166 0 .705 1.012.704.11 0 .11.088t-.11.088a28 28 0 0 0-1.386-.022h-.286q-1.035 0-1.364.022-.11 0-.11-.088t.11-.088q.66 0 1.1-.374.462-.396 1.188-1.496l2.156-3.146-1.848-2.838q-.726-1.1-1.144-1.474a1.34 1.34 0 0 0-.99-.396q-.088 0-.088-.088t.088-.088l1.232.022h3.014l1.496-.022q.11 0 .11.088t-.11.088q-.528 0-.836.198-.286.175-.286.55 0 .462.44 1.122l1.518 2.332 1.606-2.332q.462-.682.462-1.144a.59.59 0 0 0-.308-.55q-.286-.176-.814-.176-.132 0-.132-.088t.132-.088l1.496.022h.308l1.364-.022q.11 0 .11.088t-.11.088q-.682 0-1.144.396-.44.396-1.166 1.474l-1.716 2.508 2.266 3.476q.704 1.078 1.144 1.474.462.396 1.122.396m5.04.506q-1.518 0-2.75-.638a4.93 4.93 0 0 1-1.914-1.848q-.682-1.188-.682-2.706 0-1.54.792-2.794a5.56 5.56 0 0 1 2.156-2.002q1.386-.726 3.036-.726 1.54 0 2.772.66a4.75 4.75 0 0 1 1.958 1.804q.704 1.166.704 2.662a5.24 5.24 0 0 1-.814 2.838q-.792 1.275-2.2 2.024-1.386.726-3.058.726m1.21-.528q1.254 0 1.958-.704.726-.726.726-2.112 0-1.342-.704-2.97-.682-1.628-1.738-2.75-1.034-1.144-2.024-1.144-1.232 0-1.936.704t-.704 2.112q0 1.32.682 2.97.682 1.628 1.716 2.772 1.056 1.122 2.024 1.122m17.059-9.922q.132 0 .132.088 0 .066-.132.088-.77.022-1.188.55-.396.506-.396 1.716v7.502h1.232q.154 0 .154.154l.044.77q.111 1.386.132 1.672.022.132-.066.132-.066 0-.088-.11-.241-1.276-.814-1.87-.549-.594-1.65-.594h-6.204q-1.1 0-1.672.594-.549.595-.792 1.87-.021.11-.11.11-.066 0-.044-.132.132-1.144.132-1.672l.044-.77q0-.154.154-.154h.682q.77 0 1.166-2.442.418-2.442.528-5.654-.088-.902-.484-1.276t-1.078-.396q-.132-.022-.132-.088.022-.088.132-.088.925.066 1.276.066h7.766q.418 0 1.276-.066m-4.114 9.944v-9.724h-4.466q0 3.146-.374 6.138-.351 2.97-1.1 3.586zm15.798 0q.11 0 .11.088t-.11.088a28 28 0 0 0-1.386-.022h-2.618q-1.013 0-1.364.022-.11 0-.11-.088t.11-.088q.726 0 1.056-.484.352-.485.352-1.65v-6.38q0-1.035-.616-1.078l-.77-.022q-.88-.022-1.32.22a1.16 1.16 0 0 0-.55.748q-.11.485-.11 1.43 0 .902.308 1.496.33.572.968.902 0-.022.044-.022l.066.066q.462.22 1.364.33.087.022.066.088 0 .066-.066.066a13 13 0 0 1-.88.022q-.903.023-1.364.132a1.4 1.4 0 0 0-.77.484q-.287.352-.462 1.122-.352 1.43-.946 2.112-.595.66-1.87.55-.198-.023-.198-.462 0-.352.132-.792.131-.462.308-.726.176-.264.308-.11.528.374 1.012.374a1 1 0 0 0 .374-.066q.44-.242.616-.946.351-1.232 1.254-1.804-1.431-.242-2.178-.924-.726-.682-.726-1.716 0-1.408 1.122-2.134 1.144-.726 3.52-.726l3.938.022 1.386-.022q.11 0 .11.088t-.11.088q-.726 0-1.078.484t-.352 1.65v5.456q0 1.165.352 1.65t1.078.484m11.259-6.072q.022.088-.044.088t-.088-.088q-.814-3.058-1.804-3.41-.198-.154-1.54-.154-.132 0-.22.154a.6.6 0 0 0-.088.352v6.996q0 1.165.33 1.65.352.484 1.078.484.11 0 .11.088t-.11.088a26 26 0 0 0-1.364-.022h-2.618q-1.034 0-1.364.022-.11 0-.11-.088t.11-.088q.726 0 1.056-.484.352-.485.352-1.65v-6.996a.6.6 0 0 0-.088-.352q-.088-.154-.22-.154-1.342 0-1.54.154-.99.352-1.804 3.41-.022.088-.088.088t-.044-.088q.264-1.957.264-3.586 0-.352.286-.352.132 0 .748.088.638.088 2.486.088h2.53q1.782 0 2.442-.088t.814-.088q.264 0 .264.352 0 1.627.264 3.586m12.352-3.674q1.561 0 2.794.66 1.254.638 1.958 1.76.726 1.122.726 2.552 0 1.452-.814 2.662-.792 1.21-2.2 1.914-1.386.704-3.058.704-1.497 0-2.706-.594a4.75 4.75 0 0 1-1.892-1.672q-.705-1.078-.748-2.464v-1.122q0-2.815.924-4.752.924-1.935 2.398-2.948a7.35 7.35 0 0 1 3.234-1.232q1.584-.22 2.376-.418.791-.22 1.034-.44a.75.75 0 0 0 .264-.572q0-.11.066-.11.087 0 .11.11.044.352.044.55 0 1.078-.726 1.936-.705.836-2.508 1.144a49 49 0 0 1-2.486.374q-1.32.176-1.914.308a2.45 2.45 0 0 0-.968.44q-.463.307-.682.946-.22.638-.22 1.76 0 .594.022.946.814-1.122 2.134-1.782t2.838-.66m.55 9.768q1.32 0 2.024-.726.726-.726.726-2.178 0-1.232-.66-2.75-.639-1.518-1.672-2.574-1.012-1.078-2.068-1.078-1.276 0-2.002.726-.704.704-.704 2.178 0 1.21.638 2.75.66 1.518 1.672 2.596 1.011 1.056 2.046 1.056m13.682-10.252q1.145 0 2.09.638.969.615 1.54 1.804.594 1.166.594 2.706 0 1.452-.682 2.75a5.35 5.35 0 0 1-1.826 2.046 4.4 4.4 0 0 1-2.508.77q-.835 0-1.386-.22a5.4 5.4 0 0 1-1.034-.55q-.33-.22-.44-.22-.198 0-.198.374v2.42q0 1.166.308 1.628.33.484.99.528.11 0 .11.066 0 .088-.11.088a49 49 0 0 0-2.288-.044 74 74 0 0 0-2.838.044q-.11 0-.11-.088t.11-.088q.66.022.968-.462.33-.484.33-1.694v-9.328q0-.835-.22-1.21-.198-.396-.77-.396-.11 0-.374.044-.087.022-.11-.044 0-.088.066-.11 1.035-.242 2.112-.638 1.101-.396 1.782-.858.11-.066.176-.044.089.023.066.132a23 23 0 0 0-.154 1.936q0 .264.022.506.044.22.11.198.595-1.188 1.474-1.936.88-.748 2.2-.748m-.616 10.384q1.409 0 2.024-.792.638-.792.638-2.31a8.1 8.1 0 0 0-.506-2.838q-.506-1.365-1.364-2.2-.836-.836-1.826-.836t-1.606.836q-.594.836-.594 2.244v1.474q0 1.914.858 3.168.88 1.254 2.376 1.254m17.047-3.762q0-.11.066-.11t.066.11q0 1.672-.726 2.86-.703 1.188-1.848 1.188-.836 0-1.408-.55-.572-.572-.638-1.694-.528 1.1-1.408 1.694a3.25 3.25 0 0 1-1.892.594q-1.738 0-2.574-.968a3.44 3.44 0 0 1-.836-2.288q0-1.276 1.144-2.046 1.166-.77 2.904-.77.594 0 1.32.11.748.11 1.342.286v-.968q0-3.388-2.948-3.388-1.21 0-2.068.792-.836.792-.836 2.376 0 .089-.044.132t-.088.044q-.088 0-.088-.176 0-1.232.616-2.09a3.85 3.85 0 0 1 1.584-1.32 4.9 4.9 0 0 1 2.046-.44q4.356 0 4.356 4.07v3.608q0 1.452.748 1.452.726 0 .946-.638.22-.66.264-1.87m-6.644 2.838q2.156 0 2.156-2.618v-.132a2.27 2.27 0 0 0-.924-1.254 2.53 2.53 0 0 0-1.496-.484q-2.178 0-2.178 1.672 0 1.122.638 1.98.638.836 1.804.836m19.662.77q.11 0 .11.088t-.11.088q-.33-.022-1.364-.022h-2.618q-.968 0-1.298.022-.11 0-.11-.088t.11-.088q.705 0 1.012-.484.33-.485.33-1.65v-2.882q0-.264-.198-.242-1.166.176-2.31.176-1.143 0-2.31-.176h-.022q-.132 0-.132.242v2.882q0 1.165.308 1.65.33.484 1.034.484.11 0 .11.088t-.11.088q-.33-.022-1.298-.022h-2.618q-1.034 0-1.386.022-.11 0-.11-.088t.11-.088q.727 0 1.078-.484.352-.485.352-1.65v-5.456q0-1.166-.352-1.65-.351-.484-1.078-.484-.11 0-.11-.088t.11-.088l1.386.022h2.618l1.298-.022q.11 0 .11.088t-.11.088q-.704 0-1.034.484-.308.484-.308 1.65v1.914q0 .242.154.264 1.122.176 2.244.176 1.188 0 2.376-.176.11-.022.154-.088a.3.3 0 0 0 .044-.176v-1.914q0-1.166-.33-1.65-.307-.484-1.012-.484-.11 0-.11-.088t.11-.088l1.298.022h2.618l1.364-.022q.11 0 .11.088t-.11.088q-.726 0-1.078.484-.33.484-.33 1.65v5.456q0 1.165.33 1.65.352.484 1.078.484m13.565 0q.11 0 .11.088t-.11.088q-.33-.022-1.364-.022h-2.618q-1.034 0-1.364.022-.11 0-.11-.088t.11-.088q.726 0 1.056-.484.352-.485.352-1.65v-2.816a4.8 4.8 0 0 1-1.694 1.122 5.4 5.4 0 0 1-2.046.396q-1.605 0-2.64-.792-1.034-.814-1.034-2.64v-.726q0-1.166-.352-1.65-.33-.484-1.056-.484-.11 0-.11-.088t.11-.088l1.364.022h2.618l1.364-.022q.11 0 .11.088t-.11.088q-.726 0-1.078.484-.33.484-.33 1.65V50.3q0 1.386.638 2.002a2.18 2.18 0 0 0 1.54.594q.705 0 1.386-.33.705-.33 1.32-.99v-2.288q0-1.166-.352-1.65-.33-.484-1.056-.484-.11 0-.11-.088t.11-.088l1.364.022h2.618l1.364-.022q.11 0 .11.088t-.11.088q-.726 0-1.078.484-.33.484-.33 1.65v5.456q0 1.165.33 1.65.352.484 1.078.484m14.415 0q.11 0 .11.088t-.11.088a26 26 0 0 0-1.364-.022h-2.618q-1.035 0-1.364.022-.11 0-.11-.088t.11-.088q.726 0 1.056-.484.351-.485.352-1.65v-5.302l-5.258 5.28v.022q0 1.165.33 1.65.352.484 1.078.484.11 0 .11.088t-.11.088q-.353-.022-1.364-.022h-2.618q-1.035 0-1.386.022-.11 0-.11-.088t.11-.088q.726 0 1.078-.484.352-.485.352-1.65V49.31q0-1.166-.352-1.65-.352-.506-1.078-.506-.11 0-.11-.088t.11-.088q.704.044 1.386.044h2.618q.66 0 1.364-.044.11 0 .11.088t-.11.088q-.726 0-1.078.506-.33.484-.33 1.65v5.126l5.258-5.28q-.023-1.1-.374-1.54-.33-.462-1.034-.462-.11 0-.11-.088t.11-.088q.66.044 1.364.044h2.618q.704 0 1.364-.044.11 0 .11.088t-.11.088q-.726 0-1.078.506-.33.484-.33 1.65v5.434q0 1.165.33 1.65.352.484 1.078.484M8.8 74.456q-.044.11-.132.11-.066-.022-.022-.154.11-.44.11-.858 0-1.012-.484-2.046-.484-1.056-1.276-1.738t-1.672-.682q-2.596 0-2.596 2.97 0 1.627.748 3.036.748 1.386 1.936 2.2 1.21.814 2.442.814 1.584 0 2.42-1.012.088-.088.132-.022.045.045 0 .11-1.738 2.178-4.598 2.178a5.4 5.4 0 0 1-2.596-.638 5 5 0 0 1-1.914-1.804q-.704-1.188-.704-2.728 0-1.496.748-2.772a5.7 5.7 0 0 1 2.068-2.024 5.54 5.54 0 0 1 2.816-.748q1.056 0 1.98.286.924.285 1.408.748.506.44.396.88zm17.362-1.65q.022.088-.044.088t-.088-.088q-.814-3.058-1.804-3.41-.198-.154-1.54-.154-.133 0-.22.154a.63.63 0 0 0-.088.352v6.996q0 1.165.33 1.65.352.484 1.078.484.11 0 .11.088t-.11.088q-.33-.022-1.364-.022h-2.618q-1.034 0-1.364.022-.11 0-.11-.088t.11-.088q.726 0 1.056-.484.352-.484.352-1.65v-6.996a.63.63 0 0 0-.088-.352q-.088-.154-.22-.154-1.342 0-1.54.154-.99.352-1.804 3.41-.022.088-.088.088t-.044-.088q.264-1.957.264-3.586 0-.352.286-.352.132 0 .748.088.638.088 2.486.088h2.53q1.782 0 2.442-.088t.814-.088q.264 0 .264.352 0 1.627.264 3.586m6.397 6.578q-1.518 0-2.75-.638a4.93 4.93 0 0 1-1.914-1.848q-.681-1.188-.682-2.706 0-1.54.792-2.794a5.56 5.56 0 0 1 2.156-2.002q1.386-.726 3.036-.726 1.54 0 2.772.66a4.75 4.75 0 0 1 1.958 1.804q.704 1.166.704 2.662a5.24 5.24 0 0 1-.814 2.838q-.792 1.275-2.2 2.024-1.386.726-3.058.726m1.21-.528q1.254 0 1.958-.704.726-.726.726-2.112 0-1.343-.704-2.97-.682-1.628-1.738-2.75-1.034-1.144-2.024-1.144-1.231 0-1.936.704t-.704 2.112q0 1.32.682 2.97.682 1.628 1.716 2.772 1.056 1.122 2.024 1.122m18.644.022q.11 0 .11.088t-.11.088q-.33-.022-1.364-.022H48.43q-.969 0-1.298.022-.11 0-.11-.088t.11-.088q.703 0 1.012-.484.33-.484.33-1.65v-7.59h-4.752v7.59q0 1.165.308 1.65.33.484 1.034.484.11 0 .11.088t-.11.088q-.33-.022-1.298-.022h-2.618q-1.035 0-1.386.022-.11 0-.11-.088t.11-.088q.726 0 1.078-.484t.352-1.65v-5.456q0-1.165-.352-1.65t-1.078-.484q-.11 0-.11-.088t.11-.088l1.386.022h9.9l1.298-.022q.11 0 .11.088t-.11.088q-.704 0-1.034.484-.309.484-.308 1.65v5.456q0 1.165.33 1.65.352.484 1.078.484M64.75 75.27q0-.11.066-.11t.066.11q0 1.672-.726 2.86-.704 1.188-1.848 1.188-.836 0-1.408-.55-.572-.572-.638-1.694-.528 1.1-1.408 1.694a3.25 3.25 0 0 1-1.892.594q-1.739 0-2.574-.968a3.44 3.44 0 0 1-.836-2.288q0-1.276 1.144-2.046 1.166-.77 2.904-.77.594 0 1.32.11.748.11 1.342.286v-.968q0-3.388-2.948-3.388-1.21 0-2.068.792-.836.792-.836 2.376 0 .088-.044.132-.045.044-.088.044-.088 0-.088-.176 0-1.232.616-2.09a3.84 3.84 0 0 1 1.584-1.32 4.9 4.9 0 0 1 2.046-.44q4.356 0 4.356 4.07v3.608q0 1.452.748 1.452.726 0 .946-.638.22-.66.264-1.87m-6.644 2.838q2.156 0 2.156-2.618v-.132a2.27 2.27 0 0 0-.924-1.254 2.53 2.53 0 0 0-1.496-.484q-2.178 0-2.178 1.672 0 1.122.638 1.98.638.836 1.804.836m20.916.77q.11 0 .11.088t-.11.088q-.351-.022-1.364-.022h-2.64q-1.011 0-1.364.022-.11 0-.11-.088t.11-.088q.66 0 .968-.374.33-.374.33-1.254 0-.33-.022-.506l-.484-5.83q-.021-.264-.132-.264-.066 0-.11.066a1 1 0 0 0-.088.198l-3.102 7.854q-.087.242-.242.242-.198 0-.286-.242l-3.08-7.942q-.066-.176-.132-.176h-.044l.154.572-.154-.55q-.066.022-.066.154l-.528 5.918a5 5 0 0 0-.022.55q0 .858.308 1.232.309.352.968.352.11 0 .11.088t-.11.088a26 26 0 0 0-1.364-.022h-.264q-1.034 0-1.364.022-.11 0-.11-.088t.11-.088q.726 0 1.078-.462.375-.484.484-1.672l.594-6.534q-.22-.572-.55-.814t-.836-.242q-.11 0-.11-.088t.11-.088l1.298.022h2.112q.309 0 .396.242l2.442 6.028q.066.154.154.154.111 0 .132-.154l2.376-6.05q.044-.132.11-.176a.36.36 0 0 1 .198-.044h1.936l1.386-.022q.11 0 .11.088t-.11.088q-.66 0-.99.374-.308.352-.308 1.21 0 .352.022.55l.528 5.456q.111 1.189.462 1.672.375.462 1.1.462m-11.638-7.634v-.022zm25.688 7.634q.11 0 .11.088t-.11.088q-.33-.022-1.364-.022H89.09q-1.035 0-1.364.022-.11 0-.11-.088t.11-.088q.726 0 1.056-.484.352-.484.352-1.65v-5.302l-5.258 5.28v.022q0 1.165.33 1.65.352.484 1.078.484.11 0 .11.088t-.11.088q-.353-.022-1.364-.022h-2.618q-1.034 0-1.386.022-.11 0-.11-.088t.11-.088q.726 0 1.078-.484t.352-1.65V71.31q0-1.166-.352-1.65-.352-.506-1.078-.506-.11 0-.11-.088t.11-.088q.704.044 1.386.044h2.618q.66 0 1.364-.044.11 0 .11.088t-.11.088q-.726 0-1.078.506-.33.484-.33 1.65v5.126l5.258-5.28q-.023-1.1-.374-1.54-.33-.462-1.034-.462-.11 0-.11-.088t.11-.088q.66.044 1.364.044h2.618q.704 0 1.364-.044.11 0 .11.088t-.11.088q-.726 0-1.078.506-.33.484-.33 1.65v5.434q0 1.165.33 1.65.352.484 1.078.484m14.254-4.422q-.043.11-.132.11-.066-.022-.022-.154a3.5 3.5 0 0 0 .11-.858q0-1.012-.484-2.046-.483-1.056-1.276-1.738-.792-.682-1.672-.682-2.596 0-2.596 2.97 0 1.627.748 3.036.748 1.386 1.936 2.2 1.21.814 2.442.814 1.584 0 2.42-1.012.088-.088.132-.022.045.045 0 .11-1.737 2.178-4.598 2.178a5.4 5.4 0 0 1-2.596-.638 5 5 0 0 1-1.914-1.804q-.704-1.188-.704-2.728 0-1.496.748-2.772a5.7 5.7 0 0 1 2.068-2.024 5.55 5.55 0 0 1 2.816-.748q1.056 0 1.98.286.924.285 1.408.748.507.44.396.88zm2.432 4.576q-.11 0-.11-.088t.11-.088q.748.022 1.078-.462.351-.484.352-1.65V71.31q0-1.166-.352-1.65-.33-.484-1.056-.484-.11 0-.11-.088t.11-.088q.66.044 1.364.044 2.772-.066 5.038-.066 1.737 0 2.706.594.968.571.968 1.782 0 .792-.682 1.43-.66.616-1.65.726 1.275.066 2.134.748.858.682.858 1.87 0 1.386-1.1 2.178-1.078.792-2.992.792l-5.28-.088zm5.874-5.632q1.122-.132 1.606-.594.483-.484.484-1.474 0-1.078-.572-1.606-.55-.528-1.408-.55l-1.562-.066h-.066q-.22 0-.286.11t-.066.396v8.668q0 .396.11.55.132.132.484.132l1.386-.022q1.122 0 1.738-.638.638-.66.638-1.936 0-1.297-.572-1.98-.55-.705-1.848-.748l-.748-.022q-.088 0-.088-.066t.066-.088zm17.095 1.87q0-.11.066-.11t.066.11q0 1.672-.726 2.86-.705 1.188-1.848 1.188-.837 0-1.408-.55-.572-.572-.638-1.694-.529 1.1-1.408 1.694a3.25 3.25 0 0 1-1.892.594q-1.739 0-2.574-.968a3.44 3.44 0 0 1-.836-2.288q0-1.276 1.144-2.046 1.166-.77 2.904-.77.594 0 1.32.11.748.11 1.342.286v-.968q0-3.388-2.948-3.388-1.21 0-2.068.792-.837.792-.836 2.376 0 .088-.044.132-.045.044-.088.044-.088 0-.088-.176 0-1.232.616-2.09a3.84 3.84 0 0 1 1.584-1.32 4.9 4.9 0 0 1 2.046-.44q4.356 0 4.356 4.07v3.608q0 1.452.748 1.452.726 0 .946-.638.219-.66.264-1.87m-6.644 2.838q2.156 0 2.156-2.618v-.132a2.28 2.28 0 0 0-.924-1.254 2.53 2.53 0 0 0-1.496-.484q-2.178 0-2.178 1.672 0 1.122.638 1.98.637.836 1.804.836m18.202-9.174q.132 0 .132.088 0 .066-.132.088-.771.022-1.188.55-.396.506-.396 1.716v7.502h1.232q.154 0 .154.154l.044.77.132 1.672q.021.132-.066.132-.067 0-.088-.11-.243-1.275-.814-1.87-.55-.594-1.65-.594h-6.204q-1.1 0-1.672.594-.55.594-.792 1.87-.023.11-.11.11-.066 0-.044-.132.132-1.144.132-1.672l.044-.77q0-.154.154-.154h.682q.77 0 1.166-2.442.417-2.442.528-5.654-.088-.902-.484-1.276-.397-.374-1.078-.396-.132-.022-.132-.088.021-.088.132-.088.924.066 1.276.066h7.766q.417 0 1.276-.066m-4.114 9.944v-9.724h-4.466q0 3.145-.374 6.138-.353 2.97-1.1 3.586zm14.455-1.804q.023-.022.066.022.066.044.022.11a5.64 5.64 0 0 1-2.068 1.606q-1.21.55-2.53.55a5.36 5.36 0 0 1-2.574-.638 4.86 4.86 0 0 1-1.892-1.804q-.682-1.188-.682-2.728 0-1.518.748-2.794a5.53 5.53 0 0 1 2.068-2.002 5.6 5.6 0 0 1 2.838-.748q1.716 0 2.86.946 1.144.924 1.144 2.53 0 .726-.264 1.562-2.31.044-7.084.198a6.6 6.6 0 0 0 1.144 2.178 6.2 6.2 0 0 0 1.804 1.496q1.013.528 1.98.528 1.606 0 2.42-1.012m-5.082-8.008q-1.232 0-1.892.77-.638.748-.638 2.266 0 .748.22 1.628a88 88 0 0 0 2.948-.11q.44-.023.902-.044.484-.022.968-.022.198-.33.198-.814 0-.726-.418-1.584a4.5 4.5 0 0 0-1.034-1.474q-.617-.615-1.254-.616m12.633.066q1.561 0 2.794.66 1.254.638 1.958 1.76.726 1.122.726 2.552 0 1.452-.814 2.662-.793 1.21-2.2 1.914-1.386.704-3.058.704-1.497 0-2.706-.594a4.75 4.75 0 0 1-1.892-1.672q-.705-1.078-.748-2.464v-1.122q0-2.815.924-4.752.924-1.935 2.398-2.948a7.35 7.35 0 0 1 3.234-1.232q1.584-.22 2.376-.418.792-.22 1.034-.44a.75.75 0 0 0 .264-.572q0-.11.066-.11.087 0 .11.11.044.352.044.55 0 1.078-.726 1.936-.705.836-2.508 1.144a49 49 0 0 1-2.486.374q-1.32.176-1.914.308a2.45 2.45 0 0 0-.968.44q-.463.307-.682.946-.22.638-.22 1.76 0 .594.022.946.814-1.122 2.134-1.782t2.838-.66m.55 9.768q1.32 0 2.024-.726.726-.726.726-2.178 0-1.232-.66-2.75-.639-1.518-1.672-2.574-1.012-1.078-2.068-1.078-1.276 0-2.002.726-.704.704-.704 2.178 0 1.21.638 2.75.66 1.518 1.672 2.596 1.011 1.056 2.046 1.056m18.918-.022q.11 0 .11.088t-.11.088q-.33-.022-1.364-.022h-2.618q-.968 0-1.298.022-.11 0-.11-.088t.11-.088q.705 0 1.012-.484.33-.484.33-1.65v-2.882q0-.264-.198-.242-1.165.176-2.31.176-1.143 0-2.31-.176h-.022q-.132 0-.132.242v2.882q0 1.165.308 1.65.33.484 1.034.484.11 0 .11.088t-.11.088q-.33-.022-1.298-.022h-2.618q-1.033 0-1.386.022-.11 0-.11-.088t.11-.088q.726 0 1.078-.484t.352-1.65v-5.456q0-1.165-.352-1.65t-1.078-.484q-.11 0-.11-.088t.11-.088l1.386.022h2.618l1.298-.022q.11 0 .11.088t-.11.088q-.704 0-1.034.484-.308.484-.308 1.65v1.914q0 .242.154.264 1.122.176 2.244.176 1.188 0 2.376-.176.11-.022.154-.088a.3.3 0 0 0 .044-.176v-1.914q0-1.165-.33-1.65-.307-.484-1.012-.484-.11 0-.11-.088t.11-.088l1.298.022h2.618l1.364-.022q.11 0 .11.088t-.11.088q-.726 0-1.078.484-.33.484-.33 1.65v5.456q0 1.165.33 1.65.352.484 1.078.484m6.482.506q-1.518 0-2.75-.638a4.93 4.93 0 0 1-1.914-1.848q-.682-1.188-.682-2.706 0-1.54.792-2.794a5.56 5.56 0 0 1 2.156-2.002q1.386-.726 3.036-.726 1.539 0 2.772.66a4.76 4.76 0 0 1 1.958 1.804q.704 1.166.704 2.662a5.25 5.25 0 0 1-.814 2.838q-.792 1.275-2.2 2.024-1.386.726-3.058.726m1.21-.528q1.254 0 1.958-.704.726-.726.726-2.112 0-1.343-.704-2.97-.682-1.628-1.738-2.75-1.035-1.144-2.024-1.144-1.233 0-1.936.704-.704.704-.704 2.112 0 1.32.682 2.97.681 1.628 1.716 2.772 1.055 1.122 2.024 1.122m19.149.022q.11 0 .11.088t-.11.088a26 26 0 0 0-1.364-.022h-2.618q-1.034 0-1.364.022-.11 0-.11-.088t.11-.088q.726 0 1.056-.484.352-.484.352-1.65v-5.302l-5.258 5.28v.022q0 1.165.33 1.65.352.484 1.078.484.11 0 .11.088t-.11.088a27 27 0 0 0-1.364-.022h-2.618q-1.034 0-1.386.022-.11 0-.11-.088t.11-.088q.726 0 1.078-.484t.352-1.65V71.31q0-1.166-.352-1.65-.352-.506-1.078-.506-.11 0-.11-.088t.11-.088q.704.044 1.386.044h2.618q.66 0 1.364-.044.11 0 .11.088t-.11.088q-.726 0-1.078.506-.33.484-.33 1.65v5.126l5.258-5.28q-.022-1.1-.374-1.54-.33-.462-1.034-.462-.11 0-.11-.088t.11-.088q.66.044 1.364.044h2.618q.704 0 1.364-.044.11 0 .11.088t-.11.088q-.726 0-1.078.506-.33.484-.33 1.65v5.434q0 1.165.33 1.65.352.484 1.078.484m-8.712-14.366q.616 0 .814.066t.198.22q0 .835.462 1.54.462.704 1.342.704.968 0 1.364-.704a2.9 2.9 0 0 0 .418-1.518q0-.132.088-.132.11 0 .11.132 0 1.1-.66 1.98-.66.858-2.068.858-.968 0-1.606-.44a2.94 2.94 0 0 1-.924-1.122 3.3 3.3 0 0 1-.286-1.32q0-.132.154-.198.155-.066.594-.066m22.966 9.944q-.043.11-.132.11-.066-.022-.022-.154a3.5 3.5 0 0 0 .11-.858q0-1.012-.484-2.046-.483-1.056-1.276-1.738-.792-.682-1.672-.682-2.595 0-2.596 2.97 0 1.627.748 3.036.748 1.386 1.936 2.2 1.21.814 2.442.814 1.584 0 2.42-1.012.089-.088.132-.022.045.045 0 .11-1.737 2.178-4.598 2.178a5.4 5.4 0 0 1-2.596-.638 5 5 0 0 1-1.914-1.804q-.704-1.188-.704-2.728 0-1.496.748-2.772a5.7 5.7 0 0 1 2.068-2.024 5.55 5.55 0 0 1 2.816-.748q1.056 0 1.98.286.925.285 1.408.748.507.44.396.88zm16.908-.66q0 1.496-.77 2.75t-2.134 2.002q-1.365.748-3.124.836v1.738q0 .924.308 1.518.33.615 1.012.638.11 0 .11.088t-.11.066q-.396-.022-2.574-.022-2.157 0-2.574.022-.11 0-.11-.088 0-.066.11-.066.66 0 .968-.528.33-.506.33-1.628v-1.804l-.462.022q-1.563 0-2.838-.616a5.06 5.06 0 0 1-2.002-1.804q-.726-1.166-.726-2.706 0-1.496.748-2.728.747-1.254 2.09-2.002 1.364-.748 3.146-.814v-1.716q0-1.078-.176-1.43-.177-.374-.528-.374-.177 0-.264.022h-.022q-.154 0-.154-.154 2.463-.638 3.828-1.804h.044q.153 0 .132.154a19 19 0 0 0-.22 1.892q-.066.99-.066 2.552v.924l.44-.022q1.54 0 2.816.638a4.87 4.87 0 0 1 2.024 1.782q.748 1.144.748 2.662M227.24 72.19q0 1.275.396 2.75a7.7 7.7 0 0 0 1.276 2.596q.879 1.1 2.178 1.276l-.044-8.866a1.6 1.6 0 0 0-.506-.528 1.1 1.1 0 0 0-.638-.22q-1.364 0-2.024.748-.638.726-.638 2.244m10.23 3.63q0-1.254-.396-2.728-.397-1.474-1.276-2.574-.858-1.122-2.178-1.276v8.8q.198.352.528.572t.682.242q1.231-.022 1.936-.77t.704-2.266m13.062 1.254q.023-.022.066.022.067.044.022.11a5.64 5.64 0 0 1-2.068 1.606q-1.21.55-2.53.55a5.36 5.36 0 0 1-2.574-.638 4.87 4.87 0 0 1-1.892-1.804q-.681-1.188-.682-2.728 0-1.518.748-2.794a5.54 5.54 0 0 1 2.068-2.002 5.6 5.6 0 0 1 2.838-.748q1.717 0 2.86.946 1.144.924 1.144 2.53 0 .726-.264 1.562-2.31.044-7.084.198.375 1.21 1.144 2.178.792.946 1.804 1.496 1.013.528 1.98.528 1.607 0 2.42-1.012m-5.082-8.008q-1.232 0-1.892.77-.638.748-.638 2.266 0 .748.22 1.628a88 88 0 0 0 2.948-.11q.44-.023.902-.044a21 21 0 0 1 .968-.022q.198-.33.198-.814 0-.726-.418-1.584a4.5 4.5 0 0 0-1.034-1.474q-.615-.615-1.254-.616m13.975-.418q1.144 0 2.09.638.968.615 1.54 1.804.594 1.166.594 2.706 0 1.452-.682 2.75a5.36 5.36 0 0 1-1.826 2.046 4.4 4.4 0 0 1-2.508.77q-.836 0-1.386-.22a5.4 5.4 0 0 1-1.034-.55q-.33-.22-.44-.22-.198 0-.198.374v2.42q0 1.166.308 1.628.33.484.99.528.11 0 .11.066 0 .088-.11.088a49 49 0 0 0-2.288-.044q-1.738 0-2.838.044-.11 0-.11-.088t.11-.088q.66.022.968-.462.33-.484.33-1.694v-9.328q0-.835-.22-1.21-.198-.396-.77-.396-.11 0-.374.044-.088.022-.11-.044 0-.088.066-.11a18 18 0 0 0 2.112-.638q1.1-.396 1.782-.858.11-.066.176-.044.088.023.066.132a23 23 0 0 0-.154 1.936q0 .264.022.506.044.22.11.198.594-1.188 1.474-1.936t2.2-.748m-.616 10.384q1.408 0 2.024-.792.638-.792.638-2.31 0-1.475-.506-2.838-.506-1.365-1.364-2.2-.836-.836-1.826-.836t-1.606.836q-.594.835-.594 2.244v1.474q0 1.914.858 3.168.88 1.254 2.376 1.254m21.38-.154q.11 0 .11.088t-.11.088a27 27 0 0 0-1.364-.022h-2.618q-1.034 0-1.386.022-.087 0-.088-.088 0-.088.088-.088.748 0 1.078-.484.352-.484.352-1.65v-5.522q0-1.165-.352-1.65-.33-.484-1.078-.484-.087 0-.088-.088 0-.088.088-.088l1.386.022h2.618l1.364-.022q.11 0 .11.088t-.11.088q-.726 0-1.078.484-.33.484-.33 1.65v5.522q0 1.165.33 1.65.352.484 1.078.484m-9.724-5.588q4.51-.066 4.51 2.75 0 1.452-1.056 2.222-1.055.77-3.146.77h-4.62q-1.034 0-1.386.022-.11 0-.11-.088t.11-.088q.726 0 1.078-.484t.352-1.65v-5.456q0-1.165-.352-1.65-.351-.484-1.078-.484-.11 0-.11-.088t.11-.088l1.386.022h2.618l1.364-.022q.11 0 .11.088t-.11.088q-.726 0-1.078.484-.33.484-.33 1.65v1.782q0 .242.198.242zm-.352 5.566q1.056-.022 1.628-.77.594-.748.594-2.002 0-1.232-.594-1.914-.594-.705-1.716-.682l-1.1.022q-.198 0-.198.242v4.532q0 .352.088.484.088.11.352.11zm35.579-26.47a.5.5 0 0 0 0-.708l-3.182-3.182a.501.501 0 0 0-.708.708l2.829 2.828-2.829 2.828a.5.5 0 0 0 .708.708zm-21.604-.354v.5h21.25v-1h-21.25z"/></svg>