<svg xmlns="http://www.w3.org/2000/svg" id="Layer_2" viewBox="0 0 652.6 183.83"><defs><style>.st0{fill:#f4cdcb}</style></defs><path d="M96.06 75.22c-1.06.35-2.07.65-3.04.88s-1.85.35-2.64.35-1.47-.15-2.02-.44c-.56-.29-.92-.82-1.1-1.58-.18-.59.01-1.33.57-2.24s1.28-1.86 2.16-2.86 1.8-2.01 2.77-3.04 1.82-1.96 2.55-2.82c.73-.85 1.26-1.55 1.58-2.11s.22-.89-.31-1.01c-.29-.35-.9-.23-1.8.35-.91.59-1.98 1.38-3.21 2.38s-2.54 2.05-3.92 3.17-2.66 2-3.83 2.64h-.09c-.12 0-.22-.12-.31-.35s-.13-.41-.13-.53c1.41-.94 2.87-2.02 4.4-3.26 1.52-1.23 2.98-2.41 4.36-3.52s2.6-2.05 3.65-2.82c1.06-.76 1.85-1.14 2.38-1.14.7-.12 1.28.07 1.72.57s.72.95.84 1.36c.18 1-.16 2.05-1.01 3.17-.85 1.11-2.24 2.55-4.18 4.31-1 .88-1.91 1.83-2.73 2.86s-1.41 1.94-1.76 2.73-.38 1.41-.09 1.85 1.06.54 2.29.31c1.23 0 2.35-.13 3.34-.4 1-.26 2.01-.65 3.04-1.14 1.03-.5 2.14-1.11 3.34-1.85 1.2-.73 2.62-1.57 4.27-2.51.12-.06.21-.12.26-.18.06-.06.15-.09.26-.09.06 0 .09.21.09.62 0 .35-.15.56-.44.62-1.29.88-2.35 1.58-3.17 2.11s-1.6.97-2.33 1.32-1.53.69-2.38 1.01-1.98.75-3.39 1.28Z" class="st0"/><path d="M131.61 68.45c0 .24-.29.59-.88 1.06-2.58 2.17-5.19 3.26-7.83 3.26-1.64 0-3.05-.44-4.22-1.32-2.7 3.52-5.63 5.28-8.8 5.28-2.35 0-3.52-1.47-3.52-4.4 0-3.81 1.88-7.66 5.63-11.53 3.17-3.23 5.48-4.84 6.95-4.84.94 0 1.41.29 1.41.88 0 .18-.18.41-.53.7-1.41.29-3.31 1.79-5.72 4.49-2.93 3.29-4.4 6.45-4.4 9.5 0 2 .7 2.99 2.11 2.99 2.05 0 4.14-1.2 6.25-3.61-1.12-1.23-1.67-2.76-1.67-4.58 0-2.11.53-3.93 1.58-5.46.94-1.29 1.94-1.94 2.99-1.94s1.67.73 1.85 2.2c0 2.58-.91 5.37-2.73 8.36 1 1.11 2.35 1.67 4.05 1.67q3.435 0 6.69-2.82c.18-.18.35-.26.53-.26s.26.12.26.35Zm-9.68-6.78c0-.59-.21-.88-.62-.88-.53 0-1.09.47-1.67 1.41-.59.94-.88 2.14-.88 3.61 0 1.23.26 2.26.79 3.08 1.58-2.46 2.38-4.87 2.38-7.22" class="st0"/><path d="M184.76 68.45q0 .525-1.32 1.41c-4.17 2.82-6.48 4.37-6.95 4.66-2.64 1.58-4.84 2.38-6.6 2.38-1 0-1.83-.35-2.51-1.06-.68-.7-1.01-1.55-1.01-2.55 0-2.93 1.88-7.13 5.63-12.58.29-.41.44-.67.44-.79q0-.09-.09-.09c-.23 0-.65.21-1.23.62-3.29 2.46-6.92 5.19-10.91 8.18-1.7 1.47-4.19 3.52-7.48 6.16-.47.35-1.12.67-1.94.97-.41 0-.62-.29-.62-.88 0-1.17.98-3.06 2.95-5.68 1.96-2.61 2.95-4.44 2.95-5.5q0-1.5-1.41-1.5c-1.41 0-4.22 1.91-8.45 5.72-2.88 2.58-5.4 5.07-7.57 7.48-.82.88-1.47 1.32-1.94 1.32q-1.14 0-1.14-1.23c0-.24.2-.82.62-1.76a347 347 0 0 0 4.14-5.81c2.05-2.93 3.08-5.02 3.08-6.25 0-.53-.18-.79-.53-.79-.18 0-.53.12-1.06.35-2.99 2.23-7.25 5.4-12.76 9.5h-.62c-.41 0-.62-.06-.62-.18 0-.18.32-.47.97-.88 4.11-3.23 8.65-6.72 13.64-10.47.7-.59 1.61-.88 2.73-.88 1.17 0 1.76.53 1.76 1.58 0 .24-.06.59-.18 1.06-1.17 2.05-2.67 4.66-4.49 7.83-.24.41-.35.68-.35.79q0 .09.18.09l.26-.09c2.17-1.88 4.34-3.75 6.51-5.63 3.34-2.82 5.75-4.22 7.22-4.22 1.94 0 2.9.62 2.9 1.85 0 1.06-.57 2.65-1.72 4.8-1.14 2.14-1.72 3.3-1.72 3.48s.06.26.18.26c.23 0 .65-.2 1.23-.62l18.3-13.82c.59-.47 1.2-.7 1.85-.7.41 0 .7.07.88.22s.26.4.26.75c0 .41-.12.76-.35 1.06-1.64 2.35-3.31 4.72-5.02 7.13-2 3.05-2.99 5.69-2.99 7.92 0 1.41.76 2.08 2.29 2.02 1.82-.06 3.87-.79 6.16-2.2 1.88-1.17 3.75-2.35 5.63-3.52.18-.18.35-.26.53-.26s.26.12.26.35Z" class="st0"/><path d="M208.7 68.45c0 .24-.29.59-.88 1.06-2.58 2.17-5.19 3.26-7.83 3.26-1.64 0-3.05-.44-4.22-1.32-2.7 3.52-5.63 5.28-8.8 5.28-2.35 0-3.52-1.47-3.52-4.4 0-3.81 1.88-7.66 5.63-11.53 3.17-3.23 5.48-4.84 6.95-4.84.94 0 1.41.29 1.41.88 0 .18-.18.41-.53.7-1.41.29-3.31 1.79-5.72 4.49-2.93 3.29-4.4 6.45-4.4 9.5 0 2 .7 2.99 2.11 2.99 2.05 0 4.14-1.2 6.25-3.61-1.12-1.23-1.67-2.76-1.67-4.58 0-2.11.53-3.93 1.58-5.46.94-1.29 1.94-1.94 2.99-1.94s1.67.73 1.85 2.2c0 2.58-.91 5.37-2.73 8.36 1 1.11 2.35 1.67 4.05 1.67q3.435 0 6.69-2.82c.18-.18.35-.26.53-.26s.26.12.26.35Zm-9.68-6.78c0-.59-.21-.88-.62-.88-.53 0-1.09.47-1.67 1.41-.59.94-.88 2.14-.88 3.61 0 1.23.26 2.26.79 3.08 1.58-2.46 2.38-4.87 2.38-7.22" class="st0"/><path d="M246.27 13.89c0 5.93-2.85 13.26-8.54 22-4.4 6.81-9.86 13.49-16.37 20.06-5.75 5.87-9.27 8.8-10.56 8.8.18 5.52 1.91 8.27 5.19 8.27 2.52 0 5.25-1.08 8.18-3.26-.59-1.06-.88-2.2-.88-3.43 0-3.99 1.29-5.98 3.87-5.98 1.06 0 1.67.73 1.85 2.2 0 2.05-.88 4.11-2.64 6.16 1 1.64 2.55 2.46 4.66 2.46q3.435 0 6.69-2.82c.18-.18.35-.26.53-.26s.26.12.26.35-.29.59-.88 1.06c-2.58 2.17-5.19 3.26-7.83 3.26-2.17 0-3.9-.73-5.19-2.2-3.46 3.17-6.83 4.75-10.12 4.75-1.94 0-3.54-.81-4.8-2.42q-1.89-2.415-1.89-5.85c0-6.51 2.29-14.4 6.86-23.67 4.16-8.45 9.12-15.94 14.87-22.48s10.38-9.81 13.9-9.81q2.82 0 2.82 2.82Zm-2.55 1.32c0-1.35-.53-2.02-1.58-2.02-2.76 0-6.72 3.32-11.88 9.94q-7.305 9.33-13.11 21.03c-4.11 8.21-6.16 14.4-6.16 18.57 0 .24.06.35.18.35 1.11 0 4.34-2.87 9.68-8.62 5.93-6.34 10.94-12.73 15.05-19.18 5.22-8.21 7.83-14.9 7.83-20.06Zm-15.58 47.87c0-.59-.21-.88-.62-.88-1.23 0-1.85 1.2-1.85 3.61 0 .82.12 1.56.35 2.2 1.41-1.58 2.11-3.23 2.11-4.93Z" class="st0"/><path d="M267.04 68.45q0 .525-1.32 1.41c-7.22 4.87-12.09 7.3-14.61 7.3q-2.46 0-2.46-2.82c0-1.06.21-2.11.62-3.17.59-1.47.88-2.23.88-2.29 0-.23-.09-.35-.26-.35-.06 0-.21.06-.44.18-1.29 1.29-3.17 2.85-5.63 4.66-3.17 2.35-5.37 3.52-6.6 3.52-1.41 0-2.11-.7-2.11-2.11 0-.82 1.03-3.09 3.08-6.82s3.08-5.88 3.08-6.47c0-.64-.53-.97-1.58-.97-.24 0-.35-.35-.35-1.06.53-.18 1.08-.26 1.67-.26 2.05 0 3.08.59 3.08 1.76q0 1.935-2.73 6.51c-1.82 3.05-2.73 4.96-2.73 5.72 0 .47.21.7.62.7.94 0 3.24-1.55 6.91-4.66s6.5-5.92 8.49-8.45c.88-.88 1.52-1.32 1.94-1.32q1.14 0 1.14 1.14c0 .41-.21.94-.62 1.58-3.52 5.28-5.28 8.71-5.28 10.3 0 1.47.67 2.2 2.02 2.2 2.05 0 5.78-1.85 11.18-5.54.29-.23.7-.5 1.23-.79.18-.18.35-.26.53-.26s.26.12.26.35Z" class="st0"/><path d="M285.87 62.2c-.12.29-.46 1-1.01 2.11-.56 1.12-1.16 2.29-1.8 3.52-.65 1.23-1.23 2.39-1.76 3.48s-.79 1.72-.79 1.89c0 .47.21.7.62.7.94 0 3.23-1.55 6.86-4.66 3.64-2.99 6.48-5.81 8.54-8.45.88-.88 1.52-1.32 1.94-1.32q1.14 0 1.14 1.14c0 .47-.21 1-.62 1.58-3.52 5.28-5.28 8.71-5.28 10.3 0 1.47.67 2.2 2.02 2.2 2.05 0 5.78-1.85 11.18-5.54.23-.23.64-.5 1.23-.79.18-.18.35-.26.53-.26s.26.12.26.35q0 .525-1.32 1.41c-7.28 4.87-12.14 7.3-14.61 7.3q-2.46 0-2.46-2.82c0-1.11.21-2.17.62-3.17.59-1.41.88-2.17.88-2.29 0-.23-.09-.35-.26-.35.06 0-.09.06-.44.18-.65.65-1.44 1.35-2.38 2.11s-2.02 1.61-3.26 2.55c-3.11 2.35-5.31 3.52-6.6 3.52-1.41 0-2.11-.7-2.11-2.11 0-.41.23-1.08.7-2.02s1.2-2.35 2.2-4.22c.06 0-.09.06-.44.18-.65.65-1.44 1.35-2.38 2.11s-2.02 1.61-3.26 2.55c-3.11 2.35-5.31 3.52-6.6 3.52-1.41 0-2.11-.7-2.11-2.11 0-.76 1.03-3.02 3.08-6.78 2.05-3.81 3.08-5.98 3.08-6.51 0-.64-.53-.97-1.58-.97-.24 0-.35-.35-.35-1.06.53-.18 1.08-.26 1.67-.26 2.05 0 3.08.59 3.08 1.76q0 1.935-2.73 6.51c-1.82 3.05-2.73 4.96-2.73 5.72 0 .47.21.7.62.7.94 0 3.23-1.55 6.86-4.66 1.41-1.17 2.77-2.51 4.09-4s2.39-2.98 3.21-4.44c.88-.88 1.53-1.32 1.94-1.32q1.14 0 1.14 1.14c0 .47-.21 1-.62 1.58Z" class="st0"/><path d="M310.16 71.62c0 1.58.64 2.38 1.94 2.38.94 0 1.88-.26 2.82-.79s1.85-1.2 2.73-2.02c-.88-.88-1.32-1.96-1.32-3.26 0-1.41.4-2.62 1.19-3.65s1.69-1.54 2.68-1.54 1.58.47 1.76 1.41c0 .88-.15 1.83-.44 2.86s-.82 2.13-1.58 3.3c.88.88 2.11 1.32 3.7 1.32 1.94 0 3.93-.79 5.98-2.38.18-.18.32-.26.44-.26.18 0 .26.12.26.35 0 .47-.32.91-.97 1.32s-1.39.79-2.24 1.14-1.72.63-2.6.84-1.55.31-2.02.31c-.82 0-1.47-.1-1.94-.31s-.97-.51-1.5-.92c-1.23 1.47-2.64 2.61-4.22 3.43s-3.11 1.23-4.58 1.23c-1.12 0-1.94-.46-2.46-1.36-.53-.91-.79-1.95-.79-3.12 0-.76.34-1.99 1.01-3.7.67-1.7 1.51-3.43 2.51-5.19q1.5-2.64 3.3-4.62t3.3-1.98c.47.12.7.26.7.44 0 .06-.48.73-1.45 2.02s-1.95 2.79-2.95 4.49-1.79 3.3-2.38 4.8-.88 2.66-.88 3.48Zm10.82-7.13c.23-.12.25-.22.04-.31s-.43-.13-.66-.13c-.47 0-.92.32-1.36.97q-.66.975-.66 2.55c0 .88.21 1.61.62 2.2.7-.88 1.22-1.8 1.54-2.77s.48-1.74.48-2.33z" class="st0"/><path d="M349.58 68.45c0 .24-.44.7-1.32 1.41-2.35 1.53-4.66 3.05-6.95 4.58-3.34 1.99-6.07 2.99-8.18 2.99-1.23 0-2.32-.44-3.26-1.32s-1.41-1.88-1.41-2.99c0-3.87 1.88-7.42 5.63-10.65 3.34-2.87 6.45-4.31 9.33-4.31 1.82 0 2.73.73 2.73 2.2 0 .82-1.2 2.44-3.61 4.84-.23.23-.5.35-.79.35-.47 0-.7-.26-.7-.79 0-.23.09-.43.26-.57.18-.15.53-.79 1.06-1.94.53-1.14.79-2.01.79-2.6 0-.18-.21-.26-.62-.26-1.47 0-3.61 1.2-6.42 3.61-3.4 2.88-5.1 5.84-5.1 8.89 0 2.23.97 3.34 2.9 3.34 2.99 0 7.54-2.02 13.64-6.07.29-.23.7-.5 1.23-.79.18-.18.35-.26.53-.26s.26.12.26.35Z" class="st0"/><path d="M367.71 65.72c.88-.88 1.53-1.32 1.94-1.32q1.14 0 1.14 1.14c0 .47-.21 1-.62 1.58-.7 1.06-1.29 1.98-1.76 2.77s-.76 1.45-.88 1.98 0 .94.35 1.23 1.03.44 2.02.44c2.05 0 5.78-1.85 11.18-5.54.12-.12.4-.32.84-.62.44-.29.75-.44.92-.44s.26.12.26.35q0 .525-1.32 1.41c-7.27 4.87-12.14 7.3-14.61 7.3q-2.46 0-2.46-2.82c0-.82.12-1.61.35-2.38.23-.76.47-1.38.7-1.85-.41 0-.81-.03-1.19-.09s-.78-.12-1.19-.18c-1.06.76-2.26 1.54-3.61 2.33s-2.7 1.51-4.05 2.16-2.63 1.16-3.83 1.54-2.19.54-2.95.48c-.82-.06-1.57-.25-2.24-.57s-1.01-1.04-1.01-2.16c0-.64.16-1.2.48-1.67s.66-.7 1.01-.7c.29 0 .53.15.7.44.18.29.38.63.62 1.01.23.38.5.72.79 1.01s.7.44 1.23.44h.53c.18 0 .54-.09 1.1-.26.56-.18 1.33-.5 2.33-.97q2.205-1.05 3.96-1.8c1.17-.5 2.26-1.07 3.26-1.72-1.12-.23-2.17-.62-3.17-1.14-1.41-.7-2.02-1.99-1.85-3.87.12-1.29.65-2.35 1.58-3.17.94-.82 2.01-1.41 3.21-1.76s2.4-.45 3.61-.31c1.2.15 2.13.56 2.77 1.23s.89 1.6.75 2.77c-.15 1.17-.98 2.64-2.51 4.4l-.57.57q-.315.315-.75.57l1.5.44c.06-.12.18-.31.35-.57.18-.26.35-.53.53-.79s.32-.48.44-.66.15-.26.09-.26Zm-1.67-1.67c.18-.29.34-.56.48-.79.15-.23.28-.5.4-.79.18-.47.28-.97.31-1.5q.045-.795-.57-1.5c-.53-.59-1.39-.72-2.6-.4-1.2.32-2.27.9-3.21 1.72s-1.54 1.78-1.8 2.86c-.26 1.09.25 2.04 1.54 2.86l2.64.7q.705-.615 1.41-1.41c.47-.53.94-1.11 1.41-1.76Zm69.43-47.79c0 5.98-2.82 13-8.45 21.03-4.28 6.16-9.65 12.2-16.1 18.13-5.57 5.1-8.95 7.66-10.12 7.66-2.76 5.69-4.14 8.98-4.14 9.86 3.34-3.23 6.72-6.45 10.12-9.68 6.69-5.92 11.62-8.89 14.78-8.89 1.23.18 1.85.7 1.85 1.58 0 2.52-1.17 4.69-3.52 6.51a240 240 0 0 1-6.6 3.96c-2.35 1.47-3.52 3.02-3.52 4.66 0 2.58 1.03 3.87 3.08 3.87 2.41 0 6.66-1.94 12.76-5.81.29-.23.7-.5 1.23-.79.18-.18.35-.26.53-.26s.26.12.26.35q0 .09-1.14 1.23c-1.41 1.41-3.84 2.98-7.3 4.71s-6.04 2.6-7.74 2.6c-3.17 0-4.75-1.53-4.75-4.58 0-2.35 1.17-4.31 3.52-5.9 2.11-1.23 4.3-2.51 6.56-3.83q3.39-1.98 3.39-4.71 0-1.23-1.14-1.23c-1.88 0-6.41 3.36-13.6 10.08s-11.04 10.08-11.57 10.08c-.7-.06-1.06-.38-1.06-.97 0-.41.18-.91.53-1.5 2.82-5.75 5.63-11.5 8.45-17.25 5.92-12.03 11.18-21.59 15.75-28.69 6.51-10.03 11.56-15.05 15.14-15.05q2.82 0 2.82 2.82Zm-2.56 1.32c0-1.35-.53-2.02-1.58-2.02-5.28 1.35-15.17 16.63-29.66 45.85 1.58-.53 4.87-3.31 9.86-8.36 5.63-5.75 10.35-11.5 14.17-17.25 4.81-7.27 7.22-13.35 7.22-18.22Zm29.04 50.87c0 .24-.44.7-1.32 1.41-2.35 1.53-4.66 3.05-6.95 4.58-3.34 1.99-6.07 2.99-8.18 2.99-1.23 0-2.32-.44-3.26-1.32s-1.41-1.88-1.41-2.99c0-3.87 1.88-7.42 5.63-10.65 3.34-2.87 6.45-4.31 9.33-4.31 1.82 0 2.73.73 2.73 2.2 0 .82-1.2 2.44-3.61 4.84-.23.23-.5.35-.79.35-.47 0-.7-.26-.7-.79 0-.23.09-.43.26-.57.18-.15.53-.79 1.06-1.94.53-1.14.79-2.01.79-2.6 0-.18-.21-.26-.62-.26-1.47 0-3.61 1.2-6.42 3.61-3.4 2.88-5.1 5.84-5.1 8.89 0 2.23.97 3.34 2.9 3.34 2.99 0 7.54-2.02 13.64-6.07.29-.23.7-.5 1.23-.79.18-.18.35-.26.53-.26s.26.12.26.35Z" class="st0"/><path d="M499.44 13.89c0 5.93-2.85 13.26-8.54 22-4.4 6.81-9.86 13.49-16.37 20.06-5.75 5.87-9.27 8.8-10.56 8.8.18 5.52 1.91 8.27 5.19 8.27 2.52 0 5.25-1.08 8.18-3.26-.59-1.06-.88-2.2-.88-3.43 0-3.99 1.29-5.98 3.87-5.98 1.06 0 1.67.73 1.85 2.2 0 2.05-.88 4.11-2.64 6.16 1 1.64 2.55 2.46 4.66 2.46q3.435 0 6.69-2.82c.18-.18.35-.26.53-.26s.26.12.26.35-.29.59-.88 1.06c-2.58 2.17-5.19 3.26-7.83 3.26-2.17 0-3.9-.73-5.19-2.2-3.46 3.17-6.84 4.75-10.12 4.75-1.94 0-3.54-.81-4.8-2.42q-1.89-2.415-1.89-5.85c0-6.51 2.29-14.4 6.86-23.67 4.17-8.45 9.12-15.94 14.87-22.48s10.38-9.81 13.9-9.81q2.82 0 2.82 2.82Zm-2.55 1.32c0-1.35-.53-2.02-1.58-2.02-2.76 0-6.72 3.32-11.88 9.94q-7.305 9.33-13.11 21.03c-4.11 8.21-6.16 14.4-6.16 18.57 0 .24.06.35.18.35 1.11 0 4.34-2.87 9.68-8.62 5.92-6.34 10.94-12.73 15.05-19.18 5.22-8.21 7.83-14.9 7.83-20.06Zm-15.58 47.87c0-.59-.21-.88-.62-.88-1.23 0-1.85 1.2-1.85 3.61 0 .82.12 1.56.35 2.2 1.41-1.58 2.11-3.23 2.11-4.93Z" class="st0"/><path d="M519.15 68.45q0 1.05-5.46 4.05c-3.81 2.11-6.54 3.17-8.18 3.17-3.05 0-4.58-1.61-4.58-4.84 0-.88.47-1.88 1.41-2.99q0-.09-.09-.09c.06 0-1.53 1.22-4.75 3.65-3.23 2.44-5.54 3.65-6.95 3.65s-2.02-.56-2.02-1.67q0-4.05 6.78-9.42c4.28-3.46 7.63-5.19 10.03-5.19.35.06.75.25 1.19.57q.66.48.66.75 0 .09-.09.18c-3.29 0-7.48 2.55-12.58 7.66q-2.46 2.46-2.46 4.14c0 .41.2.62.62.62 1.29 0 3.75-1.5 7.39-4.49 2.93-2.46 5.02-4.43 6.25-5.9.59-.7 1-1.06 1.23-1.06.59 0 .88.41.88 1.23 0 .29-.38.97-1.14 2.02q-3.78 5.19-3.78 6.6 0 2.46 2.73 2.46c2.99 0 7.04-1.73 12.14-5.19.18-.18.35-.26.53-.26s.26.12.26.35Z" class="st0"/><path d="M545.46 68.45c-.24.76-2.26 2.27-6.07 4.53s-7.07 4.27-9.77 6.03c-8.39 16.43-13.61 26.34-15.66 29.74q-8.715 14.43-14.52 14.43c-1.76 0-2.64-1.14-2.64-3.43q0-20.235 30.54-40.83c1.35-2.64 3.81-7.66 7.39-15.05q0-.09-.18-.09c-.18 0-.32.15-.62.44-1.17 1.12-2.73 2.55-4.66 4.31-4.17 3.87-7.57 5.81-10.21 5.81-1.23 0-1.85-.73-1.85-2.2 0-2.64 1.91-5.69 5.72-9.15 4.11-3.75 8.12-5.63 12.06-5.63 1.11 0 2.05.23 2.82.7l1.85-2.55c.41-.53.82-.79 1.23-.79q1.14 0 1.14 1.23c0 .41-.15.82-.44 1.23-2.76 4.11-6.37 10.62-10.82 19.54 2.99-1.88 5.72-3.46 8.18-4.75 2.93-1.7 4.84-2.9 5.72-3.61.18-.18.35-.26.53-.26s.26.12.26.35M526.1 81.47c-17.89 12.67-26.84 25.2-26.84 37.58 0 1.52.5 2.29 1.5 2.29 3.75 0 12.2-13.29 25.34-39.86Zm11.09-22.35c0-.23-.26-.35-.79-.35q-4.755 0-10.38 4.53c-3.75 3.02-5.63 5.71-5.63 8.05 0 .7.32 1.06.97 1.06 2.41 0 7.54-4.19 15.4-12.58.29-.41.44-.65.44-.7Z" class="st0"/><path d="M546.96 71.62c0 1.58.64 2.38 1.94 2.38.94 0 1.88-.26 2.82-.79s1.85-1.2 2.73-2.02c-.88-.88-1.32-1.96-1.32-3.26 0-1.41.4-2.62 1.19-3.65s1.69-1.54 2.68-1.54 1.58.47 1.76 1.41c0 .88-.15 1.83-.44 2.86s-.82 2.13-1.58 3.3c.88.88 2.11 1.32 3.7 1.32 1.94 0 3.93-.79 5.98-2.38.18-.18.32-.26.44-.26.18 0 .26.12.26.35 0 .47-.32.91-.97 1.32s-1.39.79-2.24 1.14-1.72.63-2.6.84-1.55.31-2.02.31c-.82 0-1.47-.1-1.94-.31s-.97-.51-1.5-.92c-1.23 1.47-2.64 2.61-4.22 3.43s-3.11 1.23-4.58 1.23c-1.12 0-1.94-.46-2.46-1.36-.53-.91-.79-1.95-.79-3.12 0-.76.34-1.99 1.01-3.7.67-1.7 1.51-3.43 2.51-5.19q1.5-2.64 3.3-4.62t3.3-1.98c.47.12.7.26.7.44 0 .06-.48.73-1.45 2.02s-1.95 2.79-2.95 4.49-1.79 3.3-2.38 4.8-.88 2.66-.88 3.48Zm10.82-7.13c.23-.12.25-.22.04-.31s-.43-.13-.66-.13c-.47 0-.92.32-1.36.97q-.66.975-.66 2.55c0 .88.21 1.61.62 2.2.7-.88 1.22-1.8 1.54-2.77s.48-1.74.48-2.33z" class="st0"/><path d="M601.43 32.81c-.7.06-1.86.07-3.48.04-1.61-.03-3.46 0-5.54.09s-4.21.26-6.38.53q-3.255.39-5.94 1.32c-1.79.62-3.23 1.41-4.31 2.38-1.09.97-1.57 2.24-1.45 3.83.12 1.17.67 2.51 1.67 4 1 1.5 2.05 3.14 3.17 4.93a35 35 0 0 1 2.82 5.63c.76 1.97.97 4 .62 6.12 0 1.29-.26 2.8-.79 4.53s-1.41 3.36-2.64 4.88q-2.025 2.64-4.62 4.14c-1.73 1-3.39 1.5-4.97 1.5-2.35 0-3.52-1.47-3.52-4.4 0-3.87 1.88-7.71 5.63-11.53 3.17-3.23 5.48-4.84 6.95-4.84.94 0 1.41.29 1.41.88 0 .24-.18.47-.53.7-1.47.29-3.38 1.79-5.72 4.49-2.93 3.29-4.4 6.45-4.4 9.5 0 2 .7 2.99 2.11 2.99 2.05 0 4.14-1.2 6.25-3.61.53-.7 1.03-1.47 1.5-2.29q.705-1.23 1.23-2.46c.35-.82.63-1.63.84-2.42s.31-1.48.31-2.07c0-1.41-.09-2.58-.26-3.52-.18-.94-.44-1.77-.79-2.51q-.525-1.095-1.32-2.16c-.53-.7-1.12-1.55-1.76-2.55-.7-1.06-1.38-2.08-2.02-3.08-.65-1-1.2-1.99-1.67-2.99s-.78-1.99-.92-2.99c-.15-1-.04-2.02.31-3.08.88-1.41 2.23-2.64 4.05-3.7s3.86-1.92 6.12-2.6c2.26-.67 4.63-1.19 7.13-1.54 2.49-.35 4.88-.56 7.17-.62s4.37.03 6.25.26 3.31.56 4.31.97c.82.35 1.19.66 1.1.92s-.81.37-2.16.31h-5.72Zm4.66 35.64c0 .41-1.2 1.38-3.61 2.9-5.93 3.76-10.18 5.63-12.76 5.63-3.81 0-5.72-2.23-5.72-6.69 0-3.29 1.6-6.58 4.8-9.9 3.2-3.31 6.23-4.97 9.11-4.97q1.32 0 1.32 1.23c0 2-1.73 4.81-5.19 8.45-2.76 2.88-5.02 4.84-6.78 5.9.18 2.58 1.41 3.87 3.7 3.87 2.17 0 5.81-1.47 10.91-4.4.41-.23 1.55-.94 3.43-2.11.18-.18.35-.26.53-.26s.26.12.26.35m-9.59-10.12c0-.7-.21-1.06-.62-1.06-1.47 0-3.26 1.47-5.37 4.4s-3.2 5.57-3.26 7.92c1.11-.35 2.87-1.88 5.28-4.58q3.96-4.395 3.96-6.69Zm21.12 15.49c0 .65-.35 1.26-1.06 1.85-.7.59-1.32.88-1.85.88-1.12 0-1.73-.59-1.85-1.76 0-.82.32-1.47.97-1.94s1.26-.7 1.85-.7c1.29 0 1.94.56 1.94 1.67m29.21-44.62q0 5.1-7.68 10.65c-4.77 3.11-9.53 6.25-14.3 9.42-5.12 3.76-7.68 7.45-7.68 11.09 0 3.29 1.23 5.13 3.7 5.54 0 1.06-.47 1.58-1.41 1.58q-2.115 0-3.48-1.32c-.91-.88-1.36-2.05-1.36-3.52 0-4.69 2.48-9.03 7.46-13.02q6.93-4.485 13.95-9.06c4.97-3.4 7.46-6.75 7.46-10.03 0-2.29-.8-4.14-2.41-5.54-1.61-1.41-3.87-2.11-6.79-2.11q-5.7 0-10.35 4.05c-3.39 2.99-5.09 6.63-5.09 10.91l.18 1.14c0 .59-.41.88-1.23.88-.88 0-1.32-.7-1.32-2.11 0-4.46 2.43-8.51 7.3-12.14 4.52-3.29 9-4.93 13.46-4.93 2.99 0 5.34.78 7.04 2.33 1.7 1.56 2.55 3.62 2.55 6.2ZM30.58 103.6q0 .18-.18.18c-.65 0-1.18.28-1.61.84s-.96 1.61-1.61 3.17l-6.86 16.24c-.94 2.11-1.8 3.79-2.57 5.04-.78 1.25-1.62 2.18-2.53 2.79-.91.62-1.95.92-3.12.92-1.29 0-2.46-.31-3.52-.92-1.06-.62-1.64-1.33-1.76-2.16-.03-.41.16-1.06.57-1.96s.82-1.61 1.23-2.16c.41-.54.6-.58.57-.11-.03.62.18 1.41.64 2.38.45.97 1.05 1.82 1.78 2.55s1.51 1.1 2.33 1.1 1.6-.34 2.24-1.01q.96-1.02 1.98-3.3c.09-.44 0-1.06-.29-1.87-.28-.81-.59-1.58-.95-2.31l-6.42-15.22c-.65-1.55-1.18-2.61-1.61-3.17s-.96-.84-1.61-.84q-.18 0-.18-.18c0-.18.06-.18.18-.18l1.94.04h5.59l3.26-.04c.21 0 .31.06.31.18s-.1.18-.31.18c-1.76 0-2.64.65-2.64 1.94q0 .93.48 2.07l5.19 12.23c.06.18.14.27.24.29s.18-.07.24-.24l5.19-12.28c.35-.85.53-1.52.53-2.02q0-1.98-2.82-1.98c-.18 0-.26-.06-.26-.18s.09-.18.26-.18l3.43.04h.53l1.94-.04q.18 0 .18.18Zm37.18 19.8c0 .12-.07.18-.22.18-.44-.03-1.35-.04-2.73-.04h-5.24c-1.29 0-2.16.01-2.6.04-.15 0-.22-.06-.22-.18s.07-.18.22-.18c.94 0 1.62-.32 2.05-.97.42-.65.64-1.75.64-3.3v-5.76c0-.35-.13-.51-.4-.48-1.56.24-3.1.35-4.62.35s-3.07-.12-4.62-.35h-.04c-.18 0-.26.16-.26.48v5.76c0 1.56.21 2.66.64 3.3.42.65 1.11.97 2.05.97.15 0 .22.06.22.18s-.07.18-.22.18c-.44-.03-1.31-.04-2.6-.04h-5.24c-1.38 0-2.3.01-2.77.04-.15 0-.22-.06-.22-.18s.07-.18.22-.18c.97 0 1.69-.32 2.16-.97s.7-1.75.7-3.3v-10.91c0-1.55-.23-2.65-.7-3.3s-1.19-.97-2.16-.97c-.15 0-.22-.06-.22-.18s.07-.18.22-.18l2.77.04h5.24l2.6-.04c.15 0 .22.06.22.18s-.07.18-.22.18c-.94 0-1.62.32-2.05.97s-.64 1.75-.64 3.3v3.83c0 .32.1.5.31.53 1.5.23 2.99.35 4.49.35 1.58 0 3.17-.12 4.75-.35.15-.03.25-.09.31-.18s.09-.2.09-.35v-3.83c0-1.55-.21-2.65-.64-3.3s-1.11-.97-2.05-.97c-.15 0-.22-.06-.22-.18s.07-.18.22-.18l2.6.04h5.24l2.73-.04c.15 0 .22.06.22.18s-.07.18-.22.18c-.97 0-1.68.32-2.13.97-.46.65-.68 1.75-.68 3.3v10.91c0 1.56.23 2.66.68 3.3.45.65 1.17.97 2.13.97.15 0 .22.06.22.18Zm24.59-7.61c.09 0 .13.07.13.22 0 2.23-.48 4.14-1.43 5.72s-2.19 2.38-3.72 2.38c-1.12 0-2.05-.37-2.82-1.12s-1.19-1.87-1.28-3.37q-1.05 2.205-2.79 3.39c-1.74 1.185-2.43 1.19-3.81 1.19-2.32 0-4.03-.65-5.15-1.96-1.11-1.31-1.67-2.82-1.67-4.55s.77-3.06 2.31-4.09 3.47-1.54 5.79-1.54c.79 0 1.68.07 2.66.22s1.87.34 2.66.57v-1.94c0-4.52-1.96-6.78-5.9-6.78-1.61 0-2.99.53-4.11 1.58-1.13 1.06-1.69 2.64-1.69 4.75 0 .12-.03.21-.09.26q-.09.09-.18.09c-.12 0-.18-.12-.18-.35q0-2.46 1.23-4.2a7.77 7.77 0 0 1 3.17-2.62c1.29-.59 2.65-.88 4.09-.88 5.81 0 8.71 2.71 8.71 8.14v7.22c0 1.94.5 2.9 1.5 2.9s1.6-.43 1.89-1.3c.29-.86.47-2.1.53-3.72 0-.15.04-.22.13-.22Zm-9.1.66v-.26c-.32-1.06-.94-1.9-1.85-2.53s-1.91-.95-2.99-.95c-2.9 0-4.36 1.12-4.36 3.34 0 1.5.42 2.81 1.28 3.94.85 1.13 2.05 1.69 3.61 1.69 2.87 0 4.31-1.74 4.31-5.24Zm26.13-2.07c-.06.15-.14.21-.24.2s-.12-.11-.07-.29c.15-.59.22-1.16.22-1.72 0-1.35-.32-2.72-.97-4.11q-.975-2.085-2.55-3.45c-1.06-.91-2.17-1.36-3.34-1.36q-5.19 0-5.19 5.94c0 2.17.5 4.19 1.5 6.05s2.29 3.34 3.89 4.42c1.6 1.09 3.22 1.63 4.86 1.63 2.11 0 3.72-.67 4.84-2.02.12-.12.21-.14.26-.07q.09.105 0 .24c-2.32 2.9-5.38 4.36-9.2 4.36-1.88 0-3.61-.43-5.19-1.28q-2.37-1.275-3.81-3.63c-.95-1.57-1.43-3.38-1.43-5.43s.51-3.84 1.52-5.54q1.515-2.55 4.11-4.05c1.73-1 3.61-1.5 5.63-1.5q2.115 0 3.96.57c1.23.38 2.18.87 2.84 1.47s.92 1.2.77 1.78l-2.42 7.79Zm40.22 9.02c0 .12-.07.18-.22.18-.44-.03-1.35-.04-2.73-.04h-5.24c-1.29 0-2.16.01-2.6.04-.15 0-.22-.06-.22-.18s.07-.18.22-.18c.94 0 1.62-.32 2.05-.97s.64-1.75.64-3.3v-15.18H132v15.18c0 1.56.21 2.66.64 3.3.42.65 1.11.97 2.05.97.15 0 .22.06.22.18s-.07.18-.22.18c-.44-.03-1.31-.04-2.6-.04h-5.24c-1.38 0-2.3.01-2.77.04-.15 0-.22-.06-.22-.18s.07-.18.22-.18c.97 0 1.69-.32 2.16-.97s.7-1.75.7-3.3v-10.91c0-1.55-.24-2.65-.7-3.3-.47-.65-1.19-.97-2.16-.97-.15 0-.22-.06-.22-.18s.07-.18.22-.18l2.77.04h19.8l2.6-.04c.15 0 .22.06.22.18s-.07.18-.22.18c-.94 0-1.62.32-2.05.97-.42.65-.64 1.75-.64 3.3v10.91c0 1.56.23 2.66.68 3.3.45.65 1.17.97 2.13.97.15 0 .22.06.22.18Zm21.75-19.38c1.28.84 2.3 2.04 3.08 3.61q1.17 2.355 1.17 5.43c0 1.94-.45 3.76-1.34 5.48-.9 1.72-2.11 3.09-3.65 4.11s-3.22 1.54-5.04 1.54c-1.12 0-2.04-.15-2.77-.44s-1.42-.66-2.07-1.1c-.44-.29-.73-.44-.88-.44-.26 0-.4.25-.4.75v4.84c0 1.55.21 2.65.64 3.28.42.63 1.08.98 1.96 1.03.15 0 .22.05.22.15s-.07.15-.22.15c-1.23-.06-2.76-.09-4.58-.09-2.32 0-4.21.03-5.68.09-.15 0-.22-.06-.22-.18s.07-.18.22-.18c.88.03 1.53-.28 1.96-.92.43-.65.64-1.77.64-3.39v-18.66c0-1.11-.14-1.93-.42-2.44s-.8-.77-1.56-.77q-.225 0-.75.09c-.12.03-.18 0-.2-.11-.02-.1.02-.17.11-.2 1.38-.32 2.79-.75 4.25-1.28 1.45-.53 2.63-1.1 3.54-1.72.15-.09.27-.12.37-.09s.14.12.11.26c-.18 1.53-.28 2.82-.31 3.87 0 .35.02.68.07.99s.11.45.2.42c.79-1.58 1.77-2.87 2.95-3.87 1.17-1 2.64-1.5 4.4-1.5 1.52 0 2.93.42 4.2 1.25Zm-1.36 17.93c.84-1.06 1.25-2.6 1.25-4.62s-.34-3.86-1.01-5.68-1.58-3.29-2.71-4.4-2.35-1.67-3.67-1.67-2.38.56-3.19 1.67-1.21 2.61-1.21 4.49v2.95c0 2.55.58 4.66 1.74 6.34 1.16 1.67 2.73 2.51 4.73 2.51 1.88 0 3.23-.53 4.07-1.58Zm13.29.99a9.53 9.53 0 0 1-3.83-3.67c-.92-1.58-1.39-3.39-1.39-5.41s.53-3.92 1.58-5.61c1.06-1.69 2.5-3.01 4.33-3.98s3.85-1.45 6.05-1.45c2.05 0 3.91.43 5.57 1.3s2.96 2.08 3.89 3.63c.94 1.56 1.41 3.33 1.41 5.32s-.54 3.94-1.61 5.65c-1.07 1.72-2.54 3.07-4.4 4.05s-3.91 1.47-6.14 1.47c-2.02 0-3.85-.43-5.48-1.3Zm11.83-1.19c.95-.95 1.43-2.35 1.43-4.2s-.46-3.77-1.39-5.94q-1.38-3.255-3.48-5.52c-1.39-1.51-2.75-2.27-4.07-2.27q-2.46 0-3.87 1.41c-.94.94-1.41 2.35-1.41 4.22 0 1.76.45 3.73 1.36 5.92s2.06 4.03 3.45 5.54 2.74 2.27 4.03 2.27c1.67 0 2.98-.48 3.94-1.43Z" class="st0"/><path d="M223.6 123.4c0 .12-.07.18-.22.18-.44-.03-1.35-.04-2.73-.04h-5.98c-1.38 0-2.3.01-2.77.04q-.18 0-.18-.18c0-.18.06-.18.18-.18.65 0 1.15-.12 1.52-.35s.55-.59.55-1.06c0-.59-.31-1.36-.92-2.33l-3.92-5.98-4.05 5.98c-.65 1-.97 1.77-.97 2.33 0 .94.67 1.41 2.02 1.41.15 0 .22.06.22.18s-.07.18-.22.18c-.47-.03-1.39-.04-2.77-.04h-.57c-1.38 0-2.29.01-2.73.04-.15 0-.22-.06-.22-.18s.07-.18.22-.18c.88 0 1.62-.26 2.22-.77s1.39-1.5 2.35-2.97l4.31-6.29-3.7-5.68c-.97-1.47-1.72-2.46-2.27-2.97s-1.21-.77-2-.77q-.18 0-.18-.18c0-.18.06-.18.18-.18l2.46.04h6.03l2.99-.04c.15 0 .22.06.22.18s-.07.18-.22.18c-.7 0-1.25.12-1.65.37s-.59.62-.59 1.12c0 .62.29 1.36.88 2.24l3.04 4.66 3.21-4.66c.62-.91.92-1.67.92-2.29 0-.5-.2-.86-.59-1.1-.4-.23-.95-.35-1.65-.35-.18 0-.26-.06-.26-.18s.09-.18.26-.18l2.99.04h.62l2.73-.04c.15 0 .22.06.22.18s-.07.18-.22.18c-.91 0-1.67.26-2.27.79s-1.39 1.51-2.35 2.95l-3.43 5.02 4.53 6.95c.94 1.44 1.71 2.42 2.31 2.95s1.34.79 2.22.79c.15 0 .22.06.22.18Z" class="st0"/><path d="M227.98 122.94a9.53 9.53 0 0 1-3.83-3.67c-.92-1.58-1.39-3.39-1.39-5.41s.53-3.92 1.58-5.61c1.06-1.69 2.5-3.01 4.33-3.98s3.85-1.45 6.05-1.45c2.05 0 3.91.43 5.57 1.3s2.96 2.08 3.89 3.63c.94 1.56 1.41 3.33 1.41 5.32s-.54 3.94-1.61 5.65c-1.07 1.72-2.54 3.07-4.4 4.05s-3.91 1.47-6.14 1.47c-2.02 0-3.85-.43-5.48-1.3Zm11.84-1.19c.95-.95 1.43-2.35 1.43-4.2s-.46-3.77-1.39-5.94q-1.38-3.255-3.48-5.52c-1.39-1.51-2.75-2.27-4.07-2.27q-2.46 0-3.87 1.41c-.94.94-1.41 2.35-1.41 4.22 0 1.76.45 3.73 1.36 5.92s2.06 4.03 3.45 5.54 2.74 2.27 4.03 2.27c1.67 0 2.98-.48 3.94-1.43Zm30.42-18.26c0 .1-.09.17-.26.2-1.03.03-1.81.39-2.35 1.08q-.81 1.035-.81 3.45v15h2.46c.21 0 .31.1.31.31l.09 1.54c.15 1.85.23 2.96.26 3.34.03.18 0 .26-.11.26s-.17-.07-.2-.22c-.32-1.7-.86-2.95-1.61-3.74s-1.86-1.19-3.32-1.19h-12.41c-1.47 0-2.57.4-3.32 1.19s-1.28 2.04-1.61 3.74c-.03.15-.1.22-.2.22s-.14-.09-.11-.26c.18-1.53.26-2.64.26-3.34l.09-1.54c0-.21.1-.31.31-.31h1.36c1.03 0 1.81-1.63 2.35-4.88.54-3.26.89-7.02 1.03-11.31-.12-1.2-.44-2.05-.97-2.55s-1.25-.76-2.16-.79c-.18-.03-.26-.09-.24-.2q.015-.15.24-.15c1.23.09 2.08.13 2.55.13h15.53c.56 0 1.41-.04 2.55-.13.18 0 .26.05.26.15Zm-8.49 19.74v-19.45h-8.93c0 4.19-.24 8.28-.73 12.25-.48 3.98-1.22 6.37-2.22 7.19h11.88Zm31.81.17c0 .12-.07.18-.22.18-.47-.03-1.39-.04-2.77-.04h-5.24c-1.35 0-2.26.01-2.73.04-.15 0-.22-.06-.22-.18s.07-.18.22-.18c.97 0 1.68-.32 2.13-.97s.68-1.75.68-3.3v-12.76q0-2.07-1.23-2.16l-1.54-.04c-1.17-.03-2.05.12-2.62.44s-.94.81-1.1 1.47-.24 1.62-.24 2.88.21 2.19.64 2.97c.42.78 1.06 1.39 1.91 1.83 0-.03.03-.04.09-.04l.13.13q.93.435 2.73.66.18.045.15.18c-.03.135-.07.13-.15.13-.41.03-1 .04-1.76.04-1.2.03-2.11.12-2.73.26-.62.15-1.12.46-1.52.95-.4.48-.71 1.24-.95 2.27q-.705 2.865-1.89 4.2c-.79.9-2.04 1.27-3.74 1.12-.26-.03-.4-.34-.4-.92 0-.47.09-1 .26-1.61.18-.6.38-1.08.62-1.43.23-.35.44-.42.62-.22.7.5 1.38.75 2.02.75.29 0 .54-.04.75-.13q.885-.48 1.23-1.89c.47-1.64 1.3-2.84 2.51-3.61-1.91-.32-3.35-.94-4.33-1.85s-1.47-2.05-1.47-3.43c0-1.88.75-3.3 2.27-4.27 1.51-.97 3.85-1.45 7.02-1.45l7.88.04 2.77-.04c.15 0 .22.06.22.18s-.07.18-.22.18c-.97 0-1.69.32-2.16.97s-.7 1.75-.7 3.3v10.91c0 1.56.23 2.66.7 3.3.47.65 1.19.97 2.16.97.15 0 .22.06.22.18Zm22.22-12.14q-.135 0-.18-.18c-1.09-4.08-2.29-6.35-3.61-6.82-.26-.21-1.29-.31-3.08-.31-.18 0-.32.1-.44.29s-.18.43-.18.73v13.99c0 1.56.23 2.66.68 3.3.45.65 1.17.97 2.13.97.15 0 .22.06.22.18s-.07.18-.22.18c-.44-.03-1.35-.04-2.73-.04h-5.24c-1.38 0-2.29.01-2.73.04-.15 0-.22-.06-.22-.18s.07-.18.22-.18c.97 0 1.68-.32 2.13-.97s.68-1.75.68-3.3v-13.99c0-.29-.06-.54-.18-.73s-.26-.29-.44-.29c-1.79 0-2.82.1-3.08.31-1.32.47-2.52 2.74-3.61 6.82q-.045.18-.18.18c-.135 0-.12-.06-.09-.18.35-2.61.53-5 .53-7.17 0-.47.19-.7.57-.7.18 0 .68.06 1.52.18s2.49.18 4.95.18h5.06c2.38 0 4-.06 4.88-.18s1.42-.18 1.63-.18c.35 0 .53.24.53.7 0 2.17.18 4.56.53 7.17q.045.18-.09.18Zm30.43-6.23c1.66.87 2.96 2.05 3.92 3.54s1.43 3.2 1.43 5.1-.54 3.71-1.61 5.32-2.54 2.89-4.4 3.83-3.91 1.41-6.14 1.41c-2 0-3.79-.4-5.39-1.19s-2.87-1.91-3.81-3.34c-.94-1.44-1.44-3.08-1.5-4.93v-2.24c0-3.75.62-6.92 1.85-9.5s2.84-4.55 4.82-5.9q2.97-2.025 6.45-2.46c2.11-.29 3.7-.58 4.75-.86 1.06-.28 1.75-.57 2.09-.88s.51-.68.51-1.12c0-.15.05-.22.15-.22s.17.07.2.22c.06.47.09.84.09 1.1 0 1.44-.48 2.72-1.43 3.85q-1.425 1.695-5.04 2.31c-1.47.26-3.12.51-4.97.75-1.76.23-3.03.44-3.81.62s-1.43.47-1.96.88c-.62.41-1.07 1.04-1.36 1.89s-.44 2.02-.44 3.52c0 .79.01 1.42.04 1.89 1.08-1.5 2.51-2.68 4.27-3.56s3.65-1.32 5.68-1.32 3.95.43 5.61 1.3Zm-.44 16.79c.95-.97 1.43-2.42 1.43-4.36 0-1.64-.43-3.48-1.3-5.5s-1.98-3.75-3.34-5.17-2.75-2.13-4.16-2.13c-1.7 0-3.03.48-3.98 1.43s-1.43 2.41-1.43 4.38c0 1.61.43 3.44 1.3 5.48s1.97 3.77 3.32 5.19 2.71 2.13 4.09 2.13c1.76 0 3.12-.48 4.07-1.45m27.5-17.8c1.28.84 2.3 2.04 3.08 3.61q1.17 2.355 1.17 5.43c0 1.94-.45 3.76-1.34 5.48-.9 1.72-2.11 3.09-3.65 4.11s-3.22 1.54-5.04 1.54c-1.12 0-2.04-.15-2.77-.44s-1.42-.66-2.07-1.1c-.44-.29-.73-.44-.88-.44-.26 0-.4.25-.4.75v4.84c0 1.55.21 2.65.64 3.28.42.63 1.08.98 1.96 1.03.15 0 .22.05.22.15s-.07.15-.22.15c-1.23-.06-2.76-.09-4.58-.09-2.32 0-4.21.03-5.68.09-.15 0-.22-.06-.22-.18s.07-.18.22-.18c.88.03 1.53-.28 1.96-.92.43-.65.64-1.77.64-3.39v-18.66c0-1.11-.14-1.93-.42-2.44s-.8-.77-1.56-.77q-.225 0-.75.09c-.12.03-.18 0-.2-.11-.02-.1.02-.17.11-.2 1.38-.32 2.79-.75 4.25-1.28 1.45-.53 2.63-1.1 3.54-1.72.15-.09.27-.12.37-.09s.14.12.11.26c-.18 1.53-.28 2.82-.31 3.87 0 .35.02.68.07.99s.11.45.2.42c.79-1.58 1.77-2.87 2.95-3.87 1.17-1 2.64-1.5 4.4-1.5 1.52 0 2.93.42 4.2 1.25Zm-1.37 17.93c.84-1.06 1.25-2.6 1.25-4.62s-.34-3.86-1.01-5.68-1.58-3.29-2.71-4.4-2.35-1.67-3.67-1.67-2.38.56-3.19 1.67-1.21 2.61-1.21 4.49v2.95c0 2.55.58 4.66 1.74 6.34 1.16 1.67 2.73 2.51 4.73 2.51 1.88 0 3.23-.53 4.07-1.58Zm30.16-6.16c.09 0 .13.07.13.22 0 2.23-.48 4.14-1.43 5.72s-2.19 2.38-3.72 2.38c-1.12 0-2.05-.37-2.82-1.12s-1.19-1.87-1.28-3.37q-1.05 2.205-2.79 3.39c-1.74 1.185-2.43 1.19-3.81 1.19-2.32 0-4.03-.65-5.15-1.96-1.11-1.31-1.67-2.82-1.67-4.55s.77-3.06 2.31-4.09 3.47-1.54 5.79-1.54c.79 0 1.68.07 2.66.22s1.87.34 2.66.57v-1.94c0-4.52-1.96-6.78-5.9-6.78-1.61 0-2.99.53-4.11 1.58-1.13 1.06-1.69 2.64-1.69 4.75 0 .12-.03.21-.09.26q-.09.09-.18.09c-.12 0-.18-.12-.18-.35q0-2.46 1.23-4.2a7.77 7.77 0 0 1 3.17-2.62c1.29-.59 2.65-.88 4.09-.88 5.81 0 8.71 2.71 8.71 8.14v7.22c0 1.94.5 2.9 1.5 2.9s1.6-.43 1.89-1.3c.29-.86.47-2.1.53-3.72 0-.15.04-.22.13-.22Zm-9.1.66v-.26c-.32-1.06-.94-1.9-1.85-2.53s-1.91-.95-2.99-.95c-2.9 0-4.36 1.12-4.36 3.34 0 1.5.42 2.81 1.28 3.94.85 1.13 2.05 1.69 3.61 1.69 2.87 0 4.31-1.74 4.31-5.24Z" class="st0"/><path d="M428.16 123.4c0 .12-.07.18-.22.18-.44-.03-1.35-.04-2.73-.04h-5.24c-1.29 0-2.16.01-2.6.04-.15 0-.22-.06-.22-.18s.07-.18.22-.18c.94 0 1.62-.32 2.05-.97.42-.65.64-1.75.64-3.3v-5.76c0-.35-.13-.51-.4-.48-1.56.24-3.1.35-4.62.35s-3.07-.12-4.62-.35h-.04c-.18 0-.26.16-.26.48v5.76c0 1.56.21 2.66.64 3.3.42.65 1.11.97 2.05.97.15 0 .22.06.22.18s-.07.18-.22.18c-.44-.03-1.31-.04-2.6-.04h-5.24c-1.38 0-2.3.01-2.77.04-.15 0-.22-.06-.22-.18s.07-.18.22-.18c.97 0 1.69-.32 2.16-.97s.7-1.75.7-3.3v-10.91c0-1.55-.24-2.65-.7-3.3-.47-.65-1.19-.97-2.16-.97-.15 0-.22-.06-.22-.18s.07-.18.22-.18l2.77.04h5.24l2.6-.04c.15 0 .22.06.22.18s-.07.18-.22.18c-.94 0-1.62.32-2.05.97s-.64 1.75-.64 3.3v3.83c0 .32.1.5.31.53 1.5.23 2.99.35 4.49.35 1.58 0 3.17-.12 4.75-.35.15-.03.25-.09.31-.18s.09-.2.09-.35v-3.83c0-1.55-.21-2.65-.64-3.3s-1.11-.97-2.05-.97c-.15 0-.22-.06-.22-.18s.07-.18.22-.18l2.6.04h5.24l2.73-.04c.15 0 .22.06.22.18s-.07.18-.22.18c-.97 0-1.68.32-2.13.97-.46.65-.68 1.75-.68 3.3v10.91c0 1.56.23 2.66.68 3.3.45.65 1.17.97 2.13.97.15 0 .22.06.22.18Zm27.14 0c0 .12-.07.18-.22.18-.44-.03-1.35-.04-2.73-.04h-5.24c-1.38 0-2.29.01-2.73.04-.15 0-.22-.06-.22-.18s.07-.18.22-.18c.97 0 1.68-.32 2.13-.97s.68-1.75.68-3.3v-5.63c-.94.97-2.06 1.72-3.37 2.24-1.31.53-2.68.79-4.11.79-2.14 0-3.9-.54-5.28-1.61s-2.07-2.82-2.07-5.26v-1.45c0-1.55-.23-2.65-.68-3.3-.46-.65-1.17-.97-2.13-.97-.15 0-.22-.06-.22-.18s.07-.18.22-.18l2.73.04h5.24l2.73-.04c.15 0 .22.06.22.18s-.07.18-.22.18c-.97 0-1.68.32-2.13.97-.46.65-.68 1.75-.68 3.3v2.02c0 1.85.43 3.18 1.28 3.98.85.81 1.88 1.21 3.08 1.21q1.41 0 2.79-.66c1.38-.66 1.8-1.1 2.62-1.98v-4.58c0-1.55-.23-2.65-.68-3.3-.46-.65-1.17-.97-2.13-.97-.15 0-.22-.06-.22-.18s.07-.18.22-.18l2.73.04h5.24l2.73-.04c.15 0 .22.06.22.18s-.07.18-.22.18c-.97 0-1.68.32-2.13.97-.46.65-.68 1.75-.68 3.3v10.91c0 1.56.23 2.66.68 3.3.45.65 1.17.97 2.13.97.15 0 .22.06.22.18Zm28.82 0c0 .12-.07.18-.22.18-.44-.03-1.35-.04-2.73-.04h-5.24c-1.38 0-2.29.01-2.73.04-.15 0-.22-.06-.22-.18s.07-.18.22-.18c.97 0 1.68-.32 2.13-.97s.68-1.75.68-3.3v-10.6l-10.52 10.56v.04c0 1.56.23 2.66.68 3.3.45.65 1.17.97 2.13.97.15 0 .22.06.22.18s-.07.18-.22.18c-.47-.03-1.38-.04-2.73-.04h-5.24c-1.38 0-2.3.01-2.77.04-.15 0-.22-.06-.22-.18s.07-.18.22-.18c.97 0 1.69-.32 2.16-.97s.7-1.75.7-3.3v-10.87c0-1.55-.24-2.66-.7-3.32q-.705-.99-2.16-.99c-.15 0-.22-.06-.22-.18s.07-.18.22-.18c.94.06 1.86.09 2.77.09h5.24q1.32 0 2.73-.09c.15 0 .22.06.22.18s-.07.18-.22.18q-1.455 0-2.13.99c-.46.66-.68 1.77-.68 3.32v10.25l10.52-10.56c-.03-1.47-.27-2.5-.73-3.1s-1.15-.9-2.09-.9c-.15 0-.22-.06-.22-.18s.07-.18.22-.18q1.32.09 2.73.09h5.24q1.41 0 2.73-.09c.15 0 .22.06.22.18s-.07.18-.22.18q-1.455 0-2.13.99c-.46.66-.68 1.77-.68 3.32v10.87c0 1.56.23 2.66.68 3.3.45.65 1.17.97 2.13.97.15 0 .22.06.22.18ZM23.25 156.74c-.06.15-.14.21-.24.2s-.12-.11-.07-.29c.15-.59.22-1.16.22-1.72 0-1.35-.32-2.72-.97-4.11q-.975-2.085-2.55-3.45c-1.06-.91-2.17-1.36-3.34-1.36q-5.19 0-5.19 5.94c0 2.17.5 4.19 1.5 6.05s2.29 3.34 3.89 4.42c1.6 1.09 3.22 1.63 4.86 1.63 2.11 0 3.72-.67 4.84-2.02.12-.12.2-.14.26-.07q.09.105 0 .24c-2.32 2.9-5.38 4.36-9.2 4.36-1.88 0-3.61-.43-5.19-1.28q-2.37-1.275-3.81-3.63c-.95-1.57-1.43-3.38-1.43-5.43s.51-3.84 1.52-5.54q1.515-2.55 4.11-4.05c1.73-1 3.61-1.5 5.63-1.5q2.115 0 3.96.57c1.23.38 2.18.87 2.84 1.47s.92 1.2.77 1.78l-2.42 7.79Zm34.67-3.12q-.135 0-.18-.18c-1.09-4.08-2.29-6.35-3.61-6.82-.26-.21-1.29-.31-3.08-.31-.18 0-.32.1-.44.29s-.18.43-.18.73v13.99c0 1.56.23 2.66.68 3.3.46.65 1.17.97 2.13.97.15 0 .22.06.22.18s-.07.18-.22.18c-.44-.03-1.35-.04-2.73-.04h-5.24c-1.38 0-2.29.01-2.73.04-.15 0-.22-.06-.22-.18s.07-.18.22-.18c.97 0 1.68-.32 2.13-.97s.68-1.75.68-3.3v-13.99c0-.29-.06-.54-.18-.73s-.26-.29-.44-.29c-1.79 0-2.82.1-3.08.31-1.32.47-2.52 2.74-3.61 6.82q-.045.18-.18.18c-.135 0-.12-.06-.09-.18.35-2.61.53-5 .53-7.17 0-.47.19-.7.57-.7.18 0 .68.06 1.52.18q1.26.18 4.95.18h5.06c2.38 0 4-.06 4.88-.18s1.42-.18 1.63-.18c.35 0 .53.24.53.7 0 2.17.18 4.56.53 7.17q.045.18-.09.18Zm7.41 11.68a9.53 9.53 0 0 1-3.83-3.67c-.92-1.58-1.39-3.39-1.39-5.41s.53-3.92 1.58-5.61c1.06-1.69 2.5-3.01 4.33-3.98s3.85-1.45 6.05-1.45c2.05 0 3.91.43 5.57 1.3s2.96 2.08 3.89 3.63c.94 1.56 1.41 3.33 1.41 5.32s-.54 3.94-1.61 5.65c-1.07 1.72-2.54 3.07-4.4 4.05s-3.91 1.47-6.14 1.47c-2.02 0-3.85-.43-5.48-1.3Zm11.84-1.19c.95-.95 1.43-2.35 1.43-4.2s-.46-3.77-1.39-5.94q-1.38-3.255-3.48-5.52c-1.39-1.51-2.75-2.27-4.07-2.27q-2.46 0-3.87 1.41c-.94.94-1.41 2.35-1.41 4.22 0 1.76.45 3.73 1.36 5.92s2.06 4.03 3.45 5.54 2.74 2.27 4.03 2.27c1.67 0 2.98-.48 3.94-1.43Zm33.55 1.65c0 .12-.07.18-.22.18-.44-.03-1.35-.04-2.73-.04h-5.24c-1.29 0-2.16.01-2.6.04-.15 0-.22-.06-.22-.18s.07-.18.22-.18c.94 0 1.62-.32 2.05-.97s.64-1.75.64-3.3v-15.18h-9.5v15.18c0 1.56.21 2.66.64 3.3.42.65 1.11.97 2.05.97.15 0 .22.06.22.18s-.07.18-.22.18c-.44-.03-1.31-.04-2.6-.04h-5.24c-1.38 0-2.3.01-2.77.04-.15 0-.22-.06-.22-.18s.07-.18.22-.18c.97 0 1.69-.32 2.16-.97s.7-1.75.7-3.3V150.4c0-1.55-.24-2.65-.7-3.3-.47-.65-1.19-.97-2.16-.97-.15 0-.22-.06-.22-.18s.07-.18.22-.18l2.77.04h19.8l2.6-.04c.15 0 .22.06.22.18s-.07.18-.22.18c-.94 0-1.62.32-2.05.97-.42.65-.64 1.75-.64 3.3v10.91c0 1.56.23 2.66.68 3.3.45.65 1.17.97 2.13.97.15 0 .22.06.22.18Zm24.59-7.61c.09 0 .13.07.13.22 0 2.23-.48 4.14-1.43 5.72s-2.19 2.38-3.72 2.38c-1.12 0-2.05-.37-2.82-1.12s-1.19-1.87-1.28-3.37q-1.05 2.205-2.79 3.39c-1.74 1.185-2.43 1.19-3.81 1.19-2.32 0-4.03-.65-5.15-1.96-1.11-1.31-1.67-2.82-1.67-4.55s.77-3.06 2.31-4.09 3.47-1.54 5.79-1.54c.79 0 1.68.07 2.66.22s1.87.34 2.66.57v-1.94c0-4.52-1.96-6.78-5.9-6.78-1.61 0-2.99.53-4.11 1.58-1.13 1.06-1.69 2.64-1.69 4.75 0 .12-.03.21-.09.26q-.09.09-.18.09c-.12 0-.18-.12-.18-.35q0-2.46 1.23-4.2a7.77 7.77 0 0 1 3.17-2.62c1.29-.59 2.65-.88 4.09-.88 5.81 0 8.71 2.71 8.71 8.14v7.22c0 1.94.5 2.9 1.5 2.9s1.6-.43 1.89-1.3c.29-.86.47-2.1.53-3.72 0-.15.04-.22.13-.22Zm-9.11.66v-.26c-.32-1.06-.94-1.9-1.85-2.53s-1.91-.95-2.99-.95c-2.9 0-4.36 1.12-4.36 3.34 0 1.5.42 2.81 1.28 3.94.85 1.13 2.05 1.69 3.61 1.69 2.87 0 4.31-1.74 4.31-5.24Zm37.71 6.95c0 .12-.07.18-.22.18-.47-.03-1.38-.04-2.73-.04h-5.28c-1.35 0-2.26.01-2.73.04-.15 0-.22-.06-.22-.18s.07-.18.22-.18c.88 0 1.53-.25 1.96-.75.42-.5.64-1.33.64-2.51 0-.44-.01-.78-.04-1.01l-.97-11.66c-.03-.35-.12-.53-.26-.53-.09 0-.16.04-.22.13s-.12.22-.18.4l-6.2 15.71q-.18.48-.48.48c-.26 0-.46-.16-.57-.48l-6.16-15.88c-.09-.23-.18-.35-.26-.35h-.09l.31 1.14-.31-1.1c-.09.03-.13.13-.13.31l-1.06 11.84c-.03.26-.04.63-.04 1.1 0 1.14.21 1.96.62 2.44s1.06.73 1.94.73c.15 0 .22.06.22.18s-.07.18-.22.18c-.44-.03-1.35-.04-2.73-.04h-.53c-1.38 0-2.29.01-2.73.04-.15 0-.22-.06-.22-.18s.07-.18.22-.18c.97 0 1.69-.31 2.18-.95.48-.63.8-1.74.95-3.32l1.19-13.07c-.29-.76-.66-1.3-1.1-1.63-.44-.32-1-.48-1.67-.48-.15 0-.22-.06-.22-.18s.07-.18.22-.18l2.6.04h4.22c.41 0 .67.16.79.48l4.88 12.06c.09.21.19.31.31.31.15 0 .23-.1.26-.31l4.75-12.1c.06-.18.13-.29.22-.35s.22-.09.4-.09h3.87l2.77-.04c.15 0 .22.06.22.18s-.07.18-.22.18c-.88 0-1.53.24-1.96.73-.42.48-.64 1.3-.64 2.44 0 .47.01.84.04 1.1l1.06 10.91c.15 1.58.46 2.69.95 3.32.48.63 1.21.95 2.18.95.15 0 .22.06.22.18Zm28.12 0c0 .12-.07.18-.22.18-.44-.03-1.35-.04-2.73-.04h-5.24c-1.38 0-2.29.01-2.73.04-.15 0-.22-.06-.22-.18s.07-.18.22-.18c.97 0 1.68-.32 2.13-.97s.68-1.75.68-3.3v-10.6l-10.52 10.56v.04c0 1.56.23 2.66.68 3.3.45.65 1.17.97 2.13.97.15 0 .22.06.22.18s-.07.18-.22.18c-.47-.03-1.38-.04-2.73-.04h-5.24c-1.38 0-2.3.01-2.77.04-.15 0-.22-.06-.22-.18s.07-.18.22-.18c.97 0 1.69-.32 2.16-.97s.7-1.75.7-3.3v-10.87c0-1.55-.24-2.66-.7-3.32q-.705-.99-2.16-.99c-.15 0-.22-.06-.22-.18s.07-.18.22-.18c.94.06 1.86.09 2.77.09h5.24q1.32 0 2.73-.09c.15 0 .22.06.22.18s-.07.18-.22.18q-1.455 0-2.13.99c-.46.66-.68 1.77-.68 3.32v10.25l10.52-10.56c-.03-1.47-.27-2.5-.73-3.1s-1.15-.9-2.09-.9c-.15 0-.22-.06-.22-.18s.07-.18.22-.18q1.32.09 2.73.09h5.24q1.41 0 2.73-.09c.15 0 .22.06.22.18s-.07.18-.22.18q-1.455 0-2.13.99c-.46.66-.68 1.77-.68 3.32v10.87c0 1.56.23 2.66.68 3.3.45.65 1.17.97 2.13.97.15 0 .22.06.22.18Zm28.29-9.02c-.06.15-.14.21-.24.2s-.12-.11-.07-.29c.15-.59.22-1.16.22-1.72 0-1.35-.32-2.72-.97-4.11q-.975-2.085-2.55-3.45c-1.06-.91-2.17-1.36-3.34-1.36q-5.19 0-5.19 5.94c0 2.17.5 4.19 1.5 6.05s2.29 3.34 3.89 4.42c1.6 1.09 3.22 1.63 4.86 1.63 2.11 0 3.72-.67 4.84-2.02.12-.12.21-.14.26-.07q.09.105 0 .24c-2.32 2.9-5.38 4.36-9.2 4.36-1.88 0-3.61-.43-5.19-1.28q-2.37-1.275-3.81-3.63c-.95-1.57-1.43-3.38-1.43-5.43s.51-3.84 1.52-5.54q1.515-2.55 4.11-4.05c1.73-1 3.61-1.5 5.63-1.5q2.115 0 3.96.57c1.23.38 2.18.87 2.84 1.47s.92 1.2.77 1.78l-2.42 7.79Zm4.88 9.16c-.15 0-.22-.06-.22-.18s.07-.18.22-.18c1 .03 1.72-.28 2.18-.92.45-.65.68-1.75.68-3.3v-10.87c0-1.55-.23-2.65-.68-3.3-.46-.64-1.17-.97-2.13-.97-.15 0-.22-.06-.22-.18s.07-.18.22-.18q1.32.09 2.73.09c3.7-.09 7.05-.13 10.08-.13 2.32 0 4.12.39 5.41 1.17s1.94 1.97 1.94 3.59c0 1.06-.45 2-1.34 2.84-.9.84-2 1.33-3.32 1.47 1.7.09 3.12.59 4.27 1.5 1.14.91 1.72 2.16 1.72 3.74 0 1.85-.73 3.3-2.18 4.36s-3.45 1.58-6.01 1.58l-10.56-.18-2.77.04Zm11.75-11.27c1.5-.18 2.57-.58 3.21-1.21s.97-1.61.97-2.93c0-1.44-.37-2.51-1.12-3.21s-1.69-1.07-2.84-1.1l-3.12-.13h-.13c-.29 0-.48.07-.57.22s-.13.41-.13.79v17.34q0 .795.24 1.08c.16.19.48.29.95.29l2.77-.04c1.5 0 2.66-.43 3.5-1.3.84-.86 1.25-2.15 1.25-3.85s-.37-3.06-1.12-3.98q-1.125-1.38-3.72-1.47l-1.5-.04c-.12 0-.18-.04-.18-.13s.04-.15.13-.18l1.41-.13Zm34.32 3.52c.09 0 .13.07.13.22 0 2.23-.48 4.14-1.43 5.72s-2.19 2.38-3.72 2.38c-1.12 0-2.05-.37-2.82-1.12s-1.19-1.87-1.28-3.37q-1.05 2.205-2.79 3.39c-1.74 1.185-2.43 1.19-3.81 1.19-2.32 0-4.03-.65-5.15-1.96-1.11-1.31-1.67-2.82-1.67-4.55s.77-3.06 2.31-4.09 3.47-1.54 5.79-1.54c.79 0 1.68.07 2.66.22s1.87.34 2.66.57v-1.94c0-4.52-1.96-6.78-5.9-6.78-1.61 0-2.99.53-4.11 1.58-1.13 1.06-1.69 2.64-1.69 4.75 0 .12-.03.21-.09.26q-.09.09-.18.09c-.12 0-.18-.12-.18-.35q0-2.46 1.23-4.2a7.77 7.77 0 0 1 3.17-2.62c1.29-.59 2.65-.88 4.09-.88 5.81 0 8.71 2.71 8.71 8.14v7.22c0 1.94.5 2.9 1.5 2.9s1.6-.43 1.89-1.3c.29-.86.47-2.1.53-3.72 0-.15.04-.22.13-.22Zm-9.11.66v-.26c-.32-1.06-.94-1.9-1.85-2.53s-1.91-.95-2.99-.95c-2.9 0-4.36 1.12-4.36 3.34 0 1.5.42 2.81 1.28 3.94.85 1.13 2.05 1.69 3.61 1.69 2.87 0 4.31-1.74 4.31-5.24Zm32.34-12.96c0 .1-.09.17-.26.2-1.03.03-1.81.39-2.35 1.08q-.81 1.035-.81 3.45v15h2.46c.21 0 .31.1.31.31l.09 1.54c.15 1.85.23 2.96.26 3.34.03.18 0 .26-.11.26s-.17-.07-.2-.22c-.32-1.7-.86-2.95-1.61-3.74s-1.86-1.19-3.32-1.19h-12.41c-1.47 0-2.57.4-3.32 1.19s-1.28 2.04-1.61 3.74c-.03.15-.1.22-.2.22s-.14-.09-.11-.26c.18-1.53.26-2.64.26-3.34l.09-1.54c0-.21.1-.31.31-.31h1.36c1.03 0 1.81-1.63 2.35-4.88.54-3.26.89-7.02 1.03-11.31-.12-1.2-.44-2.05-.97-2.55s-1.25-.76-2.16-.79c-.18-.03-.26-.09-.24-.2q.015-.15.24-.15c1.23.09 2.08.13 2.55.13h15.53c.56 0 1.41-.04 2.55-.13.18 0 .26.05.26.15Zm-8.49 19.74v-19.45h-8.93c0 4.19-.24 8.28-.73 12.25-.48 3.98-1.22 6.37-2.22 7.19h11.88Zm29.06-3.57c.07.06.08.13.02.22a11.16 11.16 0 0 1-4.14 3.21c-1.61.73-3.3 1.1-5.06 1.1-1.85 0-3.56-.43-5.15-1.28a9.5 9.5 0 0 1-3.76-3.63c-.92-1.57-1.39-3.38-1.39-5.43s.51-3.89 1.52-5.59 2.38-3.04 4.11-4.03c1.73-.98 3.62-1.47 5.68-1.47 2.29 0 4.19.62 5.72 1.87 1.52 1.25 2.29 2.94 2.29 5.08 0 .97-.18 2.01-.53 3.12-3.08.06-7.8.19-14.17.4.5 1.61 1.27 3.06 2.31 4.33 1.04 1.28 2.24 2.27 3.59 2.99q2.025 1.08 3.96 1.08c2.14 0 3.75-.67 4.84-2.02.03-.03.08-.01.15.04Zm-14.08-14.54c-.87 1.01-1.3 2.53-1.3 4.55 0 1 .15 2.08.44 3.26 1.67-.03 3.64-.1 5.9-.22.59-.03 1.19-.06 1.83-.09.63-.03 1.27-.04 1.91-.04.26-.44.4-.98.4-1.63 0-.97-.27-2.03-.81-3.19s-1.23-2.14-2.07-2.95-1.68-1.21-2.53-1.21c-1.64 0-2.9.51-3.76 1.52Zm34.63-.09c1.66.87 2.96 2.05 3.92 3.54s1.43 3.2 1.43 5.1-.54 3.71-1.61 5.32-2.54 2.89-4.4 3.83-3.91 1.41-6.14 1.41c-2 0-3.79-.4-5.39-1.19s-2.87-1.91-3.81-3.34c-.94-1.44-1.44-3.08-1.5-4.93v-2.24c0-3.75.62-6.92 1.85-9.5s2.84-4.55 4.82-5.9q2.97-2.025 6.45-2.46c2.11-.29 3.7-.58 4.75-.86 1.06-.28 1.75-.57 2.09-.88s.51-.68.51-1.12c0-.15.05-.22.15-.22s.17.07.2.22c.06.47.09.84.09 1.1 0 1.44-.48 2.72-1.43 3.85q-1.425 1.695-5.04 2.31c-1.47.26-3.12.51-4.97.75-1.76.23-3.03.44-3.81.62s-1.43.47-1.96.88c-.62.41-1.07 1.04-1.36 1.89s-.44 2.02-.44 3.52c0 .79.01 1.42.04 1.89 1.08-1.5 2.51-2.68 4.27-3.56s3.65-1.32 5.68-1.32 3.95.43 5.61 1.3Zm-.44 16.79c.95-.97 1.43-2.42 1.43-4.36 0-1.64-.43-3.48-1.3-5.5s-1.98-3.75-3.34-5.17-2.75-2.13-4.16-2.13c-1.7 0-3.03.48-3.98 1.43s-1.43 2.41-1.43 4.38c0 1.61.43 3.44 1.3 5.48s1.97 3.77 3.32 5.19 2.71 2.13 4.09 2.13c1.76 0 3.12-.48 4.07-1.45m33.99 1.58c0 .12-.07.18-.22.18-.44-.03-1.35-.04-2.73-.04h-5.24c-1.29 0-2.16.01-2.6.04-.15 0-.22-.06-.22-.18s.07-.18.22-.18c.94 0 1.62-.32 2.05-.97.42-.65.64-1.75.64-3.3v-5.76c0-.35-.13-.51-.4-.48-1.56.24-3.1.35-4.62.35s-3.07-.12-4.62-.35h-.04c-.18 0-.26.16-.26.48v5.76c0 1.56.21 2.66.64 3.3.42.65 1.11.97 2.05.97.15 0 .22.06.22.18s-.07.18-.22.18c-.44-.03-1.31-.04-2.6-.04h-5.24c-1.38 0-2.3.01-2.77.04-.15 0-.22-.06-.22-.18s.07-.18.22-.18c.97 0 1.69-.32 2.16-.97s.7-1.75.7-3.3V150.4c0-1.55-.24-2.65-.7-3.3-.47-.65-1.19-.97-2.16-.97-.15 0-.22-.06-.22-.18s.07-.18.22-.18l2.77.04h5.24l2.6-.04c.15 0 .22.06.22.18s-.07.18-.22.18c-.94 0-1.62.32-2.05.97s-.64 1.75-.64 3.3v3.83c0 .32.1.5.31.53 1.5.23 2.99.35 4.49.35 1.58 0 3.17-.12 4.75-.35.15-.03.25-.09.31-.18s.09-.2.09-.35v-3.83c0-1.55-.21-2.65-.64-3.3s-1.11-.97-2.05-.97c-.15 0-.22-.06-.22-.18s.07-.18.22-.18l2.6.04h5.24l2.73-.04c.15 0 .22.06.22.18s-.07.18-.22.18c-.97 0-1.68.32-2.13.97-.46.65-.68 1.75-.68 3.3v10.91c0 1.56.23 2.66.68 3.3.45.65 1.17.97 2.13.97.15 0 .22.06.22.18Zm7.28-.46a9.53 9.53 0 0 1-3.83-3.67c-.92-1.58-1.39-3.39-1.39-5.41s.53-3.92 1.58-5.61c1.06-1.69 2.5-3.01 4.33-3.98s3.85-1.45 6.05-1.45c2.05 0 3.91.43 5.57 1.3s2.96 2.08 3.89 3.63c.94 1.56 1.41 3.33 1.41 5.32s-.54 3.94-1.61 5.65c-1.07 1.72-2.54 3.07-4.4 4.05s-3.91 1.47-6.14 1.47c-2.02 0-3.85-.43-5.48-1.3Zm11.84-1.19c.95-.95 1.43-2.35 1.43-4.2s-.46-3.77-1.39-5.94q-1.38-3.255-3.48-5.52c-1.39-1.51-2.75-2.27-4.07-2.27q-2.46 0-3.87 1.41c-.94.94-1.41 2.35-1.41 4.22 0 1.76.45 3.73 1.36 5.92s2.06 4.03 3.45 5.54 2.74 2.27 4.03 2.27c1.67 0 2.98-.48 3.94-1.43Zm40.77-7.37c-.06.15-.14.21-.24.2s-.12-.11-.07-.29c.15-.59.22-1.16.22-1.72 0-1.35-.32-2.72-.97-4.11q-.975-2.085-2.55-3.45c-1.06-.91-2.17-1.36-3.34-1.36q-5.19 0-5.19 5.94c0 2.17.5 4.19 1.5 6.05s2.29 3.34 3.89 4.42c1.6 1.09 3.22 1.63 4.86 1.63 2.11 0 3.72-.67 4.84-2.02.12-.12.21-.14.26-.07q.09.105 0 .24c-2.32 2.9-5.38 4.36-9.2 4.36-1.88 0-3.61-.43-5.19-1.28q-2.37-1.275-3.81-3.63c-.95-1.57-1.43-3.38-1.43-5.43s.51-3.84 1.52-5.54q1.515-2.55 4.11-4.05c1.73-1 3.61-1.5 5.63-1.5q2.115 0 3.96.57c1.23.38 2.18.87 2.84 1.47s.92 1.2.77 1.78l-2.42 7.79Zm32.29 4.18c-1.03 1.67-2.45 3.01-4.27 4-1.82 1-3.9 1.55-6.25 1.67v3.48c0 1.23.21 2.25.64 3.06.42.81 1.09 1.22 2 1.25.15 0 .22.06.22.18s-.07.16-.22.13c-.53-.03-2.24-.04-5.15-.04s-4.59.01-5.15.04c-.15 0-.22-.05-.22-.15s.07-.15.22-.15c.88 0 1.53-.35 1.96-1.03.42-.69.64-1.78.64-3.28v-3.61l-.92.04c-2.08 0-3.97-.42-5.65-1.25-1.69-.84-3.02-2.03-4-3.59-.98-1.55-1.47-3.36-1.47-5.41s.5-3.82 1.5-5.48 2.4-2.98 4.2-3.98 3.89-1.54 6.27-1.63v-3.43c0-1.44-.12-2.4-.35-2.88-.24-.48-.59-.73-1.06-.73-.24 0-.41.02-.53.04h-.04c-.21 0-.31-.1-.31-.31 3.28-.85 5.84-2.05 7.66-3.61h.09c.21 0 .29.1.26.31-.21 1.2-.35 2.46-.44 3.78s-.13 3.02-.13 5.1v1.85l.88-.04c2.05 0 3.93.42 5.63 1.25s3.05 2.02 4.05 3.56 1.5 3.32 1.5 5.35-.51 3.83-1.54 5.5Zm-22.46-3.21c.54 1.97 1.39 3.69 2.55 5.17s2.6 2.34 4.33 2.57l-.09-17.73c-.26-.44-.6-.8-1.01-1.08s-.84-.42-1.28-.42c-1.82 0-3.16.49-4.03 1.47s-1.3 2.49-1.3 4.51c0 1.7.27 3.54.81 5.5Zm18.86-3.69c-.53-1.96-1.37-3.69-2.53-5.17s-2.62-2.32-4.38-2.53v17.6c.26.47.62.85 1.06 1.14s.89.46 1.36.48c1.64-.03 2.93-.54 3.87-1.54q1.41-1.5 1.41-4.53c0-1.67-.26-3.49-.79-5.46Zm27.08 8c.07.06.08.13.02.22a11.16 11.16 0 0 1-4.14 3.21c-1.61.73-3.3 1.1-5.06 1.1-1.85 0-3.56-.43-5.15-1.28a9.5 9.5 0 0 1-3.76-3.63c-.92-1.57-1.39-3.38-1.39-5.43s.51-3.89 1.52-5.59 2.38-3.04 4.11-4.03c1.73-.98 3.62-1.47 5.68-1.47 2.29 0 4.19.62 5.72 1.87 1.52 1.25 2.29 2.94 2.29 5.08 0 .97-.18 2.01-.53 3.12-3.08.06-7.8.19-14.17.4.5 1.61 1.27 3.06 2.31 4.33 1.04 1.28 2.24 2.27 3.59 2.99q2.025 1.08 3.96 1.08c2.14 0 3.75-.67 4.84-2.02.03-.03.08-.01.15.04Zm-14.08-14.54c-.87 1.01-1.3 2.53-1.3 4.55 0 1 .15 2.08.44 3.26 1.67-.03 3.64-.1 5.9-.22.59-.03 1.19-.06 1.83-.09.63-.03 1.27-.04 1.91-.04.26-.44.4-.98.4-1.63 0-.97-.27-2.03-.81-3.19s-1.23-2.14-2.07-2.95-1.68-1.21-2.53-1.21c-1.64 0-2.9.51-3.76 1.52Zm35.9-1.1c1.28.84 2.3 2.04 3.08 3.61q1.17 2.355 1.17 5.43c0 1.94-.45 3.76-1.34 5.48-.9 1.72-2.11 3.09-3.65 4.11s-3.22 1.54-5.04 1.54c-1.12 0-2.04-.15-2.77-.44s-1.42-.66-2.07-1.1c-.44-.29-.73-.44-.88-.44-.26 0-.4.25-.4.75v4.84c0 1.55.21 2.65.64 3.28.42.63 1.08.98 1.96 1.03.15 0 .22.05.22.15s-.07.15-.22.15c-1.23-.06-2.76-.09-4.58-.09-2.32 0-4.21.03-5.68.09-.15 0-.22-.06-.22-.18s.07-.18.22-.18c.88.03 1.53-.28 1.96-.92.43-.65.64-1.77.64-3.39v-18.66c0-1.11-.14-1.93-.42-2.44s-.8-.77-1.56-.77q-.225 0-.75.09c-.12.03-.18 0-.2-.11-.02-.1.02-.17.11-.2 1.38-.32 2.79-.75 4.25-1.28 1.45-.53 2.63-1.1 3.54-1.72.15-.09.27-.12.37-.09s.14.12.11.26c-.18 1.53-.28 2.82-.31 3.87 0 .35.02.68.07.99s.11.45.2.42c.79-1.58 1.77-2.87 2.95-3.87 1.17-1 2.64-1.5 4.4-1.5 1.52 0 2.93.42 4.2 1.25Zm-1.36 17.93c.84-1.06 1.25-2.6 1.25-4.62s-.34-3.86-1.01-5.68-1.58-3.29-2.71-4.4-2.35-1.67-3.67-1.67-2.38.56-3.19 1.67-1.21 2.61-1.21 4.49v2.95c0 2.55.58 4.66 1.74 6.34 1.16 1.67 2.73 2.51 4.73 2.51 1.88 0 3.23-.53 4.07-1.58Zm19.25-9.9c6.01-.09 9.02 1.75 9.02 5.5 0 1.94-.7 3.42-2.11 4.44-1.41 1.03-3.51 1.54-6.29 1.54h-9.24c-1.38 0-2.3.01-2.77.04-.15 0-.22-.06-.22-.18s.07-.18.22-.18c.97 0 1.69-.32 2.16-.97s.7-1.75.7-3.3v-10.91c0-1.55-.24-2.65-.7-3.3-.47-.65-1.19-.97-2.16-.97-.15 0-.22-.06-.22-.18s.07-.18.22-.18l2.77.04h5.24l2.73-.04c.15 0 .22.06.22.18s-.07.18-.22.18c-.97 0-1.68.32-2.13.97-.46.65-.68 1.75-.68 3.3v3.56c0 .32.13.48.4.48l3.08-.04Zm-.71 11.13c1.41-.03 2.5-.54 3.28-1.54s1.17-2.33 1.17-4-.4-2.93-1.19-3.85-1.94-1.37-3.43-1.34l-2.2.04c-.26 0-.4.16-.4.48v9.06c0 .47.06.79.18.95s.35.24.7.24zm20.38.22c0 .12-.07.18-.22.18-.47-.03-1.38-.04-2.73-.04h-5.24c-1.38 0-2.3.01-2.77.04q-.18 0-.18-.18c0-.18.06-.18.18-.18 1 0 1.72-.32 2.18-.97s.68-1.75.68-3.3v-11.04c0-1.55-.23-2.65-.68-3.3-.46-.65-1.18-.97-2.18-.97q-.18 0-.18-.18c0-.18.06-.18.18-.18l2.77.04h5.24l2.73-.04c.15 0 .22.06.22.18s-.07.18-.22.18c-.97 0-1.68.32-2.13.97-.46.65-.68 1.75-.68 3.3v11.04c0 1.56.23 2.66.68 3.3.45.65 1.17.97 2.13.97.15 0 .22.06.22.18" class="st0"/></svg>