<svg xmlns="http://www.w3.org/2000/svg" viewBox="0 0 493.28 268.6"><defs><style>.st0{fill:#181818}.st1{fill:#f4cdcb}</style></defs><g id="Layer_1"><path d="M99 68.37c5.4-2.81 15.92-9.8 21.99-8.74 5.01.87 8.25 12.86 8.03 17.53-.81 18.9-12.39 19.38-27.51 16.81 1.42 4.21 4.85 7.08 6.78 10.95a68.76 68.76 0 0 1 7.31 33.51c-.21 8.23-1.36 17.04-1.4 25.57 0 5.59 1.77 13.82-.19 18.83-.73 1.77-3.77 3.54-4.87 5.64s-1.4 8.21-4.25 4.81c-2-3.85-3.72-7.83-5.15-11.93-6.12-18.05 2.51-32.68-1.49-50.89-3.54-16.12-14.86-26.54-17.25-42.91-3.03 4.02-4.49 8.97-7.08 13.29A159 159 0 0 1 58 121.7c-7.38 8.03-16.61 12.39-25.25 18.69-.32 4.02-4.16 19.25-2.8 21.75.96 1.77 8.49 3.89 10.72 4.51 10.9 2.99 22.58 4.65 33.81 3.1 2.05-.3 6.35-2.9 7.08 0 .39 1.42-2.78 12.69-3.22 15.27-2.18 12.6-4.55 23.75-7.08 36.17-1.88 8.99 1.22 17.48-10.28 17.07-8.85-.34-23.32-2.72-31.51-5.96-3.8-1.5-7.34-4.41-11.36-5.31-.27 5.73 2 8.44 6.05 11.84 18.01 15.11 48.29 17.36 70.12 10.62 2.72-.85 7.22-2.74 8.37-5.75 1.77-5.96 3.14-12.03 4.09-18.17 1.33-7.38 1.57-15.55 3.13-22.77.94-4.32 2.78-2.97 2.74.39 0 5.49-2.03 13.5-2.78 19.3-.94 7.17-1.15 13.89-3.04 21.23-1.36 5.31-5.03 7.91-9.89 9.4-24.38 7.5-49.26 6.79-71.27-6.74-4.9-3.01-11.25-6.97-11.96-13.34-.97-8.6 2.26-27.09 3.91-36.17 3.27-17.92 9.78-35.23 12.28-53.28l-5.59 5.84c-3.73 1.86-5.7 5.73-8.32 8.28-3.54 3.45-3.11-.46-3.08-3.04s-.25-9.18.11-11.04c1.08-5.86 14.49-7.48 18.88-10.44 2.9-9.41 6.14-18.95 11.64-27.09 5.03-7.45 12.39-13.29 18.83-19.3-7.91-2.72-15.38-8.85-15.09-18.24.57-19.98 18.84-19.46 28.82-6.81 1.5-15.92 2.03-32.24 6-47.77 1.86-.28 2.11-2.35 2.95-2.94 2.42-1.66 10-.94 12.83-.23 4.78 1.19 13.01 6.9 9.98 12.85-.51 1.03-2.81 1.38-2.87 1.77l-5.96 43Zm-12.28-50.8c3.77 1.2 11.02 1.56 15.34 2.16 1.47.21 1.26-1.88 0-3.11-5.04-5.31-12.16-.71-18.12-1.52.16.96 2.18 2.26 2.78 2.48ZM92.33 72c0 3.36-1.5 7.82-1.61 11.34 4.37 1.5 28.31-.97 29.97 2.11 1.15 2.25-3.95 2.03-5.13 2-7.4-.23-15.02-1.56-22.45-1.66-.3.97 1.03 1.1 1.77 1.42 4.62 2.28 20.31 4.64 24.95 2.72 6.44-2.64 5.96-21.23 1.77-24.77-3.01-2.53-13.2 1.77-16.72 3.43-1.77.76-11.34 7.08-12.17 5.87 0-1.88 1.22-2.58 2.53-3.54.34-.53-1.26 0-1.2-1.5.14-4.53 1.89-9.86 2.07-14.53L102.25 26c-6.19-1.49-12.39-2.49-17.84-6.03-2.95 11.91-3.24 24.13-4.11 36.26-.21 3.15-2.83 11.7 1.33 13.08.76.25 3.89-2.14 6.16-1.66 1.45.37 4.55 2.72 4.6 4.37h-.05Zm-15.8 5.84c1.49-4.25 3.91-4.14.87-8.32-7.98-11.01-23.83-20.97-25.59.62 8.6-.41 16.86 4.65 24.77 7.7zm11.08-6.16c-1.32-.15-2.66-.04-3.95.32a47 47 0 0 0-3.15 6.81c-.23 2.05 2.92 2.11 3.89 3.63 1.29-1.22 3.72-10.09 3.26-10.72zm-16.32 9.63-16.08-6.46c1.95 3.86 10.21 7.38 14.16 7.41.53.07 2.05-.05 1.98-.96h-.05Zm7.63 3.87c-2.35.85-6.64.87-8.62 1.77-4.37 1.91-10.28 19.87-12.95 24.88-1.93 3.54-4.9 6.44-6.71 10.09 12.7-8.92 20.79-23.34 28.33-36.73h-.05Zm19 8.48c-.8-.88-4.78-2.41-6.55-3.79-1.24-.96-3.45-4.55-3.41-.41 0 1.77 4.42 11.93 5.66 13.66 3.26 4.58 9.82 7.5 12.93 12.6-.44-2.31-1.06-4.59-1.88-6.79-.64-1.93-6.02-14.49-6.71-15.27h-.05Zm-54.33 33.3c1.77-1.38 7.33-10.01 8.6-12.39 4.55-8.48 6.55-18.44 12.05-26.54-11.63 12-23.76 24.24-26.28 41.86 1.56-1.27 4.35-1.91 5.68-2.94h-.05Zm62.14 62.26c.11-3.08 4.34-6.56 4.69-8.85.46-2.76-1.19-11.68-1.15-15.69 0-6.14 1.1-12.39 1.08-18.58 0-14.67-4.02-31.37-17.57-38.68 4.51 7.61 9.24 15.61 10.3 24.77 1.77 14.53-5.98 29.23-2.76 43.17 1.17 4.85 3.01 9.51 5.47 13.85h-.05Zm-77.4-48.05c-1.65.69-11.43 2.16-11.84 2.6-.76.83.27 7.86-.76 9.63zm47.65 33.33a68.1 68.1 0 0 1-46.92-9.41l-7.08 35.48c7.54-1.68 9.02 8.99 15.13 7.2 2.42-.71 6.41-5.45 9.01-3.03 1.13 1.04 1.13 3.15 3.11 3.75s6.51-3.34 7.45.11-7.57 5.31-10.62 4.12c-1.2-.59-2.13-1.6-2.64-2.83-1.63.27-4.6 2.64-6.85 2.9-10.37 1.29-6-9.52-15-9.48-.62 6.02-2.76 11.73-2.41 17.8 6.55 3.13 13.35 5.72 20.31 7.77 3.4.92 24.08 5.86 25.39 4.26 2.41-19.76 6.1-39.35 11.04-58.64h.07Z" class="st1"/><path d="M43.53 176.43c1.88 2.67-1.77 8.19-3.36 10.62 2.25 1.26 3.43 2.9 6.26 1.65 3.86-1.77.81-9.52 5.2-8.44 3.98.96.8 5.84.85 7.41 0 1.91 4.48 4.67 6.26 4.8 2.12.16 8.12-5.79 7.08 0-.51 3.04-5.8 4.07-8.39 4-4.62-.12-7.48-5.82-7.98-5.87s-3.95 3.64-8.72 1.24c-1.15-.58-2.14-2.58-2.64-2.69-1.15-.27-4.44 3.31-7.82.44-2.41-2.03-3.54-8.67-1.57-11.08a1.271 1.271 0 0 1 2.26.76c.14 1.96-3.06 6.46 1.5 8.63 5.06 2.42 3.96-5.04 4.39-7.17.64-2.95 4.48-7.41 6.67-4.3Z" class="st1"/></g><g id="Layer_2"><path d="M81.57 180.94q0 .525-1.32 1.41c-7.22 4.87-12.09 7.3-14.61 7.3q-2.46 0-2.46-2.82c0-1.06.21-2.11.62-3.17.59-1.47.88-2.23.88-2.29 0-.23-.09-.35-.26-.35-.06 0-.21.06-.44.18-1.29 1.29-3.17 2.85-5.63 4.66-3.17 2.35-5.37 3.52-6.6 3.52-1.41 0-2.11-.7-2.11-2.11 0-.82 1.03-3.09 3.08-6.82s3.08-5.88 3.08-6.47c0-.64-.53-.97-1.58-.97-.23 0-.35-.35-.35-1.06.53-.18 1.08-.26 1.67-.26 2.05 0 3.08.59 3.08 1.76q0 1.935-2.73 6.51c-1.82 3.05-2.73 4.96-2.73 5.72 0 .47.2.7.62.7.94 0 3.24-1.55 6.91-4.66s6.5-5.92 8.49-8.45c.88-.88 1.52-1.32 1.94-1.32q1.14 0 1.14 1.14c0 .41-.21.94-.62 1.58-3.52 5.28-5.28 8.71-5.28 10.3 0 1.47.67 2.2 2.02 2.2 2.05 0 5.78-1.85 11.18-5.54.29-.23.7-.5 1.23-.79.18-.18.35-.26.53-.26s.26.12.26.35Zm50.51 0c-.35 1-2.49 2.49-6.42 4.49s-6.84 2.99-8.71 2.99c-1 0-1.5-.35-1.5-1.06 0-.94.98-2.82 2.95-5.63 1.96-2.82 2.95-4.66 2.95-5.54q0-1.5-1.41-1.5c-1.41 0-4.22 1.91-8.45 5.72-2.88 2.58-5.4 5.07-7.57 7.48-.82.88-1.47 1.32-1.94 1.32q-1.14 0-1.14-1.23c0-.24.2-.82.62-1.76a347 347 0 0 0 4.14-5.81c2.05-2.93 3.08-5.02 3.08-6.25 0-.53-.18-.79-.53-.79-.18 0-.53.12-1.06.35-2.99 2.23-7.25 5.4-12.76 9.5h-.62c-.41 0-.62-.06-.62-.18 0-.18.32-.47.97-.88 4.11-3.23 8.65-6.72 13.64-10.47.7-.59 1.61-.88 2.73-.88 1.17 0 1.76.53 1.76 1.58 0 1.23-.84 3.1-2.51 5.59s-2.51 3.86-2.51 4.09q0 .09.18.09c-.06 0 1.91-1.66 5.9-4.97s6.69-4.97 8.1-4.97c2.17 0 3.26.73 3.26 2.2 0 1.29-.94 3.4-2.82 6.34-1.88 2.93-2.82 4.61-2.82 5.02 0 .47.29.7.88.7 1.11 0 3.26-.85 6.42-2.55 2.17-1.23 3.84-2.26 5.02-3.08.18-.18.35-.26.53-.26s.26.12.26.35" class="st0"/><path d="M133.57 185.51c.47 0 1.61-.41 3.43-1.23 3.23-1.52 6.09-3.36 8.58-5.5s4.62-4.36 6.38-6.64c.88-.88 1.52-1.32 1.94-1.32q1.14 0 1.14 1.14c0 .47-.21 1-.62 1.58-3.52 5.28-5.28 8.71-5.28 10.3 0 1.47.67 2.2 2.02 2.2 2.05 0 5.78-1.85 11.18-5.54.12-.12.4-.32.84-.62.44-.29.75-.44.92-.44s.26.12.26.35q0 .525-1.32 1.41c-7.28 4.87-12.14 7.3-14.61 7.3q-2.46 0-2.46-2.82c0-.59.07-1.22.22-1.89s.32-1.28.53-1.8c.21-.53.38-.97.53-1.32s.22-.5.22-.44c0-.23-.09-.35-.26-.35-.29 0-.9.35-1.8 1.06q-1.365 1.05-4.44 2.82-1.5.705-2.73 1.41c-.82.47-1.61.91-2.38 1.32-.76.41-1.5.73-2.2.97a5.6 5.6 0 0 1-2.2.26c-.82-.06-1.57-.25-2.24-.57s-1.01-1.04-1.01-2.16c0-.64.16-1.2.48-1.67s.66-.7 1.01-.7c.29 0 .53.15.7.44.18.29.38.63.62 1.01.23.38.5.72.79 1.01s.7.44 1.23.44h.53Z" class="st0"/><path d="M190.24 180.94q0 1.05-5.46 4.05c-3.81 2.11-6.54 3.17-8.18 3.17-3.05 0-4.58-1.61-4.58-4.84 0-.88.47-1.88 1.41-2.99q0-.09-.09-.09c.06 0-1.53 1.22-4.75 3.65-3.23 2.44-5.54 3.65-6.95 3.65s-2.02-.56-2.02-1.67q0-4.05 6.78-9.42c4.28-3.46 7.63-5.19 10.03-5.19.35.06.75.25 1.19.57q.66.48.66.75 0 .09-.09.18c-3.29 0-7.48 2.55-12.58 7.66q-2.46 2.46-2.46 4.14c0 .41.21.62.62.62 1.29 0 3.75-1.5 7.39-4.49 2.93-2.46 5.02-4.43 6.25-5.9.59-.7 1-1.06 1.23-1.06.59 0 .88.41.88 1.23 0 .29-.38.97-1.14 2.02q-3.78 5.19-3.78 6.6 0 2.46 2.73 2.46c2.99 0 7.04-1.73 12.14-5.19.18-.18.35-.26.53-.26s.26.12.26.35Z" class="st0"/><path d="M243.4 180.94q0 .525-1.32 1.41c-4.17 2.82-6.48 4.37-6.95 4.66-2.64 1.58-4.84 2.38-6.6 2.38-1 0-1.83-.35-2.51-1.06-.68-.7-1.01-1.55-1.01-2.55 0-2.93 1.88-7.13 5.63-12.58.29-.41.44-.67.44-.79q0-.09-.09-.09c-.24 0-.65.21-1.23.62-3.29 2.46-6.92 5.19-10.91 8.18-1.7 1.47-4.2 3.52-7.48 6.16-.47.35-1.12.67-1.94.97-.41 0-.62-.29-.62-.88 0-1.17.98-3.06 2.95-5.68 1.96-2.61 2.95-4.44 2.95-5.5q0-1.5-1.41-1.5c-1.41 0-4.22 1.91-8.45 5.72-2.88 2.58-5.4 5.07-7.57 7.48-.82.88-1.47 1.32-1.94 1.32q-1.14 0-1.14-1.23c0-.24.2-.82.62-1.76 1.41-1.94 2.79-3.87 4.13-5.81 2.05-2.93 3.08-5.02 3.08-6.25 0-.53-.18-.79-.53-.79-.18 0-.53.12-1.06.35-2.99 2.23-7.25 5.4-12.76 9.5h-.62c-.41 0-.62-.06-.62-.18 0-.18.32-.47.97-.88 4.11-3.23 8.65-6.72 13.64-10.47.7-.59 1.61-.88 2.73-.88 1.17 0 1.76.53 1.76 1.58 0 .24-.06.59-.18 1.06-1.17 2.05-2.67 4.66-4.49 7.83-.24.41-.35.68-.35.79q0 .09.18.09l.26-.09c2.17-1.88 4.34-3.75 6.51-5.63 3.34-2.82 5.75-4.22 7.21-4.22 1.94 0 2.9.62 2.9 1.85 0 1.06-.57 2.65-1.71 4.8-1.14 2.14-1.72 3.3-1.72 3.48s.06.26.18.26c.23 0 .64-.2 1.23-.62l18.3-13.82c.59-.47 1.2-.7 1.85-.7.41 0 .7.07.88.22q.27.225.27.75c0 .41-.12.76-.35 1.06-1.64 2.35-3.31 4.72-5.02 7.13-1.99 3.05-2.99 5.69-2.99 7.92 0 1.41.76 2.08 2.29 2.02 1.82-.06 3.87-.79 6.16-2.2 1.88-1.17 3.75-2.35 5.63-3.52.18-.18.35-.26.53-.26s.26.12.26.35Z" class="st0"/><path d="M244.8 184.11c0 1.58.64 2.38 1.94 2.38.94 0 1.88-.26 2.82-.79s1.85-1.2 2.73-2.02c-.88-.88-1.32-1.96-1.32-3.26 0-1.41.4-2.62 1.19-3.65s1.69-1.54 2.68-1.54 1.58.47 1.76 1.41c0 .88-.15 1.83-.44 2.86s-.82 2.13-1.58 3.3c.88.88 2.11 1.32 3.7 1.32 1.94 0 3.93-.79 5.98-2.38.18-.18.32-.26.44-.26.18 0 .26.12.26.35 0 .47-.32.91-.97 1.32s-1.39.79-2.24 1.14-1.72.63-2.6.84-1.55.31-2.02.31c-.82 0-1.47-.1-1.94-.31s-.97-.51-1.5-.92c-1.23 1.47-2.64 2.61-4.22 3.43s-3.11 1.23-4.58 1.23c-1.12 0-1.94-.46-2.46-1.36-.53-.91-.79-1.95-.79-3.12 0-.76.34-1.99 1.01-3.7.67-1.7 1.51-3.43 2.51-5.19q1.5-2.64 3.3-4.62t3.3-1.98c.47.12.7.26.7.44 0 .06-.48.73-1.45 2.02s-1.95 2.79-2.95 4.49-1.79 3.3-2.38 4.8-.88 2.66-.88 3.48Zm10.83-7.13c.23-.12.25-.22.04-.31s-.43-.13-.66-.13c-.47 0-.92.32-1.36.97q-.66.975-.66 2.55c0 .88.21 1.61.62 2.2.7-.88 1.22-1.8 1.54-2.77s.48-1.74.48-2.33z" class="st0"/><path d="M283.43 178.21c.88-.88 1.53-1.32 1.94-1.32q1.14 0 1.14 1.14c0 .47-.21 1-.62 1.58-.7 1.06-1.29 1.98-1.76 2.77s-.76 1.45-.88 1.98 0 .94.35 1.23 1.03.44 2.02.44c2.05 0 5.78-1.85 11.18-5.54.12-.12.4-.32.84-.62.44-.29.75-.44.92-.44s.26.12.26.35q0 .525-1.32 1.41c-7.27 4.87-12.14 7.3-14.61 7.3q-2.46 0-2.46-2.82c0-.82.12-1.61.35-2.38.23-.76.47-1.38.7-1.85-.41 0-.81-.03-1.19-.09s-.78-.12-1.19-.18c-1.06.76-2.26 1.54-3.61 2.33s-2.7 1.51-4.05 2.16-2.63 1.16-3.83 1.54-2.19.54-2.95.48c-.82-.06-1.57-.25-2.24-.57s-1.01-1.04-1.01-2.16c0-.64.16-1.2.48-1.67s.66-.7 1.01-.7c.29 0 .53.15.7.44.18.29.38.63.62 1.01.23.38.5.72.79 1.01s.7.44 1.23.44h.53c.18 0 .54-.09 1.1-.26.56-.18 1.33-.5 2.33-.97q2.205-1.05 3.96-1.8c1.17-.5 2.26-1.07 3.26-1.72-1.12-.23-2.17-.62-3.17-1.14-1.41-.7-2.02-1.99-1.85-3.87.12-1.29.65-2.35 1.58-3.17.94-.82 2.01-1.41 3.21-1.76s2.4-.45 3.61-.31c1.2.15 2.13.56 2.77 1.23s.89 1.6.75 2.77c-.15 1.17-.98 2.64-2.51 4.4l-.57.57q-.315.315-.75.57l1.5.44c.06-.12.18-.31.35-.57.18-.26.35-.53.53-.79s.32-.48.44-.66.15-.26.09-.26Zm-1.67-1.67c.18-.29.34-.56.48-.79.15-.23.28-.5.4-.79.18-.47.28-.97.31-1.5q.045-.795-.57-1.5c-.53-.59-1.39-.72-2.6-.4-1.2.32-2.27.9-3.21 1.72s-1.54 1.78-1.8 2.86c-.26 1.09.25 2.04 1.54 2.86l2.64.7q.705-.615 1.41-1.41c.47-.53.94-1.11 1.41-1.76Zm53.42 2.37c.7-.82 1.6-1.88 2.68-3.17s2.1-2.52 3.04-3.7c.53-.35 1.06-.44 1.58-.26.53.18.67.41.44.7-1.76 2.64-3.05 4.99-3.87 7.04s-1.23 3.49-1.23 4.31c0 1.47.67 2.2 2.02 2.2 2.05 0 5.78-1.85 11.18-5.54.12-.12.4-.32.84-.62.44-.29.75-.44.92-.44s.26.12.26.35q0 .525-1.32 1.41c-7.28 4.87-12.14 7.3-14.61 7.3q-2.46 0-2.46-2.82c0-.59.07-1.22.22-1.89s.32-1.28.53-1.8c.21-.53.38-.97.53-1.32s.22-.5.22-.44c0-.23-.09-.35-.26-.35-.41.47-1.06 1.14-1.94 2.02q-1.32 1.32-2.82 2.64c-1 .88-2 1.63-2.99 2.24-1 .62-1.79.89-2.38.84q-1.05-.09-1.32-.75c-.27-.66-.18-.98 0-1.63s.47-1.35.88-2.11.85-1.5 1.32-2.2c.12-.18.32-.51.62-1.01.29-.5.57-.98.84-1.45q.39-.705.57-1.14t-.18-.18q-.09-.18-.66.48c-.38.44-.89 1.01-1.54 1.72-.65.7-1.39 1.45-2.24 2.24s-1.8 1.51-2.86 2.16c-.76.47-1.56.95-2.38 1.45s-1.63.94-2.42 1.32-1.58.69-2.38.92c-.79.23-1.57.32-2.33.26-.82-.06-1.57-.25-2.24-.57s-1.01-1.04-1.01-2.16c0-.64.16-1.2.48-1.67s.66-.7 1.01-.7c.29 0 .53.15.7.44.18.29.38.63.62 1.01.23.38.5.72.79 1.01s.7.44 1.23.44h.53c.47 0 1.61-.41 3.43-1.23 3.23-1.52 5.94-3.4 8.14-5.63q3.3-3.345 5.94-6.78c.88-.88 1.52-1.32 1.94-1.32.18 0 .4.07.66.22s.44.4.53.75 0 .84-.26 1.45c-.26.62-.78 1.39-1.54 2.33-.47.47-1.01 1.17-1.63 2.11s-1.23 1.94-1.85 2.99c-.62 1.06-1.17 2.05-1.67 2.99s-.84 1.61-1.01 2.02c.06.47.45.5 1.19.09.73-.41 1.58-1 2.55-1.76s1.92-1.6 2.86-2.51 1.64-1.69 2.11-2.33Z" class="st0"/><path d="M372.84 180.94c0 .41-1.2 1.38-3.61 2.9-5.93 3.76-10.18 5.63-12.76 5.63-3.81 0-5.72-2.23-5.72-6.69 0-3.29 1.6-6.58 4.8-9.9 3.2-3.31 6.23-4.97 9.11-4.97q1.32 0 1.32 1.23c0 2-1.73 4.81-5.19 8.45-2.76 2.88-5.02 4.84-6.78 5.9.18 2.58 1.41 3.87 3.7 3.87 2.17 0 5.81-1.47 10.91-4.4.41-.23 1.55-.94 3.43-2.11.18-.18.35-.26.53-.26s.26.12.26.35m-9.59-10.12c0-.7-.21-1.06-.62-1.06-1.47 0-3.26 1.47-5.37 4.4s-3.2 5.57-3.26 7.92c1.11-.35 2.87-1.88 5.28-4.58q3.96-4.395 3.96-6.69Z" class="st0"/><path d="M399.24 180.94c0 1.06-2.67 3.11-8.01 6.16-2.35 1.35-4.69 2.02-7.04 2.02-2.76 0-4.14-1.17-4.14-3.52 0-1.47 1.03-3.34 3.08-5.63 1.76-1.94 2.73-2.9 2.9-2.9-1.06 0-1.88-.62-2.46-1.85-.59-1.23-1.03-1.85-1.32-1.85-.23 0-.56.21-.97.62-.82 1.23-2.41 2.79-4.75 4.66q-1.845 1.5-5.19 3.78c-.18.18-.35.26-.53.26-.12 0-.18-.32-.18-.97.29-.18 1.35-.94 3.17-2.29 4.11-3.05 7.42-6.48 9.94-10.3.47-.76 1.08-1.14 1.85-1.14.35 0 .53.18.53.53 0 .24-.12.75-.35 1.54-.24.79-.35 1.36-.35 1.72 0 1.06.57 2 1.72 2.82 1.14.82 1.72 1.38 1.72 1.67 0 .53-.9 1.6-2.68 3.21-1.79 1.61-2.68 3.12-2.68 4.53 0 2.05.94 3.08 2.82 3.08 1.76 0 4.08-.88 6.95-2.64 1.7-1.17 3.43-2.38 5.19-3.61.18-.18.35-.26.53-.26s.26.12.26.35Z" class="st0"/><path d="M452.48 180.94q0 .525-1.32 1.41c-4.17 2.82-6.48 4.37-6.95 4.66-2.64 1.58-4.84 2.38-6.6 2.38-1 0-1.83-.35-2.51-1.06-.68-.7-1.01-1.55-1.01-2.55 0-2.93 1.88-7.13 5.63-12.58.29-.41.44-.67.44-.79q0-.09-.09-.09c-.24 0-.65.21-1.23.62-3.29 2.46-6.92 5.19-10.91 8.18-1.7 1.47-4.2 3.52-7.48 6.16-.47.35-1.12.67-1.94.97-.41 0-.62-.29-.62-.88 0-1.17.98-3.06 2.95-5.68 1.96-2.61 2.95-4.44 2.95-5.5q0-1.5-1.41-1.5c-1.41 0-4.22 1.91-8.45 5.72-2.88 2.58-5.4 5.07-7.57 7.48-.82.88-1.47 1.32-1.94 1.32q-1.14 0-1.14-1.23c0-.24.21-.82.62-1.76a347 347 0 0 0 4.14-5.81c2.05-2.93 3.08-5.02 3.08-6.25 0-.53-.18-.79-.53-.79-.18 0-.53.12-1.06.35-2.99 2.23-7.25 5.4-12.76 9.5h-.62c-.41 0-.62-.06-.62-.18 0-.18.32-.47.97-.88 4.11-3.23 8.65-6.72 13.64-10.47.7-.59 1.61-.88 2.73-.88 1.17 0 1.76.53 1.76 1.58 0 .24-.06.59-.18 1.06-1.17 2.05-2.67 4.66-4.49 7.83-.24.41-.35.68-.35.79q0 .09.18.09l.26-.09c2.17-1.88 4.34-3.75 6.51-5.63 3.34-2.82 5.75-4.22 7.22-4.22 1.94 0 2.9.62 2.9 1.85 0 1.06-.57 2.65-1.72 4.8-1.14 2.14-1.72 3.3-1.72 3.48s.06.26.18.26c.23 0 .64-.2 1.23-.62l18.3-13.82c.59-.47 1.2-.7 1.85-.7.41 0 .7.07.88.22s.26.4.26.75c0 .41-.12.76-.35 1.06-1.64 2.35-3.32 4.72-5.02 7.13-2 3.05-2.99 5.69-2.99 7.92 0 1.41.76 2.08 2.29 2.02 1.82-.06 3.87-.79 6.16-2.2 1.88-1.17 3.75-2.35 5.63-3.52.18-.18.35-.26.53-.26s.26.12.26.35Z" class="st0"/><path d="M453.62 184.11c0 1.58.64 2.38 1.94 2.38.94 0 1.88-.26 2.82-.79s1.85-1.2 2.73-2.02c-.88-.88-1.32-1.96-1.32-3.26 0-1.41.4-2.62 1.19-3.65s1.69-1.54 2.68-1.54 1.58.47 1.76 1.41c0 .88-.15 1.83-.44 2.86s-.82 2.13-1.58 3.3c.88.88 2.11 1.32 3.7 1.32.94 0 1.88-.23 2.82-.7.23-2.05 1.2-4.4 2.9-7.04.64-1 1.28-1.91 1.89-2.73.62-.82 1.25-1.55 1.89-2.2.41-.53 1.06-.79 1.94-.79.47.12.7.26.7.44 0 .06-.34.5-1.01 1.32s-1.51 2.08-2.51 3.78c-1.23 2-2.14 3.75-2.73 5.28.06.06.09.15.09.26 0 .24-.12.53-.35.88-.06.24-.09.56-.09.97 0 .94.26 1.63.79 2.07s1.2.66 2.02.66c2.11 0 5.49-1.7 10.12-5.1.18-.18.35-.26.53-.26s.26.12.26.35c0 .35-.59.94-1.76 1.76-2.29 1.64-4.44 3.02-6.47 4.14-2.02 1.11-3.71 1.67-5.06 1.67s-2.23-.43-2.64-1.28-.62-1.83-.62-2.95v-.18c-.76.29-1.5.53-2.2.7-.7.18-1.26.26-1.67.26-.82 0-1.47-.1-1.94-.31s-.97-.51-1.5-.92c-1.23 1.47-2.64 2.61-4.22 3.43s-3.11 1.23-4.58 1.23c-1.12 0-1.94-.46-2.46-1.36-.53-.91-.79-1.95-.79-3.12 0-.76.26-1.92.79-3.48q.795-2.325 2.07-4.71c.85-1.58 1.8-2.96 2.86-4.14 1.06-1.17 2.08-1.76 3.08-1.76.47.12.7.26.7.44l-3.08 5.1c-1 1.7-1.79 3.3-2.38 4.8s-.88 2.66-.88 3.48Zm10.82-7.13c.23-.12.25-.22.04-.31s-.43-.13-.66-.13c-.47 0-.92.32-1.36.97q-.66.975-.66 2.55c0 .88.21 1.61.62 2.2.7-.88 1.22-1.8 1.54-2.77s.48-1.74.48-2.33zM86.98 134.22q-.135 0-.18-.18c-1.09-4.08-2.29-6.35-3.61-6.82-.26-.21-1.29-.31-3.08-.31-.18 0-.32.1-.44.29s-.18.43-.18.73v13.99c0 1.56.23 2.66.68 3.3.45.65 1.17.97 2.13.97.15 0 .22.06.22.18s-.07.18-.22.18c-.44-.03-1.35-.04-2.73-.04h-5.24c-1.38 0-2.29.01-2.73.04-.15 0-.22-.06-.22-.18s.07-.18.22-.18c.97 0 1.68-.32 2.13-.97s.68-1.75.68-3.3v-13.99c0-.29-.06-.54-.18-.73s-.26-.29-.44-.29c-1.79 0-2.82.1-3.08.31-1.32.47-2.52 2.74-3.61 6.82q-.045.18-.18.18c-.135 0-.12-.06-.09-.18.35-2.61.53-5 .53-7.17 0-.47.19-.7.57-.7.18 0 .68.06 1.52.18q1.26.18 4.95.18h5.06c2.38 0 4-.06 4.88-.18s1.42-.18 1.63-.18c.35 0 .53.24.53.7 0 2.17.18 4.56.53 7.17q.045.18-.09.18Zm24.81-7.66q0 .18-.18.18c-.65 0-1.18.28-1.61.84-.42.56-.96 1.61-1.61 3.17l-6.86 16.24c-.94 2.11-1.8 3.79-2.57 5.04-.78 1.25-1.62 2.18-2.53 2.79-.91.62-1.95.92-3.12.92-1.29 0-2.46-.31-3.52-.92-1.06-.62-1.64-1.33-1.76-2.16-.03-.41.16-1.06.57-1.96s.82-1.61 1.23-2.16c.41-.54.6-.58.57-.11-.03.62.18 1.41.64 2.38.45.97 1.05 1.82 1.78 2.55s1.51 1.1 2.33 1.1 1.6-.34 2.24-1.01q.96-1.02 1.98-3.3c.09-.44 0-1.06-.29-1.87-.28-.81-.59-1.58-.95-2.31l-6.42-15.22c-.65-1.55-1.18-2.61-1.61-3.17s-.96-.84-1.61-.84q-.18 0-.18-.18c0-.18.06-.18.18-.18l1.94.04h5.59l3.26-.04c.21 0 .31.06.31.18s-.1.18-.31.18c-1.76 0-2.64.65-2.64 1.94q0 .93.48 2.07l5.19 12.23c.06.18.14.27.24.29s.18-.07.24-.24l5.19-12.28c.35-.85.53-1.52.53-2.02q0-1.98-2.82-1.98c-.18 0-.26-.06-.26-.18s.09-.18.26-.18l3.43.04h.53l1.94-.04q.18 0 .18.18Zm21.39 7.66q-.135 0-.18-.18c-1.09-4.08-2.29-6.35-3.61-6.82-.26-.21-1.29-.31-3.08-.31-.18 0-.32.1-.44.29s-.18.43-.18.73v13.99c0 1.56.23 2.66.68 3.3.45.65 1.17.97 2.13.97.15 0 .22.06.22.18s-.07.18-.22.18c-.44-.03-1.35-.04-2.73-.04h-5.24c-1.38 0-2.29.01-2.73.04-.15 0-.22-.06-.22-.18s.07-.18.22-.18c.97 0 1.68-.32 2.13-.97s.68-1.75.68-3.3v-13.99c0-.29-.06-.54-.18-.73s-.26-.29-.44-.29c-1.79 0-2.82.1-3.08.31-1.32.47-2.52 2.74-3.61 6.82q-.045.18-.18.18c-.135 0-.12-.06-.09-.18.35-2.61.53-5 .53-7.17 0-.47.19-.7.57-.7.18 0 .68.06 1.52.18s2.49.18 4.95.18h5.06c2.38 0 4-.06 4.88-.18s1.42-.18 1.63-.18c.35 0 .53.24.53.7 0 2.17.18 4.56.53 7.17q.045.18-.09.18Zm31.7-7.24c1.28.84 2.3 2.04 3.08 3.61q1.17 2.355 1.17 5.43c0 1.94-.45 3.76-1.34 5.48-.9 1.72-2.11 3.09-3.65 4.11s-3.22 1.54-5.04 1.54c-1.12 0-2.04-.15-2.77-.44s-1.42-.66-2.07-1.1c-.44-.29-.73-.44-.88-.44-.26 0-.4.25-.4.75v4.84c0 1.55.21 2.65.64 3.28.42.63 1.08.98 1.96 1.03.15 0 .22.05.22.15s-.07.15-.22.15c-1.23-.06-2.76-.09-4.58-.09-2.32 0-4.21.03-5.68.09-.15 0-.22-.06-.22-.18s.07-.18.22-.18c.88.03 1.53-.28 1.96-.92.43-.65.64-1.77.64-3.39v-18.66c0-1.11-.14-1.93-.42-2.44s-.8-.77-1.56-.77q-.225 0-.75.09c-.12.03-.18 0-.2-.11-.02-.1.02-.17.11-.2 1.38-.32 2.79-.75 4.25-1.28 1.45-.53 2.63-1.1 3.54-1.72.15-.09.27-.12.37-.09s.14.12.11.26c-.18 1.53-.28 2.82-.31 3.87 0 .35.02.68.07.99s.11.45.2.42c.79-1.58 1.77-2.87 2.95-3.87 1.17-1 2.64-1.5 4.4-1.5 1.52 0 2.93.42 4.2 1.25Zm-1.37 17.93c.84-1.06 1.25-2.6 1.25-4.62s-.34-3.86-1.01-5.68-1.58-3.29-2.71-4.4-2.35-1.67-3.67-1.67-2.38.56-3.19 1.67-1.21 2.61-1.21 4.49v2.95c0 2.55.58 4.66 1.74 6.34 1.16 1.67 2.73 2.51 4.73 2.51 1.88 0 3.23-.53 4.07-1.58Zm13.29.99a9.53 9.53 0 0 1-3.83-3.67c-.92-1.58-1.39-3.39-1.39-5.41s.53-3.92 1.58-5.61c1.06-1.69 2.5-3.01 4.33-3.98s3.85-1.45 6.05-1.45c2.05 0 3.91.43 5.57 1.3s2.96 2.08 3.89 3.63c.94 1.56 1.41 3.33 1.41 5.32s-.54 3.94-1.61 5.65c-1.07 1.72-2.54 3.07-4.4 4.05s-3.91 1.47-6.14 1.47c-2.02 0-3.85-.43-5.48-1.3Zm11.84-1.19c.95-.95 1.43-2.35 1.43-4.2s-.46-3.77-1.39-5.94q-1.38-3.255-3.48-5.52c-1.39-1.51-2.75-2.27-4.07-2.27q-2.46 0-3.87 1.41c-.94.94-1.41 2.35-1.41 4.22 0 1.76.45 3.73 1.36 5.92s2.06 4.03 3.45 5.54 2.74 2.27 4.03 2.27c1.67 0 2.98-.48 3.94-1.43Zm21.12-17.66c1.36.88 2.05 2.05 2.05 3.52 0 1.26-.44 2.27-1.32 3.04-.88.76-2 1.23-3.34 1.41 1.67.09 3.09.62 4.27 1.61 1.17.98 1.76 2.27 1.76 3.85 0 2.05-.79 3.68-2.38 4.88s-3.73 1.8-6.42 1.8c-3.67 0-6.45-1.47-8.36-4.4-.06-.12-.05-.2.02-.24s.14-.02.2.07c1 1.53 2.87 2.29 5.63 2.29 2.05 0 3.61-.37 4.66-1.1 1.06-.73 1.58-2.08 1.58-4.05 0-1.5-.37-2.6-1.1-3.3s-1.98-1.07-3.74-1.1l-1.5-.09c-.12 0-.18-.04-.18-.13s.04-.13.13-.13l1.41-.13c1.61-.18 2.76-.6 3.45-1.28.69-.67 1.03-1.77 1.03-3.3 0-2.55-1.38-3.83-4.14-3.83-1.76 0-3.18.64-4.27 1.91-1.09 1.28-1.97 3.22-2.64 5.83-.03.12-.09.16-.2.13-.1-.03-.14-.1-.11-.22l.75-4.36c.12-.64.47-1.28 1.06-1.89.59-.62 1.41-1.12 2.46-1.52 1.06-.4 2.29-.59 3.7-.59q3.48 0 5.52 1.32Zm11.08 18.85a9.53 9.53 0 0 1-3.83-3.67c-.92-1.58-1.39-3.39-1.39-5.41s.53-3.92 1.58-5.61c1.06-1.69 2.5-3.01 4.33-3.98s3.85-1.45 6.05-1.45c2.05 0 3.91.43 5.57 1.3s2.96 2.08 3.89 3.63c.94 1.56 1.41 3.33 1.41 5.32s-.54 3.94-1.61 5.65c-1.07 1.72-2.54 3.07-4.4 4.05s-3.91 1.47-6.14 1.47c-2.02 0-3.85-.43-5.48-1.3Zm11.84-1.19c.95-.95 1.43-2.35 1.43-4.2s-.46-3.77-1.39-5.94q-1.38-3.255-3.48-5.52c-1.39-1.51-2.75-2.27-4.07-2.27q-2.46 0-3.87 1.41c-.94.94-1.41 2.35-1.41 4.22 0 1.76.45 3.73 1.36 5.92s2.06 4.03 3.45 5.54 2.74 2.27 4.03 2.27c1.67 0 2.98-.48 3.94-1.43Zm8.03 1.79c-.15 0-.22-.06-.22-.18s.07-.18.22-.18c1 .03 1.72-.28 2.18-.92.45-.65.68-1.75.68-3.3v-10.87c0-1.55-.23-2.65-.68-3.3-.46-.64-1.17-.97-2.13-.97-.15 0-.22-.06-.22-.18s.07-.18.22-.18q1.32.09 2.73.09c3.7-.09 7.05-.13 10.08-.13 2.32 0 4.12.39 5.41 1.17s1.94 1.97 1.94 3.59c0 1.06-.45 2-1.34 2.84-.9.84-2 1.33-3.32 1.47 1.7.09 3.12.59 4.27 1.5 1.14.91 1.72 2.16 1.72 3.74 0 1.85-.73 3.3-2.18 4.36s-3.45 1.58-6.01 1.58l-10.56-.18-2.77.04Zm11.75-11.27c1.5-.18 2.57-.58 3.21-1.21s.97-1.61.97-2.93c0-1.44-.37-2.51-1.12-3.21s-1.69-1.07-2.84-1.1l-3.12-.13h-.13c-.29 0-.48.07-.57.22s-.13.41-.13.79V145q0 .795.24 1.08c.16.19.48.29.95.29l2.77-.04c1.5 0 2.66-.43 3.5-1.3.84-.86 1.25-2.15 1.25-3.85s-.37-3.06-1.12-3.98q-1.125-1.38-3.72-1.47l-1.5-.04c-.12 0-.18-.04-.18-.13s.04-.15.13-.18l1.41-.13Zm23.41-.22c6.01-.09 9.02 1.75 9.02 5.5 0 1.94-.7 3.42-2.11 4.44-1.41 1.03-3.51 1.54-6.29 1.54h-9.24c-1.38 0-2.3.01-2.77.04-.15 0-.22-.06-.22-.18s.07-.18.22-.18c.97 0 1.69-.32 2.16-.97s.7-1.75.7-3.3v-10.91c0-1.55-.24-2.65-.7-3.3-.47-.65-1.19-.97-2.16-.97-.15 0-.22-.06-.22-.18s.07-.18.22-.18l2.77.04h5.24l2.73-.04c.15 0 .22.06.22.18s-.07.18-.22.18c-.97 0-1.68.32-2.13.97-.46.65-.68 1.75-.68 3.3v3.56c0 .32.13.48.4.48l3.08-.04Zm-.71 11.13c1.41-.03 2.5-.54 3.28-1.54s1.17-2.33 1.17-4-.4-2.93-1.19-3.85-1.94-1.37-3.43-1.34l-2.2.04c-.26 0-.4.16-.4.48v9.06c0 .47.06.79.18.95s.35.24.7.24zm20.37.22c0 .12-.07.18-.22.18-.47-.03-1.38-.04-2.73-.04h-5.24c-1.38 0-2.3.01-2.77.04q-.18 0-.18-.18c0-.18.06-.18.18-.18 1 0 1.72-.32 2.18-.97s.68-1.75.68-3.3v-11.04c0-1.55-.23-2.65-.68-3.3-.46-.65-1.18-.97-2.18-.97q-.18 0-.18-.18c0-.18.06-.18.18-.18l2.77.04h5.24l2.73-.04c.15 0 .22.06.22.18s-.07.18-.22.18c-.97 0-1.68.32-2.13.97-.46.65-.68 1.75-.68 3.3v11.04c0 1.56.23 2.66.68 3.3.45.65 1.17.97 2.13.97.15 0 .22.06.22.18m21.5-3.74c.07.06.08.13.02.22a11.16 11.16 0 0 1-4.14 3.21c-1.61.73-3.3 1.1-5.06 1.1-1.85 0-3.56-.43-5.15-1.28a9.5 9.5 0 0 1-3.76-3.63c-.92-1.57-1.39-3.38-1.39-5.43s.51-3.89 1.52-5.59 2.38-3.04 4.11-4.03c1.73-.98 3.62-1.47 5.68-1.47 2.29 0 4.19.62 5.72 1.87 1.52 1.25 2.29 2.94 2.29 5.08 0 .97-.18 2.01-.53 3.12-3.08.06-7.8.19-14.17.4.5 1.61 1.27 3.06 2.31 4.33 1.04 1.28 2.24 2.27 3.59 2.99q2.025 1.08 3.96 1.08c2.14 0 3.75-.67 4.84-2.02.03-.03.08-.01.15.04Zm-14.08-14.54c-.87 1.01-1.3 2.53-1.3 4.55 0 1 .15 2.08.44 3.26 1.67-.03 3.64-.1 5.9-.22.59-.03 1.19-.06 1.83-.09.63-.03 1.27-.04 1.91-.04.26-.44.4-.98.4-1.63 0-.97-.27-2.03-.81-3.19s-1.23-2.14-2.07-2.95-1.68-1.21-2.53-1.21c-1.64 0-2.9.51-3.76 1.52Zm44.44-.09c1.66.87 2.96 2.05 3.92 3.54s1.43 3.2 1.43 5.1-.54 3.71-1.61 5.32-2.54 2.89-4.4 3.83-3.91 1.41-6.14 1.41c-2 0-3.79-.4-5.39-1.19s-2.87-1.91-3.81-3.34c-.94-1.44-1.44-3.08-1.5-4.93v-2.24c0-3.75.62-6.92 1.85-9.5s2.84-4.55 4.82-5.9q2.97-2.025 6.45-2.46c2.11-.29 3.7-.58 4.75-.86 1.06-.28 1.75-.57 2.09-.88s.51-.68.51-1.12c0-.15.05-.22.15-.22s.17.07.2.22c.06.47.09.84.09 1.1 0 1.44-.48 2.72-1.43 3.85q-1.425 1.695-5.04 2.31c-1.47.26-3.12.51-4.97.75-1.76.23-3.03.44-3.81.62s-1.43.47-1.96.88c-.62.41-1.07 1.04-1.36 1.89s-.44 2.02-.44 3.52c0 .79.01 1.42.04 1.89 1.08-1.5 2.51-2.68 4.27-3.56s3.65-1.32 5.68-1.32 3.95.43 5.61 1.3Zm-.44 16.79c.95-.97 1.43-2.42 1.43-4.36 0-1.64-.43-3.48-1.3-5.5s-1.98-3.75-3.34-5.17-2.75-2.13-4.16-2.13c-1.7 0-3.03.48-3.98 1.43s-1.43 2.41-1.43 4.38c0 1.61.43 3.44 1.3 5.48s1.97 3.77 3.32 5.19 2.71 2.13 4.09 2.13c1.76 0 3.12-.48 4.07-1.45m27.5-17.8c1.28.84 2.3 2.04 3.08 3.61q1.17 2.355 1.17 5.43c0 1.94-.45 3.76-1.34 5.48-.9 1.72-2.11 3.09-3.65 4.11s-3.22 1.54-5.04 1.54c-1.12 0-2.04-.15-2.77-.44s-1.42-.66-2.07-1.1c-.44-.29-.73-.44-.88-.44-.26 0-.4.25-.4.75v4.84c0 1.55.21 2.65.64 3.28.42.63 1.08.98 1.96 1.03.15 0 .22.05.22.15s-.07.15-.22.15c-1.23-.06-2.76-.09-4.58-.09-2.32 0-4.21.03-5.68.09-.15 0-.22-.06-.22-.18s.07-.18.22-.18c.88.03 1.53-.28 1.96-.92.43-.65.64-1.77.64-3.39v-18.66c0-1.11-.14-1.93-.42-2.44s-.8-.77-1.56-.77q-.225 0-.75.09c-.12.03-.18 0-.2-.11-.02-.1.02-.17.11-.2 1.38-.32 2.79-.75 4.25-1.28 1.45-.53 2.63-1.1 3.54-1.72.15-.09.27-.12.37-.09s.14.12.11.26c-.18 1.53-.28 2.82-.31 3.87 0 .35.02.68.07.99s.11.45.2.42c.79-1.58 1.77-2.87 2.95-3.87 1.17-1 2.64-1.5 4.4-1.5 1.52 0 2.93.42 4.2 1.25Zm-1.37 17.93c.84-1.06 1.25-2.6 1.25-4.62s-.34-3.86-1.01-5.68-1.58-3.29-2.71-4.4-2.35-1.67-3.67-1.67-2.38.56-3.19 1.67-1.21 2.61-1.21 4.49v2.95c0 2.55.58 4.66 1.74 6.34 1.16 1.67 2.73 2.51 4.73 2.51 1.88 0 3.23-.53 4.07-1.58Zm30.16-6.16c.09 0 .13.07.13.22 0 2.23-.48 4.14-1.43 5.72s-2.19 2.38-3.72 2.38c-1.12 0-2.05-.37-2.82-1.12s-1.19-1.87-1.28-3.37q-1.05 2.205-2.79 3.39c-1.74 1.185-2.43 1.19-3.81 1.19-2.32 0-4.03-.65-5.15-1.96-1.11-1.31-1.67-2.82-1.67-4.55s.77-3.06 2.31-4.09 3.47-1.54 5.79-1.54c.79 0 1.68.07 2.66.22s1.87.34 2.66.57v-1.94c0-4.52-1.96-6.78-5.9-6.78-1.61 0-2.99.53-4.11 1.58-1.13 1.06-1.69 2.64-1.69 4.75 0 .12-.03.21-.09.26q-.09.09-.18.09c-.12 0-.18-.12-.18-.35q0-2.46 1.23-4.2a7.77 7.77 0 0 1 3.17-2.62c1.29-.59 2.65-.88 4.09-.88 5.81 0 8.71 2.71 8.71 8.14v7.22c0 1.94.5 2.9 1.5 2.9s1.6-.43 1.89-1.3c.29-.86.47-2.1.53-3.72 0-.15.04-.22.13-.22Zm-9.1.66v-.26c-.32-1.06-.94-1.9-1.85-2.53s-1.91-.95-2.99-.95c-2.9 0-4.36 1.12-4.36 3.34 0 1.5.42 2.81 1.28 3.94.85 1.13 2.05 1.69 3.61 1.69 2.87 0 4.31-1.74 4.31-5.24Z" class="st0"/><path d="M429.34 146.36c0 .12-.07.18-.22.18-.44-.03-1.35-.04-2.73-.04h-5.24c-1.29 0-2.16.01-2.6.04-.15 0-.22-.06-.22-.18s.07-.18.22-.18c.94 0 1.62-.32 2.05-.97.42-.65.64-1.75.64-3.3v-5.76c0-.35-.13-.51-.4-.48-1.56.24-3.1.35-4.62.35s-3.07-.12-4.62-.35h-.04c-.18 0-.26.16-.26.48v5.76c0 1.56.21 2.66.64 3.3.42.65 1.11.97 2.05.97.15 0 .22.06.22.18s-.07.18-.22.18c-.44-.03-1.31-.04-2.6-.04h-5.24c-1.38 0-2.3.01-2.77.04-.15 0-.22-.06-.22-.18s.07-.18.22-.18c.97 0 1.69-.32 2.16-.97s.7-1.75.7-3.3V131c0-1.55-.24-2.65-.7-3.3-.47-.65-1.19-.97-2.16-.97-.15 0-.22-.06-.22-.18s.07-.18.22-.18l2.77.04h5.24l2.6-.04c.15 0 .22.06.22.18s-.07.18-.22.18c-.94 0-1.62.32-2.05.97s-.64 1.75-.64 3.3v3.83c0 .32.1.5.31.53 1.5.23 2.99.35 4.49.35 1.58 0 3.17-.12 4.75-.35.15-.03.25-.09.31-.18s.09-.2.09-.35V131c0-1.55-.21-2.65-.64-3.3s-1.11-.97-2.05-.97c-.15 0-.22-.06-.22-.18s.07-.18.22-.18l2.6.04h5.24l2.73-.04c.15 0 .22.06.22.18s-.07.18-.22.18c-.97 0-1.68.32-2.13.97-.46.65-.68 1.75-.68 3.3v10.91c0 1.56.23 2.66.68 3.3.45.65 1.17.97 2.13.97.15 0 .22.06.22.18Zm27.14 0c0 .12-.07.18-.22.18-.44-.03-1.35-.04-2.73-.04h-5.24c-1.38 0-2.29.01-2.73.04-.15 0-.22-.06-.22-.18s.07-.18.22-.18c.97 0 1.68-.32 2.13-.97s.68-1.75.68-3.3v-5.63c-.94.97-2.06 1.72-3.37 2.24-1.31.53-2.68.79-4.11.79-2.14 0-3.9-.54-5.28-1.61s-2.07-2.82-2.07-5.26v-1.45c0-1.55-.23-2.65-.68-3.3-.46-.65-1.17-.97-2.13-.97-.15 0-.22-.06-.22-.18s.07-.18.22-.18l2.73.04h5.24l2.73-.04c.15 0 .22.06.22.18s-.07.18-.22.18c-.97 0-1.68.32-2.13.97-.46.65-.68 1.75-.68 3.3v2.02c0 1.85.43 3.18 1.28 3.98.85.81 1.88 1.21 3.08 1.21q1.41 0 2.79-.66c1.38-.66 1.8-1.1 2.62-1.98v-4.58c0-1.55-.23-2.65-.68-3.3-.46-.65-1.17-.97-2.13-.97-.15 0-.22-.06-.22-.18s.07-.18.22-.18l2.73.04h5.24l2.73-.04c.15 0 .22.06.22.18s-.07.18-.22.18c-.97 0-1.68.32-2.13.97-.46.65-.68 1.75-.68 3.3v10.91c0 1.56.23 2.66.68 3.3.45.65 1.17.97 2.13.97.15 0 .22.06.22.18Zm28.82 0c0 .12-.07.18-.22.18-.44-.03-1.35-.04-2.73-.04h-5.24c-1.38 0-2.29.01-2.73.04-.15 0-.22-.06-.22-.18s.07-.18.22-.18c.97 0 1.68-.32 2.13-.97s.68-1.75.68-3.3v-10.6l-10.52 10.56v.04c0 1.56.23 2.66.68 3.3.45.65 1.17.97 2.13.97.15 0 .22.06.22.18s-.07.18-.22.18c-.47-.03-1.38-.04-2.73-.04h-5.24c-1.38 0-2.3.01-2.77.04-.15 0-.22-.06-.22-.18s.07-.18.22-.18c.97 0 1.69-.32 2.16-.97s.7-1.75.7-3.3v-10.87c0-1.55-.24-2.66-.7-3.32q-.705-.99-2.16-.99c-.15 0-.22-.06-.22-.18s.07-.18.22-.18c.94.06 1.86.09 2.77.09h5.24q1.32 0 2.73-.09c.15 0 .22.06.22.18s-.07.18-.22.18q-1.455 0-2.13.99c-.46.66-.68 1.77-.68 3.32v10.25l10.52-10.56c-.03-1.47-.27-2.5-.73-3.1s-1.15-.9-2.09-.9c-.15 0-.22-.06-.22-.18s.07-.18.22-.18q1.32.09 2.73.09h5.24q1.41 0 2.73-.09c.15 0 .22.06.22.18s-.07.18-.22.18q-1.455 0-2.13.99c-.46.66-.68 1.77-.68 3.32v10.87c0 1.56.23 2.66.68 3.3.45.65 1.17.97 2.13.97.15 0 .22.06.22.18Z" class="st0"/></g></svg>