<svg xmlns="http://www.w3.org/2000/svg" width="76" height="84" fill="none" viewBox="0 0 76 84"><g fill="#681f2a" clip-path="url(#a)"><path d="M6.492 52.464a4.2 4.2 0 0 1-.916-1.852c.755.946.555.992.916 1.852"/><path d="M60.812 4.92c.316.302 1.194.349 1.672.636 2.842 1.72 5.606 5.547 6.63 8.74.209.65.109 1.805.255 2.053q1.01.413 1.948.969c1.68 1.503 2.01 4.269 1.394 6.345q-.257.492-.623.907c0 .116 1.394.953 1.779 1.55a8.9 8.9 0 0 1 .862 3.401c0 1.015-1.186 2.62-1.093 2.991.092.372 1.363.891 1.771 1.612a6.57 6.57 0 0 1 .108 5.269 14 14 0 0 1-1.279 1.782c0 .085.901.829 1.07 1.371.933 2.883-1.917 5.347-1.917 6.029 0 .2.647.774.77 1.293a9.1 9.1 0 0 1-.23 3.96c-.209.775-1.14 1.991-1.187 2.503 0 .371 1.202 1.952 1.202 3.34 0 .99-.54 1.673-.617 2.486-.485 5.424-1.17 13.266-4.79 17.682-1.925 2.325-4.174 2.2-6.646 2.867-13.263 3.634-34.319-.883-45.748-8.632-4.467-3.045-11.322-9.925-13.278-15-.916-2.387-2.88-13.707-2.418-15.916.146-.72 1.186-1.836 1.124-2.185-.061-.348-.678-.643-.847-1.015-.855-1.86-1.14-5.424.254-7.05.77-.923 3.55-1.814 3.851-2.325.624-1.03-.447-3.355.809-5.044a7.4 7.4 0 0 1 3.08-1.837c.91-.225 2.996-.1 3.335-.349.593-.426-.192-2.41 1.872-3.052 2.48-.775 5.53.899 5.768.72.135-.49.34-.957.609-1.387 1.632-1.96 3.334-1.782 5.198-.279.27.225.247.775.478.775.516 0 .932-.775 1.463-1 2.072-.968 3.127-.31 5.122.373-2.041-2.782-1.872-4.138 0-6.858.192-.27.693-.372.77-.519.17-.317-.262-2.324.94-4.006.823-1.154 1.825-1.24 2.603-2.007 3.08-3.06 4.143-4.649 8.857-5.88 3.273-.86 4.428 1.231 5.984 1.27.446 0 1.155-.441 1.84-.496a7.33 7.33 0 0 1 3.733.504 7.4 7.4 0 0 1 2.999 2.293c.246.287.285.891.523 1.116M49.945 3.37c1.633-1.495-3.504-2.324-4.513-1.456-.331 2.48 3.235 2.627 4.498 1.464zm8.04.698a37 37 0 0 0-3.85-1.232 5.8 5.8 0 0 0-1.648.302c.593 1.147 2.472 1.612 3.658 1.705.285.038 2.572-.078 1.825-.767zm-14.093-.31a3.66 3.66 0 0 0-4.168.996 3.7 3.7 0 0 0-.738 1.328c1.032 1.72 5.368-1.634 4.883-2.316zm14.094 2.154c-.131-.14-2.688 0-3.75-.387-.825-.287-2.311-1.643-2.527-1.666-.901-.101-2.488 1.867-4.837 1.371-.593-.132-1.386-.906-1.864-.775-.685.132-2.064 2.627-4.05 3.014-.416.086-1.595-.046-1.664 0-.07.047.162 2.286-.547 3.603-.77 1.504-2.665 2.062-2.819 2.263s.532 1.55.593 2.022c.378 3.37-3.296 4.022-2.742 7.214-1.27-.628-.693.155-1.293.403-1.648.69-5.022.527-6.285-.775-.4-.418-.354-1.774-1.432-1.441-.624.194-1.04 2.944-3.235 3.533-2.88.775-3.674-1.991-4.721-1.689-1.425 2.828-2.734 4.905-6.316 3.688.3 3.402-1.324 6.974-5.214 6.47.555 2.425 1.287 5.974-.346 8.128-.362.48-1.317.83-1.371 1.255a21.4 21.4 0 0 0 1.14 4.3c.323.497 1.94 1.295 2.718 2.201 2.003 2.325 3.774 5.61 3.374 8.78 3.935-.342 9.172 2.215 8.888 6.779 2.133-.628 5.067-.574 6.762 1.061.26.328.468.694.616 1.085.33.24 6.654-3.1 6.715 1.55 2.504-.883 4.39-1.1 6.555.666.323.264.508.891.654.883.94 0 2.426-1.975 5.184-1.55 1.486.241 2.04 1.837 2.187 1.853 1.61.124 4.005-2.395 6.731 0 .47.403.27 1.115.893.922a6.16 6.16 0 0 1 2.742-1.893 6.1 6.1 0 0 1 3.32-.184c.693.124 2.51 1.271 2.672 1.155a2.4 2.4 0 0 1 .447-.93c1.887-1.82 1.417-2.038 2.665-3.797.3-.418 1.07-.674 1.147-1 .054-.209-.77-2.812-.554-4.269.2-1.286 1.763-2.619 1.771-2.79s-1.04-1.347-1.232-1.789a5.1 5.1 0 0 1-.12-3.866 5.06 5.06 0 0 1 2.623-2.829 5.73 5.73 0 0 1-.362-5.749c.254-.542 1.317-1.673 1.247-2.06-.1-.613-2.133-1.636-2.133-4.363 0-1.604 1.602-4.362 1.54-4.603-.061-.24-2.618-1.588-2.996-2.859-.554-1.86 1.718-4.029 1.464-4.393a4 4 0 0 1-1.233-.775 6.81 6.81 0 0 1-1.54-6.625c-2.95-.829-4.806-3.045-3.974-6.199-2.31.248-4.836-.488-5.445-3.006-.115-.504.008-1.86-.062-1.96zm6.123 4.006c.27-.326-2.434-3.1-2.765-3.247-.77-.333-1.433.372-2.134-.45-.308 3.62 2.303 3.046 4.883 3.705zm-26.04-1.852a2.79 2.79 0 0 0-2.276 1.081 2.83 2.83 0 0 0-.496 2.483c2.226.597 2.965-1.704 2.757-3.556zm29.675 8.027c.208-.224-2.603-5.23-2.904-5.238-.3-.007-.454.775-.485 1.07-.162 2.084 1.74 3.448 3.389 4.168m-1.54-5.238s-.647-.116-.601.148l.909 1.077a4.4 4.4 0 0 0-.308-1.225m-32.132 2.782c.223.666-.886 4.974.154 4.928s1.595-4.424-.154-4.928m36.753 9.848c-.378-1.945-1.163-4.362-2.442-5.85-.223 2.2.5 4.626 2.442 5.85m.315-.612c1.856-.666-1.055-6.067-1.84-5.238zM23.644 19.48c-1.07-.062-1.88.117-2.14 1.232 1.285.062 2.11.326 2.148-1.232zm7.964.93c-1.025-.403-1.633-.697-2.75-.31 0 .434 1.394.55 1.718.581.323.031 1.109.28 1.04-.27zm.616 1.55c-.147-1.015-4.406-1.387-4.621-1.224.323 2.037 3.173.968 4.628 1.208zm-9.15-.93c-1.679 0-2.31 1.07-3.373 2.146 1.694.357 2.688-.666 3.373-2.146m-7.663.302c-2.249-.465-1.117 1.55-1.301 2.1 0 .1-1.148 1.007-1.148 1.596 1.417.124 1.232-1.983 1.302-2.1.069-.116 1.401-.674 1.109-1.596zM8.364 26.26c.262-.287 1.54-1.255 1.225-1.55-.147-.139-3.358 1.256-2.75 2.465a4.5 4.5 0 0 1 1.54-.93c-1.602 1.805-2.31 2.634-2.449 5.238 2.31.263 3.343-3.208 3.381-5.076-.03-.705-.377-.371-.978-.147zm63.724 4.014c.146-1.131-.332-6.269-1.764-3.471-.863 1.627.585 2.541 1.733 3.47zm.924.302c-.131-1.092.423-2.96-.609-3.696a10 10 0 0 0 .039 1.658c-.008.388.139 1.899.539 2.038zM4.074 32.427c-3.35-.054-4.028 6.973-1.37 7.702.67.186.423-.349.454-.775.13-2.317.023-4.68.885-6.927zm68.63 6.47v-4.773c0-.271-.424-1.17-.77-.465-.74 1.503-.724 4.176.739 5.238zm.308-4.928v5.424c0 .07.346.519.616.317.855-.705 1.047-5.276-.647-5.741zM3.466 40.167c1.378-1.371 1.224-4.067.916-5.857-.493 0-.5.775-.577 1.115a22.7 22.7 0 0 0-.37 4.712zm69.215 6.788c1.278-1 1.879-3.874.454-4.928a15.4 15.4 0 0 0-.454 4.928m-69.254-.643c.177-.24-.924-3.58-1.833-3.673-.37 1.372-.77 3.208.455 4.277.23-.325 1.324-.573 1.378-.643zm68.63.333.308-4.006-.609 1.387zM67.436 72.54v6.16a26.7 26.7 0 0 0 4.32-10.824c-.57.472-.931 1.154-1.54 1.712q-.82.724-1.54 1.55c-1.54 1.728-2.488.681-4.09 1.139-.986.286-1.756 1.55-3.735 1.79-2.85.294-3.135-1-4.344-1.186-.208 0-1.871.914-2.541 1.046-1.595.302-2.31-.1-3.62-1-.34-.232-.385-.728-.532-.72-.546 0-1.625 1.193-2.58 1.418a7.4 7.4 0 0 1-2.61.108c-1.595-.263-2.704-2.402-3.397-2.464-.84-.07-2.803 1.806-4.86 1.55-1.756-.217-1.725-2.038-2.187-2.146-.277-.07-2.064 1.023-2.819 1.154-4.059.674-3.681-2.603-4.89-2.967-.963-.287-2.31.534-3.32.58-3.766.187-3.327-3.099-4.806-3.788-1.725-.775-4.32.387-6.523-1.457-1.91-1.596-1.109-3.874-2.087-5.61-.893-1.55-3.55-2.1-4.429-3.874-.562-1.131-1.078-6.013-1.324-6.198-.247-.186-1.856.185-2.419-.341.863 6.12 2.234 12.63 6.578 17.27 12.954 13.832 38.608 20.518 56.6 15.311.492-.12.96-.325 1.385-.604.57-.604.54-5.85.694-7.175.084-.45.285-.96.647-.45zM5.576 50.612A.98.98 0 0 1 5.268 50c-.408-.077-.324.109-.3.45.1 1.627.94 4.393 2.75 4.788-.425-.914-.81-1.852-1.225-2.774.824 1.24 1.794 2.44 2.61 3.696.694-1.642-2.187-5.757-3.365-6.787-.878-.752-.254.914-.162 1.24m66.18-1.232c-2.764 1.015-2.51 4.572-.77 6.47.316-.868 1.07-6.113.77-6.47m.3 5.238.617-4.006-.578 1.108zm0 3.1c-.454-.434-.67.286-.77.604-.277 1.007-.269 2.324-.454 3.401 1.648.605 1.648-3.61 1.225-4.021zm-1.224.62c-.77-.148-.531.154-.77.611-.67 1.434-.377 2.217-.162 3.697zm-52.371 5.237c.77-2.37-5.692-5.85-6.739-4.928l.608 1.225c-.816-.179-1.078-.713-.854.403.77 3.61 3.442 3.943 6.677 4.222l-5.514-4.16c-.047-.225.323-.21.454-.148.524.233 2.187 1.868 3.127 2.402.339.186 2.04 1.163 2.233.969zM70.147 68.1c.893-.86 1.124-2.72 1.009-3.874-.817.674-1.833 2.852-2.141 3.874-.262.76.785.303 1.116-.015zm-45.255-2.324-2.75-.62c.116.52 1.371.705 1.818.775.3.023.986.395.916-.21zm43.514 2.154c.87-.48 1.14-1.852 1.217-2.774-1.201.511-1.394 1.48-1.232 2.72zm-42.29-.922c-.223-.225-5.83-1.76-6.161-1.55.878 2.604 3.235 2.921 5.676 2.162.354-.147.978-.147.47-.666zm6.747 1.224c-.632-1.96-2.742-2.255-4.29-1.07zm-.077.388c-.239-.249-4.86-1.233-5.13-1 .532 1.705 1.718 3.386 3.69 2.968.97-.264 2.395-1 1.425-2.023zm6.462.805c-.647-1.224-2.218-.898-3.366-.914-.077.45.54.426.855.52a11 11 0 0 0 2.51.394m7.963.93c-.447-2.123-3.45-1.875-4.62-.457zm-7.347 0c-.277-.643-4.698-1.38-4.906-1.232 1.209 3.03 2.449 2.286 4.937 1.217zm17.46.62h5.39c.055 0 .547-.488.463-.612a8.2 8.2 0 0 0-2.904-.938 3.3 3.3 0 0 0-1.201.365 4.3 4.3 0 0 0-1.718 1.185zm-3.366-.612a14 14 0 0 0-2.018-.605c-.947-.054-2.65.737-1.21.907.979.116 1.734 0 2.835.24.647.07.57-.41.424-.558zm13.478-.62a1.66 1.66 0 0 0-1.54.922 1.384 1.384 0 0 0 1.57-.937zm-19 1.55c-1.864-1.023-3.743-1.015-5.815-.93.878 2.278 4.328 2.999 5.869.906zm6.069.054a16.5 16.5 0 0 0-3.92-.364c.438 1.976 2.749 2.177 4.29 1.55a2.46 2.46 0 0 0-.34-1.21zm8.333-.054h-5.823c1.54 1.743 4.483 2.084 5.854-.024z"/><path d="M52.448 10.856c.154.108.501 1.309-.17 1.55-2.248.689-.923-2.34.17-1.55M20.895 30.273c.23.232.138 1.247-.77.922-1.048-.387.37-1.333.77-.922"/><path stroke="#681f2a" stroke-miterlimit="10" d="M43.353 23.253q.598.792-.247 2.27a21.3 21.3 0 0 1-2.426 3.1q0 4.362 2.31 15.922l.155.775a63 63 0 0 1 3.019-7.19l.108-.078q.177-.14.23-.07v.233a51 51 0 0 0-1.062 2.24c-.77 1.859-1.54 3.703-2.157 5.531q1.54 7.92 1.864 11.398c.3 3.526-.07 5.688-1.101 6.47-.4.302-.863.109-1.394-.596q-3.69-4.897 0-16.512-2.496-12.692-2.372-17.643-4.26 4.742-5.484 7.105-2.11 4.014.062 6.896c.978 1.302 2.056 1.51 3.219.62a3.75 3.75 0 0 0 1.325-2.27.2.2 0 0 1 .084-.148c.085-.062.154-.07.2 0 .132.186 0 .62-.307 1.318a4.2 4.2 0 0 1-1.186 1.55c-1.371 1.045-2.619.813-3.751-.683-1.456-1.929-1.464-4.308 0-7.112a39 39 0 0 1 5.168-6.974q.233-.293.708-.83.216-4.082 1.856-5.33c.478-.38.925-.38 1.179.008Zm-.563 24.213q-3.28 10.785.193 15.28c.439.558.77.736 1.055.535q1.11-.837.555-5.478-.324-2.835-1.803-10.337Zm.062-23.632a.44.44 0 0 0-.518-.226.44.44 0 0 0-.175.102c-.886.682-1.379 2.146-1.471 4.409.716-.799 1.36-1.66 1.925-2.573.44-.775.486-1.348.239-1.712Z"/><path stroke="#681f2a" stroke-miterlimit="10" d="M55.883 30.048q1.687 2.232.586 6.269a11.84 11.84 0 0 1-4.206 6.47 11 11 0 0 1-2.533 1.417q-2.25.9-3.081-.162c-.2-.264-.054-.597.447-.992a4.6 4.6 0 0 1 3.85-1.077v.093a4.84 4.84 0 0 0-3.342.868.64.64 0 0 0-.34.452.65.65 0 0 0 .147.547c.224.295.77.357 1.54.186a7.6 7.6 0 0 0 3.081-1.51 10.15 10.15 0 0 0 3.02-3.875 11.5 11.5 0 0 0 1.155-4.548 5.45 5.45 0 0 0-.863-3.549 3.47 3.47 0 0 0-2.203-1.418c-1.247-.201-2.672.302-4.259 1.511a10 10 0 0 0-2.125 2.138 1 1 0 0 1-.139.163c-.046.039-.077.047-.1 0-.023-.046 0-.178.1-.356a20 20 0 0 0 1.625-3.27c.77-2.015.809-3.471.131-4.378-.285-.38-.678-.372-1.186 0q-1.278.976-1.756 4.533a28.8 28.8 0 0 0 0 6.81q.416 3.651 1.402 5.037a.497.497 0 0 1-.116.72.284.284 0 0 1-.454-.053c-.462-.605-.847-2.147-1.178-4.65a31.4 31.4 0 0 1-.17-7.492q.47-4.2 2.31-5.563a1.53 1.53 0 0 1 1.033-.365.9.9 0 0 1 .654.334c.77 1.007.431 3.246-.993 6.702 0 .039.1 0 .223-.078l.454-.41c.285-.256.555-.473.77-.667a6.64 6.64 0 0 1 2.958-1.379 3.5 3.5 0 0 1 2.01.233c.632.274 1.17.73 1.548 1.31Z"/></g><defs><clipPath id="a"><path fill="#fff" d="M0 0h76v84H0z"/></clipPath></defs></svg>