<svg xmlns="http://www.w3.org/2000/svg" width="87" height="96" fill="none" viewBox="0 0 87 96"><g fill="#f9e5ec" clip-path="url(#a)"><path d="M7.432 59.959a4.8 4.8 0 0 1-1.049-2.116c.864 1.08.635 1.133 1.05 2.116"/><path d="M69.614 5.623c.362.345 1.367.399 1.913.726 3.254 1.966 6.419 6.34 7.591 9.989.238.744.124 2.063.291 2.347q1.156.472 2.23 1.107c1.923 1.717 2.302 4.879 1.596 7.252a5.2 5.2 0 0 1-.714 1.036c0 .133 1.596 1.09 2.037 1.771.584 1.217.92 2.539.987 3.888 0 1.16-1.357 2.993-1.252 3.418.106.425 1.56 1.018 2.028 1.842a7.5 7.5 0 0 1 .124 6.021 15.6 15.6 0 0 1-1.464 2.037c0 .097 1.032.947 1.226 1.567 1.066 3.294-2.196 6.11-2.196 6.89 0 .23.74.885.882 1.478.247 1.51.157 3.056-.265 4.526-.238.885-1.304 2.275-1.357 2.86 0 .425 1.375 2.231 1.375 3.816 0 1.134-.617 1.913-.705 2.843-.556 6.199-1.34 15.16-5.484 20.208-2.204 2.656-4.778 2.515-7.609 3.276-15.181 4.153-39.285-1.01-52.369-9.865-5.113-3.48-12.96-11.343-15.2-17.143C2.232 64.785-.017 51.848.512 49.323.68 48.5 1.87 47.226 1.8 46.828s-.776-.735-.97-1.16c-.979-2.126-1.305-6.2.29-8.059.882-1.053 4.065-2.072 4.409-2.656.714-1.178-.511-3.835.926-5.765a8.5 8.5 0 0 1 3.526-2.099c1.04-.257 3.43-.115 3.818-.398.678-.487-.22-2.754 2.142-3.49 2.839-.885 6.33 1.028 6.604.824.154-.56.389-1.093.696-1.585 1.87-2.24 3.818-2.037 5.951-.319.309.257.282.886.547.886.59 0 1.066-.886 1.675-1.142 2.371-1.107 3.58-.355 5.863.425-2.337-3.18-2.143-4.729 0-7.837.22-.31.793-.425.881-.594.194-.363-.3-2.656 1.076-4.578.943-1.32 2.09-1.417 2.98-2.293C45.74 3.49 46.957 1.675 52.353.267c3.747-.983 5.07 1.408 6.85 1.452.511 0 1.322-.505 2.107-.567a8.4 8.4 0 0 1 4.273.576 8.44 8.44 0 0 1 3.433 2.62c.282.329.326 1.02.6 1.276m-12.44-1.771c1.87-1.709-4.011-2.657-5.166-1.665-.38 2.834 3.703 3.002 5.149 1.674zm9.205.797a43 43 0 0 0-4.409-1.408 6.7 6.7 0 0 0-1.886.345c.678 1.311 2.83 1.842 4.187 1.949.327.044 2.945-.089 2.09-.877zm-16.135-.354a4.2 4.2 0 0 0-4.77 1.138 4.2 4.2 0 0 0-.845 1.518c1.18 1.966 6.145-1.868 5.59-2.647zM66.38 6.757c-.15-.16-3.077 0-4.294-.443-.943-.328-2.645-1.878-2.892-1.904-1.031-.115-2.847 2.134-5.536 1.567-.68-.15-1.587-1.036-2.134-.885-.785.15-2.363 3.002-4.638 3.444-.476.098-1.825-.053-1.904 0-.08.054.185 2.613-.626 4.118-.881 1.718-3.05 2.356-3.227 2.586-.176.23.609 1.771.68 2.311.431 3.852-3.774 4.596-3.14 8.244-1.454-.717-.793.177-1.48.46-1.887.789-5.749.603-7.195-.885-.458-.478-.405-2.027-1.64-1.647-.714.222-1.19 3.365-3.702 4.038-3.298.886-4.206-2.276-5.405-1.93-1.63 3.232-3.13 5.605-7.23 4.215.345 3.887-1.516 7.97-5.968 7.394.635 2.772 1.472 6.828-.397 9.29-.414.548-1.507.947-1.569 1.434.263 1.68.7 3.326 1.305 4.914.37.567 2.222 1.48 3.112 2.515 2.292 2.657 4.32 6.412 3.862 10.033 4.505-.39 10.5 2.533 10.174 7.749 2.442-.718 5.8-.656 7.74 1.213.298.374.536.792.706 1.24.379.274 7.617-3.542 7.688 1.77 2.865-1.009 5.025-1.257 7.502.762.37.301.582 1.019.75 1.01 1.075 0 2.777-2.258 5.933-1.771 1.702.274 2.337 2.098 2.504 2.116 1.843.142 4.585-2.736 7.706 0 .537.46.308 1.275 1.022 1.054a7.05 7.05 0 0 1 3.139-2.163 7 7 0 0 1 3.8-.21c.793.141 2.874 1.452 3.059 1.32.09-.389.265-.751.511-1.063 2.16-2.082 1.623-2.33 3.05-4.34.345-.478 1.226-.77 1.315-1.142.061-.239-.882-3.214-.635-4.88.229-1.47 2.019-2.992 2.028-3.187s-1.19-1.54-1.411-2.046a5.82 5.82 0 0 1-.137-4.418 5.8 5.8 0 0 1 3.002-3.233 6.54 6.54 0 0 1-.414-6.57c.29-.62 1.507-1.913 1.428-2.356-.115-.7-2.442-1.868-2.442-4.985 0-1.833 1.834-4.986 1.763-5.26-.07-.275-2.997-1.816-3.43-3.268-.634-2.125 1.967-4.605 1.676-5.02a4.5 4.5 0 0 1-1.41-.886 7.77 7.77 0 0 1-1.763-7.571c-3.378-.948-5.503-3.48-4.55-7.085-2.645.284-5.537-.558-6.234-3.436-.132-.575.01-2.125-.07-2.24zm7.008 4.578c.31-.372-2.785-3.542-3.165-3.71-.881-.381-1.64.424-2.442-.514-.352 4.135 2.636 3.48 5.59 4.233zM43.58 9.218a3.2 3.2 0 0 0-2.605 1.236 3.23 3.23 0 0 0-.568 2.838c2.547.682 3.394-1.948 3.156-4.065zm33.97 9.174c.238-.256-2.98-5.977-3.324-5.986s-.52.886-.555 1.222c-.186 2.382 1.992 3.94 3.879 4.764m-1.763-5.986s-.741-.133-.688.168l1.04 1.231a5 5 0 0 0-.352-1.399m-36.782 3.18c.255.76-1.014 5.684.176 5.631s1.825-5.056-.176-5.632m42.07 11.255c-.432-2.222-1.33-4.985-2.794-6.685-.256 2.514.573 5.286 2.794 6.685m.362-.7c2.125-.76-1.208-6.933-2.107-5.985zm-54.37-3.878c-1.226-.07-2.152.133-2.452 1.408 1.473.071 2.416.372 2.46-1.408zm9.115 1.063c-1.172-.46-1.869-.797-3.147-.354 0 .495 1.596.628 1.966.664.37.035 1.27.318 1.19-.31zm.706 1.77c-.168-1.16-5.043-1.584-5.29-1.398.37 2.329 3.632 1.107 5.299 1.381zm-10.474-1.062c-1.922 0-2.645 1.222-3.862 2.453 1.94.407 3.077-.761 3.862-2.453m-8.772.345c-2.575-.53-1.279 1.772-1.49 2.4 0 .116-1.314 1.152-1.314 1.825 1.622.141 1.41-2.267 1.49-2.4s1.605-.77 1.27-1.825zm-8.067 5.633c.3-.328 1.763-1.435 1.401-1.772-.167-.159-3.844 1.435-3.147 2.816.51-.47 1.11-.831 1.763-1.062-1.834 2.063-2.645 3.01-2.803 5.986 2.645.301 3.826-3.666 3.87-5.8-.035-.806-.432-.425-1.12-.168zm72.946 4.586c.168-1.292-.379-7.163-2.019-3.967-.987 1.86.67 2.905 1.984 3.967zm1.058.346c-.15-1.249.485-3.383-.696-4.224q-.058.95.044 1.895c-.009.443.158 2.17.617 2.329zM4.664 37.059c-3.835-.062-4.611 7.97-1.57 8.802.768.213.485-.398.52-.885.15-2.648.027-5.349 1.015-7.917zm78.563 7.395v-5.455c0-.31-.485-1.338-.882-.532-.846 1.718-.829 4.773.846 5.986zm.352-5.632v6.198c0 .08.397.593.706.363.978-.806 1.199-6.03-.741-6.562zM3.967 45.906c1.579-1.568 1.402-4.65 1.05-6.695-.565 0-.574.886-.662 1.275a26 26 0 0 0-.423 5.384zM83.2 53.663c1.464-1.142 2.151-4.428.52-5.632a17.5 17.5 0 0 0-.52 5.632m-79.277-.735c.203-.274-1.058-4.091-2.098-4.197-.423 1.567-.882 3.666.52 4.888.265-.372 1.517-.656 1.578-.735zm78.563.38.353-4.578-.697 1.586zm-5.29 29.595v7.04a30.5 30.5 0 0 0 4.946-12.37c-.652.54-1.067 1.319-1.763 1.956a19 19 0 0 0-1.763 1.771c-1.764 1.975-2.848.78-4.682 1.302-1.128.328-2.01 1.771-4.276 2.045-3.262.337-3.588-1.142-4.972-1.354-.238 0-2.143 1.045-2.91 1.195-1.825.346-2.645-.115-4.143-1.142-.388-.266-.441-.833-.609-.824-.626 0-1.86 1.364-2.953 1.62a8.5 8.5 0 0 1-2.989.125c-1.825-.301-3.094-2.745-3.888-2.816-.96-.08-3.21 2.063-5.563 1.77-2.01-.247-1.975-2.328-2.504-2.452-.317-.08-2.363 1.169-3.227 1.32-4.646.77-4.214-2.976-5.598-3.392-1.102-.328-2.645.61-3.8.664-4.311.212-3.809-3.542-5.501-4.33-1.975-.886-4.946.442-7.468-1.665-2.186-1.824-1.27-4.428-2.39-6.411-1.022-1.771-4.063-2.4-5.069-4.428-.643-1.293-1.234-6.872-1.516-7.084-.282-.213-2.125.212-2.768-.39.987 6.996 2.556 14.434 7.529 19.739C24.149 90.598 53.515 98.24 74.11 92.29a5.1 5.1 0 0 0 1.586-.691c.653-.69.618-6.686.794-8.2.097-.514.326-1.098.74-.514zM6.383 57.843a1.12 1.12 0 0 1-.353-.7c-.467-.089-.37.124-.343.514.114 1.86 1.075 5.02 3.147 5.472-.485-1.045-.926-2.116-1.402-3.17.944 1.417 2.054 2.79 2.989 4.224.793-1.877-2.504-6.58-3.853-7.757-1.005-.86-.29 1.045-.185 1.417m75.76-1.408c-3.166 1.16-2.875 5.224-.882 7.394.361-.992 1.225-6.987.881-7.394m.343 5.986.705-4.578-.66 1.266zm0 3.542c-.52-.496-.767.328-.882.69-.317 1.152-.308 2.657-.52 3.888 1.887.69 1.887-4.126 1.402-4.596zm-1.402.708c-.881-.168-.608.177-.881.7-.767 1.638-.432 2.532-.186 4.224zm-59.951 5.986c.882-2.71-6.515-6.685-7.714-5.632l.696 1.4c-.934-.204-1.234-.815-.979.46.882 4.127 3.941 4.507 7.644 4.826l-6.312-4.755c-.053-.257.37-.24.52-.168.6.265 2.504 2.134 3.58 2.745.387.212 2.336 1.328 2.556 1.107zM80.3 77.83c1.022-.983 1.287-3.108 1.154-4.428-.934.77-2.098 3.26-2.45 4.428-.3.868.899.345 1.278-.018zm-51.805-2.657-3.148-.708c.132.593 1.57.806 2.08.886.345.026 1.13.451 1.05-.24zm49.812 2.462c.996-.549 1.305-2.116 1.393-3.17-1.375.584-1.596 1.691-1.41 3.108zm-48.41-1.054c-.256-.256-6.675-2.01-7.054-1.77 1.005 2.975 3.703 3.338 6.498 2.47.406-.168 1.12-.168.538-.762zm7.723 1.4c-.723-2.24-3.14-2.577-4.911-1.223zm-.089.442c-.273-.283-5.563-1.408-5.871-1.142.608 1.948 1.966 3.87 4.223 3.391 1.11-.3 2.742-1.142 1.63-2.31zm7.397.921c-.74-1.399-2.539-1.027-3.852-1.045-.089.514.617.487.978.594.938.261 1.902.413 2.874.451m9.116 1.063c-.51-2.427-3.95-2.143-5.29-.523zm-8.41 0c-.318-.735-5.378-1.576-5.617-1.408 1.385 3.462 2.804 2.612 5.652 1.39zm19.986.708h6.172c.061 0 .626-.558.529-.7a9.4 9.4 0 0 0-3.324-1.07c-.48.047-.948.189-1.375.415a4.9 4.9 0 0 0-1.966 1.355zm-3.853-.7a16 16 0 0 0-2.31-.69c-1.084-.062-3.032.841-1.383 1.036 1.12.133 1.983 0 3.244.275.74.08.652-.47.485-.638zm15.43-.708a1.91 1.91 0 0 0-1.764 1.054 1.58 1.58 0 0 0 1.798-1.071zm-21.75 1.771c-2.134-1.169-4.286-1.16-6.657-1.062 1.005 2.603 4.955 3.427 6.718 1.036zm6.947.062a19 19 0 0 0-4.488-.416c.502 2.258 3.147 2.489 4.91 1.771a2.8 2.8 0 0 0-.387-1.381zm9.539-.062h-6.665c1.763 1.993 5.13 2.382 6.7-.026z"/><path d="M60.04 12.406c.176.124.573 1.497-.194 1.771-2.575.788-1.058-2.674.194-1.77M23.919 34.598c.264.265.159 1.425-.882 1.053-1.199-.442.423-1.523.882-1.054"/><path stroke="#f9e5ec" stroke-miterlimit="10" d="M49.627 26.575c.459.602.362 1.47-.282 2.594a24.3 24.3 0 0 1-2.777 3.542q0 4.986 2.645 18.198l.176.886a72 72 0 0 1 3.456-8.218l.124-.089q.203-.16.264-.08v.266c-.414.815-.82 1.674-1.216 2.56-.882 2.125-1.764 4.232-2.469 6.322q1.764 9.05 2.134 13.026c.343 4.03-.08 6.5-1.261 7.394-.459.346-.988.124-1.596-.682q-4.222-5.595 0-18.87-2.857-14.505-2.715-20.164-4.875 5.42-6.278 8.12-2.415 4.588.07 7.882c1.12 1.488 2.355 1.727 3.686.708a4.28 4.28 0 0 0 1.517-2.594.23.23 0 0 1 .097-.168c.097-.071.176-.08.229 0 .15.212 0 .708-.353 1.505a4.8 4.8 0 0 1-1.358 1.77c-1.569 1.196-2.997.93-4.293-.778-1.666-2.205-1.675-4.924 0-8.13a44.6 44.6 0 0 1 5.916-7.97c.176-.22.45-.54.81-.947q.248-4.666 2.126-6.092c.546-.434 1.057-.434 1.348.009Zm-.643 27.672q-3.755 12.327.22 17.463c.503.638.882.841 1.208.611q1.27-.957.635-6.26-.37-3.242-2.063-11.814Zm.07-27.008a.504.504 0 0 0-.793-.142c-1.014.78-1.578 2.453-1.684 5.039a20.7 20.7 0 0 0 2.204-2.94c.503-.886.556-1.541.273-1.957Z"/><path stroke="#f9e5ec" stroke-miterlimit="10" d="M63.972 34.34q1.93 2.551.67 7.165a13.53 13.53 0 0 1-4.814 7.394 12.7 12.7 0 0 1-2.9 1.62q-2.575 1.027-3.527-.186c-.23-.3-.062-.681.511-1.133a5.28 5.28 0 0 1 4.408-1.231v.106a5.54 5.54 0 0 0-3.826.992.73.73 0 0 0-.377.85.7.7 0 0 0 .157.292c.255.337.881.408 1.763.213a8.74 8.74 0 0 0 3.526-1.727 11.6 11.6 0 0 0 3.456-4.428 13.1 13.1 0 0 0 1.323-5.198 6.22 6.22 0 0 0-.987-4.055 3.98 3.98 0 0 0-2.522-1.62c-1.428-.231-3.06.345-4.875 1.726-.93.686-1.751 1.51-2.434 2.444q-.068.102-.159.186c-.052.044-.088.053-.114 0s0-.204.114-.407a22.7 22.7 0 0 0 1.86-3.737c.882-2.303.926-3.967.15-5.004-.326-.433-.775-.425-1.357 0q-1.464 1.116-2.01 5.18a32.8 32.8 0 0 0 0 7.785q.476 4.17 1.604 5.756a.57.57 0 0 1-.132.823.325.325 0 0 1-.52-.062c-.529-.69-.97-2.453-1.349-5.313a35.8 35.8 0 0 1-.194-8.563q.538-4.8 2.645-6.358c.33-.28.75-.427 1.181-.416a1.02 1.02 0 0 1 .75.38c.881 1.152.493 3.71-1.138 7.66 0 .045.115 0 .256-.088l.52-.47c.327-.292.635-.54.882-.761a7.6 7.6 0 0 1 3.385-1.576 4 4 0 0 1 2.3.265 4.03 4.03 0 0 1 1.774 1.497Z"/></g><defs><clipPath id="a"><path fill="#fff" d="M0 0h87v96H0z"/></clipPath></defs></svg>