<svg xmlns="http://www.w3.org/2000/svg" width="73" height="172" fill="none" viewBox="0 0 73 172"><path fill="#f5cdcb" d="M53.402 40.369c3.344-1.945 9.867-6.777 13.627-6.043 3.102.6 5.108 8.893 4.977 12.122-.504 13.063-7.674 13.394-17.047 11.62.877 2.911 3.003 4.893 4.198 7.572 3.24 7.171 4.797 15.142 4.528 23.167-.132 5.688-.844 11.779-.866 17.675 0 3.865 1.096 9.553-.12 13.015-.45 1.223-2.336 2.446-3.015 3.902s-.866 5.675-2.631 3.327a66 66 0 0 1-3.19-8.245c-3.794-12.476 1.556-22.592-.922-35.178-2.192-11.144-9.208-18.348-10.688-29.663-1.875 2.777-2.785 6.202-4.385 9.186A108.5 108.5 0 0 1 28 77.248C23.43 82.8 17.707 85.81 12.357 90.165c-.197 2.776-2.576 13.308-1.732 15.033.592 1.223 5.262 2.691 6.643 3.119 6.753 2.067 13.989 3.217 20.95 2.14 1.272-.208 3.936-2.006 4.385 0 .242.979-1.72 8.77-1.995 10.556-1.348 8.709-2.817 16.416-4.385 25.002-1.162 6.214.757 12.085-6.37 11.804-5.48-.232-14.448-1.884-19.524-4.122-2.357-1.04-4.55-3.046-7.038-3.67-.165 3.963 1.239 5.835 3.75 8.183 11.16 10.446 29.917 12 43.445 7.34 1.688-.588 4.473-1.896 5.185-3.976a104 104 0 0 0 2.533-12.562c.822-5.101.975-10.752 1.94-15.742.581-2.985 1.721-2.055 1.7.269 0 3.792-1.261 9.333-1.722 13.345-.58 4.954-.712 9.602-1.886 14.678-.844 3.67-3.113 5.468-6.128 6.495-15.106 5.186-30.52 4.697-44.158-4.66-3.037-2.08-6.972-4.82-7.41-9.223-.604-5.945 1.402-18.727 2.422-25.002 2.028-12.391 6.062-24.354 7.608-36.83l-3.464 4.036c-2.313 1.285-3.53 3.963-5.153 5.725-2.192 2.385-1.93-.318-1.907-2.104s-.154-6.348.066-7.633c.668-4.049 8.978-5.174 11.697-7.216 1.798-6.508 3.804-13.1 7.214-18.728 3.113-5.15 7.673-9.186 11.664-13.344-4.9-1.884-9.527-6.116-9.351-12.611.35-13.81 11.675-13.456 17.858-4.71.932-11.008 1.26-22.286 3.716-33.026 1.152-.196 1.305-1.627 1.831-2.03C46.243-.45 50.935.052 52.69.54c2.96.82 8.058 4.771 6.183 8.881-.318.71-1.743.954-1.776 1.223zM45.794 5.25c2.335.832 6.83 1.076 9.505 1.492.91.147.778-1.296 0-2.153-3.125-3.67-7.532-.489-11.227-1.052.1.661 1.349 1.566 1.722 1.713m3.475 37.625c0 2.324-.932 5.407-.998 7.84 2.708 1.04 17.54-.672 18.571 1.456.713 1.554-2.444 1.407-3.179 1.383-4.582-.16-9.307-1.077-13.912-1.15-.186.672.636.758 1.097.978 2.86 1.578 12.585 3.205 15.457 1.884 3.99-1.823 3.695-14.678 1.096-17.125-1.863-1.749-8.178 1.224-10.36 2.373-1.096.526-7.027 4.893-7.542 4.061 0-1.296.757-1.785 1.568-2.446.208-.367-.779 0-.746-1.04.088-3.131 1.173-6.813 1.283-10.042l3.804-19.975c-3.837-1.027-7.674-1.724-11.05-4.17-1.831 8.231-2.007 16.684-2.544 25.062-.131 2.178-1.754 8.086.822 9.04.472.17 2.412-1.48 3.816-1.15.898.257 2.817 1.884 2.85 3.021zm-9.79 4.037c.921-2.936 2.423-2.863.537-5.75-4.944-7.607-14.767-14.494-15.852.429 5.328-.282 10.448 3.217 15.348 5.32zm6.863-4.257a5.8 5.8 0 0 0-2.445.22 35 35 0 0 0-1.951 4.71c-.143 1.418 1.809 1.455 2.412 2.507.8-.844 2.302-6.972 2.017-7.413zM36.234 49.31l-9.965-4.465c1.206 2.667 6.325 5.101 8.77 5.126.329.049 1.272-.037 1.228-.66zm4.725 2.679c-1.458.587-4.111.6-5.339 1.223-2.708 1.321-6.37 13.736-8.025 17.198-1.195 2.447-3.036 4.453-4.154 6.972 7.87-6.165 12.88-16.134 17.551-25.393zm11.774 5.859c-.493-.612-2.96-1.664-4.056-2.618-.767-.66-2.138-3.143-2.116-.281 0 1.223 2.74 8.244 3.508 9.443 2.017 3.168 6.085 5.186 8.014 8.71a32 32 0 0 0-1.162-4.698c-.395-1.333-3.727-10.018-4.155-10.556zm-33.667 23.02c1.097-.954 4.539-6.923 5.328-8.562 2.818-5.859 4.057-12.746 7.466-18.348-7.203 8.293-14.723 16.758-16.28 28.94.965-.88 2.697-1.32 3.52-2.03zm38.502 43.044c.066-2.128 2.686-4.538 2.905-6.116.285-1.908-.735-8.073-.713-10.849 0-4.245.68-8.563.67-12.844 0-10.14-2.49-21.687-10.887-26.739 2.796 5.26 5.723 10.789 6.38 17.125 1.097 10.042-3.705 20.207-1.71 29.846a39.7 39.7 0 0 0 3.388 9.577zM9.616 90.69c-1.02.478-7.082 1.493-7.334 1.799-.471.575.165 5.43-.471 6.654zm29.523 23.045c-10.077 1.825-20.406-.487-29.073-6.507L5.68 131.753c4.67-1.162 5.59 6.214 9.373 4.978 1.502-.489 3.969-3.767 5.58-2.091.702.721.702 2.177 1.93 2.593s4.034-2.312 4.615.073c.58 2.385-4.692 3.67-6.578 2.85-.741-.406-1.323-1.103-1.633-1.957-1.009.184-2.85 1.823-4.243 2.006-6.424.893-3.716-6.581-9.296-6.556-.384 4.159-1.71 8.11-1.491 12.305a79 79 0 0 0 12.585 5.37c2.105.636 14.92 4.049 15.732 2.948a352 352 0 0 1 6.84-40.537z"/></svg>