<svg width="301" height="154" viewBox="0 0 301 154" fill="none" xmlns="http://www.w3.org/2000/svg">
    <path d="M92.1321 136.251C91.8921 134.721 89.9921 129.791 88.2721 129.011C87.6921 133.141 94.5121 140.611 88.7821 142.521C78.0621 135.061 68.7821 124.291 57.8521 117.391C38.8021 105.391 16.5921 102.311 4.01209 80.3915C-11.1479 54.0015 19.7421 12.3915 45.1621 37.3115C53.8321 45.8315 57.6821 58.5815 66.0321 67.1615C64.3421 48.3315 55.5321 34.3415 57.3621 14.5215C58.9621 -2.93852 69.2421 -5.47851 75.8821 11.4215C81.8821 26.8115 78.1621 45.6115 79.5721 61.8415C80.8321 76.2615 82.1121 90.8415 83.4421 105.321C84.1821 113.391 84.4421 123.701 91.1521 129.011L85.2721 74.4015C85.1221 72.2415 85.5321 69.7715 88.2721 70.0715C90.6021 97.7815 96.4921 125.211 95.0421 153.171H92.1521C91.5721 147.911 92.8921 141.311 92.1321 136.251ZM70.8721 58.9515C71.4821 64.3615 70.8721 71.6315 70.8721 77.3115C70.8721 77.4215 69.4621 79.2415 68.9321 78.3115C60.7121 61.4015 41.9321 39.5015 21.0521 41.0215C9.6321 41.8515 9.05209 59.7915 11.4021 68.1915C15.1721 81.8715 38.6921 99.0615 50.8921 106.001C61.1521 111.841 72.1421 114.771 82.4521 120.331C79.2521 108.501 79.8221 96.1715 78.5921 84.1015C77.6621 74.9415 75.3221 65.1015 74.7421 56.1015C73.9021 43.0115 77.3321 31.1015 74.4721 17.7315C72.2621 7.39148 63.8021 -5.26851 62.1921 13.6115C60.6821 31.2315 69.1421 43.6215 70.8721 58.9515ZM50.5721 49.7715C51.6621 48.6115 42.4121 38.7715 40.9421 37.6715C32.0721 30.8715 21.5121 31.1515 13.8621 39.6715C16.8621 39.7415 18.4721 38.1415 22.0721 38.1415C32.5721 38.0915 42.1221 44.3215 50.5721 49.7715ZM19.9921 87.1215C11.0821 78.1215 5.99209 68.1215 7.10209 55.1215C7.34209 52.2615 9.1021 49.6615 8.5521 46.9015C-8.5279 73.9015 17.6421 95.0215 40.5521 104.711C41.4421 105.081 43.0121 106.811 43.7721 105.361C36.1421 99.6015 26.7021 93.9215 19.9921 87.1215ZM88.2521 138.671C86.7021 135.311 84.4821 124.861 82.4421 122.751C81.5621 121.841 76.3421 119.581 74.7221 118.881C69.1521 116.461 62.9421 115.001 57.3421 112.591L88.2521 138.671Z" fill="#F5CDCB"/>
    <path d="M100.381 44.4317C100.454 44.4317 100.491 44.461 100.491 44.5197C100.491 44.5784 100.454 44.6077 100.381 44.6077C100.161 44.593 99.7064 44.5857 99.017 44.5857H96.399C95.7537 44.5857 95.321 44.593 95.101 44.6077C95.0277 44.6077 94.991 44.5784 94.991 44.5197C94.991 44.461 95.0277 44.4317 95.101 44.4317C95.5704 44.4317 95.9077 44.2704 96.113 43.9477C96.333 43.625 96.443 43.075 96.443 42.2977V39.4157C96.443 39.2397 96.377 39.159 96.245 39.1737C95.4677 39.291 94.6977 39.3497 93.935 39.3497C93.1724 39.3497 92.4024 39.291 91.625 39.1737H91.603C91.515 39.1737 91.471 39.2544 91.471 39.4157V42.2977C91.471 43.075 91.5737 43.625 91.779 43.9477C91.999 44.2704 92.3437 44.4317 92.813 44.4317C92.8864 44.4317 92.923 44.461 92.923 44.5197C92.923 44.5784 92.8864 44.6077 92.813 44.6077C92.593 44.593 92.1604 44.5857 91.515 44.5857H88.897C88.2077 44.5857 87.7457 44.593 87.511 44.6077C87.4377 44.6077 87.401 44.5784 87.401 44.5197C87.401 44.461 87.4377 44.4317 87.511 44.4317C87.995 44.4317 88.3544 44.2704 88.589 43.9477C88.8237 43.625 88.941 43.075 88.941 42.2977V36.8417C88.941 36.0644 88.8237 35.5144 88.589 35.1917C88.3544 34.869 87.995 34.7077 87.511 34.7077C87.4377 34.7077 87.401 34.6784 87.401 34.6197C87.401 34.561 87.4377 34.5317 87.511 34.5317L88.897 34.5537H91.515L92.813 34.5317C92.8864 34.5317 92.923 34.561 92.923 34.6197C92.923 34.6784 92.8864 34.7077 92.813 34.7077C92.3437 34.7077 91.999 34.869 91.779 35.1917C91.5737 35.5144 91.471 36.0644 91.471 36.8417V38.7557C91.471 38.917 91.5224 39.005 91.625 39.0197C92.373 39.137 93.121 39.1957 93.869 39.1957C94.661 39.1957 95.453 39.137 96.245 39.0197C96.3184 39.005 96.3697 38.9757 96.399 38.9317C96.4284 38.8877 96.443 38.829 96.443 38.7557V36.8417C96.443 36.0644 96.333 35.5144 96.113 35.1917C95.9077 34.869 95.5704 34.7077 95.101 34.7077C95.0277 34.7077 94.991 34.6784 94.991 34.6197C94.991 34.561 95.0277 34.5317 95.101 34.5317L96.399 34.5537H99.017L100.381 34.5317C100.454 34.5317 100.491 34.561 100.491 34.6197C100.491 34.6784 100.454 34.7077 100.381 34.7077C99.897 34.7077 99.5377 34.869 99.303 35.1917C99.083 35.5144 98.973 36.0644 98.973 36.8417V42.2977C98.973 43.075 99.083 43.625 99.303 43.9477C99.5377 44.2704 99.897 44.4317 100.381 44.4317ZM112.714 40.8237C112.714 40.7504 112.736 40.7137 112.78 40.7137C112.824 40.7137 112.846 40.7504 112.846 40.8237C112.846 41.9384 112.604 42.8917 112.12 43.6837C111.651 44.4757 111.035 44.8717 110.272 44.8717C109.715 44.8717 109.246 44.6884 108.864 44.3217C108.483 43.9404 108.27 43.3757 108.226 42.6277C107.874 43.361 107.405 43.9257 106.818 44.3217C106.246 44.7177 105.616 44.9157 104.926 44.9157C103.768 44.9157 102.91 44.593 102.352 43.9477C101.795 43.2877 101.516 42.525 101.516 41.6597C101.516 40.809 101.898 40.127 102.66 39.6137C103.438 39.1004 104.406 38.8437 105.564 38.8437C105.96 38.8437 106.4 38.8804 106.884 38.9537C107.383 39.027 107.83 39.1224 108.226 39.2397V38.2717C108.226 36.013 107.244 34.8837 105.278 34.8837C104.472 34.8837 103.782 35.1477 103.21 35.6757C102.653 36.2037 102.374 36.9957 102.374 38.0517C102.374 38.1104 102.36 38.1544 102.33 38.1837C102.301 38.213 102.272 38.2277 102.242 38.2277C102.184 38.2277 102.154 38.169 102.154 38.0517C102.154 37.2304 102.36 36.5337 102.77 35.9617C103.181 35.375 103.709 34.935 104.354 34.6417C105 34.3484 105.682 34.2017 106.4 34.2017C109.304 34.2017 110.756 35.5584 110.756 38.2717V41.8797C110.756 42.8477 111.006 43.3317 111.504 43.3317C111.988 43.3317 112.304 43.119 112.45 42.6937C112.597 42.2537 112.685 41.6304 112.714 40.8237ZM106.07 43.6617C107.508 43.6617 108.226 42.789 108.226 41.0437V40.9117C108.065 40.3837 107.757 39.9657 107.302 39.6577C106.848 39.335 106.349 39.1737 105.806 39.1737C104.354 39.1737 103.628 39.731 103.628 40.8457C103.628 41.5937 103.841 42.2537 104.266 42.8257C104.692 43.383 105.293 43.6617 106.07 43.6617ZM131.013 44.4317C131.086 44.4317 131.123 44.461 131.123 44.5197C131.123 44.5784 131.086 44.6077 131.013 44.6077C130.778 44.593 130.316 44.5857 129.627 44.5857H114.249C113.559 44.5857 113.097 44.593 112.863 44.6077C112.789 44.6077 112.753 44.5784 112.753 44.5197C112.753 44.461 112.789 44.4317 112.863 44.4317C113.347 44.4317 113.706 44.2704 113.941 43.9477C114.175 43.625 114.293 43.075 114.293 42.2977V36.8417C114.293 36.0644 114.175 35.5144 113.941 35.1917C113.706 34.869 113.347 34.7077 112.863 34.7077C112.789 34.7077 112.753 34.6784 112.753 34.6197C112.753 34.561 112.789 34.5317 112.863 34.5317L114.249 34.5537H116.735L118.033 34.5317C118.106 34.5317 118.143 34.561 118.143 34.6197C118.143 34.6784 118.106 34.7077 118.033 34.7077C117.563 34.7077 117.219 34.869 116.999 35.1917C116.793 35.5144 116.691 36.0644 116.691 36.8417V44.4317H120.717V36.8417C120.717 36.0644 120.607 35.5144 120.387 35.1917C120.181 34.869 119.844 34.7077 119.375 34.7077C119.301 34.7077 119.265 34.6784 119.265 34.6197C119.265 34.561 119.301 34.5317 119.375 34.5317L120.673 34.5537H123.181L124.479 34.5317C124.552 34.5317 124.589 34.561 124.589 34.6197C124.589 34.6784 124.552 34.7077 124.479 34.7077C124.009 34.7077 123.665 34.869 123.445 35.1917C123.239 35.5144 123.137 36.0644 123.137 36.8417V44.4317H127.163V36.8417C127.163 36.0644 127.053 35.5144 126.833 35.1917C126.627 34.869 126.29 34.7077 125.821 34.7077C125.747 34.7077 125.711 34.6784 125.711 34.6197C125.711 34.561 125.747 34.5317 125.821 34.5317L127.119 34.5537H129.627L131.013 34.5317C131.086 34.5317 131.123 34.561 131.123 34.6197C131.123 34.6784 131.086 34.7077 131.013 34.7077C130.529 34.7077 130.169 34.869 129.935 35.1917C129.7 35.5144 129.583 36.0644 129.583 36.8417V42.2977C129.583 43.075 129.7 43.625 129.935 43.9477C130.169 44.2704 130.529 44.4317 131.013 44.4317ZM141.789 42.6277C141.804 42.613 141.826 42.6204 141.855 42.6497C141.899 42.679 141.907 42.7157 141.877 42.7597C141.305 43.4637 140.616 43.999 139.809 44.3657C139.003 44.7324 138.159 44.9157 137.279 44.9157C136.355 44.9157 135.497 44.703 134.705 44.2777C133.913 43.8524 133.283 43.251 132.813 42.4737C132.359 41.6817 132.131 40.7724 132.131 39.7457C132.131 38.7337 132.381 37.8024 132.879 36.9517C133.393 36.101 134.082 35.4337 134.947 34.9497C135.813 34.451 136.759 34.2017 137.785 34.2017C138.929 34.2017 139.883 34.517 140.645 35.1477C141.408 35.7637 141.789 36.607 141.789 37.6777C141.789 38.1617 141.701 38.6824 141.525 39.2397C139.985 39.269 137.624 39.335 134.441 39.4377C134.691 40.2444 135.072 40.9704 135.585 41.6157C136.113 42.2464 136.715 42.745 137.389 43.1117C138.064 43.4637 138.724 43.6397 139.369 43.6397C140.44 43.6397 141.247 43.3024 141.789 42.6277ZM136.707 34.6197C135.886 34.6197 135.255 34.8764 134.815 35.3897C134.39 35.8884 134.177 36.6437 134.177 37.6557C134.177 38.1544 134.251 38.697 134.397 39.2837C135.233 39.269 136.216 39.2324 137.345 39.1737C137.639 39.159 137.939 39.1444 138.247 39.1297C138.57 39.115 138.893 39.1077 139.215 39.1077C139.347 38.8877 139.413 38.6164 139.413 38.2937C139.413 37.8097 139.274 37.2817 138.995 36.7097C138.731 36.123 138.387 35.6317 137.961 35.2357C137.551 34.825 137.133 34.6197 136.707 34.6197ZM156.204 44.4317C156.277 44.4317 156.314 44.461 156.314 44.5197C156.314 44.5784 156.277 44.6077 156.204 44.6077C155.984 44.593 155.529 44.5857 154.84 44.5857H152.222C151.533 44.5857 151.078 44.593 150.858 44.6077C150.785 44.6077 150.748 44.5784 150.748 44.5197C150.748 44.461 150.785 44.4317 150.858 44.4317C151.342 44.4317 151.694 44.2704 151.914 43.9477C152.149 43.625 152.266 43.075 152.266 42.2977V36.9957L147.008 42.2757V42.2977C147.008 43.075 147.118 43.625 147.338 43.9477C147.573 44.2704 147.932 44.4317 148.416 44.4317C148.489 44.4317 148.526 44.461 148.526 44.5197C148.526 44.5784 148.489 44.6077 148.416 44.6077C148.181 44.593 147.727 44.5857 147.052 44.5857H144.434C143.745 44.5857 143.283 44.593 143.048 44.6077C142.975 44.6077 142.938 44.5784 142.938 44.5197C142.938 44.461 142.975 44.4317 143.048 44.4317C143.532 44.4317 143.891 44.2704 144.126 43.9477C144.361 43.625 144.478 43.075 144.478 42.2977V36.8637C144.478 36.0864 144.361 35.5364 144.126 35.2137C143.891 34.8764 143.532 34.7077 143.048 34.7077C142.975 34.7077 142.938 34.6784 142.938 34.6197C142.938 34.561 142.975 34.5317 143.048 34.5317C143.517 34.561 143.979 34.5757 144.434 34.5757H147.052C147.492 34.5757 147.947 34.561 148.416 34.5317C148.489 34.5317 148.526 34.561 148.526 34.6197C148.526 34.6784 148.489 34.7077 148.416 34.7077C147.932 34.7077 147.573 34.8764 147.338 35.2137C147.118 35.5364 147.008 36.0864 147.008 36.8637V41.9897L152.266 36.7097C152.251 35.9764 152.127 35.463 151.892 35.1697C151.672 34.8617 151.327 34.7077 150.858 34.7077C150.785 34.7077 150.748 34.6784 150.748 34.6197C150.748 34.561 150.785 34.5317 150.858 34.5317C151.298 34.561 151.753 34.5757 152.222 34.5757H154.84C155.309 34.5757 155.764 34.561 156.204 34.5317C156.277 34.5317 156.314 34.561 156.314 34.6197C156.314 34.6784 156.277 34.7077 156.204 34.7077C155.72 34.7077 155.361 34.8764 155.126 35.2137C154.906 35.5364 154.796 36.0864 154.796 36.8637V42.2977C154.796 43.075 154.906 43.625 155.126 43.9477C155.361 44.2704 155.72 44.4317 156.204 44.4317ZM147.492 30.0657C147.903 30.0657 148.174 30.0877 148.306 30.1317C148.438 30.1757 148.504 30.249 148.504 30.3517C148.504 30.909 148.658 31.4224 148.966 31.8917C149.274 32.361 149.721 32.5957 150.308 32.5957C150.953 32.5957 151.408 32.361 151.672 31.8917C151.951 31.4224 152.09 30.9164 152.09 30.3737C152.09 30.2857 152.119 30.2417 152.178 30.2417C152.251 30.2417 152.288 30.2857 152.288 30.3737C152.288 31.107 152.068 31.767 151.628 32.3537C151.188 32.9257 150.499 33.2117 149.56 33.2117C148.915 33.2117 148.379 33.065 147.954 32.7717C147.543 32.4637 147.235 32.0897 147.03 31.6497C146.839 31.2097 146.744 30.7697 146.744 30.3297C146.744 30.2417 146.795 30.1757 146.898 30.1317C147.001 30.0877 147.199 30.0657 147.492 30.0657ZM173.451 40.8237C173.451 40.7504 173.473 40.7137 173.517 40.7137C173.561 40.7137 173.583 40.7504 173.583 40.8237C173.583 41.9384 173.341 42.8917 172.857 43.6837C172.387 44.4757 171.771 44.8717 171.009 44.8717C170.451 44.8717 169.982 44.6884 169.601 44.3217C169.219 43.9404 169.007 43.3757 168.963 42.6277C168.611 43.361 168.141 43.9257 167.555 44.3217C166.983 44.7177 166.352 44.9157 165.663 44.9157C164.504 44.9157 163.646 44.593 163.089 43.9477C162.531 43.2877 162.253 42.525 162.253 41.6597C162.253 40.809 162.634 40.127 163.397 39.6137C164.174 39.1004 165.142 38.8437 166.301 38.8437C166.697 38.8437 167.137 38.8804 167.621 38.9537C168.119 39.027 168.567 39.1224 168.963 39.2397V38.2717C168.963 36.013 167.98 34.8837 166.015 34.8837C165.208 34.8837 164.519 35.1477 163.947 35.6757C163.389 36.2037 163.111 36.9957 163.111 38.0517C163.111 38.1104 163.096 38.1544 163.067 38.1837C163.037 38.213 163.008 38.2277 162.979 38.2277C162.92 38.2277 162.891 38.169 162.891 38.0517C162.891 37.2304 163.096 36.5337 163.507 35.9617C163.917 35.375 164.445 34.935 165.091 34.6417C165.736 34.3484 166.418 34.2017 167.137 34.2017C170.041 34.2017 171.493 35.5584 171.493 38.2717V41.8797C171.493 42.8477 171.742 43.3317 172.241 43.3317C172.725 43.3317 173.04 43.119 173.187 42.6937C173.333 42.2537 173.421 41.6304 173.451 40.8237ZM166.807 43.6617C168.244 43.6617 168.963 42.789 168.963 41.0437V40.9117C168.801 40.3837 168.493 39.9657 168.039 39.6577C167.584 39.335 167.085 39.1737 166.543 39.1737C165.091 39.1737 164.365 39.731 164.365 40.8457C164.365 41.5937 164.577 42.2537 165.003 42.8257C165.428 43.383 166.029 43.6617 166.807 43.6617ZM183.738 38.3597C183.753 38.4184 183.738 38.4477 183.694 38.4477C183.65 38.4477 183.621 38.4184 183.606 38.3597C183.064 36.321 182.462 35.1844 181.802 34.9497C181.67 34.847 181.157 34.7957 180.262 34.7957C180.174 34.7957 180.101 34.847 180.042 34.9497C179.984 35.0377 179.954 35.155 179.954 35.3017V42.2977C179.954 43.075 180.064 43.625 180.284 43.9477C180.519 44.2704 180.878 44.4317 181.362 44.4317C181.436 44.4317 181.472 44.461 181.472 44.5197C181.472 44.5784 181.436 44.6077 181.362 44.6077C181.142 44.593 180.688 44.5857 179.998 44.5857H177.38C176.691 44.5857 176.236 44.593 176.016 44.6077C175.943 44.6077 175.906 44.5784 175.906 44.5197C175.906 44.461 175.943 44.4317 176.016 44.4317C176.5 44.4317 176.852 44.2704 177.072 43.9477C177.307 43.625 177.424 43.075 177.424 42.2977V35.3017C177.424 35.155 177.395 35.0377 177.336 34.9497C177.278 34.847 177.204 34.7957 177.116 34.7957C176.222 34.7957 175.708 34.847 175.576 34.9497C174.916 35.1844 174.315 36.321 173.772 38.3597C173.758 38.4184 173.728 38.4477 173.684 38.4477C173.64 38.4477 173.626 38.4184 173.64 38.3597C173.816 37.0544 173.904 35.859 173.904 34.7737C173.904 34.539 174 34.4217 174.19 34.4217C174.278 34.4217 174.528 34.451 174.938 34.5097C175.364 34.5684 176.192 34.5977 177.424 34.5977H179.954C181.142 34.5977 181.956 34.5684 182.396 34.5097C182.836 34.451 183.108 34.4217 183.21 34.4217C183.386 34.4217 183.474 34.539 183.474 34.7737C183.474 35.859 183.562 37.0544 183.738 38.3597ZM199.024 44.4317C199.097 44.4317 199.134 44.461 199.134 44.5197C199.134 44.5784 199.097 44.6077 199.024 44.6077C198.789 44.593 198.334 44.5857 197.66 44.5857H195.02C194.345 44.5857 193.89 44.593 193.656 44.6077C193.582 44.6077 193.546 44.5784 193.546 44.5197C193.546 44.461 193.582 44.4317 193.656 44.4317C194.096 44.4317 194.418 44.307 194.624 44.0577C194.844 43.8084 194.954 43.3904 194.954 42.8037C194.954 42.5837 194.946 42.415 194.932 42.2977L194.448 36.4677C194.433 36.2917 194.389 36.2037 194.316 36.2037C194.272 36.2037 194.235 36.2257 194.206 36.2697C194.176 36.3137 194.147 36.3797 194.118 36.4677L191.016 44.3217C190.957 44.483 190.876 44.5637 190.774 44.5637C190.642 44.5637 190.546 44.483 190.488 44.3217L187.408 36.3797C187.364 36.2624 187.32 36.2037 187.276 36.2037H187.232L187.386 36.7757L187.232 36.2257C187.188 36.2404 187.166 36.2917 187.166 36.3797L186.638 42.2977C186.623 42.4297 186.616 42.613 186.616 42.8477C186.616 43.4197 186.718 43.8304 186.924 44.0797C187.129 44.3144 187.452 44.4317 187.892 44.4317C187.965 44.4317 188.002 44.461 188.002 44.5197C188.002 44.5784 187.965 44.6077 187.892 44.6077C187.672 44.593 187.217 44.5857 186.528 44.5857H186.264C185.574 44.5857 185.12 44.593 184.9 44.6077C184.826 44.6077 184.79 44.5784 184.79 44.5197C184.79 44.461 184.826 44.4317 184.9 44.4317C185.384 44.4317 185.743 44.2777 185.978 43.9697C186.227 43.647 186.388 43.0897 186.462 42.2977L187.056 35.7637C186.909 35.3824 186.726 35.111 186.506 34.9497C186.286 34.7884 186.007 34.7077 185.67 34.7077C185.596 34.7077 185.56 34.6784 185.56 34.6197C185.56 34.561 185.596 34.5317 185.67 34.5317L186.968 34.5537H189.08C189.285 34.5537 189.417 34.6344 189.476 34.7957L191.918 40.8237C191.962 40.9264 192.013 40.9777 192.072 40.9777C192.145 40.9777 192.189 40.9264 192.204 40.8237L194.58 34.7737C194.609 34.6857 194.646 34.627 194.69 34.5977C194.734 34.5684 194.8 34.5537 194.888 34.5537H196.824L198.21 34.5317C198.283 34.5317 198.32 34.561 198.32 34.6197C198.32 34.6784 198.283 34.7077 198.21 34.7077C197.77 34.7077 197.44 34.8324 197.22 35.0817C197.014 35.3164 196.912 35.7197 196.912 36.2917C196.912 36.5264 196.919 36.7097 196.934 36.8417L197.462 42.2977C197.535 43.0897 197.689 43.647 197.924 43.9697C198.173 44.2777 198.54 44.4317 199.024 44.4317ZM187.386 36.7977V36.7757V36.7977ZM205.153 44.9377C204.141 44.9377 203.225 44.725 202.403 44.2997C201.597 43.8597 200.959 43.2437 200.489 42.4517C200.035 41.6597 199.807 40.7577 199.807 39.7457C199.807 38.719 200.071 37.7877 200.599 36.9517C201.127 36.101 201.846 35.4337 202.755 34.9497C203.679 34.4657 204.691 34.2237 205.791 34.2237C206.818 34.2237 207.742 34.4437 208.563 34.8837C209.399 35.309 210.052 35.9104 210.521 36.6877C210.991 37.465 211.225 38.3524 211.225 39.3497C211.225 40.3764 210.954 41.3224 210.411 42.1877C209.883 43.0384 209.15 43.713 208.211 44.2117C207.287 44.6957 206.268 44.9377 205.153 44.9377ZM206.363 44.4097C207.199 44.4097 207.852 44.175 208.321 43.7057C208.805 43.2217 209.047 42.5177 209.047 41.5937C209.047 40.699 208.813 39.709 208.343 38.6237C207.889 37.5384 207.309 36.6217 206.605 35.8737C205.916 35.111 205.241 34.7297 204.581 34.7297C203.76 34.7297 203.115 34.9644 202.645 35.4337C202.176 35.903 201.941 36.607 201.941 37.5457C201.941 38.4257 202.169 39.4157 202.623 40.5157C203.078 41.601 203.65 42.525 204.339 43.2877C205.043 44.0357 205.718 44.4097 206.363 44.4097ZM220.668 40.0097C220.638 40.083 220.594 40.1197 220.536 40.1197C220.492 40.105 220.484 40.0537 220.514 39.9657C220.587 39.6724 220.624 39.3864 220.624 39.1077C220.624 38.433 220.462 37.751 220.14 37.0617C219.817 36.3577 219.392 35.7784 218.864 35.3237C218.336 34.869 217.778 34.6417 217.192 34.6417C215.461 34.6417 214.596 35.6317 214.596 37.6117C214.596 38.697 214.845 39.709 215.344 40.6477C215.842 41.5717 216.488 42.305 217.28 42.8477C218.086 43.3904 218.9 43.6617 219.722 43.6617C220.778 43.6617 221.584 43.3244 222.142 42.6497C222.2 42.591 222.244 42.5837 222.274 42.6277C222.303 42.657 222.303 42.6937 222.274 42.7377C221.115 44.1897 219.582 44.9157 217.676 44.9157C216.737 44.9157 215.872 44.703 215.08 44.2777C214.288 43.8524 213.65 43.251 213.166 42.4737C212.696 41.6817 212.462 40.7724 212.462 39.7457C212.462 38.7484 212.711 37.8244 213.21 36.9737C213.723 36.123 214.412 35.4484 215.278 34.9497C216.143 34.451 217.082 34.2017 218.094 34.2017C218.798 34.2017 219.458 34.297 220.074 34.4877C220.69 34.6784 221.159 34.9277 221.482 35.2357C221.819 35.529 221.951 35.8224 221.878 36.1157L220.668 40.0097ZM237.575 39.3497C237.575 40.347 237.318 41.2637 236.805 42.0997C236.292 42.9357 235.58 43.603 234.671 44.1017C233.762 44.6004 232.72 44.879 231.547 44.9377V46.6757C231.547 47.2917 231.65 47.7977 231.855 48.1937C232.075 48.6044 232.412 48.817 232.867 48.8317C232.94 48.8317 232.977 48.861 232.977 48.9197C232.977 48.9784 232.94 49.0004 232.867 48.9857C232.603 48.971 231.745 48.9637 230.293 48.9637C228.856 48.9637 227.998 48.971 227.719 48.9857C227.646 48.9857 227.609 48.9564 227.609 48.8977C227.609 48.8537 227.646 48.8317 227.719 48.8317C228.159 48.8317 228.482 48.6557 228.687 48.3037C228.907 47.9664 229.017 47.4237 229.017 46.6757V44.8717L228.555 44.8937C227.514 44.8937 226.568 44.6884 225.717 44.2777C224.881 43.8524 224.214 43.251 223.715 42.4737C223.231 41.6964 222.989 40.7944 222.989 39.7677C222.989 38.7704 223.238 37.861 223.737 37.0397C224.236 36.2037 224.932 35.5364 225.827 35.0377C226.736 34.539 227.785 34.2677 228.973 34.2237V32.5077C228.973 31.789 228.914 31.3124 228.797 31.0777C228.68 30.8284 228.504 30.7037 228.269 30.7037C228.152 30.7037 228.064 30.711 228.005 30.7257H227.983C227.88 30.7257 227.829 30.6744 227.829 30.5717C229.472 30.1464 230.748 29.545 231.657 28.7677H231.701C231.804 28.7677 231.848 28.819 231.833 28.9217C231.73 29.523 231.657 30.1537 231.613 30.8137C231.569 31.4737 231.547 32.3244 231.547 33.3657V34.2897L231.987 34.2677C233.014 34.2677 233.952 34.4804 234.803 34.9057C235.654 35.3164 236.328 35.9104 236.827 36.6877C237.326 37.4504 237.575 38.3377 237.575 39.3497ZM225.167 37.7437C225.167 38.5944 225.299 39.511 225.563 40.4937C225.842 41.4764 226.267 42.3417 226.839 43.0897C227.426 43.823 228.152 44.2484 229.017 44.3657L228.973 35.4997C228.841 35.2797 228.672 35.1037 228.467 34.9717C228.262 34.825 228.049 34.7517 227.829 34.7517C226.92 34.7517 226.245 35.001 225.805 35.4997C225.38 35.9837 225.167 36.7317 225.167 37.7437ZM235.397 41.3737C235.397 40.5377 235.265 39.6284 235.001 38.6457C234.737 37.663 234.312 36.805 233.725 36.0717C233.153 35.3237 232.427 34.8984 231.547 34.7957V43.5957C231.679 43.8304 231.855 44.021 232.075 44.1677C232.295 44.3144 232.522 44.395 232.757 44.4097C233.578 44.395 234.224 44.1384 234.693 43.6397C235.162 43.141 235.397 42.3857 235.397 41.3737ZM248.459 42.6277C248.474 42.613 248.496 42.6204 248.525 42.6497C248.569 42.679 248.577 42.7157 248.547 42.7597C247.975 43.4637 247.286 43.999 246.479 44.3657C245.673 44.7324 244.829 44.9157 243.949 44.9157C243.025 44.9157 242.167 44.703 241.375 44.2777C240.583 43.8524 239.953 43.251 239.483 42.4737C239.029 41.6817 238.801 40.7724 238.801 39.7457C238.801 38.7337 239.051 37.8024 239.549 36.9517C240.063 36.101 240.752 35.4337 241.617 34.9497C242.483 34.451 243.429 34.2017 244.455 34.2017C245.599 34.2017 246.553 34.517 247.315 35.1477C248.078 35.7637 248.459 36.607 248.459 37.6777C248.459 38.1617 248.371 38.6824 248.195 39.2397C246.655 39.269 244.294 39.335 241.111 39.4377C241.361 40.2444 241.742 40.9704 242.255 41.6157C242.783 42.2464 243.385 42.745 244.059 43.1117C244.734 43.4637 245.394 43.6397 246.039 43.6397C247.11 43.6397 247.917 43.3024 248.459 42.6277ZM243.377 34.6197C242.556 34.6197 241.925 34.8764 241.485 35.3897C241.06 35.8884 240.847 36.6437 240.847 37.6557C240.847 38.1544 240.921 38.697 241.067 39.2837C241.903 39.269 242.886 39.2324 244.015 39.1737C244.309 39.159 244.609 39.1444 244.917 39.1297C245.24 39.115 245.563 39.1077 245.885 39.1077C246.017 38.8877 246.083 38.6164 246.083 38.2937C246.083 37.8097 245.944 37.2817 245.665 36.7097C245.401 36.123 245.057 35.6317 244.631 35.2357C244.221 34.825 243.803 34.6197 243.377 34.6197ZM257.352 34.2017C258.115 34.2017 258.811 34.4144 259.442 34.8397C260.087 35.2504 260.601 35.8517 260.982 36.6437C261.378 37.421 261.576 38.323 261.576 39.3497C261.576 40.3177 261.349 41.2344 260.894 42.0997C260.454 42.9504 259.845 43.6324 259.068 44.1457C258.305 44.659 257.469 44.9157 256.56 44.9157C256.003 44.9157 255.541 44.8424 255.174 44.6957C254.807 44.549 254.463 44.3657 254.14 44.1457C253.92 43.999 253.773 43.9257 253.7 43.9257C253.568 43.9257 253.502 44.0504 253.502 44.2997V46.7197C253.502 47.497 253.605 48.0397 253.81 48.3477C254.03 48.6704 254.36 48.8464 254.8 48.8757C254.873 48.8757 254.91 48.8977 254.91 48.9417C254.91 49.0004 254.873 49.0297 254.8 49.0297C254.184 49.0004 253.421 48.9857 252.512 48.9857C251.353 48.9857 250.407 49.0004 249.674 49.0297C249.601 49.0297 249.564 49.0004 249.564 48.9417C249.564 48.883 249.601 48.8537 249.674 48.8537C250.114 48.8684 250.437 48.7144 250.642 48.3917C250.862 48.069 250.972 47.5044 250.972 46.6977V37.3697C250.972 36.8124 250.899 36.409 250.752 36.1597C250.62 35.8957 250.363 35.7637 249.982 35.7637C249.909 35.7637 249.784 35.7784 249.608 35.8077C249.549 35.8224 249.513 35.8077 249.498 35.7637C249.498 35.705 249.52 35.6684 249.564 35.6537C250.253 35.4924 250.957 35.2797 251.676 35.0157C252.409 34.7517 253.003 34.4657 253.458 34.1577C253.531 34.1137 253.59 34.099 253.634 34.1137C253.693 34.1284 253.715 34.1724 253.7 34.2457C253.612 35.0084 253.561 35.6537 253.546 36.1817C253.546 36.3577 253.553 36.5264 253.568 36.6877C253.597 36.8344 253.634 36.9004 253.678 36.8857C254.074 36.0937 254.565 35.4484 255.152 34.9497C255.739 34.451 256.472 34.2017 257.352 34.2017ZM256.736 44.5857C257.675 44.5857 258.349 44.3217 258.76 43.7937C259.185 43.2657 259.398 42.4957 259.398 41.4837C259.398 40.501 259.229 39.555 258.892 38.6457C258.555 37.7364 258.1 37.003 257.528 36.4457C256.971 35.8884 256.362 35.6097 255.702 35.6097C255.042 35.6097 254.507 35.8884 254.096 36.4457C253.7 37.003 253.502 37.751 253.502 38.6897V40.1637C253.502 41.4397 253.788 42.4957 254.36 43.3317C254.947 44.1677 255.739 44.5857 256.736 44.5857ZM272.457 42.6277C272.472 42.613 272.494 42.6204 272.523 42.6497C272.567 42.679 272.575 42.7157 272.545 42.7597C271.973 43.4637 271.284 43.999 270.477 44.3657C269.671 44.7324 268.827 44.9157 267.947 44.9157C267.023 44.9157 266.165 44.703 265.373 44.2777C264.581 43.8524 263.951 43.251 263.481 42.4737C263.027 41.6817 262.799 40.7724 262.799 39.7457C262.799 38.7337 263.049 37.8024 263.547 36.9517C264.061 36.101 264.75 35.4337 265.615 34.9497C266.481 34.451 267.427 34.2017 268.453 34.2017C269.597 34.2017 270.551 34.517 271.313 35.1477C272.076 35.7637 272.457 36.607 272.457 37.6777C272.457 38.1617 272.369 38.6824 272.193 39.2397C270.653 39.269 268.292 39.335 265.109 39.4377C265.359 40.2444 265.74 40.9704 266.253 41.6157C266.781 42.2464 267.383 42.745 268.057 43.1117C268.732 43.4637 269.392 43.6397 270.037 43.6397C271.108 43.6397 271.915 43.3024 272.457 42.6277ZM267.375 34.6197C266.554 34.6197 265.923 34.8764 265.483 35.3897C265.058 35.8884 264.845 36.6437 264.845 37.6557C264.845 38.1544 264.919 38.697 265.065 39.2837C265.901 39.269 266.884 39.2324 268.013 39.1737C268.307 39.159 268.607 39.1444 268.915 39.1297C269.238 39.115 269.561 39.1077 269.883 39.1077C270.015 38.8877 270.081 38.6164 270.081 38.2937C270.081 37.8097 269.942 37.2817 269.663 36.7097C269.399 36.123 269.055 35.6317 268.629 35.2357C268.219 34.825 267.801 34.6197 267.375 34.6197Z" fill="black"/>
    <path d="M37.1308 62.2417C37.1308 62.3884 36.9108 62.623 36.4708 62.9457L30.3988 67.4337C30.3402 69.6924 29.2842 72.699 27.2308 76.4537C25.3242 79.9737 23.1388 83.083 20.6748 85.7817C18.0642 88.627 16.0108 90.035 14.5148 90.0057C14.0162 90.0057 13.5908 89.8297 13.2388 89.4777C12.8868 89.1257 12.7108 88.6857 12.7108 88.1577C12.7108 85.987 14.0308 83.127 16.6708 79.5777C18.6948 76.9377 21.2028 74.195 24.1948 71.3497C26.8348 68.8857 28.3308 67.6537 28.6828 67.6537C28.6828 67.4777 28.6388 67.3164 28.5508 67.1697C28.1402 66.4364 27.5682 66.0697 26.8348 66.0697C26.5415 66.0697 26.2188 66.1284 25.8668 66.2457C25.1628 66.4804 24.7375 66.5977 24.5908 66.5977C24.5028 66.5977 24.4442 66.539 24.4148 66.4217C24.4148 66.1284 24.7082 65.8644 25.2948 65.6297C26.2335 65.219 27.3628 64.4417 28.6828 63.2977C30.2375 61.919 31.0148 60.8044 31.0148 59.9537C31.0148 59.455 30.7802 59.2057 30.3108 59.2057C29.9002 59.2057 29.0055 59.675 27.6268 60.6137C26.5415 61.4057 25.4562 62.1977 24.3708 62.9897C24.2828 63.0777 24.1948 63.1217 24.1068 63.1217C24.0482 63.1217 24.0188 62.9604 24.0188 62.6377C24.1068 62.579 24.6348 62.183 25.6028 61.4497C26.5708 60.687 27.5535 59.9097 28.5508 59.1177C29.5775 58.2964 30.5015 57.8857 31.3228 57.8857C32.3788 57.8857 32.9068 58.443 32.9068 59.5577C32.9068 60.907 31.1762 62.711 27.7148 64.9697C27.5095 65.175 27.4068 65.3217 27.4068 65.4097C27.4068 65.527 27.5095 65.5857 27.7148 65.5857C29.0055 65.5857 29.8562 65.967 30.2668 66.7297C30.9415 66.3484 32.0122 65.571 33.4788 64.3977C34.8282 63.3417 35.9135 62.6084 36.7348 62.1977C36.8228 62.1097 36.9108 62.0657 36.9988 62.0657C37.0868 62.0657 37.1308 62.1244 37.1308 62.2417ZM28.9028 68.5777C28.9028 68.4604 28.8882 68.4017 28.8588 68.4017C28.2135 68.4017 26.6735 69.6337 24.2388 72.0977C21.6575 74.679 19.4282 77.3337 17.5508 80.0617C15.2922 83.3764 14.1628 85.9577 14.1628 87.8057C14.1628 88.4804 14.3828 88.8177 14.8228 88.8177C15.7028 88.8177 17.3162 87.5417 19.6628 84.9897C22.0095 82.467 24.0628 79.739 25.8228 76.8057C27.8762 73.403 28.9028 70.6604 28.9028 68.5777ZM50.7911 62.2417C50.7911 62.5937 49.8818 63.2684 48.0631 64.2657C46.1564 65.3217 44.7924 65.8497 43.9711 65.8497C42.4458 65.8497 41.6831 65.043 41.6831 63.4297C41.6831 62.9897 41.9178 62.491 42.3871 61.9337C42.3871 61.9044 42.3724 61.8897 42.3431 61.8897C42.3724 61.8897 41.5804 62.5057 39.9671 63.7377C38.3538 64.9404 37.1951 65.5417 36.4911 65.5417C35.8164 65.5417 35.4791 65.263 35.4791 64.7057C35.4791 63.3564 36.6084 61.787 38.8671 59.9977C41.0084 58.267 42.6804 57.4017 43.8831 57.4017C44.0591 57.431 44.2498 57.5337 44.4551 57.7097C44.6898 57.8564 44.8071 57.9737 44.8071 58.0617C44.8071 58.091 44.7924 58.1204 44.7631 58.1497C43.1204 58.1497 41.0231 59.4257 38.4711 61.9777C37.6498 62.799 37.2391 63.4884 37.2391 64.0457C37.2391 64.251 37.3418 64.3537 37.5471 64.3537C38.1924 64.3537 39.4244 63.6057 41.2431 62.1097C42.7098 60.8777 43.7511 59.895 44.3671 59.1617C44.6604 58.8097 44.8658 58.6337 44.9831 58.6337C45.2764 58.6337 45.4231 58.839 45.4231 59.2497C45.4231 59.3964 45.2324 59.7337 44.8511 60.2617C43.5898 61.9924 42.9591 63.0924 42.9591 63.5617C42.9591 64.383 43.4138 64.7937 44.3231 64.7937C45.8191 64.7937 47.8431 63.9284 50.3951 62.1977C50.4831 62.1097 50.5711 62.0657 50.6591 62.0657C50.7471 62.0657 50.7911 62.1244 50.7911 62.2417ZM69.5581 34.9617C69.5581 37.9244 68.1355 41.591 65.2901 45.9617C63.0901 49.3644 60.3621 52.7084 57.1061 55.9937C54.2315 58.927 52.4715 60.3937 51.8261 60.3937C51.9141 63.151 52.7795 64.5297 54.4221 64.5297C55.6835 64.5297 57.0475 63.987 58.5141 62.9017C58.2208 62.3737 58.0741 61.8017 58.0741 61.1857C58.0741 59.191 58.7195 58.1937 60.0101 58.1937C60.5381 58.1937 60.8461 58.5604 60.9341 59.2937C60.9341 60.3204 60.4941 61.347 59.6141 62.3737C60.1128 63.195 60.8901 63.6057 61.9461 63.6057C63.0901 63.6057 64.2048 63.1364 65.2901 62.1977C65.3781 62.1097 65.4661 62.0657 65.5541 62.0657C65.6421 62.0657 65.6861 62.1244 65.6861 62.2417C65.6861 62.359 65.5395 62.535 65.2461 62.7697C63.9555 63.855 62.6501 64.3977 61.3301 64.3977C60.2448 64.3977 59.3795 64.031 58.7341 63.2977C57.0035 64.8817 55.3168 65.6737 53.6741 65.6737C52.7061 65.6737 51.8995 65.2777 51.2541 64.4857C50.6381 63.6644 50.3301 62.6817 50.3301 61.5377C50.3301 58.2817 51.4741 54.3364 53.7621 49.7017C55.8448 45.4777 58.3235 41.7377 61.1981 38.4817C64.0728 35.1964 66.3901 33.5537 68.1501 33.5537C69.0888 33.5537 69.5581 34.023 69.5581 34.9617ZM68.2821 35.6217C68.2821 34.947 68.0181 34.6097 67.4901 34.6097C66.1115 34.6097 64.1315 36.267 61.5501 39.5817C59.1155 42.691 56.9301 46.1964 54.9941 50.0977C52.9408 54.2044 51.9141 57.299 51.9141 59.3817C51.9141 59.499 51.9435 59.5577 52.0021 59.5577C52.5595 59.5577 54.1728 58.1204 56.8421 55.2457C59.8048 52.0777 62.3128 48.8804 64.3661 45.6537C66.9768 41.547 68.2821 38.203 68.2821 35.6217ZM60.4941 59.5577C60.4941 59.2644 60.3915 59.1177 60.1861 59.1177C59.5701 59.1177 59.2621 59.719 59.2621 60.9217C59.2621 61.3324 59.3208 61.699 59.4381 62.0217C60.1421 61.2297 60.4941 60.4084 60.4941 59.5577ZM79.9363 62.2417C79.9363 62.4177 79.7163 62.6524 79.2763 62.9457C75.6683 65.3804 73.2336 66.5977 71.9723 66.5977C71.151 66.5977 70.7403 66.1284 70.7403 65.1897C70.7403 64.6617 70.843 64.1337 71.0483 63.6057C71.3416 62.8724 71.4883 62.491 71.4883 62.4617C71.4883 62.3444 71.4443 62.2857 71.3563 62.2857C71.327 62.2857 71.2536 62.315 71.1363 62.3737C70.491 63.019 69.5523 63.7964 68.3203 64.7057C66.7363 65.879 65.6363 66.4657 65.0203 66.4657C64.3163 66.4657 63.9643 66.1137 63.9643 65.4097C63.9643 64.999 64.4776 63.8697 65.5043 62.0217C66.531 60.1444 67.0443 59.059 67.0443 58.7657C67.0443 58.443 66.7803 58.2817 66.2523 58.2817C66.135 58.2817 66.0763 58.1057 66.0763 57.7537C66.3403 57.6657 66.619 57.6217 66.9123 57.6217C67.939 57.6217 68.4523 57.915 68.4523 58.5017C68.4523 59.147 67.9976 60.2324 67.0883 61.7577C66.179 63.283 65.7243 64.2364 65.7243 64.6177C65.7243 64.8524 65.827 64.9697 66.0323 64.9697C66.5016 64.9697 67.6456 64.1924 69.4643 62.6377C71.3123 61.083 72.735 59.675 73.7323 58.4137C74.1723 57.9737 74.495 57.7537 74.7003 57.7537C75.0816 57.7537 75.2723 57.9444 75.2723 58.3257C75.2723 58.531 75.1696 58.795 74.9643 59.1177C73.2043 61.7577 72.3243 63.4737 72.3243 64.2657C72.3243 64.999 72.6616 65.3657 73.3363 65.3657C74.363 65.3657 76.2256 64.4417 78.9243 62.5937C79.071 62.4764 79.2763 62.3444 79.5403 62.1977C79.6283 62.1097 79.7163 62.0657 79.8043 62.0657C79.8923 62.0657 79.9363 62.1244 79.9363 62.2417ZM93.0589 62.2417C92.9416 62.623 91.9296 63.3857 90.0229 64.5297C88.1163 65.6444 86.4883 66.6417 85.1389 67.5217C80.9443 75.735 78.3336 80.6924 77.3069 82.3937C74.4029 87.2044 71.9829 89.6097 70.0469 89.6097C69.1669 89.6097 68.7269 89.0377 68.7269 87.8937C68.7269 81.147 73.8163 74.3417 83.9949 67.4777C84.6696 66.1577 85.9016 63.6497 87.6909 59.9537C87.6909 59.9244 87.6616 59.9097 87.6029 59.9097C87.5443 59.9097 87.4416 59.983 87.2949 60.1297C86.7083 60.687 85.9309 61.4057 84.9629 62.2857C82.8803 64.2217 81.1789 65.1897 79.8589 65.1897C79.2429 65.1897 78.9349 64.823 78.9349 64.0897C78.9349 62.7697 79.8883 61.2444 81.7949 59.5137C83.8483 57.6364 85.8576 56.6977 87.8229 56.6977C88.3803 56.6977 88.8496 56.815 89.2309 57.0497L90.1549 55.7737C90.3603 55.5097 90.5656 55.3777 90.7709 55.3777C91.1523 55.3777 91.3429 55.583 91.3429 55.9937C91.3429 56.199 91.2696 56.4044 91.1229 56.6097C89.7443 58.663 87.9403 61.919 85.7109 66.3777C87.2069 65.439 88.5709 64.647 89.8029 64.0017C91.2696 63.151 92.2229 62.5497 92.6629 62.1977C92.7509 62.1097 92.8389 62.0657 92.9269 62.0657C93.0149 62.0657 93.0589 62.1244 93.0589 62.2417ZM88.9229 57.5777C88.9229 57.4604 88.7909 57.4017 88.5269 57.4017C86.9429 57.4017 85.2123 58.1644 83.3349 59.6897C81.4576 61.1857 80.5189 62.5204 80.5189 63.6937C80.5189 64.0457 80.6803 64.2217 81.0029 64.2217C82.2056 64.2217 84.7723 62.1244 88.7029 57.9297C88.8496 57.7244 88.9229 57.607 88.9229 57.5777ZM83.3789 68.7537C74.4323 75.0897 69.9589 81.3524 69.9589 87.5417C69.9589 88.3044 70.2083 88.6857 70.7069 88.6857C72.5843 88.6857 76.8083 82.0417 83.3789 68.7537ZM105.766 62.2417C105.649 62.623 104.652 63.371 102.774 64.4857C100.604 65.7764 98.8877 66.8324 97.6264 67.6537C93.6664 75.603 91.2024 80.3697 90.2344 81.9537C87.477 86.647 85.1597 88.9937 83.2824 88.9937C82.4024 88.9937 81.9624 88.4217 81.9624 87.2777C81.9624 80.883 86.7437 74.371 96.3064 67.7417L99.0344 62.0217C99.0344 61.9044 98.9904 61.8457 98.9024 61.8457C95.6757 64.3097 93.6957 65.5417 92.9624 65.5417C92.2584 65.5417 91.9064 65.1897 91.9064 64.4857C91.9064 64.075 92.3464 63.019 93.2264 61.3177C94.1357 59.6164 94.5904 58.619 94.5904 58.3257C94.5904 58.003 94.3264 57.8417 93.7984 57.8417C93.681 57.8417 93.6224 57.6657 93.6224 57.3137C93.8864 57.2257 94.165 57.1817 94.4584 57.1817C95.485 57.1817 95.9984 57.475 95.9984 58.0617C95.9984 58.707 95.6024 59.763 94.8104 61.2297C94.0184 62.6964 93.6224 63.6204 93.6224 64.0017C93.6224 64.2364 93.725 64.3537 93.9304 64.3537C94.6344 64.3537 95.7637 63.7377 97.3184 62.5057C99.0784 61.0977 100.398 59.587 101.278 57.9737C101.718 57.5337 102.041 57.3137 102.246 57.3137C102.628 57.3137 102.818 57.5044 102.818 57.8857C102.818 58.091 102.716 58.355 102.51 58.6777C101.366 60.467 99.929 63.0777 98.1984 66.5097C99.753 65.5417 101.19 64.7057 102.51 64.0017C103.977 63.151 104.93 62.5497 105.37 62.1977C105.458 62.1097 105.546 62.0657 105.634 62.0657C105.722 62.0657 105.766 62.1244 105.766 62.2417ZM95.7784 68.9297C87.389 74.9137 83.1944 80.9124 83.1944 86.9257C83.1944 87.6884 83.4437 88.0697 83.9424 88.0697C85.1744 88.0697 86.993 85.9577 89.3984 81.7337C90.953 78.9764 93.0797 74.7084 95.7784 68.9297ZM116.11 62.2417C116.11 62.447 115.509 62.931 114.306 63.6937C111.343 65.571 109.217 66.5097 107.926 66.5097C106.019 66.5097 105.066 65.395 105.066 63.1657C105.066 61.523 105.858 59.8804 107.442 58.2377C109.055 56.5657 110.581 55.7297 112.018 55.7297C112.458 55.7297 112.678 55.935 112.678 56.3457C112.678 57.343 111.813 58.751 110.082 60.5697C108.703 62.007 107.574 62.9897 106.694 63.5177C106.782 64.8084 107.398 65.4537 108.542 65.4537C109.627 65.4537 111.446 64.7204 113.998 63.2537C114.203 63.1364 114.775 62.7844 115.714 62.1977C115.802 62.1097 115.89 62.0657 115.978 62.0657C116.066 62.0657 116.11 62.1244 116.11 62.2417ZM111.314 57.1817C111.314 56.8297 111.211 56.6537 111.006 56.6537C110.273 56.6537 109.378 57.387 108.322 58.8537C107.266 60.3204 106.723 61.6404 106.694 62.8137C107.251 62.6377 108.131 61.875 109.334 60.5257C110.654 59.059 111.314 57.9444 111.314 57.1817ZM142.659 62.2417C142.659 62.4177 142.439 62.6524 141.999 62.9457C139.916 64.3537 138.757 65.131 138.523 65.2777C137.203 66.0697 136.103 66.4657 135.223 66.4657C134.724 66.4657 134.299 66.2897 133.947 65.9377C133.624 65.5857 133.463 65.1604 133.463 64.6617C133.463 63.195 134.401 61.0977 136.279 58.3697C136.425 58.1644 136.499 58.0324 136.499 57.9737C136.499 57.9444 136.484 57.9297 136.455 57.9297C136.337 57.9297 136.132 58.0324 135.839 58.2377C134.196 59.4697 132.377 60.8337 130.383 62.3297C129.532 63.063 128.285 64.0897 126.643 65.4097C126.408 65.5857 126.085 65.747 125.675 65.8937C125.469 65.8937 125.367 65.747 125.367 65.4537C125.367 64.867 125.851 63.9284 126.819 62.6377C127.816 61.3177 128.315 60.3937 128.315 59.8657C128.315 59.367 128.08 59.1177 127.611 59.1177C126.907 59.1177 125.499 60.071 123.387 61.9777C121.949 63.2684 120.688 64.515 119.603 65.7177C119.192 66.1577 118.869 66.3777 118.635 66.3777C118.253 66.3777 118.063 66.1724 118.063 65.7617C118.063 65.6444 118.165 65.351 118.371 64.8817C119.075 63.9137 119.764 62.9457 120.439 61.9777C121.465 60.511 121.979 59.4697 121.979 58.8537C121.979 58.5897 121.891 58.4577 121.715 58.4577C121.627 58.4577 121.451 58.5164 121.187 58.6337C119.691 59.7484 117.564 61.3324 114.807 63.3857H114.499C114.293 63.3857 114.191 63.3564 114.191 63.2977C114.191 63.2097 114.352 63.063 114.675 62.8577C116.728 61.2444 119.001 59.499 121.495 57.6217C121.847 57.3284 122.301 57.1817 122.859 57.1817C123.445 57.1817 123.739 57.4457 123.739 57.9737C123.739 58.091 123.709 58.267 123.651 58.5017C123.064 59.5284 122.316 60.8337 121.407 62.4177C121.289 62.623 121.231 62.755 121.231 62.8137C121.231 62.843 121.26 62.8577 121.319 62.8577L121.451 62.8137C122.536 61.875 123.621 60.9364 124.707 59.9977C126.379 58.5897 127.581 57.8857 128.315 57.8857C129.283 57.8857 129.767 58.1937 129.767 58.8097C129.767 59.3377 129.473 60.1444 128.887 61.2297C128.329 62.2857 128.051 62.8577 128.051 62.9457C128.051 63.0337 128.08 63.0777 128.139 63.0777C128.256 63.0777 128.461 62.975 128.755 62.7697L137.907 55.8617C138.2 55.627 138.508 55.5097 138.831 55.5097C139.036 55.5097 139.183 55.5537 139.271 55.6417C139.359 55.7004 139.403 55.8177 139.403 55.9937C139.403 56.199 139.344 56.375 139.227 56.5217C138.405 57.695 137.569 58.883 136.719 60.0857C135.721 61.611 135.223 62.931 135.223 64.0457C135.223 64.7497 135.604 65.087 136.367 65.0577C137.276 65.0284 138.303 64.6617 139.447 63.9577C140.385 63.371 141.324 62.7844 142.263 62.1977C142.351 62.1097 142.439 62.0657 142.527 62.0657C142.615 62.0657 142.659 62.1244 142.659 62.2417ZM167.929 62.2417C167.753 62.7404 166.682 63.4884 164.717 64.4857C162.751 65.483 161.299 65.9817 160.361 65.9817C159.862 65.9817 159.613 65.8057 159.613 65.4537C159.613 64.9844 160.097 64.0457 161.065 62.6377C162.062 61.2297 162.561 60.3057 162.561 59.8657C162.561 59.367 162.326 59.1177 161.857 59.1177C161.153 59.1177 159.745 60.071 157.633 61.9777C156.195 63.2684 154.934 64.515 153.849 65.7177C153.438 66.1577 153.115 66.3777 152.881 66.3777C152.499 66.3777 152.309 66.1724 152.309 65.7617C152.309 65.6444 152.411 65.351 152.617 64.8817C153.321 63.9137 154.01 62.9457 154.685 61.9777C155.711 60.511 156.225 59.4697 156.225 58.8537C156.225 58.5897 156.137 58.4577 155.961 58.4577C155.873 58.4577 155.697 58.5164 155.433 58.6337C153.937 59.7484 151.81 61.3324 149.053 63.3857H148.745C148.539 63.3857 148.437 63.3564 148.437 63.2977C148.437 63.2097 148.598 63.063 148.921 62.8577C150.974 61.2444 153.247 59.499 155.741 57.6217C156.093 57.3284 156.547 57.1817 157.105 57.1817C157.691 57.1817 157.985 57.4457 157.985 57.9737C157.985 58.5897 157.559 59.5284 156.709 60.7897C155.887 62.0217 155.477 62.6964 155.477 62.8137C155.477 62.843 155.506 62.8577 155.565 62.8577C155.535 62.8577 156.518 62.0364 158.513 60.3937C160.507 58.7217 161.857 57.8857 162.561 57.8857C163.646 57.8857 164.189 58.2524 164.189 58.9857C164.189 59.631 163.719 60.687 162.781 62.1537C161.842 63.6204 161.373 64.4564 161.373 64.6617C161.373 64.8964 161.519 65.0137 161.813 65.0137C162.37 65.0137 163.441 64.5884 165.025 63.7377C166.11 63.1217 166.946 62.6084 167.533 62.1977C167.621 62.1097 167.709 62.0657 167.797 62.0657C167.885 62.0657 167.929 62.1244 167.929 62.2417ZM182.159 62.2417C182.159 62.4177 181.939 62.6524 181.499 62.9457C177.891 65.3804 175.456 66.5977 174.195 66.5977C173.374 66.5977 172.963 66.1284 172.963 65.1897C172.963 64.6617 173.066 64.1337 173.271 63.6057C173.564 62.8724 173.711 62.491 173.711 62.4617C173.711 62.3444 173.667 62.2857 173.579 62.2857C173.55 62.2857 173.476 62.315 173.359 62.3737C172.714 63.019 171.775 63.7964 170.543 64.7057C168.959 65.879 167.859 66.4657 167.243 66.4657C166.539 66.4657 166.187 66.1137 166.187 65.4097C166.187 64.999 166.7 63.8697 167.727 62.0217C168.754 60.1444 169.267 59.059 169.267 58.7657C169.267 58.443 169.003 58.2817 168.475 58.2817C168.358 58.2817 168.299 58.1057 168.299 57.7537C168.563 57.6657 168.842 57.6217 169.135 57.6217C170.162 57.6217 170.675 57.915 170.675 58.5017C170.675 59.147 170.22 60.2324 169.311 61.7577C168.402 63.283 167.947 64.2364 167.947 64.6177C167.947 64.8524 168.05 64.9697 168.255 64.9697C168.724 64.9697 169.868 64.1924 171.687 62.6377C173.535 61.083 174.958 59.675 175.955 58.4137C176.395 57.9737 176.718 57.7537 176.923 57.7537C177.304 57.7537 177.495 57.9444 177.495 58.3257C177.495 58.531 177.392 58.795 177.187 59.1177C175.427 61.7577 174.547 63.4737 174.547 64.2657C174.547 64.999 174.884 65.3657 175.559 65.3657C176.586 65.3657 178.448 64.4417 181.147 62.5937C181.294 62.4764 181.499 62.3444 181.763 62.1977C181.851 62.1097 181.939 62.0657 182.027 62.0657C182.115 62.0657 182.159 62.1244 182.159 62.2417ZM186.086 64.6617C185.998 64.779 185.88 64.9404 185.734 65.1457C185.587 65.3217 185.44 65.4977 185.294 65.6737C185.176 65.879 185.059 66.0404 184.942 66.1577C184.824 66.3044 184.736 66.3777 184.678 66.3777C184.296 66.3777 184.106 66.1724 184.106 65.7617C184.106 65.615 184.208 65.3217 184.414 64.8817C184.766 64.383 185.118 63.899 185.47 63.4297C185.822 62.9604 186.159 62.4764 186.482 61.9777C187.508 60.511 188.022 59.4697 188.022 58.8537C188.022 58.5897 187.934 58.4577 187.758 58.4577C187.64 58.4577 187.464 58.5164 187.23 58.6337C186.467 59.191 185.558 59.8657 184.502 60.6577C183.475 61.4497 182.258 62.359 180.85 63.3857H180.542C180.336 63.3857 180.234 63.3564 180.234 63.2977C180.234 63.239 180.395 63.0924 180.718 62.8577C181.744 62.0364 182.815 61.2004 183.93 60.3497C185.074 59.4697 186.276 58.5604 187.538 57.6217C187.86 57.3284 188.315 57.1817 188.902 57.1817C189.488 57.1817 189.782 57.4457 189.782 57.9737C189.782 58.5604 189.356 59.499 188.506 60.7897C188.447 60.907 188.374 61.0244 188.286 61.1417C188.198 61.2297 188.124 61.3324 188.066 61.4497C188.3 61.4497 188.579 61.4497 188.902 61.4497C189.224 61.4497 189.591 61.435 190.002 61.4057C190.706 61.347 191.307 61.347 191.806 61.4057C191.923 61.2004 192.04 60.995 192.158 60.7897C192.275 60.5844 192.407 60.3644 192.554 60.1297C192.876 59.631 193.184 59.1764 193.478 58.7657C193.8 58.355 194.123 57.9884 194.446 57.6657C194.651 57.4017 194.974 57.2697 195.414 57.2697C195.648 57.3284 195.766 57.4017 195.766 57.4897C195.766 57.4897 195.252 58.3404 194.226 60.0417C193.199 61.743 192.686 62.975 192.686 63.7377C192.686 64.647 193.082 65.1017 193.874 65.1017C194.871 65.1017 196.323 64.2364 198.23 62.5057C198.318 62.4177 198.406 62.3737 198.494 62.3737C198.582 62.3737 198.626 62.4324 198.626 62.5497C198.626 62.7257 198.332 63.019 197.746 63.4297C196.807 64.251 195.956 64.8817 195.194 65.3217C194.431 65.7324 193.712 65.9377 193.038 65.9377C191.718 65.9377 191.058 65.3804 191.058 64.2657C191.058 63.5324 191.219 62.7844 191.542 62.0217C191.19 61.9924 190.764 61.9777 190.266 61.9777C189.796 61.9777 189.268 62.007 188.682 62.0657C188.271 62.095 188.007 62.1097 187.89 62.1097C187.772 62.1097 187.684 62.1097 187.626 62.1097C187.215 62.6964 186.848 63.2537 186.526 63.7817C186.232 64.3097 186.086 64.603 186.086 64.6617ZM225.502 62.2417C225.502 62.4177 225.282 62.6524 224.842 62.9457C222.76 64.3537 221.601 65.131 221.366 65.2777C220.046 66.0697 218.946 66.4657 218.066 66.4657C217.568 66.4657 217.142 66.2897 216.79 65.9377C216.468 65.5857 216.306 65.1604 216.306 64.6617C216.306 63.195 217.245 61.0977 219.122 58.3697C219.269 58.1644 219.342 58.0324 219.342 57.9737C219.342 57.9444 219.328 57.9297 219.298 57.9297C219.181 57.9297 218.976 58.0324 218.682 58.2377C217.04 59.4697 215.221 60.8337 213.226 62.3297C212.376 63.063 211.129 64.0897 209.486 65.4097C209.252 65.5857 208.929 65.747 208.518 65.8937C208.313 65.8937 208.21 65.747 208.21 65.4537C208.21 64.867 208.694 63.9284 209.662 62.6377C210.66 61.3177 211.158 60.3937 211.158 59.8657C211.158 59.367 210.924 59.1177 210.454 59.1177C209.75 59.1177 208.342 60.071 206.23 61.9777C204.793 63.2684 203.532 64.515 202.446 65.7177C202.036 66.1577 201.713 66.3777 201.478 66.3777C201.097 66.3777 200.906 66.1724 200.906 65.7617C200.906 65.6444 201.009 65.351 201.214 64.8817C201.918 63.9137 202.608 62.9457 203.282 61.9777C204.309 60.511 204.822 59.4697 204.822 58.8537C204.822 58.5897 204.734 58.4577 204.558 58.4577C204.47 58.4577 204.294 58.5164 204.03 58.6337C202.534 59.7484 200.408 61.3324 197.65 63.3857H197.342C197.137 63.3857 197.034 63.3564 197.034 63.2977C197.034 63.2097 197.196 63.063 197.518 62.8577C199.572 61.2444 201.845 59.499 204.338 57.6217C204.69 57.3284 205.145 57.1817 205.702 57.1817C206.289 57.1817 206.582 57.4457 206.582 57.9737C206.582 58.091 206.553 58.267 206.494 58.5017C205.908 59.5284 205.16 60.8337 204.25 62.4177C204.133 62.623 204.074 62.755 204.074 62.8137C204.074 62.843 204.104 62.8577 204.162 62.8577L204.294 62.8137C205.38 61.875 206.465 60.9364 207.55 59.9977C209.222 58.5897 210.425 57.8857 211.158 57.8857C212.126 57.8857 212.61 58.1937 212.61 58.8097C212.61 59.3377 212.317 60.1444 211.73 61.2297C211.173 62.2857 210.894 62.8577 210.894 62.9457C210.894 63.0337 210.924 63.0777 210.982 63.0777C211.1 63.0777 211.305 62.975 211.598 62.7697L220.75 55.8617C221.044 55.627 221.352 55.5097 221.674 55.5097C221.88 55.5097 222.026 55.5537 222.114 55.6417C222.202 55.7004 222.246 55.8177 222.246 55.9937C222.246 56.199 222.188 56.375 222.07 56.5217C221.249 57.695 220.413 58.883 219.562 60.0857C218.565 61.611 218.066 62.931 218.066 64.0457C218.066 64.7497 218.448 65.087 219.21 65.0577C220.12 65.0284 221.146 64.6617 222.29 63.9577C223.229 63.371 224.168 62.7844 225.106 62.1977C225.194 62.1097 225.282 62.0657 225.37 62.0657C225.458 62.0657 225.502 62.1244 225.502 62.2417ZM235.821 62.2417C235.821 62.447 235.22 62.931 234.017 63.6937C231.054 65.571 228.928 66.5097 227.637 66.5097C225.73 66.5097 224.777 65.395 224.777 63.1657C224.777 61.523 225.569 59.8804 227.153 58.2377C228.766 56.5657 230.292 55.7297 231.729 55.7297C232.169 55.7297 232.389 55.935 232.389 56.3457C232.389 57.343 231.524 58.751 229.793 60.5697C228.414 62.007 227.285 62.9897 226.405 63.5177C226.493 64.8084 227.109 65.4537 228.253 65.4537C229.338 65.4537 231.157 64.7204 233.709 63.2537C233.914 63.1364 234.486 62.7844 235.425 62.1977C235.513 62.1097 235.601 62.0657 235.689 62.0657C235.777 62.0657 235.821 62.1244 235.821 62.2417ZM231.025 57.1817C231.025 56.8297 230.922 56.6537 230.717 56.6537C229.984 56.6537 229.089 57.387 228.033 58.8537C226.977 60.3204 226.434 61.6404 226.405 62.8137C226.962 62.6377 227.842 61.875 229.045 60.5257C230.365 59.059 231.025 57.9444 231.025 57.1817ZM248.642 62.2417C248.642 62.6524 247.586 63.415 245.474 64.5297C243.362 65.6444 240.795 66.2017 237.774 66.2017C236.043 66.2017 235.104 66.0257 234.958 65.6737C234.958 65.4684 235.119 65.3657 235.442 65.3657C235.882 65.4537 236.16 65.4977 236.278 65.4977C237.774 65.4977 239.372 64.735 241.074 63.2097C242.687 61.7724 243.494 60.5404 243.494 59.5137C243.494 59.0737 243.215 58.8537 242.658 58.8537C239.9 58.8537 236.894 61.4644 233.638 66.6857C233.374 67.0964 231.775 70.2057 228.842 76.0137C225.879 81.851 224.31 84.975 224.134 85.3857C223.928 85.8844 223.664 86.1337 223.342 86.1337C223.224 86.1337 223.136 86.119 223.078 86.0897C222.902 86.031 222.814 85.855 222.814 85.5617C222.814 84.5057 229.414 72.1857 242.614 48.6017C242.848 48.191 243.068 47.9857 243.274 47.9857C243.303 47.9857 243.362 48.015 243.45 48.0737C243.538 48.1324 243.582 48.2497 243.582 48.4257C243.582 48.7484 243.494 48.9977 243.318 49.1737C243.288 49.2617 242.086 51.4324 239.71 55.6857C237.451 59.7924 236.322 61.9777 236.322 62.2417C236.322 62.271 236.336 62.3004 236.366 62.3297C236.395 62.271 236.498 62.1537 236.674 61.9777C237.378 61.127 238.346 60.2617 239.578 59.3817C241.22 58.267 242.658 57.7097 243.89 57.7097C244.799 57.7097 245.254 58.0617 245.254 58.7657C245.254 60.907 243.538 63.0044 240.106 65.0577C242.716 65.0577 245.43 64.1044 248.246 62.1977C248.334 62.1097 248.422 62.0657 248.51 62.0657C248.598 62.0657 248.642 62.1244 248.642 62.2417ZM259.067 62.2417C259.067 62.447 258.466 62.931 257.263 63.6937C254.3 65.571 252.174 66.5097 250.883 66.5097C248.976 66.5097 248.023 65.395 248.023 63.1657C248.023 61.523 248.815 59.8804 250.399 58.2377C252.012 56.5657 253.538 55.7297 254.975 55.7297C255.415 55.7297 255.635 55.935 255.635 56.3457C255.635 57.343 254.77 58.751 253.039 60.5697C251.66 62.007 250.531 62.9897 249.651 63.5177C249.739 64.8084 250.355 65.4537 251.499 65.4537C252.584 65.4537 254.403 64.7204 256.955 63.2537C257.16 63.1364 257.732 62.7844 258.671 62.1977C258.759 62.1097 258.847 62.0657 258.935 62.0657C259.023 62.0657 259.067 62.1244 259.067 62.2417ZM254.271 57.1817C254.271 56.8297 254.168 56.6537 253.963 56.6537C253.23 56.6537 252.335 57.387 251.279 58.8537C250.223 60.3204 249.68 61.6404 249.651 62.8137C250.208 62.6377 251.088 61.875 252.291 60.5257C253.611 59.059 254.271 57.9444 254.271 57.1817ZM268.544 62.2417C268.544 62.359 268.324 62.5937 267.884 62.9457C266.71 63.7084 265.552 64.471 264.408 65.2337C262.736 66.231 261.372 66.7297 260.316 66.7297C259.7 66.7297 259.157 66.5097 258.688 66.0697C258.218 65.6297 257.984 65.131 257.984 64.5737C257.984 62.6377 258.922 60.863 260.8 59.2497C262.472 57.8124 264.026 57.0937 265.464 57.0937C266.373 57.0937 266.828 57.4604 266.828 58.1937C266.828 58.6044 266.226 59.411 265.024 60.6137C264.906 60.731 264.774 60.7897 264.628 60.7897C264.393 60.7897 264.276 60.6577 264.276 60.3937C264.276 60.2764 264.32 60.1884 264.408 60.1297C264.496 60.0417 264.672 59.719 264.936 59.1617C265.2 58.575 265.332 58.135 265.332 57.8417C265.332 57.7537 265.229 57.7097 265.024 57.7097C264.29 57.7097 263.22 58.311 261.812 59.5137C260.11 60.951 259.26 62.4324 259.26 63.9577C259.26 65.0724 259.744 65.6297 260.712 65.6297C262.208 65.6297 264.481 64.6177 267.532 62.5937C267.678 62.4764 267.884 62.3444 268.148 62.1977C268.236 62.1097 268.324 62.0657 268.412 62.0657C268.5 62.0657 268.544 62.1244 268.544 62.2417ZM295.069 62.2417C295.069 62.4177 294.849 62.6524 294.409 62.9457C292.326 64.3537 291.167 65.131 290.933 65.2777C289.613 66.0697 288.513 66.4657 287.633 66.4657C287.134 66.4657 286.709 66.2897 286.357 65.9377C286.034 65.5857 285.873 65.1604 285.873 64.6617C285.873 63.195 286.811 61.0977 288.689 58.3697C288.835 58.1644 288.909 58.0324 288.909 57.9737C288.909 57.9444 288.894 57.9297 288.865 57.9297C288.747 57.9297 288.542 58.0324 288.249 58.2377C286.606 59.4697 284.787 60.8337 282.793 62.3297C281.942 63.063 280.695 64.0897 279.053 65.4097C278.818 65.5857 278.495 65.747 278.085 65.8937C277.879 65.8937 277.777 65.747 277.777 65.4537C277.777 64.867 278.261 63.9284 279.229 62.6377C280.226 61.3177 280.725 60.3937 280.725 59.8657C280.725 59.367 280.49 59.1177 280.021 59.1177C279.317 59.1177 277.909 60.071 275.797 61.9777C274.359 63.2684 273.098 64.515 272.013 65.7177C271.602 66.1577 271.279 66.3777 271.045 66.3777C270.663 66.3777 270.473 66.1724 270.473 65.7617C270.473 65.6444 270.575 65.351 270.781 64.8817C271.485 63.9137 272.174 62.9457 272.849 61.9777C273.875 60.511 274.389 59.4697 274.389 58.8537C274.389 58.5897 274.301 58.4577 274.125 58.4577C274.037 58.4577 273.861 58.5164 273.597 58.6337C272.101 59.7484 269.974 61.3324 267.217 63.3857H266.909C266.703 63.3857 266.601 63.3564 266.601 63.2977C266.601 63.2097 266.762 63.063 267.085 62.8577C269.138 61.2444 271.411 59.499 273.905 57.6217C274.257 57.3284 274.711 57.1817 275.269 57.1817C275.855 57.1817 276.149 57.4457 276.149 57.9737C276.149 58.091 276.119 58.267 276.061 58.5017C275.474 59.5284 274.726 60.8337 273.817 62.4177C273.699 62.623 273.641 62.755 273.641 62.8137C273.641 62.843 273.67 62.8577 273.729 62.8577L273.861 62.8137C274.946 61.875 276.031 60.9364 277.117 59.9977C278.789 58.5897 279.991 57.8857 280.725 57.8857C281.693 57.8857 282.177 58.1937 282.177 58.8097C282.177 59.3377 281.883 60.1444 281.297 61.2297C280.739 62.2857 280.461 62.8577 280.461 62.9457C280.461 63.0337 280.49 63.0777 280.549 63.0777C280.666 63.0777 280.871 62.975 281.165 62.7697L290.317 55.8617C290.61 55.627 290.918 55.5097 291.241 55.5097C291.446 55.5097 291.593 55.5537 291.681 55.6417C291.769 55.7004 291.813 55.8177 291.813 55.9937C291.813 56.199 291.754 56.375 291.637 56.5217C290.815 57.695 289.979 58.883 289.129 60.0857C288.131 61.611 287.633 62.931 287.633 64.0457C287.633 64.7497 288.014 65.087 288.777 65.0577C289.686 65.0284 290.713 64.6617 291.857 63.9577C292.795 63.371 293.734 62.7844 294.673 62.1977C294.761 62.1097 294.849 62.0657 294.937 62.0657C295.025 62.0657 295.069 62.1244 295.069 62.2417Z" fill="black"/>
</svg>
