<svg width="331" height="75" viewBox="1159 704 331 75" fill="none" xmlns="http://www.w3.org/2000/svg">
<path d="M1212.35 727.499C1212.42 727.499 1212.46 727.529 1212.46 727.587C1212.46 727.646 1212.42 727.675 1212.35 727.675C1212.13 727.661 1211.68 727.653 1210.99 727.653H1208C1207.31 727.653 1206.84 727.661 1206.61 727.675C1206.55 727.675 1206.52 727.646 1206.52 727.587C1206.52 727.529 1206.55 727.499 1206.61 727.499C1206.93 727.499 1207.18 727.441 1207.36 727.323C1207.55 727.206 1207.64 727.03 1207.64 726.795C1207.64 726.502 1207.49 726.113 1207.18 725.629L1205.22 722.637L1203.2 725.629C1202.88 726.128 1202.72 726.517 1202.72 726.795C1202.72 727.265 1203.05 727.499 1203.73 727.499C1203.8 727.499 1203.84 727.529 1203.84 727.587C1203.84 727.646 1203.8 727.675 1203.73 727.675C1203.49 727.661 1203.03 727.653 1202.34 727.653H1202.06C1201.37 727.653 1200.91 727.661 1200.69 727.675C1200.62 727.675 1200.58 727.646 1200.58 727.587C1200.58 727.529 1200.62 727.499 1200.69 727.499C1201.13 727.499 1201.5 727.375 1201.79 727.125C1202.1 726.861 1202.5 726.363 1202.98 725.629L1205.14 722.483L1203.29 719.645C1202.8 718.912 1202.42 718.421 1202.14 718.171C1201.88 717.907 1201.55 717.775 1201.15 717.775C1201.09 717.775 1201.07 717.746 1201.07 717.687C1201.07 717.629 1201.09 717.599 1201.15 717.599L1202.39 717.621H1205.4L1206.9 717.599C1206.97 717.599 1207.01 717.629 1207.01 717.687C1207.01 717.746 1206.97 717.775 1206.9 717.775C1206.54 717.775 1206.26 717.841 1206.06 717.973C1205.87 718.091 1205.77 718.274 1205.77 718.523C1205.77 718.831 1205.92 719.205 1206.21 719.645L1207.73 721.977L1209.34 719.645C1209.65 719.191 1209.8 718.809 1209.8 718.501C1209.8 718.252 1209.7 718.069 1209.49 717.951C1209.3 717.834 1209.03 717.775 1208.68 717.775C1208.59 717.775 1208.55 717.746 1208.55 717.687C1208.55 717.629 1208.59 717.599 1208.68 717.599L1210.17 717.621H1210.48L1211.85 717.599C1211.92 717.599 1211.96 717.629 1211.96 717.687C1211.96 717.746 1211.92 717.775 1211.85 717.775C1211.39 717.775 1211.01 717.907 1210.7 718.171C1210.41 718.435 1210.02 718.927 1209.54 719.645L1207.82 722.153L1210.09 725.629C1210.55 726.348 1210.94 726.839 1211.23 727.103C1211.54 727.367 1211.91 727.499 1212.35 727.499ZM1217.39 728.005C1216.38 728.005 1215.46 727.793 1214.64 727.367C1213.83 726.927 1213.2 726.311 1212.73 725.519C1212.27 724.727 1212.05 723.825 1212.05 722.813C1212.05 721.787 1212.31 720.855 1212.84 720.019C1213.37 719.169 1214.08 718.501 1214.99 718.017C1215.92 717.533 1216.93 717.291 1218.03 717.291C1219.06 717.291 1219.98 717.511 1220.8 717.951C1221.64 718.377 1222.29 718.978 1222.76 719.755C1223.23 720.533 1223.46 721.42 1223.46 722.417C1223.46 723.444 1223.19 724.39 1222.65 725.255C1222.12 726.106 1221.39 726.781 1220.45 727.279C1219.53 727.763 1218.51 728.005 1217.39 728.005ZM1218.6 727.477C1219.44 727.477 1220.09 727.243 1220.56 726.773C1221.04 726.289 1221.29 725.585 1221.29 724.661C1221.29 723.767 1221.05 722.777 1220.58 721.691C1220.13 720.606 1219.55 719.689 1218.84 718.941C1218.15 718.179 1217.48 717.797 1216.82 717.797C1216 717.797 1215.35 718.032 1214.88 718.501C1214.41 718.971 1214.18 719.675 1214.18 720.613C1214.18 721.493 1214.41 722.483 1214.86 723.583C1215.32 724.669 1215.89 725.593 1216.58 726.355C1217.28 727.103 1217.96 727.477 1218.6 727.477ZM1236.91 727.499C1236.99 727.499 1237.02 727.529 1237.02 727.587C1237.02 727.646 1236.99 727.675 1236.91 727.675C1236.69 727.661 1236.24 727.653 1235.55 727.653H1232.93C1232.24 727.653 1231.79 727.661 1231.57 727.675C1231.5 727.675 1231.46 727.646 1231.46 727.587C1231.46 727.529 1231.5 727.499 1231.57 727.499C1232.05 727.499 1232.4 727.338 1232.62 727.015C1232.86 726.693 1232.98 726.143 1232.98 725.365V722.549C1232.51 723.033 1231.94 723.407 1231.28 723.671C1230.64 723.935 1229.96 724.067 1229.24 724.067C1228.17 724.067 1227.29 723.803 1226.6 723.275C1225.91 722.733 1225.56 721.853 1225.56 720.635V719.909C1225.56 719.132 1225.45 718.582 1225.21 718.259C1224.99 717.937 1224.64 717.775 1224.15 717.775C1224.08 717.775 1224.04 717.746 1224.04 717.687C1224.04 717.629 1224.08 717.599 1224.15 717.599L1225.52 717.621H1228.14L1229.5 717.599C1229.57 717.599 1229.61 717.629 1229.61 717.687C1229.61 717.746 1229.57 717.775 1229.5 717.775C1229.02 717.775 1228.66 717.937 1228.42 718.259C1228.2 718.582 1228.09 719.132 1228.09 719.909V720.921C1228.09 721.845 1228.31 722.513 1228.73 722.923C1229.16 723.319 1229.67 723.517 1230.27 723.517C1230.74 723.517 1231.2 723.407 1231.66 723.187C1232.13 722.967 1232.57 722.637 1232.98 722.197V719.909C1232.98 719.132 1232.86 718.582 1232.62 718.259C1232.4 717.937 1232.05 717.775 1231.57 717.775C1231.5 717.775 1231.46 717.746 1231.46 717.687C1231.46 717.629 1231.5 717.599 1231.57 717.599L1232.93 717.621H1235.55L1236.91 717.599C1236.99 717.599 1237.02 717.629 1237.02 717.687C1237.02 717.746 1236.99 717.775 1236.91 717.775C1236.43 717.775 1236.07 717.937 1235.84 718.259C1235.62 718.582 1235.51 719.132 1235.51 719.909V725.365C1235.51 726.143 1235.62 726.693 1235.84 727.015C1236.07 727.338 1236.43 727.499 1236.91 727.499ZM1247.72 725.695C1247.74 725.681 1247.76 725.688 1247.79 725.717C1247.83 725.747 1247.84 725.783 1247.81 725.827C1247.24 726.531 1246.55 727.067 1245.74 727.433C1244.93 727.8 1244.09 727.983 1243.21 727.983C1242.29 727.983 1241.43 727.771 1240.64 727.345C1239.84 726.92 1239.21 726.319 1238.74 725.541C1238.29 724.749 1238.06 723.84 1238.06 722.813C1238.06 721.801 1238.31 720.87 1238.81 720.019C1239.32 719.169 1240.01 718.501 1240.88 718.017C1241.74 717.519 1242.69 717.269 1243.72 717.269C1244.86 717.269 1245.81 717.585 1246.58 718.215C1247.34 718.831 1247.72 719.675 1247.72 720.745C1247.72 721.229 1247.63 721.75 1247.46 722.307C1245.92 722.337 1243.56 722.403 1240.37 722.505C1240.62 723.312 1241 724.038 1241.52 724.683C1242.04 725.314 1242.65 725.813 1243.32 726.179C1244 726.531 1244.66 726.707 1245.3 726.707C1246.37 726.707 1247.18 726.37 1247.72 725.695ZM1242.64 717.687C1241.82 717.687 1241.19 717.944 1240.75 718.457C1240.32 718.956 1240.11 719.711 1240.11 720.723C1240.11 721.222 1240.18 721.765 1240.33 722.351C1241.16 722.337 1242.15 722.3 1243.28 722.241C1243.57 722.227 1243.87 722.212 1244.18 722.197C1244.5 722.183 1244.82 722.175 1245.15 722.175C1245.28 721.955 1245.34 721.684 1245.34 721.361C1245.34 720.877 1245.21 720.349 1244.93 719.777C1244.66 719.191 1244.32 718.699 1243.89 718.303C1243.48 717.893 1243.06 717.687 1242.64 717.687ZM1267.13 727.499C1267.2 727.499 1267.24 727.529 1267.24 727.587C1267.24 727.646 1267.2 727.675 1267.13 727.675C1266.89 727.661 1266.43 727.653 1265.74 727.653H1250.37C1249.68 727.653 1249.21 727.661 1248.98 727.675C1248.91 727.675 1248.87 727.646 1248.87 727.587C1248.87 727.529 1248.91 727.499 1248.98 727.499C1249.46 727.499 1249.82 727.338 1250.06 727.015C1250.29 726.693 1250.41 726.143 1250.41 725.365V719.909C1250.41 719.132 1250.29 718.582 1250.06 718.259C1249.82 717.937 1249.46 717.775 1248.98 717.775C1248.91 717.775 1248.87 717.746 1248.87 717.687C1248.87 717.629 1248.91 717.599 1248.98 717.599L1250.37 717.621H1252.85L1254.15 717.599C1254.22 717.599 1254.26 717.629 1254.26 717.687C1254.26 717.746 1254.22 717.775 1254.15 717.775C1253.68 717.775 1253.34 717.937 1253.12 718.259C1252.91 718.582 1252.81 719.132 1252.81 719.909V727.499H1256.83V719.909C1256.83 719.132 1256.72 718.582 1256.5 718.259C1256.3 717.937 1255.96 717.775 1255.49 717.775C1255.42 717.775 1255.38 717.746 1255.38 717.687C1255.38 717.629 1255.42 717.599 1255.49 717.599L1256.79 717.621H1259.3L1260.6 717.599C1260.67 717.599 1260.71 717.629 1260.71 717.687C1260.71 717.746 1260.67 717.775 1260.6 717.775C1260.13 717.775 1259.78 717.937 1259.56 718.259C1259.36 718.582 1259.25 719.132 1259.25 719.909V727.499H1263.28V719.909C1263.28 719.132 1263.17 718.582 1262.95 718.259C1262.74 717.937 1262.41 717.775 1261.94 717.775C1261.86 717.775 1261.83 717.746 1261.83 717.687C1261.83 717.629 1261.86 717.599 1261.94 717.599L1263.24 717.621H1265.74L1267.13 717.599C1267.2 717.599 1267.24 717.629 1267.24 717.687C1267.24 717.746 1267.2 717.775 1267.13 717.775C1266.65 717.775 1266.29 717.937 1266.05 718.259C1265.82 718.582 1265.7 719.132 1265.7 719.909V725.365C1265.7 726.143 1265.82 726.693 1266.05 727.015C1266.29 727.338 1266.65 727.499 1267.13 727.499ZM1274.06 721.911C1277.06 721.867 1278.57 722.784 1278.57 724.661C1278.57 725.629 1278.21 726.37 1277.51 726.883C1276.81 727.397 1275.76 727.653 1274.36 727.653H1272.32H1269.74C1269.05 727.653 1268.59 727.661 1268.36 727.675C1268.28 727.675 1268.25 727.646 1268.25 727.587C1268.25 727.529 1268.28 727.499 1268.36 727.499C1268.84 727.499 1269.2 727.338 1269.44 727.015C1269.67 726.693 1269.79 726.143 1269.79 725.365V719.909C1269.79 719.132 1269.67 718.582 1269.44 718.259C1269.2 717.937 1268.84 717.775 1268.36 717.775C1268.28 717.775 1268.25 717.746 1268.25 717.687C1268.25 717.629 1268.28 717.599 1268.36 717.599L1269.74 717.621H1272.36L1273.73 717.599C1273.8 717.599 1273.84 717.629 1273.84 717.687C1273.84 717.746 1273.8 717.775 1273.73 717.775C1273.24 717.775 1272.88 717.937 1272.65 718.259C1272.43 718.582 1272.32 719.132 1272.32 719.909V721.691C1272.32 721.853 1272.38 721.933 1272.52 721.933L1274.06 721.911ZM1273.7 727.477C1274.41 727.463 1274.95 727.206 1275.33 726.707C1275.73 726.209 1275.93 725.541 1275.93 724.705C1275.93 723.884 1275.73 723.246 1275.33 722.791C1274.94 722.322 1274.36 722.095 1273.62 722.109L1272.52 722.131C1272.38 722.131 1272.32 722.212 1272.32 722.373V726.905C1272.32 727.14 1272.35 727.301 1272.41 727.389C1272.46 727.463 1272.58 727.499 1272.76 727.499L1273.7 727.477ZM1297.04 727.499C1297.11 727.499 1297.15 727.529 1297.15 727.587C1297.15 727.646 1297.11 727.675 1297.04 727.675C1296.82 727.661 1296.36 727.653 1295.67 727.653H1293.05C1292.41 727.653 1291.98 727.661 1291.76 727.675C1291.68 727.675 1291.65 727.646 1291.65 727.587C1291.65 727.529 1291.68 727.499 1291.76 727.499C1292.22 727.499 1292.56 727.338 1292.77 727.015C1292.99 726.693 1293.1 726.143 1293.1 725.365V717.775H1288.35V725.365C1288.35 726.143 1288.45 726.693 1288.65 727.015C1288.87 727.338 1289.22 727.499 1289.69 727.499C1289.76 727.499 1289.8 727.529 1289.8 727.587C1289.8 727.646 1289.76 727.675 1289.69 727.675C1289.47 727.661 1289.03 727.653 1288.39 727.653H1285.77C1285.08 727.653 1284.62 727.661 1284.39 727.675C1284.31 727.675 1284.28 727.646 1284.28 727.587C1284.28 727.529 1284.31 727.499 1284.39 727.499C1284.87 727.499 1285.23 727.338 1285.46 727.015C1285.7 726.693 1285.82 726.143 1285.82 725.365V719.909C1285.82 719.132 1285.7 718.582 1285.46 718.259C1285.23 717.937 1284.87 717.775 1284.39 717.775C1284.31 717.775 1284.28 717.746 1284.28 717.687C1284.28 717.629 1284.31 717.599 1284.39 717.599L1285.77 717.621H1295.67L1296.97 717.599C1297.04 717.599 1297.08 717.629 1297.08 717.687C1297.08 717.746 1297.04 717.775 1296.97 717.775C1296.5 717.775 1296.16 717.937 1295.94 718.259C1295.73 718.582 1295.63 719.132 1295.63 719.909V725.365C1295.63 726.143 1295.74 726.693 1295.96 727.015C1296.19 727.338 1296.55 727.499 1297.04 727.499ZM1303.52 728.005C1302.51 728.005 1301.59 727.793 1300.77 727.367C1299.97 726.927 1299.33 726.311 1298.86 725.519C1298.4 724.727 1298.18 723.825 1298.18 722.813C1298.18 721.787 1298.44 720.855 1298.97 720.019C1299.5 719.169 1300.21 718.501 1301.12 718.017C1302.05 717.533 1303.06 717.291 1304.16 717.291C1305.19 717.291 1306.11 717.511 1306.93 717.951C1307.77 718.377 1308.42 718.978 1308.89 719.755C1309.36 720.533 1309.59 721.42 1309.59 722.417C1309.59 723.444 1309.32 724.39 1308.78 725.255C1308.25 726.106 1307.52 726.781 1306.58 727.279C1305.66 727.763 1304.64 728.005 1303.52 728.005ZM1304.73 727.477C1305.57 727.477 1306.22 727.243 1306.69 726.773C1307.17 726.289 1307.42 725.585 1307.42 724.661C1307.42 723.767 1307.18 722.777 1306.71 721.691C1306.26 720.606 1305.68 719.689 1304.97 718.941C1304.28 718.179 1303.61 717.797 1302.95 717.797C1302.13 717.797 1301.48 718.032 1301.01 718.501C1300.54 718.971 1300.31 719.675 1300.31 720.613C1300.31 721.493 1300.54 722.483 1300.99 723.583C1301.45 724.669 1302.02 725.593 1302.71 726.355C1303.41 727.103 1304.09 727.477 1304.73 727.477ZM1319.04 723.077C1319.01 723.151 1318.96 723.187 1318.9 723.187C1318.86 723.173 1318.85 723.121 1318.88 723.033C1318.96 722.74 1318.99 722.454 1318.99 722.175C1318.99 721.501 1318.83 720.819 1318.51 720.129C1318.19 719.425 1317.76 718.846 1317.23 718.391C1316.7 717.937 1316.15 717.709 1315.56 717.709C1313.83 717.709 1312.96 718.699 1312.96 720.679C1312.96 721.765 1313.21 722.777 1313.71 723.715C1314.21 724.639 1314.86 725.373 1315.65 725.915C1316.45 726.458 1317.27 726.729 1318.09 726.729C1319.15 726.729 1319.95 726.392 1320.51 725.717C1320.57 725.659 1320.61 725.651 1320.64 725.695C1320.67 725.725 1320.67 725.761 1320.64 725.805C1319.48 727.257 1317.95 727.983 1316.04 727.983C1315.11 727.983 1314.24 727.771 1313.45 727.345C1312.66 726.92 1312.02 726.319 1311.53 725.541C1311.06 724.749 1310.83 723.84 1310.83 722.813C1310.83 721.816 1311.08 720.892 1311.58 720.041C1312.09 719.191 1312.78 718.516 1313.65 718.017C1314.51 717.519 1315.45 717.269 1316.46 717.269C1317.17 717.269 1317.83 717.365 1318.44 717.555C1319.06 717.746 1319.53 717.995 1319.85 718.303C1320.19 718.597 1320.32 718.89 1320.25 719.183L1319.04 723.077ZM1334.12 727.499C1334.19 727.499 1334.23 727.529 1334.23 727.587C1334.23 727.646 1334.19 727.675 1334.12 727.675C1333.9 727.661 1333.44 727.653 1332.75 727.653H1330.14C1329.49 727.653 1329.06 727.661 1328.84 727.675C1328.76 727.675 1328.73 727.646 1328.73 727.587C1328.73 727.529 1328.76 727.499 1328.84 727.499C1329.31 727.499 1329.64 727.338 1329.85 727.015C1330.07 726.693 1330.18 726.143 1330.18 725.365V717.775H1325.43V725.365C1325.43 726.143 1325.53 726.693 1325.74 727.015C1325.96 727.338 1326.3 727.499 1326.77 727.499C1326.84 727.499 1326.88 727.529 1326.88 727.587C1326.88 727.646 1326.84 727.675 1326.77 727.675C1326.55 727.661 1326.12 727.653 1325.47 727.653H1322.85C1322.16 727.653 1321.7 727.661 1321.47 727.675C1321.39 727.675 1321.36 727.646 1321.36 727.587C1321.36 727.529 1321.39 727.499 1321.47 727.499C1321.95 727.499 1322.31 727.338 1322.55 727.015C1322.78 726.693 1322.9 726.143 1322.9 725.365V719.909C1322.9 719.132 1322.78 718.582 1322.55 718.259C1322.31 717.937 1321.95 717.775 1321.47 717.775C1321.39 717.775 1321.36 717.746 1321.36 717.687C1321.36 717.629 1321.39 717.599 1321.47 717.599L1322.85 717.621H1332.75L1334.05 717.599C1334.12 717.599 1334.16 717.629 1334.16 717.687C1334.16 717.746 1334.12 717.775 1334.05 717.775C1333.58 717.775 1333.24 717.937 1333.02 718.259C1332.81 718.582 1332.71 719.132 1332.71 719.909V725.365C1332.71 726.143 1332.82 726.693 1333.04 727.015C1333.27 727.338 1333.63 727.499 1334.12 727.499ZM1346.92 727.499C1346.99 727.499 1347.03 727.529 1347.03 727.587C1347.03 727.646 1346.99 727.675 1346.92 727.675C1346.68 727.661 1346.23 727.653 1345.55 727.653H1342.94C1342.25 727.653 1341.78 727.661 1341.55 727.675C1341.48 727.675 1341.44 727.646 1341.44 727.587C1341.44 727.529 1341.48 727.499 1341.55 727.499C1342.03 727.499 1342.39 727.338 1342.63 727.015C1342.86 726.693 1342.98 726.143 1342.98 725.365V717.775H1338.51C1338.46 718.963 1338.31 721.215 1338.07 724.529C1338.02 725.6 1337.85 726.451 1337.57 727.081C1337.3 727.697 1336.83 728.005 1336.16 728.005C1335.37 728.005 1334.97 727.785 1334.97 727.345C1334.97 727.257 1334.98 727.191 1334.99 727.147L1335.52 725.057C1335.55 724.984 1335.59 724.955 1335.63 724.969C1335.68 724.969 1335.7 725.006 1335.7 725.079C1335.71 725.71 1335.79 726.135 1335.94 726.355C1336.09 726.575 1336.33 726.685 1336.67 726.685C1337.4 726.685 1337.82 725.967 1337.92 724.529L1338.21 719.909L1338.23 719.469C1338.23 718.868 1338.12 718.435 1337.9 718.171C1337.68 717.907 1337.35 717.775 1336.91 717.775C1336.83 717.775 1336.8 717.746 1336.8 717.687C1336.8 717.629 1336.83 717.599 1336.91 717.599L1338.27 717.621H1345.55L1346.92 717.599C1346.99 717.599 1347.03 717.629 1347.03 717.687C1347.03 717.746 1346.99 717.775 1346.92 717.775C1346.43 717.775 1346.07 717.937 1345.84 718.259C1345.62 718.582 1345.51 719.132 1345.51 719.909V725.365C1345.51 726.143 1345.62 726.693 1345.84 727.015C1346.07 727.338 1346.43 727.499 1346.92 727.499ZM1357.7 725.695C1357.71 725.681 1357.74 725.688 1357.77 725.717C1357.81 725.747 1357.82 725.783 1357.79 725.827C1357.22 726.531 1356.53 727.067 1355.72 727.433C1354.91 727.8 1354.07 727.983 1353.19 727.983C1352.27 727.983 1351.41 727.771 1350.62 727.345C1349.82 726.92 1349.19 726.319 1348.72 725.541C1348.27 724.749 1348.04 723.84 1348.04 722.813C1348.04 721.801 1348.29 720.87 1348.79 720.019C1349.3 719.169 1349.99 718.501 1350.86 718.017C1351.72 717.519 1352.67 717.269 1353.7 717.269C1354.84 717.269 1355.79 717.585 1356.56 718.215C1357.32 718.831 1357.7 719.675 1357.7 720.745C1357.7 721.229 1357.61 721.75 1357.44 722.307C1355.9 722.337 1353.53 722.403 1350.35 722.505C1350.6 723.312 1350.98 724.038 1351.5 724.683C1352.02 725.314 1352.62 725.813 1353.3 726.179C1353.97 726.531 1354.63 726.707 1355.28 726.707C1356.35 726.707 1357.16 726.37 1357.7 725.695ZM1352.62 717.687C1351.8 717.687 1351.17 717.944 1350.73 718.457C1350.3 718.956 1350.09 719.711 1350.09 720.723C1350.09 721.222 1350.16 721.765 1350.31 722.351C1351.14 722.337 1352.13 722.3 1353.26 722.241C1353.55 722.227 1353.85 722.212 1354.16 722.197C1354.48 722.183 1354.8 722.175 1355.13 722.175C1355.26 721.955 1355.32 721.684 1355.32 721.361C1355.32 720.877 1355.18 720.349 1354.91 719.777C1354.64 719.191 1354.3 718.699 1353.87 718.303C1353.46 717.893 1353.04 717.687 1352.62 717.687ZM1368.99 721.427C1369 721.486 1368.99 721.515 1368.95 721.515C1368.9 721.515 1368.87 721.486 1368.86 721.427C1368.32 719.389 1367.71 718.252 1367.05 718.017C1366.92 717.915 1366.41 717.863 1365.51 717.863C1365.43 717.863 1365.35 717.915 1365.29 718.017C1365.24 718.105 1365.21 718.223 1365.21 718.369V725.365C1365.21 726.143 1365.32 726.693 1365.54 727.015C1365.77 727.338 1366.13 727.499 1366.61 727.499C1366.69 727.499 1366.72 727.529 1366.72 727.587C1366.72 727.646 1366.69 727.675 1366.61 727.675C1366.39 727.661 1365.94 727.653 1365.25 727.653H1362.63C1361.94 727.653 1361.49 727.661 1361.27 727.675C1361.19 727.675 1361.16 727.646 1361.16 727.587C1361.16 727.529 1361.19 727.499 1361.27 727.499C1361.75 727.499 1362.1 727.338 1362.32 727.015C1362.56 726.693 1362.68 726.143 1362.68 725.365V718.369C1362.68 718.223 1362.65 718.105 1362.59 718.017C1362.53 717.915 1362.46 717.863 1362.37 717.863C1361.47 717.863 1360.96 717.915 1360.83 718.017C1360.17 718.252 1359.57 719.389 1359.02 721.427C1359.01 721.486 1358.98 721.515 1358.94 721.515C1358.89 721.515 1358.88 721.486 1358.89 721.427C1359.07 720.122 1359.16 718.927 1359.16 717.841C1359.16 717.607 1359.25 717.489 1359.44 717.489C1359.53 717.489 1359.78 717.519 1360.19 717.577C1360.62 717.636 1361.44 717.665 1362.68 717.665H1365.21C1366.39 717.665 1367.21 717.636 1367.65 717.577C1368.09 717.519 1368.36 717.489 1368.46 717.489C1368.64 717.489 1368.73 717.607 1368.73 717.841C1368.73 718.927 1368.81 720.122 1368.99 721.427ZM1383.02 727.499C1383.09 727.499 1383.13 727.529 1383.13 727.587C1383.13 727.646 1383.09 727.675 1383.02 727.675C1382.8 727.661 1382.35 727.653 1381.66 727.653H1379.04C1378.39 727.653 1377.96 727.661 1377.74 727.675C1377.67 727.675 1377.63 727.646 1377.63 727.587C1377.63 727.529 1377.67 727.499 1377.74 727.499C1378.21 727.499 1378.55 727.338 1378.75 727.015C1378.97 726.693 1379.08 726.143 1379.08 725.365V722.483C1379.08 722.307 1379.02 722.227 1378.89 722.241C1378.11 722.359 1377.34 722.417 1376.58 722.417C1375.81 722.417 1375.04 722.359 1374.27 722.241H1374.24C1374.16 722.241 1374.11 722.322 1374.11 722.483V725.365C1374.11 726.143 1374.21 726.693 1374.42 727.015C1374.64 727.338 1374.98 727.499 1375.45 727.499C1375.53 727.499 1375.56 727.529 1375.56 727.587C1375.56 727.646 1375.53 727.675 1375.45 727.675C1375.23 727.661 1374.8 727.653 1374.16 727.653H1371.54C1370.85 727.653 1370.39 727.661 1370.15 727.675C1370.08 727.675 1370.04 727.646 1370.04 727.587C1370.04 727.529 1370.08 727.499 1370.15 727.499C1370.64 727.499 1370.99 727.338 1371.23 727.015C1371.46 726.693 1371.58 726.143 1371.58 725.365V719.909C1371.58 719.132 1371.46 718.582 1371.23 718.259C1370.99 717.937 1370.64 717.775 1370.15 717.775C1370.08 717.775 1370.04 717.746 1370.04 717.687C1370.04 717.629 1370.08 717.599 1370.15 717.599L1371.54 717.621H1374.16L1375.45 717.599C1375.53 717.599 1375.56 717.629 1375.56 717.687C1375.56 717.746 1375.53 717.775 1375.45 717.775C1374.98 717.775 1374.64 717.937 1374.42 718.259C1374.21 718.582 1374.11 719.132 1374.11 719.909V721.823C1374.11 721.985 1374.16 722.073 1374.27 722.087C1375.01 722.205 1375.76 722.263 1376.51 722.263C1377.3 722.263 1378.09 722.205 1378.89 722.087C1378.96 722.073 1379.01 722.043 1379.04 721.999C1379.07 721.955 1379.08 721.897 1379.08 721.823V719.909C1379.08 719.132 1378.97 718.582 1378.75 718.259C1378.55 717.937 1378.21 717.775 1377.74 717.775C1377.67 717.775 1377.63 717.746 1377.63 717.687C1377.63 717.629 1377.67 717.599 1377.74 717.599L1379.04 717.621H1381.66L1383.02 717.599C1383.09 717.599 1383.13 717.629 1383.13 717.687C1383.13 717.746 1383.09 717.775 1383.02 717.775C1382.54 717.775 1382.18 717.937 1381.94 718.259C1381.72 718.582 1381.61 719.132 1381.61 719.909V725.365C1381.61 726.143 1381.72 726.693 1381.94 727.015C1382.18 727.338 1382.54 727.499 1383.02 727.499ZM1397.42 727.499C1397.5 727.499 1397.53 727.529 1397.53 727.587C1397.53 727.646 1397.5 727.675 1397.42 727.675C1397.2 727.661 1396.75 727.653 1396.06 727.653H1393.44C1392.75 727.653 1392.3 727.661 1392.08 727.675C1392 727.675 1391.97 727.646 1391.97 727.587C1391.97 727.529 1392 727.499 1392.08 727.499C1392.56 727.499 1392.91 727.338 1393.13 727.015C1393.37 726.693 1393.48 726.143 1393.48 725.365V720.063L1388.23 725.343V725.365C1388.23 726.143 1388.34 726.693 1388.56 727.015C1388.79 727.338 1389.15 727.499 1389.63 727.499C1389.71 727.499 1389.74 727.529 1389.74 727.587C1389.74 727.646 1389.71 727.675 1389.63 727.675C1389.4 727.661 1388.95 727.653 1388.27 727.653H1385.65C1384.96 727.653 1384.5 727.661 1384.27 727.675C1384.19 727.675 1384.16 727.646 1384.16 727.587C1384.16 727.529 1384.19 727.499 1384.27 727.499C1384.75 727.499 1385.11 727.338 1385.34 727.015C1385.58 726.693 1385.7 726.143 1385.7 725.365V719.931C1385.7 719.154 1385.58 718.604 1385.34 718.281C1385.11 717.944 1384.75 717.775 1384.27 717.775C1384.19 717.775 1384.16 717.746 1384.16 717.687C1384.16 717.629 1384.19 717.599 1384.27 717.599C1384.74 717.629 1385.2 717.643 1385.65 717.643H1388.27C1388.71 717.643 1389.17 717.629 1389.63 717.599C1389.71 717.599 1389.74 717.629 1389.74 717.687C1389.74 717.746 1389.71 717.775 1389.63 717.775C1389.15 717.775 1388.79 717.944 1388.56 718.281C1388.34 718.604 1388.23 719.154 1388.23 719.931V725.057L1393.48 719.777C1393.47 719.044 1393.35 718.531 1393.11 718.237C1392.89 717.929 1392.55 717.775 1392.08 717.775C1392 717.775 1391.97 717.746 1391.97 717.687C1391.97 717.629 1392 717.599 1392.08 717.599C1392.52 717.629 1392.97 717.643 1393.44 717.643H1396.06C1396.53 717.643 1396.98 717.629 1397.42 717.599C1397.5 717.599 1397.53 717.629 1397.53 717.687C1397.53 717.746 1397.5 717.775 1397.42 717.775C1396.94 717.775 1396.58 717.944 1396.34 718.281C1396.12 718.604 1396.01 719.154 1396.01 719.931V725.365C1396.01 726.143 1396.12 726.693 1396.34 727.015C1396.58 727.338 1396.94 727.499 1397.42 727.499ZM1411 727.499C1411.08 727.499 1411.11 727.529 1411.11 727.587C1411.11 727.646 1411.08 727.675 1411 727.675C1410.78 727.661 1410.33 727.653 1409.64 727.653H1407.02C1406.33 727.653 1405.88 727.661 1405.66 727.675C1405.58 727.675 1405.55 727.646 1405.55 727.587C1405.55 727.529 1405.58 727.499 1405.66 727.499C1406.14 727.499 1406.49 727.338 1406.71 727.015C1406.95 726.693 1407.06 726.143 1407.06 725.365V722.549C1406.6 723.033 1406.03 723.407 1405.37 723.671C1404.73 723.935 1404.04 724.067 1403.32 724.067C1402.25 724.067 1401.37 723.803 1400.68 723.275C1400 722.733 1399.65 721.853 1399.65 720.635V719.909C1399.65 719.132 1399.53 718.582 1399.3 718.259C1399.08 717.937 1398.73 717.775 1398.24 717.775C1398.17 717.775 1398.13 717.746 1398.13 717.687C1398.13 717.629 1398.17 717.599 1398.24 717.599L1399.61 717.621H1402.22L1403.59 717.599C1403.66 717.599 1403.7 717.629 1403.7 717.687C1403.7 717.746 1403.66 717.775 1403.59 717.775C1403.1 717.775 1402.75 717.937 1402.51 718.259C1402.29 718.582 1402.18 719.132 1402.18 719.909V720.921C1402.18 721.845 1402.39 722.513 1402.82 722.923C1403.24 723.319 1403.76 723.517 1404.36 723.517C1404.83 723.517 1405.29 723.407 1405.74 723.187C1406.21 722.967 1406.65 722.637 1407.06 722.197V719.909C1407.06 719.132 1406.95 718.582 1406.71 718.259C1406.49 717.937 1406.14 717.775 1405.66 717.775C1405.58 717.775 1405.55 717.746 1405.55 717.687C1405.55 717.629 1405.58 717.599 1405.66 717.599L1407.02 717.621H1409.64L1411 717.599C1411.08 717.599 1411.11 717.629 1411.11 717.687C1411.11 717.746 1411.08 717.775 1411 717.775C1410.52 717.775 1410.16 717.937 1409.92 718.259C1409.7 718.582 1409.59 719.132 1409.59 719.909V725.365C1409.59 726.143 1409.7 726.693 1409.92 727.015C1410.16 727.338 1410.52 727.499 1411 727.499ZM1423.35 723.891C1423.35 723.818 1423.37 723.781 1423.41 723.781C1423.46 723.781 1423.48 723.818 1423.48 723.891C1423.48 725.006 1423.24 725.959 1422.75 726.751C1422.29 727.543 1421.67 727.939 1420.91 727.939C1420.35 727.939 1419.88 727.756 1419.5 727.389C1419.12 727.008 1418.9 726.443 1418.86 725.695C1418.51 726.429 1418.04 726.993 1417.45 727.389C1416.88 727.785 1416.25 727.983 1415.56 727.983C1414.4 727.983 1413.54 727.661 1412.99 727.015C1412.43 726.355 1412.15 725.593 1412.15 724.727C1412.15 723.877 1412.53 723.195 1413.29 722.681C1414.07 722.168 1415.04 721.911 1416.2 721.911C1416.59 721.911 1417.03 721.948 1417.52 722.021C1418.02 722.095 1418.46 722.19 1418.86 722.307V721.339C1418.86 719.081 1417.88 717.951 1415.91 717.951C1415.11 717.951 1414.42 718.215 1413.84 718.743C1413.29 719.271 1413.01 720.063 1413.01 721.119C1413.01 721.178 1412.99 721.222 1412.96 721.251C1412.94 721.281 1412.91 721.295 1412.88 721.295C1412.82 721.295 1412.79 721.237 1412.79 721.119C1412.79 720.298 1412.99 719.601 1413.4 719.029C1413.82 718.443 1414.34 718.003 1414.99 717.709C1415.63 717.416 1416.32 717.269 1417.03 717.269C1419.94 717.269 1421.39 718.626 1421.39 721.339V724.947C1421.39 725.915 1421.64 726.399 1422.14 726.399C1422.62 726.399 1422.94 726.187 1423.08 725.761C1423.23 725.321 1423.32 724.698 1423.35 723.891ZM1416.7 726.729C1418.14 726.729 1418.86 725.857 1418.86 724.111V723.979C1418.7 723.451 1418.39 723.033 1417.94 722.725C1417.48 722.403 1416.98 722.241 1416.44 722.241C1414.99 722.241 1414.26 722.799 1414.26 723.913C1414.26 724.661 1414.48 725.321 1414.9 725.893C1415.33 726.451 1415.93 726.729 1416.7 726.729ZM1433.64 721.427C1433.65 721.486 1433.64 721.515 1433.59 721.515C1433.55 721.515 1433.52 721.486 1433.5 721.427C1432.96 719.389 1432.36 718.252 1431.7 718.017C1431.57 717.915 1431.05 717.863 1430.16 717.863C1430.07 717.863 1430 717.915 1429.94 718.017C1429.88 718.105 1429.85 718.223 1429.85 718.369V725.365C1429.85 726.143 1429.96 726.693 1430.18 727.015C1430.42 727.338 1430.78 727.499 1431.26 727.499C1431.33 727.499 1431.37 727.529 1431.37 727.587C1431.37 727.646 1431.33 727.675 1431.26 727.675C1431.04 727.661 1430.59 727.653 1429.9 727.653H1427.28C1426.59 727.653 1426.13 727.661 1425.91 727.675C1425.84 727.675 1425.8 727.646 1425.8 727.587C1425.8 727.529 1425.84 727.499 1425.91 727.499C1426.4 727.499 1426.75 727.338 1426.97 727.015C1427.2 726.693 1427.32 726.143 1427.32 725.365V718.369C1427.32 718.223 1427.29 718.105 1427.23 718.017C1427.18 717.915 1427.1 717.863 1427.01 717.863C1426.12 717.863 1425.61 717.915 1425.47 718.017C1424.81 718.252 1424.21 719.389 1423.67 721.427C1423.66 721.486 1423.63 721.515 1423.58 721.515C1423.54 721.515 1423.52 721.486 1423.54 721.427C1423.71 720.122 1423.8 718.927 1423.8 717.841C1423.8 717.607 1423.9 717.489 1424.09 717.489C1424.18 717.489 1424.43 717.519 1424.84 717.577C1425.26 717.636 1426.09 717.665 1427.32 717.665H1429.85C1431.04 717.665 1431.85 717.636 1432.29 717.577C1432.73 717.519 1433.01 717.489 1433.11 717.489C1433.28 717.489 1433.37 717.607 1433.37 717.841C1433.37 718.927 1433.46 720.122 1433.64 721.427ZM1440.5 721.911C1443.5 721.867 1445.01 722.784 1445.01 724.661C1445.01 725.629 1444.65 726.37 1443.95 726.883C1443.25 727.397 1442.2 727.653 1440.8 727.653H1438.76H1436.18C1435.49 727.653 1435.03 727.661 1434.8 727.675C1434.72 727.675 1434.69 727.646 1434.69 727.587C1434.69 727.529 1434.72 727.499 1434.8 727.499C1435.28 727.499 1435.64 727.338 1435.88 727.015C1436.11 726.693 1436.23 726.143 1436.23 725.365V719.909C1436.23 719.132 1436.11 718.582 1435.88 718.259C1435.64 717.937 1435.28 717.775 1434.8 717.775C1434.72 717.775 1434.69 717.746 1434.69 717.687C1434.69 717.629 1434.72 717.599 1434.8 717.599L1436.18 717.621H1438.8L1440.17 717.599C1440.24 717.599 1440.28 717.629 1440.28 717.687C1440.28 717.746 1440.24 717.775 1440.17 717.775C1439.68 717.775 1439.32 717.937 1439.09 718.259C1438.87 718.582 1438.76 719.132 1438.76 719.909V721.691C1438.76 721.853 1438.82 721.933 1438.96 721.933L1440.5 721.911ZM1440.14 727.477C1440.85 727.463 1441.39 727.206 1441.77 726.707C1442.17 726.209 1442.37 725.541 1442.37 724.705C1442.37 723.884 1442.17 723.246 1441.77 722.791C1441.38 722.322 1440.8 722.095 1440.06 722.109L1438.96 722.131C1438.82 722.131 1438.76 722.212 1438.76 722.373V726.905C1438.76 727.14 1438.79 727.301 1438.85 727.389C1438.9 727.463 1439.02 727.499 1439.2 727.499L1440.14 727.477ZM1450.06 723.627C1450.02 722.762 1450.13 722.043 1450.39 721.471C1450.67 720.899 1451.1 720.261 1451.67 719.557C1452.17 718.927 1452.53 718.377 1452.77 717.907C1453.02 717.438 1453.14 716.873 1453.14 716.213C1453.14 715.084 1452.85 714.219 1452.26 713.617C1451.68 713.016 1450.9 712.715 1449.93 712.715C1447.73 712.715 1446.43 713.742 1446.04 715.795C1446.02 715.869 1445.99 715.927 1445.95 715.971C1445.92 716.015 1445.89 716.037 1445.86 716.037C1445.83 716.037 1445.8 716.015 1445.77 715.971C1445.76 715.927 1445.76 715.876 1445.77 715.817C1445.95 715.069 1446.3 714.402 1446.83 713.815C1447.36 713.214 1448 712.752 1448.76 712.429C1449.53 712.092 1450.33 711.923 1451.18 711.923C1452.11 711.923 1452.95 712.092 1453.71 712.429C1454.48 712.752 1455.08 713.229 1455.52 713.859C1455.97 714.475 1456.2 715.201 1456.2 716.037C1456.2 716.683 1456.06 717.233 1455.78 717.687C1455.52 718.142 1455.19 718.523 1454.79 718.831C1454.4 719.125 1453.87 719.462 1453.21 719.843C1452.55 720.225 1452.02 720.562 1451.62 720.855C1451.24 721.149 1450.91 721.523 1450.63 721.977C1450.37 722.432 1450.24 722.975 1450.24 723.605C1450.24 723.693 1450.21 723.745 1450.15 723.759C1450.09 723.759 1450.06 723.715 1450.06 723.627ZM1449.75 727.895C1449.33 727.895 1448.98 727.807 1448.72 727.631C1448.47 727.455 1448.35 727.235 1448.35 726.971C1448.35 726.619 1448.54 726.319 1448.92 726.069C1449.3 725.805 1449.78 725.673 1450.35 725.673C1450.77 725.673 1451.11 725.769 1451.36 725.959C1451.62 726.135 1451.76 726.363 1451.76 726.641C1451.76 726.964 1451.57 727.257 1451.18 727.521C1450.8 727.771 1450.33 727.895 1449.75 727.895Z" fill="#F5CDCB"/>
<path d="M1262.95 745.309C1262.95 745.485 1262.73 745.72 1262.29 746.013C1258.68 748.448 1256.25 749.665 1254.98 749.665C1254.16 749.665 1253.75 749.196 1253.75 748.257C1253.75 747.729 1253.85 747.201 1254.06 746.673C1254.35 745.94 1254.5 745.559 1254.5 745.529C1254.5 745.412 1254.46 745.353 1254.37 745.353C1254.34 745.353 1254.27 745.383 1254.15 745.441C1253.5 746.087 1252.56 746.864 1251.33 747.773C1249.75 748.947 1248.65 749.533 1248.03 749.533C1247.33 749.533 1246.98 749.181 1246.98 748.477C1246.98 748.067 1247.49 746.937 1248.52 745.089C1249.54 743.212 1250.06 742.127 1250.06 741.833C1250.06 741.511 1249.79 741.349 1249.26 741.349C1249.15 741.349 1249.09 741.173 1249.09 740.821C1249.35 740.733 1249.63 740.689 1249.92 740.689C1250.95 740.689 1251.46 740.983 1251.46 741.569C1251.46 742.215 1251.01 743.3 1250.1 744.825C1249.19 746.351 1248.74 747.304 1248.74 747.685C1248.74 747.92 1248.84 748.037 1249.04 748.037C1249.51 748.037 1250.66 747.26 1252.48 745.705C1254.32 744.151 1255.75 742.743 1256.74 741.481C1257.18 741.041 1257.51 740.821 1257.71 740.821C1258.09 740.821 1258.28 741.012 1258.28 741.393C1258.28 741.599 1258.18 741.863 1257.98 742.185C1256.22 744.825 1255.34 746.541 1255.34 747.333C1255.34 748.067 1255.67 748.433 1256.35 748.433C1257.37 748.433 1259.24 747.509 1261.94 745.661C1262.08 745.544 1262.29 745.412 1262.55 745.265C1262.64 745.177 1262.73 745.133 1262.82 745.133C1262.9 745.133 1262.95 745.192 1262.95 745.309ZM1275.94 749.665C1275.12 749.665 1274.71 749.196 1274.71 748.257C1274.71 747.7 1274.81 747.172 1275.01 746.673C1275.31 745.969 1275.45 745.588 1275.45 745.529C1275.45 745.412 1275.41 745.353 1275.32 745.353C1275.35 745.353 1275.28 745.383 1275.1 745.441C1274.78 745.764 1274.38 746.116 1273.91 746.497C1273.45 746.879 1272.9 747.304 1272.29 747.773C1270.73 748.947 1269.63 749.533 1268.99 749.533C1268.28 749.533 1267.93 749.181 1267.93 748.477C1267.93 748.272 1268.05 747.935 1268.28 747.465C1268.52 746.996 1268.88 746.292 1269.38 745.353C1269.41 745.353 1269.34 745.383 1269.16 745.441C1268.84 745.764 1268.44 746.116 1267.97 746.497C1267.51 746.879 1266.96 747.304 1266.35 747.773C1264.79 748.947 1263.69 749.533 1263.05 749.533C1262.34 749.533 1261.99 749.181 1261.99 748.477C1261.99 748.096 1262.5 746.967 1263.53 745.089C1264.56 743.183 1265.07 742.097 1265.07 741.833C1265.07 741.511 1264.81 741.349 1264.28 741.349C1264.16 741.349 1264.1 741.173 1264.1 740.821C1264.37 740.733 1264.65 740.689 1264.94 740.689C1265.97 740.689 1266.48 740.983 1266.48 741.569C1266.48 742.215 1266.02 743.3 1265.11 744.825C1264.21 746.351 1263.75 747.304 1263.75 747.685C1263.75 747.92 1263.85 748.037 1264.06 748.037C1264.53 748.037 1265.67 747.26 1267.49 745.705C1268.19 745.119 1268.87 744.459 1269.51 743.725C1270.19 742.963 1270.73 742.215 1271.14 741.481C1271.58 741.041 1271.91 740.821 1272.11 740.821C1272.49 740.821 1272.68 741.012 1272.68 741.393C1272.68 741.628 1272.58 741.892 1272.37 742.185C1272.32 742.332 1272.14 742.684 1271.85 743.241C1271.58 743.799 1271.29 744.385 1270.97 745.001C1270.64 745.617 1270.35 746.204 1270.09 746.761C1269.82 747.289 1269.69 747.597 1269.69 747.685C1269.69 747.92 1269.79 748.037 1270 748.037C1270.47 748.037 1271.61 747.26 1273.43 745.705C1275.25 744.209 1276.67 742.801 1277.7 741.481C1278.14 741.041 1278.46 740.821 1278.67 740.821C1279.05 740.821 1279.24 741.012 1279.24 741.393C1279.24 741.628 1279.14 741.892 1278.93 742.185C1277.17 744.825 1276.29 746.541 1276.29 747.333C1276.29 748.067 1276.63 748.433 1277.3 748.433C1277.8 748.433 1278.34 748.331 1278.93 748.125C1279.52 747.891 1280.06 747.553 1280.56 747.113C1280.68 746.996 1280.88 746.864 1281.17 746.717C1281.26 746.629 1281.35 746.585 1281.44 746.585C1281.53 746.585 1281.57 746.644 1281.57 746.761C1281.57 746.937 1281.35 747.172 1280.91 747.465C1279.97 748.199 1279.06 748.741 1278.18 749.093C1277.33 749.475 1276.58 749.665 1275.94 749.665ZM1279.37 748.081L1279.72 747.729L1279.68 748.037C1279.68 749.24 1279.55 750.457 1279.28 751.689C1279.02 752.951 1278.53 753.963 1277.83 754.725C1277.21 755.253 1276.5 755.444 1275.67 755.297C1274.85 755.151 1274.02 754.755 1273.17 754.109C1273.14 754.051 1273.11 753.992 1273.08 753.933C1273.05 753.904 1273.03 753.86 1273.03 753.801C1272.98 753.684 1272.95 753.581 1272.95 753.493C1272.98 753.435 1272.99 753.376 1272.99 753.317C1273.11 753.288 1273.23 753.347 1273.34 753.493C1273.64 753.757 1273.96 753.963 1274.31 754.109C1274.66 754.256 1275.03 754.329 1275.41 754.329C1275.79 754.359 1276.14 754.3 1276.47 754.153C1276.82 754.036 1277.13 753.831 1277.39 753.537C1277.83 753.009 1278.15 752.525 1278.36 752.085C1278.56 751.645 1278.73 751.205 1278.84 750.765C1278.96 750.325 1279.03 749.885 1279.06 749.445C1279.12 749.035 1279.21 748.595 1279.33 748.125L1279.37 748.081ZM1297.24 745.309C1297.24 745.485 1297.02 745.72 1296.58 746.013C1292.97 748.448 1290.53 749.665 1289.27 749.665C1288.45 749.665 1288.04 749.196 1288.04 748.257C1288.04 747.729 1288.14 747.201 1288.35 746.673C1288.64 745.94 1288.79 745.559 1288.79 745.529C1288.79 745.412 1288.75 745.353 1288.66 745.353C1288.63 745.353 1288.55 745.383 1288.44 745.441C1287.79 746.087 1286.85 746.864 1285.62 747.773C1284.04 748.947 1282.94 749.533 1282.32 749.533C1281.62 749.533 1281.27 749.181 1281.27 748.477C1281.27 748.067 1281.78 746.937 1282.81 745.089C1283.83 743.212 1284.35 742.127 1284.35 741.833C1284.35 741.511 1284.08 741.349 1283.55 741.349C1283.44 741.349 1283.38 741.173 1283.38 740.821C1283.64 740.733 1283.92 740.689 1284.21 740.689C1285.24 740.689 1285.75 740.983 1285.75 741.569C1285.75 742.215 1285.3 743.3 1284.39 744.825C1283.48 746.351 1283.03 747.304 1283.03 747.685C1283.03 747.92 1283.13 748.037 1283.33 748.037C1283.8 748.037 1284.95 747.26 1286.77 745.705C1288.61 744.151 1290.04 742.743 1291.03 741.481C1291.47 741.041 1291.8 740.821 1292 740.821C1292.38 740.821 1292.57 741.012 1292.57 741.393C1292.57 741.599 1292.47 741.863 1292.27 742.185C1290.51 744.825 1289.63 746.541 1289.63 747.333C1289.63 748.067 1289.96 748.433 1290.64 748.433C1291.66 748.433 1293.53 747.509 1296.23 745.661C1296.37 745.544 1296.58 745.412 1296.84 745.265C1296.93 745.177 1297.02 745.133 1297.11 745.133C1297.19 745.133 1297.24 745.192 1297.24 745.309ZM1308.86 747.729C1308.77 747.847 1308.65 748.008 1308.5 748.213C1308.36 748.389 1308.21 748.565 1308.06 748.741C1307.95 748.947 1307.83 749.108 1307.71 749.225C1307.59 749.372 1307.51 749.445 1307.45 749.445C1307.07 749.445 1306.88 749.24 1306.88 748.829C1306.88 748.683 1306.98 748.389 1307.18 747.949C1307.54 747.451 1307.89 746.967 1308.24 746.497C1308.59 746.028 1308.93 745.544 1309.25 745.045C1310.28 743.579 1310.79 742.537 1310.79 741.921C1310.79 741.657 1310.7 741.525 1310.53 741.525C1310.41 741.525 1310.23 741.584 1310 741.701C1309.24 742.259 1308.33 742.933 1307.27 743.725C1306.24 744.517 1305.03 745.427 1303.62 746.453H1303.31C1303.11 746.453 1303 746.424 1303 746.365C1303 746.307 1303.16 746.16 1303.49 745.925C1304.51 745.104 1305.58 744.268 1306.7 743.417C1307.84 742.537 1309.05 741.628 1310.31 740.689C1310.63 740.396 1311.08 740.249 1311.67 740.249C1312.26 740.249 1312.55 740.513 1312.55 741.041C1312.55 741.628 1312.13 742.567 1311.28 743.857C1311.22 743.975 1311.14 744.092 1311.06 744.209C1310.97 744.297 1310.89 744.4 1310.84 744.517C1311.07 744.517 1311.35 744.517 1311.67 744.517C1311.99 744.517 1312.36 744.503 1312.77 744.473C1313.48 744.415 1314.08 744.415 1314.58 744.473C1314.69 744.268 1314.81 744.063 1314.93 743.857C1315.04 743.652 1315.18 743.432 1315.32 743.197C1315.65 742.699 1315.95 742.244 1316.25 741.833C1316.57 741.423 1316.89 741.056 1317.22 740.733C1317.42 740.469 1317.74 740.337 1318.18 740.337C1318.42 740.396 1318.54 740.469 1318.54 740.557C1318.54 740.557 1318.02 741.408 1317 743.109C1315.97 744.811 1315.46 746.043 1315.46 746.805C1315.46 747.715 1315.85 748.169 1316.64 748.169C1317.64 748.169 1319.09 747.304 1321 745.573C1321.09 745.485 1321.18 745.441 1321.26 745.441C1321.35 745.441 1321.4 745.5 1321.4 745.617C1321.4 745.793 1321.1 746.087 1320.52 746.497C1319.58 747.319 1318.73 747.949 1317.96 748.389C1317.2 748.8 1316.48 749.005 1315.81 749.005C1314.49 749.005 1313.83 748.448 1313.83 747.333C1313.83 746.6 1313.99 745.852 1314.31 745.089C1313.96 745.06 1313.53 745.045 1313.04 745.045C1312.57 745.045 1312.04 745.075 1311.45 745.133C1311.04 745.163 1310.78 745.177 1310.66 745.177C1310.54 745.177 1310.45 745.177 1310.4 745.177C1309.98 745.764 1309.62 746.321 1309.3 746.849C1309 747.377 1308.86 747.671 1308.86 747.729ZM1335.42 745.309C1335.42 745.661 1334.51 746.336 1332.7 747.333C1330.79 748.389 1329.43 748.917 1328.6 748.917C1327.08 748.917 1326.32 748.111 1326.32 746.497C1326.32 746.057 1326.55 745.559 1327.02 745.001C1327.02 744.972 1327.01 744.957 1326.98 744.957C1327.01 744.957 1326.21 745.573 1324.6 746.805C1322.99 748.008 1321.83 748.609 1321.12 748.609C1320.45 748.609 1320.11 748.331 1320.11 747.773C1320.11 746.424 1321.24 744.855 1323.5 743.065C1325.64 741.335 1327.31 740.469 1328.52 740.469C1328.69 740.499 1328.88 740.601 1329.09 740.777C1329.32 740.924 1329.44 741.041 1329.44 741.129C1329.44 741.159 1329.43 741.188 1329.4 741.217C1327.75 741.217 1325.66 742.493 1323.1 745.045C1322.28 745.867 1321.87 746.556 1321.87 747.113C1321.87 747.319 1321.97 747.421 1322.18 747.421C1322.83 747.421 1324.06 746.673 1325.88 745.177C1327.34 743.945 1328.38 742.963 1329 742.229C1329.29 741.877 1329.5 741.701 1329.62 741.701C1329.91 741.701 1330.06 741.907 1330.06 742.317C1330.06 742.464 1329.87 742.801 1329.48 743.329C1328.22 745.06 1327.59 746.16 1327.59 746.629C1327.59 747.451 1328.05 747.861 1328.96 747.861C1330.45 747.861 1332.48 746.996 1335.03 745.265C1335.12 745.177 1335.2 745.133 1335.29 745.133C1335.38 745.133 1335.42 745.192 1335.42 745.309ZM1344.91 745.309C1344.91 745.427 1344.69 745.661 1344.25 746.013C1343.07 746.776 1341.91 747.539 1340.77 748.301C1339.1 749.299 1337.73 749.797 1336.68 749.797C1336.06 749.797 1335.52 749.577 1335.05 749.137C1334.58 748.697 1334.35 748.199 1334.35 747.641C1334.35 745.705 1335.29 743.931 1337.16 742.317C1338.83 740.88 1340.39 740.161 1341.83 740.161C1342.74 740.161 1343.19 740.528 1343.19 741.261C1343.19 741.672 1342.59 742.479 1341.39 743.681C1341.27 743.799 1341.14 743.857 1340.99 743.857C1340.76 743.857 1340.64 743.725 1340.64 743.461C1340.64 743.344 1340.68 743.256 1340.77 743.197C1340.86 743.109 1341.03 742.787 1341.3 742.229C1341.56 741.643 1341.69 741.203 1341.69 740.909C1341.69 740.821 1341.59 740.777 1341.39 740.777C1340.65 740.777 1339.58 741.379 1338.17 742.581C1336.47 744.019 1335.62 745.5 1335.62 747.025C1335.62 748.14 1336.11 748.697 1337.07 748.697C1338.57 748.697 1340.84 747.685 1343.89 745.661C1344.04 745.544 1344.25 745.412 1344.51 745.265C1344.6 745.177 1344.69 745.133 1344.77 745.133C1344.86 745.133 1344.91 745.192 1344.91 745.309ZM1364.6 745.309C1364.6 745.456 1364.38 745.691 1363.94 746.013L1357.87 750.501C1357.81 752.76 1356.76 755.767 1354.7 759.521C1352.8 763.041 1350.61 766.151 1348.15 768.849C1345.54 771.695 1343.48 773.103 1341.99 773.073C1341.49 773.073 1341.06 772.897 1340.71 772.545C1340.36 772.193 1340.18 771.753 1340.18 771.225C1340.18 769.055 1341.5 766.195 1344.14 762.645C1346.17 760.005 1348.68 757.263 1351.67 754.417C1354.31 751.953 1355.8 750.721 1356.16 750.721C1356.16 750.545 1356.11 750.384 1356.02 750.237C1355.61 749.504 1355.04 749.137 1354.31 749.137C1354.01 749.137 1353.69 749.196 1353.34 749.313C1352.64 749.548 1352.21 749.665 1352.06 749.665C1351.98 749.665 1351.92 749.607 1351.89 749.489C1351.89 749.196 1352.18 748.932 1352.77 748.697C1353.71 748.287 1354.84 747.509 1356.16 746.365C1357.71 744.987 1358.49 743.872 1358.49 743.021C1358.49 742.523 1358.25 742.273 1357.78 742.273C1357.37 742.273 1356.48 742.743 1355.1 743.681C1354.01 744.473 1352.93 745.265 1351.84 746.057C1351.76 746.145 1351.67 746.189 1351.58 746.189C1351.52 746.189 1351.49 746.028 1351.49 745.705C1351.58 745.647 1352.11 745.251 1353.08 744.517C1354.04 743.755 1355.03 742.977 1356.02 742.185C1357.05 741.364 1357.97 740.953 1358.8 740.953C1359.85 740.953 1360.38 741.511 1360.38 742.625C1360.38 743.975 1358.65 745.779 1355.19 748.037C1354.98 748.243 1354.88 748.389 1354.88 748.477C1354.88 748.595 1354.98 748.653 1355.19 748.653C1356.48 748.653 1357.33 749.035 1357.74 749.797C1358.41 749.416 1359.48 748.639 1360.95 747.465C1362.3 746.409 1363.39 745.676 1364.21 745.265C1364.3 745.177 1364.38 745.133 1364.47 745.133C1364.56 745.133 1364.6 745.192 1364.6 745.309ZM1356.38 751.645C1356.38 751.528 1356.36 751.469 1356.33 751.469C1355.69 751.469 1354.15 752.701 1351.71 755.165C1349.13 757.747 1346.9 760.401 1345.02 763.129C1342.76 766.444 1341.64 769.025 1341.64 770.873C1341.64 771.548 1341.86 771.885 1342.3 771.885C1343.18 771.885 1344.79 770.609 1347.14 768.057C1349.48 765.535 1351.54 762.807 1353.3 759.873C1355.35 756.471 1356.38 753.728 1356.38 751.645ZM1377.69 745.309C1377.57 745.691 1376.56 746.453 1374.66 747.597C1372.75 748.712 1371.12 749.709 1369.77 750.589C1365.58 758.803 1362.97 763.76 1361.94 765.461C1359.04 770.272 1356.62 772.677 1354.68 772.677C1353.8 772.677 1353.36 772.105 1353.36 770.961C1353.36 764.215 1358.45 757.409 1368.63 750.545C1369.3 749.225 1370.53 746.717 1372.32 743.021C1372.32 742.992 1372.29 742.977 1372.24 742.977C1372.18 742.977 1372.07 743.051 1371.93 743.197C1371.34 743.755 1370.56 744.473 1369.6 745.353C1367.51 747.289 1365.81 748.257 1364.49 748.257C1363.88 748.257 1363.57 747.891 1363.57 747.157C1363.57 745.837 1364.52 744.312 1366.43 742.581C1368.48 740.704 1370.49 739.765 1372.46 739.765C1373.01 739.765 1373.48 739.883 1373.86 740.117L1374.79 738.841C1374.99 738.577 1375.2 738.445 1375.4 738.445C1375.79 738.445 1375.98 738.651 1375.98 739.061C1375.98 739.267 1375.9 739.472 1375.76 739.677C1374.38 741.731 1372.57 744.987 1370.34 749.445C1371.84 748.507 1373.2 747.715 1374.44 747.069C1375.9 746.219 1376.86 745.617 1377.3 745.265C1377.38 745.177 1377.47 745.133 1377.56 745.133C1377.65 745.133 1377.69 745.192 1377.69 745.309ZM1373.56 740.645C1373.56 740.528 1373.42 740.469 1373.16 740.469C1371.58 740.469 1369.85 741.232 1367.97 742.757C1366.09 744.253 1365.15 745.588 1365.15 746.761C1365.15 747.113 1365.31 747.289 1365.64 747.289C1366.84 747.289 1369.41 745.192 1373.34 740.997C1373.48 740.792 1373.56 740.675 1373.56 740.645ZM1368.01 751.821C1359.07 758.157 1354.59 764.42 1354.59 770.609C1354.59 771.372 1354.84 771.753 1355.34 771.753C1357.22 771.753 1361.44 765.109 1368.01 751.821ZM1388.07 745.309C1388.07 745.515 1387.47 745.999 1386.26 746.761C1383.3 748.639 1381.17 749.577 1379.88 749.577C1377.98 749.577 1377.02 748.463 1377.02 746.233C1377.02 744.591 1377.82 742.948 1379.4 741.305C1381.01 739.633 1382.54 738.797 1383.98 738.797C1384.42 738.797 1384.64 739.003 1384.64 739.413C1384.64 740.411 1383.77 741.819 1382.04 743.637C1380.66 745.075 1379.53 746.057 1378.65 746.585C1378.74 747.876 1379.36 748.521 1380.5 748.521C1381.58 748.521 1383.4 747.788 1385.96 746.321C1386.16 746.204 1386.73 745.852 1387.67 745.265C1387.76 745.177 1387.85 745.133 1387.94 745.133C1388.02 745.133 1388.07 745.192 1388.07 745.309ZM1383.27 740.249C1383.27 739.897 1383.17 739.721 1382.96 739.721C1382.23 739.721 1381.34 740.455 1380.28 741.921C1379.22 743.388 1378.68 744.708 1378.65 745.881C1379.21 745.705 1380.09 744.943 1381.29 743.593C1382.61 742.127 1383.27 741.012 1383.27 740.249ZM1397.54 745.309C1397.54 745.427 1397.32 745.661 1396.88 746.013C1395.71 746.776 1394.55 747.539 1393.41 748.301C1391.74 749.299 1390.37 749.797 1389.32 749.797C1388.7 749.797 1388.16 749.577 1387.69 749.137C1387.22 748.697 1386.98 748.199 1386.98 747.641C1386.98 745.705 1387.92 743.931 1389.8 742.317C1391.47 740.88 1393.03 740.161 1394.46 740.161C1395.37 740.161 1395.83 740.528 1395.83 741.261C1395.83 741.672 1395.23 742.479 1394.02 743.681C1393.91 743.799 1393.77 743.857 1393.63 743.857C1393.39 743.857 1393.28 743.725 1393.28 743.461C1393.28 743.344 1393.32 743.256 1393.41 743.197C1393.5 743.109 1393.67 742.787 1393.94 742.229C1394.2 741.643 1394.33 741.203 1394.33 740.909C1394.33 740.821 1394.23 740.777 1394.02 740.777C1393.29 740.777 1392.22 741.379 1390.81 742.581C1389.11 744.019 1388.26 745.5 1388.26 747.025C1388.26 748.14 1388.74 748.697 1389.71 748.697C1391.21 748.697 1393.48 747.685 1396.53 745.661C1396.68 745.544 1396.88 745.412 1397.15 745.265C1397.24 745.177 1397.32 745.133 1397.41 745.133C1397.5 745.133 1397.54 745.192 1397.54 745.309ZM1398.2 746.893C1398.2 747.685 1398.52 748.081 1399.16 748.081C1399.63 748.081 1400.1 747.949 1400.57 747.685C1401.04 747.421 1401.5 747.084 1401.94 746.673C1401.5 746.233 1401.28 745.691 1401.28 745.045C1401.28 744.341 1401.47 743.74 1401.85 743.241C1402.26 742.713 1402.71 742.449 1403.21 742.449C1403.71 742.449 1404 742.684 1404.09 743.153C1404.09 743.593 1404.02 744.077 1403.87 744.605C1403.73 745.104 1403.46 745.647 1403.08 746.233C1403.52 746.673 1404.14 746.893 1404.93 746.893C1405.9 746.893 1406.89 746.497 1407.92 745.705C1408.01 745.617 1408.08 745.573 1408.14 745.573C1408.23 745.573 1408.27 745.632 1408.27 745.749C1408.27 745.984 1408.11 746.204 1407.79 746.409C1407.47 746.615 1407.08 746.805 1406.64 746.981C1406.23 747.157 1405.81 747.304 1405.37 747.421C1404.93 747.509 1404.59 747.553 1404.36 747.553C1403.95 747.553 1403.62 747.509 1403.39 747.421C1403.15 747.304 1402.9 747.143 1402.64 746.937C1402.02 747.671 1401.32 748.243 1400.53 748.653C1399.74 749.064 1398.97 749.269 1398.24 749.269C1397.68 749.269 1397.27 749.049 1397.01 748.609C1396.74 748.14 1396.61 747.612 1396.61 747.025C1396.61 746.644 1396.77 746.028 1397.1 745.177C1397.45 744.327 1397.87 743.461 1398.37 742.581C1398.87 741.701 1399.41 740.939 1400 740.293C1400.62 739.619 1401.17 739.281 1401.67 739.281C1401.91 739.34 1402.02 739.413 1402.02 739.501C1402.02 739.531 1401.78 739.868 1401.28 740.513C1400.81 741.159 1400.32 741.907 1399.82 742.757C1399.33 743.608 1398.93 744.415 1398.64 745.177C1398.34 745.911 1398.2 746.483 1398.2 746.893ZM1403.61 743.329C1403.73 743.271 1403.73 743.227 1403.61 743.197C1403.52 743.139 1403.42 743.109 1403.3 743.109C1403.07 743.109 1402.83 743.271 1402.6 743.593C1402.39 743.916 1402.29 744.341 1402.29 744.869C1402.29 745.309 1402.39 745.676 1402.6 745.969C1402.95 745.529 1403.2 745.075 1403.34 744.605C1403.52 744.107 1403.61 743.711 1403.61 743.417V743.329ZM1414.04 741.789C1414.04 742.112 1413.86 742.42 1413.51 742.713C1413.16 743.007 1412.85 743.153 1412.59 743.153C1412.03 743.153 1411.72 742.86 1411.66 742.273C1411.66 741.863 1411.82 741.54 1412.15 741.305C1412.47 741.071 1412.78 740.953 1413.07 740.953C1413.72 740.953 1414.04 741.232 1414.04 741.789ZM1412.06 747.993C1412.06 748.316 1411.88 748.624 1411.53 748.917C1411.18 749.211 1410.87 749.357 1410.61 749.357C1410.05 749.357 1409.74 749.064 1409.68 748.477C1409.68 748.067 1409.84 747.744 1410.17 747.509C1410.49 747.275 1410.8 747.157 1411.09 747.157C1411.74 747.157 1412.06 747.436 1412.06 747.993Z" fill="#F5CDCB"/>
</svg>
