<svg xmlns="http://www.w3.org/2000/svg" width="112" height="89" fill="none" viewBox="0 0 112 89"><g clip-path="url(#a)"><path fill="#f5cdcb" d="M91.102 60.379c.199-.298.43-.58.591-.898 2.195-4.318 4.068-8.752 5.04-13.526.958-4.697.446-9.277-1.011-13.796a16 16 0 0 1-.457-1.643c-.144-.693.115-1.117.81-1.265 1.678-.361 3.2-.01 4.458 1.172.247.234.394.658.429 1.01.073.722.051 1.454.043 2.181 0 .42.196.644.597.682.662.062 1.325.14 1.989.142 5.092.027 10.188-.043 15.277.105 1.491.042 2.454-.382 3.49-1.391 1.511-1.478 3.254-2.726 4.886-4.09.334-.277.607-.628.912-.943-.701-1.483-1.471-2.958-2.103-4.488-.988-2.397-1.903-4.824-2.802-7.257-.197-.525-.397-.63-.94-.468a311 311 0 0 1-6.886 1.899 3.6 3.6 0 0 1-1.375.048l8.558-3.094c-.052-.404-.106-.787-.149-1.17l.27-.128.732 1.06c.699-.272 1.481-.524 2.221-.87 2.048-.973 4.151-1.862 6.079-3.033 1.097-.666 1.916-.53 2.962-.104 2.243.916 4.531 1.728 6.79 2.608.686.268 1.075.022 1.342-.584q.115-.323.3-.611c.124-.167.318-.282.479-.42.159.2.379.38.457.609.065.243.062.499-.007.741-.16.66.145.854.756.957 1.628.273 3.246.603 4.865.926.418.083.825.222 1.238.337l.006.216c-.381.053-.77.187-1.141.148-1.662-.177-3.318-.401-4.971-.61-.269-.035-.535-.085-.884-.14-.145.96-.226 1.888-.432 2.78-.808 3.5-1.586 7.01-2.532 10.475-.269.992.048 1.563.605 2.211 1.575 1.83 3.586 3.1 5.622 4.341 1.923 1.172 3.782 2.412 5.008 4.378.923 1.477 1.541 3.01 1.499 4.807-.019.798-.634.772-.974 1.083.341.63.71 1.22.979 1.852.12.279.097.655.032.966a2.8 2.8 0 0 1-.408.933c-.635.97-1.334 1.887-1.578 3.077-.13.636-.623 1.089-1.431 1.166-.732.072-1.446.366-2.154.601-.135.044-.237.257-.304.413-.178.42-.308.859-.495 1.273-.345.763-.821.93-1.535.467-.528-.342-.984-.795-1.545-1.259l-1.115 1.64c-.442.65-.846 1.362-1.855.917-.105-.047-.337.157-.503.258-.718.435-1.411.921-2.16 1.297-.497.25-1.083.306-1.546-.137-.463-.442-.342-.998-.114-1.468.476-.98 1.018-1.929 1.562-2.875.371-.647.623-1.298.388-2.216-.317.364-.587.629-.807.92-1.593 2.134-3.523 3.862-5.93 5.081-.874.443-1.769.427-2.661.435a1.4 1.4 0 0 1-.939-.314 1.38 1.38 0 0 1-.489-.854c-.14-.754-.297-1.543-.211-2.291.181-1.655.507-3.294.775-4.94l.326.04c-.092 1.07-.212 2.137-.27 3.207a62 62 0 0 0-.089 3.326c0 .275.095.541.269.755.179.194.496.263.752.387l.271-.562c.478-1.001.893-2.04 1.448-2.998.891-1.537 1.894-3.009 2.8-4.538.212-.354.436-1.07.288-1.196a3.24 3.24 0 0 0-1.606-.734c-.456-.06-1 .16-1.436.386a132 132 0 0 0-4.759 2.593c-.756.432-1.451.967-2.303 1.542 1.792.63 3.009 1.517 3.398 3.176l-.211.2c-.212-.24-.442-.466-.626-.725-.541-.76-1.184-1.392-2.075-1.728-.62-.234-1.156-.21-1.703.283a12.5 12.5 0 0 1-2.145 1.581c-.978.562-1.668.2-1.784-.92a12.2 12.2 0 0 1 .012-2.447c.465-4.718 1.995-9.14 3.954-13.431.945-2.072 1.933-4.124 2.899-6.186q.093-.232.161-.472l-.16-.134c-.912.734-1.895 1.405-2.718 2.23-1.904 1.905-3.728 3.888-5.587 5.838-.536.562-1.127 1.08-1.599 1.69a5.8 5.8 0 0 0-.852 1.6c-.198.554-.016.677.583.585 1.015-.156 2.031-.341 3.053-.404.372-.023.958.173 1.095.443.136.27-.015.876-.251 1.16-.563.678-1.227 1.278-1.89 1.865-.804.71-1.674 1.345-2.466 2.067-.54.491-.473.727.142 1.092a2.5 2.5 0 0 0 2.049.284 1.96 1.96 0 0 1 .97-.06c-.228.21-.423.534-.691.606-.577.153-1.218.326-1.781.219-.773-.147-1.593-.468-1.852-1.342s.471-1.331.997-1.796c.888-.787 1.863-1.476 2.766-2.246.473-.404.869-.896 1.299-1.348l-.106-.221c-.623.051-1.25.072-1.864.173-.161.026-.318.279-.412.461-.324.658-.62 1.33-.925 1.998l-.332-.117.578-1.977c-.034-.018-.074-.06-.106-.057-1.621.188-2.133-.361-1.629-1.899a5.1 5.1 0 0 1 1.026-1.74c1.254-1.417 2.582-2.771 3.879-4.152.168-.18.324-.37.608-.695-.407-.03-.659-.062-.909-.064-5.3-.028-10.6-.045-15.899-.083a14 14 0 0 1-1.915-.176c-.672-.098-1.066-.505-1.103-1.195-.041-.771-.01-1.551-.115-2.314-.05-.354-.266-.783-.547-.993-.925-.69-2.01-.815-3.143-.676-.616.077-.491.443-.385.845.518 1.957 1.117 3.898 1.514 5.878.87 4.341.28 8.603-.945 12.806-1.029 3.529-2.45 6.903-4.116 10.179a5.6 5.6 0 0 1-.838 1.237c-.472.515-1.058.46-1.439-.134a6.2 6.2 0 0 1-.657-1.42c-.846-2.63-1.05-5.347-1.072-8.087-.05-6.339.933-12.552 2.37-18.709.866-3.72 1.887-7.416 2.128-11.251.253-4.026-.33-7.898-2.259-11.502a9.6 9.6 0 0 0-.963-1.404c-.318-.4-.74-.402-1.05 0-.423.536-.884 1.073-1.147 1.686-1.375 3.197-2.66 6.433-4.041 9.628-1.46 3.376-1.74 6.885-1.494 10.5a17.7 17.7 0 0 1-.177 4.14c-.413 2.421-2.468 4.118-4.943 4.309-1.571.121-2.365-.655-2.283-2.228.03-.613.088-1.228.07-1.84a3.4 3.4 0 0 0-1.129-2.415 3.46 3.46 0 0 0-2.533-.883c-.663.033-1.103.394-1.278.969a20 20 0 0 0-.572 2.516c-.211 1.307-.687 2.45-1.83 3.23a1 1 0 0 0-.106.08c-1.77 1.19-2.969.686-3.291-1.4-.113-.719-.152-1.447-.262-2.167-.051-.343-.188-.673-.327-1.145-.24.268-.387.4-.498.558-1.763 2.483-3.046 5.156-3.596 8.179a1195 1195 0 0 1-3.35 17.24c-.497 2.483-1.205 4.928-2.728 7.015a8 8 0 0 1-1.951 1.877c-1.044.702-2.05.536-2.786-.478-.61-.85-1.096-1.78-1.446-2.762-1.075-3.014-1.374-6.168-1.424-9.337-.14-8.971 1.277-17.715 3.929-26.282q1.4-4.53 2.575-9.122c.255-.993.269-2.08.203-3.111-.106-1.592-1.098-2.161-2.58-1.551-1.812.745-3.028 2.18-4.115 3.718-2.022 2.864-3.092 6.115-3.852 9.493a50 50 0 0 1-1.336 4.936c-.603 1.793-1.115 2.055-3.266 2.06-3.717.008-7.434 0-11.15 0-1.675 0-3.351-.026-5.024.02-.367.01-.775.21-1.083.436-2.126 1.532-4.2 3.138-6.356 4.625-1.139.785-2.42 1.363-3.624 2.061a4.45 4.45 0 0 1-2.92.524c-.401-.058-.846-.524-1.058-.922-.226-.42-.275-.962-.28-1.452-.04-3.684-.106-7.368-.052-11.05.053-3.356.723-6.606 2.264-9.61 1.598-3.12 3.722-3.565 6.663-3.215.967.115 1.84 1.188 2.027 2.26.29 1.678.586 3.356.885 5.06.873.104 1.723.143 2.548.314 1.43.29 2.865.59 4.257 1.018 1.142.353 1.503 1.098 1.571 2.288.106 1.928-.789 3.46-1.841 4.945-.188.264-.529.428-.803.63-.497.353-1.001.7-1.675 1.17.37.056.529.104.688.104l14.796-.026c.333 0 .727.02.986.192.516.338.89.185 1.18-.224.292-.409.57-.838.703-1.31a85 85 0 0 0 1.27-4.885c.793-3.512 1.91-6.887 4.034-9.856.921-1.288 1.955-2.482 3.33-3.31a6.2 6.2 0 0 1 1.758-.74c1.197-.276 2.168.216 2.455 1.393.241.993.417 2.113.2 3.082-.685 3.058-1.452 6.11-2.398 9.096-2.763 8.725-4.325 17.625-4.239 26.783.032 3.309.327 6.593 1.427 9.752.23.666.526 1.31.883 1.918.79 1.327 1.742 1.454 2.94.446 1.004-.839 1.662-1.932 2.204-3.097 1.155-2.483 1.66-5.147 2.17-7.807.924-4.805 1.87-9.605 2.739-14.419.566-3.145 1.933-5.906 3.764-8.481q.18-.25.388-.477c.337-.368.74-.374.974.034.28.49.481 1.017.598 1.567.171.821.193 1.678.355 2.496.184.944.662 1.165 1.546.767.96-.43 1.693-1.11 1.981-2.141.179-.63.235-1.297.39-1.937.161-.66.304-1.338.584-1.95.435-.944 1.278-1.336 2.32-1.209 2.48.302 3.94 1.958 3.903 4.445-.008.545-.072 1.09-.084 1.634-.02.87.308 1.2 1.182 1.233 1.798.072 3.9-1.3 4.426-3.008a9.2 9.2 0 0 0 .398-2.544c.034-1.888-.042-3.775-.07-5.662a14 14 0 0 1 .836-5.023c1.48-4.109 2.865-8.262 4.957-12.126a8 8 0 0 1 1.144-1.607c.716-.769 1.375-.774 2.04.022a10.6 10.6 0 0 1 1.38 2.106c1.91 3.871 2.53 8.002 1.961 12.227-.49 3.644-1.256 7.257-2.05 10.851-1.387 6.291-2.416 12.614-2.177 19.067.083 2.213.537 4.413.876 6.612.083.54.38 1.049.578 1.573zm33.07-43.58-.083-.075.021.138c.091.327.146.67.278.979 1.321 3.097 2.668 6.186 3.973 9.288.347.827.814 1.393 1.752 1.606.537.121 1.057.454 1.51.787.846.62 1.628 1.328 2.467 1.96.191.142.546.236.757.16 1.401-.499 2.761-1.12 4.179-1.557.773-.239 1.048-.744 1.194-1.386.604-2.66 1.202-5.32 1.754-7.99.381-1.846.693-3.707 1.013-5.565.036-.21-.074-.443-.117-.665-.197.115-.417.21-.585.353-.168.144-.283.357-.423.532-1.495 1.805-3.067 3.518-5.349 4.372-.231.086-.469.152-.704.229l-.098-.185c2.282-1.505 4.283-3.294 5.922-5.564-.298-.095-.495-.143-.681-.216-2.208-.88-4.442-1.714-6.611-2.675-.748-.33-1.335-.607-1.968.096a1.1 1.1 0 0 1-.353.21l-7.899 3.682c-.137.064-.271.135-.407.202q-.038.11-.078.218c1.814.933 3.596 1.935 5.451 2.779s3.796 1.535 5.856 2.356c-1.363.223-2.444-.128-3.461-.592-2.459-1.117-4.878-2.31-7.31-3.477m22.334 38.129c.795-1.331 1.556-3.88 1.62-5.404.027-.644.241-.815.863-.656.776.2 1.546.42 2.327.62.136.035.372.063.423-.005.543-.768 1.058-1.555 1.579-2.337l-.139-.198c-1.057.25-2.127.53-3.172-.322l.096 1.17a15.5 15.5 0 0 1-1.394-2.824c-1.859-5.163-4.819-9.687-8.176-13.987-.268-.345-.545-.484-.994-.257-.55.278-1.142.47-1.711.71-.905.38-1.853.692-2.696 1.18-.572.33-.928.297-1.382-.121-1.519-1.397-3.03-2.814-5.196-3.303a5 5 0 0 0-.281.441c-.995 1.97-2.032 3.923-2.968 5.921-2.313 4.938-4.442 9.945-5.058 15.428-.112.992-.379 2.005.086 3.163.634-.44 1.254-.783 1.77-1.238 2.385-2.104 5.138-3.638 7.932-5.118a13 13 0 0 1 1.577-.676c.99-.371 1.988-.615 2.989.155q.01-.18 0-.36c-.483-3.417-.975-6.833-1.44-10.253-.042-.305-.318-.798.242-.885.128-.02.348.517.52.801.021.036.011.09.017.135.393 2.789.814 5.573 1.171 8.366.485 3.783.776 3.01-1.242 6.413-.755 1.274-1.558 2.517-2.297 3.804-.331.576-.558 1.21-.853 1.863.204.032.276.067.331.05q.328-.1.642-.24c2.672-1.227 4.718-3.189 6.472-5.48.119-.155.1-.464.055-.684-.347-1.739-.74-3.468-1.064-5.21-.119-.636-.094-1.3-.134-1.95l.212-.02c.093.314.204.636.276.96.402 1.822.795 3.644 1.192 5.466.105.461.155.914.689 1.169.198.094.311.49.349.762.13.944-.16 1.783-.655 2.587a23 23 0 0 0-1.368 2.589c-.235.524.016.757.565.57 1.544-.524 2.722-1.456 3.055-3.121q.369-1.875.546-3.775c.123-1.275.51-1.824 1.767-2.194.966-.284 1.56.078 1.587 1.074q.02 1.361-.169 2.71c-.193 1.263.172 1.968 1.439 2.514zm-3.173-21.62c2.91 3.603 4.85 7.548 6.16 11.743.65-.262 1.185-.513 1.745-.691.52-.167 1.076-.224 1.586-.4.156-.053.358-.38.317-.524-.618-2.346-1.57-4.562-3.536-6.081-1.852-1.437-3.871-2.66-5.817-3.972-.062-.042-.167-.029-.454-.073zm1.196 17.234c-.026-.341 0-.653-.094-.921a.6.6 0 0 0-.477-.315c-.787.057-1.289.594-1.344 1.38-.125 1.792-.276 3.578-.964 5.271-.041.105.017.242.029.365.146-.016.331.017.428-.06.156-.121.252-.314.374-.481l1.45-1.977c.065-.09.165-.178.179-.277.151-1.003.287-2.013.42-2.982zm4.491-.88c-.212 1.03-.414 1.963-.613 2.907 1.655-.054 2.318-.477 2.75-1.631.166-.447.064-.71-.378-.834-.571-.156-1.15-.287-1.758-.439zm3.888-3.28c-.766-1.451-1.223-1.678-2.269-1.146-.635.315-.655.574-.071 1.013.729.55 1.509.339 2.341.135zm-26.61-15.235.048-.043-.045-.048-.051.067zm-6.224 4.139-.046.032c.013.015.023.038.038.04s.03-.019.046-.03z"/></g><defs><clipPath id="a"><path fill="#fff" d="M0 0h112v89H0z"/></clipPath></defs></svg>