<svg xmlns="http://www.w3.org/2000/svg" width="38" height="38" fill="none" viewBox="0 0 38 38"><g clip-path="url(#a)"><g clip-path="url(#b)"><g clip-path="url(#c)"><path fill="#681f2a" fill-rule="evenodd" d="M0 18.527a18.526 18.526 0 1 1 37.052-.002A18.526 18.526 0 0 1 0 18.527m18.5-4.926a4.44 4.44 0 0 1 3.1 1.2l2.262-2.212a7.7 7.7 0 0 0-5.362-2.088 8.01 8.01 0 0 0-7.161 4.424l2.592 2.016a4.85 4.85 0 0 1 4.569-3.34m7.7 5.1a7 7 0 0 0-.169-1.641H18.5v2.979h4.418a3.92 3.92 0 0 1-1.639 2.6l2.53 1.962a7.86 7.86 0 0 0 2.386-5.9zm-12.261 1.413a5 5 0 0 1-.267-1.588 5.2 5.2 0 0 1 .258-1.588l-2.592-2.016a8.02 8.02 0 0 0 0 7.207zm4.56 6.44a7.63 7.63 0 0 0 5.308-1.944l-2.53-1.962a4.74 4.74 0 0 1-2.779.8 4.83 4.83 0 0 1-4.56-3.336l-2.592 2.016a8 8 0 0 0 7.153 4.426" clip-rule="evenodd"/></g></g></g><defs><clipPath id="a"><path fill="#fff" d="M0 0h37.05v37.05H0z"/></clipPath><clipPath id="b"><path fill="#fff" d="M0 0h37.05v37.05H0z"/></clipPath><clipPath id="c"><path fill="#fff" d="M0 0h37.051v37.051H0z"/></clipPath></defs></svg>