<svg xmlns="http://www.w3.org/2000/svg" width="307" height="154" fill="none" viewBox="0 0 307 154"><path fill="#f5cdcb" d="M62.185 36.084c3.343-1.739 9.866-6.058 13.626-5.402 3.103.536 5.11 7.95 4.978 10.836-.505 11.677-7.674 11.972-17.048 10.386.877 2.603 3.004 4.374 4.2 6.768a42.4 42.4 0 0 1 4.527 20.708c-.132 5.085-.844 10.53-.866 15.8 0 3.454 1.096 8.538-.12 11.633-.45 1.093-2.336 2.186-3.016 3.487s-.866 5.074-2.63 2.974a55 55 0 0 1-3.19-7.369c-3.794-11.152 1.556-20.194-.922-31.445-2.192-9.96-9.209-16.4-10.689-26.513-1.874 2.481-2.784 5.543-4.385 8.21a97.3 97.3 0 0 1-9.866 12.891c-4.572 4.964-10.294 7.654-15.644 11.546-.198 2.482-2.576 11.896-1.732 13.437.592 1.094 5.262 2.406 6.643 2.788 6.753 1.848 13.989 2.876 20.95 1.914 1.272-.186 3.936-1.793 4.385 0 .241.874-1.72 7.839-1.995 9.435-1.348 7.785-2.817 14.673-4.385 22.348-1.162 5.555.756 10.803-6.37 10.551-5.481-.207-14.449-1.683-19.524-3.684-2.357-.93-4.55-2.723-7.038-3.28-.165 3.542 1.238 5.215 3.749 7.314 11.16 9.337 29.917 10.726 43.446 6.56 1.688-.525 4.472-1.694 5.185-3.553a84 84 0 0 0 2.532-11.229c.823-4.559.976-9.61 1.94-14.071.582-2.668 1.722-1.837 1.7.24 0 3.39-1.26 8.343-1.721 11.929-.581 4.428-.713 8.583-1.886 13.12-.844 3.28-3.113 4.887-6.128 5.806-15.107 4.635-30.52 4.198-44.158-4.166-3.037-1.859-6.973-4.308-7.411-8.244-.603-5.314 1.403-16.739 2.423-22.348 2.028-11.076 6.062-21.769 7.608-32.92l-3.464 3.607c-2.314 1.148-3.53 3.543-5.153 5.117-2.193 2.132-1.93-.284-1.907-1.88.021-1.597-.154-5.675.065-6.823.669-3.619 8.979-4.625 11.698-6.45 1.798-5.817 3.804-11.71 7.213-16.74 3.114-4.603 7.674-8.211 11.665-11.928-4.9-1.684-9.527-5.467-9.352-11.273.351-12.344 11.676-12.027 17.859-4.21.932-9.84 1.26-19.92 3.716-29.52 1.151-.175 1.305-1.454 1.831-1.815C55.026-.4 59.718.046 61.472.484c2.96.733 8.058 4.264 6.183 7.938-.318.634-1.743.853-1.776 1.093zm-7.609-31.39c2.335.743 6.83.962 9.505 1.333.91.132.779-1.159 0-1.924-3.124-3.28-7.531-.437-11.226-.94.099.59 1.349 1.4 1.721 1.53m3.476 33.631c0 2.077-.932 4.833-.998 7.008 2.708.93 17.54-.6 18.571 1.302.713 1.388-2.445 1.257-3.18 1.235-4.582-.142-9.307-.962-13.911-1.028-.186.602.636.678 1.096.875 2.862 1.41 12.586 2.864 15.458 1.684 3.99-1.63 3.694-13.12 1.096-15.307-1.864-1.564-8.178 1.093-10.36 2.12-1.096.471-7.027 4.374-7.542 3.63 0-1.158.756-1.596 1.568-2.186.208-.328-.779 0-.746-.93.088-2.798 1.173-6.09 1.283-8.976L64.19 9.898c-3.837-.918-7.674-1.542-11.05-3.728-1.831 7.358-2.007 14.913-2.544 22.402-.132 1.947-1.754 7.227.822 8.08.472.153 2.412-1.323 3.815-1.028.9.23 2.818 1.684 2.85 2.701zm-9.79 3.608c.92-2.624 2.423-2.558.537-5.139-4.944-6.8-14.767-12.956-15.852.383 5.328-.252 10.447 2.876 15.348 4.756zm6.863-3.805a6.4 6.4 0 0 0-2.445.197 29 29 0 0 0-1.952 4.21c-.142 1.268 1.81 1.3 2.412 2.24.8-.754 2.303-6.231 2.017-6.625zm-10.108 5.948-9.965-3.99c1.206 2.383 6.325 4.559 8.77 4.58.329.044 1.272-.032 1.228-.59zm4.725 2.395c-1.458.524-4.111.535-5.34 1.093-2.707 1.18-6.369 12.278-8.024 15.372-1.195 2.187-3.037 3.98-4.155 6.232 7.871-5.51 12.882-14.42 17.552-22.698zm11.774 5.237c-.493-.547-2.96-1.487-4.056-2.34-.768-.59-2.138-2.81-2.116-.252 0 1.094 2.74 7.37 3.508 8.441 2.017 2.832 6.084 4.636 8.014 7.785a26 26 0 0 0-1.162-4.199c-.395-1.191-3.728-8.954-4.155-9.435zM27.849 72.284c1.096-.852 4.539-6.188 5.328-7.653 2.817-5.237 4.056-11.393 7.466-16.4C33.44 55.644 25.92 63.21 24.363 74.1c.965-.788 2.697-1.181 3.519-1.815zM66.35 110.76c.066-1.903 2.686-4.057 2.906-5.467.285-1.706-.735-7.216-.713-9.698 0-3.794.68-7.654.669-11.48 0-9.064-2.489-19.385-10.886-23.901 2.795 4.701 5.722 9.643 6.38 15.307 1.096 8.976-3.705 18.062-1.71 26.678a33 33 0 0 0 3.387 8.561zM18.4 81.064c-1.02.427-7.083 1.334-7.335 1.607-.471.514.164 4.855-.471 5.948zm29.522 20.599a42.3 42.3 0 0 1-29.073-5.817l-4.386 21.922c4.67-1.039 5.592 5.554 9.374 4.45 1.502-.437 3.968-3.368 5.58-1.87.701.645.701 1.946 1.93 2.318 1.227.372 4.033-2.066 4.615.066.58 2.132-4.693 3.28-6.578 2.547a3.36 3.36 0 0 1-1.634-1.749c-1.008.164-2.85 1.629-4.242 1.793-6.424.798-3.717-5.882-9.297-5.86-.383 3.717-1.71 7.249-1.49 10.999a84.5 84.5 0 0 0 12.585 4.8c2.104.568 14.92 3.619 15.731 2.635a285 285 0 0 1 6.841-36.234z"/><path fill="#000" d="M58.917 75.352q-1.518 0-2.75-.638a4.93 4.93 0 0 1-1.914-1.848q-.682-1.188-.682-2.706 0-1.54.792-2.794a5.56 5.56 0 0 1 2.156-2.002q1.386-.726 3.036-.726 1.54 0 2.772.66a4.75 4.75 0 0 1 1.958 1.804q.704 1.166.704 2.662a5.24 5.24 0 0 1-.814 2.838q-.792 1.275-2.2 2.024-1.386.726-3.058.726m1.21-.528q1.254 0 1.958-.704.726-.726.726-2.112 0-1.343-.704-2.97-.682-1.628-1.738-2.75-1.034-1.144-2.024-1.144-1.232 0-1.936.704t-.704 2.112q0 1.32.682 2.97.682 1.628 1.716 2.772 1.056 1.122 2.024 1.122m16.025-6.05q.022.088-.044.088t-.088-.088q-.814-3.058-1.804-3.41-.198-.154-1.54-.154-.131 0-.22.154a.63.63 0 0 0-.088.352v6.996q0 1.165.33 1.65.352.484 1.078.484.11 0 .11.088t-.11.088Q73.446 75 72.412 75h-2.618q-1.034 0-1.364.022-.11 0-.11-.088t.11-.088q.726 0 1.056-.484.352-.484.352-1.65v-6.996a.63.63 0 0 0-.088-.352q-.088-.154-.22-.154-1.341 0-1.54.154-.989.352-1.804 3.41-.022.088-.088.088-.065 0-.044-.088.264-1.957.264-3.586 0-.352.286-.352.132 0 .748.088.639.088 2.486.088h2.53q1.782 0 2.442-.088t.814-.088q.264 0 .264.352 0 1.627.264 3.586m11.24-3.872q.132 0 .132.088 0 .066-.133.088-.77.022-1.187.55-.396.506-.396 1.716v7.502h1.231q.154 0 .154.154l.044.77.133 1.672q.021.132-.067.132-.065 0-.087-.11-.243-1.275-.814-1.87-.55-.594-1.65-.594h-6.204q-1.1 0-1.672.594-.55.594-.793 1.87-.02.11-.11.11-.065 0-.043-.132.13-1.144.131-1.672l.044-.77q0-.154.154-.154h.683q.77 0 1.166-2.442.417-2.442.527-5.654-.088-.902-.484-1.276-.395-.374-1.078-.396-.13-.022-.131-.088.021-.088.132-.088.922.066 1.276.066h7.766q.418 0 1.275-.066m-4.114 9.944v-9.724H78.81q0 3.145-.374 6.138-.35 2.97-1.1 3.586zm20.329 0q.11 0 .11.088t-.11.088a27 27 0 0 0-1.364-.022h-2.618q-1.034 0-1.386.022-.088 0-.088-.088t.088-.088q.748 0 1.078-.484.352-.484.352-1.65V67.19q0-1.166-.352-1.65-.33-.484-1.078-.484-.088 0-.088-.088t.088-.088l1.386.022h2.618l1.364-.022q.11 0 .11.088t-.11.088q-.726 0-1.078.484-.33.484-.33 1.65v5.522q0 1.165.33 1.65.352.484 1.078.484m-9.724-5.588q4.51-.066 4.51 2.75 0 1.452-1.056 2.222T94.19 75h-4.62q-1.034 0-1.386.022-.11 0-.11-.088t.11-.088q.726 0 1.078-.484.351-.484.352-1.65v-5.456q0-1.165-.352-1.65t-1.078-.484q-.11 0-.11-.088t.11-.088l1.386.022h2.618l1.364-.022q.11 0 .11.088t-.11.088q-.726 0-1.078.484-.33.484-.33 1.65v1.782q0 .242.198.242zm-.352 5.566q1.055-.022 1.628-.77.594-.748.594-2.002 0-1.232-.594-1.914-.594-.705-1.716-.682l-1.1.022q-.198 0-.198.242v4.532q0 .352.088.484.088.11.352.11zm22.414.022q.11 0 .11.088t-.11.088q-.33-.022-1.364-.022h-2.992q-1.033 0-1.386.022-.088 0-.088-.088t.088-.088q.484 0 .748-.176a.58.58 0 0 0 .286-.528q0-.44-.462-1.166l-1.958-2.992-2.024 2.992q-.484.748-.484 1.166 0 .704 1.012.704.11 0 .11.088t-.11.088a27 27 0 0 0-1.386-.022h-.286q-1.034 0-1.364.022-.11 0-.11-.088t.11-.088q.66 0 1.1-.374.462-.396 1.188-1.496l2.156-3.146-1.848-2.838q-.726-1.1-1.144-1.474a1.34 1.34 0 0 0-.99-.396q-.087 0-.088-.088 0-.088.088-.088l1.232.022h3.014l1.496-.022q.11 0 .11.088t-.11.088q-.528 0-.836.198-.286.175-.286.55 0 .462.44 1.122l1.518 2.332 1.606-2.332q.462-.682.462-1.144 0-.375-.308-.55-.285-.176-.814-.176-.132 0-.132-.088t.132-.088l1.496.022h.308l1.364-.022q.11 0 .11.088t-.11.088q-.681 0-1.144.396-.44.396-1.166 1.474l-1.716 2.508 2.266 3.476q.705 1.078 1.144 1.474.462.396 1.122.396m11.773-3.608q0-.11.066-.11t.066.11q0 1.672-.726 2.86-.703 1.188-1.848 1.188-.836 0-1.408-.55-.572-.572-.638-1.694-.528 1.1-1.408 1.694a3.25 3.25 0 0 1-1.892.594q-1.739 0-2.574-.968a3.44 3.44 0 0 1-.836-2.288q0-1.276 1.144-2.046 1.166-.77 2.904-.77.594 0 1.32.11.748.11 1.342.286v-.968q0-3.388-2.948-3.388-1.21 0-2.068.792-.836.792-.836 2.376 0 .088-.044.132t-.088.044q-.088 0-.088-.176 0-1.232.616-2.09a3.85 3.85 0 0 1 1.584-1.32 4.9 4.9 0 0 1 2.046-.44q4.356 0 4.356 4.07v3.608q0 1.452.748 1.452.726 0 .946-.638.22-.66.264-1.87m-6.644 2.838q2.156 0 2.156-2.618v-.132a2.27 2.27 0 0 0-.924-1.254 2.53 2.53 0 0 0-1.496-.484q-2.178 0-2.178 1.672 0 1.122.638 1.98.638.836 1.804.836m16.684-1.034q.022-.022.066.022.067.044.022.11a5.64 5.64 0 0 1-2.068 1.606q-1.21.55-2.53.55a5.36 5.36 0 0 1-2.574-.638 4.87 4.87 0 0 1-1.892-1.804q-.681-1.188-.682-2.728 0-1.518.748-2.794a5.54 5.54 0 0 1 2.068-2.002 5.6 5.6 0 0 1 2.838-.748q1.716 0 2.86.946 1.144.924 1.144 2.53 0 .726-.264 1.562-2.31.044-7.084.198a6.6 6.6 0 0 0 1.144 2.178 6.2 6.2 0 0 0 1.804 1.496q1.013.528 1.98.528 1.607 0 2.42-1.012m-5.082-8.008q-1.232 0-1.892.77-.638.748-.638 2.266 0 .748.22 1.628a87 87 0 0 0 2.948-.11q.44-.023.902-.044a21 21 0 0 1 .968-.022q.198-.33.198-.814 0-.726-.418-1.584a4.5 4.5 0 0 0-1.034-1.474q-.615-.615-1.254-.616m20.465 9.812q.11 0 .11.088t-.11.088a27 27 0 0 0-1.364-.022h-2.64q-1.012 0-1.364.022-.11 0-.11-.088t.11-.088q.66 0 .968-.374.33-.374.33-1.254a4 4 0 0 0-.022-.506l-.484-5.83q-.022-.264-.132-.264-.066 0-.11.066a1 1 0 0 0-.088.198l-3.102 7.854q-.088.242-.242.242-.198 0-.286-.242l-3.08-7.942q-.066-.176-.132-.176h-.044l.154.572-.154-.55q-.066.022-.066.154l-.528 5.918a5 5 0 0 0-.022.55q0 .858.308 1.232.308.352.968.352.11 0 .11.088t-.11.088a26 26 0 0 0-1.364-.022h-.264q-1.034 0-1.364.022-.11 0-.11-.088t.11-.088q.726 0 1.078-.462.374-.484.484-1.672l.594-6.534q-.22-.572-.55-.814t-.836-.242q-.11 0-.11-.088t.11-.088l1.298.022h2.112q.308 0 .396.242l2.442 6.028q.066.154.154.154.11 0 .132-.154l2.376-6.05q.044-.132.11-.176a.36.36 0 0 1 .198-.044h1.936l1.386-.022q.11 0 .11.088t-.11.088q-.66 0-.99.374-.308.352-.308 1.21 0 .352.022.55l.528 5.456q.11 1.188.462 1.672.374.462 1.1.462m-11.638-7.634v-.022zM158.933 75q-.11 0-.11-.088t.11-.088q.748.022 1.078-.462.352-.484.352-1.65v-5.434q0-1.165-.352-1.65-.33-.484-1.056-.484-.11 0-.11-.088t.11-.088q.66.044 1.364.044 2.772-.066 5.038-.066 1.739 0 2.706.594.968.572.968 1.782 0 .792-.682 1.43-.66.616-1.65.726 1.276.066 2.134.748t.858 1.87q0 1.386-1.1 2.178-1.078.792-2.992.792l-5.28-.088zm5.874-5.632q1.122-.132 1.606-.594.484-.484.484-1.474 0-1.078-.572-1.606-.55-.528-1.408-.55l-1.562-.066h-.066q-.22 0-.286.11t-.066.396v8.668q0 .396.11.55.132.132.484.132l1.386-.022q1.122 0 1.738-.638.638-.66.638-1.936 0-1.298-.572-1.98-.55-.705-1.848-.748l-.748-.022q-.088 0-.088-.066t.066-.088zm22.719 5.522q.11 0 .11.088 0 .066-.11.066-.615-.044-3.014-.044-.594 0-.858-.22a1.1 1.1 0 0 1-.33-.55l-.682-1.914q-.33-.968-.638-1.474a1.86 1.86 0 0 0-.814-.77q-.483-.242-1.32-.242h-.198v2.882q0 1.165.33 1.65.352.484 1.078.484.11 0 .11.088t-.11.088q-.33-.022-1.364-.022h-2.618q-1.034 0-1.386.022-.11 0-.11-.088t.11-.088q.726 0 1.078-.484t.352-1.65v-5.434q0-1.165-.352-1.65t-1.078-.484q-.11 0-.11-.088t.11-.088l1.386.022h2.618l1.364-.022q.11 0 .11.088t-.11.088q-.726 0-1.078.484-.33.484-.33 1.65v2.42h.198q1.563 0 2.376-.484.814-.506 1.474-1.716l.22-.418q.375-.682.374-1.166 0-.792-1.056-.792-.11 0-.11-.088t.11-.088l1.364.022h.528l1.364-.022q.11 0 .11.088t-.11.088q-.681 0-1.122.418-.44.396-1.1 1.496l-.33.572q-.549.924-1.188 1.43-.616.484-1.54.66 1.673.022 2.618.594.946.55 1.54 1.936l.33.792q.463 1.078.814 1.474.353.374.99.396m6.034.462q-1.518 0-2.75-.638a4.93 4.93 0 0 1-1.914-1.848q-.682-1.188-.682-2.706 0-1.54.792-2.794a5.56 5.56 0 0 1 2.156-2.002q1.386-.726 3.036-.726 1.539 0 2.772.66a4.76 4.76 0 0 1 1.958 1.804q.704 1.166.704 2.662a5.24 5.24 0 0 1-.814 2.838q-.792 1.275-2.2 2.024-1.386.726-3.058.726m1.21-.528q1.254 0 1.958-.704.726-.726.726-2.112 0-1.343-.704-2.97-.682-1.628-1.738-2.75-1.035-1.144-2.024-1.144-1.233 0-1.936.704-.704.704-.704 2.112 0 1.32.682 2.97.681 1.628 1.716 2.772 1.055 1.122 2.024 1.122m20.117.022q.11 0 .11.088t-.11.088a27 27 0 0 0-1.364-.022h-2.64q-1.012 0-1.364.022-.11 0-.11-.088t.11-.088q.66 0 .968-.374.33-.374.33-1.254a4 4 0 0 0-.022-.506l-.484-5.83q-.022-.264-.132-.264-.066 0-.11.066a1 1 0 0 0-.088.198l-3.102 7.854q-.088.242-.242.242-.198 0-.286-.242l-3.08-7.942q-.066-.176-.132-.176h-.044l.154.572-.154-.55q-.066.022-.066.154l-.528 5.918a5 5 0 0 0-.022.55q0 .858.308 1.232.308.352.968.352.11 0 .11.088t-.11.088a26 26 0 0 0-1.364-.022h-.264q-1.034 0-1.364.022-.11 0-.11-.088t.11-.088q.726 0 1.078-.462.374-.484.484-1.672l.594-6.534q-.22-.572-.55-.814t-.836-.242q-.11 0-.11-.088t.11-.088l1.298.022h2.112q.308 0 .396.242l2.442 6.028q.066.154.154.154.11 0 .132-.154l2.376-6.05q.044-.132.11-.176a.36.36 0 0 1 .198-.044h1.936l1.386-.022q.11 0 .11.088t-.11.088q-.66 0-.99.374-.308.352-.308 1.21 0 .352.022.55l.528 5.456q.11 1.188.462 1.672.374.462 1.1.462m-11.638-7.634v-.022zm25.182 7.634q.11 0 .11.088t-.11.088a26 26 0 0 0-1.364-.022h-2.618q-.968 0-1.298.022-.11 0-.11-.088t.11-.088q.703 0 1.012-.484.33-.484.33-1.65v-7.59h-4.752v7.59q0 1.165.308 1.65.33.484 1.034.484.11 0 .11.088t-.11.088q-.33-.022-1.298-.022h-2.618q-1.035 0-1.386.022-.11 0-.11-.088t.11-.088q.726 0 1.078-.484.351-.484.352-1.65v-5.456q0-1.165-.352-1.65t-1.078-.484q-.11 0-.11-.088t.11-.088l1.386.022h9.9l1.298-.022q.11 0 .11.088t-.11.088q-.704 0-1.034.484-.309.484-.308 1.65v5.456q0 1.165.33 1.65.351.484 1.078.484m12.8 0q.11 0 .11.088t-.11.088a27 27 0 0 0-1.364-.022h-2.618q-1.033 0-1.386.022-.11 0-.11-.088t.11-.088q.726 0 1.078-.484t.352-1.65v-7.59h-4.466q-.088 1.782-.44 6.754-.088 1.605-.506 2.552-.396.924-1.408.924-1.188 0-1.188-.66 0-.132.022-.198l.528-2.09q.044-.11.11-.088.066 0 .066.11.022.945.242 1.276.22.33.726.33 1.1 0 1.254-2.156l.286-4.62.022-.44q0-.902-.33-1.298t-.99-.396q-.11 0-.11-.088t.11-.088l1.364.022h7.282l1.364-.022q.11 0 .11.088t-.11.088q-.726 0-1.078.484-.33.484-.33 1.65v5.456q0 1.165.33 1.65.352.484 1.078.484m13.883 0q.11 0 .11.088t-.11.088A26 26 0 0 0 253.75 75h-2.618q-.968 0-1.298.022-.11 0-.11-.088t.11-.088q.704 0 1.012-.484.33-.484.33-1.65v-7.59h-4.752v7.59q0 1.165.308 1.65.33.484 1.034.484.11 0 .11.088t-.11.088q-.33-.022-1.298-.022h-2.618q-1.034 0-1.386.022-.11 0-.11-.088t.11-.088q.726 0 1.078-.484t.352-1.65v-5.456q0-1.165-.352-1.65t-1.078-.484q-.11 0-.11-.088t.11-.088l1.386.022h9.9l1.298-.022q.11 0 .11.088t-.11.088q-.704 0-1.034.484-.308.484-.308 1.65v5.456q0 1.165.33 1.65.352.484 1.078.484m10.799-1.804q.021-.022.066.022.066.044.022.11a5.65 5.65 0 0 1-2.068 1.606q-1.21.55-2.53.55a5.36 5.36 0 0 1-2.574-.638 4.86 4.86 0 0 1-1.892-1.804q-.682-1.188-.682-2.728 0-1.518.748-2.794a5.5 5.5 0 0 1 2.068-2.002 5.6 5.6 0 0 1 2.838-.748q1.716 0 2.86.946 1.144.924 1.144 2.53 0 .726-.264 1.562-2.31.044-7.084.198.373 1.21 1.144 2.178a6.2 6.2 0 0 0 1.804 1.496q1.011.528 1.98.528 1.605 0 2.42-1.012m-5.082-8.008q-1.232 0-1.892.77-.638.748-.638 2.266 0 .748.22 1.628a87 87 0 0 0 2.948-.11q.44-.023.902-.044.483-.022.968-.022.198-.33.198-.814 0-.726-.418-1.584a4.5 4.5 0 0 0-1.034-1.474q-.617-.615-1.254-.616m18.154 9.856q.11 0 .11.088 0 .066-.11.066-.615-.044-3.014-.044-.594 0-.858-.22a1.1 1.1 0 0 1-.33-.55l-.682-1.914q-.33-.968-.638-1.474a1.86 1.86 0 0 0-.814-.77q-.483-.242-1.32-.242h-.198v2.882q0 1.165.33 1.65.352.484 1.078.484.11 0 .11.088t-.11.088q-.33-.022-1.364-.022h-2.618q-1.034 0-1.386.022-.11 0-.11-.088t.11-.088q.726 0 1.078-.484t.352-1.65v-5.434q0-1.165-.352-1.65-.351-.484-1.078-.484-.11 0-.11-.088t.11-.088l1.386.022h2.618l1.364-.022q.11 0 .11.088t-.11.088q-.726 0-1.078.484-.33.484-.33 1.65v2.42h.198q1.563 0 2.376-.484.814-.506 1.474-1.716l.22-.418q.375-.682.374-1.166 0-.792-1.056-.792-.11 0-.11-.088t.11-.088l1.364.022h.528l1.364-.022q.11 0 .11.088t-.11.088q-.681 0-1.122.418-.44.396-1.1 1.496l-.33.572q-.549.924-1.188 1.43-.615.484-1.54.66 1.673.022 2.618.594.946.55 1.54 1.936l.33.792q.462 1.078.814 1.474.353.374.99.396m8.894-4.466q-.045.11-.132.11-.066-.022-.022-.154.11-.44.11-.858 0-1.013-.484-2.046-.484-1.056-1.276-1.738-.793-.682-1.672-.682-2.596 0-2.596 2.97a6.4 6.4 0 0 0 .748 3.036q.748 1.386 1.936 2.2 1.209.814 2.442.814 1.583 0 2.42-1.012.087-.088.132-.022.043.044 0 .11-1.739 2.178-4.598 2.178a5.4 5.4 0 0 1-2.596-.638 5 5 0 0 1-1.914-1.804q-.704-1.188-.704-2.728 0-1.495.748-2.772a5.7 5.7 0 0 1 2.068-2.024 5.54 5.54 0 0 1 2.816-.748q1.056 0 1.98.286.924.285 1.408.748.505.44.396.88zm11.979 2.618q.022-.022.066.022.066.044.022.11a5.64 5.64 0 0 1-2.068 1.606q-1.21.55-2.53.55a5.36 5.36 0 0 1-2.574-.638 4.86 4.86 0 0 1-1.892-1.804q-.682-1.188-.682-2.728 0-1.518.748-2.794a5.53 5.53 0 0 1 2.068-2.002 5.6 5.6 0 0 1 2.838-.748q1.716 0 2.86.946 1.144.924 1.144 2.53 0 .726-.264 1.562-2.31.044-7.084.198a6.6 6.6 0 0 0 1.144 2.178 6.2 6.2 0 0 0 1.804 1.496q1.012.528 1.98.528 1.606 0 2.42-1.012m-5.082-8.008q-1.232 0-1.892.77-.638.748-.638 2.266 0 .748.22 1.628a87 87 0 0 0 2.948-.11q.44-.023.902-.044.484-.022.968-.022.198-.33.198-.814 0-.726-.418-1.584a4.5 4.5 0 0 0-1.034-1.474q-.616-.615-1.254-.616M36.107 92.242q-.264.748-3.212 2.244-2.947 1.496-4.356 1.496-.747 0-.748-.528 0-.704 1.452-2.816 1.496-2.112 1.496-2.772 0-.748-.704-.748-1.056 0-4.224 2.86a51 51 0 0 0-3.784 3.74q-.615.66-.968.66-.571 0-.572-.616 0-.175.308-.88a177 177 0 0 0 2.068-2.904q1.54-2.2 1.54-3.124 0-.396-.264-.396-.132 0-.528.176l-6.38 4.752h-.308q-.308 0-.308-.088 0-.132.484-.44a421 421 0 0 1 6.82-5.236q.528-.44 1.364-.44.88 0 .88.792 0 .924-1.276 2.816-1.231 1.848-1.232 2.024 0 .045.088.044-.043 0 2.948-2.464 2.992-2.508 4.048-2.508 1.628 0 1.628 1.1 0 .967-1.408 3.168t-1.408 2.508q0 .352.44.352.837 0 3.212-1.276 1.629-.924 2.508-1.54.132-.132.264-.132t.132.176m12.823 0q0 .615-3.168 2.288t-7.7 1.672q-2.597 0-2.816-.528 0-.308.484-.308.66.132.836.132 2.244 0 4.796-2.288 2.42-2.156 2.42-3.696 0-.66-.836-.66-4.137 0-9.02 7.832-.396.615-4.796 9.328-4.444 8.755-4.708 9.372-.309.748-.792.748a.6.6 0 0 1-.264-.044q-.264-.089-.264-.528 0-1.584 19.8-36.96.351-.615.66-.616.044 0 .176.088t.132.352q0 .484-.264.748-.044.132-3.608 6.512-3.388 6.16-3.388 6.556 0 .045.044.088.044-.088.308-.352 1.056-1.275 2.904-2.596 2.464-1.672 4.312-1.672 1.364 0 1.364 1.056 0 3.212-5.148 6.292 3.915 0 8.14-2.86.132-.132.264-.132t.132.176m10.425 0q0 .308-1.804 1.452-4.444 2.816-6.38 2.816-2.86 0-2.86-3.344 0-2.464 2.376-4.928 2.42-2.508 4.576-2.508.66 0 .66.616 0 1.495-2.596 4.224-2.068 2.156-3.388 2.948.132 1.936 1.848 1.936 1.628 0 5.456-2.2.309-.176 1.716-1.056.132-.132.264-.132t.132.176m-4.796-5.06q0-.528-.308-.528-1.1 0-2.684 2.2t-1.628 3.96q.837-.264 2.64-2.288 1.98-2.2 1.98-3.344m16.253 4.048q.528-.616 1.32-1.584a64 64 0 0 0 1.54-1.848q.396-.264.792-.132t.22.352q-1.32 1.98-1.936 3.52t-.616 2.156q0 1.1 1.012 1.1 1.54 0 5.588-2.772.087-.088.396-.308.352-.22.484-.22t.132.176q0 .263-.66.704-5.457 3.652-7.304 3.652-1.233 0-1.232-1.408 0-.44.088-.924.132-.528.264-.924.175-.396.264-.66.132-.264.132-.22 0-.176-.132-.176-.309.352-.968 1.012-.66.66-1.408 1.32-.749.66-1.496 1.144-.748.44-1.188.396-.528-.045-.66-.352-.132-.352 0-.836.131-.484.44-1.056.307-.572.66-1.1.087-.132.308-.484.219-.396.396-.748.22-.352.308-.572t-.088-.088q-.045-.088-.352.264-.264.308-.748.836t-1.144 1.144a9 9 0 0 1-1.408 1.056q-.573.352-1.188.748-.616.353-1.232.66a8 8 0 0 1-1.188.44 3.1 3.1 0 0 1-1.144.132 3.2 3.2 0 0 1-1.1-.264q-.528-.264-.528-1.1 0-.484.264-.836.22-.352.484-.352.22 0 .352.22t.308.528q.176.264.396.484t.616.22h.264q.351 0 1.716-.616 2.42-1.144 4.048-2.816a35 35 0 0 0 2.992-3.388q.66-.66.968-.66.132 0 .308.132.219.088.264.352.087.264-.132.748-.177.44-.748 1.144-.353.353-.836 1.056-.441.704-.924 1.496-.44.792-.836 1.496-.352.705-.484 1.012.044.353.572.044a8.4 8.4 0 0 0 1.276-.88 19 19 0 0 0 1.452-1.232q.704-.704 1.056-1.188m22.752 1.012q0 .263-.66.704-5.412 3.652-7.304 3.652-1.232 0-1.232-1.408 0-.792.308-1.584.44-1.1.44-1.144 0-.176-.132-.176-.044 0-.22.088-.968.968-2.816 2.332-2.376 1.76-3.3 1.76-1.056 0-1.056-1.056 0-.615 1.54-3.388 1.54-2.816 1.54-3.256 0-.484-.792-.484-.176 0-.176-.528.396-.132.836-.132 1.54 0 1.54.88 0 .967-1.364 3.256t-1.364 2.86q0 .352.308.352.705 0 3.432-2.332 2.771-2.332 4.268-4.224.66-.66.968-.66.573 0 .572.572 0 .308-.308.792-2.64 3.96-2.64 5.148 0 1.1 1.012 1.1 1.54 0 5.588-2.772.22-.176.616-.396.132-.132.264-.132t.132.176m12.639 0q-.176.572-2.992 2.244-3.257 1.936-5.148 3.168-5.94 11.924-7.392 14.3-4.137 7.04-6.952 7.04-1.32 0-1.32-1.716 0-9.593 14.344-19.536l2.728-5.72q0-.176-.132-.176-4.84 3.696-5.94 3.696-1.056 0-1.056-1.056 0-.616 1.32-3.168 1.364-2.552 1.364-2.992 0-.484-.792-.484-.176 0-.176-.528.396-.132.836-.132 1.54 0 1.54.88 0 .967-1.188 3.168t-1.188 2.772q0 .352.308.352 1.056 0 3.388-1.848 2.64-2.112 3.96-4.532.66-.66.968-.66.572 0 .572.572 0 .308-.308.792-1.716 2.685-4.312 7.832a75 75 0 0 1 4.312-2.508q2.2-1.275 2.86-1.804.132-.132.264-.132t.132.176m-9.988 6.688q-12.585 8.976-12.584 17.996 0 1.144.748 1.144 1.847 0 5.456-6.336 2.332-4.136 6.38-12.804m21.476-7.7q.528-.616 1.32-1.584a66 66 0 0 0 1.54-1.848q.396-.264.792-.132t.22.352q-1.32 1.98-1.936 3.52t-.616 2.156q0 1.1 1.012 1.1 1.54 0 5.588-2.772.087-.088.396-.308.352-.22.484-.22t.132.176q0 .263-.66.704-5.457 3.652-7.304 3.652-1.233 0-1.232-1.408 0-.44.088-.924.132-.528.264-.924.175-.396.264-.66.132-.264.132-.22 0-.176-.132-.176-.308.352-.968 1.012t-1.408 1.32-1.496 1.144q-.748.44-1.188.396-.528-.045-.66-.352-.132-.352 0-.836a5 5 0 0 1 .44-1.056q.308-.572.66-1.1.087-.132.308-.484.219-.396.396-.748a4 4 0 0 0 .308-.572q.087-.22-.088-.088-.045-.088-.352.264-.265.308-.748.836-.484.528-1.144 1.144-.616.572-1.408 1.056-.573.352-1.188.748-.617.353-1.232.66a8 8 0 0 1-1.188.44 3.1 3.1 0 0 1-1.144.132 3.2 3.2 0 0 1-1.1-.264q-.528-.264-.528-1.1 0-.484.264-.836.22-.352.484-.352.22 0 .352.22t.308.528q.175.264.396.484.22.22.616.22h.264q.351 0 1.716-.616 2.42-1.144 4.048-2.816a35 35 0 0 0 2.992-3.388q.66-.66.968-.66.131 0 .308.132.219.088.264.352.087.264-.132.748-.177.44-.748 1.144-.353.353-.836 1.056-.441.704-.924 1.496-.44.792-.836 1.496-.352.705-.484 1.012.044.353.572.044a8.4 8.4 0 0 0 1.276-.88q.747-.572 1.452-1.232.704-.704 1.056-1.188m24.468-1.188q0 .66-1.012 1.144a4.84 4.84 0 0 1-2.112.484q-1.232 0-3.256-.792-2.024-.836-3.168-.836-.484 0-1.364.44-.88.396-1.1.396l-.088-.044q0-.308 1.056-1.012 1.276-.792 2.596-.792 1.1 0 3.256.924 2.156.88 2.904.88.836 0 1.496-.44.703-.484.66-.484.132 0 .132.132m12.653 2.2q0 .176-.66.704a364 364 0 0 0-3.476 2.288q-2.508 1.496-4.092 1.496-.923 0-1.628-.66t-.704-1.496q0-2.903 2.816-5.324 2.508-2.156 4.664-2.156 1.364 0 1.364 1.1 0 .615-1.804 2.42a.55.55 0 0 1-.396.176q-.352 0-.352-.396 0-.175.132-.264.132-.131.528-.968.396-.88.396-1.32 0-.132-.308-.132-1.1 0-3.212 1.804-2.552 2.156-2.552 4.444 0 1.672 1.452 1.672 2.245 0 6.82-3.036.22-.176.616-.396.132-.132.264-.132t.132.176m10.289 0q0 .308-1.804 1.452-4.443 2.816-6.38 2.816-2.86 0-2.86-3.344 0-2.464 2.376-4.928 2.42-2.508 4.576-2.508.66 0 .66.616 0 1.495-2.596 4.224-2.067 2.156-3.388 2.948.132 1.936 1.848 1.936 1.629 0 5.456-2.2.309-.176 1.716-1.056.132-.132.264-.132t.132.176m-4.796-5.06q0-.528-.308-.528-1.1 0-2.684 2.2t-1.628 3.96q.837-.264 2.64-2.288 1.98-2.2 1.98-3.344m10.973 8.448q-.792.264-1.54.44a5.5 5.5 0 0 1-1.32.176q-.572 0-1.012-.22-.396-.22-.528-.792-.132-.44.264-1.1.44-.704 1.1-1.452t1.364-1.496q.748-.792 1.276-1.408.572-.66.792-1.056.264-.44-.132-.528-.22-.264-.924.176-.66.44-1.584 1.188t-1.98 1.584q-1.012.835-1.892 1.32h-.044q-.088 0-.176-.176a1.2 1.2 0 0 1-.044-.264 30 30 0 0 0 2.2-1.628q1.144-.924 2.156-1.76a54 54 0 0 1 1.848-1.408q.792-.572 1.188-.572.528-.088.836.308.352.352.44.66.132.748-.528 1.584-.616.836-2.068 2.156-.748.66-1.364 1.452-.616.748-.88 1.364-.264.572-.044.924.22.308 1.144.132.924 0 1.672-.176.748-.22 1.496-.572a25 25 0 0 0 1.672-.924 73 73 0 0 1 2.156-1.276.5.5 0 0 0 .132-.088q.043-.045.132-.044.044 0 .044.308 0 .264-.22.308-.968.66-1.584 1.056a10 10 0 0 1-1.188.66q-.528.264-1.188.528-.616.22-1.672.616m17.311-4.4q.528-.616 1.32-1.584a64 64 0 0 0 1.54-1.848q.396-.264.792-.132t.22.352q-1.32 1.98-1.936 3.52t-.616 2.156q0 1.1 1.012 1.1 1.54 0 5.588-2.772.088-.088.396-.308.352-.22.484-.22t.132.176q0 .263-.66.704-5.456 3.652-7.304 3.652-1.232 0-1.232-1.408 0-.44.088-.924.132-.528.264-.924.175-.396.264-.66.132-.264.132-.22 0-.176-.132-.176-.308.352-.968 1.012t-1.408 1.32-1.496 1.144q-.748.44-1.188.396-.528-.045-.66-.352-.132-.352 0-.836t.44-1.056.66-1.1q.088-.132.308-.484.22-.396.396-.748.22-.352.308-.572t-.088-.088q-.044-.088-.352.264-.264.308-.748.836t-1.144 1.144q-.616.572-1.408 1.056-.571.352-1.188.748-.616.353-1.232.66a8 8 0 0 1-1.188.44 3.1 3.1 0 0 1-1.144.132 3.2 3.2 0 0 1-1.1-.264q-.528-.264-.528-1.1 0-.484.264-.836.22-.352.484-.352.22 0 .352.22t.308.528q.175.264.396.484.22.22.616.22h.264q.352 0 1.716-.616 2.42-1.144 4.048-2.816a35 35 0 0 0 2.992-3.388q.66-.66.968-.66.132 0 .308.132.22.088.264.352.089.264-.132.748-.176.44-.748 1.144-.352.353-.836 1.056-.44.704-.924 1.496-.44.792-.836 1.496-.352.705-.484 1.012.044.353.572.044a8.4 8.4 0 0 0 1.276-.88q.749-.572 1.452-1.232.703-.704 1.056-1.188m18.837 1.012q0 .308-1.804 1.452-4.445 2.816-6.38 2.816-2.86 0-2.86-3.344 0-2.464 2.376-4.928 2.42-2.508 4.576-2.508.66 0 .66.616 0 1.495-2.596 4.224-2.068 2.156-3.388 2.948.132 1.936 1.848 1.936 1.628 0 5.456-2.2.308-.176 1.716-1.056.132-.132.264-.132t.132.176m-4.796-5.06q0-.528-.308-.528-1.1 0-2.684 2.2t-1.628 3.96q.835-.264 2.64-2.288 1.98-2.2 1.98-3.344m8.728 7.48q-.132.176-.352.484l-.44.528a2.3 2.3 0 0 1-.352.484q-.175.22-.264.22-.572 0-.572-.616 0-.22.308-.88a63 63 0 0 1 1.056-1.452q.528-.704 1.012-1.452 1.54-2.2 1.54-3.124 0-.396-.264-.396-.175 0-.528.176-1.144.836-2.728 2.024a172 172 0 0 1-3.652 2.728h-.308q-.308 0-.308-.088t.484-.44a179 179 0 0 1 3.212-2.508q1.716-1.32 3.608-2.728.484-.44 1.364-.44t.88.792q0 .88-1.276 2.816a2.3 2.3 0 0 1-.22.352q-.132.131-.22.308h.836q.484 0 1.1-.044 1.056-.088 1.804 0l.352-.616q.175-.308.396-.66.484-.748.924-1.364.484-.615.968-1.1.308-.396.968-.396.352.088.352.22l-1.54 2.552q-1.54 2.552-1.54 3.696 0 1.364 1.188 1.364 1.496 0 4.356-2.596.132-.132.264-.132t.132.176q0 .264-.88.88-1.408 1.232-2.552 1.892-1.144.615-2.156.616-1.98 0-1.98-1.672 0-1.1.484-2.244a15.7 15.7 0 0 0-2.86.044q-.617.044-.792.044h-.264a32 32 0 0 0-1.1 1.672q-.44.792-.44.88m39.417-2.42q0 .263-.66.704-3.124 2.112-3.476 2.332-1.98 1.188-3.3 1.188-.748 0-1.276-.528a1.82 1.82 0 0 1-.484-1.276q0-2.2 2.816-6.292.22-.308.22-.396 0-.044-.044-.044-.176 0-.616.308l-5.456 4.092q-1.276 1.1-3.74 3.08-.352.264-.968.484-.308 0-.308-.44 0-.88 1.452-2.816 1.496-1.98 1.496-2.772 0-.748-.704-.748-1.056 0-4.224 2.86a51 51 0 0 0-3.784 3.74q-.616.66-.968.66-.572 0-.572-.616 0-.175.308-.88a179 179 0 0 0 2.068-2.904q1.54-2.2 1.54-3.124 0-.396-.264-.396-.132 0-.528.176l-6.38 4.752h-.308q-.308 0-.308-.088 0-.132.484-.44a421 421 0 0 1 6.82-5.236q.528-.44 1.364-.44.88 0 .88.792 0 .175-.088.528-.88 1.54-2.244 3.916-.176.308-.176.396 0 .045.088.044l.132-.044 3.256-2.816q2.508-2.112 3.608-2.112 1.452 0 1.452.924 0 .792-.88 2.42-.836 1.584-.836 1.716t.088.132q.176 0 .616-.308l9.152-6.908q.44-.352.924-.352.308 0 .44.132.132.088.132.352a.82.82 0 0 1-.176.528 819 819 0 0 1-2.508 3.564q-1.496 2.288-1.496 3.96 0 1.056 1.144 1.012 1.364-.044 3.08-1.1l2.816-1.76q.132-.132.264-.132t.132.176m13.707 0q0 .528-2.728 2.024-2.86 1.584-4.092 1.584-2.289 0-2.288-2.42 0-.66.704-1.496 0-.045-.044-.044.043 0-2.376 1.848-2.42 1.804-3.476 1.804-1.012 0-1.012-.836 0-2.025 3.388-4.708 3.212-2.596 5.016-2.596.263.044.572.308.351.22.352.352 0 .045-.044.088-2.464 0-6.292 3.828-1.233 1.231-1.232 2.068 0 .308.308.308.968 0 3.696-2.244 2.2-1.848 3.124-2.948.44-.528.616-.528.44 0 .44.616 0 .22-.572 1.012-1.892 2.595-1.892 3.3 0 1.232 1.364 1.232 2.244 0 6.072-2.596.132-.132.264-.132t.132.176"/></svg>