<svg xmlns="http://www.w3.org/2000/svg" width="315" height="116" fill="none" viewBox="0 0 315 116"><g fill="#181818" clip-path="url(#a)"><path d="M27.19 60.36a12 12 0 0 1-1.54-2.75c-2.43-6.73 1.31-23.05 3.67-30.07 3.16-9.36 8.46-18 10.94-27.54 1.19.67 2.56 0 3.55.23s2.11 1.08 3.27 1.26c4.49.68 13.08-1.11 14.3 5.05l-6 1c1.77.11 3.49.37 5.27.52.78.07 2-.53 1.76.73-4.11 2.23-13.43.3-17.6-1.5-1.63-.7-2.11-2-3.26-2.77-.51-.33-.39-.81-1 0-2.92 9.49-7.15 18.57-9.46 28.26-1.26 5.27-4.14 19.47-3.34 24.27.61 3.61 6.53 6.85 9.83 7.28 8.17 1.06 12.07-4.06 14.66-10.9 5.13-13.47 6.65-28.76 9.13-42.86.64 0 1.35-.18 1.78.49.82 1.3-4.15 26.74-5.05 30.19-1.36 5.2-4.53 15.78-8 19.62-2.18 2.38-5.12 3.21-7.8 4.77 5.09 1.57 12.12 5 13.61 10.56s-6.33 5.58-10 4.43c-4.13-1.29-6.33-5.25-9.64-7.7.09 4.93 2.19 11.08 5.79 14.58 3 2.9 5.5 3.3 9.55 3 1-.07 2.57-.89 3-.83 2 .24.74 2-.58 2.77-8.75 5.21-17.07-5.51-18.93-13.11l-1.36-5.42-4.54 20.1c7.7 1.51 22.07 10.79 11 18.33-8.08 5.53-27 2.16-32.26-6.9-4-6.94-2-13.85 6.53-14.82 2.4-.28 8.27 1.32 10-.07.85-.69 3.44-13.49 4.22-15.64l-6.27 6.05c-5.51 3.75-11.24 4.88-17.38 1.77-1.49-.76-5.56-3.52-5-5.5.82-2.85 6.05 2.89 7.82 3.66 4.63 2 8.8.68 13.11-1.36 2.26-1.07 7.34-5 8.73-7 .493-.996.83-2.062 1-3.16-2.39.89-4.37 2.54-6.7 3.61-4.57 2.09-12.34 5.57-14.76-1-1.43-3.88.64-7.26 4-9.25 2.14-.994 4.361-1.8 6.64-2.41zm17.6-56.84c-.37-.81-1.11-1.66-2-1.49.35.82 1.09 1.64 2 1.49m-31 62.54c-1.29 1.37-2.64 5.46-.66 6.6 3.5 2 18.3-4.51 18.48-6.51.31-3.62-9.29-1.74-11.19-1.24s-7.39 3.9-4.3 0c-.36-.33-2.03.83-2.33 1.15M30.2 82.48c.41-3.93 2.58-7.85 3.21-11.67.14-.86.53-1.24-.44-1.9-1 3.86-2.53 8-3.14 11.94-.09.54-.54 1.75.37 1.63m11.07-8c1 3 11.5 6.77 12.53 3.71 1.47-4.34-12.16-8.86-15.55-8.23l5 4.27zm-16.6 17.6c-3.67.93-8.49.1-11.73 2.1s-3.8 3.58-2.34 6.95l1.49-3.52c-1.62 8.68 11.63 10.94 17.86 10.55 1-.06 5.77-1.85 5.28.26-6.45 3.64-14.34 1-20.36-2.26-.14.72 1.24 1.84 1.75 2.27 4.66 3.88 18.29 5.36 23.31 2.18 7.2-4.58-1.1-9.94-5.69-12.26-1.36-.68-6.22-2.18-6.56-2.49a2.27 2.27 0 0 1-.5-1.77h-.49c-.46 2.52-3.82.38-2.02-2.05z"/><path d="M55.37 33.67c-.28.24-2.95-.91-3.5-1.28-1.24-.83-2.41-3.22-3-3.51s-3.24 1.37-4.68 1.18c-2.53-.33-4.34-3.94-5.76-4.35s-2.48.74-3.66.17c3.95-5.09 7.11 1.32 8.87 1.66 1.35.26 3.65-2 6.24-1.2.73.23 5.55 5.29 5.77 5.82a4.3 4.3 0 0 1-.28 1.51m-12.6 20.65c.59 2.18-2.77 3.52-3.51 1.76s2.36-1.41 3.51-1.76m-7.29-2.34c4.36-.94 2.46 2.95.24 2.09-.87-.34-1.5-1.81-.24-2.09m15.89-15.76c1.14 1.12-1.72 2.7-3 2-.48-1.43 2.38-2.55 3-2m-6.08 15.59c-.34-.31-.11-3 1.76-2.51 1.68.43-.68 3.44-1.76 2.51m-9.8-11.56c1.71-.46 2.31 1.64 1 2-1.72.42-2.32-1.65-1-2m14.32 1.5.51 2.51h-2c-.14-1.21-.07-2.59 1.49-2.51m-15.59 4.02c.36.31.67 2.5-.25 2.51s-1.12-3.61.25-2.51m24.15-26.1c.27.27-.55 2.76-1.5 2-.5-1 .89-2.64 1.5-2m-17.61 24.6c.17.18.32 1.88-.74 1.5-1.55-.56.25-2.03.74-1.5m12.57-24.15h-1v1.5h1z"/></g><path fill="#f5cdcb" d="M28.882 68.656q-.176.572-3.036 2.288a119 119 0 0 0-4.884 2.992q-6.292 12.32-7.832 14.872-4.356 7.216-7.26 7.216-1.32 0-1.32-1.716 0-10.12 15.268-20.416 1.012-1.98 3.696-7.524 0-.044-.088-.044-.087 0-.308.22a151 151 0 0 1-2.332 2.156q-3.124 2.904-5.104 2.904-.924 0-.924-1.1 0-1.98 2.86-4.576 3.08-2.816 6.028-2.816.836 0 1.408.352l.924-1.276q.307-.396.616-.396.572 0 .572.616 0 .307-.22.616-2.068 3.08-5.412 9.768a61 61 0 0 1 4.092-2.376q2.2-1.275 2.86-1.804.132-.132.264-.132t.132.176m-4.136-4.664q0-.176-.396-.176-2.376 0-5.192 2.288-2.816 2.243-2.816 4.004 0 .528.484.528 1.805 0 7.7-6.292.22-.308.22-.352m-5.544 11.176q-13.42 9.504-13.42 18.788 0 1.144.748 1.144 2.817 0 12.672-19.932m10.508-4.224q.351 0 1.716-.616 2.42-1.144 4.268-2.728 1.891-1.628 3.212-3.344.66-.66.968-.66.571 0 .572.572 0 .352-.308.792-2.64 3.96-2.64 5.148 0 1.1 1.012 1.1 1.54 0 5.588-2.772.087-.088.396-.308.352-.22.484-.22t.132.176q0 .264-.66.704-5.457 3.652-7.304 3.652-1.233 0-1.232-1.408 0-.44.088-.924.132-.528.264-.924.175-.396.264-.66.132-.264.132-.22 0-.176-.132-.176-.22 0-.924.528-.66.528-2.2 1.408-.75.353-1.364.704-.616.352-1.188.66a7 7 0 0 1-1.1.484 2.8 2.8 0 0 1-1.1.132 3.2 3.2 0 0 1-1.1-.264q-.528-.264-.528-1.1 0-.484.264-.836.22-.352.484-.352.22 0 .352.22t.308.528q.175.264.396.484.22.22.616.22zm23.698-3.652q.66-.66.968-.66.573 0 .572.572 0 .353-.308.792-.528.792-.88 1.408-.35.572-.44.968-.088.397.176.616.265.22 1.012.22 1.54 0 5.588-2.772.09-.088.396-.308.352-.22.484-.22t.132.176q0 .264-.66.704-5.456 3.652-7.304 3.652-1.231 0-1.232-1.408.001-.616.176-1.188.177-.572.352-.924-.307 0-.616-.044-.263-.045-.572-.088-.792.572-1.804 1.188-1.011.572-2.024 1.056-1.012.484-1.936.792-.879.264-1.452.22a3.2 3.2 0 0 1-1.1-.264q-.528-.264-.528-1.1 0-.484.264-.836.22-.352.484-.352.22 0 .352.22t.308.528q.177.264.396.484t.616.22h.264q.132 0 .528-.132.441-.133 1.188-.484a33 33 0 0 1 1.98-.88q.88-.396 1.628-.88a6 6 0 0 1-1.584-.572q-1.056-.528-.924-1.936.09-.968.792-1.584.705-.615 1.584-.88a4.2 4.2 0 0 1 1.804-.132q.925.088 1.408.616.484.484.352 1.364-.087.88-1.232 2.2l-.308.308a1.8 1.8 0 0 1-.352.264l.748.22q.045-.089.176-.264.132-.22.264-.396.133-.22.22-.352.09-.132.044-.132m-.836-.836a6 6 0 0 0 .22-.396q.133-.176.22-.396.132-.352.132-.748.045-.396-.264-.748-.396-.44-1.32-.176a3.76 3.76 0 0 0-1.584.836q-.704.616-.924 1.452-.176.792.792 1.408l1.32.352q.353-.308.704-.704.353-.396.704-.88m32.832 2.2q-.263.748-3.212 2.244-2.948 1.496-4.356 1.496-.748 0-.748-.528 0-.704 1.452-2.816 1.497-2.112 1.496-2.772 0-.748-.704-.748-1.056 0-4.224 2.86a51 51 0 0 0-3.784 3.74q-.615.66-.968.66-.572 0-.572-.616 0-.175.308-.88 1.056-1.452 2.068-2.904 1.54-2.2 1.54-3.124 0-.396-.264-.396-.132 0-.528.176l-6.38 4.752h-.308q-.308 0-.308-.088 0-.132.484-.44a420 420 0 0 1 6.82-5.236q.528-.44 1.364-.44.88 0 .88.792 0 .924-1.276 2.816-1.232 1.848-1.232 2.024 0 .044.088.044-.043 0 2.948-2.464Q78.98 64.3 80.036 64.3q1.629 0 1.628 1.1 0 .967-1.408 3.168t-1.408 2.508q0 .352.44.352.837 0 3.212-1.276 1.629-.924 2.508-1.54.132-.132.264-.132t.132.176m14.23 0q0 .264-.66.704-5.412 3.652-7.303 3.652-1.233 0-1.233-1.408 0-.792.308-1.584.44-1.1.44-1.144 0-.176-.132-.176-.043 0-.22.088-.968.968-2.815 2.332-2.377 1.76-3.3 1.76-1.056 0-1.056-1.056 0-.615 1.54-3.388 1.54-2.816 1.54-3.256 0-.484-.792-.484-.176 0-.176-.528.395-.132.835-.132 1.54 0 1.54.88 0 .967-1.364 3.256t-1.364 2.86q0 .352.309.352.703 0 3.432-2.332 2.771-2.332 4.267-4.224.66-.66.968-.66.573 0 .573.572 0 .308-.309.792-2.64 3.96-2.64 5.148 0 1.1 1.012 1.1 1.54 0 5.588-2.772.22-.176.617-.396.13-.132.263-.132t.133.176m3.927 2.42q-.132.176-.352.484l-.44.528a2.3 2.3 0 0 1-.352.484q-.175.22-.264.22-.572 0-.572-.616 0-.22.308-.88.528-.748 1.056-1.452t1.012-1.452q1.54-2.2 1.54-3.124 0-.396-.264-.396-.175 0-.528.176-1.144.836-2.728 2.024a170 170 0 0 1-3.652 2.728h-.308q-.308 0-.308-.088t.484-.44a181 181 0 0 1 3.212-2.508q1.716-1.32 3.608-2.728.485-.44 1.364-.44t.88.792q0 .88-1.276 2.816a2.3 2.3 0 0 1-.22.352q-.132.132-.22.308h.836q.485 0 1.1-.044 1.056-.088 1.804 0l.352-.616q.177-.307.396-.66.484-.748.924-1.364.485-.615.968-1.1.309-.396.968-.396.352.088.352.22l-1.54 2.552q-1.54 2.552-1.54 3.696 0 1.364 1.188 1.364 1.497 0 4.356-2.596.132-.132.264-.132t.132.176q0 .264-.88.88-1.407 1.232-2.552 1.892-1.143.615-2.156.616-1.98 0-1.98-1.672 0-1.1.484-2.244a15.7 15.7 0 0 0-2.86.044q-.615.044-.792.044h-.264q-.615.88-1.1 1.672-.44.792-.44.88m39.417-2.42q0 .264-.66.704-3.124 2.112-3.476 2.332-1.98 1.188-3.3 1.188-.748 0-1.276-.528a1.82 1.82 0 0 1-.484-1.276q0-2.2 2.816-6.292.22-.307.22-.396 0-.044-.044-.044-.176 0-.616.308l-5.456 4.092q-1.276 1.1-3.74 3.08-.352.264-.968.484-.308 0-.308-.44 0-.88 1.452-2.816 1.496-1.98 1.496-2.772 0-.748-.704-.748-1.056 0-4.224 2.86a51 51 0 0 0-3.784 3.74q-.616.66-.968.66-.572 0-.572-.616 0-.175.308-.88a179 179 0 0 0 2.068-2.904q1.54-2.2 1.54-3.124 0-.396-.264-.396-.132 0-.528.176l-6.38 4.752h-.308q-.308 0-.308-.088 0-.132.484-.44a420 420 0 0 1 6.82-5.236q.528-.44 1.364-.44.88 0 .88.792 0 .175-.088.528-.88 1.54-2.244 3.916-.176.308-.176.396 0 .044.088.044l.132-.044 3.256-2.816q2.508-2.112 3.608-2.112 1.452 0 1.452.924 0 .792-.88 2.42-.836 1.584-.836 1.716t.088.132q.176 0 .616-.308l9.152-6.908q.44-.352.924-.352.308 0 .44.132.132.088.132.352a.82.82 0 0 1-.176.528 831 831 0 0 1-2.508 3.564q-1.496 2.287-1.496 3.96 0 1.056 1.144 1.012 1.364-.044 3.08-1.1l2.816-1.76q.132-.132.264-.132t.132.176m10.319 0q0 .308-1.804 1.452-4.445 2.816-6.38 2.816-2.86 0-2.86-3.344 0-2.464 2.376-4.928 2.42-2.508 4.576-2.508.66 0 .66.616 0 1.495-2.596 4.224-2.068 2.156-3.388 2.948.132 1.936 1.848 1.936 1.628 0 5.456-2.2.308-.176 1.716-1.056.132-.132.264-.132t.132.176m-4.796-5.06q0-.528-.308-.528-1.1 0-2.684 2.2t-1.628 3.96q.836-.264 2.64-2.288 1.98-2.2 1.98-3.344m17.616 5.06q0 .615-3.168 2.288t-7.7 1.672q-2.596 0-2.816-.528 0-.308.484-.308.66.132.836.132 2.244 0 4.796-2.288 2.42-2.156 2.42-3.696 0-.66-.836-.66-4.136 0-9.02 7.832-.396.615-4.796 9.328-4.444 8.755-4.708 9.372-.308.748-.792.748a.6.6 0 0 1-.264-.044q-.264-.088-.264-.528 0-1.584 19.8-36.96.353-.615.66-.616.044 0 .176.088t.132.352q0 .484-.264.748-.044.132-3.608 6.512-3.388 6.16-3.388 6.556 0 .045.044.088.044-.088.308-.352 1.056-1.275 2.904-2.596 2.464-1.672 4.312-1.672 1.364 0 1.364 1.056 0 3.212-5.148 6.292 3.916 0 8.14-2.86.132-.132.264-.132t.132.176m10.426 0q0 .308-1.804 1.452-4.445 2.816-6.38 2.816-2.86 0-2.86-3.344 0-2.464 2.376-4.928 2.42-2.508 4.576-2.508.66 0 .66.616 0 1.495-2.596 4.224-2.068 2.156-3.388 2.948.132 1.936 1.848 1.936 1.628 0 5.456-2.2.308-.176 1.716-1.056.132-.132.264-.132t.132.176m-4.796-5.06q0-.528-.308-.528-1.1 0-2.684 2.2t-1.628 3.96q.836-.264 2.64-2.288 1.98-2.2 1.98-3.344m14.272 5.06q0 .176-.66.704a362 362 0 0 0-3.476 2.288q-2.508 1.496-4.092 1.496-.923 0-1.628-.66t-.704-1.496q0-2.904 2.816-5.324 2.508-2.156 4.664-2.156 1.365 0 1.364 1.1 0 .615-1.804 2.42a.55.55 0 0 1-.396.176q-.351 0-.352-.396 0-.176.132-.264.132-.132.528-.968.396-.88.396-1.32 0-.132-.308-.132-1.1 0-3.212 1.804-2.552 2.156-2.552 4.444 0 1.672 1.452 1.672 2.245 0 6.82-3.036.22-.176.616-.396.132-.132.264-.132t.132.176m26.525 0q0 .264-.66.704-3.123 2.112-3.476 2.332-1.98 1.188-3.3 1.188a1.74 1.74 0 0 1-1.276-.528 1.82 1.82 0 0 1-.484-1.276q0-2.2 2.816-6.292.22-.307.22-.396 0-.044-.044-.044-.175 0-.616.308l-5.456 4.092q-1.275 1.1-3.74 3.08-.351.264-.968.484-.308 0-.308-.44 0-.88 1.452-2.816 1.496-1.98 1.496-2.772 0-.748-.704-.748-1.056 0-4.224 2.86a51 51 0 0 0-3.784 3.74q-.615.66-.968.66-.572 0-.572-.616 0-.175.308-.88 1.056-1.452 2.068-2.904 1.54-2.2 1.54-3.124 0-.396-.264-.396-.132 0-.528.176l-6.38 4.752h-.308q-.308 0-.308-.088 0-.132.484-.44a425 425 0 0 1 6.82-5.236q.528-.44 1.364-.44.88 0 .88.792 0 .175-.088.528a1664 1664 0 0 1-2.244 3.916q-.176.308-.176.396 0 .044.088.044l.132-.044 3.256-2.816Q197.1 64.3 198.2 64.3q1.452 0 1.452.924 0 .792-.88 2.42-.836 1.584-.836 1.716t.088.132q.177 0 .616-.308l9.152-6.908q.441-.352.924-.352.308 0 .44.132.132.088.132.352a.8.8 0 0 1-.176.528 831 831 0 0 1-2.508 3.564q-1.496 2.287-1.496 3.96 0 1.056 1.144 1.012 1.365-.044 3.08-1.1l2.816-1.76q.132-.132.264-.132t.132.176m15.951-2.2q0 .66-1.012 1.144a4.84 4.84 0 0 1-2.112.484q-1.232 0-3.256-.792-2.024-.836-3.168-.836-.484 0-1.364.44-.88.396-1.1.396l-.088-.044q0-.308 1.056-1.012 1.276-.792 2.596-.792 1.1 0 3.256.924 2.156.88 2.904.88.836 0 1.496-.44.703-.484.66-.484.132 0 .132.132m12.653 2.2q0 .176-.66.704a362 362 0 0 0-3.476 2.288q-2.508 1.496-4.092 1.496-.924 0-1.628-.66t-.704-1.496q0-2.904 2.816-5.324 2.508-2.156 4.664-2.156 1.364 0 1.364 1.1 0 .615-1.804 2.42a.55.55 0 0 1-.396.176q-.352 0-.352-.396 0-.176.132-.264.132-.132.528-.968.396-.88.396-1.32 0-.132-.308-.132-1.1 0-3.212 1.804-2.552 2.156-2.552 4.444 0 1.672 1.452 1.672 2.244 0 6.82-3.036.22-.176.616-.396.132-.132.264-.132t.132.176m18.737-27.28q0 4.445-4.268 11-3.3 5.104-8.184 10.032-4.311 4.4-5.28 4.4.132 4.136 2.596 4.136 1.893 0 4.092-1.628a3.5 3.5 0 0 1-.44-1.716q0-2.992 1.936-2.992.792 0 .924 1.1 0 1.54-1.32 3.08.748 1.232 2.332 1.232 1.716 0 3.344-1.408.132-.132.264-.132t.132.176-.44.528q-1.935 1.628-3.916 1.628-1.627 0-2.596-1.1-2.595 2.376-5.06 2.376-1.451 0-2.42-1.188-.924-1.232-.924-2.948 0-4.884 3.432-11.836 3.125-6.336 7.436-11.22 4.312-4.928 6.952-4.928 1.408 0 1.408 1.408m-1.276.66q0-1.012-.792-1.012-2.067 0-5.94 4.972-3.651 4.665-6.556 10.516-3.08 6.16-3.08 9.284 0 .176.088.176.837 0 4.84-4.312 4.445-4.752 7.524-9.592 3.916-6.16 3.916-10.032m-7.788 23.936q0-.44-.308-.44-.924 0-.924 1.804 0 .615.176 1.1 1.056-1.188 1.056-2.464m18.914 2.684q0 .528-2.728 2.024-2.859 1.584-4.092 1.584-2.288 0-2.288-2.42 0-.66.704-1.496 0-.044-.044-.044.045 0-2.376 1.848-2.42 1.804-3.476 1.804-1.012 0-1.012-.836 0-2.025 3.388-4.708 3.213-2.596 5.016-2.596.264.044.572.308.352.22.352.352 0 .045-.044.088-2.464 0-6.292 3.828-1.232 1.231-1.232 2.068 0 .308.308.308.969 0 3.696-2.244 2.2-1.848 3.124-2.948.44-.528.616-.528.44 0 .44.616 0 .22-.572 1.012-1.892 2.595-1.892 3.3 0 1.232 1.364 1.232 2.244 0 6.072-2.596.132-.132.264-.132t.132.176m13.135 0q-.176.572-3.036 2.288a120 120 0 0 0-4.884 2.992q-6.291 12.32-7.832 14.872-4.356 7.216-7.26 7.216-1.32 0-1.32-1.716 0-10.12 15.268-20.416 1.012-1.98 3.696-7.524 0-.044-.088-.044-.087 0-.308.22a148 148 0 0 1-2.332 2.156q-3.124 2.904-5.104 2.904-.924 0-.924-1.1 0-1.98 2.86-4.576 3.08-2.816 6.028-2.816.837 0 1.408.352l.924-1.276q.309-.396.616-.396.572 0 .572.616 0 .307-.22.616-2.067 3.08-5.412 9.768a61 61 0 0 1 4.092-2.376q2.2-1.275 2.86-1.804.132-.132.264-.132t.132.176m-4.136-4.664q0-.176-.396-.176-2.376 0-5.192 2.288-2.816 2.243-2.816 4.004 0 .528.484.528 1.805 0 7.7-6.292.22-.308.22-.352m-5.544 11.176q-13.42 9.504-13.42 18.788 0 1.144.748 1.144 2.817 0 12.672-19.932m20.056-6.512q0 .308-1.804 1.452-4.444 2.816-6.38 2.816-2.86 0-2.86-3.344 0-2.464 2.376-4.928 2.42-2.508 4.576-2.508.66 0 .66.616 0 1.495-2.596 4.224-2.068 2.156-3.388 2.948.132 1.936 1.848 1.936 1.628 0 5.456-2.2.308-.176 1.716-1.056.132-.132.264-.132t.132.176m-4.796-5.06q0-.528-.308-.528-1.1 0-2.684 2.2t-1.628 3.96q.836-.264 2.64-2.288 1.98-2.2 1.98-3.344m21.796-12.76q-.527.044-1.76.044a30 30 0 0 0-2.772.044q-1.539.044-3.168.264a13.2 13.2 0 0 0-2.992.66q-1.32.44-2.156 1.188-.791.705-.704 1.892.089.88.836 2.024a62 62 0 0 1 1.584 2.464q.837 1.32 1.408 2.816.572 1.452.308 3.036 0 .968-.396 2.288-.396 1.275-1.32 2.42-1.012 1.32-2.332 2.068-1.276.748-2.464.748-1.76 0-1.76-2.2 0-2.904 2.816-5.764 2.376-2.42 3.476-2.42.704 0 .704.44 0 .176-.264.352-1.1.22-2.86 2.244-2.2 2.465-2.2 4.752 0 1.496 1.056 1.496 1.54 0 3.124-1.804.397-.528.748-1.144.352-.615.616-1.232.264-.616.396-1.188.176-.616.176-1.056 0-1.055-.132-1.76t-.396-1.232a6 6 0 0 0-.66-1.1 23 23 0 0 1-.88-1.276q-.528-.792-1.012-1.54a13 13 0 0 1-.836-1.496 6 6 0 0 1-.484-1.496q-.087-.748.176-1.54.66-1.056 2.024-1.848 1.365-.792 3.036-1.276a23 23 0 0 1 3.564-.792 32 32 0 0 1 3.608-.308q1.716-.044 3.124.132t2.156.484q.616.264.528.484-.043.175-1.056.132z"/><path fill="#f5cdcb" d="M56.81 55.89q.11 0 .11.088 0 .066-.11.066Q56.193 56 53.794 56q-.594 0-.858-.22a1.1 1.1 0 0 1-.33-.55l-.682-1.914q-.33-.968-.638-1.474a1.87 1.87 0 0 0-.814-.77q-.483-.242-1.32-.242h-.198v2.882q0 1.166.33 1.65.352.484 1.078.484.11 0 .11.088t-.11.088Q50.033 56 49 56h-2.618q-1.033 0-1.386.022-.11 0-.11-.088t.11-.088q.727 0 1.078-.484t.352-1.65v-5.434q0-1.166-.352-1.65t-1.078-.484q-.11 0-.11-.088t.11-.088l1.386.022H49l1.364-.022q.11 0 .11.088t-.11.088q-.726 0-1.078.484-.33.484-.33 1.65v2.42h.198q1.563 0 2.376-.484.814-.506 1.474-1.716l.22-.418q.375-.682.374-1.166 0-.792-1.056-.792-.11 0-.11-.088t.11-.088l1.364.022h.528l1.364-.022q.11 0 .11.088t-.11.088q-.681 0-1.122.418-.44.396-1.1 1.496l-.33.572q-.549.924-1.188 1.43-.615.485-1.54.66 1.673.023 2.618.594.946.55 1.54 1.936l.33.792q.462 1.078.814 1.474.352.374.99.396m11.907-9.944q.088 0 .088.088t-.088.088q-.484 0-.814.418-.309.419-.792 1.584l-3.432 8.118q-.704 1.584-1.298 2.508-.573.946-1.254 1.408a2.7 2.7 0 0 1-1.562.462 3.43 3.43 0 0 1-1.76-.462q-.793-.462-.88-1.078-.023-.308.286-.99.307-.66.616-1.078.307-.396.286-.044-.022.462.308 1.188.351.726.902 1.276.55.55 1.166.55.638 0 1.122-.506.483-.506.99-1.65.066-.33-.154-.946a10 10 0 0 0-.462-1.144l-3.212-7.612q-.484-1.166-.814-1.584-.309-.418-.792-.418-.088 0-.088-.088t.088-.088l.968.022h2.794l1.628-.022q.153 0 .154.088 0 .088-.154.088-1.32 0-1.32.968 0 .462.242 1.034l2.596 6.116q.044.133.11.154.087 0 .132-.132l2.596-6.138q.264-.638.264-1.012 0-.99-1.408-.99-.132 0-.132-.088t.132-.088l1.716.022h.264zm10.824 3.828q.022.088-.044.088t-.088-.088q-.814-3.058-1.804-3.41-.198-.154-1.54-.154-.132 0-.22.154a.63.63 0 0 0-.088.352v6.996q0 1.166.33 1.65.352.484 1.078.484.11 0 .11.088t-.11.088Q76.835 56 75.801 56h-2.618q-1.035 0-1.364.022-.11 0-.11-.088t.11-.088q.726 0 1.056-.484.352-.484.352-1.65v-6.996a.63.63 0 0 0-.088-.352q-.088-.154-.22-.154-1.342 0-1.54.154-.99.352-1.804 3.41-.022.088-.088.088t-.044-.088q.264-1.957.264-3.586 0-.352.286-.352.132 0 .748.088.638.088 2.486.088h2.53q1.782 0 2.442-.088t.814-.088q.264 0 .264.352 0 1.627.264 3.586m13.547-4.136q1.54 0 2.772.66a4.75 4.75 0 0 1 1.958 1.804q.704 1.166.704 2.662a5.24 5.24 0 0 1-.814 2.838q-.791 1.275-2.2 2.024-1.386.726-3.058.726-1.517 0-2.728-.638a5 5 0 0 1-1.914-1.826q-.704-1.166-.704-2.662 0-.088-.044-.11-.021-.044-.132-.044h-2.134q-.132 0-.132.242v2.398q0 1.166.33 1.65.352.484 1.078.484.11 0 .11.088t-.11.088Q85.72 56 84.706 56h-2.618q-1.033 0-1.386.022-.11 0-.11-.088t.11-.088q.726 0 1.078-.484t.352-1.65V48.3q0-1.166-.352-1.65-.351-.506-1.078-.506-.11 0-.11-.088t.11-.088q.705.044 1.386.044h2.618q.66 0 1.364-.044.11 0 .11.088t-.11.088q-.726 0-1.078.506-.33.484-.33 1.65v2.354q0 .242.154.264h2.112q.111 0 .132-.022.045-.044.066-.154a5.15 5.15 0 0 1 .924-2.596 5.8 5.8 0 0 1 2.156-1.826 6.2 6.2 0 0 1 2.882-.682m.638 10.208q1.188 0 1.914-.726t.726-2.112q0-1.343-.704-2.97-.681-1.65-1.738-2.794Q92.89 46.1 91.9 46.1q-1.231 0-1.958.726-.704.726-.704 2.134 0 1.32.682 2.97.704 1.628 1.76 2.772t2.046 1.144m13.56-10.23a3.66 3.66 0 0 1 2.09.638q.967.616 1.54 1.804.594 1.166.594 2.706 0 1.452-.682 2.75a5.35 5.35 0 0 1-1.826 2.046 4.4 4.4 0 0 1-2.508.77q-.837 0-1.386-.22a5.3 5.3 0 0 1-1.034-.55q-.33-.22-.44-.22-.198 0-.198.374v2.42q0 1.166.308 1.628.33.485.99.528.11 0 .11.066 0 .088-.11.088a50 50 0 0 0-2.288-.044 74 74 0 0 0-2.838.044q-.11 0-.11-.088t.11-.088q.66.022.968-.462.33-.484.33-1.694v-9.328q0-.835-.22-1.21-.198-.396-.77-.396-.11 0-.374.044-.089.022-.11-.044 0-.088.066-.11 1.034-.242 2.112-.638 1.1-.396 1.782-.858.11-.066.176-.044.087.023.066.132a23 23 0 0 0-.154 1.936q0 .264.022.506.044.22.11.198.594-1.188 1.474-1.936t2.2-.748M106.67 56q1.407 0 2.024-.792.638-.792.638-2.31 0-1.474-.506-2.838t-1.364-2.2q-.837-.836-1.826-.836t-1.606.836q-.594.836-.594 2.244v1.474q0 1.914.858 3.168Q105.173 56 106.67 56m18.828-.154q.11 0 .11.088t-.11.088q-.33-.022-1.364-.022h-2.618q-.968 0-1.298.022-.11 0-.11-.088t.11-.088q.705 0 1.012-.484.33-.484.33-1.65V50.83q0-.264-.198-.242-1.165.176-2.31.176-1.143 0-2.31-.176h-.022q-.132 0-.132.242v2.882q0 1.166.308 1.65.33.484 1.034.484.11 0 .11.088t-.11.088Q117.6 56 116.632 56h-2.618q-1.033 0-1.386.022-.11 0-.11-.088t.11-.088q.727 0 1.078-.484t.352-1.65v-5.456q0-1.165-.352-1.65-.351-.484-1.078-.484-.11 0-.11-.088t.11-.088l1.386.022h2.618l1.298-.022q.11 0 .11.088t-.11.088q-.704 0-1.034.484-.308.485-.308 1.65v1.914q0 .242.154.264 1.122.176 2.244.176 1.188 0 2.376-.176.11-.022.154-.088a.3.3 0 0 0 .044-.176v-1.914q0-1.165-.33-1.65-.307-.484-1.012-.484-.11 0-.11-.088t.11-.088l1.298.022h2.618l1.364-.022q.11 0 .11.088t-.11.088q-.726 0-1.078.484-.33.485-.33 1.65v5.456q0 1.166.33 1.65.352.484 1.078.484m16.667 0q.11 0 .11.088t-.11.088a27 27 0 0 0-1.364-.022h-2.618q-1.034 0-1.386.022-.088 0-.088-.088t.088-.088q.748 0 1.078-.484.352-.484.352-1.65V48.19q0-1.166-.352-1.65-.33-.484-1.078-.484-.088 0-.088-.088t.088-.088l1.386.022h2.618l1.364-.022q.11 0 .11.088t-.11.088q-.726 0-1.078.484-.33.484-.33 1.65v5.522q0 1.166.33 1.65.352.484 1.078.484m-9.724-5.588q4.51-.066 4.51 2.75 0 1.452-1.056 2.222t-3.146.77h-4.62q-1.034 0-1.386.022-.11 0-.11-.088t.11-.088q.726 0 1.078-.484t.352-1.65v-5.456q0-1.165-.352-1.65-.351-.484-1.078-.484-.11 0-.11-.088t.11-.088l1.386.022h2.618l1.364-.022q.11 0 .11.088t-.11.088q-.726 0-1.078.484-.33.485-.33 1.65v1.782q0 .242.198.242zm-.352 5.566q1.056-.022 1.628-.77.594-.748.594-2.002 0-1.232-.594-1.914-.594-.705-1.716-.682l-1.1.022q-.198 0-.198.242v4.532q0 .352.088.484.088.11.352.11zm20.853-1.782q.021-.022.066.022.066.045.022.11a5.65 5.65 0 0 1-2.068 1.606q-1.21.55-2.53.55a5.36 5.36 0 0 1-2.574-.638 4.86 4.86 0 0 1-1.892-1.804q-.682-1.188-.682-2.728 0-1.518.748-2.794a5.5 5.5 0 0 1 2.068-2.002 5.6 5.6 0 0 1 2.838-.748q1.716 0 2.86.946 1.144.925 1.144 2.53 0 .726-.264 1.562-2.31.044-7.084.198.373 1.21 1.144 2.178a6.2 6.2 0 0 0 1.804 1.496q1.011.528 1.98.528 1.605 0 2.42-1.012m-5.082-8.008q-1.233 0-1.892.77-.638.748-.638 2.266 0 .748.22 1.628a87 87 0 0 0 2.948-.11q.44-.023.902-.044.483-.022.968-.022.198-.33.198-.814 0-.726-.418-1.584a4.5 4.5 0 0 0-1.034-1.474q-.617-.615-1.254-.616m23.889 9.812q.11 0 .11.088t-.11.088a26 26 0 0 0-1.364-.022h-2.618q-.968 0-1.298.022-.11 0-.11-.088t.11-.088q.704 0 1.012-.484.33-.484.33-1.65v-7.59h-4.752v7.59q0 1.166.308 1.65.33.484 1.034.484.11 0 .11.088t-.11.088q-.33-.022-1.298-.022h-2.618q-1.034 0-1.386.022-.11 0-.11-.088t.11-.088q.726 0 1.078-.484t.352-1.65v-5.456q0-1.165-.352-1.65t-1.078-.484q-.11 0-.11-.088t.11-.088l1.386.022h9.9l1.298-.022q.11 0 .11.088t-.11.088q-.704 0-1.034.484-.308.485-.308 1.65v5.456q0 1.166.33 1.65.352.484 1.078.484m12.8 0q.11 0 .11.088t-.11.088a27 27 0 0 0-1.364-.022h-2.618q-1.034 0-1.386.022-.11 0-.11-.088t.11-.088q.727 0 1.078-.484t.352-1.65v-7.59h-4.466q-.087 1.782-.44 6.754-.087 1.605-.506 2.552-.396.924-1.408.924-1.188 0-1.188-.66a.7.7 0 0 1 .022-.198l.528-2.09q.044-.11.11-.088.066 0 .066.11.023.945.242 1.276.22.33.726.33 1.101 0 1.254-2.156l.286-4.62.022-.44q0-.902-.33-1.298t-.99-.396q-.11 0-.11-.088t.11-.088l1.364.022h7.282l1.364-.022q.11 0 .11.088t-.11.088q-.726 0-1.078.484-.33.485-.33 1.65v5.456q0 1.166.33 1.65.352.484 1.078.484m12.322-3.608q0-.11.066-.11t.066.11q0 1.672-.726 2.86-.705 1.188-1.848 1.188-.837 0-1.408-.55-.573-.572-.638-1.694-.529 1.1-1.408 1.694a3.25 3.25 0 0 1-1.892.594q-1.738 0-2.574-.968a3.44 3.44 0 0 1-.836-2.288q0-1.276 1.144-2.046 1.165-.77 2.904-.77.594 0 1.32.11a10 10 0 0 1 1.342.286v-.968q0-3.388-2.948-3.388-1.21 0-2.068.792-.836.792-.836 2.376 0 .088-.044.132-.045.044-.088.044-.088 0-.088-.176 0-1.232.616-2.09a3.84 3.84 0 0 1 1.584-1.32 4.9 4.9 0 0 1 2.046-.44q4.356 0 4.356 4.07v3.608q0 1.452.748 1.452.726 0 .946-.638.219-.66.264-1.87m-6.644 2.838q2.156 0 2.156-2.618v-.132a2.28 2.28 0 0 0-.924-1.254 2.53 2.53 0 0 0-1.496-.484q-2.178 0-2.178 1.672 0 1.122.638 1.98.637.836 1.804.836m16.931-5.302q.022.088-.044.088t-.088-.088q-.814-3.058-1.804-3.41-.198-.154-1.54-.154-.132 0-.22.154a.63.63 0 0 0-.088.352v6.996q0 1.166.33 1.65.352.484 1.078.484.11 0 .11.088t-.11.088q-.33-.022-1.364-.022H200.8q-1.034 0-1.364.022-.11 0-.11-.088t.11-.088q.726 0 1.056-.484.352-.484.352-1.65v-6.996a.6.6 0 0 0-.088-.352q-.088-.154-.22-.154-1.341 0-1.54.154-.99.352-1.804 3.41-.022.088-.088.088t-.044-.088q.264-1.957.264-3.586 0-.352.286-.352.132 0 .748.088.638.088 2.486.088h2.53q1.782 0 2.442-.088a9 9 0 0 1 .814-.088q.264 0 .264.352 0 1.627.264 3.586m6.86.484q4.51-.066 4.51 2.75 0 1.452-1.056 2.222t-3.146.77h-4.62q-1.035 0-1.386.022-.11 0-.11-.088t.11-.088q.726 0 1.078-.484.351-.484.352-1.65v-5.456q0-1.165-.352-1.65t-1.078-.484q-.11 0-.11-.088t.11-.088l1.386.022h2.618l1.364-.022q.11 0 .11.088t-.11.088q-.727 0-1.078.484-.33.485-.33 1.65v1.782q0 .242.198.242zm-.352 5.566q1.055-.022 1.628-.77.594-.748.594-2.002 0-1.232-.594-1.914-.594-.705-1.716-.682l-1.1.022q-.198 0-.198.242v4.532q0 .352.088.484.087.11.352.11zm16.673.022q.11 0 .11.088t-.11.088a28 28 0 0 0-1.386-.022h-2.618q-1.013 0-1.364.022-.11 0-.11-.088t.11-.088q.726 0 1.056-.484.351-.484.352-1.65v-6.38q0-1.035-.616-1.078l-.77-.022q-.88-.022-1.32.22-.418.241-.55.748-.11.485-.11 1.43 0 .902.308 1.496.33.572.968.902 0-.022.044-.022l.066.066q.461.22 1.364.33.087.022.066.088 0 .066-.066.066a13 13 0 0 1-.88.022q-.903.022-1.364.132a1.4 1.4 0 0 0-.77.484q-.287.353-.462 1.122-.352 1.43-.946 2.112-.595.66-1.87.55-.198-.022-.198-.462 0-.352.132-.792.132-.462.308-.726t.308-.11q.528.374 1.012.374a1 1 0 0 0 .374-.066q.44-.242.616-.946.351-1.232 1.254-1.804-1.431-.242-2.178-.924-.726-.682-.726-1.716 0-1.408 1.122-2.134 1.143-.726 3.52-.726l3.938.022 1.386-.022q.11 0 .11.088t-.11.088q-.726 0-1.078.484-.352.485-.352 1.65v5.456q0 1.166.352 1.65t1.078.484"/><defs><clipPath id="a"><path fill="#fff" d="M0 0h63.26v115.05H0z"/></clipPath></defs></svg>