<svg xmlns="http://www.w3.org/2000/svg" width="295" height="116" fill="none" viewBox="0 0 295 116"><g fill="#f5cdcb" clip-path="url(#a)"><path d="M219.554 60.36a12 12 0 0 1-1.54-2.75c-2.43-6.73 1.31-23.05 3.67-30.07 3.16-9.36 8.46-18 10.94-27.54 1.19.67 2.56 0 3.55.23s2.11 1.08 3.27 1.26c4.49.68 13.08-1.11 14.3 5.05l-6 1c1.77.11 3.49.37 5.27.52.78.07 2-.53 1.76.73-4.11 2.23-13.43.3-17.6-1.5-1.63-.7-2.11-2-3.26-2.77-.51-.33-.39-.81-1 0-2.92 9.49-7.15 18.57-9.46 28.26-1.26 5.27-4.14 19.47-3.34 24.27.61 3.61 6.53 6.85 9.83 7.28 8.17 1.06 12.07-4.06 14.66-10.9 5.13-13.47 6.65-28.76 9.13-42.86.64 0 1.35-.18 1.78.49.82 1.3-4.15 26.74-5.05 30.19-1.36 5.2-4.53 15.78-8 19.62-2.18 2.38-5.12 3.21-7.8 4.77 5.09 1.57 12.12 5 13.61 10.56s-6.33 5.58-10 4.43c-4.13-1.29-6.33-5.25-9.64-7.7.09 4.93 2.19 11.08 5.79 14.58 3 2.9 5.5 3.3 9.55 3 1-.07 2.57-.89 3-.83 2 .24.74 2-.58 2.77-8.75 5.21-17.07-5.51-18.93-13.11l-1.36-5.42-4.54 20.1c7.7 1.51 22.07 10.79 11 18.33-8.08 5.53-27 2.16-32.26-6.9-4-6.94-2-13.85 6.53-14.82 2.4-.28 8.27 1.32 10-.07.85-.69 3.44-13.49 4.22-15.64l-6.27 6.05c-5.51 3.75-11.24 4.88-17.38 1.77-1.49-.76-5.56-3.52-5-5.5.82-2.85 6.05 2.89 7.82 3.66 4.63 2 8.8.68 13.11-1.36 2.26-1.07 7.34-5 8.73-7 .492-.996.829-2.062 1-3.16-2.39.89-4.37 2.54-6.7 3.61-4.57 2.09-12.34 5.57-14.76-1-1.43-3.88.64-7.26 4-9.25a40.7 40.7 0 0 1 6.64-2.41zm17.6-56.84c-.37-.81-1.11-1.66-2-1.49.35.82 1.09 1.64 2 1.49m-31 62.54c-1.29 1.37-2.64 5.46-.66 6.6 3.5 2 18.3-4.51 18.48-6.51.31-3.62-9.29-1.74-11.19-1.24s-7.39 3.9-4.3 0c-.36-.33-2.03.83-2.33 1.15m16.41 16.42c.41-3.93 2.58-7.85 3.21-11.67.14-.86.53-1.24-.44-1.9-1 3.86-2.53 8-3.14 11.94-.09.54-.54 1.75.37 1.63m11.07-8c1 3 11.5 6.77 12.53 3.71 1.47-4.34-12.16-8.86-15.55-8.23l5 4.27zm-16.6 17.6c-3.67.93-8.49.1-11.73 2.1s-3.8 3.58-2.34 6.95l1.49-3.52c-1.62 8.68 11.63 10.94 17.86 10.55 1-.06 5.77-1.85 5.28.26-6.45 3.64-14.34 1-20.36-2.26-.14.72 1.24 1.84 1.75 2.27 4.66 3.88 18.29 5.36 23.31 2.18 7.2-4.58-1.1-9.94-5.69-12.26-1.36-.68-6.22-2.18-6.56-2.49a2.26 2.26 0 0 1-.5-1.77h-.49c-.46 2.52-3.82.38-2.02-2.05z"/><path d="M247.734 33.67c-.28.24-2.95-.91-3.5-1.28-1.24-.83-2.41-3.22-3-3.51s-3.24 1.37-4.68 1.18c-2.53-.33-4.34-3.94-5.76-4.35s-2.48.74-3.66.17c3.95-5.09 7.11 1.32 8.87 1.66 1.35.26 3.65-2 6.24-1.2.73.23 5.55 5.29 5.77 5.82a4.3 4.3 0 0 1-.28 1.51m-12.6 20.65c.59 2.18-2.77 3.52-3.51 1.76s2.36-1.41 3.51-1.76m-7.29-2.34c4.36-.94 2.46 2.95.24 2.09-.87-.34-1.5-1.81-.24-2.09m15.89-15.76c1.14 1.12-1.72 2.7-3 2-.48-1.43 2.38-2.55 3-2m-6.08 15.59c-.34-.31-.11-3 1.76-2.51 1.68.43-.68 3.44-1.76 2.51m-9.8-11.56c1.71-.46 2.31 1.64 1 2-1.72.42-2.32-1.65-1-2m14.32 1.5.51 2.51h-2c-.14-1.21-.07-2.59 1.49-2.51m-15.59 4.02c.36.31.67 2.5-.25 2.51s-1.12-3.61.25-2.51m24.15-26.1c.27.27-.55 2.76-1.5 2-.5-1 .89-2.64 1.5-2m-17.61 24.6c.17.18.32 1.88-.74 1.5-1.55-.56.25-2.03.74-1.5m12.57-24.15h-1v1.5h1z"/></g><path fill="#181818" d="M129.161 83.424q-.043.11-.132.11-.066-.022-.022-.154.11-.44.11-.858 0-1.013-.484-2.046-.484-1.056-1.276-1.738t-1.672-.682q-2.596 0-2.596 2.97 0 1.627.748 3.036.748 1.386 1.936 2.2 1.21.814 2.442.814 1.584 0 2.42-1.012.089-.088.132-.022.045.044 0 .11-1.737 2.178-4.598 2.178a5.4 5.4 0 0 1-2.596-.638 5 5 0 0 1-1.914-1.804q-.704-1.188-.704-2.728 0-1.495.748-2.772a5.7 5.7 0 0 1 2.068-2.024 5.55 5.55 0 0 1 2.816-.748q1.056 0 1.98.286.925.285 1.408.748.507.44.396.88zm19.98 4.422q.11 0 .11.088t-.11.088a26 26 0 0 0-1.364-.022h-2.618q-.968 0-1.298.022-.11 0-.11-.088t.11-.088q.704 0 1.012-.484.33-.484.33-1.65v-7.59h-4.752v7.59q0 1.165.308 1.65.33.484 1.034.484.11 0 .11.088t-.11.088q-.33-.022-1.298-.022h-2.618q-1.034 0-1.386.022-.11 0-.11-.088t.11-.088q.726 0 1.078-.484t.352-1.65v-5.456q0-1.165-.352-1.65t-1.078-.484q-.11 0-.11-.088t.11-.088l1.386.022h9.9l1.298-.022q.11 0 .11.088t-.11.088q-.704 0-1.034.484-.308.484-.308 1.65v5.456q0 1.165.33 1.65.352.484 1.078.484m8.884-10.23q1.145 0 2.09.638.969.615 1.54 1.804.594 1.166.594 2.706 0 1.452-.682 2.75a5.35 5.35 0 0 1-1.826 2.046 4.4 4.4 0 0 1-2.508.77q-.836 0-1.386-.22a5.4 5.4 0 0 1-1.034-.55q-.33-.22-.44-.22-.198 0-.198.374v2.42q0 1.166.308 1.628.33.484.99.528.11 0 .11.066 0 .088-.11.088a50 50 0 0 0-2.288-.044q-1.737 0-2.838.044-.11 0-.11-.088t.11-.088q.66.022.968-.462.33-.484.33-1.694v-9.328q0-.835-.22-1.21-.197-.396-.77-.396a3 3 0 0 0-.374.044q-.087.022-.11-.044 0-.088.066-.11 1.035-.242 2.112-.638 1.101-.396 1.782-.858.11-.066.176-.044.088.022.066.132a23 23 0 0 0-.154 1.936q0 .264.022.506.044.22.11.198.594-1.188 1.474-1.936t2.2-.748M157.409 88q1.409 0 2.024-.792.638-.792.638-2.31a8.1 8.1 0 0 0-.506-2.838q-.506-1.365-1.364-2.2-.836-.836-1.826-.836t-1.606.836q-.594.836-.594 2.244v1.474q0 1.914.858 3.168.88 1.254 2.376 1.254m11.41.352q-1.518 0-2.75-.638a4.93 4.93 0 0 1-1.914-1.848q-.682-1.188-.682-2.706 0-1.54.792-2.794a5.56 5.56 0 0 1 2.156-2.002q1.386-.726 3.036-.726 1.539 0 2.772.66a4.76 4.76 0 0 1 1.958 1.804q.704 1.166.704 2.662a5.24 5.24 0 0 1-.814 2.838q-.793 1.275-2.2 2.024-1.386.726-3.058.726m1.21-.528q1.254 0 1.958-.704.726-.726.726-2.112 0-1.343-.704-2.97-.682-1.628-1.738-2.75-1.035-1.144-2.024-1.144-1.233 0-1.936.704-.704.704-.704 2.112 0 1.32.682 2.97.681 1.628 1.716 2.772 1.055 1.122 2.024 1.122m14.304-4.4q-.043.11-.132.11-.066-.022-.022-.154.11-.44.11-.858 0-1.013-.484-2.046-.484-1.056-1.276-1.738t-1.672-.682q-2.596 0-2.596 2.97a6.4 6.4 0 0 0 .748 3.036q.748 1.386 1.936 2.2 1.21.814 2.442.814 1.584 0 2.42-1.012.089-.088.132-.022.044.044 0 .11-1.738 2.178-4.598 2.178a5.4 5.4 0 0 1-2.596-.638 5 5 0 0 1-1.914-1.804q-.704-1.188-.704-2.728 0-1.495.748-2.772a5.7 5.7 0 0 1 2.068-2.024 5.54 5.54 0 0 1 2.816-.748q1.056 0 1.98.286.924.285 1.408.748.505.44.396.88zm11.979 2.618q.022-.022.066.022.067.044.022.11a5.64 5.64 0 0 1-2.068 1.606q-1.21.55-2.53.55a5.36 5.36 0 0 1-2.574-.638 4.87 4.87 0 0 1-1.892-1.804q-.681-1.188-.682-2.728 0-1.518.748-2.794a5.54 5.54 0 0 1 2.068-2.002 5.6 5.6 0 0 1 2.838-.748q1.717 0 2.86.946 1.144.924 1.144 2.53 0 .726-.264 1.562-2.31.044-7.084.198a6.6 6.6 0 0 0 1.144 2.178 6.2 6.2 0 0 0 1.804 1.496q1.013.528 1.98.528 1.607 0 2.42-1.012m-5.082-8.008q-1.232 0-1.892.77-.638.748-.638 2.266 0 .748.22 1.628a87 87 0 0 0 2.948-.11q.44-.023.902-.044a21 21 0 0 1 .968-.022q.198-.33.198-.814 0-.726-.418-1.584a4.5 4.5 0 0 0-1.034-1.474q-.615-.615-1.254-.616m18.155 9.856q.11 0 .11.088 0 .066-.11.066-.616-.044-3.014-.044-.594 0-.858-.22a1.1 1.1 0 0 1-.33-.55l-.682-1.914q-.33-.968-.638-1.474a1.87 1.87 0 0 0-.814-.77q-.485-.242-1.32-.242h-.198v2.882q0 1.165.33 1.65.352.484 1.078.484.11 0 .11.088t-.11.088a26 26 0 0 0-1.364-.022h-2.618q-1.034 0-1.386.022-.11 0-.11-.088t.11-.088q.726 0 1.078-.484t.352-1.65v-5.434q0-1.165-.352-1.65t-1.078-.484q-.11 0-.11-.088t.11-.088l1.386.022h2.618l1.364-.022q.11 0 .11.088t-.11.088q-.726 0-1.078.484-.33.484-.33 1.65v2.42h.198q1.561 0 2.376-.484.814-.506 1.474-1.716l.22-.418q.374-.682.374-1.166 0-.792-1.056-.792-.11 0-.11-.088t.11-.088l1.364.022h.528l1.364-.022q.11 0 .11.088t-.11.088q-.683 0-1.122.418-.44.396-1.1 1.496l-.33.572q-.55.924-1.188 1.43-.616.484-1.54.66 1.672.022 2.618.594.946.55 1.54 1.936l.33.792q.462 1.078.814 1.474.353.374.99.396m12.611 0q.11 0 .11.088 0 .066-.11.066-.615-.044-3.014-.044-.594 0-.858-.22a1.1 1.1 0 0 1-.33-.55l-.682-1.914q-.33-.968-.638-1.474a1.86 1.86 0 0 0-.814-.77q-.483-.242-1.32-.242h-.198v2.882q0 1.165.33 1.65.352.484 1.078.484.11 0 .11.088t-.11.088q-.33-.022-1.364-.022h-2.618q-1.034 0-1.386.022-.11 0-.11-.088t.11-.088q.727 0 1.078-.484t.352-1.65v-5.434q0-1.165-.352-1.65-.351-.484-1.078-.484-.11 0-.11-.088t.11-.088l1.386.022h2.618l1.364-.022q.11 0 .11.088t-.11.088q-.726 0-1.078.484-.33.484-.33 1.65v2.42h.198q1.563 0 2.376-.484.814-.506 1.474-1.716l.22-.418q.375-.682.374-1.166 0-.792-1.056-.792-.11 0-.11-.088t.11-.088l1.364.022h.528l1.364-.022q.11 0 .11.088t-.11.088q-.681 0-1.122.418-.44.396-1.1 1.496l-.33.572q-.549.924-1.188 1.43-.616.484-1.54.66 1.673.022 2.618.594.946.55 1.54 1.936l.33.792q.463 1.078.814 1.474.353.374.99.396m6.034.462q-1.518 0-2.75-.638a4.93 4.93 0 0 1-1.914-1.848q-.682-1.188-.682-2.706 0-1.54.792-2.794a5.56 5.56 0 0 1 2.156-2.002q1.386-.726 3.036-.726 1.539 0 2.772.66a4.76 4.76 0 0 1 1.958 1.804q.704 1.166.704 2.662a5.24 5.24 0 0 1-.814 2.838q-.793 1.275-2.2 2.024-1.386.726-3.058.726m1.21-.528q1.254 0 1.958-.704.726-.726.726-2.112 0-1.343-.704-2.97-.682-1.628-1.738-2.75-1.034-1.144-2.024-1.144-1.233 0-1.936.704-.704.704-.704 2.112 0 1.32.682 2.97.681 1.628 1.716 2.772 1.055 1.122 2.024 1.122"/><path fill="#181818" d="M21.34 38.564q0 4.488-4.224 10.516-3.213 4.62-8.052 9.064-4.18 3.828-5.06 3.828Q1.936 66.24 1.936 66.9a806 806 0 0 1 5.06-4.84q5.016-4.444 7.392-4.444.924.132.924.792 0 1.892-1.76 3.256a123 123 0 0 1-3.3 1.98q-1.76 1.1-1.76 2.332 0 1.936 1.54 1.936 1.804 0 6.38-2.904.22-.176.616-.396.132-.132.264-.132t.132.176q0 .045-.572.616-1.057 1.056-3.652 2.376-2.596 1.275-3.872 1.276-2.376 0-2.376-2.288 0-1.76 1.76-2.948 1.584-.924 3.256-1.892 1.716-1.012 1.716-2.376 0-.615-.572-.616-1.408 0-6.82 5.06Q.924 68.88.528 68.88 0 68.836 0 68.396q0-.308.264-.748l4.224-8.624q4.444-9.02 7.876-14.344 4.884-7.524 7.568-7.524 1.408 0 1.408 1.408m-1.276.66q0-1.012-.792-1.012-3.96 1.012-14.828 22.924 1.188-.396 4.928-4.18 4.224-4.313 7.084-8.624 3.608-5.455 3.608-9.108m10.144 25.432q0 .615-3.168 2.288-3.17 1.672-7.7 1.672-2.597 0-2.817-.528 0-.308.485-.308.66.132.835.132 2.245 0 4.797-2.288 2.42-2.156 2.42-3.696-.001-.66-.836-.66-4.137 0-9.02 7.832-.396.615-4.796 9.328-4.445 8.755-4.709 9.372-.308.748-.792.748a.6.6 0 0 1-.264-.044q-.264-.088-.264-.528 0-1.584 19.8-36.96.352-.615.66-.616.044 0 .177.088.132.088.132.352 0 .484-.264.748-.045.132-3.608 6.512-3.39 6.16-3.389 6.556 0 .045.044.088.045-.088.308-.352 1.056-1.276 2.904-2.596 2.464-1.672 4.313-1.672 1.364 0 1.364 1.056 0 3.212-5.148 6.292 3.915 0 8.14-2.86.13-.132.264-.132.13 0 .131.176m13.813 0q0 .528-2.728 2.024-2.86 1.584-4.092 1.584-2.288 0-2.288-2.42 0-.66.704-1.496 0-.044-.044-.044.044 0-2.376 1.848-2.42 1.804-3.476 1.804-1.012 0-1.012-.836 0-2.025 3.388-4.708 3.212-2.596 5.016-2.596.264.044.572.308.352.22.352.352 0 .045-.044.088-2.464 0-6.292 3.828-1.232 1.231-1.232 2.068 0 .308.308.308.967 0 3.696-2.244 2.2-1.848 3.124-2.948.44-.528.616-.528.44 0 .44.616 0 .22-.572 1.012-1.892 2.595-1.892 3.3 0 1.232 1.364 1.232 2.244 0 6.072-2.596.132-.132.264-.132t.132.176m9.483 0q0 .176-.66.704a358 358 0 0 0-3.476 2.288q-2.508 1.496-4.092 1.496-.924 0-1.628-.66t-.704-1.496q0-2.904 2.816-5.324 2.508-2.156 4.664-2.156 1.364 0 1.364 1.1 0 .615-1.804 2.42a.55.55 0 0 1-.396.176q-.352 0-.352-.396 0-.175.132-.264.132-.132.528-.968.396-.88.396-1.32 0-.132-.308-.132-1.1 0-3.212 1.804-2.552 2.156-2.552 4.444 0 1.672 1.452 1.672 2.245 0 6.82-3.036.22-.176.616-.396.132-.132.264-.132t.132.176m14.205 0q0 .264-.66.704-5.412 3.652-7.304 3.652-1.232 0-1.232-1.408 0-.792.308-1.584.44-1.1.44-1.144 0-.176-.132-.176-.044 0-.22.088-.968.968-2.816 2.332-2.376 1.76-3.3 1.76-1.056 0-1.056-1.056 0-.615 1.54-3.388 1.54-2.816 1.54-3.256 0-.484-.792-.484-.176 0-.176-.528.396-.132.836-.132 1.54 0 1.54.88 0 .967-1.364 3.256t-1.364 2.86q0 .352.308.352.705 0 3.432-2.332 2.772-2.332 4.268-4.224.66-.66.968-.66.573 0 .572.572 0 .308-.308.792-2.64 3.96-2.64 5.148 0 1.1 1.012 1.1 1.54 0 5.588-2.772.22-.176.616-.396.132-.132.264-.132t.132.176m18.755-27.28q0 4.445-4.268 11-3.3 5.104-8.184 10.032-4.312 4.4-5.28 4.4.132 4.136 2.596 4.136 1.892 0 4.092-1.628a3.5 3.5 0 0 1-.44-1.716q0-2.992 1.936-2.992.792 0 .924 1.1 0 1.54-1.32 3.08.748 1.232 2.332 1.232 1.716 0 3.344-1.408.132-.132.264-.132t.132.176-.44.528q-1.936 1.628-3.916 1.628-1.627 0-2.596-1.1-2.595 2.376-5.06 2.376-1.452 0-2.42-1.188-.924-1.232-.924-2.948 0-4.884 3.432-11.836 3.124-6.336 7.436-11.22 4.312-4.928 6.952-4.928 1.408 0 1.408 1.408m-1.276.66q0-1.012-.792-1.012-2.068 0-5.94 4.972-3.652 4.665-6.556 10.516-3.08 6.16-3.08 9.284 0 .176.088.176.835 0 4.84-4.312 4.444-4.752 7.524-9.592 3.915-6.16 3.916-10.032M77.4 61.972q0-.44-.308-.44-.924 0-.924 1.804 0 .615.176 1.1 1.056-1.188 1.056-2.464m5.758 4.268q0 1.188.968 1.188.705 0 1.408-.396.704-.396 1.364-1.012-.66-.66-.66-1.628 0-1.056.572-1.804.615-.792 1.364-.792.748 0 .88.704 0 .66-.22 1.452-.22.748-.792 1.628.66.66 1.848.66.705 0 1.408-.352.176-1.54 1.452-3.52.484-.748.924-1.364.484-.615.968-1.1.308-.396.968-.396.352.088.352.22 0 .045-.528.66-.484.615-1.232 1.892-.923 1.496-1.364 2.64.044.044.044.132 0 .176-.176.44-.044.176-.044.484 0 .704.396 1.056.396.308 1.012.308 1.584 0 5.06-2.552.132-.132.264-.132t.132.176q0 .264-.88.88a31 31 0 0 1-3.256 2.068q-1.496.836-2.508.836T91.562 68a3.5 3.5 0 0 1-.308-1.496v-.088a10 10 0 0 1-1.1.352q-.528.132-.836.132-.615 0-.968-.132a4.6 4.6 0 0 1-.748-.484A6.9 6.9 0 0 1 85.49 68q-1.188.615-2.288.616-.836 0-1.232-.66a3.2 3.2 0 0 1-.396-1.584q0-.572.396-1.716.396-1.188 1.012-2.376.66-1.188 1.452-2.068t1.54-.88q.352.088.352.22l-1.54 2.552q-.748 1.275-1.188 2.42-.44 1.1-.44 1.716m5.412-3.564q.176-.089 0-.132a.54.54 0 0 0-.308-.088q-.353 0-.704.484-.308.484-.308 1.276 0 .66.308 1.1.528-.66.748-1.364.264-.749.264-1.188zm20.985 1.98q0 .308-1.804 1.452-4.444 2.816-6.38 2.816-2.86 0-2.86-3.344 0-2.464 2.376-4.928 2.42-2.508 4.576-2.508.66 0 .66.616 0 1.495-2.596 4.224-2.068 2.156-3.388 2.948.132 1.936 1.848 1.936 1.628 0 5.456-2.2.307-.176 1.716-1.056.132-.132.264-.132t.132.176m-4.796-5.06q0-.528-.308-.528-1.1 0-2.684 2.2t-1.628 3.96q.835-.264 2.64-2.288 1.98-2.2 1.98-3.344m24.516 5.06q0 .22-.66.704l-6.072 4.488q-.088 3.388-3.168 9.02-2.86 5.28-6.556 9.328-3.916 4.267-6.16 4.224-.748 0-1.276-.528t-.528-1.32q0-3.255 3.96-8.58 3.036-3.96 7.524-8.228 3.96-3.696 4.488-3.696a.9.9 0 0 0-.132-.484q-.617-1.1-1.716-1.1-.44 0-.968.176-1.056.352-1.276.352-.132 0-.176-.176 0-.44.88-.792 1.408-.615 3.388-2.332 2.332-2.068 2.332-3.344 0-.748-.704-.748-.616 0-2.684 1.408l-3.256 2.376q-.132.132-.264.132-.088 0-.088-.484.132-.088 1.584-1.188a944 944 0 0 0 2.948-2.332q1.54-1.232 2.772-1.232 1.584 0 1.584 1.672 0 2.024-5.192 5.412-.308.308-.308.44 0 .176.308.176 1.936 0 2.552 1.144 1.012-.572 3.212-2.332 2.024-1.585 3.256-2.2.132-.132.264-.132t.132.176m-8.228 6.336q0-.176-.044-.176-.967 0-4.62 3.696-3.872 3.872-6.688 7.964-3.388 4.972-3.388 7.744 0 1.012.66 1.012 1.32 0 4.84-3.828a49 49 0 0 0 6.16-8.184q3.08-5.104 3.08-8.228m21.888-6.336q0 .528-2.728 2.024-2.86 1.584-4.092 1.584-2.288 0-2.288-2.42 0-.66.704-1.496 0-.044-.044-.044.044 0-2.376 1.848-2.42 1.804-3.476 1.804-1.012 0-1.012-.836 0-2.025 3.388-4.708 3.211-2.596 5.016-2.596.264.044.572.308.352.22.352.352 0 .045-.044.088-2.464 0-6.292 3.828-1.232 1.231-1.232 2.068 0 .308.308.308.968 0 3.696-2.244 2.2-1.848 3.124-2.948.44-.528.616-.528.44 0 .44.616 0 .22-.572 1.012-1.892 2.595-1.892 3.3 0 1.232 1.364 1.232 2.244 0 6.072-2.596.132-.132.264-.132t.132.176m18.767-27.28q0 4.445-4.268 11-3.3 5.104-8.184 10.032-4.311 4.4-5.28 4.4.132 4.136 2.596 4.136 1.893 0 4.092-1.628a3.5 3.5 0 0 1-.44-1.716q0-2.992 1.936-2.992.792 0 .924 1.1 0 1.54-1.32 3.08.748 1.232 2.332 1.232 1.716 0 3.344-1.408.132-.132.264-.132t.132.176-.44.528q-1.935 1.628-3.916 1.628-1.627 0-2.596-1.1-2.595 2.376-5.06 2.376-1.451 0-2.42-1.188-.924-1.232-.924-2.948 0-4.884 3.432-11.836 3.125-6.336 7.436-11.22 4.312-4.928 6.952-4.928 1.408 0 1.408 1.408m-1.276.66q0-1.012-.792-1.012-2.067 0-5.94 4.972-3.651 4.665-6.556 10.516-3.08 6.16-3.08 9.284 0 .176.088.176.837 0 4.84-4.312 4.445-4.752 7.524-9.592 3.916-6.16 3.916-10.032m-7.788 23.936q0-.44-.308-.44-.924 0-.924 1.804 0 .615.176 1.1 1.056-1.188 1.056-2.464m31.762 2.684q0 .264-.66.704-3.123 2.112-3.476 2.332-1.98 1.188-3.3 1.188a1.74 1.74 0 0 1-1.276-.528 1.82 1.82 0 0 1-.484-1.276q0-2.2 2.816-6.292.22-.308.22-.396 0-.044-.044-.044-.175 0-.616.308l-5.456 4.092q-1.275 1.1-3.74 3.08-.351.264-.968.484-.308 0-.308-.44 0-.88 1.452-2.816 1.496-1.98 1.496-2.772 0-.748-.704-.748-1.056 0-4.224 2.86a51 51 0 0 0-3.784 3.74q-.615.66-.968.66-.572 0-.572-.616 0-.175.308-.88 1.056-1.452 2.068-2.904 1.54-2.2 1.54-3.124 0-.396-.264-.396-.132 0-.528.176l-6.38 4.752h-.308q-.308 0-.308-.088 0-.132.484-.44a425 425 0 0 1 6.82-5.236q.528-.44 1.364-.44.88 0 .88.792 0 .175-.088.528a1664 1664 0 0 1-2.244 3.916q-.176.308-.176.396 0 .044.088.044l.132-.044 3.256-2.816q2.508-2.112 3.608-2.112 1.452 0 1.452.924 0 .792-.88 2.42-.836 1.584-.836 1.716t.088.132q.177 0 .616-.308l9.152-6.908q.441-.352.924-.352.308 0 .44.132.132.088.132.352a.8.8 0 0 1-.176.528 831 831 0 0 1-2.508 3.564q-1.496 2.287-1.496 3.96 0 1.056 1.144 1.012 1.365-.044 3.08-1.1l2.816-1.76q.132-.132.264-.132t.132.176m12.827 0q0 .615-3.168 2.288t-7.7 1.672q-2.596 0-2.816-.528 0-.308.484-.308.66.132.836.132 2.244 0 4.796-2.288 2.42-2.156 2.42-3.696 0-.66-.836-.66-4.136 0-9.02 7.832-.396.615-4.796 9.328-4.444 8.755-4.708 9.372-.308.748-.792.748a.6.6 0 0 1-.264-.044q-.264-.088-.264-.528 0-1.584 19.8-36.96.353-.615.66-.616.044 0 .176.088t.132.352q0 .484-.264.748-.044.132-3.608 6.512-3.388 6.16-3.388 6.556 0 .045.044.088.044-.088.308-.352 1.056-1.276 2.904-2.596 2.464-1.672 4.312-1.672 1.364 0 1.364 1.056 0 3.212-5.148 6.292 3.916 0 8.14-2.86.132-.132.264-.132t.132.176m13.814 0q0 .528-2.728 2.024-2.86 1.584-4.092 1.584-2.288 0-2.288-2.42 0-.66.704-1.496 0-.044-.044-.044.044 0-2.376 1.848-2.42 1.804-3.476 1.804-1.012 0-1.012-.836 0-2.025 3.388-4.708 3.211-2.596 5.016-2.596.263.044.572.308.351.22.352.352 0 .045-.044.088-2.464 0-6.292 3.828-1.233 1.231-1.232 2.068 0 .308.308.308.968 0 3.696-2.244 2.2-1.848 3.124-2.948.44-.528.616-.528.44 0 .44.616 0 .22-.572 1.012-1.892 2.595-1.892 3.3 0 1.232 1.364 1.232 2.244 0 6.072-2.596.132-.132.264-.132t.132.176m19.471-26.092q0 4.488-4.224 10.516-3.213 4.62-8.052 9.064-4.18 3.828-5.06 3.828-2.068 4.268-2.068 4.928a788 788 0 0 1 5.06-4.84q5.016-4.444 7.392-4.444.924.132.924.792 0 1.892-1.76 3.256a125 125 0 0 1-3.3 1.98q-1.76 1.1-1.76 2.332 0 1.936 1.54 1.936 1.803 0 6.38-2.904.22-.176.616-.396.132-.132.264-.132t.132.176q0 .045-.572.616-1.056 1.056-3.652 2.376-2.597 1.275-3.872 1.276-2.376 0-2.376-2.288 0-1.76 1.76-2.948 1.584-.924 3.256-1.892 1.716-1.012 1.716-2.376 0-.615-.572-.616-1.408 0-6.82 5.06-5.368 5.016-5.764 5.016-.528-.044-.528-.484 0-.308.264-.748l4.224-8.624q4.444-9.02 7.876-14.344 4.883-7.524 7.568-7.524 1.407 0 1.408 1.408m-1.276.66q0-1.012-.792-1.012-3.96 1.012-14.828 22.924 1.188-.396 4.928-4.18 4.224-4.313 7.084-8.624 3.608-5.455 3.608-9.108m11.551 25.432q0 .264-.66.704-5.411 3.652-7.304 3.652-1.232 0-1.232-1.408 0-.792.308-1.584.44-1.1.44-1.144 0-.176-.132-.176a.8.8 0 0 0-.22.088q-.968.968-2.816 2.332-2.376 1.76-3.3 1.76-1.056 0-1.056-1.056 0-.615 1.54-3.388 1.54-2.816 1.54-3.256 0-.484-.792-.484-.176 0-.176-.528.396-.132.836-.132 1.54 0 1.54.88 0 .967-1.364 3.256t-1.364 2.86q0 .352.308.352.705 0 3.432-2.332 2.772-2.332 4.268-4.224.66-.66.968-.66.572 0 .572.572 0 .308-.308.792-2.64 3.96-2.64 5.148 0 1.1 1.012 1.1 1.54 0 5.588-2.772.22-.176.616-.396.132-.132.264-.132t.132.176"/><defs><clipPath id="a"><path fill="#fff" d="M192.364 0h63.26v115.05h-63.26z"/></clipPath></defs></svg>