<svg xmlns="http://www.w3.org/2000/svg" width="289" height="221" fill="none" viewBox="0 0 289 221"><path fill="#f5cdcb" d="M31.93 104.499q.11 0 .11.088t-.11.088q-.33-.022-1.364-.022h-2.992q-1.035 0-1.387.022-.088 0-.088-.088t.088-.088q.484 0 .749-.176a.58.58 0 0 0 .285-.528q0-.44-.462-1.166l-1.957-2.992-2.024 2.992q-.484.749-.484 1.166 0 .704 1.011.704.11 0 .11.088t-.11.088a28 28 0 0 0-1.386-.022h-.285q-1.035 0-1.364.022-.11 0-.11-.088t.11-.088q.66 0 1.1-.374.46-.395 1.188-1.496l2.156-3.146-1.848-2.838q-.727-1.1-1.145-1.474a1.34 1.34 0 0 0-.99-.396q-.088 0-.088-.088t.088-.088l1.232.022h3.014l1.497-.022q.11 0 .11.088t-.11.088q-.528 0-.837.198-.285.177-.285.55 0 .462.44 1.122l1.517 2.332 1.607-2.332q.462-.681.462-1.144a.59.59 0 0 0-.308-.55q-.286-.176-.814-.176-.133 0-.133-.088t.133-.088l1.495.022h.308l1.364-.022q.11 0 .11.088t-.11.088q-.681 0-1.143.396-.441.397-1.167 1.474l-1.715 2.508 2.265 3.476q.704 1.078 1.145 1.474.461.396 1.122.396m5.04.506q-1.519 0-2.75-.638a4.93 4.93 0 0 1-1.914-1.848q-.682-1.188-.682-2.706 0-1.54.792-2.794a5.56 5.56 0 0 1 2.156-2.002q1.386-.726 3.036-.726 1.539 0 2.772.66a4.75 4.75 0 0 1 1.958 1.804q.704 1.167.704 2.662a5.24 5.24 0 0 1-.814 2.838q-.792 1.277-2.2 2.024-1.387.726-3.058.726m1.21-.528q1.254 0 1.958-.704.726-.726.726-2.112 0-1.341-.704-2.97-.682-1.628-1.738-2.75-1.034-1.144-2.024-1.144-1.233 0-1.936.704-.705.705-.704 2.112 0 1.32.682 2.97.681 1.629 1.716 2.772 1.056 1.122 2.024 1.122m18.313.022q.11 0 .11.088t-.11.088q-.33-.022-1.364-.022h-2.618q-1.035 0-1.364.022-.11 0-.11-.088t.11-.088q.726 0 1.056-.484.352-.483.352-1.65v-2.816a4.8 4.8 0 0 1-1.694 1.122 5.4 5.4 0 0 1-2.046.396q-1.605 0-2.64-.792-1.034-.813-1.034-2.64v-.726q0-1.166-.352-1.65-.33-.484-1.056-.484-.11 0-.11-.088t.11-.088l1.364.022h2.618l1.364-.022q.11 0 .11.088t-.11.088q-.726 0-1.078.484-.33.484-.33 1.65v1.012q0 1.387.638 2.002a2.18 2.18 0 0 0 1.54.594q.704 0 1.386-.33.705-.33 1.32-.99V96.91q0-1.166-.352-1.65-.33-.484-1.056-.484-.11 0-.11-.088t.11-.088l1.364.022h2.618l1.364-.022q.11 0 .11.088t-.11.088q-.726 0-1.078.484-.33.484-.33 1.65v5.456q0 1.167.33 1.65.352.484 1.078.484m10.806-1.804q.023-.021.066.022.067.044.022.11a5.64 5.64 0 0 1-2.068 1.606q-1.21.55-2.53.55a5.35 5.35 0 0 1-2.574-.638 4.85 4.85 0 0 1-1.892-1.804q-.682-1.188-.682-2.728 0-1.518.748-2.794a5.53 5.53 0 0 1 2.068-2.002 5.6 5.6 0 0 1 2.838-.748q1.716 0 2.86.946 1.144.924 1.144 2.53 0 .726-.264 1.562-2.31.045-7.084.198.374 1.21 1.144 2.178a6.2 6.2 0 0 0 1.804 1.496q1.012.528 1.98.528 1.605 0 2.42-1.012m-5.082-8.008q-1.232 0-1.892.77-.638.748-.638 2.266 0 .749.22 1.628a87 87 0 0 0 2.948-.11l.902-.044q.485-.022.968-.022.198-.33.198-.814 0-.726-.418-1.584a4.5 4.5 0 0 0-1.034-1.474q-.615-.615-1.254-.616m24.49 9.812q.11 0 .11.088t-.11.088a28 28 0 0 0-1.385-.022H69.944q-1.035 0-1.386.022-.11 0-.11-.088t.11-.088q.726 0 1.078-.484.352-.483.352-1.65V96.91q0-1.166-.352-1.65t-1.078-.484q-.11 0-.11-.088t.11-.088l1.386.022h2.486l1.298-.022q.11 0 .11.088t-.11.088q-.704 0-1.034.484-.309.484-.308 1.65v7.59h4.026v-7.59q0-1.166-.33-1.65-.309-.484-1.012-.484-.11 0-.11-.088t.11-.088l1.298.022h2.508l1.298-.022q.11 0 .11.088t-.11.088q-.704 0-1.034.484-.309.484-.308 1.65v7.59h4.026v-7.59q0-1.166-.33-1.65-.309-.484-1.012-.484-.11 0-.11-.088t.11-.088l1.298.022h2.508l1.386-.022q.11 0 .11.088t-.11.088q-.726 0-1.078.484t-.352 1.65v5.456q0 1.167.352 1.65.352.484 1.078.484m6.928-5.588q4.51-.066 4.51 2.75 0 1.452-1.056 2.222t-3.146.77h-4.62q-1.035 0-1.386.022-.11 0-.11-.088t.11-.088q.726 0 1.078-.484.351-.483.352-1.65V96.91q0-1.166-.352-1.65t-1.078-.484q-.11 0-.11-.088t.11-.088l1.386.022h2.618l1.364-.022q.11 0 .11.088t-.11.088q-.726 0-1.078.484-.33.484-.33 1.65v1.782q0 .242.198.242zm-.352 5.566q1.055-.021 1.628-.77.594-.748.594-2.002 0-1.231-.594-1.914-.594-.703-1.716-.682l-1.1.022q-.198 0-.198.242v4.532q0 .352.088.484.088.11.352.11zm23.331.022q.11 0 .11.088t-.11.088q-.33-.022-1.364-.022h-2.618q-.968 0-1.298.022-.11 0-.11-.088t.11-.088q.704 0 1.012-.484.33-.483.33-1.65v-7.59h-4.752v7.59q0 1.167.308 1.65.33.484 1.034.484.11 0 .11.088t-.11.088q-.33-.022-1.298-.022h-2.618q-1.034 0-1.386.022-.11 0-.11-.088t.11-.088q.726 0 1.078-.484.352-.483.352-1.65V96.91q0-1.166-.352-1.65t-1.078-.484q-.11 0-.11-.088t.11-.088l1.386.022h9.9l1.298-.022q.11 0 .11.088t-.11.088q-.704 0-1.034.484-.308.484-.308 1.65v5.456q0 1.167.33 1.65.352.484 1.078.484m6.486.506q-1.517 0-2.75-.638a4.94 4.94 0 0 1-1.914-1.848q-.681-1.188-.682-2.706 0-1.54.792-2.794a5.57 5.57 0 0 1 2.156-2.002q1.386-.726 3.036-.726 1.54 0 2.772.66a4.75 4.75 0 0 1 1.958 1.804q.704 1.167.704 2.662a5.23 5.23 0 0 1-.814 2.838q-.792 1.277-2.2 2.024-1.386.726-3.058.726m1.21-.528q1.254 0 1.958-.704.726-.726.726-2.112 0-1.341-.704-2.97-.681-1.628-1.738-2.75-1.034-1.144-2.024-1.144-1.231 0-1.936.704-.704.705-.704 2.112 0 1.32.682 2.97.683 1.629 1.716 2.772 1.056 1.122 2.024 1.122m14.305-4.4q-.045.11-.132.11-.067-.022-.022-.154.11-.44.11-.858 0-1.011-.484-2.046-.484-1.056-1.276-1.738-.793-.681-1.672-.682-2.596 0-2.596 2.97 0 1.629.748 3.036.748 1.387 1.936 2.2 1.209.814 2.442.814 1.584 0 2.42-1.012.087-.088.132-.022.043.044 0 .11-1.739 2.178-4.598 2.178a5.4 5.4 0 0 1-2.596-.638 5 5 0 0 1-1.914-1.804q-.704-1.188-.704-2.728 0-1.495.748-2.772a5.7 5.7 0 0 1 2.068-2.024 5.54 5.54 0 0 1 2.816-.748q1.056 0 1.98.286t1.408.748q.506.44.396.88zm15.081 4.422q.11 0 .11.088t-.11.088q-.33-.022-1.364-.022h-2.618q-.968 0-1.298.022-.11 0-.11-.088t.11-.088q.704 0 1.012-.484.33-.483.33-1.65v-7.59h-4.752v7.59q0 1.167.308 1.65.33.484 1.034.484.11 0 .11.088t-.11.088q-.33-.022-1.298-.022h-2.618q-1.033 0-1.386.022-.11 0-.11-.088t.11-.088q.726 0 1.078-.484.352-.483.352-1.65V96.91q0-1.166-.352-1.65t-1.078-.484q-.11 0-.11-.088t.11-.088l1.386.022h9.9l1.298-.022q.11 0 .11.088t-.11.088q-.704 0-1.034.484-.308.484-.308 1.65v5.456q0 1.167.33 1.65.352.484 1.078.484m12.8 0q.11 0 .11.088t-.11.088a28 28 0 0 0-1.364-.022h-2.618q-1.034 0-1.386.022-.11 0-.11-.088t.11-.088q.726 0 1.078-.484.352-.483.352-1.65v-7.59h-4.466q-.087 1.782-.44 6.754-.087 1.607-.506 2.552-.396.924-1.408.924-1.188 0-1.188-.66a.7.7 0 0 1 .022-.198l.528-2.09q.044-.11.11-.088.066 0 .066.11.023.946.242 1.276.22.33.726.33 1.101 0 1.254-2.156l.286-4.62.022-.44q0-.902-.33-1.298t-.99-.396q-.11 0-.11-.088t.11-.088l1.364.022h7.282l1.364-.022q.11 0 .11.088t-.11.088q-.726 0-1.078.484-.33.484-.33 1.65v5.456q0 1.167.33 1.65.352.484 1.078.484m10.782-1.804q.021-.021.066.022.066.044.022.11a5.64 5.64 0 0 1-2.068 1.606q-1.21.55-2.53.55a5.35 5.35 0 0 1-2.574-.638 4.85 4.85 0 0 1-1.892-1.804q-.682-1.188-.682-2.728 0-1.518.748-2.794a5.5 5.5 0 0 1 2.068-2.002 5.6 5.6 0 0 1 2.838-.748q1.716 0 2.86.946 1.143.924 1.144 2.53 0 .726-.264 1.562-2.31.045-7.084.198.373 1.21 1.144 2.178a6.2 6.2 0 0 0 1.804 1.496q1.011.528 1.98.528 1.605 0 2.42-1.012m-5.082-8.008q-1.233 0-1.892.77-.638.748-.638 2.266 0 .749.22 1.628a87 87 0 0 0 2.948-.11l.902-.044q.483-.022.968-.022.198-.33.198-.814 0-.726-.418-1.584a4.5 4.5 0 0 0-1.034-1.474q-.617-.615-1.254-.616m16.372 3.74q.022.088-.044.088t-.088-.088q-.814-3.057-1.804-3.41-.198-.153-1.54-.154-.132 0-.22.154a.63.63 0 0 0-.088.352v6.996q0 1.167.33 1.65.352.484 1.078.484.11 0 .11.088t-.11.088q-.33-.022-1.364-.022h-2.618q-1.034 0-1.364.022-.11 0-.11-.088t.11-.088q.726 0 1.056-.484.352-.483.352-1.65V95.37a.6.6 0 0 0-.088-.352q-.087-.153-.22-.154-1.342 0-1.54.154-.99.353-1.804 3.41-.022.088-.088.088t-.044-.088q.264-1.957.264-3.586 0-.352.286-.352.133 0 .748.088.638.088 2.486.088h2.53q1.782 0 2.442-.088t.814-.088q.264 0 .264.352 0 1.629.264 3.586M202.6 104.5q.11 0 .11.088t-.11.088q-.33-.022-1.364-.022h-2.618q-.968 0-1.298.022-.11 0-.11-.088t.11-.088q.703 0 1.012-.484.33-.483.33-1.65v-2.882q0-.264-.198-.242-1.167.177-2.31.176-1.144 0-2.31-.176h-.022q-.132 0-.132.242v2.882q0 1.167.308 1.65.33.484 1.034.484.11 0 .11.088t-.11.088q-.33-.022-1.298-.022h-2.618q-1.035 0-1.386.022-.11 0-.11-.088t.11-.088q.726 0 1.078-.484.352-.483.352-1.65V96.91q0-1.166-.352-1.65t-1.078-.484q-.11 0-.11-.088t.11-.088l1.386.022h2.618l1.298-.022q.11 0 .11.088t-.11.088q-.705 0-1.034.484-.309.484-.308 1.65v1.914q0 .243.154.264 1.122.177 2.244.176 1.188 0 2.376-.176.11-.022.154-.088a.3.3 0 0 0 .044-.176V96.91q0-1.166-.33-1.65-.309-.484-1.012-.484-.11 0-.11-.088t.11-.088l1.298.022h2.618l1.364-.022q.11 0 .11.088t-.11.088q-.727 0-1.078.484-.33.484-.33 1.65v5.456q0 1.167.33 1.65.351.484 1.078.484m14.401 0q.11 0 .11.088t-.11.088q-.33-.022-1.364-.022h-2.618q-1.034 0-1.364.022-.11 0-.11-.088t.11-.088q.726 0 1.056-.484.352-.483.352-1.65v-5.302l-5.258 5.28v.022q0 1.167.33 1.65.352.484 1.078.484.11 0 .11.088t-.11.088a28 28 0 0 0-1.364-.022h-2.618q-1.034 0-1.386.022-.11 0-.11-.088t.11-.088q.726 0 1.078-.484.352-.483.352-1.65v-5.434q0-1.165-.352-1.65-.352-.506-1.078-.506-.11 0-.11-.088t.11-.088q.703.044 1.386.044h2.618q.66 0 1.364-.044.11 0 .11.088t-.11.088q-.726 0-1.078.506-.33.484-.33 1.65v5.126l5.258-5.28q-.022-1.1-.374-1.54-.33-.462-1.034-.462-.11 0-.11-.088t.11-.088q.66.044 1.364.044h2.618q.704 0 1.364-.044.11 0 .11.088t-.11.088q-.726 0-1.078.506-.33.484-.33 1.65v5.434q0 1.167.33 1.65.352.484 1.078.484m13.58 0q.11 0 .11.088t-.11.088q-.33-.022-1.364-.022h-2.618q-1.034 0-1.364.022-.11 0-.11-.088t.11-.088q.726 0 1.056-.484.352-.483.352-1.65V99.55a4.8 4.8 0 0 1-1.694 1.122 5.4 5.4 0 0 1-2.046.396q-1.607 0-2.64-.792-1.034-.813-1.034-2.64v-.726q0-1.166-.352-1.65-.33-.484-1.056-.484-.11 0-.11-.088t.11-.088l1.364.022h2.618l1.364-.022q.11 0 .11.088t-.11.088q-.726 0-1.078.484-.33.484-.33 1.65v1.012q0 1.387.638 2.002a2.18 2.18 0 0 0 1.54.594q.704 0 1.386-.33.703-.33 1.32-.99V96.91q0-1.166-.352-1.65-.33-.484-1.056-.484-.11 0-.11-.088t.11-.088l1.364.022h2.618l1.364-.022q.11 0 .11.088t-.11.088q-.726 0-1.078.484-.33.484-.33 1.65v5.456q0 1.167.33 1.65.352.484 1.078.484m12.346-3.608q0-.11.066-.11t.066.11q0 1.672-.726 2.86-.704 1.188-1.848 1.188-.836 0-1.408-.55-.572-.572-.638-1.694-.528 1.1-1.408 1.694a3.25 3.25 0 0 1-1.892.594q-1.738 0-2.574-.968a3.44 3.44 0 0 1-.836-2.288q0-1.275 1.144-2.046 1.166-.77 2.904-.77.594 0 1.32.11.748.11 1.342.286v-.968q0-3.388-2.948-3.388-1.21 0-2.068.792-.836.792-.836 2.376 0 .088-.044.132t-.088.044q-.088 0-.088-.176 0-1.232.616-2.09a3.85 3.85 0 0 1 1.584-1.32 4.9 4.9 0 0 1 2.046-.44q4.356 0 4.356 4.07v3.608q0 1.452.748 1.452.726 0 .946-.638.22-.66.264-1.87m-6.644 2.838q2.156 0 2.156-2.618v-.132a2.27 2.27 0 0 0-.924-1.254 2.53 2.53 0 0 0-1.496-.484q-2.178 0-2.178 1.672 0 1.122.638 1.98.638.837 1.804.836m16.932-5.302q.021.088-.044.088-.067 0-.088-.088-.814-3.057-1.804-3.41-.198-.153-1.54-.154-.133 0-.22.154a.6.6 0 0 0-.088.352v6.996q0 1.167.33 1.65.352.484 1.078.484.11 0 .11.088t-.11.088q-.33-.022-1.364-.022h-2.618q-1.035 0-1.364.022-.11 0-.11-.088t.11-.088q.726 0 1.056-.484.352-.483.352-1.65V95.37a.63.63 0 0 0-.088-.352q-.088-.153-.22-.154-1.342 0-1.54.154-.99.353-1.804 3.41-.022.088-.088.088t-.044-.088q.264-1.957.264-3.586 0-.352.286-.352.132 0 .748.088.638.088 2.486.088h2.53q1.782 0 2.442-.088t.814-.088q.264 0 .264.352 0 1.629.264 3.586m6.859.484q4.51-.066 4.51 2.75 0 1.452-1.056 2.222t-3.146.77h-4.62q-1.034 0-1.386.022-.11 0-.11-.088t.11-.088q.726 0 1.078-.484.352-.483.352-1.65V96.91q0-1.166-.352-1.65t-1.078-.484q-.11 0-.11-.088t.11-.088l1.386.022h2.618l1.364-.022q.11 0 .11.088t-.11.088q-.726 0-1.078.484-.33.484-.33 1.65v1.782q0 .242.198.242zm-.352 5.566q1.056-.021 1.628-.77.594-.748.594-2.002 0-1.231-.594-1.914-.594-.703-1.716-.682l-1.1.022q-.198 0-.198.242v4.532q0 .352.088.484.088.11.352.11zm9.919-3.85q-.066-1.298.33-2.156.418-.858 1.276-1.914.748-.945 1.1-1.65.374-.704.374-1.694 0-1.693-.88-2.596-.88-.902-2.332-.902-3.3 0-3.894 3.08a.34.34 0 0 1-.088.176q-.044.066-.088.066t-.088-.066a.27.27 0 0 1 0-.154 4.5 4.5 0 0 1 1.056-2.002 5.3 5.3 0 0 1 1.936-1.386 5.9 5.9 0 0 1 2.42-.506q1.386 0 2.53.506 1.144.485 1.804 1.43.682.924.682 2.178 0 .969-.418 1.65a3.9 3.9 0 0 1-.99 1.144q-.594.44-1.584 1.012t-1.584 1.012a4.1 4.1 0 0 0-.99 1.122q-.396.683-.396 1.628 0 .132-.088.154-.088 0-.088-.132m-.308 4.268q-.638 0-1.034-.264-.374-.264-.374-.66 0-.528.572-.902.572-.396 1.43-.396.638 0 1.012.286.396.264.396.682 0 .484-.572.88-.572.374-1.43.374M72.527 122.309q0 .264-.66.704-5.413 3.652-7.305 3.652-1.23 0-1.231-1.408 0-.792.307-1.584.44-1.1.44-1.144 0-.176-.132-.176-.043 0-.22.088-.968.969-2.815 2.332-2.376 1.76-3.3 1.76-1.056 0-1.056-1.056 0-.615 1.54-3.388 1.54-2.815 1.54-3.256 0-.483-.792-.484-.177 0-.177-.528.397-.132.837-.132 1.54 0 1.54.88 0 .969-1.364 3.256-1.365 2.289-1.364 2.86 0 .352.308.352.704 0 3.432-2.332 2.771-2.331 4.268-4.224.66-.66.968-.66.571 0 .572.572 0 .309-.308.792-2.64 3.96-2.64 5.148 0 1.1 1.011 1.1 1.54 0 5.588-2.772.22-.175.617-.396.131-.132.263-.132t.132.176m12.99 4.356q-1.232 0-1.232-1.408 0-.835.308-1.584.44-1.056.44-1.144 0-.176-.132-.176.044 0-.22.088-.483.484-1.188 1.056-.704.573-1.628 1.276-2.331 1.76-3.3 1.76-1.056 0-1.056-1.056 0-.307.352-1.012a107 107 0 0 1 1.1-2.112q.044 0-.22.088-.484.484-1.188 1.056t-1.628 1.276q-2.331 1.76-3.3 1.76-1.056 0-1.056-1.056 0-.571 1.54-3.388 1.54-2.86 1.54-3.256 0-.483-.792-.484-.176 0-.176-.528.396-.132.836-.132 1.54 0 1.54.88 0 .969-1.364 3.256-1.365 2.289-1.364 2.86 0 .352.308.352.705 0 3.432-2.332a18 18 0 0 0 2.024-1.98q1.013-1.143 1.628-2.244.66-.66.968-.66.573 0 .572.572 0 .352-.308.792-.088.22-.528 1.056a49 49 0 0 1-.88 1.76 49 49 0 0 0-.88 1.76q-.396.792-.396.924 0 .352.308.352.705 0 3.432-2.332 2.729-2.244 4.268-4.224.66-.66.968-.66.572 0 .572.572 0 .352-.308.792-2.64 3.96-2.64 5.148 0 1.1 1.012 1.1.748 0 1.628-.308a5.6 5.6 0 0 0 1.628-1.012q.176-.175.616-.396.132-.132.264-.132t.132.176q0 .264-.66.704-1.408 1.1-2.728 1.628-1.276.572-2.244.572m3.432-1.584.352-.352-.044.308q0 1.804-.396 3.652-.396 1.893-1.452 3.036-.924.792-2.156.572-1.231-.219-2.508-1.188l-.088-.176q-.044-.043-.044-.132a.7.7 0 0 1-.088-.308.4.4 0 0 0 .044-.176q.176-.043.352.176.44.397.968.616.528.22 1.1.22.572.045 1.056-.176.528-.175.924-.616.66-.792.968-1.452.309-.66.484-1.32a7 7 0 0 0 .22-1.32q.089-.615.264-1.32zm17.867-2.772q0 .264-.66.704-5.412 3.652-7.304 3.652-1.233 0-1.232-1.408 0-.792.308-1.584.44-1.1.44-1.144 0-.176-.132-.176-.045 0-.22.088-.969.969-2.816 2.332-2.376 1.76-3.3 1.76-1.056 0-1.056-1.056 0-.615 1.54-3.388 1.54-2.815 1.54-3.256 0-.483-.792-.484-.176 0-.176-.528.395-.132.836-.132 1.54 0 1.54.88 0 .969-1.364 3.256-1.364 2.289-1.364 2.86 0 .352.308.352.703 0 3.432-2.332 2.771-2.331 4.268-4.224.66-.66.968-.66.572 0 .572.572 0 .309-.308.792-2.64 3.96-2.64 5.148 0 1.1 1.012 1.1 1.54 0 5.588-2.772.22-.175.616-.396.132-.132.264-.132t.132.176m11.618 2.42q-.132.177-.352.484l-.44.528a2.3 2.3 0 0 1-.352.484q-.177.22-.264.22-.573 0-.572-.616 0-.22.308-.88a65 65 0 0 1 1.056-1.452q.528-.704 1.012-1.452 1.54-2.2 1.54-3.124 0-.396-.264-.396-.177 0-.528.176a286 286 0 0 0-2.728 2.024 170 170 0 0 1-3.652 2.728h-.308q-.308 0-.308-.088 0-.087.484-.44a178 178 0 0 1 3.212-2.508 283 283 0 0 1 3.608-2.728q.483-.44 1.364-.44.88 0 .88.792 0 .88-1.276 2.816a2.3 2.3 0 0 1-.22.352 1.2 1.2 0 0 0-.22.308h.836q.483 0 1.1-.044 1.056-.087 1.804 0l.352-.616q.175-.308.396-.66.483-.747.924-1.364.483-.615.968-1.1.308-.396.968-.396.351.088.352.22l-1.54 2.552q-1.54 2.553-1.54 3.696 0 1.364 1.188 1.364 1.496 0 4.356-2.596.132-.132.264-.132t.132.176q0 .264-.88.88-1.409 1.232-2.552 1.892-1.145.616-2.156.616-1.98 0-1.98-1.672 0-1.1.484-2.244a16 16 0 0 0-2.86.044q-.617.044-.792.044h-.264a32 32 0 0 0-1.1 1.672q-.44.793-.44.88m26.568-2.42q0 .528-2.728 2.024-2.859 1.584-4.092 1.584-2.288 0-2.288-2.42 0-.66.704-1.496 0-.044-.044-.044.045 0-2.376 1.848-2.42 1.804-3.476 1.804-1.012 0-1.012-.836 0-2.023 3.388-4.708 3.213-2.596 5.016-2.596.264.044.572.308.352.22.352.352 0 .045-.044.088-2.464 0-6.292 3.828-1.232 1.233-1.232 2.068 0 .309.308.308.969 0 3.696-2.244 2.2-1.848 3.124-2.948.44-.528.616-.528.44 0 .44.616 0 .22-.572 1.012-1.892 2.597-1.892 3.3 0 1.233 1.364 1.232 2.244 0 6.072-2.596.132-.132.264-.132t.132.176m9.483 0q0 .177-.66.704a382 382 0 0 0-3.476 2.288q-2.508 1.497-4.092 1.496-.923 0-1.628-.66t-.704-1.496q0-2.904 2.816-5.324 2.508-2.156 4.664-2.156 1.364 0 1.364 1.1 0 .617-1.804 2.42a.54.54 0 0 1-.396.176q-.352 0-.352-.396 0-.175.132-.264.132-.132.528-.968.396-.879.396-1.32 0-.132-.308-.132-1.1 0-3.212 1.804-2.552 2.157-2.552 4.444 0 1.672 1.452 1.672 2.245 0 6.82-3.036.22-.175.616-.396.132-.132.264-.132t.132.176m19.697 0q0 .22-.66.704l-6.072 4.488q-.089 3.389-3.168 9.02-2.86 5.28-6.556 9.328-3.916 4.269-6.16 4.224-.748 0-1.276-.528t-.528-1.32q0-3.255 3.96-8.58 3.036-3.96 7.524-8.228 3.96-3.696 4.488-3.696a.9.9 0 0 0-.132-.484q-.617-1.1-1.716-1.1-.44 0-.968.176-1.056.352-1.276.352-.132 0-.176-.176 0-.44.88-.792 1.408-.616 3.388-2.332 2.332-2.067 2.332-3.344 0-.748-.704-.748-.616 0-2.684 1.408l-3.256 2.376q-.132.132-.264.132-.088 0-.088-.484.132-.087 1.584-1.188a851 851 0 0 0 2.948-2.332q1.54-1.232 2.772-1.232 1.584 0 1.584 1.672 0 2.025-5.192 5.412-.308.309-.308.44 0 .176.308.176 1.936 0 2.552 1.144 1.012-.571 3.212-2.332 2.024-1.584 3.256-2.2.132-.132.264-.132t.132.176m-8.228 6.336q0-.176-.044-.176-.968 0-4.62 3.696-3.872 3.873-6.688 7.964-3.388 4.972-3.388 7.744 0 1.012.66 1.012 1.32 0 4.84-3.828a49 49 0 0 0 6.16-8.184q3.08-5.103 3.08-8.228m21.316-6.336q-.175.573-3.036 2.288a121 121 0 0 0-4.884 2.992q-6.291 12.32-7.832 14.872-4.356 7.216-7.26 7.216-1.32 0-1.32-1.716 0-10.12 15.268-20.416 1.013-1.98 3.696-7.524 0-.044-.088-.044-.087 0-.308.22-.88.837-2.332 2.156-3.123 2.904-5.104 2.904-.924 0-.924-1.1 0-1.98 2.86-4.576 3.08-2.816 6.028-2.816.837 0 1.408.352l.924-1.276q.309-.396.616-.396.573 0 .572.616 0 .309-.22.616-2.067 3.081-5.412 9.768a62 62 0 0 1 4.092-2.376q2.2-1.275 2.86-1.804.132-.132.264-.132t.132.176m-4.136-4.664q0-.176-.396-.176-2.375 0-5.192 2.288-2.816 2.244-2.816 4.004 0 .528.484.528 1.805 0 7.7-6.292.22-.307.22-.352m-5.544 11.176q-13.42 9.504-13.42 18.788 0 1.144.748 1.144 2.817 0 12.672-19.932m20.056-6.512q0 .309-1.804 1.452-4.445 2.816-6.38 2.816-2.86 0-2.86-3.344 0-2.463 2.376-4.928 2.42-2.508 4.576-2.508.66 0 .66.616 0 1.497-2.596 4.224-2.068 2.157-3.388 2.948.132 1.936 1.848 1.936 1.628 0 5.456-2.2.308-.175 1.716-1.056.132-.132.264-.132t.132.176m-4.796-5.06q0-.528-.308-.528-1.1 0-2.684 2.2t-1.628 3.96q.835-.263 2.64-2.288 1.98-2.2 1.98-3.344m14.272 5.06q0 .177-.66.704a382 382 0 0 0-3.476 2.288q-2.508 1.497-4.092 1.496-.924 0-1.628-.66t-.704-1.496q0-2.904 2.816-5.324 2.508-2.156 4.664-2.156 1.364 0 1.364 1.1 0 .617-1.804 2.42a.54.54 0 0 1-.396.176q-.352 0-.352-.396 0-.175.132-.264.132-.132.528-.968.396-.879.396-1.32 0-.132-.308-.132-1.1 0-3.212 1.804-2.552 2.157-2.552 4.444 0 1.672 1.452 1.672 2.244 0 6.82-3.036.22-.175.616-.396.132-.132.264-.132t.132.176m.653 1.584q0 1.188.968 1.188.705 0 1.408-.396.704-.396 1.364-1.012-.66-.66-.66-1.628 0-1.056.572-1.804.617-.792 1.364-.792t.88.704q0 .66-.22 1.452-.219.749-.792 1.628.66.66 1.848.66 1.452 0 2.992-1.188.132-.132.22-.132.132 0 .132.176 0 .352-.484.66a7 7 0 0 1-1.144.572q-.615.264-1.276.44-.66.132-1.012.132-.615 0-.968-.132a4.5 4.5 0 0 1-.748-.484 6.9 6.9 0 0 1-2.112 1.716q-1.187.616-2.288.616-.836 0-1.232-.66a3.2 3.2 0 0 1-.396-1.584q0-.572.484-1.848.529-1.275 1.276-2.596a12.8 12.8 0 0 1 1.628-2.288q.925-1.012 1.672-1.012.352.088.352.22 0 .045-.748 1.012a28 28 0 0 0-1.452 2.244 17 17 0 0 0-1.188 2.42q-.44 1.101-.44 1.716m5.412-3.564q.177-.087 0-.132a.55.55 0 0 0-.308-.088q-.351 0-.704.484-.308.484-.308 1.276 0 .66.308 1.1.529-.66.748-1.364.264-.747.264-1.188zm10.43-1.54q0 .484-.528.924t-.924.44q-.835 0-.924-.88 0-.615.484-.968.484-.351.924-.352.969 0 .968.836m-1.98 6.204q0 .484-.528.924t-.924.44q-.835 0-.924-.88 0-.615.484-.968.485-.351.924-.352.968 0 .968.836"/></svg>