<svg xmlns="http://www.w3.org/2000/svg" width="282" height="154" fill="none" viewBox="0 0 282 154"><path fill="#f5cdcb" d="M112.555 136.251c-.24-1.53-2.14-6.46-3.86-7.24-.58 4.13 6.24 11.6.51 13.51-10.72-7.46-20-18.23-30.93-25.13-19.05-12-41.26-15.08-53.84-37-15.16-26.39 15.73-68 41.15-43.08 8.67 8.52 12.52 21.27 20.87 29.85-1.69-18.83-10.5-32.82-8.67-52.64 1.6-17.46 11.88-20 18.52-3.1 6 15.39 2.28 34.19 3.69 50.42 1.26 14.42 2.54 29 3.87 43.48.74 8.07 1 18.38 7.71 23.69l-5.88-54.61c-.15-2.16.26-4.63 3-4.33 2.33 27.71 8.22 55.14 6.77 83.1h-2.89c-.58-5.26.74-11.86-.02-16.92m-21.26-77.3c.61 5.41 0 12.68 0 18.36 0 .11-1.41 1.93-1.94 1-8.22-16.91-27-38.81-47.88-37.29-11.42.83-12 18.77-9.65 27.17 3.77 13.68 27.29 30.87 39.49 37.81 10.26 5.84 21.25 8.77 31.56 14.33-3.2-11.83-2.63-24.16-3.86-36.23-.93-9.16-3.27-19-3.85-28-.84-13.09 2.59-25-.27-38.37-2.21-10.34-10.67-23-12.28-4.12-1.51 17.62 6.95 30.01 8.68 45.34m-20.3-9.18c1.09-1.16-8.16-11-9.63-12.1-8.87-6.8-19.43-6.52-27.08 2 3 .07 4.61-1.53 8.21-1.53 10.5-.05 20.05 6.18 28.5 11.63m-30.58 37.35c-8.91-9-14-19-12.89-32 .24-2.86 2-5.46 1.45-8.22-17.08 27 9.09 48.12 32 57.81.89.37 2.46 2.1 3.22.65-7.63-5.76-17.07-11.44-23.78-18.24m68.26 51.55c-1.55-3.36-3.77-13.81-5.81-15.92-.88-.91-6.1-3.17-7.72-3.87-5.57-2.42-11.78-3.88-17.38-6.29z"/><path fill="#000" d="M91.885 95.432q.11 0 .11.088t-.11.088q-.33-.022-1.364-.022h-2.618q-1.035 0-1.364.022-.11 0-.11-.088t.11-.088q.726 0 1.056-.484.352-.484.352-1.65v-5.302l-5.258 5.28v.022q0 1.165.33 1.65.351.484 1.078.484.11 0 .11.088t-.11.088q-.353-.022-1.364-.022h-2.618q-1.034 0-1.386.022-.11 0-.11-.088t.11-.088q.726 0 1.078-.484t.352-1.65v-5.434q0-1.166-.352-1.65-.352-.506-1.078-.506-.11 0-.11-.088t.11-.088q.704.044 1.386.044h2.618q.66 0 1.364-.044.11 0 .11.088t-.11.088q-.726 0-1.078.506-.33.484-.33 1.65v5.126l5.258-5.28q-.023-1.1-.374-1.54-.33-.462-1.034-.462-.11 0-.11-.088t.11-.088q.66.044 1.364.044h2.618q.705 0 1.364-.044.11 0 .11.088t-.11.088q-.726 0-1.078.506-.33.484-.33 1.65v5.434q0 1.165.33 1.65.351.484 1.078.484m16.19-6.072q.022.088-.044.088t-.088-.088q-.814-3.058-1.804-3.41-.198-.154-1.54-.154-.132 0-.22.154a.63.63 0 0 0-.088.352v6.996q0 1.165.33 1.65.352.484 1.078.484.11 0 .11.088t-.11.088a26 26 0 0 0-1.364-.022h-2.618q-1.034 0-1.364.022-.11 0-.11-.088t.11-.088q.726 0 1.056-.484.352-.484.352-1.65v-6.996a.6.6 0 0 0-.088-.352q-.088-.154-.22-.154-1.341 0-1.54.154-.99.352-1.804 3.41-.021.088-.088.088-.065 0-.044-.088.264-1.957.264-3.586 0-.352.286-.352.133 0 .748.088.639.088 2.486.088h2.53q1.782 0 2.442-.088t.814-.088q.264 0 .264.352 0 1.627.264 3.586m6.398 6.578q-1.518 0-2.75-.638a4.93 4.93 0 0 1-1.914-1.848q-.682-1.188-.682-2.706 0-1.54.792-2.794a5.56 5.56 0 0 1 2.156-2.002q1.386-.726 3.036-.726 1.539 0 2.772.66a4.76 4.76 0 0 1 1.958 1.804q.704 1.166.704 2.662a5.24 5.24 0 0 1-.814 2.838q-.793 1.275-2.2 2.024-1.386.726-3.058.726m1.21-.528q1.254 0 1.958-.704.726-.726.726-2.112 0-1.342-.704-2.97-.682-1.628-1.738-2.75-1.035-1.144-2.024-1.144-1.233 0-1.936.704-.704.704-.704 2.112 0 1.32.682 2.97.681 1.628 1.716 2.772 1.055 1.122 2.024 1.122m17.543.022q.11 0 .11.088t-.11.088a27 27 0 0 0-1.364-.022h-2.618q-1.033 0-1.386.022-.11 0-.11-.088t.11-.088q.726 0 1.078-.484t.352-1.65v-7.59h-4.466q-.088 1.782-.44 6.754-.088 1.605-.506 2.552-.396.924-1.408.924-1.188 0-1.188-.66 0-.132.022-.198l.528-2.09q.044-.11.11-.088.066 0 .066.11.022.946.242 1.276t.726.33q1.1 0 1.254-2.156l.286-4.62.022-.44q0-.902-.33-1.298t-.99-.396q-.11 0-.11-.088t.11-.088l1.364.022h7.282l1.364-.022q.11 0 .11.088t-.11.088q-.726 0-1.078.484-.33.484-.33 1.65v5.456q0 1.165.33 1.65.352.484 1.078.484m6.931-5.588q4.51-.066 4.51 2.75 0 1.452-1.056 2.222-1.055.77-3.146.77h-4.62q-1.033 0-1.386.022-.11 0-.11-.088t.11-.088q.726 0 1.078-.484t.352-1.65v-5.456q0-1.165-.352-1.65t-1.078-.484q-.11 0-.11-.088t.11-.088l1.386.022h2.618l1.364-.022q.11 0 .11.088t-.11.088q-.726 0-1.078.484-.33.484-.33 1.65v1.782q0 .242.198.242zm-.352 5.566q1.056-.022 1.628-.77.594-.748.594-2.002 0-1.232-.594-1.914-.594-.705-1.716-.682l-1.1.022q-.198 0-.198.242v4.532q0 .352.088.484.088.11.352.11zm17.597.066q.11 0 .11.088 0 .066-.11.066-.615-.045-3.014-.044-.594 0-.858-.22a1.1 1.1 0 0 1-.33-.55l-.682-1.914q-.33-.968-.638-1.474a1.86 1.86 0 0 0-.814-.77q-.483-.242-1.32-.242h-.198v2.882q0 1.165.33 1.65.352.484 1.078.484.11 0 .11.088t-.11.088a26 26 0 0 0-1.364-.022h-2.618q-1.034 0-1.386.022-.11 0-.11-.088t.11-.088q.727 0 1.078-.484t.352-1.65v-5.434q0-1.166-.352-1.65-.351-.484-1.078-.484-.11 0-.11-.088t.11-.088l1.386.022h2.618l1.364-.022q.11 0 .11.088t-.11.088q-.726 0-1.078.484-.33.484-.33 1.65v2.42h.198q1.563 0 2.376-.484.814-.506 1.474-1.716l.22-.418q.374-.682.374-1.166 0-.792-1.056-.792-.11 0-.11-.088t.11-.088l1.364.022h.528l1.364-.022q.11 0 .11.088t-.11.088q-.681 0-1.122.418-.44.396-1.1 1.496l-.33.572q-.549.924-1.188 1.43-.615.484-1.54.66 1.673.022 2.618.594.946.55 1.54 1.936l.33.792q.463 1.078.814 1.474.352.374.99.396m6.033.462q-1.517 0-2.75-.638a4.94 4.94 0 0 1-1.914-1.848q-.681-1.188-.682-2.706 0-1.54.792-2.794a5.57 5.57 0 0 1 2.156-2.002q1.386-.726 3.036-.726 1.54 0 2.772.66a4.75 4.75 0 0 1 1.958 1.804q.704 1.166.704 2.662a5.24 5.24 0 0 1-.814 2.838q-.792 1.275-2.2 2.024-1.386.726-3.058.726m1.21-.528q1.254 0 1.958-.704.726-.726.726-2.112 0-1.342-.704-2.97-.681-1.628-1.738-2.75-1.034-1.144-2.024-1.144-1.231 0-1.936.704t-.704 2.112q0 1.32.682 2.97.683 1.628 1.716 2.772 1.056 1.122 2.024 1.122m21.958-9.922q.132 0 .132.088 0 .066-.132.088-.77.022-1.188.55-.396.506-.396 1.716v7.502h1.232q.154 0 .154.154l.044.77q.111 1.386.132 1.672.022.132-.066.132-.066 0-.088-.11-.241-1.275-.814-1.87-.549-.594-1.65-.594h-6.204q-1.1 0-1.672.594-.549.594-.792 1.87-.021.11-.11.11-.065 0-.044-.132.132-1.144.132-1.672l.044-.77q0-.154.154-.154h.682q.77 0 1.166-2.442.419-2.442.528-5.654-.087-.902-.484-1.276-.396-.374-1.078-.396-.132-.022-.132-.088.022-.088.132-.088.924.066 1.276.066h7.766q.418 0 1.276-.066m-4.114 9.944v-9.724h-4.466q0 3.145-.374 6.138-.351 2.97-1.1 3.586zm14.456-1.804q.021-.022.066.022.066.044.022.11a5.65 5.65 0 0 1-2.068 1.606q-1.21.55-2.53.55a5.36 5.36 0 0 1-2.574-.638 4.86 4.86 0 0 1-1.892-1.804q-.682-1.188-.682-2.728 0-1.518.748-2.794a5.5 5.5 0 0 1 2.068-2.002 5.6 5.6 0 0 1 2.838-.748q1.716 0 2.86.946 1.144.924 1.144 2.53 0 .726-.264 1.562-2.31.044-7.084.198.373 1.21 1.144 2.178a6.2 6.2 0 0 0 1.804 1.496q1.011.528 1.98.528 1.605 0 2.42-1.012m-5.082-8.008q-1.233 0-1.892.77-.638.748-.638 2.266 0 .748.22 1.628a87 87 0 0 0 2.948-.11q.44-.023.902-.044.483-.022.968-.022.198-.33.198-.814 0-.726-.418-1.584a4.5 4.5 0 0 0-1.034-1.474q-.617-.616-1.254-.616m6.34 9.966q-.11 0-.11-.088t.11-.088q.748.022 1.078-.462.352-.484.352-1.65v-5.434q0-1.166-.352-1.65-.33-.484-1.056-.484-.11 0-.11-.088t.11-.088q.66.045 1.364.044 2.773-.066 5.038-.066 1.738 0 2.706.594.968.572.968 1.782 0 .792-.682 1.43-.66.616-1.65.726 1.276.066 2.134.748t.858 1.87q0 1.386-1.1 2.178-1.078.792-2.992.792l-5.28-.088zm5.874-5.632q1.122-.132 1.606-.594.484-.484.484-1.474 0-1.078-.572-1.606-.55-.528-1.408-.55l-1.562-.066h-.066q-.22 0-.286.11t-.066.396v8.668q0 .396.11.55.132.132.484.132l1.386-.022q1.123 0 1.738-.638.639-.66.638-1.936 0-1.297-.572-1.98-.549-.705-1.848-.748l-.748-.022q-.087 0-.088-.066 0-.066.066-.088zm11.458 5.984q-1.518 0-2.75-.638a4.93 4.93 0 0 1-1.914-1.848q-.682-1.188-.682-2.706 0-1.54.792-2.794a5.57 5.57 0 0 1 2.156-2.002q1.386-.726 3.036-.726 1.54 0 2.772.66a4.75 4.75 0 0 1 1.958 1.804q.704 1.166.704 2.662a5.24 5.24 0 0 1-.814 2.838q-.792 1.275-2.2 2.024-1.386.726-3.058.726m1.21-.528q1.254 0 1.958-.704.726-.726.726-2.112 0-1.342-.704-2.97-.682-1.628-1.738-2.75-1.034-1.144-2.024-1.144-1.232 0-1.936.704t-.704 2.112q0 1.32.682 2.97.683 1.628 1.716 2.772 1.056 1.122 2.024 1.122m18.314.022q.11 0 .11.088t-.11.088q-.33-.022-1.364-.022h-2.618q-1.034 0-1.364.022-.11 0-.11-.088t.11-.088q.726 0 1.056-.484.352-.484.352-1.65v-2.816a4.8 4.8 0 0 1-1.694 1.122 5.4 5.4 0 0 1-2.046.396q-1.606 0-2.64-.792-1.034-.815-1.034-2.64v-.726q0-1.165-.352-1.65-.33-.484-1.056-.484-.11 0-.11-.088t.11-.088l1.364.022h2.618l1.364-.022q.11 0 .11.088t-.11.088q-.727 0-1.078.484-.33.484-.33 1.65v1.012q0 1.386.638 2.002.637.594 1.54.594.703 0 1.386-.33.703-.33 1.32-.99v-2.288q0-1.165-.352-1.65-.33-.484-1.056-.484-.11 0-.11-.088t.11-.088l1.364.022h2.618l1.364-.022q.11 0 .11.088t-.11.088q-.727 0-1.078.484-.33.484-.33 1.65v5.456q0 1.165.33 1.65.351.484 1.078.484m13.072.044q.11 0 .11.088 0 .066-.11.066-.617-.045-3.014-.044-.594 0-.858-.22a1.1 1.1 0 0 1-.33-.55l-.682-1.914q-.33-.968-.638-1.474a1.87 1.87 0 0 0-.814-.77q-.484-.242-1.32-.242h-.198v2.882q0 1.165.33 1.65.352.484 1.078.484.11 0 .11.088t-.11.088q-.33-.022-1.364-.022h-2.618q-1.035 0-1.386.022-.11 0-.11-.088t.11-.088q.726 0 1.078-.484t.352-1.65v-5.434q0-1.166-.352-1.65t-1.078-.484q-.11 0-.11-.088t.11-.088l1.386.022h2.618l1.364-.022q.11 0 .11.088t-.11.088q-.726 0-1.078.484-.33.484-.33 1.65v2.42h.198q1.561 0 2.376-.484.813-.506 1.474-1.716l.22-.418q.374-.682.374-1.166 0-.792-1.056-.792-.11 0-.11-.088t.11-.088l1.364.022h.528l1.364-.022q.11 0 .11.088t-.11.088q-.683 0-1.122.418-.44.396-1.1 1.496l-.33.572q-.55.924-1.188 1.43-.616.484-1.54.66 1.671.022 2.618.594.946.55 1.54 1.936l.33.792q.462 1.078.814 1.474.351.374.99.396m13.953-.044q.11 0 .11.088t-.11.088q-.33-.022-1.364-.022h-2.618q-1.034 0-1.364.022-.11 0-.11-.088t.11-.088q.726 0 1.056-.484.352-.484.352-1.65v-5.302l-5.258 5.28v.022q0 1.165.33 1.65.352.484 1.078.484.11 0 .11.088t-.11.088a27 27 0 0 0-1.364-.022h-2.618q-1.034 0-1.386.022-.11 0-.11-.088t.11-.088q.726 0 1.078-.484t.352-1.65v-5.434q0-1.166-.352-1.65-.352-.506-1.078-.506-.11 0-.11-.088t.11-.088q.704.044 1.386.044h2.618q.66 0 1.364-.044.11 0 .11.088t-.11.088q-.726 0-1.078.506-.33.484-.33 1.65v5.126l5.258-5.28q-.022-1.1-.374-1.54-.33-.462-1.034-.462-.11 0-.11-.088t.11-.088q.66.044 1.364.044h2.618q.704 0 1.364-.044.11 0 .11.088t-.11.088q-.726 0-1.078.506-.33.484-.33 1.65v5.434q0 1.165.33 1.65.352.484 1.078.484M75.967 44.962q0 4.445-4.268 11-3.3 5.105-8.184 10.032-4.311 4.4-5.28 4.4.133 4.136 2.596 4.136 1.893 0 4.092-1.628a3.5 3.5 0 0 1-.44-1.716q0-2.992 1.936-2.992.792 0 .924 1.1 0 1.54-1.32 3.08.748 1.232 2.332 1.232 1.716 0 3.344-1.408.132-.132.264-.132t.132.176-.44.528q-1.936 1.628-3.916 1.628-1.627 0-2.596-1.1-2.595 2.376-5.06 2.376-1.451 0-2.42-1.188-.924-1.232-.924-2.948 0-4.884 3.432-11.836 3.125-6.336 7.436-11.22 4.312-4.928 6.952-4.928 1.408 0 1.408 1.408m-1.276.66q0-1.012-.792-1.012-2.067 0-5.94 4.972-3.651 4.665-6.556 10.516-3.08 6.16-3.08 9.284 0 .176.088.176.837 0 4.84-4.312 4.444-4.752 7.524-9.592 3.916-6.16 3.916-10.032m-7.788 23.936q0-.44-.308-.44-.924 0-.924 1.804 0 .615.176 1.1 1.056-1.188 1.056-2.464m14.69 2.684q0 .176-.66.704a359 359 0 0 0-3.476 2.288q-2.507 1.496-4.091 1.496-.925 0-1.629-.66-.703-.66-.703-1.496 0-2.903 2.816-5.324 2.508-2.156 4.663-2.156 1.364 0 1.364 1.1 0 .615-1.803 2.42a.55.55 0 0 1-.397.176q-.351 0-.352-.396 0-.175.132-.264.133-.131.529-.968.395-.88.395-1.32 0-.132-.308-.132-1.1 0-3.211 1.804-2.553 2.156-2.552 4.444 0 1.672 1.451 1.672 2.244 0 6.82-3.036.22-.176.617-.396.132-.132.264-.132.131 0 .132.176m10.29 0q0 .308-1.804 1.452-4.445 2.816-6.38 2.816-2.86 0-2.86-3.344 0-2.464 2.376-4.928 2.42-2.508 4.576-2.508.66 0 .66.616 0 1.495-2.596 4.224-2.069 2.156-3.388 2.948.132 1.936 1.848 1.936 1.628 0 5.456-2.2.308-.176 1.716-1.056.132-.132.264-.132t.132.176m-4.796-5.06q0-.528-.308-.528-1.1 0-2.684 2.2t-1.628 3.96q.835-.264 2.64-2.288 1.98-2.2 1.98-3.344M98.06 75.63q-.792.264-1.54.44-.705.176-1.32.176-.572 0-1.012-.22-.396-.22-.528-.792-.132-.44.264-1.1.44-.704 1.1-1.452t1.364-1.496q.748-.792 1.276-1.408.572-.66.792-1.056.264-.44-.132-.528-.22-.264-.924.176-.66.44-1.584 1.188t-1.98 1.584q-1.012.836-1.892 1.32H91.9q-.088 0-.176-.176a1.2 1.2 0 0 1-.044-.264 30 30 0 0 0 2.2-1.628q1.144-.924 2.156-1.76a54 54 0 0 1 1.848-1.408q.792-.572 1.188-.572.528-.088.836.308.352.353.44.66.132.748-.528 1.584-.615.836-2.068 2.156-.748.66-1.364 1.452-.615.748-.88 1.364-.263.572-.044.924.22.308 1.144.132a7.3 7.3 0 0 0 1.672-.176q.748-.22 1.496-.572a25 25 0 0 0 1.672-.924 73 73 0 0 1 2.156-1.276.5.5 0 0 0 .132-.088q.043-.044.132-.044.044 0 .044.308 0 .264-.22.308-.968.66-1.584 1.056a10 10 0 0 1-1.188.66 16 16 0 0 1-1.188.528q-.615.22-1.672.616m17.795-3.388q0 .176-.44.528-1.936 1.628-3.916 1.628-1.232 0-2.112-.66-2.024 2.64-4.4 2.64-1.76 0-1.76-2.2 0-2.86 2.816-5.764 2.376-2.42 3.476-2.42.704 0 .704.44 0 .132-.264.352-1.056.22-2.86 2.244-2.2 2.465-2.2 4.752 0 1.496 1.056 1.496 1.54 0 3.124-1.804-.836-.924-.836-2.288 0-1.584.792-2.728.705-.968 1.496-.968.792 0 .924 1.1 0 1.935-1.364 4.18.749.836 2.024.836 1.716 0 3.344-1.408.132-.132.264-.132t.132.176m-4.84-3.388q0-.44-.308-.44-.395 0-.836.704t-.44 1.804q0 .924.396 1.54 1.188-1.848 1.188-3.608m27.072 7.04q0 .572-.748.572-1.628 0-3.74-.836-.44-.176-3.608-1.628-2.332 2.112-3.916 2.112-1.276 0-2.068-.836-.704-.705-.704-1.672 0-1.76 2.068-1.76t4.796 1.276q2.332-2.244 4.092-5.676 1.804-3.432 1.804-5.896 0-3.036-2.816-3.036-1.848 0-3.3 1.54-1.584 1.716-1.584 4.224 0 2.42 1.54 2.42.749 0 1.452-.66.703-.704.792-1.716.528 0 .572.22 0 1.144-1.232 2.288-1.188 1.1-2.376 1.1-1.936 0-1.936-3.036 0-2.947 2.244-5.148 2.068-2.068 4.532-2.068 3.256 0 3.256 3.564 0 2.595-2.024 6.248a27 27 0 0 1-4.488 5.852q3.344 1.627 3.52 1.716 2.024.836 3.872.836m-8.668-2.156q-2.464-1.144-3.608-1.144-1.32 0-1.32 1.012 0 .572.484 1.1t1.1.528q1.496 0 3.344-1.496m22.727-10.78q0 4.532-3.168 9.152-3.124 4.62-6.424 4.62-1.848 0-2.86-1.408-1.012-1.409-1.012-3.872 0-3.696 2.156-7.04a17.5 17.5 0 0 1 4.444-4.62q2.332-1.628 3.608-1.628 1.495 0 2.376 1.32.88 1.276.88 3.476m-.924 1.012q0-4.488-2.86-4.488-2.904 0-5.72 3.608-2.948 3.696-2.948 7.788 0 2.025.924 3.256.924 1.232 2.508 1.232 2.684 0 5.324-3.52 2.772-3.697 2.772-7.876m19.751 7.26q.528-.616 1.32-1.584a64 64 0 0 0 1.54-1.848q.396-.264.792-.132t.22.352q-1.32 1.98-1.936 3.52t-.616 2.156q0 1.1 1.012 1.1 1.54 0 5.588-2.772.089-.088.396-.308.352-.22.484-.22t.132.176q0 .263-.66.704-5.456 3.652-7.304 3.652-1.232 0-1.232-1.408 0-.44.088-.924.132-.528.264-.924.175-.396.264-.66.132-.264.132-.22 0-.176-.132-.176-.308.352-.968 1.012t-1.408 1.32-1.496 1.144q-.749.44-1.188.396-.528-.045-.66-.352-.132-.352 0-.836t.44-1.056.66-1.1q.088-.132.308-.484.22-.396.396-.748.22-.352.308-.572t-.088-.088q-.044-.088-.352.264-.264.308-.748.836t-1.144 1.144q-.616.572-1.408 1.056-.572.352-1.188.748-.616.353-1.232.66a8 8 0 0 1-1.188.44 3.1 3.1 0 0 1-1.144.132 3.2 3.2 0 0 1-1.1-.264q-.528-.264-.528-1.1 0-.484.264-.836.22-.352.484-.352.22 0 .352.22t.308.528q.175.264.396.484.22.22.616.22h.264q.353 0 1.716-.616 2.42-1.144 4.048-2.816a35 35 0 0 0 2.992-3.388q.66-.66.968-.66.132 0 .308.132.22.088.264.352.088.264-.132.748-.176.44-.748 1.144-.352.353-.836 1.056-.44.704-.924 1.496-.44.792-.836 1.496-.352.705-.484 1.012.044.353.572.044a8.4 8.4 0 0 0 1.276-.88q.749-.572 1.452-1.232.704-.704 1.056-1.188m18.836 1.012q0 .308-1.804 1.452-4.443 2.816-6.38 2.816-2.86 0-2.86-3.344 0-2.464 2.376-4.928 2.42-2.508 4.576-2.508.66 0 .66.616 0 1.495-2.596 4.224-2.067 2.156-3.388 2.948.132 1.936 1.848 1.936 1.629 0 5.456-2.2.309-.176 1.716-1.056.132-.132.264-.132t.132.176m-4.796-5.06q0-.528-.308-.528-1.1 0-2.684 2.2t-1.628 3.96q.837-.264 2.64-2.288 1.98-2.2 1.98-3.344m14.273 5.06q0 .176-.66.704a364 364 0 0 0-3.476 2.288q-2.508 1.496-4.092 1.496-.924 0-1.628-.66t-.704-1.496q0-2.903 2.816-5.324 2.508-2.156 4.664-2.156 1.364 0 1.364 1.1 0 .615-1.804 2.42a.55.55 0 0 1-.396.176q-.352 0-.352-.396 0-.175.132-.264.132-.131.528-.968.396-.88.396-1.32 0-.132-.308-.132-1.1 0-3.212 1.804-2.552 2.156-2.552 4.444 0 1.672 1.452 1.672 2.244 0 6.82-3.036.22-.176.616-.396.132-.132.264-.132t.132.176m26.525 0q0 .263-.66.704-3.124 2.112-3.476 2.332-1.98 1.188-3.3 1.188-.748 0-1.276-.528a1.82 1.82 0 0 1-.484-1.276q0-2.2 2.816-6.292.22-.308.22-.396 0-.044-.044-.044-.176 0-.616.308l-5.456 4.092q-1.276 1.1-3.74 3.08-.352.264-.968.484-.308 0-.308-.44 0-.88 1.452-2.816 1.496-1.98 1.496-2.772 0-.748-.704-.748-1.056 0-4.224 2.86a51 51 0 0 0-3.784 3.74q-.616.66-.968.66-.572 0-.572-.616 0-.175.308-.88a179 179 0 0 0 2.068-2.904q1.54-2.2 1.54-3.124 0-.396-.264-.396-.132 0-.528.176l-6.38 4.752h-.308q-.308 0-.308-.088 0-.132.484-.44a421 421 0 0 1 6.82-5.236q.528-.44 1.364-.44.88 0 .88.792 0 .176-.088.528-.88 1.54-2.244 3.916-.176.308-.176.396 0 .044.088.044l.132-.044 3.256-2.816q2.508-2.112 3.608-2.112 1.452 0 1.452.924 0 .792-.88 2.42-.836 1.584-.836 1.716t.088.132q.176 0 .616-.308l9.152-6.908q.44-.352.924-.352.308 0 .44.132.132.088.132.352a.82.82 0 0 1-.176.528 819 819 0 0 1-2.508 3.564q-1.496 2.288-1.496 3.96 0 1.056 1.144 1.012 1.364-.044 3.08-1.1l2.816-1.76q.132-.132.264-.132t.132.176"/></svg>