<svg xmlns="http://www.w3.org/2000/svg" width="407" height="145" fill="none" viewBox="0 0 407 145"><path fill="#f5cdcb" d="M40.736 51.52c-2.16-2.48-1.79-15.63-2.4-19.55-1.51-9.78-5.13-27.56-17.76-27.28-20.14.45-15.63 29.5-11.5 42.24 7.61 23.45 30.31 38.54 30.91 64.09 10-7.44 17.86-14.81 25.26-24.8 9.46-12.75 26.77-40.24 24.05-56.18-4.05-23.76-29 2.69-33.37 13.15-3.5 8.46-.68 15.81-2.37 23.17-1.18 5.15-5.48 5.18-6.69 0-1.3-5.56 2.46-30.73 4.68-36.75 7.75-21 40.25-32.8 43.09-4.9 2.92 28.59-14.55 58.84-35.2 77.15-3.1 2.74-19.08 13.46-19.71 14.51-1.45 2.41-2.27 14.23-5.18 19.86-10.3 19.93-12.73-1.72-6.13-13.28 4.12-7.2 9-6.19 7.73-16.26-1.85-15.27-12.51-24-20.39-35.79-10.58-15.84-20.92-39.54-12.9-58.31 7.21-16.87 25.81-16.52 34-.55 5.31 10.4 4.78 20.8 5.85 32 .19 2 2.08 6.22 1.93 7.24-.31 1.72-3.01 1.25-3.9.24m49.82-29.38c-6.5-22.5-35.23-2.07-34.72 14.3 8.23-9.45 21.95-28.31 34.72-14.3m-54.14 98.09c-8.29 2.93-10.63 14.85-9.18 22.46 1.68-1.17 3.71-4.29 4.58-6.12 2.53-5.34 3.18-10.74 4.6-16.34"/><path fill="#000" d="M32.355 40.202q1.738 0 2.75.66 1.035.66 1.034 1.76 0 .946-.66 1.518t-1.672.704q1.254.066 2.134.814.88.726.88 1.914 0 1.54-1.188 2.442t-3.212.902q-2.75 0-4.18-2.2-.045-.088 0-.11.065-.044.11.022.748 1.144 2.816 1.144 1.54 0 2.332-.55t.792-2.024q0-1.122-.55-1.65t-1.87-.55l-.748-.044q-.088 0-.088-.066t.066-.066l.704-.066q1.21-.131 1.716-.638.528-.506.528-1.65 0-1.914-2.068-1.914-1.32 0-2.134.968-.815.946-1.32 2.904-.022.088-.11.066-.066-.022-.044-.11l.374-2.178q.088-.484.528-.946t1.232-.748q.792-.308 1.848-.308m16.65.286q.13 0 .131.088 0 .066-.132.088-.77.022-1.188.55-.396.506-.396 1.716v7.502h1.232q.154 0 .154.154l.044.77q.111 1.386.132 1.672.023.132-.066.132-.066 0-.088-.11-.241-1.276-.814-1.87-.549-.594-1.65-.594H40.16q-1.1 0-1.672.594-.549.595-.792 1.87-.021.11-.11.11-.066 0-.044-.132.132-1.144.132-1.672l.044-.77q0-.154.154-.154h.682q.77 0 1.166-2.442.419-2.442.528-5.654-.087-.902-.484-1.276-.396-.374-1.078-.396-.132-.022-.132-.088.022-.088.132-.088.924.066 1.276.066h7.766q.418 0 1.276-.066m-4.115 9.944v-9.724h-4.466q0 3.146-.374 6.138-.351 2.97-1.1 3.586zm14.456-1.804q.021-.022.066.022.066.044.022.11a5.65 5.65 0 0 1-2.068 1.606q-1.21.55-2.53.55a5.36 5.36 0 0 1-2.574-.638 4.86 4.86 0 0 1-1.892-1.804q-.682-1.188-.682-2.728 0-1.518.748-2.794a5.53 5.53 0 0 1 2.068-2.002 5.6 5.6 0 0 1 2.838-.748q1.716 0 2.86.946 1.144.925 1.144 2.53 0 .726-.264 1.562-2.31.044-7.084.198.373 1.21 1.144 2.178a6.2 6.2 0 0 0 1.804 1.496q1.011.528 1.98.528 1.605 0 2.42-1.012m-5.082-8.008q-1.233 0-1.892.77-.639.748-.638 2.266 0 .748.22 1.628a87 87 0 0 0 2.948-.11q.44-.023.902-.044.483-.022.968-.022.198-.33.198-.814 0-.726-.418-1.584a4.5 4.5 0 0 0-1.034-1.474q-.617-.615-1.254-.616m14.651 5.39q-.044.11-.132.11-.066-.022-.022-.154.11-.44.11-.858 0-1.013-.484-2.046-.484-1.056-1.276-1.738t-1.672-.682q-2.596 0-2.596 2.97 0 1.628.748 3.036.748 1.386 1.936 2.2 1.21.814 2.442.814 1.584 0 2.42-1.012.088-.088.132-.022.045.045 0 .11-1.738 2.178-4.598 2.178a5.4 5.4 0 0 1-2.596-.638 5 5 0 0 1-1.914-1.804q-.705-1.188-.704-2.728 0-1.495.748-2.772a5.7 5.7 0 0 1 2.068-2.024 5.54 5.54 0 0 1 2.816-.748q1.056 0 1.98.286t1.408.748q.507.44.396.88zm8.13-1.166q4.51-.066 4.51 2.75 0 1.452-1.056 2.222t-3.146.77h-4.621q-1.033 0-1.385.022-.11 0-.11-.088t.11-.088q.726 0 1.078-.484.351-.485.352-1.65v-5.456q0-1.166-.353-1.65-.351-.484-1.078-.484-.11 0-.11-.088t.11-.088l1.386.022h2.618l1.365-.022q.11 0 .11.088t-.11.088q-.726 0-1.079.484-.33.485-.33 1.65v1.782q0 .242.198.242zm-.353 5.566q1.057-.022 1.629-.77.593-.748.594-2.002 0-1.232-.595-1.914-.593-.705-1.715-.682l-1.1.022q-.198 0-.198.242v4.532q0 .352.087.484.089.11.352.11zm23.552.022q.11 0 .11.088t-.11.088q-.33-.022-1.364-.022h-2.618q-.968 0-1.298.022-.11 0-.11-.088t.11-.088q.704 0 1.012-.484.33-.485.33-1.65v-2.882q0-.264-.198-.242a15.5 15.5 0 0 1-2.31.176 15.5 15.5 0 0 1-2.31-.176h-.022q-.132 0-.132.242v2.882q0 1.165.308 1.65.33.484 1.034.484.11 0 .11.088t-.11.088q-.33-.022-1.298-.022H88.76q-1.034 0-1.386.022-.11 0-.11-.088t.11-.088q.726 0 1.078-.484.352-.485.352-1.65v-5.456q0-1.166-.352-1.65t-1.078-.484q-.11 0-.11-.088t.11-.088l1.386.022h2.618l1.298-.022q.11 0 .11.088t-.11.088q-.704 0-1.034.484-.308.485-.308 1.65v1.914q0 .242.154.264 1.122.176 2.244.176 1.188 0 2.376-.176.11-.022.154-.088a.3.3 0 0 0 .044-.176v-1.914q0-1.166-.33-1.65-.309-.484-1.012-.484-.11 0-.11-.088t.11-.088l1.298.022h2.618l1.364-.022q.11 0 .11.088t-.11.088q-.726 0-1.078.484-.33.485-.33 1.65v5.456q0 1.165.33 1.65.351.484 1.078.484m10.793-1.804q.023-.022.066.022.066.044.022.11a5.64 5.64 0 0 1-2.068 1.606q-1.21.55-2.53.55a5.36 5.36 0 0 1-2.574-.638 4.86 4.86 0 0 1-1.892-1.804q-.682-1.188-.682-2.728 0-1.518.748-2.794a5.53 5.53 0 0 1 2.068-2.002 5.6 5.6 0 0 1 2.838-.748q1.716 0 2.86.946 1.144.925 1.144 2.53 0 .726-.264 1.562-2.31.044-7.084.198a6.6 6.6 0 0 0 1.144 2.178 6.2 6.2 0 0 0 1.804 1.496q1.012.528 1.98.528 1.606 0 2.42-1.012m-5.082-8.008q-1.232 0-1.892.77-.638.748-.638 2.266 0 .748.22 1.628a87 87 0 0 0 2.948-.11q.44-.023.902-.044.484-.022.968-.022.198-.33.198-.814 0-.726-.418-1.584a4.5 4.5 0 0 0-1.034-1.474q-.616-.615-1.254-.616m15.023-.418q1.738 0 2.75.66 1.034.66 1.034 1.76 0 .946-.66 1.518t-1.672.704q1.254.066 2.134.814.88.726.88 1.914 0 1.54-1.188 2.442t-3.212.902q-2.75 0-4.18-2.2-.044-.088 0-.11.066-.044.11.022.748 1.144 2.816 1.144 1.54 0 2.332-.55t.792-2.024q0-1.122-.55-1.65t-1.87-.55l-.748-.044q-.088 0-.088-.066t.066-.066l.704-.066q1.21-.131 1.716-.638.528-.506.528-1.65 0-1.914-2.068-1.914-1.32 0-2.134.968-.815.946-1.32 2.904-.022.088-.11.066-.066-.022-.044-.11l.374-2.178q.088-.484.528-.946t1.232-.748q.792-.308 1.848-.308m18.453 10.23q.11 0 .11.088t-.11.088a26 26 0 0 0-1.364-.022h-2.618q-.968 0-1.298.022-.11 0-.11-.088t.11-.088q.705 0 1.012-.484.33-.485.33-1.65v-2.882q0-.264-.198-.242-1.165.176-2.31.176-1.143 0-2.31-.176h-.022q-.132 0-.132.242v2.882q0 1.165.308 1.65.33.484 1.034.484.11 0 .11.088t-.11.088q-.33-.022-1.298-.022h-2.618q-1.034 0-1.386.022-.11 0-.11-.088t.11-.088q.726 0 1.078-.484.352-.485.352-1.65v-5.456q0-1.166-.352-1.65-.351-.484-1.078-.484-.11 0-.11-.088t.11-.088l1.386.022h2.618l1.298-.022q.11 0 .11.088t-.11.088q-.704 0-1.034.484-.308.485-.308 1.65v1.914q0 .242.154.264 1.122.176 2.244.176 1.188 0 2.376-.176.11-.022.154-.088a.3.3 0 0 0 .044-.176v-1.914q0-1.166-.33-1.65-.307-.484-1.012-.484-.11 0-.11-.088t.11-.088l1.298.022h2.618l1.364-.022q.11 0 .11.088t-.11.088q-.726 0-1.078.484-.33.485-.33 1.65v5.456q0 1.165.33 1.65.352.484 1.078.484m12.334-3.608q0-.11.066-.11t.066.11q0 1.672-.726 2.86-.705 1.188-1.848 1.188-.837 0-1.408-.55-.573-.572-.638-1.694-.529 1.1-1.408 1.694a3.25 3.25 0 0 1-1.892.594q-1.738 0-2.574-.968a3.44 3.44 0 0 1-.836-2.288q0-1.276 1.144-2.046 1.166-.77 2.904-.77.594 0 1.32.11.748.11 1.342.286v-.968q0-3.388-2.948-3.388-1.21 0-2.068.792-.836.792-.836 2.376 0 .088-.044.132-.045.044-.088.044-.088 0-.088-.176 0-1.232.616-2.09a3.84 3.84 0 0 1 1.584-1.32 4.9 4.9 0 0 1 2.046-.44q4.356 0 4.356 4.07v3.608q0 1.452.748 1.452.726 0 .946-.638.219-.66.264-1.87m-6.644 2.838q2.156 0 2.156-2.618v-.132a2.28 2.28 0 0 0-.924-1.254 2.53 2.53 0 0 0-1.496-.484q-2.178 0-2.178 1.672 0 1.122.638 1.98.637.836 1.804.836m18.606.814q.11 0 .11.088 0 .066-.11.066-.616-.044-3.014-.044-.594 0-.858-.22a1.1 1.1 0 0 1-.33-.55l-.682-1.914q-.33-.968-.638-1.474a1.87 1.87 0 0 0-.814-.77q-.484-.242-1.32-.242h-.198v2.882q0 1.165.33 1.65.352.484 1.078.484.11 0 .11.088t-.11.088q-.33-.022-1.364-.022h-2.618q-1.034 0-1.386.022-.11 0-.11-.088t.11-.088q.726 0 1.078-.484.352-.485.352-1.65v-5.434q0-1.165-.352-1.65t-1.078-.484q-.11 0-.11-.088t.11-.088l1.386.022h2.618l1.364-.022q.11 0 .11.088t-.11.088q-.726 0-1.078.484-.33.485-.33 1.65v2.42h.198q1.561 0 2.376-.484.814-.506 1.474-1.716l.22-.418q.374-.682.374-1.166 0-.792-1.056-.792-.11 0-.11-.088t.11-.088l1.364.022h.528l1.364-.022q.11 0 .11.088t-.11.088q-.683 0-1.122.418-.44.396-1.1 1.496l-.33.572q-.55.924-1.188 1.43-.616.485-1.54.66 1.672.022 2.618.594.946.55 1.54 1.936l.33.792q.462 1.078.814 1.474.353.374.99.396m6.033.462q-1.517 0-2.75-.638a4.94 4.94 0 0 1-1.914-1.848q-.681-1.188-.682-2.706 0-1.54.792-2.794a5.57 5.57 0 0 1 2.156-2.002q1.386-.726 3.036-.726 1.54 0 2.772.66a4.75 4.75 0 0 1 1.958 1.804q.704 1.166.704 2.662a5.24 5.24 0 0 1-.814 2.838q-.792 1.275-2.2 2.024-1.386.726-3.058.726m1.21-.528q1.254 0 1.958-.704.726-.726.726-2.112 0-1.342-.704-2.97-.681-1.628-1.738-2.75-1.034-1.144-2.024-1.144-1.231 0-1.936.704t-.704 2.112q0 1.32.682 2.97.683 1.628 1.716 2.772 1.056 1.122 2.024 1.122m20.118.022q.11 0 .11.088t-.11.088q-.353-.022-1.364-.022h-2.64a27 27 0 0 0-1.364.022q-.11 0-.11-.088t.11-.088q.66 0 .968-.374.33-.374.33-1.254 0-.33-.022-.506l-.484-5.83q-.022-.264-.132-.264-.066 0-.11.066a.8.8 0 0 0-.088.198l-3.102 7.854q-.089.242-.242.242-.199 0-.286-.242l-3.08-7.942q-.066-.176-.132-.176h-.044l.154.572-.154-.55q-.066.022-.066.154l-.528 5.918a5 5 0 0 0-.022.55q0 .858.308 1.232.308.352.968.352.11 0 .11.088t-.11.088q-.33-.022-1.364-.022h-.264q-1.035 0-1.364.022-.11 0-.11-.088t.11-.088q.726 0 1.078-.462.373-.484.484-1.672l.594-6.534q-.22-.572-.55-.814t-.836-.242q-.11 0-.11-.088t.11-.088l1.298.022h2.112q.308 0 .396.242l2.442 6.028q.066.154.154.154.11 0 .132-.154l2.376-6.05q.044-.132.11-.176a.36.36 0 0 1 .198-.044h1.936l1.386-.022q.11 0 .11.088t-.11.088q-.66 0-.99.374-.308.352-.308 1.21 0 .352.022.55l.528 5.456q.11 1.189.462 1.672.374.462 1.1.462m-11.638-7.634v-.022zm23.421 7.634q.11 0 .11.088t-.11.088a28 28 0 0 0-1.386-.022h-2.618q-1.011 0-1.364.022-.11 0-.11-.088t.11-.088q.726 0 1.056-.484.352-.485.352-1.65v-6.38q0-1.035-.616-1.078l-.77-.022q-.879-.022-1.32.22-.417.241-.55.748-.11.485-.11 1.43 0 .902.308 1.496.33.572.968.902 0-.022.044-.022l.066.066q.462.22 1.364.33.088.022.066.088 0 .066-.066.066-.307.022-.88.022-.902.023-1.364.132a1.4 1.4 0 0 0-.77.484q-.285.352-.462 1.122-.352 1.43-.946 2.112-.594.66-1.87.55-.198-.023-.198-.462 0-.352.132-.792.132-.462.308-.726t.308-.11q.529.374 1.012.374a1 1 0 0 0 .374-.066q.44-.242.616-.946.353-1.232 1.254-1.804-1.43-.242-2.178-.924-.726-.682-.726-1.716 0-1.408 1.122-2.134 1.144-.726 3.52-.726l3.938.022 1.386-.022q.11 0 .11.088t-.11.088q-.726 0-1.078.484-.352.485-.352 1.65v5.456q0 1.165.352 1.65t1.078.484m11.259-6.072q.022.088-.044.088t-.088-.088q-.814-3.058-1.804-3.41-.198-.154-1.54-.154-.132 0-.22.154a.63.63 0 0 0-.088.352v6.996q0 1.165.33 1.65.352.484 1.078.484.11 0 .11.088t-.11.088a26 26 0 0 0-1.364-.022h-2.618q-1.034 0-1.364.022-.11 0-.11-.088t.11-.088q.726 0 1.056-.484.352-.485.352-1.65v-6.996a.6.6 0 0 0-.088-.352q-.088-.154-.22-.154-1.342 0-1.54.154-.99.352-1.804 3.41-.022.088-.088.088t-.044-.088q.264-1.957.264-3.586 0-.352.286-.352.132 0 .748.088.638.088 2.486.088h2.53q1.782 0 2.442-.088t.814-.088q.264 0 .264.352 0 1.627.264 3.586m9.258 1.65q-.045.11-.132.11-.066-.022-.022-.154.11-.44.11-.858 0-1.013-.484-2.046-.484-1.056-1.276-1.738-.793-.682-1.672-.682-2.596 0-2.596 2.97 0 1.628.748 3.036.748 1.386 1.936 2.2 1.209.814 2.442.814 1.584 0 2.42-1.012.087-.088.132-.022.043.045 0 .11-1.739 2.178-4.598 2.178a5.4 5.4 0 0 1-2.596-.638 5 5 0 0 1-1.914-1.804q-.704-1.188-.704-2.728 0-1.495.748-2.772a5.7 5.7 0 0 1 2.068-2.024 5.54 5.54 0 0 1 2.816-.748q1.056 0 1.98.286t1.408.748q.505.44.396.88zm13.321 4.422q.11 0 .11.088t-.11.088a28 28 0 0 0-1.386-.022h-2.618q-1.012 0-1.364.022-.11 0-.11-.088t.11-.088q.726 0 1.056-.484.352-.485.352-1.65v-6.38q0-1.035-.616-1.078l-.77-.022q-.88-.022-1.32.22-.418.241-.55.748-.11.485-.11 1.43 0 .902.308 1.496.33.572.968.902 0-.022.044-.022l.066.066q.462.22 1.364.33.088.022.066.088 0 .066-.066.066-.308.022-.88.022-.902.023-1.364.132a1.4 1.4 0 0 0-.77.484q-.287.352-.462 1.122-.352 1.43-.946 2.112-.594.66-1.87.55-.198-.023-.198-.462 0-.352.132-.792.132-.462.308-.726t.308-.11q.528.374 1.012.374a1 1 0 0 0 .374-.066q.44-.242.616-.946.352-1.232 1.254-1.804-1.43-.242-2.178-.924-.726-.682-.726-1.716 0-1.408 1.122-2.134 1.144-.726 3.52-.726l3.938.022 1.386-.022q.11 0 .11.088t-.11.088q-.726 0-1.078.484-.352.485-.352 1.65v5.456q0 1.165.352 1.65t1.078.484M118.821 68.656q0 .22-.66.704l-6.072 4.488q-.087 3.388-3.168 9.02-2.86 5.28-6.556 9.328-3.916 4.267-6.16 4.224-.748 0-1.276-.528t-.528-1.32q0-3.255 3.96-8.58 3.036-3.96 7.524-8.228 3.96-3.696 4.488-3.696a.9.9 0 0 0-.132-.484q-.615-1.1-1.716-1.1-.44 0-.968.176-1.056.352-1.276.352-.131 0-.176-.176 0-.44.88-.792 1.408-.615 3.388-2.332 2.332-2.068 2.332-3.344 0-.748-.704-.748-.615 0-2.684 1.408l-3.256 2.376q-.132.132-.264.132-.088 0-.088-.484.132-.088 1.584-1.188a944 944 0 0 0 2.948-2.332q1.54-1.232 2.772-1.232 1.584 0 1.584 1.672 0 2.024-5.192 5.412-.308.308-.308.44 0 .176.308.176 1.937 0 2.552 1.144 1.013-.572 3.212-2.332 2.025-1.585 3.256-2.2.132-.132.264-.132t.132.176m-8.228 6.336q0-.176-.044-.176-.968 0-4.62 3.696-3.871 3.872-6.688 7.964-3.388 4.972-3.388 7.744 0 1.012.66 1.012 1.32 0 4.84-3.828a49 49 0 0 0 6.16-8.184q3.08-5.104 3.08-8.228m21.317-6.336q-.177.572-3.036 2.288a119 119 0 0 0-4.884 2.992q-6.293 12.32-7.832 14.872-4.356 7.216-7.26 7.216-1.32 0-1.32-1.716 0-10.12 15.268-20.416 1.011-1.98 3.696-7.524 0-.044-.088-.044-.089 0-.308.22-.88.836-2.332 2.156-3.124 2.904-5.104 2.904-.924 0-.924-1.1 0-1.98 2.86-4.576 3.08-2.816 6.028-2.816.835 0 1.408.352l.924-1.276q.307-.396.616-.396.572 0 .572.616 0 .307-.22.616-2.068 3.08-5.412 9.768a61 61 0 0 1 4.092-2.376q2.2-1.275 2.86-1.804.132-.132.264-.132t.132.176m-4.136-4.664q0-.176-.396-.176-2.376 0-5.192 2.288-2.816 2.243-2.816 4.004 0 .528.484.528 1.803 0 7.7-6.292.22-.308.22-.352m-5.544 11.176q-13.42 9.504-13.42 18.788 0 1.144.748 1.144 2.816 0 12.672-19.932m20.055-6.512q0 .308-1.804 1.452-4.444 2.816-6.38 2.816-2.86 0-2.86-3.344 0-2.464 2.376-4.928 2.42-2.508 4.576-2.508.66 0 .66.616 0 1.495-2.596 4.224-2.068 2.156-3.388 2.948.132 1.936 1.848 1.936 1.628 0 5.456-2.2.308-.176 1.716-1.056.132-.132.264-.132t.132.176m-4.796-5.06q0-.528-.308-.528-1.1 0-2.684 2.2t-1.628 3.96q.835-.264 2.64-2.288 1.98-2.2 1.98-3.344m14.272 5.06q0 .176-.66.704a362 362 0 0 0-3.476 2.288q-2.508 1.496-4.092 1.496-.923 0-1.628-.66t-.704-1.496q0-2.904 2.816-5.324 2.508-2.156 4.664-2.156 1.364 0 1.364 1.1 0 .615-1.804 2.42a.55.55 0 0 1-.396.176q-.352 0-.352-.396 0-.176.132-.264.132-.132.528-.968.396-.88.396-1.32 0-.132-.308-.132-1.1 0-3.212 1.804-2.552 2.156-2.552 4.444 0 1.672 1.452 1.672 2.245 0 6.82-3.036.22-.176.616-.396.132-.132.264-.132t.132.176m.654 1.584q0 1.188.968 1.188.703 0 1.408-.396a7 7 0 0 0 1.364-1.012q-.66-.66-.66-1.628 0-1.056.572-1.804.615-.792 1.364-.792.748 0 .88.704 0 .66-.22 1.452-.22.748-.792 1.628.66.66 1.848.66 1.452 0 2.992-1.188.132-.132.22-.132.132 0 .132.176 0 .352-.484.66a7 7 0 0 1-1.144.572 9 9 0 0 1-1.276.44q-.66.132-1.012.132-.617 0-.968-.132a4.6 4.6 0 0 1-.748-.484A6.9 6.9 0 0 1 154.747 72q-1.188.615-2.288.616-.836 0-1.232-.66a3.2 3.2 0 0 1-.396-1.584q0-.572.484-1.848.528-1.275 1.276-2.596a12.6 12.6 0 0 1 1.628-2.288q.924-1.012 1.672-1.012.352.088.352.22 0 .045-.748 1.012-.705.968-1.452 2.244-.749 1.275-1.188 2.42-.44 1.1-.44 1.716m5.412-3.564q.175-.088 0-.132a.54.54 0 0 0-.308-.088q-.353 0-.704.484-.308.484-.308 1.276 0 .66.308 1.1.528-.66.748-1.364.264-.749.264-1.188zm21.993 1.98q0 .176-.66.704a362 362 0 0 0-3.476 2.288q-2.508 1.496-4.092 1.496-.924 0-1.628-.66t-.704-1.496q0-2.904 2.816-5.324 2.508-2.156 4.664-2.156 1.364 0 1.364 1.1 0 .615-1.804 2.42a.55.55 0 0 1-.396.176q-.352 0-.352-.396 0-.176.132-.264.132-.132.528-.968.396-.88.396-1.32 0-.132-.308-.132-1.1 0-3.212 1.804-2.552 2.156-2.552 4.444 0 1.672 1.452 1.672 2.244 0 6.82-3.036.22-.176.616-.396.132-.132.264-.132t.132.176m12.797 0q0 .615-3.168 2.288t-7.7 1.672q-2.596 0-2.816-.528 0-.308.484-.308.66.132.836.132 2.244 0 4.796-2.288 2.42-2.156 2.42-3.696 0-.66-.836-.66-4.136 0-9.02 7.832-.396.615-4.796 9.328-4.444 8.755-4.708 9.372-.308.748-.792.748a.6.6 0 0 1-.264-.044q-.264-.088-.264-.528 0-1.584 19.8-36.96.353-.615.66-.616.044 0 .176.088t.132.352q0 .484-.264.748-.044.132-3.608 6.512-3.388 6.16-3.388 6.556 0 .045.044.088.044-.088.308-.352 1.056-1.275 2.904-2.596 2.464-1.672 4.312-1.672 1.364 0 1.364 1.056 0 3.212-5.148 6.292 3.916 0 8.14-2.86.132-.132.264-.132t.132.176m13.814 0q0 .528-2.728 2.024-2.86 1.584-4.092 1.584-2.289 0-2.288-2.42 0-.66.704-1.496 0-.044-.044-.044.043 0-2.376 1.848-2.42 1.804-3.476 1.804-1.012 0-1.012-.836 0-2.025 3.388-4.708 3.212-2.596 5.016-2.596.263.044.572.308.352.22.352.352 0 .045-.044.088-2.464 0-6.292 3.828-1.233 1.231-1.232 2.068 0 .308.308.308.968 0 3.696-2.244 2.2-1.848 3.124-2.948.44-.528.616-.528.44 0 .44.616 0 .22-.572 1.012-1.893 2.595-1.892 3.3 0 1.232 1.364 1.232 2.244 0 6.072-2.596.132-.132.264-.132t.132.176m12.035 0q0 .22-.66.704l-6.072 4.488q-.089 3.388-3.168 9.02-2.86 5.28-6.556 9.328-3.916 4.267-6.16 4.224-.748 0-1.276-.528t-.528-1.32q0-3.255 3.96-8.58 3.036-3.96 7.524-8.228 3.96-3.696 4.488-3.696a.9.9 0 0 0-.132-.484q-.617-1.1-1.716-1.1-.44 0-.968.176-1.057.352-1.276.352-.132 0-.176-.176 0-.44.88-.792 1.407-.615 3.388-2.332 2.331-2.068 2.332-3.344 0-.748-.704-.748-.617 0-2.684 1.408l-3.256 2.376q-.132.132-.264.132-.088 0-.088-.484.132-.088 1.584-1.188 1.452-1.144 2.948-2.332 1.539-1.232 2.772-1.232 1.584 0 1.584 1.672 0 2.024-5.192 5.412-.308.308-.308.44 0 .176.308.176 1.935 0 2.552 1.144 1.011-.572 3.212-2.332 2.023-1.585 3.256-2.2.132-.132.264-.132t.132.176m-8.228 6.336q0-.176-.044-.176-.969 0-4.62 3.696-3.873 3.872-6.688 7.964-3.388 4.972-3.388 7.744 0 1.012.66 1.012 1.32 0 4.84-3.828a49 49 0 0 0 6.16-8.184q3.08-5.104 3.08-8.228m20.832-6.336q-.176.572-2.992 2.244-3.256 1.936-5.148 3.168-5.94 11.924-7.392 14.3-4.136 7.04-6.952 7.04-1.32 0-1.32-1.716 0-9.593 14.344-19.536l2.728-5.72q0-.176-.132-.176-4.84 3.696-5.94 3.696-1.056 0-1.056-1.056 0-.616 1.32-3.168 1.364-2.552 1.364-2.992 0-.484-.792-.484-.176 0-.176-.528.396-.132.836-.132 1.54 0 1.54.88 0 .968-1.188 3.168t-1.188 2.772q0 .352.308.352 1.056 0 3.388-1.848 2.64-2.112 3.96-4.532.66-.66.968-.66.572 0 .572.572 0 .308-.308.792-1.716 2.685-4.312 7.832a75 75 0 0 1 4.312-2.508q2.2-1.275 2.86-1.804.132-.132.264-.132t.132.176m-9.988 6.688q-12.584 8.976-12.584 17.996 0 1.144.748 1.144 1.848 0 5.456-6.336 2.332-4.136 6.38-12.804m32.995-28.116q0 .045-.044.088-2.067 1.365-2.376 1.672-1.188 1.1-1.188 2.552.045.484.396 1.012.352.484.352.748-.087 1.012-.968 1.012-.879 0-1.056-1.1 0-3.96 4.708-6.072.176 0 .176.088m-3.828 0q0 .045-.044.088-2.067 1.365-2.376 1.672-1.188 1.1-1.188 2.552.045.484.396 1.012.352.484.352.748-.087 1.012-.968 1.012-.879 0-1.056-1.1 0-3.96 4.708-6.072.176 0 .176.088m13.016 21.428q0 .176-.66.704a362 362 0 0 0-3.476 2.288q-2.508 1.496-4.092 1.496-.924 0-1.628-.66t-.704-1.496q0-2.904 2.816-5.324 2.508-2.156 4.664-2.156 1.365 0 1.364 1.1 0 .615-1.804 2.42a.55.55 0 0 1-.396.176q-.351 0-.352-.396 0-.176.132-.264.132-.132.528-.968.396-.88.396-1.32 0-.132-.308-.132-1.1 0-3.212 1.804-2.552 2.156-2.552 4.444 0 1.672 1.452 1.672 2.245 0 6.82-3.036.22-.176.616-.396.132-.132.264-.132t.132.176m18.737-27.28q0 4.445-4.268 11-3.3 5.104-8.184 10.032-4.311 4.4-5.28 4.4.133 4.136 2.596 4.136 1.893 0 4.092-1.628a3.5 3.5 0 0 1-.44-1.716q0-2.992 1.936-2.992.792 0 .924 1.1 0 1.54-1.32 3.08.748 1.232 2.332 1.232 1.716 0 3.344-1.408.132-.132.264-.132t.132.176-.44.528q-1.935 1.628-3.916 1.628-1.627 0-2.596-1.1-2.595 2.376-5.06 2.376-1.452 0-2.42-1.188-.924-1.232-.924-2.948 0-4.884 3.432-11.836 3.125-6.336 7.436-11.22 4.312-4.928 6.952-4.928 1.408 0 1.408 1.408m-1.276.66q0-1.012-.792-1.012-2.067 0-5.94 4.972-3.652 4.665-6.556 10.516-3.08 6.16-3.08 9.284 0 .176.088.176.837 0 4.84-4.312 4.445-4.752 7.524-9.592 3.916-6.16 3.916-10.032m-7.788 23.936q0-.44-.308-.44-.924 0-.924 1.804 0 .615.176 1.1 1.056-1.188 1.056-2.464m17.155 2.684q0 .175-.44.528-1.936 1.628-3.916 1.628-1.233 0-2.112-.66-2.024 2.64-4.4 2.64-1.76 0-1.76-2.2 0-2.86 2.816-5.764 2.376-2.42 3.476-2.42.704 0 .704.44 0 .132-.264.352-1.057.22-2.86 2.244-2.2 2.465-2.2 4.752 0 1.496 1.056 1.496 1.54 0 3.124-1.804-.837-.924-.836-2.288 0-1.584.792-2.728.704-.968 1.496-.968t.924 1.1q0 1.936-1.364 4.18.747.836 2.024.836 1.715 0 3.344-1.408.132-.132.264-.132t.132.176m-4.84-3.388q0-.44-.308-.44-.396 0-.836.704t-.44 1.804q0 .924.396 1.54 1.188-1.848 1.188-3.608m19.116 3.388q0 .264-.66.704-5.412 3.652-7.304 3.652-1.232 0-1.232-1.408 0-.792.308-1.584.44-1.1.44-1.144 0-.176-.132-.176a.8.8 0 0 0-.22.088q-.968.968-2.816 2.332-2.376 1.76-3.3 1.76-1.056 0-1.056-1.056 0-.615 1.54-3.388 1.54-2.816 1.54-3.256 0-.484-.792-.484-.176 0-.176-.528.396-.132.836-.132 1.54 0 1.54.88 0 .967-1.364 3.256t-1.364 2.86q0 .352.308.352.704 0 3.432-2.332 2.772-2.332 4.268-4.224.66-.66.968-.66.572 0 .572.572 0 .308-.308.792-2.64 3.96-2.64 5.148 0 1.1 1.012 1.1 1.54 0 5.588-2.772.22-.176.616-.396.132-.132.264-.132t.132.176m14.663-20.372q0 3.96-4.708 6.072-.176 0-.176-.088 0-.045.044-.088 2.067-1.365 2.376-1.672 1.188-1.1 1.188-2.552-.045-.484-.396-.968-.352-.528-.352-.792.132-1.012.968-1.012.879 0 1.056 1.1m-3.828 0q0 3.96-4.708 6.072-.176 0-.176-.088 0-.045.044-.088 2.067-1.365 2.376-1.672 1.188-1.1 1.188-2.552-.045-.484-.396-.968-.352-.528-.352-.792.132-1.012.968-1.012.879 0 1.056 1.1"/></svg>