<svg xmlns="http://www.w3.org/2000/svg" width="287" height="139" fill="none" viewBox="0 0 287 139"><path fill="#f5cdcb" d="M62.963 54.586c-1.806-1.441-4.049-12.025-5.164-15.001-2.776-7.428-8.365-20.714-16.15-17.35-12.412 5.365-4.153 27.422.805 36.56 9.131 16.818 26.054 23.214 31.23 43.451 4.806-8.422 8.298-16.257 11.012-26.067 3.473-12.525 9.047-38.762 4.362-50.804-6.98-17.95-17.49 9.356-18.235 18.789-.581 7.62 2.55 12.783 2.885 19.075.236 4.403-2.426 5.496-4.151 1.664-1.852-4.113-4.25-25.13-4.005-30.486.861-18.681 18.81-36.176 25.818-14.622 7.186 22.085 2.033 50.564-7.34 70.307-1.408 2.957-9.309 15.483-9.502 16.477-.447 2.283 1.266 11.918.52 17.133-2.646 18.463-8.224 1.793-6.301-9.071 1.203-6.769 4.42-7.177 1.74-14.895-4.02-11.724-12.275-16.039-19.381-23.487-9.543-10.008-20.415-26.346-18.967-43.316 1.302-15.253 12.91-19.598 20.995-8.892 5.25 6.978 6.876 15.407 9.645 24.077.494 1.549 2.46 4.446 2.56 5.297.13 1.45-1.634 1.746-2.376 1.161M88.355 18.76C80.09 2.423 66.105 25.866 69.498 38.8c3.33-9.586 8.299-28.044 18.857-20.041M73.2 110.482c-4.594 4.398-3.805 14.491-1.475 20.202.823-1.351 1.496-4.345 1.692-6.022.566-4.889-.046-9.359-.217-14.18"/><path fill="#181818" d="M62.484 56.818q0-.132.088-.132.088-.022.088.132 0 1.275-.374 2.2-.375.924-.99 1.408-.615.462-1.298.462-1.386 0-1.958-2.332l-1.408-5.742q-.198-.88-.55-1.254-.352-.396-1.188-.396-.968 0-1.65.858t-.836 2.31v4.29q0 .99.286 1.386.308.396 1.034.44.11 0 .11.088 0 .066-.11.066a85 85 0 0 0-2.574-.022q-2.068 0-2.596.022-.11 0-.11-.088t.132-.088q.506 0 .77-.11t.396-.506.132-1.21v-5.258q0-.835-.22-1.21-.198-.396-.77-.396-.11 0-.374.044-.088.022-.11-.044 0-.088.066-.11 1.034-.242 2.112-.638 1.1-.396 1.782-.858a.27.27 0 0 1 .154-.044q.11 0 .11.132-.198 1.935-.22 2.794.374-1.189 1.386-2.002 1.035-.836 2.31-.836 1.408 0 2.112.616.705.615 1.012 1.892l1.342 5.5q.286 1.166.88 1.166.396 0 .726-.682.33-.704.308-1.848m5.768 4.092q-1.518 0-2.75-.638a4.93 4.93 0 0 1-1.914-1.848q-.682-1.188-.682-2.706 0-1.54.792-2.794a5.56 5.56 0 0 1 2.156-2.002q1.386-.726 3.036-.726 1.54 0 2.772.66a4.75 4.75 0 0 1 1.958 1.804q.704 1.166.704 2.662a5.24 5.24 0 0 1-.814 2.838q-.792 1.275-2.2 2.024-1.386.726-3.058.726m1.21-.528q1.254 0 1.958-.704.726-.726.726-2.112 0-1.343-.704-2.97-.682-1.628-1.738-2.75-1.035-1.144-2.024-1.144-1.232 0-1.936.704t-.704 2.112q0 1.32.682 2.97.683 1.628 1.716 2.772 1.056 1.122 2.024 1.122m19.963-3.564q0-.132.088-.132.088-.022.088.132 0 1.275-.374 2.2-.373.924-.99 1.408-.615.462-1.298.462-1.386 0-1.958-2.332l-1.408-5.742q-.198-.88-.55-1.254-.351-.396-1.188-.396-.967 0-1.65.858-.681.858-.836 2.31v4.29q0 .99.286 1.386.308.396 1.034.44.11 0 .11.088 0 .066-.11.066a85 85 0 0 0-2.574-.022q-2.067 0-2.596.022-.11 0-.11-.088t.132-.088q.506 0 .77-.11t.396-.506.132-1.21v-5.258q0-.835-.22-1.21-.198-.396-.77-.396-.11 0-.374.044-.087.022-.11-.044 0-.088.066-.11 1.035-.242 2.112-.638 1.101-.396 1.782-.858a.27.27 0 0 1 .154-.044q.11 0 .11.132-.198 1.935-.22 2.794.375-1.189 1.386-2.002 1.035-.836 2.31-.836 1.409 0 2.112.616.705.615 1.012 1.892l1.342 5.5q.286 1.166.88 1.166.396 0 .726-.682.33-.704.308-1.848m.642-1.738q-.22 0-.22-.088t.22-.088h5.698q.243 0 .242.088 0 .088-.242.088zm14.754.902q-.043.11-.132.11-.066-.022-.022-.154.11-.44.11-.858 0-1.012-.484-2.046-.484-1.056-1.276-1.738t-1.672-.682q-2.596 0-2.596 2.97 0 1.627.748 3.036.748 1.386 1.936 2.2 1.21.814 2.442.814 1.584 0 2.42-1.012.088-.088.132-.022.043.044 0 .11-1.738 2.178-4.598 2.178a5.4 5.4 0 0 1-2.596-.638 5 5 0 0 1-1.914-1.804q-.705-1.188-.704-2.728 0-1.495.748-2.772a5.7 5.7 0 0 1 2.068-2.024 5.54 5.54 0 0 1 2.816-.748q1.056 0 1.98.286.924.285 1.408.748.506.44.396.88zm3.707-7.502q0-1.055-.176-1.43-.175-.374-.55-.374-.175 0-.264.022h-.022q-.11 0-.132-.066-.021-.066 0-.088 2.465-.638 3.806-1.804h.044q.155 0 .132.154a18 18 0 0 0-.22 1.848q-.044.967-.044 2.596v8.932q0 .924.308 1.54.33.615 1.012.638.11 0 .11.088 0 .066-.11.066-.417-.022-2.574-.022-2.178 0-2.596.022-.131 0-.11-.088.023-.088.176-.088 1.254 0 1.254-2.156zm17.007 8.338q0-.132.088-.132.087-.022.088.132 0 1.275-.374 2.2-.375.924-.99 1.408-.594.462-1.276.462-1.43 0-1.936-2.332l-.154-.66q-.419 1.408-1.43 2.2-.99.792-2.2.792t-2.046-.484a3.2 3.2 0 0 1-1.232-1.276 3.74 3.74 0 0 1-.396-1.694q0-1.144 1.122-1.826 1.122-.705 2.86-.704 1.605 0 2.706.22l-.484-2.134q-.243-1.1-.836-1.606-.573-.528-1.672-.528-1.365 0-2.332.77-.947.77-1.056 2.398-.023.154-.132.154-.088 0-.066-.154.11-1.276.836-2.134a4.4 4.4 0 0 1 1.76-1.298 5.8 5.8 0 0 1 2.134-.418q1.869 0 2.772.726.924.705 1.298 2.332l1.078 4.928q.153.594.33.902.197.286.506.286.396 0 .726-.682.33-.704.308-1.848m-4.796.66q.044-.154.044-.528l-.33-1.452a8.5 8.5 0 0 0-2.068-.264q-1.277 0-1.826.396-.528.395-.528 1.43 0 1.078.616 1.826.637.748 1.804.748 2.067 0 2.288-2.156m5.672-1.034q.022-.088.088-.066.066 0 .088.088.021 1.913.924 3.014.923 1.1 2.486 1.1 1.98 0 1.98-1.364-.023-.88-.77-1.562-.748-.704-2.266-1.562-1.43-.858-2.156-1.54-.704-.682-.704-1.584 0-.748.55-1.386.572-.66 1.562-1.034.99-.375 2.2-.374 1.43 0 2.684.418 1.254.395 1.078 1.1l-.682 2.64q-.022.066-.088.066-.045 0-.044-.088-.154-3.784-3.388-3.784-.969 0-1.342.308-.352.286-.352.792 0 .616.66 1.166.66.528 2.31 1.474 1.452.814 2.31 1.65t.858 1.958q0 .858-.594 1.562-.595.682-1.672 1.078-1.078.396-2.442.396-1.035 0-1.98-.242-.946-.22-1.474-.616-.528-.419-.44-.902zm9.947 0q.022-.088.088-.066.066 0 .088.088.023 1.913.924 3.014.924 1.1 2.486 1.1 1.98 0 1.98-1.364-.022-.88-.77-1.562-.748-.704-2.266-1.562-1.43-.858-2.156-1.54-.704-.682-.704-1.584 0-.748.55-1.386.572-.66 1.562-1.034.99-.375 2.2-.374 1.43 0 2.684.418 1.254.395 1.078 1.1l-.682 2.64q-.022.066-.088.066-.044 0-.044-.088-.154-3.784-3.388-3.784-.968 0-1.342.308-.352.286-.352.792 0 .616.66 1.166.66.528 2.31 1.474 1.452.814 2.31 1.65t.858 1.958q0 .858-.594 1.562-.594.682-1.672 1.078t-2.442.396q-1.033 0-1.98-.242-.946-.22-1.474-.616-.528-.419-.44-.902zm13.159 1.826q0 .924.308 1.54.33.615 1.012.638.11 0 .11.088 0 .066-.11.066-.417-.022-2.574-.022-2.178 0-2.596.022-.131 0-.11-.088.023-.088.176-.088 1.254 0 1.254-2.156v-4.928q0-.835-.22-1.21-.197-.396-.77-.396a3 3 0 0 0-.374.044q-.087.022-.11-.044 0-.088.066-.11 1.035-.242 2.112-.638 1.101-.396 1.782-.858a.27.27 0 0 1 .154-.044q.11 0 .11.132-.131 1.232-.176 1.914t-.044 1.584zm-1.672-10.274q-.66 0-1.078-.308-.396-.308-.396-.77 0-.572.55-.968.55-.418 1.386-.418.682 0 1.078.308a.96.96 0 0 1 .396.792q0 .572-.55.968-.549.396-1.386.396m12.32 7.986q-.045.11-.132.11-.066-.022-.022-.154.11-.44.11-.858 0-1.012-.484-2.046-.484-1.056-1.276-1.738t-1.672-.682q-2.596 0-2.596 2.97a6.4 6.4 0 0 0 .748 3.036q.748 1.386 1.936 2.2 1.209.814 2.442.814 1.584 0 2.42-1.012.087-.088.132-.022.044.044 0 .11-1.739 2.178-4.598 2.178a5.4 5.4 0 0 1-2.596-.638 5 5 0 0 1-1.914-1.804q-.704-1.188-.704-2.728 0-1.495.748-2.772a5.7 5.7 0 0 1 2.068-2.024 5.54 5.54 0 0 1 2.816-.748q1.056 0 1.98.286.924.285 1.408.748.505.44.396.88zm27.142-25.72q0 4.445-4.268 11-3.3 5.104-8.184 10.032-4.313 4.4-5.28 4.4.132 4.137 2.596 4.136 1.891 0 4.092-1.628a3.5 3.5 0 0 1-.44-1.716q0-2.992 1.936-2.992.792 0 .924 1.1 0 1.54-1.32 3.08.748 1.233 2.332 1.232 1.716 0 3.344-1.408.132-.132.264-.132t.132.176-.44.528q-1.936 1.629-3.916 1.628-1.628 0-2.596-1.1-2.596 2.376-5.06 2.376-1.452 0-2.42-1.188-.924-1.232-.924-2.948 0-4.884 3.432-11.836 3.124-6.336 7.436-11.22 4.312-4.928 6.952-4.928 1.408 0 1.408 1.408m-1.276.66q0-1.012-.792-1.012-2.068 0-5.94 4.972-3.652 4.665-6.556 10.516-3.08 6.16-3.08 9.284 0 .176.088.176.836 0 4.84-4.312 4.445-4.752 7.524-9.592 3.916-6.159 3.916-10.032m-7.788 23.936q0-.44-.308-.44-.924 0-.924 1.804 0 .616.176 1.1 1.056-1.188 1.056-2.464m18.43 2.684q0 .792-4.004 3.08-1.76 1.012-3.52 1.012-2.067 0-2.068-1.76 0-1.1 1.54-2.816 1.32-1.452 1.452-1.452-.791 0-1.232-.924t-.66-.924q-.175 0-.484.308-.615.925-2.376 2.332-.924.749-2.596 1.892-.132.132-.264.132-.088 0-.088-.484.22-.133 1.584-1.144 3.08-2.288 4.972-5.148.353-.572.924-.572.264 0 .264.264 0 .177-.176.792-.176.572-.176.836 0 .792.836 1.408.88.616.88.836 0 .396-1.364 1.628-1.32 1.188-1.32 2.244 0 1.54 1.408 1.54 1.32 0 3.476-1.32a439 439 0 0 0 2.596-1.804q.132-.132.264-.132t.132.176m6.898-10.296q0 .396-.484.836-.441.396-.792.396-.705 0-.748-.792 0-.528.484-.88.352-.308.748-.308.792 0 .792.748m.66 10.296q0 .264-.88.88-3.432 2.464-5.412 2.464t-1.98-1.672q0-1.76 1.496-4.136.968-1.54 1.892-2.464.308-.396.968-.396.351.088.352.22 0 .045-1.54 2.552t-1.54 3.696q0 1.364 1.188 1.364 1.583 0 5.06-2.552.132-.132.264-.132t.132.176m24.502-26.928q0 3.652-6.468 12.76-5.632 7.876-10.692 12.804-.308.925-.308 2.596 0 .66.44 1.276.44.573.924.572 1.32 0 3.476-1.32a439 439 0 0 0 2.596-1.804q.132-.132.264-.132t.132.176q0 .528-2.728 2.288-2.86 1.848-4.092 1.848-2.332 0-2.332-3.916 0-.22-.088-.22-1.276.969-2.552 1.98-1.716 1.233-2.772 1.232-1.012 0-1.012-1.188 0-2.376 2.596-4.884 2.596-2.552 5.236-2.552 1.408-4.004 6.776-12.408 6.556-10.252 9.812-10.252.792 0 .792 1.144m-1.628.528q0-.351-.264-.44-3.828 2.113-9.02 11.308-3.564 6.381-5.412 11.22-.176.573-.616 2.112 5.016-5.015 9.812-12.188 5.5-8.228 5.5-12.012m-16.016 21.824q0-.264-.176-.264-1.76.485-3.828 2.816-1.892 2.157-2.112 3.476.044.705.704.704.484 0 2.376-1.276l1.936-1.408q.22-.967 1.1-4.048m18.387 4.576q0 .309-1.804 1.452-4.443 2.816-6.38 2.816-2.86 0-2.86-3.344 0-2.463 2.376-4.928 2.42-2.508 4.576-2.508.66 0 .66.616 0 1.497-2.596 4.224-2.068 2.157-3.388 2.948.132 1.935 1.848 1.936 1.629 0 5.456-2.2.309-.176 1.716-1.056.132-.132.264-.132t.132.176m-4.796-5.06q0-.528-.308-.528-1.1 0-2.684 2.2t-1.628 3.96q.837-.264 2.64-2.288 1.98-2.2 1.98-3.344"/></svg>