<svg xmlns="http://www.w3.org/2000/svg" width="328" height="71" fill="none" viewBox="0 0 328 71"><path fill="#f5cdcb" d="M244.704 23.365c.747 3.061 3.664 5.351 4.162 8.59.83 5.434-2.87 10.013-2.158 15.483.332 2.645 1.34 3.096 3.783 3.832 6.748 2.029 9.487-2.658 15.417-3.82a52.6 52.6 0 0 1 13.14-.392c4.352.819 8.301 7.047 8.301 11.342a13.92 13.92 0 0 1 9.772 1.068c1.755.842 3.285 2.586 5.23 2.764a16.7 16.7 0 0 0 7.969-1.98c.463-.31 1.577-2.374 2.526-1.472q.27 1.208.356 2.444c0 1.186-1.02 2.1-1.115 3.263 1.755.569 4.981-1.353 5.823.498 1.02 2.23-6.914 5.042-8.681 5.208-5.206.51-10.483-1.791-15.037-3.986-2.372-1.187-4.329-3.168-7.377-3.275-1.292 2.86-2.075 5.719-5.182 7.119-1.282.431-2.6.749-3.937.949a8.6 8.6 0 0 1-1.601-3.013c-.309-2.16 2.798-7.19 4.743-7.878.949-.333 1.59.783 1.53-.333-.142-2.645-3.676-7.059-6.202-7.89-3.214-1.067-4.435.63-7.033 1.52-9.131 3.108-24.334 9.372-29.208-2.967-3.558-8.886 4.364-16.965 2.846-25.887-6.582 8.945-16.14 16.384-21.999 25.78-4.743 7.653-5.633 15.175-17.029 14.238-3.843-.32-7.211-2.717-9.701-5.53-3.084-3.463-2.68-5.623-7.898-7.32a23.5 23.5 0 0 0-8.657-.877c-1.85.213-3.487 2.764-5.491 1.329-3.866-2.777 4.743-5.256 5.147-5.873.225-.309-.427-1.187-.214-1.53.924-.342 1.877-.6 2.846-.772 4.448-.427 13.117 3.002 16.378 6.086 2.49 2.373 3.249 5.53 7.257 6.063 7.116.937 14.848-7.807 18.287-13.24 1.305-2.077 1.981-4.319 3.558-6.324 2.372-3.05 6.463-5.28 8.752-8.578-8.717 2.598-21.833 9.563-29.873 1.898-3.902-3.713-2.289-12.682 2.111-15.779 3.273-2.29 16.235-4.022 20.291-3.56a63 63 0 0 1 15.108 5.079c.866.498 2.645 2.622 3.38 2.1a11.3 11.3 0 0 1 1.957-2.812c4.34-3.69 16.496-12.588 21.571-14.237 12.618-4.01 14.397 10.31 11.622 19.244-3.557 11.425-10.851 12.208-21.429 9.408-4.637-1.317-10.104-3.24-14.041-5.98m21.88 3.038c-1.886.178-3.985-.12-5.93 0l3.997 1.186c5.502.463 7.898-.107 10.768-4.829a20.18 20.18 0 0 0 2.953-14.237c-.747-3.642-5.123-7.32-8.835-4.995l-3.938 2.29c8.847-1.601 14.231.154 11.931 10.215-1.044 4.52-2.823 8.637-7.721 9.8a32 32 0 0 1-3.225.57m-20.362-4.948c6.25.89 12.476 2.373 18.856 1.922 2.3-.154 4.743-.308 6.415-1.957 1.673-1.65 5.384-9.978 3.262-11.936-2.467-2.278-6.428-1.352-9.132 0-2.016.973-6.368 4.651-7.886 5.066a2.23 2.23 0 0 1-2.941-1.435c-3.333 2.503-8.669 3.155-8.574 8.34m-7.234-4.188c-4.649-1.044-9.618-4.39-14.314-4.912-3.107-.344-12.974.985-15.642 2.551-3.665 2.148-6.013 8.697-2.752 12.042 1.186 1.27 5.645 3.014 7.436 3.227 6.451.748 13.199-3.286 19.473-4.425l3.13-1.186c-6.866 1.032-12.843 3.69-19.97 3.037-8.764-.795-7.863-8.946-.368-11.39 8.195-2.681 14.065-.439 21.856 1.329.38.024 1.234.45 1.151-.273m1.53 3.429c-7.46-1.187-18.75-5.932-25.64-1.08-3.261 2.278-2.81 4.046.89 5.09 5.23 1.46 14.646-1.044 20.16-2.373 1.328-.32 3.582-.7 4.59-1.637m-14.053 18.662c3.7-3.832 8.408-7.593 11.799-11.615.356-.427.925-.617.759-1.34l-11.04 10.464zm16.745 5.327c.189-5.244 4.34-9.74 2.668-15.233l-3 12.042zm-26.268 7.997-4.59 3.203a17.9 17.9 0 0 1-7.815 2.847c-7.744.641-7.744-5.825-13.448-8.921a57.6 57.6 0 0 0-8.207-3.227c-1.008-.155.155 1.684-.948 2.1a23.6 23.6 0 0 1 8.811 2.99c1.589 1.079 2.645 3.38 3.937 4.816 7.958 9.017 18.489 8.519 22.224-3.808zm35.411 2.67a9.72 9.72 0 0 1-7.222-3.631l-1.91-2.848c1.044 4.556 3.274 7.119 8.183 7.048.297-.012 1.02-.06.913-.57zm16.745-6.479a13.28 13.28 0 0 0-9.132 4.188l4.815-1.839zm14.077 4.568a5.72 5.72 0 0 0-5.325-4.568zm21.133 14.854c1.921.261 4.304-.19 6.285 0 .095-.593-.783-.439-1.186-.51-1.72-.25-3.676.522-2.965-2.148-5.929 2.29-8.87-4.437-14.231-4.97l-3.629.39c4.021.475 6.689 3.81 10.401 5.399a34 34 0 0 0 5.289 1.839z"/><path fill="#181818" d="M24.5 60.846q.11 0 .11.088t-.11.088Q24.17 61 23.136 61h-2.618q-.968 0-1.298.022-.11 0-.11-.088t.11-.088q.705 0 1.012-.484.33-.484.33-1.65v-7.59H15.81v7.59q0 1.166.308 1.65.33.484 1.034.484.11 0 .11.088t-.11.088Q16.822 61 15.854 61h-2.618q-1.033 0-1.386.022-.11 0-.11-.088t.11-.088q.726 0 1.078-.484t.352-1.65v-5.456q0-1.165-.352-1.65t-1.078-.484q-.11 0-.11-.088t.11-.088l1.386.022h9.9l1.298-.022q.11 0 .11.088t-.11.088q-.704 0-1.034.484-.308.485-.308 1.65v5.456q0 1.166.33 1.65.352.484 1.078.484m6.487.506q-1.518 0-2.75-.638a4.93 4.93 0 0 1-1.914-1.848q-.682-1.188-.682-2.706 0-1.54.792-2.794a5.56 5.56 0 0 1 2.156-2.002q1.386-.726 3.036-.726 1.539 0 2.772.66a4.75 4.75 0 0 1 1.958 1.804q.705 1.166.704 2.662a5.24 5.24 0 0 1-.814 2.838q-.793 1.275-2.2 2.024-1.387.726-3.058.726m1.21-.528q1.254 0 1.958-.704.726-.726.726-2.112 0-1.343-.704-2.97-.682-1.628-1.738-2.75-1.035-1.144-2.024-1.144-1.233 0-1.936.704-.705.704-.704 2.112 0 1.32.682 2.97.681 1.628 1.716 2.772 1.056 1.122 2.024 1.122m17.543.022q.11 0 .11.088t-.11.088Q49.388 61 48.376 61h-2.618q-1.034 0-1.386.022-.11 0-.11-.088t.11-.088q.727 0 1.078-.484t.352-1.65v-7.59h-4.466q-.087 1.782-.44 6.754-.087 1.605-.506 2.552-.396.924-1.408.924-1.188 0-1.188-.66a.7.7 0 0 1 .022-.198l.528-2.09q.044-.11.11-.088.066 0 .066.11.023.945.242 1.276.22.33.726.33 1.101 0 1.254-2.156l.286-4.62.022-.44q0-.902-.33-1.298t-.99-.396q-.11 0-.11-.088t.11-.088l1.364.022h7.282l1.364-.022q.11 0 .11.088t-.11.088q-.726 0-1.078.484-.33.485-.33 1.65v5.456q0 1.166.33 1.65.352.484 1.078.484m14.103 0q.11 0 .11.088t-.11.088A26 26 0 0 0 62.48 61h-2.618q-.968 0-1.298.022-.11 0-.11-.088t.11-.088q.705 0 1.012-.484.33-.484.33-1.65V55.83q0-.264-.198-.242-1.166.176-2.31.176-1.143 0-2.31-.176h-.022q-.132 0-.132.242v2.882q0 1.166.308 1.65.33.484 1.034.484.11 0 .11.088t-.11.088Q55.945 61 54.977 61H52.36q-1.033 0-1.386.022-.11 0-.11-.088t.11-.088q.727 0 1.078-.484t.352-1.65v-5.456q0-1.165-.352-1.65t-1.078-.484q-.11 0-.11-.088t.11-.088l1.386.022h2.618l1.298-.022q.11 0 .11.088t-.11.088q-.704 0-1.034.484-.308.485-.308 1.65v1.914q0 .242.154.264 1.122.176 2.244.176 1.188 0 2.376-.176.11-.022.154-.088a.3.3 0 0 0 .044-.176v-1.914q0-1.165-.33-1.65-.307-.484-1.012-.484-.11 0-.11-.088t.11-.088l1.298.022h2.618l1.364-.022q.11 0 .11.088t-.11.088q-.726 0-1.078.484-.33.485-.33 1.65v5.456q0 1.166.33 1.65.352.484 1.078.484m16.668 0q.11 0 .11.088t-.11.088Q80.158 61 79.147 61h-2.618q-1.035 0-1.386.022-.088 0-.088-.088t.088-.088q.748 0 1.078-.484.351-.484.352-1.65V53.19q0-1.166-.352-1.65-.33-.484-1.078-.484-.088 0-.088-.088t.088-.088l1.386.022h2.618l1.364-.022q.11 0 .11.088t-.11.088q-.726 0-1.078.484-.33.484-.33 1.65v5.522q0 1.166.33 1.65.351.484 1.078.484m-9.724-5.588q4.51-.066 4.51 2.75 0 1.452-1.056 2.222t-3.146.77h-4.62q-1.035 0-1.386.022-.11 0-.11-.088t.11-.088q.726 0 1.078-.484.351-.484.352-1.65v-5.456q0-1.165-.352-1.65t-1.078-.484q-.11 0-.11-.088t.11-.088l1.386.022h2.618l1.364-.022q.11 0 .11.088t-.11.088q-.726 0-1.078.484-.33.485-.33 1.65v1.782q0 .242.198.242zm-.352 5.566q1.055-.022 1.628-.77.594-.748.594-2.002 0-1.232-.594-1.914-.594-.705-1.716-.682l-1.1.022q-.198 0-.198.242v4.532q0 .352.088.484.088.11.352.11zm24.46.022q.11 0 .11.088t-.11.088A26 26 0 0 0 93.531 61h-2.618q-1.035 0-1.364.022-.11 0-.11-.088t.11-.088q.726 0 1.056-.484.352-.484.352-1.65V53.41l-5.258 5.28v.022q0 1.166.33 1.65.352.484 1.078.484.11 0 .11.088t-.11.088Q86.754 61 85.743 61h-2.618q-1.034 0-1.386.022-.11 0-.11-.088t.11-.088q.726 0 1.078-.484t.352-1.65v-5.434q0-1.166-.352-1.65-.352-.506-1.078-.506-.11 0-.11-.088t.11-.088q.704.044 1.386.044h2.618q.66 0 1.364-.044.11 0 .11.088t-.11.088q-.726 0-1.078.506-.33.484-.33 1.65v5.126l5.258-5.28q-.023-1.1-.374-1.54-.33-.462-1.034-.462-.11 0-.11-.088t.11-.088q.66.044 1.364.044h2.618q.704 0 1.364-.044.11 0 .11.088t-.11.088q-.726 0-1.078.506-.33.484-.33 1.65v5.434q0 1.166.33 1.65.352.484 1.078.484m15.384 0q.11 0 .11.088t-.11.088a27 27 0 0 0-1.364-.022h-2.64q-1.012 0-1.364.022-.11 0-.11-.088t.11-.088q.66 0 .968-.374.33-.374.33-1.254a4 4 0 0 0-.022-.506l-.484-5.83q-.022-.264-.132-.264-.066 0-.11.066a1 1 0 0 0-.088.198l-3.102 7.854q-.088.242-.242.242-.198 0-.286-.242l-3.08-7.942q-.066-.176-.132-.176h-.044l.154.572-.154-.55q-.066.022-.066.154l-.528 5.918a5 5 0 0 0-.022.55q0 .858.308 1.232.308.352.968.352.11 0 .11.088t-.11.088Q98.817 61 97.783 61h-.264q-1.034 0-1.364.022-.11 0-.11-.088t.11-.088q.726 0 1.078-.462.374-.484.484-1.672l.594-6.534q-.22-.572-.55-.814t-.836-.242q-.11 0-.11-.088t.11-.088l1.298.022h2.112q.308 0 .396.242l2.442 6.028q.066.154.154.154.11 0 .132-.154l2.376-6.05q.044-.132.11-.176a.36.36 0 0 1 .198-.044h1.936l1.386-.022q.11 0 .11.088t-.11.088q-.66 0-.99.374-.308.352-.308 1.21 0 .352.022.55l.528 5.456q.11 1.188.462 1.672.374.462 1.1.462m-11.638-7.634v-.022zm25.526 3.212q-.043.11-.132.11-.066-.022-.022-.154.11-.44.11-.858 0-1.012-.484-2.046-.484-1.056-1.276-1.738t-1.672-.682q-2.596 0-2.596 2.97a6.4 6.4 0 0 0 .748 3.036q.748 1.386 1.936 2.2 1.21.814 2.442.814 1.584 0 2.42-1.012.088-.088.132-.022.043.044 0 .11-1.738 2.178-4.598 2.178a5.4 5.4 0 0 1-2.596-.638 5 5 0 0 1-1.914-1.804q-.704-1.188-.704-2.728 0-1.496.748-2.772a5.7 5.7 0 0 1 2.068-2.024 5.54 5.54 0 0 1 2.816-.748q1.056 0 1.98.286.924.285 1.408.748.505.44.396.88zm7.667 4.928q-1.517 0-2.75-.638a4.94 4.94 0 0 1-1.914-1.848q-.681-1.188-.682-2.706 0-1.54.792-2.794a5.56 5.56 0 0 1 2.156-2.002q1.386-.726 3.036-.726 1.54 0 2.772.66a4.75 4.75 0 0 1 1.958 1.804q.704 1.166.704 2.662a5.24 5.24 0 0 1-.814 2.838q-.792 1.275-2.2 2.024-1.386.726-3.058.726m1.21-.528q1.254 0 1.958-.704.726-.726.726-2.112 0-1.343-.704-2.97-.681-1.628-1.738-2.75-1.034-1.144-2.024-1.144-1.231 0-1.936.704t-.704 2.112q0 1.32.682 2.97.683 1.628 1.716 2.772 1.056 1.122 2.024 1.122m17.808.066q.11 0 .11.088 0 .066-.11.066-.616-.044-3.014-.044-.594 0-.858-.22a1.1 1.1 0 0 1-.33-.55l-.682-1.914q-.33-.968-.638-1.474a1.87 1.87 0 0 0-.814-.77q-.484-.242-1.32-.242h-.198v2.882q0 1.166.33 1.65.352.484 1.078.484.11 0 .11.088t-.11.088a26 26 0 0 0-1.364-.022h-2.618q-1.034 0-1.386.022-.11 0-.11-.088t.11-.088q.726 0 1.078-.484t.352-1.65v-5.434q0-1.166-.352-1.65t-1.078-.484q-.11 0-.11-.088t.11-.088l1.386.022h2.618l1.364-.022q.11 0 .11.088t-.11.088q-.726 0-1.078.484-.33.484-.33 1.65v2.42h.198q1.561 0 2.376-.484.814-.506 1.474-1.716l.22-.418q.374-.682.374-1.166 0-.792-1.056-.792-.11 0-.11-.088t.11-.088l1.364.022h.528l1.364-.022q.11 0 .11.088t-.11.088q-.683 0-1.122.418-.44.396-1.1 1.496l-.33.572q-.55.924-1.188 1.43-.616.485-1.54.66 1.672.023 2.618.594.946.55 1.54 1.936l.33.792q.462 1.078.814 1.474.353.374.99.396m8.431-10.274q1.145 0 2.09.638.969.616 1.54 1.804.594 1.166.594 2.706 0 1.452-.682 2.75a5.35 5.35 0 0 1-1.826 2.046 4.4 4.4 0 0 1-2.508.77q-.835 0-1.386-.22a5.4 5.4 0 0 1-1.034-.55q-.33-.22-.44-.22-.198 0-.198.374v2.42q0 1.166.308 1.628.33.484.99.528.11 0 .11.066 0 .088-.11.088a50 50 0 0 0-2.288-.044q-1.737 0-2.838.044-.11 0-.11-.088t.11-.088q.66.022.968-.462.33-.484.33-1.694v-9.328q0-.835-.22-1.21-.197-.396-.77-.396a3 3 0 0 0-.374.044q-.087.022-.11-.044 0-.088.066-.11 1.035-.242 2.112-.638 1.101-.396 1.782-.858.11-.066.176-.044.089.023.066.132a23 23 0 0 0-.154 1.936q0 .264.022.506.044.22.11.198.594-1.188 1.474-1.936t2.2-.748M158.667 61q1.409 0 2.024-.792.638-.792.638-2.31a8.1 8.1 0 0 0-.506-2.838q-.506-1.365-1.364-2.2-.836-.836-1.826-.836t-1.606.836q-.594.836-.594 2.244v1.474q0 1.914.858 3.168.88 1.254 2.376 1.254m11.41.352q-1.518 0-2.75-.638a4.93 4.93 0 0 1-1.914-1.848q-.682-1.188-.682-2.706 0-1.54.792-2.794a5.56 5.56 0 0 1 2.156-2.002q1.386-.726 3.036-.726 1.539 0 2.772.66a4.76 4.76 0 0 1 1.958 1.804q.704 1.166.704 2.662a5.24 5.24 0 0 1-.814 2.838q-.792 1.275-2.2 2.024-1.387.726-3.058.726m1.21-.528q1.254 0 1.958-.704.726-.726.726-2.112 0-1.343-.704-2.97-.682-1.628-1.738-2.75-1.034-1.144-2.024-1.144-1.233 0-1.936.704-.705.704-.704 2.112 0 1.32.682 2.97.681 1.628 1.716 2.772 1.055 1.122 2.024 1.122m5.993.176q-.11 0-.11-.088t.11-.088q.748.022 1.078-.462.352-.484.352-1.65v-5.434q0-1.166-.352-1.65-.33-.484-1.056-.484-.11 0-.11-.088t.11-.088q.66.044 1.364.044 2.772-.066 5.038-.066 1.738 0 2.706.594.968.572.968 1.782 0 .792-.682 1.43-.66.616-1.65.726 1.276.066 2.134.748t.858 1.87q0 1.386-1.1 2.178-1.078.792-2.992.792l-5.28-.088zm5.874-5.632q1.122-.132 1.606-.594.484-.484.484-1.474 0-1.078-.572-1.606-.55-.528-1.408-.55l-1.562-.066h-.066q-.22 0-.286.11t-.066.396v8.668q0 .396.11.55.132.132.484.132l1.386-.022q1.122 0 1.738-.638.638-.66.638-1.936 0-1.297-.572-1.98-.55-.705-1.848-.748l-.748-.022q-.088 0-.088-.066t.066-.088zm19.163 5.478q.11 0 .11.088t-.11.088a26 26 0 0 0-1.364-.022h-2.618q-1.034 0-1.364.022-.11 0-.11-.088t.11-.088q.726 0 1.056-.484.352-.484.352-1.65V53.41l-5.258 5.28v.022q0 1.166.33 1.65.352.484 1.078.484.11 0 .11.088t-.11.088a27 27 0 0 0-1.364-.022h-2.618q-1.033 0-1.386.022-.11 0-.11-.088t.11-.088q.726 0 1.078-.484t.352-1.65v-5.434q0-1.166-.352-1.65-.352-.506-1.078-.506-.11 0-.11-.088t.11-.088q.704.044 1.386.044h2.618q.66 0 1.364-.044.11 0 .11.088t-.11.088q-.726 0-1.078.506-.33.484-.33 1.65v5.126l5.258-5.28q-.022-1.1-.374-1.54-.33-.462-1.034-.462-.11 0-.11-.088t.11-.088q.66.044 1.364.044h2.618q.704 0 1.364-.044.11 0 .11.088t-.11.088q-.726 0-1.078.506-.33.484-.33 1.65v5.434q0 1.166.33 1.65.352.484 1.078.484m19.432 2.618q0 .11-.066.11t-.11-.11q-.242-1.254-.792-1.87-.528-.594-1.672-.594h-14.278q-1.034 0-1.386.022-.088 0-.088-.088t.088-.088q.748 0 1.078-.484.352-.484.352-1.65v-5.456q0-1.165-.352-1.65-.33-.484-1.078-.484-.088 0-.088-.088t.088-.088l1.386.022h2.486l1.32-.022q.11 0 .11.088t-.11.088q-.704 0-1.034.484-.33.485-.33 1.65v7.59h4.026v-7.59q0-1.165-.33-1.65-.308-.484-1.012-.484-.11 0-.11-.088t.11-.088l1.298.022h2.508l1.32-.022q.11 0 .11.088t-.11.088q-.704 0-1.034.484-.33.485-.33 1.65v7.59h4.026v-7.59q0-1.165-.33-1.65-.308-.484-1.012-.484-.11 0-.11-.088t.11-.088l1.298.022h2.53l1.364-.022q.11 0 .11.088t-.11.088q-.726 0-1.078.484-.33.485-.33 1.65v7.59h1.232q.154 0 .154.154l.044.66q0 .462.132 1.782zm-124.133-49.9q0 4.488-4.224 10.516-3.213 4.62-8.052 9.064-4.18 3.828-5.06 3.828-2.068 4.268-2.068 4.928a807 807 0 0 1 5.06-4.84q5.016-4.444 7.392-4.444.924.132.924.792 0 1.892-1.76 3.256a122 122 0 0 1-3.3 1.98q-1.76 1.1-1.76 2.332 0 1.935 1.54 1.936 1.803 0 6.38-2.904.22-.176.616-.396.132-.132.264-.132t.132.176q0 .045-.572.616-1.056 1.056-3.652 2.376-2.597 1.276-3.872 1.276-2.376 0-2.376-2.288 0-1.76 1.76-2.948 1.584-.924 3.256-1.892 1.716-1.012 1.716-2.376 0-.615-.572-.616-1.408 0-6.82 5.06-5.368 5.016-5.764 5.016-.528-.044-.528-.484 0-.308.264-.748l4.224-8.624q4.444-9.02 7.876-14.344 4.883-7.524 7.568-7.524 1.408 0 1.408 1.408m-1.276.66q0-1.012-.792-1.012-3.96 1.012-14.828 22.924 1.188-.396 4.928-4.18 4.224-4.313 7.084-8.624 3.608-5.456 3.608-9.108m16.083-1.848q0 4.445-4.268 11-3.3 5.104-8.184 10.032-4.311 4.4-5.28 4.4.132 4.136 2.596 4.136 1.893 0 4.092-1.628a3.5 3.5 0 0 1-.44-1.716q0-2.992 1.936-2.992.792 0 .924 1.1 0 1.54-1.32 3.08.748 1.232 2.332 1.232 1.716 0 3.344-1.408.132-.132.264-.132t.132.176q0 .175-.44.528-1.936 1.628-3.916 1.628-1.627 0-2.596-1.1-2.595 2.376-5.06 2.376-1.451 0-2.42-1.188-.924-1.232-.924-2.948 0-4.884 3.432-11.836 3.125-6.336 7.436-11.22 4.312-4.928 6.952-4.928 1.408 0 1.408 1.408m-1.276.66q0-1.012-.792-1.012-2.067 0-5.94 4.972-3.652 4.665-6.556 10.516-3.08 6.16-3.08 9.284 0 .176.088.176.837 0 4.84-4.312 4.445-4.752 7.524-9.592 3.916-6.16 3.916-10.032m-7.788 23.936q0-.44-.308-.44-.924 0-.924 1.804 0 .615.176 1.1 1.056-1.188 1.056-2.464m15.527 2.684q0 .308-1.804 1.452-4.445 2.816-6.38 2.816-2.86 0-2.86-3.344 0-2.464 2.376-4.928 2.42-2.508 4.576-2.508.66 0 .66.616 0 1.495-2.596 4.224-2.068 2.156-3.388 2.948.132 1.936 1.848 1.936 1.628 0 5.456-2.2.308-.176 1.716-1.056.132-.132.264-.132t.132.176m-4.796-5.06q0-.528-.308-.528-1.1 0-2.684 2.2t-1.628 3.96q.835-.264 2.64-2.288 1.98-2.2 1.98-3.344m14.272 5.06q0 .176-.66.704a362 362 0 0 0-3.476 2.288q-2.508 1.496-4.092 1.496-.924 0-1.628-.66t-.704-1.496q0-2.903 2.816-5.324 2.508-2.156 4.664-2.156 1.364 0 1.364 1.1 0 .615-1.804 2.42a.55.55 0 0 1-.396.176q-.352 0-.352-.396 0-.175.132-.264.132-.131.528-.968.396-.88.396-1.32 0-.132-.308-.132-1.1 0-3.212 1.804-2.552 2.156-2.552 4.444 0 1.672 1.452 1.672 2.244 0 6.82-3.036.22-.176.616-.396.132-.132.264-.132t.132.176m26.525 0q0 .264-.66.704-3.124 2.112-3.476 2.332-1.98 1.188-3.3 1.188-.748 0-1.276-.528a1.82 1.82 0 0 1-.484-1.276q0-2.2 2.816-6.292.22-.308.22-.396 0-.044-.044-.044-.176 0-.616.308l-5.456 4.092q-1.276 1.1-3.74 3.08-.352.264-.968.484-.308 0-.308-.44 0-.88 1.452-2.816 1.496-1.98 1.496-2.772 0-.748-.704-.748-1.056 0-4.224 2.86a51 51 0 0 0-3.784 3.74q-.616.66-.968.66-.572 0-.572-.616 0-.175.308-.88a179 179 0 0 0 2.068-2.904q1.54-2.2 1.54-3.124 0-.396-.264-.396-.132 0-.528.176l-6.38 4.752h-.308q-.308 0-.308-.088 0-.132.484-.44a420 420 0 0 1 6.82-5.236q.528-.44 1.364-.44.88 0 .88.792 0 .175-.088.528-.88 1.54-2.244 3.916-.176.307-.176.396 0 .044.088.044l.132-.044 3.256-2.816q2.508-2.112 3.608-2.112 1.452 0 1.452.924 0 .792-.88 2.42-.836 1.584-.836 1.716t.088.132q.176 0 .616-.308l9.152-6.908q.44-.352.924-.352.308 0 .44.132.132.088.132.352a.82.82 0 0 1-.176.528 831 831 0 0 1-2.508 3.564q-1.496 2.287-1.496 3.96 0 1.056 1.144 1.012 1.364-.045 3.08-1.1l2.816-1.76q.132-.132.264-.132t.132.176m17.174 0q0 .176-.66.704a362 362 0 0 0-3.476 2.288q-2.508 1.496-4.092 1.496-.923 0-1.628-.66t-.704-1.496q0-2.903 2.816-5.324 2.508-2.156 4.664-2.156 1.364 0 1.364 1.1 0 .615-1.804 2.42a.55.55 0 0 1-.396.176q-.352 0-.352-.396 0-.175.132-.264.132-.131.528-.968.396-.88.396-1.32 0-.132-.308-.132-1.1 0-3.212 1.804-2.552 2.156-2.552 4.444 0 1.672 1.452 1.672 2.245 0 6.82-3.036.22-.176.616-.396.132-.132.264-.132t.132.176m20.885 0q0 .792-4.004 3.08-1.76 1.012-3.52 1.012-2.068 0-2.068-1.76 0-1.1 1.54-2.816 1.32-1.452 1.452-1.452-.792 0-1.232-.924-.441-.924-.66-.924-.177 0-.484.308-.617.924-2.376 2.332-.924.749-2.596 1.892-.132.132-.264.132-.088 0-.088-.484.219-.133 1.584-1.144 3.08-2.288 4.972-5.148.351-.572.924-.572.264 0 .264.264 0 .175-.176.792-.176.572-.176.836 0 .792.836 1.408.88.616.88.836 0 .396-1.364 1.628-1.32 1.188-1.32 2.244 0 1.54 1.408 1.54 1.32 0 3.476-1.32 1.275-.88 2.596-1.804.132-.132.264-.132t.132.176m10.373 0q0 .308-1.804 1.452-4.444 2.816-6.38 2.816-2.86 0-2.86-3.344 0-2.464 2.376-4.928 2.42-2.508 4.576-2.508.66 0 .66.616 0 1.495-2.596 4.224-2.068 2.156-3.388 2.948.132 1.936 1.848 1.936 1.628 0 5.456-2.2.308-.176 1.716-1.056.132-.132.264-.132t.132.176m-4.796-5.06q0-.528-.308-.528-1.1 0-2.684 2.2t-1.628 3.96q.835-.264 2.64-2.288 1.98-2.2 1.98-3.344m16.253 4.048q.528-.616 1.32-1.584a66 66 0 0 0 1.54-1.848q.396-.264.792-.132t.22.352q-1.32 1.98-1.936 3.52t-.616 2.156q0 1.1 1.012 1.1 1.54 0 5.588-2.772.087-.088.396-.308.351-.22.484-.22.132 0 .132.176 0 .263-.66.704-5.457 3.652-7.304 3.652-1.232 0-1.232-1.408 0-.44.088-.924.132-.528.264-.924.175-.396.264-.66.132-.264.132-.22 0-.176-.132-.176-.308.352-.968 1.012t-1.408 1.32q-.749.66-1.496 1.144-.749.44-1.188.396-.528-.045-.66-.352-.132-.352 0-.836.131-.484.44-1.056.308-.572.66-1.1.087-.133.308-.484.219-.396.396-.748.22-.352.308-.572.087-.22-.088-.088-.045-.088-.352.264-.264.308-.748.836t-1.144 1.144q-.616.571-1.408 1.056-.573.352-1.188.748-.617.352-1.232.66a8 8 0 0 1-1.188.44 3.1 3.1 0 0 1-1.144.132 3.2 3.2 0 0 1-1.1-.264q-.528-.264-.528-1.1 0-.484.264-.836.22-.352.484-.352.22 0 .352.22t.308.528q.175.264.396.484.22.22.616.22h.264q.351 0 1.716-.616 2.42-1.144 4.048-2.816a35 35 0 0 0 2.992-3.388q.66-.66.968-.66.131 0 .308.132.219.088.264.352.087.264-.132.748-.177.44-.748 1.144-.353.353-.836 1.056-.441.705-.924 1.496-.44.792-.836 1.496-.352.705-.484 1.012.044.353.572.044a8.5 8.5 0 0 0 1.276-.88q.747-.572 1.452-1.232.703-.704 1.056-1.188m20.464 1.012q0 .175-.44.528-1.936 1.628-3.916 1.628-1.232 0-2.112-.66-2.024 2.64-4.4 2.64-1.76 0-1.76-2.2 0-2.86 2.816-5.764 2.376-2.42 3.476-2.42.704 0 .704.44 0 .132-.264.352-1.056.22-2.86 2.244-2.2 2.465-2.2 4.752 0 1.496 1.056 1.496 1.54 0 3.124-1.804-.836-.924-.836-2.288 0-1.584.792-2.728.704-.968 1.496-.968t.924 1.1q0 1.935-1.364 4.18.748.836 2.024.836 1.716 0 3.344-1.408.132-.132.264-.132t.132.176m-4.84-3.388q0-.44-.308-.44-.396 0-.836.704t-.44 1.804q0 .924.396 1.54 1.188-1.848 1.188-3.608m18.016 3.388q-.175.572-3.036 2.288a120 120 0 0 0-4.884 2.992q-6.291 12.32-7.832 14.872-4.356 7.215-7.26 7.216-1.32 0-1.32-1.716 0-10.12 15.268-20.416 1.013-1.98 3.696-7.524 0-.044-.088-.044-.087 0-.308.22a148 148 0 0 1-2.332 2.156q-3.124 2.904-5.104 2.904-.924 0-.924-1.1 0-1.98 2.86-4.576 3.08-2.816 6.028-2.816.837 0 1.408.352l.924-1.276q.309-.396.616-.396.572 0 .572.616 0 .307-.22.616-2.067 3.08-5.412 9.768a61 61 0 0 1 4.092-2.376q2.2-1.276 2.86-1.804.132-.132.264-.132t.132.176m-4.136-4.664q0-.176-.396-.176-2.375 0-5.192 2.288-2.816 2.243-2.816 4.004 0 .528.484.528 1.805 0 7.7-6.292.22-.308.22-.352m-5.544 11.176q-13.42 9.504-13.42 18.788 0 1.144.748 1.144 2.817 0 12.672-19.932m23.444-6.512q0 .528-2.728 2.024-2.86 1.584-4.092 1.584-2.289 0-2.288-2.42 0-.66.704-1.496 0-.044-.044-.044.043 0-2.376 1.848-2.42 1.804-3.476 1.804-1.012 0-1.012-.836 0-2.025 3.388-4.708 3.212-2.595 5.016-2.596.263.044.572.308.351.22.352.352 0 .045-.044.088-2.464 0-6.292 3.828-1.233 1.231-1.232 2.068 0 .308.308.308.968 0 3.696-2.244 2.2-1.848 3.124-2.948.44-.528.616-.528.44 0 .44.616 0 .22-.572 1.012-1.892 2.595-1.892 3.3 0 1.232 1.364 1.232 2.244 0 6.072-2.596.132-.132.264-.132t.132.176m3.939 2.42q-.133.176-.352.484l-.44.528a2.3 2.3 0 0 1-.352.484q-.177.22-.264.22-.572 0-.572-.616 0-.22.308-.88.528-.748 1.056-1.452t1.012-1.452q1.54-2.2 1.54-3.124 0-.396-.264-.396-.177 0-.528.176a275 275 0 0 0-2.728 2.024 172 172 0 0 1-3.652 2.728h-.308q-.309 0-.308-.088 0-.088.484-.44a175 175 0 0 1 3.212-2.508 280 280 0 0 1 3.608-2.728q.483-.44 1.364-.44.88 0 .88.792 0 .88-1.276 2.816a2.3 2.3 0 0 1-.22.352 1.2 1.2 0 0 0-.22.308h.836q.483 0 1.1-.044 1.056-.088 1.804 0l.352-.616q.175-.307.396-.66.483-.748.924-1.364.483-.615.968-1.1.308-.396.968-.396.351.088.352.22l-1.54 2.552q-1.54 2.551-1.54 3.696 0 1.364 1.188 1.364 1.496 0 4.356-2.596.132-.132.264-.132t.132.176q0 .264-.88.88-1.409 1.232-2.552 1.892-1.145.615-2.156.616-1.98 0-1.98-1.672 0-1.1.484-2.244a15.7 15.7 0 0 0-2.86.044q-.617.044-.792.044h-.264a32 32 0 0 0-1.1 1.672q-.44.792-.44.88m24.809-2.42q0 .175-.44.528-1.936 1.628-3.916 1.628-1.233 0-2.112-.66-2.024 2.64-4.4 2.64-1.76 0-1.76-2.2 0-2.86 2.816-5.764 2.375-2.42 3.476-2.42.704 0 .704.44 0 .132-.264.352-1.057.22-2.86 2.244-2.2 2.465-2.2 4.752 0 1.496 1.056 1.496 1.54 0 3.124-1.804-.837-.924-.836-2.288 0-1.584.792-2.728.704-.968 1.496-.968t.924 1.1q0 1.935-1.364 4.18.747.836 2.024.836 1.716 0 3.344-1.408.132-.132.264-.132t.132.176m-4.84-3.388q0-.44-.308-.44-.396 0-.836.704t-.44 1.804q0 .924.396 1.54 1.188-1.848 1.188-3.608m16.344 2.376q.528-.616 1.32-1.584a64 64 0 0 0 1.54-1.848q.396-.264.792-.132t.22.352q-1.32 1.98-1.936 3.52t-.616 2.156q0 1.1 1.012 1.1 1.54 0 5.588-2.772.088-.088.396-.308.352-.22.484-.22t.132.176q0 .263-.66.704-5.456 3.652-7.304 3.652-1.232 0-1.232-1.408 0-.44.088-.924.132-.528.264-.924.176-.396.264-.66.132-.264.132-.22 0-.176-.132-.176-.308.352-.968 1.012t-1.408 1.32-1.496 1.144q-.749.44-1.188.396-.528-.045-.66-.352-.132-.352 0-.836a5 5 0 0 1 .44-1.056q.308-.572.66-1.1.088-.133.308-.484.22-.396.396-.748.22-.352.308-.572t-.088-.088q-.044-.088-.352.264a35 35 0 0 1-.748.836q-.484.528-1.144 1.144-.616.571-1.408 1.056-.571.352-1.188.748-.616.352-1.232.66a8 8 0 0 1-1.188.44 3.1 3.1 0 0 1-1.144.132 3.2 3.2 0 0 1-1.1-.264q-.528-.264-.528-1.1 0-.484.264-.836.22-.352.484-.352.22 0 .352.22t.308.528q.175.264.396.484.22.22.616.22h.264q.353 0 1.716-.616 2.42-1.144 4.048-2.816a35 35 0 0 0 2.992-3.388q.66-.66.968-.66.132 0 .308.132.22.088.264.352.089.264-.132.748-.176.44-.748 1.144-.352.353-.836 1.056-.44.705-.924 1.496-.44.792-.836 1.496-.352.705-.484 1.012.044.353.572.044a8.4 8.4 0 0 0 1.276-.88q.749-.572 1.452-1.232.704-.704 1.056-1.188"/></svg>