<svg xmlns="http://www.w3.org/2000/svg" width="377" height="132" fill="none" viewBox="0 0 377 132"><path fill="#f5cdcb" d="M256.293 63.318c.393-1.62.601-3.204 1.034-6.378.307-2.34.461-3.54.498-5.1.055-2.395.071-3.734-.514-5.403a11.2 11.2 0 0 0-2.344-3.816c-1.487-1.666-3.029-2.486-4.308-3.182-1.902-1.036-3.425-1.449-6.392-2.234a52 52 0 0 0-7.158-1.459c-2.526-.322-4.1-.522-6.296-.407-3.549.182-4.846.982-6.122.03-.317-.237-.717-.644-1.703-3.794-.709-2.263-1.086-3.925-1.246-4.56-.686-2.81-1.821-4.839-4.023-8.934-2.202-4.096-3.244-5.143-4.012-5.76-.351-.284-1.012-.767-2.116-1.691-1.518-1.274-1.639-1.509-2.269-1.894-1.055-.635-2.004-.769-3.522-.963a23.6 23.6 0 0 0-4.731-.093c-2.331.154-3.972.49-6.365.971-2.394.482-3.613.738-5.11 1.354a24 24 0 0 0-3.173 1.638 22 22 0 0 0-2.851 1.935c-1.033.86-2.113 2.031-3.537 4.5a38 38 0 0 0-3.574 8.372 44.7 44.7 0 0 0-1.615 12.414c.07 9.397 1.359 13.768 2.229 22.247 1.263 12.536 1.341 31.722 2.562 37.934a54 54 0 0 0 1.359 5.248q.596 1.967 1.452 3.836a24.5 24.5 0 0 0 2.364 4.061c.577.865 1.26 1.654 2.032 2.349a8.9 8.9 0 0 0 3.092 1.863c1.501.495 2.735.364 4.625.143a22.5 22.5 0 0 0 4.343-.94c4.827-1.639 11.334-7.206 15.608-10.613 2.494-1.995 6.92-5.529 12.965-9.49 2.561-1.68 5.01-3.17 8.516-5.923a70 70 0 0 0 6.295-5.462c1.481-1.462 1.21-1.339 7.99-9.383 2.163-2.57 2.947-3.478 3.829-5.172 1.246-2.38 1.771-4.552 2.185-6.243"/><path fill="#181818" d="M90.645 83.656q-.177.572-2.992 2.244-3.256 1.936-5.148 3.168-5.94 11.924-7.392 14.3-4.137 7.04-6.952 7.04-1.32 0-1.32-1.716 0-9.593 14.344-19.536l2.728-5.72q0-.176-.132-.176-4.84 3.696-5.94 3.696-1.056 0-1.056-1.056 0-.616 1.32-3.168 1.365-2.552 1.364-2.992 0-.484-.792-.484-.177 0-.176-.528.395-.132.836-.132 1.54 0 1.54.88 0 .968-1.188 3.168T78.5 85.416q0 .352.308.352 1.056 0 3.388-1.848 2.64-2.112 3.96-4.532.66-.66.968-.66.572 0 .572.572 0 .308-.308.792-1.716 2.685-4.312 7.832a75 75 0 0 1 4.312-2.508q2.2-1.275 2.86-1.804.132-.132.264-.132t.132.176m-9.988 6.688Q68.073 99.32 68.073 108.34q0 1.144.748 1.144 1.847 0 5.456-6.336 2.331-4.136 6.38-12.804m37.175-32.78q0 4.488-4.224 10.516-3.212 4.62-8.052 9.064-4.18 3.828-5.06 3.828-2.068 4.268-2.068 4.928a815 815 0 0 1 5.06-4.84q5.016-4.444 7.392-4.444.924.132.924.792 0 1.892-1.76 3.256a122 122 0 0 1-3.3 1.98q-1.76 1.1-1.76 2.332 0 1.935 1.54 1.936 1.804 0 6.38-2.904.22-.176.616-.396.132-.132.264-.132t.132.176q0 .045-.572.616-1.056 1.056-3.652 2.376-2.596 1.275-3.872 1.276-2.376 0-2.376-2.288 0-1.76 1.76-2.948 1.584-.924 3.256-1.892 1.716-1.013 1.716-2.376 0-.615-.572-.616-1.408 0-6.82 5.06-5.368 5.016-5.764 5.016-.528-.044-.528-.484 0-.308.264-.748l4.224-8.624q4.444-9.02 7.876-14.344 4.884-7.524 7.568-7.524 1.408 0 1.408 1.408m-1.276.66q0-1.012-.792-1.012-3.96 1.012-14.828 22.924 1.188-.396 4.928-4.18 4.224-4.313 7.084-8.624 3.608-5.456 3.608-9.108m9.264 25.432q0 .175-.44.528-1.936 1.628-3.916 1.628-1.233 0-2.112-.66-2.024 2.64-4.4 2.64-1.76 0-1.76-2.2 0-2.86 2.816-5.764 2.376-2.42 3.476-2.42.704 0 .704.44 0 .132-.264.352-1.056.22-2.86 2.244-2.2 2.465-2.2 4.752 0 1.496 1.056 1.496 1.54 0 3.124-1.804-.836-.924-.836-2.288 0-1.584.792-2.728.704-.968 1.496-.968t.924 1.1q0 1.936-1.364 4.18.747.836 2.024.836 1.716 0 3.344-1.408.132-.132.264-.132t.132.176m-4.84-3.388q0-.44-.308-.44-.396 0-.836.704t-.44 1.804q0 .924.396 1.54 1.188-1.848 1.188-3.608m14.364 3.388q0 .176-.66.704a362 362 0 0 0-3.476 2.288q-2.508 1.496-4.092 1.496-.924 0-1.628-.66t-.704-1.496q0-2.904 2.816-5.324 2.508-2.156 4.664-2.156 1.364 0 1.364 1.1 0 .615-1.804 2.42a.55.55 0 0 1-.396.176q-.352 0-.352-.396 0-.176.132-.264.132-.132.528-.968.396-.88.396-1.32 0-.132-.308-.132-1.1 0-3.212 1.804-2.552 2.156-2.552 4.444 0 1.672 1.452 1.672 2.244 0 6.82-3.036.22-.176.616-.396.132-.132.264-.132t.132.176m26.525 0q0 .264-.66.704-3.124 2.112-3.476 2.332-1.98 1.188-3.3 1.188-.748 0-1.276-.528a1.82 1.82 0 0 1-.484-1.276q0-2.2 2.816-6.292.22-.307.22-.396 0-.044-.044-.044-.176 0-.616.308l-5.456 4.092q-1.276 1.1-3.74 3.08-.352.264-.968.484-.308 0-.308-.44 0-.88 1.452-2.816 1.496-1.98 1.496-2.772 0-.748-.704-.748-1.056 0-4.224 2.86a51 51 0 0 0-3.784 3.74q-.616.66-.968.66-.572 0-.572-.616 0-.175.308-.88a179 179 0 0 0 2.068-2.904q1.54-2.2 1.54-3.124 0-.396-.264-.396-.132 0-.528.176l-6.38 4.752h-.308q-.308 0-.308-.088 0-.132.484-.44a420 420 0 0 1 6.82-5.236q.528-.44 1.364-.44.88 0 .88.792 0 .175-.088.528-.88 1.54-2.244 3.916-.176.308-.176.396 0 .044.088.044l.132-.044 3.256-2.816q2.508-2.112 3.608-2.112 1.452 0 1.452.924 0 .792-.88 2.42-.836 1.584-.836 1.716t.088.132q.176 0 .616-.308l9.152-6.908q.44-.352.924-.352.308 0 .44.132.132.088.132.352a.82.82 0 0 1-.176.528 831 831 0 0 1-2.508 3.564q-1.496 2.287-1.496 3.96 0 1.056 1.144 1.012 1.364-.045 3.08-1.1l2.816-1.76q.132-.132.264-.132t.132.176m12.827 0q0 .615-3.168 2.288t-7.7 1.672q-2.597 0-2.816-.528 0-.308.484-.308.66.132.836.132 2.244 0 4.796-2.288 2.42-2.156 2.42-3.696 0-.66-.836-.66-4.137 0-9.02 7.832-.396.615-4.796 9.328-4.444 8.755-4.708 9.372-.309.748-.792.748a.6.6 0 0 1-.264-.044q-.264-.088-.264-.528 0-1.584 19.8-36.96.351-.615.66-.616.044 0 .176.088t.132.352q0 .484-.264.748-.044.132-3.608 6.512-3.388 6.16-3.388 6.556 0 .045.044.088.044-.088.308-.352 1.056-1.275 2.904-2.596 2.464-1.672 4.312-1.672 1.364 0 1.364 1.056 0 3.212-5.148 6.292 3.916 0 8.14-2.86.132-.132.264-.132t.132.176m13.813 0q0 .528-2.728 2.024-2.859 1.584-4.092 1.584-2.288 0-2.288-2.42 0-.66.704-1.496 0-.044-.044-.044.045 0-2.376 1.848-2.42 1.804-3.476 1.804-1.012 0-1.012-.836 0-2.025 3.388-4.708 3.213-2.596 5.016-2.596.264.044.572.308.352.22.352.352 0 .045-.044.088-2.463 0-6.292 3.828-1.232 1.231-1.232 2.068 0 .308.308.308.969 0 3.696-2.244 2.2-1.848 3.124-2.948.44-.528.616-.528.44 0 .44.616 0 .22-.572 1.012-1.892 2.595-1.892 3.3 0 1.232 1.364 1.232 2.244 0 6.072-2.596.132-.132.264-.132t.132.176"/><path fill="#181818" d="M17.18 54.902q.132 0 .132.088 0 .066-.132.088-.77.022-1.188.55-.396.506-.396 1.716v7.502h1.232q.154 0 .154.154l.044.77.132 1.672q.023.132-.066.132-.066 0-.088-.11-.242-1.275-.814-1.87Q15.64 65 14.54 65H8.336q-1.1 0-1.672.594-.55.594-.792 1.87-.022.11-.11.11-.066 0-.044-.132.132-1.144.132-1.672l.044-.77q0-.154.154-.154h.682q.77 0 1.166-2.442.419-2.442.528-5.654-.088-.902-.484-1.276t-1.078-.396q-.132-.022-.132-.088.023-.088.132-.088.924.066 1.276.066h7.766q.418 0 1.276-.066m-4.114 9.944v-9.724H8.6q0 3.146-.374 6.138-.352 2.97-1.1 3.586zm16.017-9.9q.089 0 .088.088 0 .088-.088.088-.484 0-.814.418-.308.419-.792 1.584l-3.432 8.118q-.704 1.584-1.298 2.508-.57.945-1.254 1.408a2.7 2.7 0 0 1-1.562.462 3.43 3.43 0 0 1-1.76-.462q-.791-.462-.88-1.078-.021-.307.286-.99.309-.66.616-1.078.309-.396.286-.044-.021.462.308 1.188.353.727.902 1.276.55.55 1.166.55.639 0 1.122-.506.485-.506.99-1.65.066-.33-.154-.946a10 10 0 0 0-.462-1.144l-3.212-7.612q-.484-1.166-.814-1.584-.308-.418-.792-.418-.087 0-.088-.088 0-.088.088-.088l.968.022h2.794l1.628-.022q.154 0 .154.088.001.088-.154.088-1.32 0-1.32.968 0 .462.242 1.034l2.596 6.116q.044.133.11.154.09 0 .132-.132l2.596-6.138q.264-.638.264-1.012 0-.99-1.408-.99-.132 0-.132-.088t.132-.088l1.716.022h.264zm18.706 9.9q.11 0 .11.088t-.11.088A28 28 0 0 0 46.403 65H31.025q-1.033 0-1.386.022-.11 0-.11-.088t.11-.088q.726 0 1.078-.484t.352-1.65v-5.456q0-1.165-.352-1.65t-1.078-.484q-.11 0-.11-.088t.11-.088l1.386.022h2.486l1.298-.022q.11 0 .11.088t-.11.088q-.704 0-1.034.484-.308.485-.308 1.65v7.59h4.026v-7.59q0-1.165-.33-1.65-.307-.484-1.012-.484-.11 0-.11-.088t.11-.088l1.298.022h2.508l1.298-.022q.11 0 .11.088t-.11.088q-.704 0-1.034.484-.308.485-.308 1.65v7.59h4.026v-7.59q0-1.165-.33-1.65-.307-.484-1.012-.484-.11 0-.11-.088t.11-.088l1.298.022h2.508l1.386-.022q.11 0 .11.088t-.11.088q-.726 0-1.078.484-.351.485-.352 1.65v5.456q0 1.166.352 1.65t1.078.484m10.777-1.804q.023-.022.066.022.066.045.022.11a5.65 5.65 0 0 1-2.068 1.606q-1.21.55-2.53.55a5.36 5.36 0 0 1-2.574-.638 4.86 4.86 0 0 1-1.892-1.804q-.681-1.188-.682-2.728 0-1.518.748-2.794a5.53 5.53 0 0 1 2.068-2.002 5.6 5.6 0 0 1 2.838-.748q1.716 0 2.86.946 1.144.925 1.144 2.53 0 .726-.264 1.562-2.31.044-7.084.198.375 1.21 1.144 2.178.792.946 1.804 1.496 1.012.528 1.98.528 1.607 0 2.42-1.012m-5.082-8.008q-1.232 0-1.892.77-.638.748-.638 2.266 0 .748.22 1.628a87 87 0 0 0 2.948-.11q.44-.023.902-.044.485-.022.968-.022.198-.33.198-.814 0-.726-.418-1.584a4.5 4.5 0 0 0-1.034-1.474q-.615-.615-1.254-.616M59.825 65q-.11 0-.11-.088t.11-.088q.748.022 1.078-.462.352-.484.352-1.65v-5.434q0-1.166-.352-1.65-.33-.484-1.056-.484-.11 0-.11-.088t.11-.088q.66.044 1.364.044 2.772-.066 5.038-.066 1.738 0 2.706.594.968.572.968 1.782 0 .792-.682 1.43-.66.616-1.65.726 1.275.066 2.134.748.858.682.858 1.87 0 1.386-1.1 2.178-1.078.792-2.992.792l-5.28-.088zm5.874-5.632q1.122-.132 1.606-.594.484-.484.484-1.474 0-1.078-.572-1.606-.55-.528-1.408-.55l-1.562-.066h-.066q-.22 0-.286.11t-.066.396v8.668q0 .396.11.55.133.132.484.132l1.386-.022q1.122 0 1.738-.638.638-.66.638-1.936 0-1.297-.572-1.98-.55-.705-1.848-.748l-.748-.022q-.088 0-.088-.066t.066-.088zm18.877 5.478q.11 0 .11.088t-.11.088A26 26 0 0 0 83.212 65h-2.618q-.968 0-1.298.022-.11 0-.11-.088t.11-.088q.704 0 1.012-.484.33-.484.33-1.65V59.83q0-.264-.198-.242-1.166.176-2.31.176t-2.31-.176h-.022q-.132 0-.132.242v2.882q0 1.166.308 1.65.33.484 1.034.484.11 0 .11.088t-.11.088Q76.678 65 75.71 65h-2.618q-1.034 0-1.386.022-.11 0-.11-.088t.11-.088q.726 0 1.078-.484.351-.484.352-1.65v-5.456q0-1.165-.352-1.65t-1.078-.484q-.11 0-.11-.088t.11-.088l1.386.022h2.618l1.298-.022q.11 0 .11.088t-.11.088q-.704 0-1.034.484-.309.485-.308 1.65v1.914q0 .242.154.264 1.122.176 2.244.176 1.188 0 2.376-.176.11-.022.154-.088a.3.3 0 0 0 .044-.176v-1.914q0-1.165-.33-1.65-.309-.484-1.012-.484-.11 0-.11-.088t.11-.088l1.298.022h2.618l1.364-.022q.11 0 .11.088t-.11.088q-.726 0-1.078.484-.33.485-.33 1.65v5.456q0 1.166.33 1.65.351.484 1.078.484m16.667 0q.11 0 .11.088t-.11.088A27 27 0 0 0 99.879 65h-2.618q-1.034 0-1.386.022-.088 0-.088-.088t.088-.088q.748 0 1.078-.484.352-.484.352-1.65V57.19q0-1.166-.352-1.65-.33-.484-1.078-.484-.088 0-.088-.088t.088-.088l1.386.022h2.618l1.364-.022q.11 0 .11.088t-.11.088q-.726 0-1.078.484-.33.484-.33 1.65v5.522q0 1.166.33 1.65.352.484 1.078.484m-9.724-5.588q4.51-.066 4.51 2.75 0 1.452-1.056 2.222t-3.146.77h-4.62q-1.034 0-1.386.022-.11 0-.11-.088t.11-.088q.726 0 1.078-.484t.352-1.65v-5.456q0-1.165-.352-1.65t-1.078-.484q-.11 0-.11-.088t.11-.088l1.386.022h2.618l1.364-.022q.11 0 .11.088t-.11.088q-.726 0-1.078.484-.33.485-.33 1.65v1.782q0 .242.198.242zm-.352 5.566q1.056-.022 1.628-.77.594-.748.594-2.002 0-1.232-.594-1.914-.594-.705-1.716-.682l-1.1.022q-.198 0-.198.242v4.532q0 .352.088.484.088.11.352.11zm20.852-1.782q.023-.022.066.022.067.045.022.11a5.64 5.64 0 0 1-2.068 1.606q-1.21.55-2.53.55a5.36 5.36 0 0 1-2.574-.638 4.87 4.87 0 0 1-1.892-1.804q-.681-1.188-.682-2.728 0-1.518.748-2.794a5.54 5.54 0 0 1 2.068-2.002 5.6 5.6 0 0 1 2.838-.748q1.717 0 2.86.946 1.144.925 1.144 2.53 0 .726-.264 1.562-2.31.044-7.084.198a6.6 6.6 0 0 0 1.144 2.178 6.2 6.2 0 0 0 1.804 1.496q1.012.528 1.98.528 1.607 0 2.42-1.012m-5.082-8.008q-1.232 0-1.892.77-.638.748-.638 2.266 0 .748.22 1.628a87 87 0 0 0 2.948-.11q.44-.023.902-.044a21 21 0 0 1 .968-.022q.198-.33.198-.814 0-.726-.418-1.584a4.5 4.5 0 0 0-1.034-1.474q-.615-.615-1.254-.616m18.874-.418a3.66 3.66 0 0 1 2.09.638q.967.616 1.54 1.804.594 1.166.594 2.706 0 1.452-.682 2.75a5.35 5.35 0 0 1-1.826 2.046 4.4 4.4 0 0 1-2.508.77q-.837 0-1.386-.22a5.3 5.3 0 0 1-1.034-.55q-.33-.22-.44-.22-.198 0-.198.374v2.42q0 1.166.308 1.628.33.484.99.528.11 0 .11.066 0 .088-.11.088a50 50 0 0 0-2.288-.044q-1.739 0-2.838.044-.11 0-.11-.088t.11-.088q.66.022.968-.462.33-.484.33-1.694v-9.328q0-.835-.22-1.21-.198-.396-.77-.396-.11 0-.374.044-.089.022-.11-.044 0-.088.066-.11a18 18 0 0 0 2.112-.638q1.1-.396 1.782-.858.11-.066.176-.044.087.023.066.132a23 23 0 0 0-.154 1.936q0 .264.022.506.044.22.11.198.594-1.188 1.474-1.936t2.2-.748M125.195 65q1.407 0 2.024-.792.638-.792.638-2.31 0-1.474-.506-2.838t-1.364-2.2q-.837-.836-1.826-.836t-1.606.836q-.594.836-.594 2.244v1.474q0 1.914.858 3.168.879 1.254 2.376 1.254m17.046-3.762q0-.11.066-.11t.066.11q0 1.672-.726 2.86-.704 1.188-1.848 1.188-.836 0-1.408-.55-.572-.572-.638-1.694-.528 1.1-1.408 1.694a3.25 3.25 0 0 1-1.892.594q-1.738 0-2.574-.968a3.44 3.44 0 0 1-.836-2.288q0-1.276 1.144-2.046 1.166-.77 2.904-.77.594 0 1.32.11.748.11 1.342.286v-.968q0-3.388-2.948-3.388-1.21 0-2.068.792-.836.792-.836 2.376 0 .088-.044.132t-.088.044q-.088 0-.088-.176 0-1.232.616-2.09a3.85 3.85 0 0 1 1.584-1.32 4.9 4.9 0 0 1 2.046-.44q4.356 0 4.356 4.07v3.608q0 1.452.748 1.452.726 0 .946-.638.22-.66.264-1.87m-6.644 2.838q2.156 0 2.156-2.618v-.132a2.27 2.27 0 0 0-.924-1.254 2.53 2.53 0 0 0-1.496-.484q-2.178 0-2.178 1.672 0 1.122.638 1.98.638.836 1.804.836m10.92-9.46q1.739 0 2.75.66 1.034.66 1.034 1.76 0 .946-.66 1.518t-1.672.704q1.255.066 2.134.814.88.726.88 1.914 0 1.54-1.188 2.442t-3.212.902q-2.75 0-4.18-2.2-.044-.088 0-.11.066-.044.11.022.749 1.144 2.816 1.144 1.54 0 2.332-.55t.792-2.024q0-1.122-.55-1.65t-1.87-.55l-.748-.044q-.087 0-.088-.066 0-.066.066-.066l.704-.066q1.21-.132 1.716-.638.528-.505.528-1.65 0-1.914-2.068-1.914-1.32 0-2.134.968-.813.946-1.32 2.904-.021.088-.11.066-.065-.022-.044-.11l.374-2.178q.089-.484.528-.946t1.232-.748q.792-.308 1.848-.308m9.543 8.096q0 1.166.33 1.65.352.484 1.078.484.11 0 .11.088t-.11.088q-.33-.022-1.364-.022h-2.618q-1.034 0-1.386.022-.11 0-.11-.088t.11-.088q.727 0 1.078-.484t.352-1.65v-5.456q0-1.165-.352-1.65-.351-.484-1.078-.484-.11 0-.11-.088t.11-.088l1.386.022h4.708q.968 0 1.496-.088.55-.088.704-.088.286 0 .286.352-.044.99.352 3.586.023.088-.022.11-.043.022-.088-.11-.33-1.078-.616-1.694-.285-.615-.66-1.012-.417-.44-1.144-.66-.704-.22-1.98-.22-.264 0-.374.198-.088.176-.088.572zm11.009 2.64q-1.518 0-2.75-.638a4.93 4.93 0 0 1-1.914-1.848q-.682-1.188-.682-2.706 0-1.54.792-2.794a5.56 5.56 0 0 1 2.156-2.002q1.386-.726 3.036-.726 1.539 0 2.772.66a4.76 4.76 0 0 1 1.958 1.804q.704 1.166.704 2.662a5.24 5.24 0 0 1-.814 2.838q-.793 1.275-2.2 2.024-1.386.726-3.058.726m1.21-.528q1.254 0 1.958-.704.726-.726.726-2.112 0-1.343-.704-2.97-.682-1.628-1.738-2.75-1.035-1.144-2.024-1.144-1.233 0-1.936.704-.704.704-.704 2.112 0 1.32.682 2.97.681 1.628 1.716 2.772 1.055 1.122 2.024 1.122m5.993.176q-.11 0-.11-.088t.11-.088q.748.022 1.078-.462.352-.484.352-1.65v-5.434q0-1.166-.352-1.65-.33-.484-1.056-.484-.11 0-.11-.088t.11-.088q.66.044 1.364.044 2.773-.066 5.038-.066 1.738 0 2.706.594.968.572.968 1.782 0 .792-.682 1.43-.66.616-1.65.726 1.276.066 2.134.748t.858 1.87q0 1.386-1.1 2.178-1.077.792-2.992.792l-5.28-.088zm5.874-5.632q1.123-.132 1.606-.594.484-.484.484-1.474 0-1.078-.572-1.606-.55-.528-1.408-.55l-1.562-.066h-.066q-.22 0-.286.11t-.066.396v8.668q0 .396.11.55.133.132.484.132l1.386-.022q1.122 0 1.738-.638.638-.66.638-1.936 0-1.297-.572-1.98-.549-.705-1.848-.748l-.748-.022q-.087 0-.088-.066 0-.066.066-.088zm11.458 5.984q-1.518 0-2.75-.638a4.93 4.93 0 0 1-1.914-1.848q-.682-1.188-.682-2.706 0-1.54.792-2.794a5.56 5.56 0 0 1 2.156-2.002q1.386-.726 3.036-.726 1.54 0 2.772.66a4.75 4.75 0 0 1 1.958 1.804q.704 1.166.704 2.662a5.24 5.24 0 0 1-.814 2.838q-.792 1.275-2.2 2.024-1.386.726-3.058.726m1.21-.528q1.254 0 1.958-.704.726-.726.726-2.112 0-1.343-.704-2.97-.682-1.628-1.738-2.75-1.034-1.144-2.024-1.144-1.232 0-1.936.704t-.704 2.112q0 1.32.682 2.97.683 1.628 1.716 2.772 1.056 1.122 2.024 1.122m13.627-10.208q1.145 0 2.09.638.969.616 1.54 1.804.594 1.166.594 2.706 0 1.452-.682 2.75a5.35 5.35 0 0 1-1.826 2.046 4.4 4.4 0 0 1-2.508.77q-.835 0-1.386-.22a5.4 5.4 0 0 1-1.034-.55q-.33-.22-.44-.22-.198 0-.198.374v2.42q0 1.166.308 1.628.33.484.99.528.11 0 .11.066 0 .088-.11.088a50 50 0 0 0-2.288-.044q-1.737 0-2.838.044-.11 0-.11-.088t.11-.088q.66.022.968-.462.33-.484.33-1.694v-9.328q0-.835-.22-1.21-.198-.396-.77-.396a3 3 0 0 0-.374.044q-.087.022-.11-.044 0-.088.066-.11 1.035-.242 2.112-.638 1.101-.396 1.782-.858.11-.066.176-.044.089.023.066.132a23 23 0 0 0-.154 1.936q0 .264.022.506.044.22.11.198.594-1.188 1.474-1.936t2.2-.748M205.825 65q1.409 0 2.024-.792.639-.792.638-2.31a8.1 8.1 0 0 0-.506-2.838q-.506-1.365-1.364-2.2-.836-.836-1.826-.836t-1.606.836q-.594.836-.594 2.244v1.474q0 1.914.858 3.168.88 1.254 2.376 1.254m21.381-.154q.11 0 .11.088t-.11.088a27 27 0 0 0-1.364-.022h-2.618q-1.034 0-1.386.022-.088 0-.088-.088t.088-.088q.748 0 1.078-.484.352-.484.352-1.65V57.19q0-1.166-.352-1.65-.33-.484-1.078-.484-.088 0-.088-.088t.088-.088l1.386.022h2.618l1.364-.022q.11 0 .11.088t-.11.088q-.726 0-1.078.484-.33.484-.33 1.65v5.522q0 1.166.33 1.65.352.484 1.078.484m-9.724-5.588q4.51-.066 4.51 2.75 0 1.452-1.056 2.222t-3.146.77h-4.62q-1.034 0-1.386.022-.11 0-.11-.088t.11-.088q.726 0 1.078-.484t.352-1.65v-5.456q0-1.165-.352-1.65t-1.078-.484q-.11 0-.11-.088t.11-.088l1.386.022h2.618l1.364-.022q.11 0 .11.088t-.11.088q-.726 0-1.078.484-.33.485-.33 1.65v1.782q0 .242.198.242zm-.352 5.566q1.056-.022 1.628-.77.594-.748.594-2.002 0-1.232-.594-1.914-.594-.705-1.716-.682l-1.1.022q-.198 0-.198.242v4.532q0 .352.088.484.088.11.352.11z"/></svg>