<svg xmlns="http://www.w3.org/2000/svg" width="16" height="17" fill="none" viewBox="0 0 16 17"><path fill="#181818" d="M15.452 10.878H9.931a.548.548 0 0 1 0-1.095h5.521a.548.548 0 0 1 0 1.095"/><path fill="#181818" d="M8.603 12.206a1.88 1.88 0 0 1-1.876-1.875c0-1.035.842-1.876 1.876-1.876s1.876.841 1.876 1.876a1.88 1.88 0 0 1-1.876 1.875m0-2.656a.781.781 0 1 0 .002 1.562.781.781 0 0 0-.002-1.562"/><path fill="#181818" d="M7.275 10.878H.548a.548.548 0 0 1 0-1.095h6.727a.548.548 0 1 1 0 1.095m8.177-4.228H4.9a.548.548 0 1 1 0-1.095h10.552a.548.548 0 1 1 0 1.096"/><path fill="#181818" d="M3.572 7.979a1.88 1.88 0 0 1-1.876-1.876c0-1.034.842-1.876 1.876-1.876s1.876.842 1.876 1.876A1.88 1.88 0 0 1 3.572 7.98m0-2.656a.781.781 0 0 0 0 1.56.781.781 0 0 0 0-1.56"/><path fill="#181818" d="M2.244 6.65H.548a.548.548 0 1 1 0-1.095h1.696a.548.548 0 1 1 0 1.096m8.063-4.227H.547a.548.548 0 1 1 0-1.096h9.76a.548.548 0 0 1 0 1.096"/><path fill="#181818" d="M11.635 3.752A1.88 1.88 0 0 1 9.76 1.876a1.876 1.876 0 1 1 3.751 0 1.88 1.88 0 0 1-1.876 1.876m0-2.656a.781.781 0 0 0 0 1.56.781.781 0 0 0 0-1.56"/><path fill="#181818" d="M15.452 2.424h-2.489a.548.548 0 1 1 0-1.096h2.49a.548.548 0 1 1 0 1.096m-.001 12.682H4.9a.548.548 0 1 1 0-1.096h10.552a.548.548 0 1 1 0 1.096"/><path fill="#181818" d="M3.572 16.434a1.88 1.88 0 0 1-1.876-1.876c0-1.034.842-1.876 1.876-1.876s1.876.842 1.876 1.876a1.88 1.88 0 0 1-1.876 1.876m0-2.656a.781.781 0 0 0 0 1.56.781.781 0 0 0 0-1.56"/><path fill="#181818" d="M2.244 15.106H.548a.548.548 0 1 1 0-1.096h1.696a.548.548 0 1 1 0 1.096"/></svg>