<svg xmlns="http://www.w3.org/2000/svg" width="118" height="52" fill="none" viewBox="0 0 118 52"><path fill="#000" d="M14.52 26.08q0 .24-.6.64Q9 30.04 7.28 30.04q-1.12 0-1.12-1.28 0-.72.28-1.44.4-1 .4-1.04 0-.16-.12-.16a.7.7 0 0 0-.2.08q-.88.88-2.56 2.12-2.16 1.6-3 1.6-.96 0-.96-.96 0-.56 1.4-3.08 1.4-2.56 1.4-2.96 0-.44-.72-.44-.16 0-.16-.48.36-.12.76-.12 1.4 0 1.4.8 0 .88-1.24 2.96t-1.24 2.6q0 .32.28.32.64 0 3.12-2.12 2.52-2.12 3.88-3.84.6-.6.88-.6.52 0 .52.52 0 .28-.28.72-2.4 3.6-2.4 4.68 0 1 .92 1 1.4 0 5.08-2.52.2-.16.56-.36.12-.12.24-.12t.12.16m.69 2.08q.32 0 1.56-.56 2.2-1.04 3.88-2.48 1.72-1.48 2.92-3.04.6-.6.88-.6.52 0 .52.52 0 .32-.28.72-2.4 3.6-2.4 4.68 0 1 .92 1 1.4 0 5.08-2.52.08-.08.36-.28.32-.2.44-.2t.12.16q0 .24-.6.64-4.96 3.32-6.64 3.32-1.12 0-1.12-1.28 0-.4.08-.84.12-.48.24-.84.159-.36.24-.6.12-.24.12-.2 0-.16-.12-.16-.2 0-.84.48-.6.48-2 1.28a18 18 0 0 0-1.24.64q-.56.32-1.08.6a6.4 6.4 0 0 1-1 .44q-.48.16-1 .12a2.9 2.9 0 0 1-1-.24q-.48-.24-.48-1 0-.44.24-.76.2-.32.44-.32.2 0 .32.2t.28.48q.159.24.36.44t.56.2zm26.224-2.08q0 .24-.6.64-4.92 3.32-6.64 3.32-1.12 0-1.12-1.28 0-.72.28-1.44.4-1 .4-1.04 0-.16-.12-.16a.7.7 0 0 0-.2.08q-.88.88-2.56 2.12-2.16 1.6-3 1.6-.96 0-.96-.96 0-.56 1.4-3.08 1.4-2.56 1.4-2.96 0-.44-.72-.44-.16 0-.16-.48.36-.12.76-.12 1.4 0 1.4.8 0 .88-1.24 2.96t-1.24 2.6q0 .32.28.32.64 0 3.12-2.12 2.52-2.12 3.88-3.84.6-.6.88-.6.52 0 .52.52 0 .28-.28.72-2.4 3.6-2.4 4.68 0 1 .92 1 1.4 0 5.08-2.52.2-.16.56-.36.12-.12.24-.12t.12.16m17.922 0q0 .2-.6.64l-5.52 4.08q-.08 3.08-2.88 8.2-2.6 4.8-5.96 8.48-3.56 3.88-5.6 3.84-.68 0-1.16-.48t-.48-1.2q0-2.96 3.6-7.8 2.76-3.6 6.84-7.48 3.6-3.36 4.08-3.36a.84.84 0 0 0-.12-.44q-.56-1-1.56-1-.4 0-.88.16-.96.32-1.16.32-.12 0-.16-.16 0-.4.8-.72 1.28-.56 3.08-2.12 2.12-1.88 2.12-3.04 0-.68-.64-.68-.56 0-2.44 1.28l-2.96 2.16q-.12.12-.24.12-.08 0-.08-.44.12-.08 1.44-1.08 1.32-1.04 2.68-2.12 1.4-1.12 2.52-1.12 1.44 0 1.44 1.52 0 1.84-4.72 4.92-.28.28-.28.4 0 .16.28.16 1.76 0 2.32 1.04.92-.52 2.92-2.12 1.84-1.44 2.96-2 .12-.12.24-.12t.12.16m-7.48 5.76q0-.16-.04-.16-.88 0-4.2 3.36-3.52 3.52-6.08 7.24-3.08 4.52-3.08 7.04 0 .92.6.92 1.2 0 4.4-3.48 3.2-3.44 5.6-7.44 2.8-4.64 2.8-7.48M76.375 1.28q0 4.04-3.88 10-3 4.64-7.44 9.12-3.921 4-4.8 4 .12 3.76 2.36 3.76 1.719 0 3.72-1.48-.4-.72-.4-1.56 0-2.72 1.76-2.72.72 0 .84 1 0 1.4-1.2 2.8.68 1.12 2.12 1.12 1.56 0 3.04-1.28.12-.12.24-.12t.12.16-.4.48q-1.76 1.48-3.56 1.48-1.48 0-2.36-1-2.36 2.16-4.6 2.16-1.32 0-2.2-1.08-.84-1.12-.84-2.68 0-4.44 3.12-10.76 2.84-5.76 6.76-10.2Q72.695 0 75.095 0q1.28 0 1.28 1.28m-1.16.6q0-.92-.72-.92-1.881 0-5.4 4.52-3.32 4.24-5.96 9.56-2.8 5.6-2.8 8.44 0 .16.08.16.76 0 4.4-3.92 4.04-4.32 6.84-8.72 3.56-5.6 3.56-9.12m-7.08 21.76q0-.4-.28-.4-.84 0-.84 1.64 0 .56.16 1 .96-1.08.96-2.24m15.594 2.44q0 .16-.4.48-1.76 1.48-3.56 1.48-1.12 0-1.92-.6-1.84 2.4-4 2.4-1.6 0-1.6-2 0-2.6 2.56-5.24 2.16-2.2 3.16-2.2.64 0 .64.4 0 .12-.24.32-.96.2-2.6 2.04-2 2.24-2 4.32 0 1.36.96 1.36 1.4 0 2.84-1.64-.76-.84-.76-2.08 0-1.44.72-2.48.64-.88 1.36-.88t.84 1q0 1.76-1.24 3.8.68.76 1.84.76 1.56 0 3.04-1.28.12-.12.24-.12t.12.16M79.33 23q0-.4-.28-.4-.36 0-.76.64t-.4 1.64q0 .84.36 1.4 1.08-1.68 1.08-3.28m8.019 5.28q-.12.16-.32.44l-.4.48a2 2 0 0 1-.32.44q-.16.2-.24.2-.52 0-.52-.56 0-.2.28-.8.48-.68.96-1.32t.92-1.32q1.4-2 1.4-2.84 0-.36-.24-.36-.16 0-.48.16-1.04.76-2.48 1.84-1.4 1.08-3.32 2.48h-.28q-.28 0-.28-.08t.44-.4q1.4-1.12 2.92-2.28 1.56-1.2 3.28-2.48.44-.4 1.24-.4t.8.72q0 .8-1.16 2.56-.08.16-.2.32-.12.12-.2.28h.76q.44 0 1-.04.96-.08 1.64 0l.32-.56q.159-.28.36-.6.44-.68.84-1.24.44-.56.88-1 .28-.36.88-.36.32.08.32.2l-1.4 2.32q-1.4 2.32-1.4 3.36 0 1.24 1.08 1.24 1.359 0 3.96-2.36.12-.12.24-.12t.12.16q0 .24-.8.8-1.28 1.12-2.32 1.72-1.04.56-1.96.56-1.8 0-1.8-1.52 0-1 .44-2.04a14.3 14.3 0 0 0-2.6.04q-.561.04-.72.04h-.24q-.56.8-1 1.52-.4.72-.4.8m24.633-2.2q0 .24-.6.64-4.92 3.32-6.64 3.32-1.12 0-1.12-1.28 0-.72.28-1.44.4-1 .4-1.04 0-.16-.12-.16a.7.7 0 0 0-.2.08q-.88.88-2.56 2.12-2.16 1.6-3 1.6-.96 0-.96-.96 0-.56 1.4-3.08 1.4-2.56 1.4-2.96 0-.44-.72-.44-.16 0-.16-.48.36-.12.76-.12 1.4 0 1.4.8 0 .88-1.24 2.96t-1.24 2.6q0 .32.28.32.64 0 3.12-2.12 2.52-2.12 3.88-3.84.6-.6.88-.6.52 0 .52.52 0 .28-.28.72-2.4 3.6-2.4 4.68 0 1 .92 1 1.4 0 5.08-2.52.2-.16.56-.36.12-.12.24-.12t.12.16m5.09-3.2q0 .44-.48.84t-.84.4q-.76 0-.84-.8 0-.56.44-.88t.84-.32q.88 0 .88.76m-1.8 5.64q0 .44-.48.84t-.84.4q-.76 0-.84-.8 0-.56.44-.88t.84-.32q.88 0 .88.76"/></svg>