<svg xmlns="http://www.w3.org/2000/svg" id="Layer_2" viewBox="0 0 320.68 193.02"><defs><style>.st0{fill:#181818}</style></defs><path d="M103.1 170.58q0 .525-1.32 1.41c-4.17 2.82-6.48 4.37-6.95 4.66-2.64 1.58-4.84 2.38-6.6 2.38-1 0-1.83-.35-2.51-1.06-.68-.7-1.01-1.55-1.01-2.55 0-2.93 1.88-7.13 5.63-12.58.29-.41.44-.67.44-.79q0-.09-.09-.09c-.23 0-.65.21-1.23.62-3.29 2.46-6.92 5.19-10.91 8.18-1.7 1.47-4.19 3.52-7.48 6.16-.47.35-1.12.67-1.94.97-.41 0-.62-.29-.62-.88 0-1.17.98-3.06 2.95-5.68 1.96-2.61 2.95-4.44 2.95-5.5q0-1.5-1.41-1.5c-1.41 0-4.22 1.91-8.45 5.72-2.88 2.58-5.4 5.07-7.57 7.48-.82.88-1.47 1.32-1.94 1.32q-1.14 0-1.14-1.23c0-.24.2-.82.62-1.76a347 347 0 0 0 4.14-5.81c2.05-2.93 3.08-5.02 3.08-6.25 0-.53-.18-.79-.53-.79-.18 0-.53.12-1.06.35-2.99 2.23-7.25 5.4-12.76 9.5h-.62c-.41 0-.62-.06-.62-.18 0-.18.32-.47.97-.88 4.11-3.23 8.65-6.72 13.64-10.47.7-.59 1.61-.88 2.73-.88 1.17 0 1.76.53 1.76 1.58 0 .24-.06.59-.18 1.06-1.17 2.05-2.67 4.66-4.49 7.83-.24.41-.35.68-.35.79q0 .09.18.09l.26-.09c2.17-1.88 4.34-3.75 6.51-5.63 3.34-2.82 5.75-4.22 7.22-4.22 1.94 0 2.9.62 2.9 1.85 0 1.06-.57 2.65-1.72 4.8-1.14 2.14-1.72 3.3-1.72 3.48s.06.26.18.26c.23 0 .65-.2 1.23-.62l18.3-13.82c.59-.47 1.2-.7 1.85-.7.41 0 .7.07.88.22s.26.4.26.75c0 .41-.12.76-.35 1.06-1.64 2.35-3.31 4.72-5.02 7.13-2 3.05-2.99 5.69-2.99 7.92 0 1.41.76 2.08 2.29 2.02 1.82-.06 3.87-.79 6.16-2.2 1.88-1.17 3.75-2.35 5.63-3.52.18-.18.35-.26.53-.26s.26.12.26.35Z" class="st0"/><path d="M127.03 170.58c0 .24-.29.59-.88 1.06-2.58 2.17-5.19 3.26-7.83 3.26-1.64 0-3.05-.44-4.22-1.32-2.7 3.52-5.63 5.28-8.8 5.28-2.35 0-3.52-1.47-3.52-4.4 0-3.81 1.88-7.66 5.63-11.53 3.17-3.23 5.48-4.84 6.95-4.84.94 0 1.41.29 1.41.88 0 .18-.18.41-.53.7-1.41.29-3.31 1.79-5.72 4.49-2.93 3.29-4.4 6.45-4.4 9.5 0 2 .7 2.99 2.11 2.99 2.05 0 4.14-1.2 6.25-3.61-1.12-1.23-1.67-2.76-1.67-4.58 0-2.11.53-3.93 1.58-5.46.94-1.29 1.94-1.94 2.99-1.94s1.67.73 1.85 2.2c0 2.58-.91 5.37-2.73 8.36 1 1.11 2.35 1.67 4.05 1.67q3.435 0 6.69-2.82c.18-.18.35-.26.53-.26s.26.12.26.35Zm-9.67-6.78c0-.59-.21-.88-.62-.88-.53 0-1.09.47-1.67 1.41-.59.94-.88 2.14-.88 3.61 0 1.23.26 2.26.79 3.08 1.58-2.46 2.38-4.87 2.38-7.22m44.08 6.78c0 .24-.44.7-1.32 1.41-2.35 1.53-4.66 3.05-6.95 4.58-3.34 1.99-6.07 2.99-8.18 2.99-1.23 0-2.32-.44-3.26-1.32s-1.41-1.88-1.41-2.99c0-3.87 1.88-7.42 5.63-10.65 3.34-2.87 6.45-4.31 9.33-4.31 1.82 0 2.73.73 2.73 2.2 0 .82-1.2 2.44-3.61 4.84-.24.23-.5.35-.79.35-.47 0-.7-.26-.7-.79 0-.23.09-.43.26-.57.18-.15.53-.79 1.06-1.94.53-1.14.79-2.01.79-2.6 0-.18-.21-.26-.62-.26-1.47 0-3.61 1.2-6.42 3.61-3.4 2.88-5.1 5.84-5.1 8.89 0 2.23.97 3.34 2.9 3.34 2.99 0 7.54-2.02 13.64-6.07.29-.23.7-.5 1.23-.79.18-.18.35-.26.53-.26s.26.12.26.35Z" class="st0"/><path d="M188.81 170.58q0 1.05-5.46 4.05c-3.81 2.11-6.54 3.17-8.18 3.17-3.05 0-4.58-1.61-4.58-4.84 0-.88.47-1.88 1.41-2.99q0-.09-.09-.09c.06 0-1.53 1.22-4.75 3.65-3.23 2.44-5.54 3.65-6.95 3.65s-2.02-.56-2.02-1.67q0-4.05 6.78-9.42c4.28-3.46 7.63-5.19 10.03-5.19.35.06.75.25 1.19.57q.66.48.66.75 0 .09-.09.18c-3.29 0-7.48 2.55-12.58 7.66q-2.46 2.46-2.46 4.14c0 .41.21.62.62.62 1.29 0 3.75-1.5 7.39-4.49 2.93-2.46 5.02-4.43 6.25-5.9.59-.7 1-1.06 1.23-1.06.59 0 .88.41.88 1.23 0 .29-.38.97-1.14 2.02q-3.78 5.19-3.78 6.6 0 2.46 2.73 2.46c2.99 0 7.04-1.73 12.14-5.19.18-.18.35-.26.53-.26s.26.12.26.35Z" class="st0"/><path d="M211.78 168.55c.71-.82 1.6-1.88 2.69-3.17 1.08-1.29 2.1-2.52 3.04-3.7.53-.35 1.06-.44 1.58-.26.53.18.67.41.44.7-1.76 2.64-3.05 4.99-3.87 7.04s-1.23 3.49-1.23 4.31c0 1.47.67 2.2 2.02 2.2 2.05 0 5.78-1.85 11.18-5.54.12-.12.39-.32.84-.62.44-.29.75-.44.92-.44s.26.12.26.35q0 .525-1.32 1.41c-7.28 4.87-12.14 7.3-14.61 7.3q-2.46 0-2.46-2.82c0-.59.07-1.22.22-1.89.14-.67.32-1.28.53-1.8.21-.53.38-.97.53-1.32s.22-.5.22-.44c0-.23-.09-.35-.26-.35-.41.47-1.06 1.14-1.94 2.02q-1.32 1.32-2.82 2.64c-1 .88-2 1.63-2.99 2.24-1 .62-1.79.89-2.38.84q-1.05-.09-1.32-.75c-.27-.66-.18-.98 0-1.63s.47-1.35.88-2.11.85-1.5 1.32-2.2c.12-.18.32-.51.62-1.01.29-.5.57-.98.84-1.45q.405-.705.57-1.14.18-.435-.18-.18-.09-.18-.66.48c-.38.44-.89 1.01-1.54 1.72-.65.7-1.39 1.45-2.24 2.24s-1.8 1.51-2.86 2.16c-.76.47-1.56.95-2.38 1.45s-1.63.94-2.42 1.32-1.58.69-2.38.92c-.79.23-1.57.32-2.33.26-.82-.06-1.57-.25-2.24-.57s-1.01-1.04-1.01-2.16c0-.64.16-1.2.48-1.67s.66-.7 1.01-.7c.29 0 .53.15.7.44.18.29.38.63.62 1.01.23.38.5.72.79 1.01s.7.44 1.23.44h.53c.47 0 1.61-.41 3.43-1.23 3.23-1.52 5.94-3.4 8.14-5.63q3.3-3.345 5.94-6.78c.88-.88 1.53-1.32 1.94-1.32.18 0 .4.07.66.22s.44.4.53.75 0 .84-.27 1.45c-.26.62-.78 1.39-1.54 2.33-.47.47-1.01 1.17-1.63 2.11s-1.23 1.94-1.85 2.99c-.62 1.06-1.17 2.05-1.67 2.99s-.84 1.61-1.01 2.02c.06.47.45.5 1.19.09.73-.41 1.58-1 2.55-1.76s1.92-1.6 2.86-2.51 1.64-1.69 2.11-2.33Z" class="st0"/><path d="M252.7 170.58c0 .24-.29.59-.88 1.06-2.58 2.17-5.19 3.26-7.83 3.26-1.64 0-3.05-.44-4.22-1.32-2.7 3.52-5.63 5.28-8.8 5.28-2.35 0-3.52-1.47-3.52-4.4 0-3.81 1.88-7.66 5.63-11.53 3.17-3.23 5.48-4.84 6.95-4.84.94 0 1.41.29 1.41.88 0 .18-.18.41-.53.7-1.41.29-3.32 1.79-5.72 4.49-2.93 3.29-4.4 6.45-4.4 9.5 0 2 .7 2.99 2.11 2.99 2.05 0 4.14-1.2 6.25-3.61-1.11-1.23-1.67-2.76-1.67-4.58 0-2.11.53-3.93 1.58-5.46.94-1.29 1.94-1.94 2.99-1.94s1.67.73 1.85 2.2c0 2.58-.91 5.37-2.73 8.36 1 1.11 2.35 1.67 4.05 1.67q3.435 0 6.69-2.82c.18-.18.35-.26.53-.26s.26.12.26.35Zm-9.68-6.78c0-.59-.21-.88-.62-.88-.53 0-1.09.47-1.67 1.41-.59.94-.88 2.14-.88 3.61 0 1.23.26 2.26.79 3.08 1.58-2.46 2.38-4.87 2.38-7.22" class="st0"/><path d="M273.38 170.58c0 .41-1.2 1.38-3.61 2.9-5.93 3.76-10.18 5.63-12.76 5.63-3.81 0-5.72-2.23-5.72-6.69 0-3.29 1.6-6.58 4.8-9.9 3.2-3.31 6.23-4.97 9.11-4.97q1.32 0 1.32 1.23c0 2-1.73 4.81-5.19 8.45-2.76 2.88-5.02 4.84-6.78 5.9.18 2.58 1.41 3.87 3.7 3.87 2.17 0 5.81-1.47 10.91-4.4.41-.23 1.55-.94 3.43-2.11.18-.18.35-.26.53-.26s.26.12.26.35m-9.6-10.12c0-.7-.21-1.06-.62-1.06-1.47 0-3.26 1.47-5.37 4.4s-3.2 5.57-3.26 7.92c1.11-.35 2.87-1.88 5.28-4.58q3.96-4.395 3.96-6.69Zm21.12 15.48c0 .65-.35 1.26-1.06 1.85-.7.59-1.32.88-1.85.88-1.12 0-1.73-.59-1.85-1.76 0-.82.32-1.47.97-1.94s1.26-.7 1.85-.7c1.29 0 1.94.56 1.94 1.67m29.22-44.61q0 5.1-7.68 10.65c-4.77 3.11-9.53 6.25-14.3 9.42-5.12 3.76-7.68 7.45-7.68 11.09 0 3.29 1.23 5.13 3.7 5.54 0 1.06-.47 1.58-1.41 1.58q-2.115 0-3.48-1.32c-.91-.88-1.36-2.05-1.36-3.52 0-4.69 2.48-9.03 7.46-13.02q6.93-4.485 13.95-9.06c4.97-3.4 7.46-6.75 7.46-10.03 0-2.29-.8-4.14-2.41-5.54-1.61-1.41-3.87-2.11-6.79-2.11q-5.7 0-10.35 4.05c-3.39 2.99-5.09 6.63-5.09 10.91l.18 1.14c0 .59-.41.88-1.23.88-.88 0-1.32-.7-1.32-2.11 0-4.46 2.43-8.51 7.3-12.14 4.52-3.29 9-4.93 13.46-4.93 2.99 0 5.34.78 7.04 2.33 1.7 1.56 2.55 3.62 2.55 6.2Zm-283.38 4.74c0 .1-.07.15-.22.15q-1.23-.09-6.03-.09c-.79 0-1.36-.15-1.69-.44-.34-.29-.57-.66-.68-1.1l-1.36-3.83c-.44-1.29-.87-2.28-1.28-2.97a3.85 3.85 0 0 0-1.61-1.52c-.66-.32-1.55-.48-2.66-.48h-.4v5.76c0 1.56.23 2.66.68 3.3.45.65 1.17.97 2.13.97.15 0 .22.06.22.18s-.07.18-.22.18c-.44-.03-1.35-.04-2.73-.04H9.65c-1.38 0-2.3.01-2.77.04-.15 0-.22-.06-.22-.18s.07-.18.22-.18c.97 0 1.69-.32 2.16-.97s.7-1.75.7-3.3v-10.87c0-1.55-.23-2.65-.7-3.3-.47-.64-1.19-.97-2.16-.97-.15 0-.22-.06-.22-.18s.07-.18.22-.18l2.77.04h5.24l2.73-.04c.15 0 .22.06.22.18s-.07.18-.22.18c-.97 0-1.68.32-2.13.97-.46.65-.68 1.75-.68 3.3v4.84h.4c2.08 0 3.67-.33 4.75-.99s2.07-1.8 2.95-3.41l.44-.84c.5-.91.75-1.69.75-2.33 0-1.06-.7-1.58-2.11-1.58-.15 0-.22-.06-.22-.18s.07-.18.22-.18l2.73.04h1.06l2.73-.04c.15 0 .22.06.22.18s-.07.18-.22.18c-.91 0-1.66.27-2.24.81-.59.54-1.32 1.55-2.2 3.01l-.66 1.14c-.73 1.23-1.52 2.18-2.35 2.84-.84.66-1.87 1.11-3.1 1.34 2.23.03 3.97.42 5.24 1.17 1.26.75 2.29 2.05 3.08 3.89l.66 1.58c.62 1.44 1.16 2.41 1.63 2.93.47.51 1.13.79 1.98.81.15 0 .22.05.22.15Zm23.68-7.68c.09 0 .13.07.13.22 0 2.23-.48 4.14-1.43 5.72s-2.19 2.38-3.72 2.38c-1.12 0-2.05-.37-2.82-1.12-.76-.75-1.19-1.87-1.28-3.37-.7 1.47-1.64 2.6-2.79 3.39-1.16.79-2.43 1.19-3.81 1.19-2.32 0-4.03-.65-5.15-1.96s-1.67-2.82-1.67-4.55.77-3.06 2.31-4.09 3.47-1.54 5.79-1.54c.79 0 1.68.07 2.66.22s1.87.34 2.66.57v-1.94c0-4.52-1.97-6.78-5.9-6.78-1.61 0-2.99.53-4.11 1.58-1.13 1.06-1.69 2.64-1.69 4.75 0 .12-.03.21-.09.26s-.12.09-.18.09c-.12 0-.18-.12-.18-.35q0-2.46 1.23-4.2a7.77 7.77 0 0 1 3.17-2.62c1.29-.59 2.65-.88 4.09-.88 5.81 0 8.71 2.71 8.71 8.14v7.22c0 1.94.5 2.9 1.5 2.9s1.6-.43 1.89-1.3c.29-.86.47-2.1.53-3.72 0-.15.04-.22.13-.22Zm-9.11.66v-.26c-.32-1.06-.94-1.9-1.85-2.53s-1.91-.95-2.99-.95c-2.9 0-4.36 1.12-4.36 3.34 0 1.5.42 2.81 1.28 3.94.85 1.13 2.05 1.69 3.61 1.69 2.87 0 4.31-1.74 4.31-5.24Z" class="st0"/><path d="M78.39 136.07c0 .1-.07.15-.22.15q-1.23-.09-6.03-.09c-.79 0-1.36-.15-1.69-.44-.34-.29-.56-.66-.68-1.1l-1.36-3.83c-.44-1.29-.87-2.28-1.28-2.97a3.85 3.85 0 0 0-1.61-1.52c-.66-.32-1.55-.48-2.66-.48h-.4v5.76c0 1.56.23 2.66.68 3.3.45.65 1.17.97 2.13.97.15 0 .22.06.22.18s-.07.18-.22.18c-.44-.03-1.35-.04-2.73-.04H57.3c-1.38 0-2.3.01-2.77.04-.15 0-.22-.06-.22-.18s.07-.18.22-.18c.97 0 1.69-.32 2.16-.97s.7-1.75.7-3.3v-10.87c0-1.55-.24-2.65-.7-3.3-.47-.64-1.19-.97-2.16-.97-.15 0-.22-.06-.22-.18s.07-.18.22-.18l2.77.04h5.24l2.73-.04c.15 0 .22.06.22.18s-.07.18-.22.18c-.97 0-1.68.32-2.13.97-.46.65-.68 1.75-.68 3.3v4.84h.4c2.08 0 3.67-.33 4.75-.99s2.07-1.8 2.95-3.41l.44-.84c.5-.91.75-1.69.75-2.33 0-1.06-.7-1.58-2.11-1.58-.15 0-.22-.06-.22-.18s.07-.18.22-.18l2.73.04h1.06l2.73-.04c.15 0 .22.06.22.18s-.07.18-.22.18c-.91 0-1.66.27-2.24.81-.59.54-1.32 1.55-2.2 3.01l-.66 1.14c-.73 1.23-1.52 2.18-2.35 2.84-.84.66-1.87 1.11-3.1 1.34 2.23.03 3.97.42 5.24 1.17 1.26.75 2.29 2.05 3.08 3.89l.66 1.58c.62 1.44 1.16 2.41 1.63 2.93.47.51 1.13.79 1.98.81.15 0 .22.05.22.15Zm11.18.06c-.15 0-.22-.06-.22-.18s.07-.18.22-.18c1 .03 1.72-.28 2.18-.92.45-.65.68-1.75.68-3.3v-10.87c0-1.55-.23-2.65-.68-3.3-.46-.64-1.17-.97-2.13-.97-.15 0-.22-.06-.22-.18s.07-.18.22-.18q1.32.09 2.73.09c3.7-.09 7.05-.13 10.08-.13 2.32 0 4.12.39 5.41 1.17s1.94 1.97 1.94 3.59c0 1.06-.45 2-1.34 2.84-.9.84-2 1.33-3.32 1.47 1.7.09 3.12.59 4.27 1.5 1.14.91 1.72 2.16 1.72 3.74 0 1.85-.73 3.3-2.18 4.36s-3.45 1.58-6.01 1.58l-10.56-.18-2.77.04Zm11.75-11.26c1.5-.18 2.57-.58 3.21-1.21s.97-1.61.97-2.93c0-1.44-.37-2.51-1.12-3.21s-1.69-1.07-2.84-1.1l-3.12-.13h-.13c-.29 0-.48.07-.57.22s-.13.41-.13.79v17.34q0 .795.24 1.08c.16.19.48.29.95.29l2.77-.04c1.5 0 2.66-.43 3.5-1.3.84-.86 1.25-2.15 1.25-3.85s-.37-3.06-1.12-3.98q-1.125-1.38-3.72-1.47l-1.5-.04c-.12 0-.18-.04-.18-.13s.04-.15.13-.18l1.41-.13Zm23.41-.22c6.01-.09 9.02 1.75 9.02 5.5 0 1.94-.7 3.42-2.11 4.44-1.41 1.03-3.51 1.54-6.29 1.54h-9.24c-1.38 0-2.3.01-2.77.04-.15 0-.22-.06-.22-.18s.07-.18.22-.18c.97 0 1.69-.32 2.16-.97s.7-1.75.7-3.3v-10.91c0-1.55-.24-2.65-.7-3.3-.47-.65-1.19-.97-2.16-.97-.15 0-.22-.06-.22-.18s.07-.18.22-.18l2.77.04h5.24l2.73-.04c.15 0 .22.06.22.18s-.07.18-.22.18c-.97 0-1.68.32-2.13.97-.46.65-.68 1.75-.68 3.3v3.56c0 .32.13.48.4.48l3.08-.04Zm-.71 11.13c1.41-.03 2.5-.54 3.28-1.54s1.17-2.33 1.17-4-.4-2.93-1.19-3.85-1.94-1.37-3.43-1.34l-2.2.04c-.26 0-.4.16-.4.48v9.06c0 .47.06.79.18.95s.35.24.7.24zm20.37.22c0 .12-.07.18-.22.18-.47-.03-1.38-.04-2.73-.04h-5.24c-1.38 0-2.3.01-2.77.04q-.18 0-.18-.18c0-.18.06-.18.18-.18 1 0 1.72-.32 2.18-.97s.68-1.75.68-3.3v-11.04c0-1.55-.23-2.65-.68-3.3-.46-.65-1.18-.97-2.18-.97q-.18 0-.18-.18c0-.18.06-.18.18-.18l2.77.04h5.24l2.73-.04c.15 0 .22.06.22.18s-.07.18-.22.18c-.97 0-1.68.32-2.13.97-.46.65-.68 1.75-.68 3.3v11.04c0 1.56.23 2.66.68 3.3.45.65 1.17.97 2.13.97.15 0 .22.06.22.18m20.44-18.37c1.66.87 2.96 2.05 3.92 3.54s1.43 3.2 1.43 5.1-.54 3.71-1.61 5.32-2.54 2.89-4.4 3.83-3.91 1.41-6.14 1.41c-2 0-3.79-.4-5.39-1.19s-2.87-1.91-3.81-3.34c-.94-1.44-1.44-3.08-1.5-4.93v-2.24c0-3.75.62-6.92 1.85-9.5s2.84-4.55 4.82-5.9q2.97-2.025 6.45-2.46c2.11-.29 3.7-.58 4.75-.86 1.06-.28 1.75-.57 2.09-.88s.51-.68.51-1.12c0-.15.05-.22.15-.22s.17.07.2.22c.06.47.09.84.09 1.1 0 1.44-.48 2.72-1.43 3.85q-1.425 1.695-5.04 2.31c-1.47.26-3.12.51-4.97.75-1.76.23-3.03.44-3.81.62s-1.43.47-1.96.88c-.62.41-1.07 1.04-1.36 1.89s-.44 2.02-.44 3.52c0 .79.01 1.42.04 1.89 1.08-1.5 2.51-2.68 4.27-3.56s3.65-1.32 5.68-1.32 3.95.43 5.61 1.3Zm-.44 16.79c.95-.97 1.43-2.42 1.43-4.36 0-1.64-.43-3.48-1.3-5.5s-1.98-3.75-3.34-5.17-2.75-2.13-4.16-2.13c-1.7 0-3.03.48-3.98 1.43s-1.43 2.41-1.43 4.38c0 1.61.43 3.44 1.3 5.48s1.97 3.77 3.32 5.19 2.71 2.13 4.09 2.13c1.76 0 3.12-.48 4.07-1.45m27.5-17.8c1.28.84 2.3 2.04 3.08 3.61q1.17 2.355 1.17 5.43c0 1.94-.45 3.76-1.34 5.48-.9 1.72-2.11 3.09-3.65 4.11s-3.22 1.54-5.04 1.54c-1.12 0-2.04-.15-2.77-.44s-1.42-.66-2.07-1.1c-.44-.29-.73-.44-.88-.44-.26 0-.4.25-.4.75v4.84c0 1.55.21 2.65.64 3.28.42.63 1.08.98 1.96 1.03.15 0 .22.05.22.15s-.07.15-.22.15c-1.23-.06-2.76-.09-4.58-.09-2.32 0-4.21.03-5.68.09-.15 0-.22-.06-.22-.18s.07-.18.22-.18c.88.03 1.53-.28 1.96-.92.43-.65.64-1.77.64-3.39v-18.66c0-1.11-.14-1.93-.42-2.44s-.8-.77-1.56-.77q-.225 0-.75.09c-.12.03-.18 0-.2-.11-.02-.1.02-.17.11-.2 1.38-.32 2.79-.75 4.25-1.28 1.45-.53 2.63-1.1 3.54-1.72.15-.09.27-.12.37-.09s.14.12.11.26c-.18 1.53-.28 2.82-.31 3.87 0 .35.02.68.07.99s.11.45.2.42c.79-1.58 1.77-2.87 2.95-3.87 1.17-1 2.64-1.5 4.4-1.5 1.52 0 2.93.42 4.2 1.25Zm-1.36 17.93c.84-1.06 1.25-2.6 1.25-4.62s-.34-3.86-1.01-5.68-1.58-3.29-2.71-4.4-2.35-1.67-3.67-1.67-2.38.56-3.19 1.67-1.21 2.61-1.21 4.49v2.95c0 2.55.58 4.66 1.74 6.34 1.16 1.67 2.73 2.51 4.73 2.51 1.88 0 3.23-.53 4.07-1.58Zm30.16-6.16c.09 0 .13.07.13.22 0 2.23-.48 4.14-1.43 5.72s-2.19 2.38-3.72 2.38c-1.12 0-2.05-.37-2.82-1.12s-1.19-1.87-1.28-3.37q-1.05 2.205-2.79 3.39c-1.74 1.185-2.43 1.19-3.81 1.19-2.32 0-4.03-.65-5.15-1.96-1.11-1.31-1.67-2.82-1.67-4.55s.77-3.06 2.31-4.09 3.47-1.54 5.79-1.54c.79 0 1.68.07 2.66.22s1.87.34 2.66.57v-1.94c0-4.52-1.96-6.78-5.9-6.78-1.61 0-2.99.53-4.11 1.58-1.13 1.06-1.69 2.64-1.69 4.75 0 .12-.03.21-.09.26q-.09.09-.18.09c-.12 0-.18-.12-.18-.35q0-2.46 1.23-4.2a7.77 7.77 0 0 1 3.17-2.62c1.29-.59 2.65-.88 4.09-.88 5.81 0 8.71 2.71 8.71 8.14v7.22c0 1.94.5 2.9 1.5 2.9s1.6-.43 1.89-1.3c.29-.86.47-2.1.53-3.72 0-.15.04-.22.13-.22Zm-9.11.66v-.26c-.32-1.06-.94-1.9-1.85-2.53s-1.91-.95-2.99-.95c-2.9 0-4.36 1.12-4.36 3.34 0 1.5.42 2.81 1.28 3.94.85 1.13 2.05 1.69 3.61 1.69 2.87 0 4.31-1.74 4.31-5.24Zm29.44-5.19q-.135 0-.18-.18c-1.09-4.08-2.29-6.35-3.61-6.82-.26-.21-1.29-.31-3.08-.31-.18 0-.32.1-.44.29s-.18.43-.18.73v13.99c0 1.56.23 2.66.68 3.3.45.65 1.17.97 2.13.97.15 0 .22.06.22.18s-.07.18-.22.18c-.44-.03-1.35-.04-2.73-.04h-5.24c-1.38 0-2.29.01-2.73.04-.15 0-.22-.06-.22-.18s.07-.18.22-.18c.97 0 1.68-.32 2.13-.97s.68-1.75.68-3.3v-13.99c0-.29-.06-.54-.18-.73s-.26-.29-.44-.29c-1.79 0-2.82.1-3.08.31-1.32.47-2.52 2.74-3.61 6.82q-.045.18-.18.18c-.135 0-.12-.06-.09-.18.35-2.61.53-5 .53-7.17 0-.47.19-.7.57-.7.18 0 .68.06 1.52.18s2.49.18 4.95.18h5.06c2.38 0 4-.06 4.88-.18s1.42-.18 1.63-.18c.35 0 .53.24.53.7 0 2.17.18 4.56.53 7.17q.045.18-.09.18Zm13.81.79c6.01-.09 9.02 1.75 9.02 5.5 0 1.94-.7 3.42-2.11 4.44-1.41 1.03-3.51 1.54-6.29 1.54h-9.24c-1.38 0-2.3.01-2.77.04-.15 0-.22-.06-.22-.18s.07-.18.22-.18c.97 0 1.69-.32 2.16-.97s.7-1.75.7-3.3v-10.91c0-1.55-.24-2.65-.7-3.3-.47-.65-1.19-.97-2.16-.97-.15 0-.22-.06-.22-.18s.07-.18.22-.18l2.77.04h5.24l2.73-.04c.15 0 .22.06.22.18s-.07.18-.22.18c-.97 0-1.68.32-2.13.97-.46.65-.68 1.75-.68 3.3v3.56c0 .32.13.48.4.48l3.08-.04Zm-.7 11.13c1.41-.03 2.5-.54 3.28-1.54s1.17-2.33 1.17-4-.4-2.93-1.19-3.85-1.94-1.37-3.43-1.34l-2.2.04c-.26 0-.4.16-.4.48v9.06c0 .47.06.79.18.95s.35.24.7.24z" class="st0"/><path d="M89.35 35.27c.84 3.43 4.11 6 4.67 9.63.93 6.09-3.22 11.23-2.42 17.36.37 2.97 1.5 3.47 4.24 4.3 7.57 2.27 10.64-2.98 17.29-4.28 4.88-.76 9.83-.91 14.74-.44 4.88.92 9.31 7.9 9.31 12.72 3.68-.95 7.57-.52 10.96 1.2 1.97.94 3.68 2.9 5.87 3.1 3.12.02 6.19-.75 8.94-2.22.52-.35 1.77-2.66 2.83-1.65.2.9.33 1.82.4 2.74 0 1.33-1.14 2.35-1.25 3.66 1.97.64 5.59-1.52 6.53.56 1.14 2.5-7.76 5.65-9.74 5.84-5.84.57-11.76-2.01-16.87-4.47-2.66-1.33-4.86-3.55-8.27-3.67-1.45 3.21-2.33 6.41-5.81 7.98-1.44.48-2.92.84-4.42 1.06a9.7 9.7 0 0 1-1.8-3.38c-.35-2.42 3.14-8.06 5.32-8.83 1.06-.37 1.78.88 1.72-.37-.16-2.97-4.12-7.92-6.96-8.85-3.61-1.2-4.98.71-7.89 1.7-10.24 3.49-27.3 10.51-32.77-3.33-3.99-9.96 4.9-19.02 3.19-29.03-7.38 10.03-18.11 18.37-24.68 28.91-5.32 8.58-6.32 17.01-19.1 15.96-4.31-.36-8.09-3.05-10.88-6.2-3.46-3.88-3.01-6.31-8.86-8.21-3.15-.93-6.44-1.26-9.71-.98-2.08.24-3.91 3.1-6.16 1.49-4.34-3.11 5.32-5.89 5.77-6.59.25-.35-.48-1.33-.24-1.72 1.04-.38 2.1-.67 3.19-.86 4.99-.48 14.71 3.37 18.37 6.82 2.79 2.66 3.65 6.2 8.14 6.8 7.98 1.05 16.66-8.75 20.51-14.85 1.46-2.33 2.22-4.84 3.99-7.09 2.66-3.42 7.25-5.92 9.82-9.62-9.78 2.91-24.49 10.72-33.51 2.13-4.38-4.16-2.57-14.22 2.37-17.69 3.67-2.57 18.21-4.51 22.76-3.99a71 71 0 0 1 16.95 5.69c.97.56 2.97 2.94 3.79 2.35.57-1.16 1.31-2.22 2.2-3.15 4.87-4.14 18.5-14.11 24.2-15.96 14.15-4.5 16.15 11.56 13.04 21.58-3.99 12.81-12.17 13.69-24.04 10.55-5.2-1.48-11.33-3.63-15.75-6.7Zm24.55 3.4c-2.12.2-4.47-.13-6.65 0l4.48 1.33c6.17.52 8.86-.12 12.08-5.41a22.6 22.6 0 0 0 3.31-15.96c-.84-4.08-5.75-8.21-9.91-5.6l-4.42 2.57c9.92-1.8 15.96.17 13.38 11.45-1.17 5.07-3.17 9.68-8.66 10.99-1.19.28-2.4.49-3.62.64Zm-22.84-5.54c7.01 1 13.99 2.66 21.15 2.16 2.58-.17 5.32-.35 7.2-2.2s6.04-11.19 3.66-13.38c-2.77-2.55-7.21-1.52-10.24 0-2.26 1.09-7.14 5.21-8.85 5.68-1.29.5-2.74-.14-3.24-1.43l-.06-.18c-3.74 2.81-9.72 3.54-9.62 9.35m-8.12-4.7c-5.21-1.17-10.79-4.92-16.06-5.51-3.49-.39-14.55 1.1-17.55 2.86-4.11 2.41-6.74 9.75-3.09 13.5 1.33 1.42 6.33 3.38 8.34 3.62 7.24.84 14.81-3.68 21.84-4.96l3.51-1.33c-7.7 1.16-14.41 4.14-22.4 3.41-9.83-.89-8.82-10.03-.41-12.77 9.19-3.01 15.78-.49 24.52 1.49.43.03 1.38.51 1.29-.31Zm1.72 3.85c-8.37-1.33-21.03-6.65-28.76-1.21-3.66 2.55-3.15 4.54 1 5.71 5.87 1.64 16.43-1.17 22.62-2.66 1.49-.36 4.02-.78 5.15-1.84ZM68.89 53.2c4.15-4.3 9.43-8.51 13.24-13.02.4-.48 1.04-.69.85-1.5L70.59 50.41zm18.79 5.97c.21-5.88 4.87-10.92 2.99-17.08l-3.37 13.5.37 3.58Zm-29.47 8.97-5.15 3.59a20 20 0 0 1-8.77 3.19c-8.69.72-8.69-6.53-15.09-10a64.5 64.5 0 0 0-9.21-3.62c-1.13-.17.17 1.89-1.06 2.35 3.48.45 6.84 1.59 9.88 3.35 1.78 1.21 2.97 3.79 4.42 5.4 8.93 10.11 20.74 9.55 24.93-4.27h.04Zm39.72 2.99a10.9 10.9 0 0 1-8.1-4.07l-2.14-3.19c1.17 5.11 3.67 7.98 9.18 7.9.33-.01 1.14-.07 1.02-.64zm18.79-7.26c-3.9.16-7.58 1.85-10.24 4.7l5.4-2.06 4.84-2.63Zm15.79 5.12a6.42 6.42 0 0 0-5.97-5.12zm23.7 16.66c2.16.29 4.83-.21 7.05 0 .11-.67-.88-.49-1.33-.57-1.93-.28-4.12.59-3.33-2.41-6.65 2.57-9.95-4.98-15.96-5.57l-4.07.44c4.51.53 7.5 4.27 11.67 6.05 1.92.85 3.9 1.54 5.93 2.06z" style="fill:#681f2a"/></svg>