<svg xmlns="http://www.w3.org/2000/svg" width="60" height="60" fill="none" viewBox="0 0 60 60"><path fill="#681f2a" d="M42.228 23.531c-.375 1.594-3.75 6.375-3.75 6.375-.281.469-.422.703 0 1.219.188.234 3.703 3.61 4.219 5.203.234.797-.14 1.172-.938 1.172h-2.765c-1.032 0-1.36-.797-3.235-2.672C34.12 33.234 33.416 33 32.994 33c-.844 0-.703.328-.703 3.469 0 .656-.235 1.031-1.97 1.031-2.905 0-6.14-1.734-8.437-5.016-3.422-4.828-4.359-8.437-4.359-9.187 0-.422.188-.797.938-.797h2.765c.703 0 .984.328 1.266 1.078 1.36 3.938 3.61 7.406 4.547 7.406.375 0 .515-.187.515-1.078v-4.078c-.094-1.875-1.078-2.015-1.078-2.672 0-.328.234-.656.703-.656h4.313c.61 0 .797.328.797 1.031v5.485c0 .562.28.797.422.797.374 0 .656-.235 1.312-.844 1.969-2.25 3.375-5.672 3.375-5.672.188-.422.516-.797 1.219-.797h2.765c.844 0 .985.469.844 1.031"/></svg>