<svg xmlns="http://www.w3.org/2000/svg" width="60" height="60" fill="none" viewBox="0 0 60 60"><path fill="#681f2a" d="M30.167 24.17c3.249 0 5.93 2.682 5.93 5.93a5.93 5.93 0 0 1-5.93 5.93c-3.3 0-5.93-2.63-5.93-5.93a5.93 5.93 0 0 1 5.93-5.93m0 9.797c2.114 0 3.816-1.701 3.816-3.867a3.807 3.807 0 0 0-3.816-3.816c-2.166 0-3.867 1.702-3.867 3.816a3.86 3.86 0 0 0 3.867 3.867m7.528-10.003c0 .774-.618 1.392-1.392 1.392a1.386 1.386 0 0 1-1.392-1.392c0-.773.619-1.392 1.392-1.392.774 0 1.392.619 1.392 1.392m3.919 1.392c.103 1.908.103 7.631 0 9.54-.103 1.856-.516 3.454-1.856 4.846-1.34 1.34-2.99 1.753-4.847 1.856-1.908.104-7.631.104-9.54 0-1.855-.103-3.454-.515-4.846-1.856-1.34-1.392-1.753-2.99-1.856-4.847-.103-1.908-.103-7.63 0-9.539.103-1.856.515-3.506 1.856-4.847 1.392-1.34 2.99-1.753 4.847-1.856 1.908-.103 7.631-.103 9.539 0 1.856.103 3.506.516 4.847 1.856 1.34 1.341 1.753 2.991 1.856 4.847m-2.475 11.55c.619-1.495.464-5.104.464-6.806 0-1.65.155-5.26-.464-6.806-.413-.98-1.186-1.805-2.166-2.166-1.547-.619-5.156-.464-6.806-.464-1.701 0-5.31-.155-6.806.464a3.98 3.98 0 0 0-2.217 2.166c-.619 1.547-.464 5.156-.464 6.806 0 1.702-.155 5.31.464 6.806a3.9 3.9 0 0 0 2.217 2.217c1.495.62 5.105.465 6.806.465 1.65 0 5.26.154 6.806-.465.98-.412 1.805-1.185 2.166-2.217"/></svg>