<svg xmlns="http://www.w3.org/2000/svg" id="Layer_2" viewBox="0 0 553.53 136.85"><defs><style>.st0{fill:#181818}</style></defs><path d="M46.72 15.06c0 5.93-2.85 13.26-8.54 22-4.4 6.81-9.86 13.49-16.37 20.06-5.75 5.87-9.27 8.8-10.56 8.8.18 5.52 1.91 8.27 5.19 8.27 2.52 0 5.25-1.08 8.18-3.26-.59-1.06-.88-2.2-.88-3.43 0-3.99 1.29-5.98 3.87-5.98 1.06 0 1.67.73 1.85 2.2 0 2.05-.88 4.11-2.64 6.16 1 1.64 2.55 2.46 4.66 2.46q3.435 0 6.69-2.82c.18-.18.35-.26.53-.26s.26.12.26.35-.29.59-.88 1.06c-2.58 2.17-5.19 3.26-7.83 3.26-2.17 0-3.9-.73-5.19-2.2-3.46 3.17-6.83 4.75-10.12 4.75-1.94 0-3.54-.81-4.8-2.42q-1.89-2.415-1.89-5.85c0-6.51 2.29-14.4 6.86-23.67 4.16-8.45 9.12-15.94 14.87-22.48s10.38-9.81 13.9-9.81q2.82 0 2.82 2.82Zm-2.56 1.32c0-1.35-.53-2.02-1.58-2.02-2.76 0-6.72 3.32-11.88 9.94q-7.305 9.33-13.11 21.03c-4.11 8.21-6.16 14.4-6.16 18.57 0 .24.06.35.18.35 1.11 0 4.34-2.87 9.68-8.62 5.93-6.34 10.94-12.73 15.05-19.18 5.22-8.21 7.83-14.9 7.83-20.06ZM28.59 64.25c0-.59-.21-.88-.62-.88-1.23 0-1.85 1.2-1.85 3.61 0 .82.12 1.56.35 2.2 1.41-1.58 2.11-3.23 2.11-4.93Zm78.93 5.37q0 .525-1.32 1.41c-4.17 2.82-6.48 4.37-6.95 4.66-2.64 1.58-4.84 2.38-6.6 2.38-1 0-1.83-.35-2.51-1.06-.68-.7-1.01-1.55-1.01-2.55 0-2.93 1.88-7.13 5.63-12.58.29-.41.44-.67.44-.79q0-.09-.09-.09c-.23 0-.65.21-1.23.62-3.29 2.46-6.92 5.19-10.91 8.18-1.7 1.47-4.19 3.52-7.48 6.16-.47.35-1.12.67-1.94.97-.41 0-.62-.29-.62-.88 0-1.17.98-3.06 2.95-5.68 1.96-2.61 2.95-4.44 2.95-5.5q0-1.5-1.41-1.5c-1.41 0-4.22 1.91-8.45 5.72-2.88 2.58-5.4 5.07-7.57 7.48-.82.88-1.47 1.32-1.94 1.32q-1.14 0-1.14-1.23c0-.24.2-.82.62-1.76a347 347 0 0 0 4.14-5.81c2.05-2.93 3.08-5.02 3.08-6.25 0-.53-.18-.79-.53-.79-.18 0-.53.12-1.06.35-2.99 2.23-7.25 5.4-12.76 9.5h-.62c-.41 0-.62-.06-.62-.18 0-.18.32-.47.97-.88 4.11-3.23 8.65-6.72 13.64-10.47.7-.59 1.61-.88 2.73-.88 1.17 0 1.76.53 1.76 1.58 0 .24-.06.59-.18 1.06-1.17 2.05-2.67 4.66-4.49 7.83-.24.41-.35.68-.35.79q0 .09.18.09l.26-.09c2.17-1.88 4.34-3.75 6.51-5.63 3.34-2.82 5.75-4.22 7.22-4.22 1.94 0 2.9.62 2.9 1.85 0 1.06-.57 2.65-1.72 4.8-1.14 2.14-1.72 3.3-1.72 3.48s.06.26.18.26c.23 0 .65-.2 1.23-.62l18.3-13.82c.59-.47 1.2-.7 1.85-.7.41 0 .7.07.88.22s.26.4.26.75c0 .41-.12.76-.35 1.06-1.64 2.35-3.31 4.72-5.02 7.13-2 3.05-2.99 5.69-2.99 7.92 0 1.41.76 2.08 2.29 2.02 1.82-.06 3.87-.79 6.16-2.2 1.88-1.17 3.75-2.35 5.63-3.52.18-.18.35-.26.53-.26s.26.12.26.35Z" class="st0"/><path d="M145.1 15.06c0 5.93-2.85 13.26-8.54 22-4.4 6.81-9.86 13.49-16.37 20.06-5.75 5.87-9.27 8.8-10.56 8.8.18 5.52 1.91 8.27 5.19 8.27 2.52 0 5.25-1.08 8.18-3.26-.59-1.06-.88-2.2-.88-3.43 0-3.99 1.29-5.98 3.87-5.98 1.06 0 1.67.73 1.85 2.2 0 2.05-.88 4.11-2.64 6.16 1 1.64 2.55 2.46 4.66 2.46q3.435 0 6.69-2.82c.18-.18.35-.26.53-.26s.26.12.26.35-.29.59-.88 1.06c-2.58 2.17-5.19 3.26-7.83 3.26-2.17 0-3.9-.73-5.19-2.2-3.46 3.17-6.83 4.75-10.12 4.75-1.94 0-3.54-.81-4.8-2.42q-1.89-2.415-1.89-5.85c0-6.51 2.29-14.4 6.86-23.67 4.16-8.45 9.12-15.94 14.87-22.48s10.38-9.81 13.9-9.81q2.82 0 2.82 2.82Zm-2.56 1.32c0-1.35-.53-2.02-1.58-2.02-2.76 0-6.72 3.32-11.88 9.94q-7.305 9.33-13.11 21.03c-4.11 8.21-6.16 14.4-6.16 18.57 0 .24.06.35.18.35 1.11 0 4.34-2.87 9.68-8.62 5.93-6.34 10.94-12.73 15.05-19.18 5.22-8.21 7.83-14.9 7.83-20.06Zm-15.57 47.87c0-.59-.21-.88-.62-.88-1.23 0-1.85 1.2-1.85 3.61 0 .82.12 1.56.35 2.2 1.41-1.58 2.11-3.23 2.11-4.93Z" class="st0"/><path d="M161.29 69.62c0 .24-.29.59-.88 1.06-2.58 2.17-5.19 3.26-7.83 3.26q-2.46 0-4.23-1.32c-2.7 3.52-5.63 5.28-8.8 5.28-2.35 0-3.52-1.47-3.52-4.4 0-3.81 1.88-7.66 5.63-11.53 3.17-3.23 5.48-4.84 6.95-4.84.94 0 1.41.29 1.41.88 0 .18-.18.41-.53.7-1.41.29-3.31 1.79-5.72 4.49-2.93 3.29-4.4 6.45-4.4 9.5 0 2 .7 2.99 2.11 2.99 2.05 0 4.14-1.2 6.25-3.61-1.12-1.23-1.67-2.76-1.67-4.58 0-2.11.53-3.93 1.58-5.46.94-1.29 1.94-1.94 2.99-1.94s1.67.73 1.85 2.2c0 2.58-.91 5.37-2.73 8.36 1 1.11 2.35 1.67 4.05 1.67q3.435 0 6.69-2.82c.18-.18.35-.26.53-.26s.26.12.26.35Zm-9.68-6.78c0-.59-.21-.88-.62-.88-.53 0-1.09.47-1.67 1.41-.59.94-.88 2.14-.88 3.61 0 1.23.26 2.26.79 3.08 1.58-2.46 2.38-4.87 2.38-7.22" class="st0"/><path d="M181.97 69.62c0 .41-1.2 1.38-3.61 2.9-5.93 3.76-10.18 5.63-12.76 5.63-3.81 0-5.72-2.23-5.72-6.69 0-3.29 1.6-6.58 4.8-9.9 3.2-3.31 6.23-4.97 9.11-4.97q1.32 0 1.32 1.23c0 2-1.73 4.81-5.19 8.45-2.76 2.88-5.02 4.84-6.78 5.9.18 2.58 1.41 3.87 3.7 3.87 2.17 0 5.81-1.47 10.91-4.4.41-.23 1.55-.94 3.43-2.11.18-.18.35-.26.53-.26s.26.12.26.35m-9.6-10.12c0-.7-.21-1.06-.62-1.06-1.47 0-3.26 1.47-5.37 4.4s-3.2 5.57-3.26 7.92c1.11-.35 2.87-1.88 5.28-4.58q3.96-4.395 3.96-6.69Z" class="st0"/><path d="M210.39 69.62q0 .525-1.32 1.41c-7.22 4.87-12.09 7.3-14.61 7.3q-2.46 0-2.46-2.82c0-1.06.21-2.11.62-3.17.59-1.47.88-2.23.88-2.29 0-.23-.09-.35-.26-.35-.06 0-.21.06-.44.18-1.29 1.29-3.17 2.85-5.63 4.66-3.17 2.35-5.37 3.52-6.6 3.52-1.41 0-2.11-.7-2.11-2.11 0-.82 1.03-3.09 3.08-6.82s3.08-5.88 3.08-6.47c0-.64-.53-.97-1.58-.97-.24 0-.35-.35-.35-1.06.53-.18 1.08-.26 1.67-.26 2.05 0 3.08.59 3.08 1.76q0 1.935-2.73 6.51c-1.82 3.05-2.73 4.96-2.73 5.72 0 .47.21.7.62.7.94 0 3.24-1.55 6.91-4.66s6.5-5.92 8.49-8.45c.88-.88 1.52-1.32 1.94-1.32q1.14 0 1.14 1.14c0 .41-.21.94-.62 1.58-3.52 5.28-5.28 8.71-5.28 10.3 0 1.47.67 2.2 2.02 2.2 2.05 0 5.78-1.85 11.18-5.54.29-.23.7-.5 1.23-.79.18-.18.35-.26.53-.26s.26.12.26.35Zm-3.96-22.79c0 .53-1.09 1.35-3.26 2.46-3.29 1.7-6.19 3.73-8.71 6.07-.12 0-.18-.15-.18-.44 0-.35.06-.59.18-.7.82-1 1.67-1.98 2.55-2.95s1.73-1.95 2.55-2.95q3.525-3.78 5.37-3.78h.18c.88.29 1.32.91 1.32 1.85zm36.25 18.83q.18-2.205-.48-3.12c-.44-.62-1.16-.92-2.16-.92-1.53 0-3.36.73-5.5 2.2s-4.74 3.23-7.79 5.28c-.06.06-.22.18-.48.35-.26.18-.56.37-.88.57-.32.21-.63.38-.92.53s-.47.22-.53.22c-.18 0-.26-.15-.26-.44 0-.18.43-.6 1.28-1.28.85-.67 1.86-1.42 3.04-2.24a188 188 0 0 1 6.33-4.22c1.64-1 3.07-1.7 4.27-2.11s2.33-.62 3.39-.62c1.23 0 2.16.38 2.77 1.14q.93 1.14.66 3.78c-.18 1.76-.85 3.46-2.02 5.1a20.7 20.7 0 0 1-4.22 4.36 21 21 0 0 1-5.19 2.95c-1.82.7-3.52.97-5.1.79q-2.73-.27-2.46-2.46c.12-.88 1.5-2.38 4.14-4.49.23-.18.5-.26.79-.26.47.12.67.41.62.88-.06.29-.18.5-.35.62-.18.12-.59.67-1.23 1.67-.65 1.17-1 2.02-1.06 2.55 0 .18.21.29.62.35q1.32.18 3.39-.84c1.38-.67 2.74-1.57 4.09-2.68s2.54-2.35 3.56-3.7c1.03-1.35 1.6-2.67 1.72-3.96Zm5.46 7.04c.7-1 1.64-1.86 2.82-2.6 1.17-.73 2.2-1.28 3.08-1.63.12.47.03.81-.26 1.01-.29.21-.56.37-.79.48-.94.53-2.02 1.29-3.26 2.29-1.23 1-2.23 2.2-2.99 3.61-.47.23-.76.43-.88.57-.12.15-.24.22-.35.22-.29-.06-.56-.24-.79-.53q-.345-.435-.18-1.14c.12-.06.35-.4.7-1.01.35-.62.67-1.28.97-1.98.23-.65.56-1.45.97-2.42s.79-1.95 1.14-2.95c.12-.41.25-.82.4-1.23l.48-1.32c-.18 0-.32.15-.44.44-1.47 2.11-3.08 3.52-4.84 4.22-.18-.94-.09-1.5.26-1.67.94-.53 2.02-1.29 3.26-2.29 1.23-1 2.23-2.2 2.99-3.61.47-.23.76-.42.88-.57s.23-.22.35-.22c.29.06.56.24.79.53q.345.435.18 1.14c-.12.06-.35.4-.7 1.01-.35.62-.68 1.28-.97 1.98q-.435 1.23-1.14 3.21c-.47 1.32-1.03 2.8-1.67 4.44Zm24.29-2.55c0 .18-.31.5-.92.97-.62.47-1.36.97-2.24 1.5s-1.79 1.06-2.73 1.58c-.94.53-1.73 1-2.38 1.41-1.7 1.06-3.24 1.82-4.62 2.29s-2.57.7-3.56.7c-1.23 0-2.32-.44-3.26-1.32s-1.41-1.88-1.41-2.99c0-1.76.48-3.53 1.45-5.32s2.2-3.39 3.7-4.8 3.11-2.57 4.84-3.48 3.39-1.36 4.97-1.36c.94 0 1.64.18 2.11.53s.82.88 1.06 1.58c.12.29.04.88-.22 1.76s-1.16 1.58-2.68 2.11q-.36.18-.48-.18c-.09-.23-.04-.44.13-.62.7-.65 1.08-1.23 1.14-1.76s0-.95-.18-1.28c-.18-.32-.41-.54-.7-.66s-.44-.12-.44 0c0-.18-.21-.26-.62-.26q-1.32 0-3.3 1.23c-1.32.82-2.6 1.85-3.83 3.08a19.6 19.6 0 0 0-3.12 4.05c-.85 1.47-1.28 2.85-1.28 4.14 0 2.23.97 3.34 2.9 3.34 1.52 0 3.42-.41 5.68-1.23s4.91-2.26 7.96-4.31c.12-.12.4-.32.84-.62.44-.29.75-.44.92-.44s.26.12.26.35Z" class="st0"/><path d="M299 69.62q0 .525-1.32 1.41c-7.22 4.87-12.09 7.3-14.61 7.3q-2.46 0-2.46-2.82c0-1.06.21-2.11.62-3.17.59-1.47.88-2.23.88-2.29 0-.23-.09-.35-.26-.35-.06 0-.21.06-.44.18-1.29 1.29-3.17 2.85-5.63 4.66-3.17 2.35-5.37 3.52-6.6 3.52-1.41 0-2.11-.7-2.11-2.11 0-.82 1.03-3.09 3.08-6.82s3.08-5.88 3.08-6.47c0-.64-.53-.97-1.58-.97-.24 0-.35-.35-.35-1.06.53-.18 1.08-.26 1.67-.26 2.05 0 3.08.59 3.08 1.76q0 1.935-2.73 6.51c-1.82 3.05-2.73 4.96-2.73 5.72 0 .47.21.7.62.7.94 0 3.24-1.55 6.91-4.66s6.5-5.92 8.49-8.45c.88-.88 1.52-1.32 1.94-1.32q1.14 0 1.14 1.14c0 .41-.21.94-.62 1.58-3.52 5.28-5.28 8.71-5.28 10.3 0 1.47.67 2.2 2.02 2.2 2.05 0 5.78-1.85 11.18-5.54.29-.23.7-.5 1.23-.79.18-.18.35-.26.53-.26s.26.12.26.35Z" class="st0"/><path d="M323.03 69.62q0 .435-1.32 1.41l-12.14 8.98c-.12 4.52-2.23 10.53-6.34 18.04-3.81 7.04-8.18 13.26-13.11 18.65-5.22 5.69-9.33 8.51-12.32 8.45-1 0-1.85-.35-2.55-1.06-.7-.7-1.06-1.58-1.06-2.64q0-6.51 7.92-17.16c4.05-5.28 9.06-10.77 15.05-16.46 5.28-4.93 8.27-7.39 8.98-7.39 0-.35-.09-.68-.26-.97-.82-1.47-1.97-2.2-3.43-2.2-.59 0-1.23.12-1.94.35-1.41.47-2.26.7-2.55.7-.18 0-.29-.12-.35-.35 0-.59.58-1.12 1.76-1.58 1.88-.82 4.14-2.38 6.78-4.66 3.11-2.76 4.66-4.99 4.66-6.69q0-1.5-1.41-1.5-1.23 0-5.37 2.82c-2.17 1.58-4.34 3.17-6.51 4.75-.18.18-.35.26-.53.26-.12 0-.18-.32-.18-.97.18-.12 1.23-.92 3.17-2.42s3.92-3.05 5.94-4.66 3.86-2.42 5.5-2.42c2.11 0 3.17 1.12 3.17 3.34 0 2.7-3.46 6.31-10.38 10.82-.41.41-.62.7-.62.88 0 .24.21.35.62.35 2.58 0 4.28.76 5.1 2.29 1.35-.76 3.49-2.32 6.42-4.66 2.7-2.11 4.87-3.58 6.51-4.4.18-.18.35-.26.53-.26s.26.12.26.35Zm-16.46 12.67c0-.23-.03-.35-.09-.35-1.29 0-4.37 2.46-9.24 7.39q-7.74 7.74-13.38 15.93c-4.52 6.63-6.78 11.79-6.78 15.49 0 1.35.44 2.02 1.32 2.02 1.76 0 4.99-2.54 9.68-7.61a99.8 99.8 0 0 0 12.32-16.41c4.11-6.81 6.16-12.29 6.16-16.46Z" class="st0"/><path d="M330.77 74.46c-.18.24-.41.54-.7.92q-.435.57-.84 1.14c-.26.38-.51.7-.75.97s-.41.4-.53.4q-1.14 0-1.14-1.23c0-.29.21-.88.62-1.76.7-1 1.41-1.96 2.11-2.9s1.38-1.91 2.02-2.9c2.05-2.93 3.08-5.02 3.08-6.25 0-.53-.18-.79-.53-.79-.24 0-.59.12-1.06.35-1.53 1.11-3.33 2.46-5.41 4.05q-3.12 2.37-7.35 5.46h-.62c-.41 0-.62-.06-.62-.18s.32-.41.97-.88c2.05-1.64 4.21-3.33 6.47-5.06s4.65-3.53 7.17-5.41c.64-.59 1.55-.88 2.73-.88s1.76.53 1.76 1.58c0 1.17-.85 3.05-2.55 5.63-.12.23-.26.46-.44.66-.18.21-.32.43-.44.66h1.67c.65 0 1.38-.03 2.2-.09 1.41-.12 2.61-.12 3.61 0 .23-.41.47-.82.7-1.23s.5-.85.79-1.32c.64-1 1.28-1.91 1.89-2.73.62-.82 1.25-1.55 1.89-2.2.41-.53 1.06-.79 1.94-.79.47.12.7.26.7.44l-3.08 5.1c-2.05 3.4-3.08 5.87-3.08 7.39 0 1.82.79 2.73 2.38 2.73 1.99 0 4.9-1.73 8.71-5.19.18-.18.35-.26.53-.26s.26.12.26.35c0 .35-.59.94-1.76 1.76-1.88 1.64-3.58 2.89-5.1 3.74-1.53.85-2.96 1.28-4.31 1.28-2.64 0-3.96-1.11-3.96-3.34 0-1.47.32-2.96.97-4.49-.7-.06-1.54-.09-2.51-.09s-2.04.06-3.21.18c-.82.06-1.35.09-1.58.09h-.53c-.82 1.17-1.54 2.29-2.16 3.34-.62 1.06-.92 1.64-.92 1.76Z" class="st0"/><path d="M384.98 69.62q0 .525-1.32 1.41c-7.22 4.87-12.09 7.3-14.61 7.3q-2.46 0-2.46-2.82c0-1.06.21-2.11.62-3.17.59-1.47.88-2.23.88-2.29 0-.23-.09-.35-.26-.35-.06 0-.21.06-.44.18-1.29 1.29-3.17 2.85-5.63 4.66-3.17 2.35-5.37 3.52-6.6 3.52-1.41 0-2.11-.7-2.11-2.11 0-.82 1.03-3.09 3.08-6.82s3.08-5.88 3.08-6.47c0-.64-.53-.97-1.58-.97-.24 0-.35-.35-.35-1.06.53-.18 1.08-.26 1.67-.26 2.05 0 3.08.59 3.08 1.76q0 1.935-2.73 6.51c-1.82 3.05-2.73 4.96-2.73 5.72 0 .47.21.7.62.7.94 0 3.24-1.55 6.91-4.66s6.5-5.92 8.49-8.45c.88-.88 1.52-1.32 1.94-1.32q1.14 0 1.14 1.14c0 .41-.21.94-.62 1.58-3.52 5.28-5.28 8.71-5.28 10.3 0 1.47.67 2.2 2.02 2.2 2.05 0 5.78-1.85 11.18-5.54.29-.23.7-.5 1.23-.79.18-.18.35-.26.53-.26s.26.12.26.35ZM190.41 35.04c0 .12-.07.18-.22.18-.47-.03-1.38-.04-2.73-.04h-5.24c-1.38 0-2.3.01-2.77.04-.15 0-.22-.06-.22-.18s.07-.18.22-.18c.97 0 1.69-.32 2.16-.97s.7-1.75.7-3.3V15.41h-8.93c-.12 2.38-.41 6.88-.88 13.51-.12 2.14-.45 3.84-.99 5.08-.54 1.25-1.49 1.87-2.84 1.87-1.58 0-2.38-.44-2.38-1.32 0-.18.01-.31.04-.4l1.06-4.18c.06-.15.13-.21.22-.2.09.02.13.1.13.24q.045 1.89.48 2.55c.29.44.78.66 1.45.66 1.47 0 2.3-1.44 2.51-4.31l.57-9.24.04-.88c0-1.2-.22-2.07-.66-2.6s-1.1-.79-1.98-.79c-.15 0-.22-.06-.22-.18s.07-.18.22-.18l2.73.04h14.56l2.73-.04c.15 0 .22.06.22.18s-.07.18-.22.18c-.97 0-1.68.32-2.13.97-.46.65-.68 1.75-.68 3.3v10.91c0 1.56.23 2.66.68 3.3.45.65 1.17.97 2.13.97.15 0 .22.06.22.18Zm24.64-19.8q0 .18-.18.18c-.65 0-1.18.28-1.61.84-.42.56-.96 1.61-1.61 3.17l-6.86 16.24c-.94 2.11-1.8 3.79-2.57 5.04-.78 1.25-1.62 2.18-2.53 2.79-.91.62-1.95.92-3.12.92-1.29 0-2.46-.31-3.52-.92-1.06-.62-1.64-1.33-1.76-2.16-.03-.41.16-1.06.57-1.96s.82-1.61 1.23-2.16c.41-.54.6-.58.57-.11-.03.62.18 1.41.64 2.38.45.97 1.05 1.82 1.78 2.55s1.51 1.1 2.33 1.1 1.6-.34 2.24-1.01q.96-1.02 1.98-3.3c.09-.44 0-1.06-.29-1.87-.28-.81-.59-1.58-.95-2.31l-6.42-15.22c-.65-1.55-1.18-2.61-1.61-3.17s-.96-.84-1.61-.84q-.18 0-.18-.18c0-.18.06-.18.18-.18l1.94.04h5.59l3.26-.04c.21 0 .31.06.31.18s-.1.18-.31.18c-1.76 0-2.64.65-2.64 1.94q0 .93.48 2.07l5.19 12.23c.06.18.14.27.24.29s.18-.07.24-.24l5.19-12.28c.35-.85.53-1.52.53-2.02q0-1.98-2.82-1.98c-.18 0-.26-.06-.26-.18s.09-.18.26-.18l3.43.04h.53l1.94-.04q.18 0 .18.18Zm26.26 19.8c0 .12-.07.18-.22.18-.44-.03-1.35-.04-2.73-.04h-5.24c-1.38 0-2.29.01-2.73.04-.15 0-.22-.06-.22-.18s.07-.18.22-.18c.97 0 1.68-.32 2.13-.97s.68-1.75.68-3.3v-5.63c-.94.97-2.06 1.72-3.37 2.24-1.31.53-2.68.79-4.11.79-2.14 0-3.9-.54-5.28-1.61s-2.07-2.82-2.07-5.26v-1.45c0-1.55-.23-2.65-.68-3.3-.46-.65-1.17-.97-2.13-.97-.15 0-.22-.06-.22-.18s.07-.18.22-.18l2.73.04h5.24l2.73-.04c.15 0 .22.06.22.18s-.07.18-.22.18c-.97 0-1.68.32-2.13.97-.46.65-.68 1.75-.68 3.3v2.02c0 1.85.43 3.18 1.28 3.98.85.81 1.88 1.21 3.08 1.21q1.41 0 2.79-.66c1.38-.66 1.8-1.1 2.62-1.98v-4.58c0-1.55-.23-2.65-.68-3.3-.46-.65-1.17-.97-2.13-.97-.15 0-.22-.06-.22-.18s.07-.18.22-.18l2.73.04h5.24l2.73-.04c.15 0 .22.06.22.18s-.07.18-.22.18c-.97 0-1.68.32-2.13.97-.46.65-.68 1.75-.68 3.3v10.91c0 1.56.23 2.66.68 3.3.45.65 1.17.97 2.13.97.15 0 .22.06.22.18Zm38.81 0c0 .12-.07.18-.22.18-.47-.03-1.39-.04-2.77-.04h-30.76c-1.38 0-2.3.01-2.77.04-.15 0-.22-.06-.22-.18s.07-.18.22-.18c.97 0 1.69-.32 2.16-.97s.7-1.75.7-3.3V19.68c0-1.55-.24-2.65-.7-3.3-.47-.65-1.19-.97-2.16-.97-.15 0-.22-.06-.22-.18s.07-.18.22-.18l2.77.04h4.97l2.6-.04c.15 0 .22.06.22.18s-.07.18-.22.18c-.94 0-1.62.32-2.05.97s-.64 1.75-.64 3.3v15.18h8.05V19.68c0-1.55-.21-2.65-.64-3.3s-1.11-.97-2.05-.97c-.15 0-.22-.06-.22-.18s.07-.18.22-.18l2.6.04h5.02l2.6-.04c.15 0 .22.06.22.18s-.07.18-.22.18c-.94 0-1.62.32-2.05.97s-.64 1.75-.64 3.3v15.18h8.05V19.68c0-1.55-.21-2.65-.64-3.3s-1.11-.97-2.05-.97c-.15 0-.22-.06-.22-.18s.07-.18.22-.18l2.6.04h5.02l2.77-.04c.15 0 .22.06.22.18s-.07.18-.22.18c-.97 0-1.69.32-2.16.97s-.7 1.75-.7 3.3v10.91c0 1.56.23 2.66.7 3.3.47.65 1.19.97 2.16.97.15 0 .22.06.22.18Zm24.55-7.61c.09 0 .13.07.13.22 0 2.23-.48 4.14-1.43 5.72s-2.19 2.38-3.72 2.38c-1.12 0-2.05-.37-2.82-1.12s-1.19-1.87-1.28-3.37q-1.05 2.205-2.79 3.39c-1.74 1.185-2.43 1.19-3.81 1.19-2.32 0-4.03-.65-5.15-1.96-1.11-1.31-1.67-2.82-1.67-4.55s.77-3.06 2.31-4.09 3.47-1.54 5.79-1.54c.79 0 1.68.07 2.66.22s1.87.34 2.66.57v-1.94c0-4.52-1.96-6.78-5.9-6.78-1.61 0-2.99.53-4.11 1.58-1.13 1.06-1.69 2.64-1.69 4.75 0 .12-.03.21-.09.26q-.09.09-.18.09c-.12 0-.18-.12-.18-.35q0-2.46 1.23-4.2a7.77 7.77 0 0 1 3.17-2.62c1.29-.59 2.65-.88 4.09-.88 5.81 0 8.71 2.71 8.71 8.14v7.22c0 1.94.5 2.9 1.5 2.9s1.6-.43 1.89-1.3c.29-.86.47-2.1.53-3.72 0-.15.04-.22.13-.22Zm-9.11.66v-.26c-.32-1.06-.94-1.9-1.85-2.53s-1.91-.95-2.99-.95c-2.9 0-4.36 1.12-4.36 3.34 0 1.5.42 2.81 1.28 3.94.85 1.13 2.05 1.69 3.61 1.69 2.87 0 4.31-1.74 4.31-5.24Zm31.95 6.95c0 .12-.07.18-.22.18-.47-.03-1.39-.04-2.77-.04h-5.24c-1.35 0-2.26.01-2.73.04-.15 0-.22-.06-.22-.18s.07-.18.22-.18c.97 0 1.68-.32 2.13-.97s.68-1.75.68-3.3V17.83q0-2.07-1.23-2.16l-1.54-.04c-1.17-.03-2.05.12-2.62.44s-.94.81-1.1 1.47-.24 1.62-.24 2.88.21 2.19.64 2.97c.42.78 1.06 1.39 1.91 1.83 0-.03.03-.04.09-.04l.13.13q.93.435 2.73.66.18.045.15.18c-.03.135-.07.13-.15.13-.41.03-1 .04-1.76.04-1.2.03-2.11.12-2.73.26-.62.15-1.12.46-1.52.95-.4.48-.71 1.24-.95 2.27q-.705 2.865-1.89 4.2c-.79.9-2.04 1.27-3.74 1.12-.26-.03-.4-.34-.4-.92 0-.47.09-1 .26-1.61.18-.6.38-1.08.62-1.43.23-.35.44-.42.62-.22.7.5 1.38.75 2.02.75.29 0 .54-.04.75-.13q.885-.48 1.23-1.89c.47-1.64 1.3-2.84 2.51-3.61-1.91-.32-3.35-.94-4.33-1.85s-1.47-2.05-1.47-3.43c0-1.88.75-3.3 2.27-4.27 1.51-.97 3.85-1.45 7.02-1.45l7.88.04 2.77-.04c.15 0 .22.06.22.18s-.07.18-.22.18c-.97 0-1.69.32-2.16.97s-.7 1.75-.7 3.3V30.6c0 1.56.23 2.66.7 3.3.47.65 1.19.97 2.16.97.15 0 .22.06.22.18Zm37.57 0c0 .12-.07.18-.22.18-.44-.03-1.35-.04-2.73-.04h-5.24c-1.29 0-2.16.01-2.6.04-.15 0-.22-.06-.22-.18s.07-.18.22-.18c.94 0 1.62-.32 2.05-.97s.64-1.75.64-3.3V15.41h-9.5v15.18c0 1.56.21 2.66.64 3.3.42.65 1.11.97 2.05.97.15 0 .22.06.22.18s-.07.18-.22.18c-.44-.03-1.31-.04-2.6-.04h-5.24c-1.38 0-2.3.01-2.77.04-.15 0-.22-.06-.22-.18s.07-.18.22-.18c.97 0 1.69-.32 2.16-.97s.7-1.75.7-3.3V19.68c0-1.55-.24-2.65-.7-3.3-.47-.65-1.19-.97-2.16-.97-.15 0-.22-.06-.22-.18s.07-.18.22-.18l2.77.04h19.8l2.6-.04c.15 0 .22.06.22.18s-.07.18-.22.18c-.94 0-1.62.32-2.05.97-.42.65-.64 1.75-.64 3.3v10.91c0 1.56.23 2.66.68 3.3.45.65 1.17.97 2.13.97.15 0 .22.06.22.18Zm21.76-19.38c1.28.84 2.3 2.04 3.08 3.61q1.17 2.355 1.17 5.43c0 1.94-.45 3.76-1.34 5.48-.9 1.72-2.11 3.09-3.65 4.11s-3.22 1.54-5.04 1.54c-1.12 0-2.04-.15-2.77-.44s-1.42-.66-2.07-1.1c-.44-.29-.73-.44-.88-.44-.26 0-.4.25-.4.75v4.84c0 1.55.21 2.65.64 3.28.42.63 1.08.98 1.96 1.03.15 0 .22.05.22.15s-.07.15-.22.15c-1.23-.06-2.76-.09-4.58-.09-2.32 0-4.21.03-5.68.09-.15 0-.22-.06-.22-.18s.07-.18.22-.18c.88.03 1.53-.28 1.96-.92.43-.65.64-1.77.64-3.39V20.72c0-1.11-.14-1.93-.42-2.44s-.8-.77-1.56-.77q-.225 0-.75.09c-.12.03-.18 0-.2-.11-.02-.1.02-.17.11-.2 1.38-.32 2.79-.75 4.25-1.28 1.45-.53 2.63-1.1 3.54-1.72.15-.09.27-.12.37-.09s.14.12.11.26c-.18 1.53-.28 2.82-.31 3.87 0 .35.02.68.07.99s.11.45.2.42c.79-1.58 1.77-2.87 2.95-3.87 1.17-1 2.64-1.5 4.4-1.5 1.52 0 2.93.42 4.2 1.25Zm-1.36 17.93c.84-1.06 1.25-2.6 1.25-4.62s-.34-3.86-1.01-5.68-1.58-3.29-2.71-4.4-2.35-1.67-3.67-1.67-2.38.56-3.19 1.67-1.21 2.61-1.21 4.49v2.95c0 2.55.58 4.66 1.74 6.34 1.16 1.67 2.73 2.51 4.73 2.51 1.88 0 3.23-.53 4.07-1.58Zm34.38 1.45c0 .12-.07.18-.22.18-.44-.03-1.35-.04-2.73-.04h-5.24c-1.38 0-2.29.01-2.73.04-.15 0-.22-.06-.22-.18s.07-.18.22-.18c.97 0 1.68-.32 2.13-.97s.68-1.75.68-3.3v-10.6l-10.52 10.56v.04c0 1.56.23 2.66.68 3.3.45.65 1.17.97 2.13.97.15 0 .22.06.22.18s-.07.18-.22.18c-.47-.03-1.38-.04-2.73-.04h-5.24c-1.38 0-2.3.01-2.77.04-.15 0-.22-.06-.22-.18s.07-.18.22-.18c.97 0 1.69-.32 2.16-.97s.7-1.75.7-3.3V19.72c0-1.55-.24-2.66-.7-3.32q-.705-.99-2.16-.99c-.15 0-.22-.06-.22-.18s.07-.18.22-.18c.94.06 1.86.09 2.77.09h5.24q1.32 0 2.73-.09c.15 0 .22.06.22.18s-.07.18-.22.18q-1.455 0-2.13.99c-.46.66-.68 1.77-.68 3.32v10.25l10.52-10.56c-.03-1.47-.27-2.5-.73-3.1s-1.15-.9-2.09-.9c-.15 0-.22-.06-.22-.18s.07-.18.22-.18q1.32.09 2.73.09h5.24q1.41 0 2.73-.09c.15 0 .22.06.22.18s-.07.18-.22.18q-1.455 0-2.13.99c-.46.66-.68 1.77-.68 3.32v10.87c0 1.56.23 2.66.68 3.3.45.65 1.17.97 2.13.97.15 0 .22.06.22.18Zm30.76 0c0 .12-.07.18-.22.18-.47-.03-1.38-.04-2.73-.04h-5.28c-1.35 0-2.26.01-2.73.04-.15 0-.22-.06-.22-.18s.07-.18.22-.18c.88 0 1.53-.25 1.96-.75.42-.5.64-1.33.64-2.51 0-.44-.01-.78-.04-1.01l-.97-11.66c-.03-.35-.12-.53-.26-.53-.09 0-.16.04-.22.13s-.12.22-.18.4l-6.2 15.71q-.18.48-.48.48c-.26 0-.46-.16-.57-.48l-6.16-15.88c-.09-.23-.18-.35-.26-.35h-.09l.31 1.14-.31-1.1c-.09.03-.13.13-.13.31l-1.06 11.84c-.03.26-.04.63-.04 1.1 0 1.14.21 1.96.62 2.44s1.06.73 1.94.73c.15 0 .22.06.22.18s-.07.18-.22.18c-.44-.03-1.35-.04-2.73-.04h-.53c-1.38 0-2.29.01-2.73.04-.15 0-.22-.06-.22-.18s.07-.18.22-.18c.97 0 1.69-.31 2.18-.95.48-.63.8-1.74.95-3.32l1.19-13.07c-.29-.76-.66-1.3-1.1-1.63-.44-.32-1-.48-1.67-.48-.15 0-.22-.06-.22-.18s.07-.18.22-.18l2.6.04h4.22c.41 0 .67.16.79.48l4.88 12.06c.09.21.19.31.31.31.15 0 .23-.1.26-.31l4.75-12.1c.06-.18.13-.29.22-.35s.22-.09.4-.09h3.87l2.77-.04c.15 0 .22.06.22.18s-.07.18-.22.18c-.88 0-1.53.24-1.96.73-.42.48-.64 1.3-.64 2.44 0 .47.01.84.04 1.1l1.06 10.91c.15 1.58.46 2.69.95 3.32.48.63 1.21.95 2.18.95.15 0 .22.06.22.18Zm20.83-3.74c.07.06.08.13.02.22a11.16 11.16 0 0 1-4.14 3.21c-1.61.73-3.3 1.1-5.06 1.1-1.85 0-3.56-.43-5.15-1.28a9.5 9.5 0 0 1-3.76-3.63c-.92-1.57-1.39-3.38-1.39-5.43s.51-3.89 1.52-5.59 2.38-3.04 4.11-4.03c1.73-.98 3.62-1.47 5.68-1.47 2.29 0 4.19.62 5.72 1.87 1.52 1.25 2.29 2.94 2.29 5.08 0 .97-.18 2.01-.53 3.12-3.08.06-7.8.19-14.17.4.5 1.61 1.27 3.06 2.31 4.33 1.04 1.28 2.24 2.27 3.59 2.99q2.025 1.08 3.96 1.08c2.14 0 3.75-.67 4.84-2.02.03-.03.08-.01.15.04Zm-14.08-14.54c-.87 1.01-1.3 2.53-1.3 4.55 0 1 .15 2.08.44 3.26 1.67-.03 3.64-.1 5.9-.22.59-.03 1.19-.06 1.83-.09.63-.03 1.27-.04 1.91-.04.26-.44.4-.98.4-1.63 0-.97-.27-2.03-.81-3.19s-1.23-2.14-2.07-2.95-1.68-1.21-2.53-1.21c-1.64 0-2.9.51-3.76 1.52Zm35.91-1.1c1.28.84 2.3 2.04 3.08 3.61q1.17 2.355 1.17 5.43c0 1.94-.45 3.76-1.34 5.48-.9 1.72-2.11 3.09-3.65 4.11s-3.22 1.54-5.04 1.54c-1.12 0-2.04-.15-2.77-.44s-1.42-.66-2.07-1.1c-.44-.29-.73-.44-.88-.44-.26 0-.4.25-.4.75v4.84c0 1.55.21 2.65.64 3.28.42.63 1.08.98 1.96 1.03.15 0 .22.05.22.15s-.07.15-.22.15c-1.23-.06-2.76-.09-4.58-.09-2.32 0-4.21.03-5.68.09-.15 0-.22-.06-.22-.18s.07-.18.22-.18c.88.03 1.53-.28 1.96-.92.43-.65.64-1.77.64-3.39V20.72c0-1.11-.14-1.93-.42-2.44s-.8-.77-1.56-.77q-.225 0-.75.09c-.12.03-.18 0-.2-.11-.02-.1.02-.17.11-.2 1.38-.32 2.79-.75 4.25-1.28 1.45-.53 2.63-1.1 3.54-1.72.15-.09.27-.12.37-.09s.14.12.11.26c-.18 1.53-.28 2.82-.31 3.87 0 .35.02.68.07.99s.11.45.2.42c.79-1.58 1.77-2.87 2.95-3.87 1.17-1 2.64-1.5 4.4-1.5 1.52 0 2.93.42 4.2 1.25Zm-1.37 17.93c.84-1.06 1.25-2.6 1.25-4.62s-.34-3.86-1.01-5.68-1.58-3.29-2.71-4.4-2.35-1.67-3.67-1.67-2.38.56-3.19 1.67-1.21 2.61-1.21 4.49v2.95c0 2.55.58 4.66 1.74 6.34 1.16 1.67 2.73 2.51 4.73 2.51 1.88 0 3.23-.53 4.07-1.58Zm31.7 1.52c0 .1-.07.15-.22.15q-1.23-.09-6.03-.09c-.79 0-1.36-.15-1.69-.44-.34-.29-.56-.66-.68-1.1l-1.36-3.83c-.44-1.29-.87-2.28-1.28-2.97a3.85 3.85 0 0 0-1.61-1.52c-.66-.32-1.55-.48-2.66-.48h-.4v5.76c0 1.56.23 2.66.68 3.3.45.65 1.17.97 2.13.97.15 0 .22.06.22.18s-.07.18-.22.18c-.44-.03-1.35-.04-2.73-.04h-5.24c-1.38 0-2.3.01-2.77.04-.15 0-.22-.06-.22-.18s.07-.18.22-.18c.97 0 1.69-.32 2.16-.97s.7-1.75.7-3.3V19.72c0-1.55-.24-2.65-.7-3.3-.47-.64-1.19-.97-2.16-.97-.15 0-.22-.06-.22-.18s.07-.18.22-.18l2.77.04h5.24l2.73-.04c.15 0 .22.06.22.18s-.07.18-.22.18c-.97 0-1.68.32-2.13.97-.46.65-.68 1.75-.68 3.3v4.84h.4c2.08 0 3.67-.33 4.75-.99s2.07-1.8 2.95-3.41l.44-.84c.5-.91.75-1.69.75-2.33 0-1.06-.7-1.58-2.11-1.58-.15 0-.22-.06-.22-.18s.07-.18.22-.18l2.73.04h1.06l2.73-.04c.15 0 .22.06.22.18s-.07.18-.22.18c-.91 0-1.66.27-2.24.81-.59.54-1.32 1.55-2.2 3.01l-.66 1.14c-.73 1.23-1.52 2.18-2.35 2.84-.84.66-1.87 1.11-3.1 1.34 2.23.03 3.97.42 5.24 1.17 1.26.75 2.29 2.05 3.08 3.89l.66 1.58c.62 1.44 1.16 2.41 1.63 2.93.47.51 1.13.79 1.98.81.15 0 .22.05.22.15Zm23.68-7.68c.09 0 .13.07.13.22 0 2.23-.48 4.14-1.43 5.72s-2.19 2.38-3.72 2.38c-1.12 0-2.05-.37-2.82-1.12s-1.19-1.87-1.28-3.37q-1.05 2.205-2.79 3.39c-1.74 1.185-2.43 1.19-3.81 1.19-2.32 0-4.03-.65-5.15-1.96-1.11-1.31-1.67-2.82-1.67-4.55s.77-3.06 2.31-4.09 3.47-1.54 5.79-1.54c.79 0 1.68.07 2.66.22s1.87.34 2.66.57v-1.94c0-4.52-1.96-6.78-5.9-6.78-1.61 0-2.99.53-4.11 1.58-1.13 1.06-1.69 2.64-1.69 4.75 0 .12-.03.21-.09.26q-.09.09-.18.09c-.12 0-.18-.12-.18-.35q0-2.46 1.23-4.2a7.77 7.77 0 0 1 3.17-2.62c1.29-.59 2.65-.88 4.09-.88 5.81 0 8.71 2.71 8.71 8.14v7.22c0 1.94.5 2.9 1.5 2.9s1.6-.43 1.89-1.3c.29-.86.47-2.1.53-3.72 0-.15.04-.22.13-.22Zm-9.11.66v-.26c-.32-1.06-.94-1.9-1.85-2.53s-1.91-.95-2.99-.95c-2.9 0-4.36 1.12-4.36 3.34 0 1.5.42 2.81 1.28 3.94.85 1.13 2.05 1.69 3.61 1.69 2.87 0 4.31-1.74 4.31-5.24Z" class="st0"/></svg>