<svg xmlns="http://www.w3.org/2000/svg" width="282" height="154" fill="none" viewBox="0 0 282 154"><path fill="#f5cdcb" d="M94.555 136.251c-.24-1.53-2.14-6.46-3.86-7.24-.58 4.13 6.24 11.6.51 13.51-10.72-7.46-20-18.23-30.93-25.13-19.05-12-41.26-15.08-53.84-37-15.16-26.39 15.73-68 41.15-43.08 8.67 8.52 12.52 21.27 20.87 29.85-1.69-18.83-10.5-32.82-8.67-52.64 1.6-17.46 11.88-20 18.52-3.1 6 15.39 2.28 34.19 3.69 50.42 1.26 14.42 2.54 29 3.87 43.48.74 8.07 1 18.38 7.71 23.69l-5.88-54.61c-.15-2.16.26-4.63 3-4.33 2.33 27.71 8.22 55.14 6.77 83.1h-2.89c-.58-5.26.74-11.86-.02-16.92m-21.26-77.3c.61 5.41 0 12.68 0 18.36 0 .11-1.41 1.93-1.94 1-8.22-16.91-27-38.81-47.88-37.29-11.42.83-12 18.77-9.65 27.17 3.77 13.68 27.29 30.87 39.49 37.81 10.26 5.84 21.25 8.77 31.56 14.33-3.2-11.83-2.63-24.16-3.86-36.23-.93-9.16-3.27-19-3.85-28-.84-13.09 2.59-25-.27-38.37-2.21-10.34-10.67-23-12.28-4.12-1.51 17.62 6.95 30.01 8.68 45.34m-20.3-9.18c1.09-1.16-8.16-11-9.63-12.1-8.87-6.8-19.43-6.52-27.08 2 3 .07 4.61-1.53 8.21-1.53 10.5-.05 20.05 6.18 28.5 11.63m-30.58 37.35c-8.91-9-14-19-12.89-32 .24-2.86 2-5.46 1.45-8.22-17.08 27 9.09 48.12 32 57.81.89.37 2.46 2.1 3.22.65-7.63-5.76-17.07-11.44-23.78-18.24m68.26 51.55c-1.55-3.36-3.77-13.81-5.81-15.92-.88-.91-6.1-3.17-7.72-3.87-5.57-2.42-11.78-3.88-17.38-6.29z"/><path fill="#000" d="M37.648 76.902q.132 0 .132.088 0 .066-.132.088-.771.022-1.188.55-.396.506-.396 1.716v7.502h1.232q.153 0 .154.154l.044.77.132 1.672q.022.132-.066.132-.066 0-.088-.11-.243-1.276-.814-1.87-.55-.594-1.65-.594h-6.204q-1.1 0-1.672.594-.55.594-.792 1.87-.023.11-.11.11-.066 0-.044-.132.132-1.144.132-1.672l.044-.77q0-.154.154-.154h.682q.77 0 1.166-2.442.417-2.442.528-5.654-.088-.902-.484-1.276t-1.078-.396q-.132-.022-.132-.088.021-.088.132-.088.924.066 1.276.066h7.766q.418 0 1.276-.066m-4.114 9.944v-9.724h-4.466q0 3.145-.374 6.138-.352 2.97-1.1 3.586zm16.457 0q.11 0 .11.088t-.11.088Q49.64 87 48.627 87H46.01q-1.034 0-1.386.022-.11 0-.11-.088t.11-.088q.727 0 1.078-.484t.352-1.65v-7.59h-4.466q-.088 1.782-.44 6.754-.087 1.605-.506 2.552-.396.924-1.408.924-1.188 0-1.188-.66 0-.132.022-.198l.528-2.09q.044-.11.11-.088.066 0 .066.11.023.946.242 1.276.22.33.726.33 1.1 0 1.254-2.156l.286-4.62.022-.44q0-.902-.33-1.298t-.99-.396q-.11 0-.11-.088t.11-.088l1.364.022h7.282l1.364-.022q.11 0 .11.088t-.11.088q-.726 0-1.078.484-.33.484-.33 1.65v5.456q0 1.165.33 1.65.352.484 1.078.484m12.123 0q.11 0 .11.088t-.11.088A28 28 0 0 0 60.728 87H58.11q-1.011 0-1.364.022-.11 0-.11-.088t.11-.088q.726 0 1.056-.484.352-.484.352-1.65v-6.38q0-1.035-.616-1.078l-.77-.022q-.879-.022-1.32.22-.418.241-.55.748-.11.485-.11 1.43 0 .902.308 1.496.33.572.968.902 0-.022.044-.022l.066.066q.462.22 1.364.33.09.022.066.088 0 .066-.066.066-.307.022-.88.022-.901.022-1.364.132a1.4 1.4 0 0 0-.77.484q-.285.353-.462 1.122-.352 1.43-.946 2.112-.594.66-1.87.55-.198-.022-.198-.462 0-.352.132-.792.132-.462.308-.726.177-.264.308-.11.528.374 1.012.374a1 1 0 0 0 .374-.066q.441-.242.616-.946.352-1.232 1.254-1.804-1.43-.242-2.178-.924-.726-.682-.726-1.716 0-1.408 1.122-2.134 1.144-.726 3.52-.726l3.938.022 1.386-.022q.11 0 .11.088t-.11.088q-.726 0-1.078.484t-.352 1.65v5.456q0 1.165.352 1.65t1.078.484m17.94.044q.11 0 .11.088 0 .066-.11.066Q79.439 87 77.04 87q-.594 0-.858-.22a1.1 1.1 0 0 1-.33-.55l-.682-1.914q-.33-.968-.638-1.474a1.87 1.87 0 0 0-.814-.77q-.484-.242-1.32-.242H72.2v2.882q0 1.165.33 1.65.352.484 1.078.484.11 0 .11.088t-.11.088A26 26 0 0 0 72.244 87h-2.618q-1.034 0-1.386.022-.11 0-.11-.088t.11-.088q.726 0 1.078-.484t.352-1.65v-5.434q0-1.165-.352-1.65t-1.078-.484q-.11 0-.11-.088t.11-.088l1.386.022h2.618l1.364-.022q.11 0 .11.088t-.11.088q-.726 0-1.078.484-.33.484-.33 1.65v2.42h.198q1.561 0 2.376-.484.814-.506 1.474-1.716l.22-.418q.374-.682.374-1.166 0-.792-1.056-.792-.11 0-.11-.088t.11-.088l1.364.022h.528l1.364-.022q.11 0 .11.088t-.11.088q-.683 0-1.122.418-.44.396-1.1 1.496l-.33.572q-.55.924-1.188 1.43-.615.484-1.54.66 1.672.022 2.618.594.945.55 1.54 1.936l.33.792q.463 1.078.814 1.474.352.374.99.396m8.431-10.274q1.145 0 2.09.638.969.615 1.54 1.804.594 1.166.594 2.706a5.8 5.8 0 0 1-.682 2.75 5.35 5.35 0 0 1-1.826 2.046 4.4 4.4 0 0 1-2.508.77q-.835 0-1.386-.22a5.4 5.4 0 0 1-1.034-.55q-.33-.22-.44-.22-.198 0-.198.374v2.42q0 1.166.308 1.628.33.484.99.528.11 0 .11.066 0 .088-.11.088a50 50 0 0 0-2.288-.044q-1.737 0-2.838.044-.11 0-.11-.088t.11-.088q.66.022.968-.462.33-.484.33-1.694v-9.328q0-.835-.22-1.21-.198-.396-.77-.396-.11 0-.374.044-.087.022-.11-.044 0-.088.066-.11 1.035-.242 2.112-.638 1.101-.396 1.782-.858.11-.066.176-.044.088.022.066.132-.132 1.144-.154 1.936 0 .264.022.506.044.22.11.198.594-1.188 1.474-1.936t2.2-.748M87.87 87q1.409 0 2.024-.792.639-.792.638-2.31 0-1.475-.506-2.838-.506-1.365-1.364-2.2-.836-.836-1.826-.836t-1.606.836q-.594.836-.594 2.244v1.474q0 1.914.858 3.168Q86.373 87 87.87 87m17.047-3.762q0-.11.066-.11t.066.11q0 1.672-.726 2.86-.703 1.188-1.848 1.188-.836 0-1.408-.55-.572-.572-.638-1.694-.528 1.1-1.408 1.694a3.25 3.25 0 0 1-1.892.594q-1.739 0-2.574-.968a3.44 3.44 0 0 1-.836-2.288q0-1.276 1.144-2.046 1.166-.77 2.904-.77.594 0 1.32.11.748.11 1.342.286v-.968q0-3.388-2.948-3.388-1.21 0-2.068.792-.836.792-.836 2.376 0 .088-.044.132-.045.044-.088.044-.088 0-.088-.176 0-1.232.616-2.09a3.84 3.84 0 0 1 1.584-1.32 4.9 4.9 0 0 1 2.046-.44q4.356 0 4.356 4.07v3.608q0 1.452.748 1.452.726 0 .946-.638.22-.66.264-1.87m-6.644 2.838q2.156 0 2.156-2.618v-.132a2.27 2.27 0 0 0-.924-1.254 2.53 2.53 0 0 0-1.496-.484q-2.178 0-2.178 1.672 0 1.122.638 1.98.638.836 1.804.836m15.232-3.652q-.044.11-.132.11-.066-.022-.022-.154.11-.44.11-.858 0-1.013-.484-2.046-.484-1.056-1.276-1.738t-1.672-.682q-2.596 0-2.596 2.97a6.4 6.4 0 0 0 .748 3.036q.748 1.386 1.936 2.2 1.21.814 2.442.814 1.584 0 2.42-1.012.088-.088.132-.022.043.044 0 .11-1.738 2.178-4.598 2.178a5.4 5.4 0 0 1-2.596-.638 5 5 0 0 1-1.914-1.804q-.704-1.188-.704-2.728 0-1.495.748-2.772a5.7 5.7 0 0 1 2.068-2.024 5.54 5.54 0 0 1 2.816-.748q1.056 0 1.98.286.924.285 1.408.748.506.44.396.88zm15.587 4.422q.11 0 .11.088t-.11.088q-.33-.022-1.364-.022h-2.618q-1.034 0-1.364.022-.11 0-.11-.088t.11-.088q.726 0 1.056-.484.352-.484.352-1.65V79.41l-5.258 5.28v.022q0 1.165.33 1.65.352.484 1.078.484.11 0 .11.088t-.11.088A27 27 0 0 0 119.94 87h-2.618q-1.034 0-1.386.022-.11 0-.11-.088t.11-.088q.726 0 1.078-.484t.352-1.65v-5.434q0-1.165-.352-1.65-.351-.506-1.078-.506-.11 0-.11-.088t.11-.088q.705.044 1.386.044h2.618q.66 0 1.364-.044.11 0 .11.088t-.11.088q-.726 0-1.078.506-.33.484-.33 1.65v5.126l5.258-5.28q-.021-1.1-.374-1.54-.33-.462-1.034-.462-.11 0-.11-.088t.11-.088q.66.044 1.364.044h2.618q.705 0 1.364-.044.11 0 .11.088t-.11.088q-.726 0-1.078.506-.33.484-.33 1.65v5.434q0 1.165.33 1.65.352.484 1.078.484m1.26.154q-.11 0-.11-.088t.11-.088q.748.022 1.078-.462.352-.484.352-1.65v-5.434q0-1.165-.352-1.65-.33-.484-1.056-.484-.11 0-.11-.088t.11-.088q.66.044 1.364.044 2.773-.066 5.038-.066 1.739 0 2.706.594.969.572.968 1.782 0 .792-.682 1.43-.66.616-1.65.726 1.276.066 2.134.748t.858 1.87q0 1.386-1.1 2.178-1.078.792-2.992.792l-5.28-.088zm5.874-5.632q1.122-.132 1.606-.594.484-.484.484-1.474 0-1.078-.572-1.606-.55-.528-1.408-.55l-1.562-.066h-.066q-.22 0-.286.11t-.066.396v8.668q0 .396.11.55.132.132.484.132l1.386-.022q1.123 0 1.738-.638.638-.66.638-1.936 0-1.298-.572-1.98-.549-.705-1.848-.748l-.748-.022q-.088 0-.088-.066t.066-.088zm21.429 5.478q.11 0 .11.088t-.11.088A27 27 0 0 0 156.29 87h-2.618q-1.033 0-1.386.022-.087 0-.088-.088 0-.088.088-.088.748 0 1.078-.484.352-.484.352-1.65V79.19q0-1.166-.352-1.65-.33-.484-1.078-.484-.087 0-.088-.088 0-.088.088-.088l1.386.022h2.618l1.364-.022q.11 0 .11.088t-.11.088q-.726 0-1.078.484-.33.484-.33 1.65v5.522q0 1.165.33 1.65.352.484 1.078.484m-9.724-5.588q4.51-.066 4.51 2.75 0 1.452-1.056 2.222t-3.146.77h-4.62q-1.034 0-1.386.022-.11 0-.11-.088t.11-.088q.727 0 1.078-.484t.352-1.65v-5.456q0-1.165-.352-1.65-.351-.484-1.078-.484-.11 0-.11-.088t.11-.088l1.386.022h2.618l1.364-.022q.11 0 .11.088t-.11.088q-.726 0-1.078.484-.33.484-.33 1.65v1.782q0 .242.198.242zm-.352 5.566q1.056-.022 1.628-.77.594-.748.594-2.002 0-1.232-.594-1.914-.594-.705-1.716-.682l-1.1.022q-.198 0-.198.242v4.532q0 .352.088.484.088.11.352.11zm22.415.022q.11 0 .11.088t-.11.088a26 26 0 0 0-1.364-.022h-2.992q-1.035 0-1.386.022-.088 0-.088-.088t.088-.088q.484 0 .748-.176a.58.58 0 0 0 .286-.528q0-.44-.462-1.166l-1.958-2.992-2.024 2.992q-.484.748-.484 1.166 0 .704 1.012.704.11 0 .11.088t-.11.088a28 28 0 0 0-1.386-.022h-.286q-1.034 0-1.364.022-.11 0-.11-.088t.11-.088q.66 0 1.1-.374.462-.396 1.188-1.496l2.156-3.146-1.848-2.838q-.727-1.1-1.144-1.474a1.34 1.34 0 0 0-.99-.396q-.088 0-.088-.088t.088-.088l1.232.022h3.014l1.496-.022q.11 0 .11.088t-.11.088q-.528 0-.836.198-.286.175-.286.55 0 .462.44 1.122l1.518 2.332 1.606-2.332q.462-.682.462-1.144a.59.59 0 0 0-.308-.55q-.286-.176-.814-.176-.132 0-.132-.088t.132-.088l1.496.022h.308l1.364-.022q.11 0 .11.088t-.11.088q-.682 0-1.144.396-.44.396-1.166 1.474l-1.716 2.508 2.266 3.476q.703 1.078 1.144 1.474.462.396 1.122.396m13.679-4.422q-.043.11-.132.11-.066-.022-.022-.154.11-.44.11-.858 0-1.013-.484-2.046-.484-1.056-1.276-1.738t-1.672-.682q-2.596 0-2.596 2.97a6.4 6.4 0 0 0 .748 3.036q.748 1.386 1.936 2.2 1.21.814 2.442.814 1.584 0 2.42-1.012.089-.088.132-.022.043.044 0 .11-1.738 2.178-4.598 2.178a5.4 5.4 0 0 1-2.596-.638 5 5 0 0 1-1.914-1.804q-.704-1.188-.704-2.728 0-1.495.748-2.772a5.7 5.7 0 0 1 2.068-2.024 5.54 5.54 0 0 1 2.816-.748q1.056 0 1.98.286.924.285 1.408.748.506.44.396.88zm12.463-1.65q.022.088-.044.088t-.088-.088q-.813-3.058-1.804-3.41-.198-.154-1.54-.154-.132 0-.22.154a.63.63 0 0 0-.088.352v6.996q0 1.165.33 1.65.352.484 1.078.484.11 0 .11.088t-.11.088q-.33-.022-1.364-.022h-2.618q-1.034 0-1.364.022-.11 0-.11-.088t.11-.088q.726 0 1.056-.484.352-.484.352-1.65v-6.996a.6.6 0 0 0-.088-.352q-.087-.154-.22-.154-1.342 0-1.54.154-.99.352-1.804 3.41-.022.088-.088.088t-.044-.088q.264-1.957.264-3.586 0-.352.286-.352.132 0 .748.088.638.088 2.486.088h2.53q1.782 0 2.442-.088a9 9 0 0 1 .814-.088q.264 0 .264.352 0 1.627.264 3.586m6.398 6.578q-1.518 0-2.75-.638a4.93 4.93 0 0 1-1.914-1.848q-.682-1.188-.682-2.706 0-1.54.792-2.794a5.56 5.56 0 0 1 2.156-2.002q1.386-.726 3.036-.726 1.539 0 2.772.66a4.76 4.76 0 0 1 1.958 1.804q.704 1.166.704 2.662a5.24 5.24 0 0 1-.814 2.838q-.793 1.275-2.2 2.024-1.387.726-3.058.726m1.21-.528q1.254 0 1.958-.704.726-.726.726-2.112 0-1.343-.704-2.97-.682-1.628-1.738-2.75-1.035-1.144-2.024-1.144-1.233 0-1.936.704-.705.704-.704 2.112 0 1.32.682 2.97.681 1.628 1.716 2.772 1.055 1.122 2.024 1.122m13.627-10.208q1.144 0 2.09.638.968.615 1.54 1.804.594 1.166.594 2.706 0 1.452-.682 2.75a5.35 5.35 0 0 1-1.826 2.046 4.4 4.4 0 0 1-2.508.77q-.835 0-1.386-.22a5.4 5.4 0 0 1-1.034-.55q-.33-.22-.44-.22-.198 0-.198.374v2.42q0 1.166.308 1.628.33.484.99.528.11 0 .11.066 0 .088-.11.088a50 50 0 0 0-2.288-.044q-1.738 0-2.838.044-.11 0-.11-.088t.11-.088q.66.022.968-.462.33-.484.33-1.694v-9.328q0-.835-.22-1.21-.198-.396-.77-.396a3 3 0 0 0-.374.044q-.088.022-.11-.044 0-.088.066-.11a18 18 0 0 0 2.112-.638q1.1-.396 1.782-.858.11-.066.176-.044.089.022.066.132a23 23 0 0 0-.154 1.936q0 .264.022.506.044.22.11.198.594-1.188 1.474-1.936t2.2-.748M216.754 87q1.408 0 2.024-.792.638-.792.638-2.31 0-1.475-.506-2.838-.506-1.365-1.364-2.2-.836-.836-1.826-.836t-1.606.836q-.594.836-.594 2.244v1.474q0 1.914.858 3.168.88 1.254 2.376 1.254m19.115-.154q.11 0 .11.088t-.11.088a26 26 0 0 0-1.364-.022h-2.618q-1.034 0-1.364.022-.11 0-.11-.088t.11-.088q.726 0 1.056-.484.351-.484.352-1.65V79.41l-5.258 5.28v.022q0 1.165.33 1.65.351.484 1.078.484.11 0 .11.088t-.11.088q-.353-.022-1.364-.022h-2.618q-1.035 0-1.386.022-.11 0-.11-.088t.11-.088q.726 0 1.078-.484.351-.484.352-1.65v-5.434q0-1.165-.352-1.65-.352-.506-1.078-.506-.11 0-.11-.088t.11-.088q.703.044 1.386.044h2.618q.66 0 1.364-.044.11 0 .11.088t-.11.088q-.727 0-1.078.506-.33.484-.33 1.65v5.126l5.258-5.28q-.023-1.1-.374-1.54-.33-.462-1.034-.462-.11 0-.11-.088t.11-.088q.66.044 1.364.044h2.618q.704 0 1.364-.044.11 0 .11.088t-.11.088q-.727 0-1.078.506-.33.484-.33 1.65v5.434q0 1.165.33 1.65.351.484 1.078.484m5.044-10.23q1.737 0 2.75.66 1.034.66 1.034 1.76 0 .946-.66 1.518t-1.672.704q1.254.066 2.134.814.88.726.88 1.914 0 1.54-1.188 2.442t-3.212.902q-2.75 0-4.18-2.2-.045-.088 0-.11.066-.045.11.022.747 1.144 2.816 1.144 1.54 0 2.332-.55t.792-2.024q0-1.122-.55-1.65t-1.87-.55l-.748-.044q-.088 0-.088-.066t.066-.066l.704-.066q1.209-.131 1.716-.638.528-.505.528-1.65 0-1.914-2.068-1.914-1.32 0-2.134.968-.815.946-1.32 2.904-.023.088-.11.066-.066-.022-.044-.11l.374-2.178q.087-.484.528-.946.44-.462 1.232-.748.792-.308 1.848-.308M61.982 64.23q.528-.616 1.32-1.584a64 64 0 0 0 1.54-1.848q.396-.264.792-.132t.22.352q-1.32 1.98-1.936 3.52t-.616 2.156q0 1.1 1.012 1.1 1.54 0 5.588-2.772.087-.089.396-.308.352-.22.484-.22t.132.176q0 .263-.66.704-5.457 3.651-7.304 3.652-1.233 0-1.232-1.408 0-.441.088-.924.132-.528.264-.924.175-.396.264-.66.132-.264.132-.22 0-.177-.132-.176-.309.351-.968 1.012-.66.66-1.408 1.32-.749.66-1.496 1.144-.748.44-1.188.396-.528-.045-.66-.352-.132-.353 0-.836.132-.484.44-1.056.307-.573.66-1.1.087-.132.308-.484.219-.396.396-.748.22-.353.308-.572.087-.22-.088-.088-.045-.088-.352.264-.265.308-.748.836-.484.528-1.144 1.144-.616.572-1.408 1.056-.573.352-1.188.748-.617.351-1.232.66a8 8 0 0 1-1.188.44 3.1 3.1 0 0 1-1.144.132 3.2 3.2 0 0 1-1.1-.264q-.528-.264-.528-1.1 0-.485.264-.836.22-.352.484-.352.22 0 .352.22.131.219.308.528.175.264.396.484.22.22.616.22h.264q.351 0 1.716-.616 2.42-1.145 4.048-2.816a35 35 0 0 0 2.992-3.388q.66-.66.968-.66.132 0 .308.132.219.087.264.352.087.264-.132.748-.177.44-.748 1.144-.353.351-.836 1.056-.441.704-.924 1.496-.44.792-.836 1.496-.352.703-.484 1.012.044.351.572.044a8.4 8.4 0 0 0 1.276-.88 19 19 0 0 0 1.452-1.232q.703-.705 1.056-1.188m22.752 1.012q0 .263-.66.704-5.412 3.651-7.304 3.652-1.232 0-1.232-1.408 0-.792.308-1.584.44-1.1.44-1.144 0-.177-.132-.176-.044 0-.22.088-.968.967-2.816 2.332-2.376 1.76-3.3 1.76-1.056 0-1.056-1.056 0-.616 1.54-3.388 1.54-2.817 1.54-3.256 0-.484-.792-.484-.176 0-.176-.528.396-.132.836-.132 1.54 0 1.54.88 0 .967-1.364 3.256-1.364 2.287-1.364 2.86 0 .352.308.352.705 0 3.432-2.332 2.772-2.333 4.268-4.224.66-.66.968-.66.572 0 .572.572 0 .307-.308.792-2.64 3.96-2.64 5.148 0 1.1 1.012 1.1 1.54 0 5.588-2.772.22-.177.616-.396.132-.132.264-.132t.132.176m.759 2.288q.352 0 1.716-.616 2.42-1.144 4.268-2.728 1.892-1.629 3.212-3.344.66-.66.968-.66.572 0 .572.572 0 .351-.308.792-2.64 3.96-2.64 5.148 0 1.1 1.012 1.1 1.54 0 5.588-2.772.087-.089.396-.308.352-.22.484-.22t.132.176q0 .263-.66.704-5.457 3.651-7.304 3.652-1.233 0-1.232-1.408 0-.441.088-.924.132-.528.264-.924.175-.396.264-.66.132-.264.132-.22 0-.177-.132-.176-.22 0-.924.528-.66.528-2.2 1.408-.748.351-1.364.704-.616.351-1.188.66a7 7 0 0 1-1.1.484 2.8 2.8 0 0 1-1.1.132 3.2 3.2 0 0 1-1.1-.264q-.528-.264-.528-1.1 0-.485.264-.836.22-.352.484-.352.22 0 .352.22.132.219.308.528.176.264.396.484t.616.22zm15.383 0q.351 0 1.716-.616 2.42-1.144 4.268-2.728 1.892-1.629 3.212-3.344.66-.66.968-.66.572 0 .572.572 0 .351-.308.792-2.64 3.96-2.64 5.148 0 1.1 1.012 1.1 1.54 0 5.588-2.772.087-.089.396-.308.351-.22.484-.22.132 0 .132.176 0 .263-.66.704-5.457 3.651-7.304 3.652-1.233 0-1.232-1.408 0-.441.088-.924.132-.528.264-.924.176-.396.264-.66.132-.264.132-.22 0-.177-.132-.176-.22 0-.924.528-.66.528-2.2 1.408-.749.351-1.364.704-.617.351-1.188.66a7 7 0 0 1-1.1.484 2.8 2.8 0 0 1-1.1.132 3.2 3.2 0 0 1-1.1-.264q-.528-.264-.528-1.1 0-.485.264-.836.22-.352.484-.352.22 0 .352.22.131.219.308.528.176.264.396.484t.616.22zm28.846-2.288q0 .263-.66.704-5.411 3.651-7.304 3.652-1.232 0-1.232-1.408 0-.792.308-1.584.44-1.1.44-1.144 0-.177-.132-.176a.8.8 0 0 0-.22.088q-.968.967-2.816 2.332-2.376 1.76-3.3 1.76-1.056 0-1.056-1.056 0-.616 1.54-3.388 1.54-2.817 1.54-3.256 0-.484-.792-.484-.176 0-.176-.528.396-.132.836-.132 1.54 0 1.54.88 0 .967-1.364 3.256-1.364 2.287-1.364 2.86 0 .352.308.352.705 0 3.432-2.332 2.772-2.333 4.268-4.224.66-.66.968-.66.573 0 .572.572 0 .307-.308.792-2.64 3.96-2.64 5.148 0 1.1 1.012 1.1 1.54 0 5.588-2.772.22-.177.616-.396.132-.132.264-.132t.132.176m11.935 0q0 .176-.44.528-1.936 1.628-3.916 1.628-1.231 0-2.112-.66-2.024 2.64-4.4 2.64-1.76 0-1.76-2.2 0-2.86 2.816-5.764 2.376-2.42 3.476-2.42.704 0 .704.44 0 .132-.264.352-1.056.219-2.86 2.244-2.2 2.463-2.2 4.752 0 1.496 1.056 1.496 1.54 0 3.124-1.804-.836-.924-.836-2.288 0-1.584.792-2.728.704-.969 1.496-.968.792 0 .924 1.1 0 1.935-1.364 4.18.748.836 2.024.836 1.716 0 3.344-1.408.132-.132.264-.132t.132.176m-4.84-3.388q0-.44-.308-.44-.396 0-.836.704-.44.703-.44 1.804 0 .924.396 1.54 1.188-1.848 1.188-3.608m8.82 5.808q-.132.175-.352.484l-.44.528a2.3 2.3 0 0 1-.352.484q-.175.22-.264.22-.572 0-.572-.616 0-.22.308-.88.528-.749 1.056-1.452.528-.705 1.012-1.452 1.54-2.2 1.54-3.124 0-.396-.264-.396-.175 0-.528.176-1.144.836-2.728 2.024a170 170 0 0 1-3.652 2.728h-.308q-.308 0-.308-.088 0-.089.484-.44a182 182 0 0 1 3.212-2.508q1.716-1.32 3.608-2.728.485-.44 1.364-.44t.88.792q0 .88-1.276 2.816a2.3 2.3 0 0 1-.22.352q-.132.131-.22.308h.836q.485 0 1.1-.044 1.057-.088 1.804 0l.352-.616q.177-.309.396-.66.484-.749.924-1.364.485-.617.968-1.1.308-.396.968-.396.352.087.352.22l-1.54 2.552q-1.54 2.551-1.54 3.696 0 1.364 1.188 1.364 1.497 0 4.356-2.596.132-.132.264-.132t.132.176q0 .264-.88.88-1.407 1.232-2.552 1.892-1.143.615-2.156.616-1.98 0-1.98-1.672 0-1.101.484-2.244a15.7 15.7 0 0 0-2.86.044q-.615.044-.792.044h-.264q-.615.88-1.1 1.672-.44.792-.44.88m32.017-3.432q.528-.616 1.32-1.584a66 66 0 0 0 1.54-1.848q.396-.264.792-.132t.22.352q-1.32 1.98-1.936 3.52t-.616 2.156q0 1.1 1.012 1.1 1.54 0 5.588-2.772.087-.089.396-.308.352-.22.484-.22t.132.176q0 .263-.66.704-5.457 3.651-7.304 3.652-1.232 0-1.232-1.408 0-.441.088-.924.132-.528.264-.924.176-.396.264-.66.132-.264.132-.22 0-.177-.132-.176-.308.351-.968 1.012-.66.66-1.408 1.32-.749.66-1.496 1.144-.749.44-1.188.396-.528-.045-.66-.352-.132-.353 0-.836.132-.484.44-1.056t.66-1.1q.087-.132.308-.484.219-.396.396-.748.22-.353.308-.572.087-.22-.088-.088-.045-.088-.352.264-.264.308-.748.836t-1.144 1.144q-.616.572-1.408 1.056-.573.352-1.188.748-.617.351-1.232.66a8 8 0 0 1-1.188.44 3.1 3.1 0 0 1-1.144.132 3.2 3.2 0 0 1-1.1-.264q-.528-.264-.528-1.1 0-.485.264-.836.22-.352.484-.352.22 0 .352.22.131.219.308.528.175.264.396.484.22.22.616.22h.264q.351 0 1.716-.616 2.42-1.145 4.048-2.816a35 35 0 0 0 2.992-3.388q.66-.66.968-.66.131 0 .308.132.219.087.264.352.087.264-.132.748-.177.44-.748 1.144-.353.351-.836 1.056-.441.704-.924 1.496-.44.792-.836 1.496-.352.703-.484 1.012.044.351.572.044a8.5 8.5 0 0 0 1.276-.88q.747-.573 1.452-1.232.704-.705 1.056-1.188m18.836 1.012q0 .307-1.804 1.452-4.444 2.816-6.38 2.816-2.86 0-2.86-3.344 0-2.465 2.376-4.928 2.42-2.508 4.576-2.508.66 0 .66.616 0 1.495-2.596 4.224-2.068 2.156-3.388 2.948.132 1.936 1.848 1.936 1.628 0 5.456-2.2.308-.177 1.716-1.056.132-.132.264-.132t.132.176m-4.796-5.06q0-.528-.308-.528-1.1 0-2.684 2.2-1.584 2.199-1.628 3.96.836-.264 2.64-2.288 1.98-2.2 1.98-3.344m14.273 5.06q0 .176-.66.704a350 350 0 0 0-3.476 2.288q-2.508 1.496-4.092 1.496-.924 0-1.628-.66t-.704-1.496q0-2.904 2.816-5.324 2.507-2.157 4.664-2.156 1.364 0 1.364 1.1 0 .615-1.804 2.42a.55.55 0 0 1-.396.176q-.352 0-.352-.396 0-.177.132-.264.132-.132.528-.968.396-.88.396-1.32 0-.132-.308-.132-1.1 0-3.212 1.804-2.552 2.155-2.552 4.444 0 1.671 1.452 1.672 2.244 0 6.82-3.036.22-.177.616-.396.132-.132.264-.132t.132.176m26.525 0q0 .263-.66.704-3.125 2.112-3.476 2.332-1.98 1.188-3.3 1.188-.748 0-1.276-.528a1.82 1.82 0 0 1-.484-1.276q0-2.2 2.816-6.292.22-.309.22-.396 0-.044-.044-.044-.177 0-.616.308l-5.456 4.092a153 153 0 0 1-3.74 3.08q-.353.264-.968.484-.309 0-.308-.44 0-.88 1.452-2.816 1.496-1.98 1.496-2.772 0-.748-.704-.748-1.056 0-4.224 2.86a51 51 0 0 0-3.784 3.74q-.617.66-.968.66-.572 0-.572-.616 0-.177.308-.88a179 179 0 0 0 2.068-2.904q1.54-2.2 1.54-3.124 0-.396-.264-.396-.132 0-.528.176l-6.38 4.752h-.308q-.308 0-.308-.088 0-.132.484-.44a416 416 0 0 1 6.82-5.236q.528-.44 1.364-.44.88 0 .88.792 0 .175-.088.528-.88 1.54-2.244 3.916-.177.308-.176.396 0 .044.088.044l.132-.044 3.256-2.816q2.507-2.112 3.608-2.112 1.452 0 1.452.924 0 .792-.88 2.42-.837 1.584-.836 1.716 0 .132.088.132.175 0 .616-.308l9.152-6.908q.44-.352.924-.352.308 0 .44.132.132.088.132.352a.82.82 0 0 1-.176.528q-1.233 1.76-2.508 3.564-1.496 2.287-1.496 3.96 0 1.056 1.144 1.012 1.364-.044 3.08-1.1l2.816-1.76q.132-.132.264-.132t.132.176"/></svg>