<svg xmlns="http://www.w3.org/2000/svg" width="159" height="66" fill="none" viewBox="0 0 159 66"><path fill="#f5cdcb" d="M91.152 56.932c.212-.32.46-.623.63-.964 2.34-4.635 4.338-9.396 5.375-14.52 1.022-5.044.476-9.96-1.078-14.812a18 18 0 0 1-.488-1.764c-.153-.744.123-1.2.864-1.359 1.79-.387 3.413-.01 4.754 1.259.264.25.421.707.458 1.085.078.774.054 1.56.045 2.341 0 .45.21.691.637.732.707.066 1.414.15 2.121.153 5.43.028 10.864-.046 16.292.112 1.59.046 2.616-.41 3.722-1.493 1.611-1.588 3.47-2.927 5.21-4.39.356-.299.648-.676.972-1.014-.747-1.592-1.568-3.175-2.242-4.818-1.054-2.574-2.03-5.179-2.989-7.791-.209-.563-.422-.676-1.002-.502a329 329 0 0 1-7.342 2.038c-.481.113-.979.13-1.467.052l9.126-3.322c-.055-.433-.113-.845-.159-1.256l.288-.137.781 1.138c.745-.292 1.579-.563 2.368-.935 2.184-1.044 4.427-1.999 6.483-3.255 1.17-.716 2.043-.57 3.158-.113 2.392.984 4.832 1.855 7.241 2.801.732.287 1.147.024 1.431-.627q.123-.346.321-.656c.132-.18.338-.303.511-.45.169.214.403.407.487.652.069.261.066.536-.008.796-.17.708.154.918.806 1.028 1.736.293 3.462.647 5.188.994.446.089.88.239 1.32.361l.007.232c-.406.058-.821.202-1.217.159-1.772-.19-3.538-.43-5.301-.655-.287-.037-.571-.09-.943-.149-.154 1.03-.24 2.026-.46 2.984-.862 3.758-1.692 7.525-2.7 11.246-.288 1.065.051 1.678.645 2.374 1.679 1.964 3.823 3.327 5.994 4.66 2.052 1.259 4.034 2.59 5.342 4.7.983 1.586 1.643 3.23 1.598 5.16-.02.858-.677.83-1.039 1.164.364.675.757 1.309 1.045 1.988.127.3.102.703.034 1.036-.083.358-.23.698-.436 1.002-.676 1.041-1.422 2.026-1.682 3.304-.139.682-.665 1.169-1.526 1.252-.781.076-1.542.393-2.298.645-.143.047-.253.276-.324.443-.189.45-.328.922-.527 1.367-.368.82-.876.998-1.637.5-.564-.366-1.05-.852-1.648-1.35l-1.188 1.76c-.472.697-.903 1.463-1.979.984-.113-.05-.36.17-.537.277-.765.468-1.504.99-2.303 1.393-.53.269-1.155.328-1.649-.146-.494-.475-.364-1.072-.121-1.576.507-1.053 1.086-2.072 1.665-3.087.396-.695.665-1.394.414-2.38-.338.39-.626.676-.86.988-1.699 2.291-3.757 4.147-6.324 5.456-.932.475-1.887.458-2.838.466a1.484 1.484 0 0 1-1.522-1.254c-.15-.81-.317-1.656-.226-2.46.193-1.776.541-3.536.827-5.303l.347.043c-.098 1.148-.225 2.294-.287 3.443a65 65 0 0 0-.095 3.57c0 .296.101.582.286.811.191.209.529.283.802.416l.289-.604c.51-1.075.953-2.19 1.545-3.218.95-1.65 2.019-3.23 2.986-4.872.225-.38.464-1.148.306-1.284a3.44 3.44 0 0 0-1.712-.788c-.486-.066-1.067.17-1.531.414a142 142 0 0 0-5.076 2.784c-.805.464-1.547 1.038-2.455 1.656 1.911.675 3.209 1.628 3.624 3.41l-.226.214c-.225-.258-.471-.5-.668-.779-.576-.815-1.262-1.493-2.212-1.855-.661-.25-1.233-.225-1.816.304a13.4 13.4 0 0 1-2.287 1.698c-1.044.603-1.779.215-1.903-.987a13 13 0 0 1 .013-2.628c.495-5.065 2.128-9.813 4.216-14.42 1.009-2.224 2.062-4.427 3.092-6.641a5 5 0 0 0 .171-.507l-.17-.144c-.972.788-2.021 1.509-2.899 2.395-2.03 2.045-3.975 4.174-5.957 6.267-.572.604-1.202 1.16-1.705 1.815a6.2 6.2 0 0 0-.909 1.718c-.211.594-.017.726.621.628 1.083-.168 2.167-.367 3.256-.435.397-.024 1.022.186 1.167.476s-.015.94-.267 1.247c-.6.727-1.308 1.37-2.015 2.001-.857.762-1.786 1.444-2.63 2.219-.576.528-.505.78.152 1.173a2.65 2.65 0 0 0 2.184.305c.334-.11.69-.132 1.035-.066-.243.225-.451.575-.737.651-.616.164-1.299.35-1.899.235-.825-.157-1.699-.502-1.975-1.44-.276-.94.502-1.429 1.062-1.929.948-.844 1.988-1.584 2.951-2.411.504-.433.926-.961 1.385-1.447l-.113-.237c-.664.055-1.333.078-1.988.186-.172.028-.339.3-.439.495-.346.706-.661 1.428-.987 2.144l-.354-.125.617-2.123c-.036-.019-.079-.065-.113-.06-1.729.201-2.275-.389-1.738-2.039a5.5 5.5 0 0 1 1.094-1.867c1.338-1.522 2.754-2.977 4.137-4.46.179-.192.345-.397.649-.745-.435-.032-.703-.067-.97-.07-5.652-.029-11.304-.048-16.954-.088a15 15 0 0 1-2.043-.19c-.716-.104-1.137-.54-1.176-1.281-.044-.829-.01-1.666-.123-2.485-.053-.38-.283-.84-.583-1.066-.986-.74-2.143-.875-3.352-.726-.656.082-.523.475-.41.907.552 2.101 1.191 4.185 1.614 6.311.928 4.66.298 9.236-1.008 13.748-1.096 3.789-2.612 7.411-4.388 10.928-.237.48-.538.928-.895 1.328-.503.553-1.128.493-1.534-.144a6.7 6.7 0 0 1-.7-1.524c-.902-2.823-1.121-5.741-1.144-8.682-.053-6.805.995-13.476 2.527-20.086.925-3.994 2.013-7.962 2.27-12.08.27-4.32-.353-8.478-2.409-12.347a10.3 10.3 0 0 0-1.027-1.507c-.339-.43-.79-.432-1.12 0-.45.575-.942 1.151-1.223 1.81-1.466 3.432-2.837 6.906-4.31 10.336-1.556 3.624-1.854 7.391-1.592 11.272.11 1.484.047 2.976-.19 4.446-.44 2.599-2.63 4.42-5.27 4.625-1.676.13-2.522-.702-2.435-2.392.033-.657.094-1.318.074-1.975a3.67 3.67 0 0 0-1.203-2.593 3.68 3.68 0 0 0-2.701-.948c-.707.036-1.177.423-1.364 1.04a21 21 0 0 0-.609 2.702c-.225 1.402-.733 2.63-1.952 3.468a1 1 0 0 0-.113.086c-1.887 1.277-3.166.736-3.51-1.503-.12-.772-.161-1.555-.278-2.327-.056-.368-.201-.723-.349-1.23-.257.288-.413.43-.531.6-1.88 2.665-3.248 5.535-3.835 8.78a1292 1292 0 0 1-3.573 18.51c-.53 2.665-1.284 5.29-2.908 7.53a8.5 8.5 0 0 1-2.081 2.015c-1.114.754-2.187.576-2.971-.512a12 12 0 0 1-1.542-2.966c-1.147-3.235-1.466-6.621-1.52-10.024-.15-9.632 1.363-19.019 4.19-28.216a206 206 0 0 0 2.747-9.794c.272-1.066.287-2.232.217-3.34-.113-1.708-1.171-2.32-2.752-1.665-1.932.8-3.23 2.342-4.388 3.992-2.156 3.076-3.297 6.565-4.108 10.192a53 53 0 0 1-1.425 5.299c-.643 1.924-1.189 2.206-3.483 2.211-3.963.01-7.927 0-11.89 0-1.786 0-3.574-.028-5.358.022-.391.011-.825.225-1.155.468-2.267 1.645-4.477 3.37-6.777 4.965-1.215.844-2.58 1.464-3.865 2.214a4.72 4.72 0 0 1-3.114.562c-.428-.063-.903-.562-1.128-.99-.241-.45-.293-1.032-.299-1.56-.043-3.954-.113-7.91-.055-11.863.056-3.602.771-7.091 2.414-10.316 1.705-3.35 3.97-3.828 7.106-3.452 1.03.124 1.962 1.276 2.16 2.427.311 1.801.626 3.602.945 5.431.93.113 1.837.155 2.717.338 1.525.312 3.055.634 4.54 1.093 1.218.378 1.602 1.179 1.675 2.456.113 2.07-.84 3.715-1.963 5.31-.2.283-.564.458-.856.675-.53.38-1.068.751-1.787 1.256.394.06.564.112.733.112l15.78-.028c.354 0 .775.023 1.051.206.55.364.949.2 1.26-.24.31-.439.606-.9.748-1.407.494-1.737.963-3.483 1.353-5.244.847-3.77 2.037-7.394 4.303-10.581.983-1.383 2.084-2.665 3.552-3.553a6.6 6.6 0 0 1 1.874-.795c1.277-.297 2.312.232 2.618 1.495.257 1.066.444 2.268.213 3.31-.73 3.282-1.548 6.558-2.557 9.765-2.947 9.366-4.613 18.921-4.52 28.754.034 3.551.348 7.077 1.521 10.469.246.715.561 1.406.942 2.06.843 1.424 1.858 1.56 3.136.478 1.07-.9 1.771-2.075 2.35-3.325 1.232-2.666 1.77-5.526 2.314-8.382.985-5.158 1.994-10.311 2.92-15.48.604-3.376 2.062-6.34 4.014-9.105q.192-.268.414-.512c.36-.395.79-.402 1.039.037a5.8 5.8 0 0 1 .637 1.682c.183.881.207 1.801.38 2.68.195 1.013.705 1.25 1.648.823 1.023-.462 1.805-1.192 2.113-2.299.19-.675.25-1.392.416-2.079.171-.708.324-1.436.622-2.093.464-1.013 1.363-1.434 2.475-1.298 2.645.324 4.201 2.101 4.162 4.772-.01.585-.077 1.17-.09 1.754-.02.934.328 1.288 1.26 1.324 1.918.077 4.159-1.396 4.72-3.23a10 10 0 0 0 .425-2.731c.036-2.027-.046-4.053-.076-6.079-.032-1.836.27-3.663.892-5.392 1.58-4.411 3.055-8.87 5.286-13.018a8.5 8.5 0 0 1 1.22-1.726c.764-.825 1.467-.83 2.175.024.58.693 1.074 1.452 1.473 2.261 2.037 4.156 2.697 8.591 2.091 13.127-.522 3.911-1.34 7.79-2.186 11.65-1.48 6.753-2.577 13.541-2.322 20.47.088 2.375.573 4.738.934 7.098.09.579.405 1.126.617 1.689zm35.266-46.786-.088-.081.021.148c.097.351.156.718.297 1.05 1.409 3.326 2.845 6.642 4.237 9.973.37.887.868 1.495 1.868 1.723.573.13 1.128.488 1.611.846.902.666 1.735 1.425 2.631 2.104.203.153.582.253.806.172 1.495-.536 2.945-1.203 4.458-1.672.824-.257 1.117-.8 1.273-1.488a458 458 0 0 0 1.87-8.578c.406-1.982.739-3.98 1.08-5.975.039-.225-.079-.475-.125-.713-.21.123-.444.225-.624.379-.179.154-.301.383-.451.57-1.593 1.938-3.27 3.777-5.703 4.695-.247.092-.501.163-.751.245l-.105-.198c2.434-1.617 4.568-3.537 6.316-5.974-.318-.101-.528-.153-.727-.232-2.355-.945-4.737-1.84-7.05-2.871-.797-.355-1.423-.652-2.099.102q-.167.149-.376.225-4.212 1.98-8.423 3.953c-.147.07-.289.146-.435.218l-.083.234c1.934 1.002 3.835 2.077 5.813 2.983s4.048 1.648 6.245 2.53c-1.454.24-2.607-.138-3.69-.636-2.623-1.2-5.202-2.48-7.796-3.732m23.817 40.934c.848-1.429 1.659-4.165 1.728-5.802.028-.691.257-.875.92-.704.828.214 1.649.45 2.481.667.146.037.397.066.451-.007.579-.824 1.128-1.67 1.684-2.51l-.148-.21c-1.127.267-2.269.569-3.383-.346l.103 1.255a16.7 16.7 0 0 1-1.487-3.032c-1.983-5.542-5.138-10.4-8.718-15.016-.287-.37-.582-.519-1.06-.276-.587.298-1.219.506-1.825.762-.966.408-1.976.743-2.875 1.267-.61.355-.99.32-1.474-.13-1.62-1.5-3.232-3.02-5.541-3.546q-.164.228-.299.474c-1.062 2.115-2.168 4.211-3.166 6.357-2.467 5.3-4.737 10.677-5.394 16.563-.119 1.065-.403 2.152.092 3.396.676-.473 1.337-.84 1.888-1.33 2.543-2.258 5.479-3.905 8.459-5.494q.817-.417 1.681-.726c1.056-.398 2.12-.66 3.188.167a4 4 0 0 0 0-.387c-.516-3.669-1.04-7.335-1.537-11.007-.044-.328-.338-.857.259-.95.136-.023.371.555.555.86.022.038.011.095.018.144.418 2.994.867 5.984 1.248 8.982.518 4.061.828 3.231-1.324 6.885-.805 1.368-1.661 2.702-2.45 4.084-.353.618-.595 1.3-.91 2 .218.034.295.072.353.053q.35-.107.685-.256c2.85-1.318 5.031-3.425 6.902-5.884.127-.167.106-.499.059-.735-.37-1.867-.79-3.723-1.135-5.593-.127-.683-.1-1.395-.143-2.094l.226-.022c.099.338.217.684.294 1.032.429 1.956.848 3.912 1.271 5.868.113.495.166.981.736 1.255.21.1.331.525.372.818.138 1.013-.171 1.914-.698 2.777a24 24 0 0 0-1.46 2.78c-.25.562.017.812.602.612 1.647-.563 2.903-1.563 3.259-3.352q.393-2.011.582-4.052c.131-1.369.543-1.957 1.884-2.355 1.03-.305 1.664.084 1.692 1.153q.022 1.461-.179 2.909c-.207 1.356.183 2.114 1.534 2.699zm-3.384-23.212c3.103 3.87 5.172 8.105 6.569 12.608.693-.28 1.264-.55 1.861-.742.555-.179 1.148-.24 1.691-.429.166-.057.382-.407.339-.563-.66-2.518-1.675-4.898-3.772-6.529-1.975-1.542-4.128-2.855-6.203-4.264-.065-.045-.178-.03-.484-.077zm1.276 18.503c-.028-.366 0-.7-.101-.988a.64.64 0 0 0-.508-.338c-.839.06-1.375.637-1.434 1.48-.133 1.925-.294 3.842-1.027 5.66-.044.113.018.26.03.392.156-.017.353.018.457-.064.166-.131.268-.338.398-.517l1.546-2.123c.07-.096.176-.19.192-.297.16-1.076.306-2.162.448-3.202zm4.789-.945c-.226 1.107-.441 2.108-.653 3.122 1.764-.059 2.471-.512 2.932-1.752.177-.48.068-.763-.404-.895-.609-.167-1.226-.308-1.874-.471zm4.146-3.522c-.817-1.557-1.304-1.8-2.42-1.229-.676.338-.698.616-.075 1.087.777.591 1.609.364 2.496.146zM128.685 25.55l.052-.046-.049-.052-.054.072zm-6.638 4.443-.048.035c.013.016.025.04.041.043.015.002.031-.02.048-.033z"/><path fill="#f5cdcb" d="m128.686 25.553-.051-.026.054-.072.049.051zm-6.638 4.443.041.045c-.017.012-.034.033-.049.032-.014 0-.027-.027-.04-.043zM147.35 43.24c-.174-.28-.394-.542-.515-.844-1.667-4.165-3.913-8.018-6.162-11.878a5 5 0 0 1-.5-1.132c-.044-.15.13-.364.204-.549.159.08.393.113.467.246 2.432 4.165 5.21 8.159 6.535 12.882.113.387.133.8.197 1.2zm-5.415-22.347c-.29.015-.609.113-.865.03a19 19 0 0 1-2.369-.94c-.401-.196-.709-.213-1.15-.124-1.498.303-3.017.5-4.529.735a.43.43 0 0 1-.286-.026 5 5 0 0 1-.477-.441c.168-.1.328-.27.504-.288.677-.073 1.372-.039 2.038-.157.979-.173 1.938-.45 2.91-.668.246-.055.547-.12.758-.029 1.049.45 2.077.956 3.108 1.45q.204.123.38.284c-.004.058-.013.12-.022.174"/></svg>