<svg xmlns="http://www.w3.org/2000/svg" width="168" height="96" fill="none" viewBox="0 0 168 96"><path fill="#681e2a" d="M91.089 73.876c.271-.271.573-.52.809-.82 3.213-4.079 6.115-8.349 8.147-13.167 2.001-4.74 2.441-9.667 1.88-14.73a17 17 0 0 1-.128-1.826c-.003-.76.358-1.151 1.116-1.16 1.831-.025 3.347.666 4.41 2.175.209.299.272.777.234 1.155-.077.774-.256 1.54-.42 2.304q-.135.659.479.843c.679.205 1.356.427 2.048.57 5.317 1.105 10.658 2.11 15.946 3.342 1.55.359 2.646.116 3.944-.727 1.895-1.236 3.982-2.18 5.978-3.27.408-.221.769-.533 1.154-.8-.417-1.71-.908-3.423-1.242-5.168-.524-2.73-.963-5.477-1.385-8.228-.094-.593-.28-.746-.883-.691-2.53.216-5.065.384-7.601.542a3.8 3.8 0 0 1-1.447-.24l9.603-1.446c.032-.436.057-.851.093-1.263l.31-.078.54 1.27c.788-.137 1.659-.238 2.506-.445 2.348-.591 4.736-1.082 7-1.906 1.288-.47 2.115-.153 3.118.516 2.149 1.439 4.368 2.776 6.541 4.181.661.427 1.12.25 1.527-.33q.19-.316.445-.58c.164-.15.391-.23.59-.34.123.244.315.479.348.736.016.27-.042.539-.166.779-.307.66-.03.93.587 1.167 1.643.63 3.264 1.32 4.888 2.003.419.175.815.408 1.221.616l-.039.228c-.409-.024-.845.035-1.224-.086-1.699-.536-3.383-1.123-5.066-1.693-.273-.093-.541-.201-.895-.332-.355.979-.637 1.938-1.042 2.833-1.59 3.512-3.151 7.04-4.877 10.487-.493.987-.283 1.655.162 2.455 1.256 2.258 3.088 4.02 4.951 5.756 1.762 1.64 3.44 3.338 4.304 5.666.649 1.75.97 3.492.543 5.375-.19.836-.828.678-1.249.934.222.734.482 1.433.63 2.156.065.319-.039.71-.173 1.023a3 3 0 0 1-.625.895c-.87.887-1.796 1.704-2.305 2.905-.271.64-.882 1.013-1.743.924-.781-.08-1.589.08-2.38.177-.15.018-.302.22-.405.37-.275.404-.505.839-.789 1.235-.523.73-1.055.805-1.703.166-.48-.471-.86-1.044-1.347-1.65l-1.514 1.489c-.601.59-1.175 1.255-2.135.573-.1-.072-.386.094-.581.165-.843.306-1.671.671-2.533.908-.573.158-1.197.093-1.587-.47-.39-.564-.145-1.123.193-1.57.706-.93 1.475-1.814 2.245-2.694.525-.603.927-1.235.877-2.25-.409.315-.747.537-1.039.796-2.119 1.91-4.505 3.32-7.28 4.094-1.007.28-1.94.075-2.874-.106a1.483 1.483 0 0 1-1.244-1.53c.014-.824.018-1.687.267-2.456.541-1.703 1.232-3.358 1.862-5.034l.332.11c-.324 1.107-.676 2.204-.965 3.319a66 66 0 0 0-.801 3.48c-.058.29-.016.59.12.852.146.242.463.382.704.566l.403-.534c.712-.953 1.368-1.957 2.152-2.848 1.258-1.43 2.62-2.766 3.892-4.183.297-.329.684-1.034.556-1.198a3.45 3.45 0 0 0-1.522-1.112c-.464-.16-1.08-.044-1.583.102q-2.779.804-5.527 1.722c-.881.295-1.722.71-2.735 1.136 1.739 1.041 2.822 2.233 2.876 4.06l-.264.167c-.17-.299-.363-.585-.5-.896-.403-.913-.941-1.714-1.801-2.257-.598-.377-1.164-.465-1.84-.062-.814.494-1.678.9-2.578 1.21-1.143.385-1.786-.142-1.67-1.345.092-.873.271-1.735.535-2.572 1.489-4.867 4.03-9.197 6.991-13.298 1.429-1.98 2.899-3.93 4.347-5.897q.147-.224.269-.462l-.139-.175c-1.109.58-2.28 1.078-3.316 1.772-2.395 1.602-4.724 3.303-7.081 4.962-.68.478-1.409.898-2.032 1.44a6.3 6.3 0 0 0-1.231 1.504c-.325.54-.161.708.484.739 1.095.05 2.197.07 3.278.22.394.054.965.384 1.05.698s-.202.918-.509 1.168c-.733.594-1.555 1.084-2.373 1.562-.991.577-2.036 1.062-3.018 1.653-.668.404-.649.666-.083 1.18a2.66 2.66 0 0 0 2.081.732 2.1 2.1 0 0 1 1.026.141c-.282.173-.556.474-.85.492-.637.039-1.343.085-1.909-.146-.777-.318-1.565-.829-1.65-1.804s.776-1.3 1.424-1.68c1.096-.639 2.262-1.158 3.37-1.777.58-.325 1.098-.76 1.644-1.144l-.063-.255c-.662-.077-1.322-.188-1.986-.212-.173-.006-.391.226-.528.398-.479.624-.931 1.27-1.393 1.907l-.322-.193 1.026-1.959c-.032-.026-.065-.08-.099-.081-1.734-.146-2.152-.832-1.299-2.343A5.5 5.5 0 0 1 121 57.844c1.612-1.226 3.289-2.37 4.939-3.55.214-.153.417-.32.783-.603-.419-.117-.675-.204-.937-.26-5.534-1.149-11.069-2.288-16.599-3.448a15 15 0 0 1-1.965-.59c-.681-.245-1.007-.757-.899-1.49.121-.821.321-1.635.372-2.46.024-.383-.11-.88-.36-1.16-.819-.922-1.926-1.284-3.141-1.377-.66-.05-.607.362-.582.808.125 2.169.338 4.338.331 6.506-.015 4.751-1.539 9.112-3.714 13.275-1.826 3.496-4.03 6.746-6.468 9.84a6 6 0 0 1-1.14 1.125c-.603.442-1.204.26-1.475-.445a6.7 6.7 0 0 1-.385-1.633c-.324-2.946.04-5.85.601-8.737 1.297-6.68 3.647-13.01 6.46-19.185 1.698-3.732 3.551-7.405 4.62-11.39 1.121-4.182 1.335-8.38.087-12.58a10.3 10.3 0 0 0-.708-1.681c-.247-.489-.689-.58-1.097-.222-.556.474-1.153.942-1.558 1.532-2.118 3.073-4.15 6.206-6.274 9.276-2.244 3.244-3.283 6.877-3.796 10.733a19 19 0 0 1-1.067 4.32c-.947 2.46-3.456 3.81-6.083 3.487-1.669-.204-2.333-1.188-1.912-2.827.162-.638.353-1.273.464-1.92a3.67 3.67 0 0 0-.665-2.781 3.68 3.68 0 0 0-2.46-1.465c-.7-.105-1.237.182-1.543.75q-.649 1.225-1.132 2.527c-.5 1.33-1.24 2.432-2.602 3.012q-.068.028-.127.061c-2.103.878-3.249.094-3.142-2.169.036-.78.15-1.555.188-2.335.019-.372-.053-.748-.098-1.274-.309.23-.49.34-.64.481-2.37 2.24-4.28 4.781-5.499 7.846a1291 1291 0 0 1-7.172 17.433c-1.048 2.508-2.308 4.931-4.344 6.805a8.5 8.5 0 0 1-2.44 1.562c-1.24.518-2.257.131-2.81-1.091a12 12 0 0 1-.923-3.213c-.482-3.398-.124-6.78.5-10.126 1.762-9.47 5.106-18.37 9.7-26.825q2.43-4.47 4.635-9.055c.477-.99.723-2.13.874-3.23.228-1.697-.687-2.506-2.367-2.178-2.053.402-3.63 1.655-5.092 3.043-2.723 2.586-4.534 5.78-6.048 9.174a53 53 0 0 1-2.447 4.911c-1.012 1.76-1.603 1.927-3.852 1.478-3.886-.777-7.77-1.572-11.655-2.358-1.75-.354-3.496-.736-5.255-1.041-.386-.067-.854.056-1.225.23-2.548 1.162-5.057 2.414-7.627 3.522-1.358.586-2.82.923-4.227 1.403a4.72 4.72 0 0 1-3.164-.066c-.407-.146-.773-.73-.91-1.194-.147-.49-.082-1.07.017-1.588.742-3.884 1.458-7.775 2.298-11.638.77-3.52 2.162-6.798 4.413-9.634 2.334-2.944 4.649-2.964 7.648-1.973.986.325 1.671 1.639 1.637 2.807-.053 1.827-.102 3.654-.151 5.51.89.295 1.77.516 2.596.87 1.432.608 2.869 1.227 4.232 1.972 1.12.612 1.338 1.473 1.156 2.74-.3 2.05-1.561 3.474-2.977 4.813-.253.239-.644.339-.973.493-.595.268-1.196.525-2 .877.373.137.53.222.696.255l15.47 3.102c.349.07.757.175.991.41.467.465.89.384 1.282.015.39-.37.773-.763 1.013-1.23.828-1.605 1.634-3.224 2.366-4.873 1.578-3.527 3.462-6.843 6.316-9.518 1.236-1.16 2.57-2.198 4.185-2.778a6.6 6.6 0 0 1 1.995-.407c1.31-.038 2.22.686 2.27 1.984.04 1.096-.015 2.312-.448 3.286-1.367 3.073-2.818 6.121-4.442 9.065-4.746 8.596-8.274 17.63-10.133 27.286-.67 3.488-1.061 7.006-.584 10.563.098.75.27 1.49.514 2.206.544 1.563 1.512 1.897 2.979 1.09 1.227-.67 2.148-1.682 2.963-2.793 1.735-2.368 2.83-5.065 3.93-7.756 1.988-4.86 4-9.711 5.932-14.593 1.26-3.19 3.278-5.806 5.74-8.129q.24-.225.507-.42c.43-.316.853-.237 1.01.243a5.9 5.9 0 0 1 .291 1.775c.005.9-.154 1.806-.16 2.702-.008 1.032.444 1.365 1.453 1.133 1.095-.25 2.006-.81 2.527-1.834.32-.624.521-1.315.82-1.955.308-.66.602-1.344 1.025-1.929.656-.901 1.62-1.136 2.683-.782 2.528.843 3.701 2.893 3.133 5.503-.125.572-.307 1.13-.436 1.702-.205.91.066 1.327.973 1.547 1.864.456 4.353-.543 5.267-2.229.437-.816.76-1.689.957-2.594.437-1.978.76-3.98 1.131-5.973a15.1 15.1 0 0 1 1.944-5.108c2.422-4.01 4.754-8.088 7.763-11.711a8.5 8.5 0 0 1 1.538-1.45c.912-.657 1.602-.523 2.127.455.43.794.764 1.636.995 2.508 1.172 4.478.939 8.956-.553 13.28-1.288 3.731-2.859 7.371-4.453 10.986-2.79 6.326-5.211 12.761-6.335 19.603-.385 2.345-.378 4.757-.492 7.143-.028.584.173 1.183.27 1.777zm43.842-38.865-.07-.096-.008.15c.025.363.01.734.082 1.088.722 3.538 1.472 7.074 2.176 10.614.187.943.554 1.637 1.489 2.06.536.241 1.009.701 1.411 1.148.752.832 1.419 1.74 2.162 2.584.168.19.52.363.756.328 1.571-.229 3.125-.594 4.7-.754.859-.088 1.254-.562 1.543-1.206a448 448 0 0 0 3.534-8.037c.791-1.862 1.513-3.755 2.244-5.642.082-.213.017-.481.019-.724-.23.08-.48.132-.687.248-.206.115-.371.315-.555.47-1.946 1.583-3.955 3.053-6.521 3.47-.261.041-.523.06-.785.091l-.064-.215c2.707-1.102 5.179-2.56 7.376-4.603-.292-.162-.487-.255-.666-.371-2.121-1.394-4.278-2.743-6.341-4.213-.711-.505-1.266-.92-2.078-.315a1.2 1.2 0 0 1-.414.146l-9.039 2.204c-.157.038-.312.085-.469.127q-.063.107-.128.213c1.697 1.366 3.347 2.796 5.106 4.076s3.641 2.418 5.619 3.718c-1.472-.053-2.527-.651-3.491-1.354-2.332-1.696-4.606-3.463-6.901-5.205m15.228 44.844c1.114-1.232 2.452-3.753 2.844-5.344.164-.671.425-.806 1.041-.507.769.374 1.527.769 2.3 1.145.135.066.376.144.444.083.73-.693 1.436-1.412 2.148-2.125l-.103-.237c-1.159.04-2.337.108-3.248-1.01l-.148 1.251a16.7 16.7 0 0 1-.856-3.266c-.845-5.826-2.975-11.212-5.568-16.447-.207-.42-.467-.624-.984-.48-.634.176-1.294.253-1.94.385-1.027.208-2.084.336-3.069.67-.669.229-1.034.118-1.419-.418-1.29-1.791-2.568-3.601-4.728-4.575a5 5 0 0 0-.387.406c-1.46 1.862-2.96 3.697-4.364 5.602-3.468 4.707-6.76 9.526-8.57 15.165-.329 1.02-.823 2.03-.584 3.347.757-.33 1.478-.559 2.114-.929 2.941-1.71 6.145-2.742 9.381-3.708a14 14 0 0 1 1.792-.378c1.113-.181 2.208-.227 3.091.795a4 4 0 0 0 .076-.38c.223-3.697.436-7.395.677-11.092.022-.33-.161-.907.442-.88.138.005.254.618.373.953.015.042-.008.096-.011.145-.183 3.018-.336 6.037-.557 9.05-.298 4.084.171 3.333-2.663 6.487-1.061 1.181-2.164 2.319-3.211 3.517-.468.536-.841 1.156-1.288 1.78.206.077.274.128.335.122q.365-.036.722-.115c3.055-.727 5.61-2.36 7.932-4.399.157-.138.203-.468.203-.709.008-1.902-.036-3.805-.003-5.706.011-.695.178-1.388.275-2.082l.225.024c.031.35.078.713.084 1.07.032 2.002.056 4.002.083 6.003.012.508-.033.995.471 1.376.187.14.221.58.203.876-.065 1.02-.546 1.842-1.235 2.583a24 24 0 0 0-1.981 2.435c-.357.502-.145.8.468.72 1.726-.226 3.156-.956 3.859-2.639a41 41 0 0 0 1.374-3.857c.399-1.315.921-1.81 2.314-1.934 1.069-.095 1.614.412 1.429 1.465a19 19 0 0 1-.752 2.816c-.471 1.288-.24 2.108.968 2.95zm1.286-23.421c2.274 4.407 3.462 8.97 3.938 13.66.735-.138 1.348-.29 1.971-.358.58-.066 1.173-.008 1.743-.085.174-.024.455-.324.444-.485-.148-2.599-.671-5.133-2.402-7.147-1.63-1.903-3.48-3.618-5.235-5.41-.055-.057-.169-.065-.459-.172zm-2.419 18.388c.045-.364.139-.686.098-.989a.65.65 0 0 0-.432-.431c-.834-.107-1.474.352-1.698 1.166-.512 1.86-1.051 3.707-2.13 5.344-.065.102-.034.258-.048.39.156.014.343.088.461.028.188-.095.33-.278.493-.428l1.936-1.774c.088-.08.21-.152.247-.253.37-1.023.728-2.058 1.074-3.05zm4.881.024c-.44 1.04-.85 1.978-1.259 2.93 1.741.292 2.524-.012 3.222-1.135.268-.435.217-.735-.219-.958-.563-.285-1.14-.545-1.743-.834zm4.762-2.63c-.491-1.688-.92-2.024-2.127-1.685-.73.197-.807.465-.29 1.051.645.733 1.506.676 2.418.637zm-24.57-21.657.06-.035-.037-.06-.068.06zm-7.387 3.039-.054.024c.01.018.016.045.031.05s.035-.014.054-.022z"/><path fill="#681e2a" d="m134.099 50.562-.044-.035.067-.06.037.06zm-7.386 3.038.03.053c-.019.009-.039.026-.054.023-.014-.005-.021-.032-.031-.05zm22.172 18c-.114-.31-.278-.61-.336-.93-.808-4.413-2.246-8.635-3.685-12.864a5 5 0 0 1-.266-1.21c-.013-.155.2-.33.309-.496.14.11.363.188.409.333 1.558 4.565 3.489 9.03 3.851 13.922.034.402-.028.81-.045 1.215zm-.876-22.977c-.287-.043-.619-.01-.854-.143a19 19 0 0 1-2.135-1.39c-.354-.273-.653-.35-1.103-.35-1.528 0-3.056-.108-4.584-.178a.43.43 0 0 1-.276-.082 6 6 0 0 1-.38-.527c.185-.065.375-.199.552-.183.677.063 1.351.235 2.028.25.994.025 1.989-.056 2.985-.078.252-.004.56-.008.748.123.939.65 1.847 1.349 2.759 2.038q.176.16.317.353a2 2 0 0 1-.057.167"/></svg>