<svg xmlns="http://www.w3.org/2000/svg" width="340" height="232" fill="none" viewBox="0 0 340 232"><g fill="#f9e5e9" clip-path="url(#a)"><path d="M27.19 60.36a12 12 0 0 1-1.54-2.75c-2.43-6.73 1.31-23.05 3.67-30.07 3.16-9.36 8.46-18 10.94-27.54 1.19.67 2.56 0 3.55.23s2.11 1.08 3.27 1.26c4.49.68 13.08-1.11 14.3 5.05l-6 1c1.77.11 3.49.37 5.27.52.78.07 2-.53 1.76.73-4.11 2.23-13.43.3-17.6-1.5-1.63-.7-2.11-2-3.26-2.77-.51-.33-.39-.81-1 0-2.92 9.49-7.15 18.57-9.46 28.26-1.26 5.27-4.14 19.47-3.34 24.27.61 3.61 6.53 6.85 9.83 7.28 8.17 1.06 12.07-4.06 14.66-10.9 5.13-13.47 6.65-28.76 9.13-42.86.64 0 1.35-.18 1.78.49.82 1.3-4.15 26.74-5.05 30.19-1.36 5.2-4.53 15.78-8 19.62-2.18 2.38-5.12 3.21-7.8 4.77 5.09 1.57 12.12 5 13.61 10.56s-6.33 5.58-10 4.43c-4.13-1.29-6.33-5.25-9.64-7.7.09 4.93 2.19 11.08 5.79 14.58 3 2.9 5.5 3.3 9.55 3 1-.07 2.57-.89 3-.83 2 .24.74 2-.58 2.77-8.75 5.21-17.07-5.51-18.93-13.11l-1.36-5.42-4.54 20.1c7.7 1.51 22.07 10.79 11 18.33-8.08 5.53-27 2.16-32.26-6.9-4-6.94-2-13.85 6.53-14.82 2.4-.28 8.27 1.32 10-.07.85-.69 3.44-13.49 4.22-15.64l-6.27 6.05c-5.51 3.75-11.24 4.88-17.38 1.77-1.49-.76-5.56-3.52-5-5.5.82-2.85 6.05 2.89 7.82 3.66 4.63 2 8.8.68 13.11-1.36 2.26-1.07 7.34-5 8.73-7 .493-.996.83-2.062 1-3.16-2.39.89-4.37 2.54-6.7 3.61-4.57 2.09-12.34 5.57-14.76-1-1.43-3.88.64-7.26 4-9.25 2.14-.994 4.361-1.8 6.64-2.41zm17.6-56.84c-.37-.81-1.11-1.66-2-1.49.35.82 1.09 1.64 2 1.49m-31 62.54c-1.29 1.37-2.64 5.46-.66 6.6 3.5 2 18.3-4.51 18.48-6.51.31-3.62-9.29-1.74-11.19-1.24s-7.39 3.9-4.3 0c-.36-.33-2.03.83-2.33 1.15M30.2 82.48c.41-3.93 2.58-7.85 3.21-11.67.14-.86.53-1.24-.44-1.9-1 3.86-2.53 8-3.14 11.94-.09.54-.54 1.75.37 1.63m11.07-8c1 3 11.5 6.77 12.53 3.71 1.47-4.34-12.16-8.86-15.55-8.23l5 4.27zm-16.6 17.6c-3.67.93-8.49.1-11.73 2.1s-3.8 3.58-2.34 6.95l1.49-3.52c-1.62 8.68 11.63 10.94 17.86 10.55 1-.06 5.77-1.85 5.28.26-6.45 3.64-14.34 1-20.36-2.26-.14.72 1.24 1.84 1.75 2.27 4.66 3.88 18.29 5.36 23.31 2.18 7.2-4.58-1.1-9.94-5.69-12.26-1.36-.68-6.22-2.18-6.56-2.49a2.27 2.27 0 0 1-.5-1.77h-.49c-.46 2.52-3.82.38-2.02-2.05z"/><path d="M55.37 33.67c-.28.24-2.95-.91-3.5-1.28-1.24-.83-2.41-3.22-3-3.51s-3.24 1.37-4.68 1.18c-2.53-.33-4.34-3.94-5.76-4.35s-2.48.74-3.66.17c3.95-5.09 7.11 1.32 8.87 1.66 1.35.26 3.65-2 6.24-1.2.73.23 5.55 5.29 5.77 5.82a4.3 4.3 0 0 1-.28 1.51m-12.6 20.65c.59 2.18-2.77 3.52-3.51 1.76s2.36-1.41 3.51-1.76m-7.29-2.34c4.36-.94 2.46 2.95.24 2.09-.87-.34-1.5-1.81-.24-2.09m15.89-15.76c1.14 1.12-1.72 2.7-3 2-.48-1.43 2.38-2.55 3-2m-6.08 15.59c-.34-.31-.11-3 1.76-2.51 1.68.43-.68 3.44-1.76 2.51m-9.8-11.56c1.71-.46 2.31 1.64 1 2-1.72.42-2.32-1.65-1-2m14.32 1.5.51 2.51h-2c-.14-1.21-.07-2.59 1.49-2.51m-15.59 4.02c.36.31.67 2.5-.25 2.51s-1.12-3.61.25-2.51m24.15-26.1c.27.27-.55 2.76-1.5 2-.5-1 .89-2.64 1.5-2m-17.61 24.6c.17.18.32 1.88-.74 1.5-1.55-.56.25-2.03.74-1.5m12.57-24.15h-1v1.5h1z"/></g><path fill="#000" d="M28.991 65.479q.11 0 .11.088t-.11.088q-.33-.022-1.364-.022H25.01q-.968 0-1.298.022-.11 0-.11-.088t.11-.088q.705 0 1.012-.484.33-.484.33-1.65v-7.59h-4.752v7.59q0 1.166.308 1.65.33.484 1.034.484.11 0 .11.088t-.11.088q-.33-.022-1.298-.022h-2.618q-1.034 0-1.386.022-.11 0-.11-.088t.11-.088q.726 0 1.078-.484t.352-1.65v-5.456q0-1.167-.352-1.65-.352-.484-1.078-.484-.11 0-.11-.088t.11-.088l1.386.022h9.9l1.298-.022q.11 0 .11.088 0 .087-.11.088-.704 0-1.034.484-.308.484-.308 1.65v5.456q0 1.166.33 1.65.352.484 1.078.484m8.885-10.23q1.143 0 2.09.638.967.616 1.54 1.804.593 1.166.593 2.706 0 1.452-.681 2.75a5.35 5.35 0 0 1-1.826 2.046 4.4 4.4 0 0 1-2.508.77q-.837 0-1.387-.22a5.4 5.4 0 0 1-1.034-.55q-.33-.22-.44-.22-.197 0-.197.374v2.42q0 1.166.307 1.628.33.484.99.528.11 0 .11.066 0 .088-.11.088a50 50 0 0 0-2.288-.044q-1.737 0-2.837.044-.11 0-.11-.088t.11-.088q.66.021.968-.462.33-.484.33-1.694v-9.328q0-.836-.22-1.21-.2-.396-.77-.396-.11 0-.375.044-.087.022-.11-.044 0-.089.066-.11 1.035-.243 2.113-.638 1.1-.396 1.781-.858.111-.066.176-.044.089.021.067.132a23 23 0 0 0-.154 1.936q0 .264.022.506.044.22.11.198.593-1.188 1.474-1.936.88-.748 2.2-.748m-.616 10.384q1.407 0 2.023-.792.639-.792.639-2.31-.001-1.474-.506-2.838-.507-1.365-1.364-2.2-.836-.837-1.827-.836-.99 0-1.605.836-.594.836-.594 2.244v1.474q0 1.914.857 3.168.881 1.254 2.377 1.254m19.114-.154q.11 0 .11.088t-.11.088q-.33-.022-1.364-.022h-2.618q-1.034 0-1.364.022-.11 0-.11-.088t.11-.088q.726 0 1.056-.484.352-.484.352-1.65v-5.302l-5.258 5.28v.022q0 1.166.33 1.65.352.484 1.078.484.11 0 .11.088t-.11.088q-.353-.022-1.364-.022h-2.618q-1.034 0-1.386.022-.11 0-.11-.088t.11-.088q.726 0 1.078-.484t.352-1.65V57.91q0-1.167-.352-1.65-.352-.506-1.078-.506-.11 0-.11-.088t.11-.088q.704.044 1.386.044h2.618q.66 0 1.364-.044.11 0 .11.088 0 .087-.11.088-.726 0-1.078.506-.33.483-.33 1.65v5.126l5.258-5.28q-.023-1.1-.374-1.54-.33-.462-1.034-.462-.11 0-.11-.088t.11-.088q.66.044 1.364.044h2.618q.705 0 1.364-.044.11 0 .11.088 0 .087-.11.088-.726 0-1.078.506-.33.483-.33 1.65v5.434q0 1.166.33 1.65.352.484 1.078.484m15.384 0q.11 0 .11.088t-.11.088q-.353-.022-1.364-.022h-2.64q-1.013 0-1.364.022-.11 0-.11-.088t.11-.088q.66 0 .968-.374.33-.375.33-1.254 0-.33-.022-.506l-.484-5.83q-.022-.264-.132-.264-.066 0-.11.066a1 1 0 0 0-.088.198l-3.102 7.854q-.089.242-.242.242-.198 0-.286-.242l-3.08-7.942q-.066-.176-.132-.176h-.044l.154.572-.154-.55q-.066.022-.066.154l-.528 5.918a5 5 0 0 0-.022.55q0 .857.308 1.232.308.352.968.352.11 0 .11.088t-.11.088q-.33-.022-1.364-.022h-.264q-1.035 0-1.364.022-.11 0-.11-.088t.11-.088q.726 0 1.078-.462.374-.484.484-1.672l.594-6.534q-.22-.573-.55-.814-.33-.242-.836-.242-.11 0-.11-.088t.11-.088l1.298.022h2.112q.307 0 .396.242l2.442 6.028q.066.154.154.154.11 0 .132-.154l2.376-6.05q.044-.132.11-.176a.36.36 0 0 1 .198-.044h1.936l1.386-.022q.11 0 .11.088 0 .087-.11.088-.66 0-.99.374-.308.352-.308 1.21 0 .352.022.55l.528 5.456q.11 1.188.462 1.672.375.462 1.1.462M60.12 57.845v-.022zm22.08 5.83q.021-.023.066.022.066.045.022.11a5.65 5.65 0 0 1-2.068 1.606q-1.21.55-2.53.55a5.36 5.36 0 0 1-2.574-.638 4.86 4.86 0 0 1-1.892-1.804q-.682-1.189-.682-2.728 0-1.519.748-2.794a5.53 5.53 0 0 1 2.068-2.002 5.6 5.6 0 0 1 2.838-.748q1.716 0 2.86.946 1.144.925 1.144 2.53 0 .726-.264 1.562-2.31.044-7.084.198.373 1.209 1.144 2.178.792.946 1.804 1.496 1.011.528 1.98.528 1.605 0 2.42-1.012m-5.082-8.008q-1.232 0-1.892.77-.639.747-.638 2.266 0 .747.22 1.628a87 87 0 0 0 2.948-.11q.44-.023.902-.044.483-.022.968-.022.198-.33.198-.814 0-.726-.418-1.584a4.5 4.5 0 0 0-1.034-1.474q-.616-.615-1.254-.616m13.974-.418q1.145 0 2.09.638.969.616 1.54 1.804.594 1.166.594 2.706 0 1.452-.682 2.75a5.35 5.35 0 0 1-1.826 2.046 4.4 4.4 0 0 1-2.508.77q-.835 0-1.386-.22a5.4 5.4 0 0 1-1.034-.55q-.33-.22-.44-.22-.198 0-.198.374v2.42q0 1.166.308 1.628.33.484.99.528.11 0 .11.066 0 .088-.11.088a50 50 0 0 0-2.288-.044q-1.737 0-2.838.044-.11 0-.11-.088t.11-.088q.66.021.968-.462.33-.484.33-1.694v-9.328q0-.836-.22-1.21-.198-.396-.77-.396-.11 0-.374.044-.087.022-.11-.044 0-.089.066-.11 1.035-.243 2.112-.638 1.101-.396 1.782-.858.11-.066.176-.044.088.021.066.132a23 23 0 0 0-.154 1.936q0 .264.022.506.044.22.11.198.594-1.188 1.474-1.936t2.2-.748m-.616 10.384q1.409 0 2.024-.792.639-.792.638-2.31 0-1.474-.506-2.838t-1.364-2.2q-.836-.837-1.826-.836-.99 0-1.606.836-.594.836-.594 2.244v1.474q0 1.914.858 3.168.88 1.254 2.376 1.254m17.773-.11q.11 0 .11.088 0 .066-.11.066-.616-.044-3.014-.044-.594 0-.858-.22a1.1 1.1 0 0 1-.33-.55l-.682-1.914q-.33-.968-.638-1.474a1.87 1.87 0 0 0-.814-.77q-.485-.242-1.32-.242h-.198v2.882q0 1.166.33 1.65.352.484 1.078.484.11 0 .11.088t-.11.088a26 26 0 0 0-1.364-.022h-2.618q-1.034 0-1.386.022-.11 0-.11-.088t.11-.088q.726 0 1.078-.484.351-.484.352-1.65V57.91q0-1.167-.352-1.65-.352-.484-1.078-.484-.11 0-.11-.088t.11-.088l1.386.022h2.618l1.364-.022q.11 0 .11.088t-.11.088q-.726 0-1.078.484-.33.483-.33 1.65v2.42h.198q1.561 0 2.376-.484.814-.506 1.474-1.716l.22-.418q.374-.682.374-1.166 0-.792-1.056-.792-.11 0-.11-.088t.11-.088l1.364.022h.528l1.364-.022q.11 0 .11.088 0 .087-.11.088-.683 0-1.122.418-.44.396-1.1 1.496l-.33.572q-.55.924-1.188 1.43-.616.484-1.54.66 1.672.021 2.618.594.946.55 1.54 1.936l.33.792q.462 1.078.814 1.474.352.374.99.396m11.885-3.652q0-.11.066-.11t.066.11q0 1.671-.726 2.86-.704 1.188-1.848 1.188-.835 0-1.408-.55-.572-.573-.638-1.694-.528 1.1-1.408 1.694a3.25 3.25 0 0 1-1.892.594q-1.737 0-2.574-.968a3.44 3.44 0 0 1-.836-2.288q0-1.276 1.144-2.046 1.167-.77 2.904-.77.594 0 1.32.11.748.11 1.342.286v-.968q0-3.388-2.948-3.388-1.21 0-2.068.792-.836.792-.836 2.376 0 .088-.044.132-.043.044-.088.044-.088 0-.088-.176 0-1.232.616-2.09a3.85 3.85 0 0 1 1.584-1.32 4.9 4.9 0 0 1 2.046-.44q4.356 0 4.356 4.07v3.608q0 1.452.748 1.452.726 0 .946-.638.22-.66.264-1.87m-6.644 2.838q2.156 0 2.156-2.618v-.132a2.27 2.27 0 0 0-.924-1.254 2.53 2.53 0 0 0-1.496-.484q-2.178 0-2.178 1.672 0 1.122.638 1.98.639.836 1.804.836m7.246-4.554q-.22 0-.22-.088t.22-.088h5.698q.243 0 .242.088 0 .088-.242.088zm19.308 5.324q.11 0 .11.088t-.11.088a26 26 0 0 0-1.364-.022h-2.618q-.969 0-1.298.022-.11 0-.11-.088t.11-.088q.703 0 1.012-.484.33-.484.33-1.65v-7.59h-4.752v7.59q0 1.166.308 1.65.33.484 1.034.484.11 0 .11.088t-.11.088q-.33-.022-1.298-.022h-2.618q-1.035 0-1.386.022-.11 0-.11-.088t.11-.088q.726 0 1.078-.484t.352-1.65v-5.456q0-1.167-.352-1.65-.352-.484-1.078-.484-.11 0-.11-.088t.11-.088l1.386.022h9.9l1.298-.022q.11 0 .11.088 0 .087-.11.088-.704 0-1.034.484-.308.484-.308 1.65v5.456q0 1.166.33 1.65.351.484 1.078.484m8.884-10.23q1.145 0 2.09.638.969.616 1.54 1.804.594 1.166.594 2.706 0 1.452-.682 2.75a5.35 5.35 0 0 1-1.826 2.046 4.4 4.4 0 0 1-2.508.77q-.835 0-1.386-.22a5.4 5.4 0 0 1-1.034-.55q-.33-.22-.44-.22-.198 0-.198.374v2.42q0 1.166.308 1.628.33.484.99.528.11 0 .11.066 0 .088-.11.088a50 50 0 0 0-2.288-.044q-1.737 0-2.838.044-.11 0-.11-.088t.11-.088q.66.021.968-.462.33-.484.33-1.694v-9.328q0-.836-.22-1.21-.198-.396-.77-.396a3 3 0 0 0-.374.044q-.087.022-.11-.044 0-.089.066-.11 1.035-.243 2.112-.638 1.101-.396 1.782-.858.11-.066.176-.044.088.021.066.132a23 23 0 0 0-.154 1.936q0 .264.022.506.044.22.11.198.594-1.188 1.474-1.936t2.2-.748m-.616 10.384q1.409 0 2.024-.792.638-.792.638-2.31a8.1 8.1 0 0 0-.506-2.838q-.506-1.365-1.364-2.2-.836-.837-1.826-.836-.99 0-1.606.836-.594.836-.594 2.244v1.474q0 1.914.858 3.168.88 1.254 2.376 1.254m17.047-3.762q0-.11.066-.11t.066.11q0 1.671-.726 2.86-.705 1.188-1.848 1.188-.837 0-1.408-.55-.572-.573-.638-1.694-.528 1.1-1.408 1.694a3.25 3.25 0 0 1-1.892.594q-1.738 0-2.574-.968a3.44 3.44 0 0 1-.836-2.288q0-1.276 1.144-2.046 1.166-.77 2.904-.77.594 0 1.32.11a10 10 0 0 1 1.342.286v-.968q0-3.388-2.948-3.388-1.21 0-2.068.792-.837.792-.836 2.376 0 .088-.044.132-.045.044-.088.044-.088 0-.088-.176 0-1.232.616-2.09a3.84 3.84 0 0 1 1.584-1.32 4.9 4.9 0 0 1 2.046-.44q4.356 0 4.356 4.07v3.608q0 1.452.748 1.452.726 0 .946-.638.219-.66.264-1.87m-6.644 2.838q2.156 0 2.156-2.618v-.132a2.28 2.28 0 0 0-.924-1.254 2.53 2.53 0 0 0-1.496-.484q-2.178 0-2.178 1.672 0 1.122.638 1.98.637.836 1.804.836m10.92-9.46q1.738 0 2.75.66 1.034.66 1.034 1.76 0 .946-.66 1.518t-1.672.704q1.254.066 2.134.814.88.726.88 1.914 0 1.539-1.188 2.442-1.188.902-3.212.902-2.75 0-4.18-2.2-.043-.089 0-.11.066-.044.11.022.748 1.144 2.816 1.144 1.54 0 2.332-.55t.792-2.024q0-1.122-.55-1.65t-1.87-.55l-.748-.044q-.088 0-.088-.066t.066-.066l.704-.066q1.21-.131 1.716-.638.528-.506.528-1.65 0-1.914-2.068-1.914-1.32 0-2.134.968-.815.945-1.32 2.904-.022.088-.11.066-.066-.023-.044-.11l.374-2.178q.089-.484.528-.946t1.232-.748q.792-.309 1.848-.308m16.649.286q.132 0 .132.088 0 .066-.132.088-.77.022-1.188.55-.396.506-.396 1.716v7.502h1.232q.154 0 .154.154l.044.77.132 1.672q.022.132-.066.132-.066 0-.088-.11-.242-1.275-.814-1.87-.55-.594-1.65-.594h-6.204q-1.1 0-1.672.594-.55.594-.792 1.87-.022.11-.11.11-.066 0-.044-.132.132-1.144.132-1.672l.044-.77q0-.154.154-.154h.682q.77 0 1.166-2.442.418-2.442.528-5.654-.088-.903-.484-1.276-.396-.375-1.078-.396-.132-.022-.132-.088.022-.088.132-.088.924.066 1.276.066h7.766q.418 0 1.276-.066m-4.114 9.944v-9.724h-4.466q0 3.145-.374 6.138-.352 2.97-1.1 3.586zm17.777 0q.11 0 .11.088t-.11.088q-.33-.022-1.364-.022h-2.618q-.968 0-1.298.022-.11 0-.11-.088t.11-.088q.705 0 1.012-.484.33-.484.33-1.65v-2.882q0-.264-.198-.242-1.165.176-2.31.176-1.143 0-2.31-.176h-.022q-.132 0-.132.242v2.882q0 1.166.308 1.65.33.484 1.034.484.11 0 .11.088t-.11.088q-.33-.022-1.298-.022h-2.618q-1.034 0-1.386.022-.11 0-.11-.088t.11-.088q.726 0 1.078-.484t.352-1.65v-5.456q0-1.167-.352-1.65-.352-.484-1.078-.484-.11 0-.11-.088t.11-.088l1.386.022h2.618l1.298-.022q.11 0 .11.088 0 .087-.11.088-.704 0-1.034.484-.308.484-.308 1.65v1.914q0 .242.154.264 1.122.176 2.244.176 1.188 0 2.376-.176.11-.022.154-.088a.3.3 0 0 0 .044-.176v-1.914q0-1.167-.33-1.65-.307-.484-1.012-.484-.11 0-.11-.088t.11-.088l1.298.022h2.618l1.364-.022q.11 0 .11.088 0 .087-.11.088-.726 0-1.078.484-.33.484-.33 1.65v5.456q0 1.166.33 1.65.352.484 1.078.484m14.402 0q.11 0 .11.088t-.11.088a26 26 0 0 0-1.364-.022h-2.618q-1.035 0-1.364.022-.11 0-.11-.088t.11-.088q.726 0 1.056-.484.352-.484.352-1.65v-5.302l-5.258 5.28v.022q0 1.166.33 1.65.351.484 1.078.484.11 0 .11.088t-.11.088q-.353-.022-1.364-.022h-2.618q-1.035 0-1.386.022-.11 0-.11-.088t.11-.088q.726 0 1.078-.484t.352-1.65V57.91q0-1.167-.352-1.65-.352-.506-1.078-.506-.11 0-.11-.088t.11-.088q.703.044 1.386.044h2.618q.66 0 1.364-.044.11 0 .11.088 0 .087-.11.088-.727 0-1.078.506-.33.483-.33 1.65v5.126l5.258-5.28q-.023-1.1-.374-1.54-.33-.462-1.034-.462-.11 0-.11-.088t.11-.088q.66.044 1.364.044h2.618q.704 0 1.364-.044.11 0 .11.088 0 .087-.11.088-.726 0-1.078.506-.33.483-.33 1.65v5.434q0 1.166.33 1.65.352.484 1.078.484m13.074.044q.11 0 .11.088 0 .066-.11.066-.617-.044-3.014-.044-.594 0-.858-.22a1.1 1.1 0 0 1-.33-.55l-.682-1.914q-.33-.968-.638-1.474a1.87 1.87 0 0 0-.814-.77q-.485-.242-1.32-.242h-.198v2.882q0 1.166.33 1.65.352.484 1.078.484.11 0 .11.088t-.11.088a26 26 0 0 0-1.364-.022h-2.618q-1.035 0-1.386.022-.11 0-.11-.088t.11-.088q.726 0 1.078-.484t.352-1.65V57.91q0-1.167-.352-1.65-.352-.484-1.078-.484-.11 0-.11-.088t.11-.088l1.386.022h2.618l1.364-.022q.11 0 .11.088t-.11.088q-.726 0-1.078.484-.33.483-.33 1.65v2.42h.198q1.561 0 2.376-.484.814-.506 1.474-1.716l.22-.418q.374-.682.374-1.166 0-.792-1.056-.792-.11 0-.11-.088t.11-.088l1.364.022h.528l1.364-.022q.11 0 .11.088 0 .087-.11.088-.683 0-1.122.418-.44.396-1.1 1.496l-.33.572q-.55.924-1.188 1.43-.616.484-1.54.66 1.671.021 2.618.594.945.55 1.54 1.936l.33.792q.462 1.078.814 1.474.351.374.99.396M61.768 78.635q0 .176-.66.703a357 357 0 0 0-3.476 2.288q-2.508 1.496-4.092 1.496-.924 0-1.628-.66t-.704-1.496q0-2.903 2.816-5.323 2.508-2.156 4.664-2.156 1.364 0 1.364 1.1 0 .615-1.804 2.42a.55.55 0 0 1-.396.175q-.352 0-.352-.395 0-.177.132-.265.132-.132.528-.968.396-.879.396-1.32 0-.13-.308-.131-1.1 0-3.212 1.803-2.552 2.157-2.552 4.444 0 1.672 1.452 1.672 2.245 0 6.82-3.035.22-.177.616-.396.132-.132.264-.132t.132.175m11.917 0q0 .176-.44.527-1.936 1.629-3.916 1.628-1.23 0-2.112-.66-2.024 2.64-4.4 2.64-1.76 0-1.76-2.2.001-2.859 2.816-5.763 2.376-2.42 3.476-2.42.704 0 .704.44 0 .132-.264.352-1.056.22-2.86 2.243-2.2 2.465-2.2 4.752 0 1.496 1.056 1.496 1.54 0 3.124-1.803-.836-.926-.836-2.288 0-1.584.792-2.728.704-.969 1.496-.969t.924 1.1q0 1.937-1.364 4.18.75.837 2.024.837 1.717 0 3.344-1.408.132-.132.264-.132t.132.175m-4.84-3.389q0-.44-.308-.44-.396 0-.836.704-.44.705-.44 1.804 0 .925.396 1.54 1.188-1.847 1.188-3.608m22.056 3.389q0 .176-.66.703a358 358 0 0 0-3.476 2.288q-2.508 1.496-4.092 1.496-.924 0-1.628-.66t-.704-1.496q0-2.903 2.816-5.323 2.508-2.156 4.664-2.156 1.364 0 1.364 1.1 0 .615-1.804 2.42a.55.55 0 0 1-.396.175q-.352 0-.352-.395 0-.177.132-.265.132-.132.528-.968.396-.879.396-1.32 0-.13-.308-.131-1.1 0-3.212 1.803-2.552 2.157-2.552 4.444 0 1.672 1.452 1.672 2.244 0 6.82-3.035.22-.177.616-.396.132-.132.264-.132t.132.175m26.525 0q0 .263-.66.703-3.123 2.113-3.476 2.333-1.98 1.187-3.3 1.188a1.74 1.74 0 0 1-1.276-.528 1.82 1.82 0 0 1-.484-1.276q0-2.2 2.816-6.293.22-.308.22-.395 0-.044-.044-.044-.175 0-.616.308l-5.456 4.091q-1.275 1.1-3.74 3.08-.351.264-.968.484-.308 0-.308-.44 0-.88 1.452-2.815 1.496-1.98 1.496-2.773 0-.748-.704-.748-1.056 0-4.224 2.86a51 51 0 0 0-3.784 3.74q-.615.66-.968.66-.572 0-.572-.615 0-.177.308-.88 1.056-1.453 2.068-2.904 1.54-2.2 1.54-3.124 0-.397-.264-.397-.132 0-.528.177l-6.38 4.751h-.308q-.308 0-.308-.088 0-.13.484-.44a420 420 0 0 1 6.82-5.236q.528-.44 1.364-.44.88 0 .88.793 0 .176-.088.527-.88 1.54-2.244 3.916-.176.309-.176.397 0 .044.088.044l.132-.044q1.627-1.41 3.256-2.816 2.508-2.113 3.608-2.113 1.452 0 1.452.924 0 .793-.88 2.42-.836 1.585-.836 1.716 0 .133.088.133.177 0 .616-.309l9.152-6.908q.441-.351.924-.352.309 0 .44.132.132.089.132.352a.8.8 0 0 1-.176.529 831 831 0 0 1-2.508 3.563q-1.496 2.289-1.496 3.96 0 1.056 1.144 1.013 1.364-.044 3.08-1.1l2.816-1.76q.132-.132.264-.132t.132.175m14.235 0q0 .263-.66.703-5.412 3.653-7.304 3.653-1.232 0-1.232-1.409 0-.79.308-1.583.44-1.1.44-1.144 0-.177-.132-.177a.8.8 0 0 0-.22.088q-.968.969-2.816 2.332-2.376 1.76-3.3 1.76-1.056 0-1.056-1.056 0-.615 1.54-3.388 1.54-2.815 1.54-3.255 0-.485-.792-.485-.176 0-.176-.528.396-.132.836-.132 1.54 0 1.54.88 0 .969-1.364 3.256-1.364 2.29-1.364 2.86 0 .352.308.352.703 0 3.432-2.331 2.772-2.332 4.268-4.225.66-.66.968-.66.572 0 .572.573 0 .308-.308.791-2.64 3.96-2.64 5.148 0 1.1 1.012 1.1 1.54 0 5.588-2.771.22-.177.616-.396.132-.132.264-.132t.132.175m.759 2.287q.351 0 1.716-.615 2.42-1.144 4.268-2.728 1.892-1.629 3.212-3.344.66-.66.968-.66.572 0 .572.572 0 .351-.308.791-2.64 3.96-2.64 5.148 0 1.1 1.012 1.1 1.54 0 5.588-2.772.087-.087.396-.308.351-.22.484-.22.132 0 .132.177 0 .263-.66.703-5.457 3.652-7.304 3.652-1.233 0-1.232-1.408 0-.439.088-.924.132-.528.264-.924.175-.396.264-.66.132-.263.132-.22 0-.175-.132-.175-.22 0-.924.528-.66.527-2.2 1.407-.749.353-1.364.704-.617.352-1.188.66a7 7 0 0 1-1.1.484 2.8 2.8 0 0 1-1.1.132 3.2 3.2 0 0 1-1.1-.264q-.528-.263-.528-1.1 0-.483.264-.835.22-.352.484-.352.22 0 .352.22.132.219.308.528.175.263.396.484.22.22.616.22zm28.846-2.287q0 .263-.66.703-5.411 3.653-7.304 3.653-1.232 0-1.232-1.409 0-.79.308-1.583.44-1.1.44-1.144 0-.177-.132-.177a.8.8 0 0 0-.22.088q-.968.969-2.816 2.332-2.376 1.76-3.3 1.76-1.056 0-1.056-1.056 0-.615 1.54-3.388 1.54-2.815 1.54-3.255 0-.485-.792-.485-.176 0-.176-.528.396-.132.836-.132 1.54 0 1.54.88 0 .969-1.364 3.256-1.364 2.29-1.364 2.86 0 .352.308.352.705 0 3.432-2.331 2.772-2.332 4.268-4.225.66-.66.968-.66.573 0 .572.573 0 .308-.308.791-2.64 3.96-2.64 5.148 0 1.1 1.012 1.1 1.54 0 5.588-2.771.22-.177.616-.396.132-.132.264-.132t.132.175m9.471 0q0 .176-.66.703a362 362 0 0 0-3.476 2.288q-2.508 1.496-4.092 1.496-.924 0-1.628-.66t-.704-1.496q0-2.903 2.816-5.323 2.508-2.156 4.664-2.156 1.364 0 1.364 1.1 0 .615-1.804 2.42a.55.55 0 0 1-.396.175q-.352 0-.352-.395 0-.177.132-.265.132-.132.528-.968.396-.879.396-1.32 0-.13-.308-.131-1.1 0-3.212 1.803-2.552 2.157-2.552 4.444 0 1.672 1.452 1.672 2.244 0 6.82-3.035.22-.177.616-.396.132-.132.264-.132t.132.175m26.525 0q0 .263-.66.703-3.124 2.113-3.476 2.333-1.98 1.187-3.3 1.188-.748 0-1.276-.528a1.82 1.82 0 0 1-.484-1.276q0-2.2 2.816-6.293.22-.308.22-.395 0-.044-.044-.044-.176 0-.616.308l-5.456 4.091q-1.276 1.1-3.74 3.08-.352.264-.968.484-.308 0-.308-.44 0-.88 1.452-2.815 1.496-1.98 1.496-2.773 0-.748-.704-.748-1.056 0-4.224 2.86a51 51 0 0 0-3.784 3.74q-.616.66-.968.66-.572 0-.572-.615 0-.177.308-.88a179 179 0 0 0 2.068-2.904q1.54-2.2 1.54-3.124 0-.397-.264-.397-.132 0-.528.177l-6.38 4.751h-.308q-.308 0-.308-.088 0-.13.484-.44a420 420 0 0 1 6.82-5.236q.528-.44 1.364-.44.88 0 .88.793 0 .176-.088.527-.88 1.54-2.244 3.916-.176.309-.176.397 0 .044.088.044l.132-.044q1.628-1.41 3.256-2.816 2.508-2.113 3.608-2.113 1.452 0 1.452.924 0 .793-.88 2.42-.836 1.585-.836 1.716 0 .133.088.133.176 0 .616-.309l9.152-6.908q.44-.351.924-.352.308 0 .44.132.132.089.132.352a.82.82 0 0 1-.176.529 831 831 0 0 1-2.508 3.563q-1.496 2.289-1.496 3.96 0 1.056 1.144 1.013 1.364-.044 3.08-1.1l2.816-1.76q.132-.132.264-.132t.132.175m11.947 0q0 .176-.44.527-1.936 1.629-3.916 1.628-1.231 0-2.112-.66-2.024 2.64-4.4 2.64-1.76 0-1.76-2.2 0-2.859 2.816-5.763 2.376-2.42 3.476-2.42.704 0 .704.44 0 .132-.264.352-1.056.22-2.86 2.243-2.2 2.465-2.2 4.752 0 1.496 1.056 1.496 1.54 0 3.124-1.803-.836-.926-.836-2.288 0-1.584.792-2.728.704-.969 1.496-.969t.924 1.1q0 1.937-1.364 4.18.748.837 2.024.837 1.716 0 3.344-1.408.132-.132.264-.132t.132.175m-4.84-3.389q0-.44-.308-.44-.396 0-.836.704-.44.705-.44 1.804 0 .925.396 1.54 1.188-1.847 1.188-3.608m16.344 2.377q.528-.617 1.32-1.585a64 64 0 0 0 1.54-1.847q.396-.265.792-.133t.22.352q-1.32 1.98-1.936 3.52t-.616 2.156q0 1.1 1.012 1.1 1.54 0 5.588-2.772.088-.087.396-.308.352-.22.484-.22t.132.177q0 .263-.66.703-5.456 3.652-7.304 3.652-1.232 0-1.232-1.408 0-.439.088-.924.132-.528.264-.924.175-.396.264-.66.132-.263.132-.22 0-.175-.132-.175-.308.352-.968 1.011-.66.66-1.408 1.32t-1.496 1.144q-.748.44-1.188.397-.528-.044-.66-.353-.132-.351 0-.836a5 5 0 0 1 .44-1.056q.308-.57.66-1.1.088-.132.308-.484.22-.396.396-.748.22-.351.308-.572.088-.219-.088-.087-.044-.09-.352.264a35 35 0 0 1-.748.835q-.484.529-1.144 1.145-.616.57-1.408 1.056-.571.351-1.188.747-.616.353-1.232.66a8 8 0 0 1-1.188.44 3.1 3.1 0 0 1-1.144.132 3.2 3.2 0 0 1-1.1-.264q-.528-.263-.528-1.1 0-.483.264-.835.22-.352.484-.352.22 0 .352.22.132.219.308.528.175.263.396.484.22.22.616.22h.264q.353 0 1.716-.617 2.42-1.143 4.048-2.815a35 35 0 0 0 2.992-3.388q.66-.66.968-.66.132 0 .308.132.22.087.264.352.089.263-.132.747-.176.44-.748 1.144-.352.352-.836 1.056-.44.705-.924 1.497-.44.791-.836 1.496-.352.703-.484 1.011.044.353.572.044a8.4 8.4 0 0 0 1.276-.88q.749-.57 1.452-1.231.703-.705 1.056-1.189"/><path fill="#f9e5e9" d="M303.805 163.318c.393-1.62.601-3.204 1.034-6.378.307-2.34.461-3.541.498-5.099.055-2.396.071-3.735-.513-5.404a11.2 11.2 0 0 0-2.345-3.816c-1.487-1.666-3.028-2.486-4.308-3.182-1.902-1.036-3.425-1.449-6.392-2.234a52 52 0 0 0-7.158-1.459c-2.526-.322-4.099-.522-6.296-.407-3.548.182-4.846.982-6.122.031-.317-.238-.717-.645-1.703-3.795-.709-2.263-1.086-3.925-1.246-4.561-.686-2.808-1.821-4.838-4.023-8.933-2.202-4.096-3.244-5.143-4.011-5.761-.352-.283-1.013-.766-2.117-1.69-1.518-1.274-1.638-1.509-2.268-1.894-1.056-.635-2.005-.769-3.523-.963a23.5 23.5 0 0 0-4.731-.093c-2.33.154-3.971.49-6.365.971-2.394.482-3.613.738-5.11 1.354a24 24 0 0 0-3.173 1.638 22 22 0 0 0-2.85 1.935c-1.034.86-2.114 2.031-3.538 4.499a38 38 0 0 0-3.574 8.373 44.6 44.6 0 0 0-1.614 12.414c.069 9.397 1.358 13.768 2.229 22.247 1.262 12.536 1.341 31.722 2.561 37.934a54 54 0 0 0 1.36 5.248 30 30 0 0 0 1.451 3.836 24.5 24.5 0 0 0 2.364 4.061c.577.865 1.26 1.654 2.033 2.349a8.9 8.9 0 0 0 3.091 1.863c1.501.495 2.735.364 4.625.143a22.5 22.5 0 0 0 4.344-.94c4.826-1.639 11.334-7.206 15.607-10.613 2.494-1.995 6.921-5.529 12.966-9.491 2.56-1.68 5.009-3.169 8.515-5.922a69 69 0 0 0 6.295-5.462c1.481-1.462 1.21-1.339 7.99-9.382 2.163-2.571 2.947-3.479 3.83-5.173 1.245-2.381 1.771-4.552 2.184-6.243"/><path fill="#000" d="M116.533 160.846q.11 0 .11.088t-.11.088q-.33-.022-1.364-.022h-2.618q-.968 0-1.298.022-.11 0-.11-.088 0-.087.11-.088.703 0 1.012-.484.33-.483.33-1.65v-7.59h-4.752v7.59q0 1.167.308 1.65.33.484 1.034.484.11 0 .11.088t-.11.088q-.33-.022-1.298-.022h-2.618q-1.035 0-1.386.022-.11 0-.11-.088 0-.087.11-.088.726 0 1.078-.484.352-.483.352-1.65v-5.456q0-1.165-.352-1.65-.352-.483-1.078-.484-.11 0-.11-.088t.11-.088l1.386.022h9.9l1.298-.022q.11 0 .11.088t-.11.088q-.704 0-1.034.484-.308.484-.308 1.65v5.456q0 1.167.33 1.65.352.484 1.078.484m6.486.506q-1.518 0-2.75-.638a4.93 4.93 0 0 1-1.914-1.848q-.682-1.188-.682-2.706 0-1.54.792-2.794a5.57 5.57 0 0 1 2.156-2.002q1.386-.726 3.036-.726 1.54 0 2.772.66a4.76 4.76 0 0 1 1.958 1.804q.704 1.167.704 2.662a5.23 5.23 0 0 1-.814 2.838q-.792 1.277-2.2 2.024-1.386.726-3.058.726m1.21-.528q1.254 0 1.958-.704.726-.726.726-2.112 0-1.341-.704-2.97-.682-1.628-1.738-2.75-1.034-1.144-2.024-1.144-1.232 0-1.936.704-.704.705-.704 2.112 0 1.32.682 2.97.683 1.629 1.716 2.772 1.056 1.122 2.024 1.122m17.059-9.922q.132 0 .132.088 0 .067-.132.088-.77.022-1.188.55-.396.507-.396 1.716v7.502h1.232q.154 0 .154.154l.044.77q.111 1.386.132 1.672.023.132-.066.132-.066 0-.088-.11-.241-1.275-.814-1.87-.549-.594-1.65-.594h-6.204q-1.1 0-1.672.594-.549.594-.792 1.87-.021.11-.11.11-.066 0-.044-.132.132-1.144.132-1.672l.044-.77q0-.154.154-.154h.682q.77 0 1.166-2.442.418-2.441.528-5.654-.088-.901-.484-1.276-.396-.373-1.078-.396-.132-.022-.132-.088.023-.088.132-.088.924.066 1.276.066h7.766q.418 0 1.276-.066m-4.114 9.944v-9.724h-4.466q0 3.147-.374 6.138-.351 2.97-1.1 3.586zm8.868-2.134q0 1.167.33 1.65.351.484 1.078.484.11 0 .11.088t-.11.088q-.33-.022-1.364-.022h-2.618q-1.035 0-1.386.022-.11 0-.11-.088 0-.087.11-.088.726 0 1.078-.484.352-.483.352-1.65v-5.456q0-1.165-.352-1.65-.352-.483-1.078-.484-.11 0-.11-.088t.11-.088l1.386.022h4.708q.968 0 1.496-.088.55-.088.704-.088.285 0 .286.352-.044.99.352 3.586.021.089-.022.11-.045.022-.088-.11-.33-1.077-.616-1.694a3.8 3.8 0 0 0-.66-1.012q-.418-.44-1.144-.66-.705-.22-1.98-.22-.264 0-.374.198-.088.177-.088.572zm11.008 2.64q-1.517 0-2.75-.638a4.94 4.94 0 0 1-1.914-1.848q-.681-1.188-.682-2.706 0-1.54.792-2.794a5.57 5.57 0 0 1 2.156-2.002q1.386-.726 3.036-.726 1.54 0 2.772.66a4.76 4.76 0 0 1 1.958 1.804q.704 1.167.704 2.662a5.23 5.23 0 0 1-.814 2.838q-.792 1.277-2.2 2.024-1.386.726-3.058.726m1.21-.528q1.254 0 1.958-.704.726-.726.726-2.112 0-1.341-.704-2.97-.681-1.628-1.738-2.75-1.034-1.144-2.024-1.144-1.231 0-1.936.704-.704.705-.704 2.112 0 1.32.682 2.97.683 1.629 1.716 2.772 1.056 1.122 2.024 1.122m18.864.022q.11 0 .11.088t-.11.088q-.33-.022-1.364-.022h-2.618q-.968 0-1.298.022-.11 0-.11-.088 0-.087.11-.088.703 0 1.012-.484.33-.483.33-1.65v-2.882q0-.263-.198-.242-1.167.176-2.31.176t-2.31-.176h-.022q-.132 0-.132.242v2.882q0 1.167.308 1.65.33.484 1.034.484.11 0 .11.088t-.11.088q-.33-.022-1.298-.022h-2.618q-1.035 0-1.386.022-.11 0-.11-.088 0-.087.11-.088.726 0 1.078-.484.352-.483.352-1.65v-5.456q0-1.165-.352-1.65-.352-.483-1.078-.484-.11 0-.11-.088t.11-.088l1.386.022h2.618l1.298-.022q.11 0 .11.088t-.11.088q-.704 0-1.034.484-.308.484-.308 1.65v1.914q0 .243.154.264 1.122.176 2.244.176a16 16 0 0 0 2.376-.176q.11-.022.154-.088a.3.3 0 0 0 .044-.176v-1.914q0-1.165-.33-1.65-.309-.483-1.012-.484-.11 0-.11-.088t.11-.088l1.298.022h2.618l1.364-.022q.11 0 .11.088t-.11.088q-.727 0-1.078.484-.33.484-.33 1.65v5.456q0 1.167.33 1.65.351.484 1.078.484m14.401 0q.11 0 .11.088t-.11.088q-.33-.022-1.364-.022h-2.618q-1.034 0-1.364.022-.11 0-.11-.088 0-.087.11-.088.726 0 1.056-.484.352-.483.352-1.65v-5.302l-5.258 5.28v.022q0 1.167.33 1.65.352.484 1.078.484.11 0 .11.088t-.11.088a28 28 0 0 0-1.364-.022h-2.618q-1.034 0-1.386.022-.11 0-.11-.088 0-.087.11-.088.726 0 1.078-.484.352-.483.352-1.65v-5.434q0-1.165-.352-1.65-.352-.506-1.078-.506-.11 0-.11-.088t.11-.088q.704.044 1.386.044h2.618q.66 0 1.364-.044.11 0 .11.088t-.11.088q-.726 0-1.078.506-.33.484-.33 1.65v5.126l5.258-5.28q-.022-1.1-.374-1.54-.33-.462-1.034-.462-.11 0-.11-.088t.11-.088q.66.044 1.364.044h2.618q.704 0 1.364-.044.11 0 .11.088t-.11.088q-.726 0-1.078.506-.33.484-.33 1.65v5.434q0 1.167.33 1.65.352.484 1.078.484m15.384 0q.11 0 .11.088t-.11.088a28 28 0 0 0-1.364-.022h-2.64q-1.012 0-1.364.022-.11 0-.11-.088 0-.087.11-.088.66 0 .968-.374.33-.374.33-1.254 0-.33-.022-.506l-.484-5.83q-.022-.264-.132-.264-.066 0-.11.066a1 1 0 0 0-.088.198l-3.102 7.854q-.088.243-.242.242-.198 0-.286-.242l-3.08-7.942q-.066-.176-.132-.176h-.044l.154.572-.154-.55q-.066.022-.066.154l-.528 5.918a5 5 0 0 0-.022.55q0 .858.308 1.232.308.352.968.352.11 0 .11.088t-.11.088q-.33-.022-1.364-.022h-.264q-1.034 0-1.364.022-.11 0-.11-.088 0-.087.11-.088.726 0 1.078-.462.374-.484.484-1.672l.594-6.534q-.22-.571-.55-.814-.33-.242-.836-.242-.11 0-.11-.088t.11-.088l1.298.022h2.112q.307 0 .396.242l2.442 6.028q.066.154.154.154.11 0 .132-.154l2.376-6.05q.044-.132.11-.176a.36.36 0 0 1 .198-.044h1.936l1.386-.022q.11 0 .11.088t-.11.088q-.66 0-.99.374-.308.352-.308 1.21 0 .352.022.55l.528 5.456q.11 1.188.462 1.672.374.462 1.1.462m-11.638-7.634v-.022zm30.08 7.634q.11 0 .11.088t-.11.088q-.33-.022-1.364-.022h-2.618q-.968 0-1.298.022-.11 0-.11-.088 0-.087.11-.088.704 0 1.012-.484.33-.483.33-1.65v-7.59h-4.752v7.59q0 1.167.308 1.65.33.484 1.034.484.11 0 .11.088t-.11.088q-.33-.022-1.298-.022h-2.618q-1.034 0-1.386.022-.11 0-.11-.088 0-.087.11-.088.726 0 1.078-.484.352-.483.352-1.65v-5.456q0-1.165-.352-1.65-.352-.483-1.078-.484-.11 0-.11-.088t.11-.088l1.386.022h9.9l1.298-.022q.11 0 .11.088t-.11.088q-.704 0-1.034.484-.308.484-.308 1.65v5.456q0 1.167.33 1.65.352.484 1.078.484m6.486.506q-1.518 0-2.75-.638a4.94 4.94 0 0 1-1.914-1.848q-.681-1.188-.682-2.706 0-1.54.792-2.794a5.57 5.57 0 0 1 2.156-2.002q1.386-.726 3.036-.726 1.54 0 2.772.66a4.76 4.76 0 0 1 1.958 1.804q.705 1.167.704 2.662a5.23 5.23 0 0 1-.814 2.838q-.792 1.277-2.2 2.024-1.386.726-3.058.726m1.21-.528q1.254 0 1.958-.704.726-.726.726-2.112 0-1.341-.704-2.97-.681-1.628-1.738-2.75-1.034-1.144-2.024-1.144-1.231 0-1.936.704-.704.705-.704 2.112 0 1.32.682 2.97.683 1.629 1.716 2.772 1.056 1.122 2.024 1.122m25.368-5.06q0 1.496-.77 2.75t-2.134 2.002q-1.363.749-3.124.836v1.738q0 .924.308 1.518.33.617 1.012.638.11 0 .11.088 0 .089-.11.066-.396-.022-2.574-.022-2.155 0-2.574.022-.11 0-.11-.088 0-.066.11-.066.66 0 .968-.528.33-.506.33-1.628v-1.804l-.462.022q-1.561 0-2.838-.616a5.05 5.05 0 0 1-2.002-1.804q-.726-1.165-.726-2.706 0-1.495.748-2.728.749-1.254 2.09-2.002 1.364-.748 3.146-.814v-1.716q0-1.077-.176-1.43-.175-.374-.528-.374-.175 0-.264.022h-.022q-.153 0-.154-.154 2.465-.637 3.828-1.804h.044q.154 0 .132.154a19 19 0 0 0-.22 1.892 40 40 0 0 0-.066 2.552v.924l.44-.022q1.54 0 2.816.638a4.87 4.87 0 0 1 2.024 1.782q.748 1.144.748 2.662m-12.408-1.606q0 1.277.396 2.75a7.7 7.7 0 0 0 1.276 2.596q.88 1.1 2.178 1.276l-.044-8.866a1.6 1.6 0 0 0-.506-.528 1.1 1.1 0 0 0-.638-.22q-1.364 0-2.024.748-.638.726-.638 2.244m10.23 3.63q0-1.254-.396-2.728-.396-1.473-1.276-2.574-.858-1.122-2.178-1.276v8.8q.198.353.528.572.33.22.682.242 1.233-.021 1.936-.77.704-.747.704-2.266m16.456 3.058q.11 0 .11.088t-.11.088q-.33-.022-1.364-.022h-2.618q-1.034 0-1.364.022-.11 0-.11-.088 0-.087.11-.088.726 0 1.056-.484.352-.483.352-1.65v-5.302l-5.258 5.28v.022q0 1.167.33 1.65.352.484 1.078.484.11 0 .11.088t-.11.088a28 28 0 0 0-1.364-.022h-2.618q-1.034 0-1.386.022-.11 0-.11-.088 0-.087.11-.088.726 0 1.078-.484.352-.483.352-1.65v-5.434q0-1.165-.352-1.65-.352-.506-1.078-.506-.11 0-.11-.088t.11-.088q.704.044 1.386.044h2.618q.66 0 1.364-.044.11 0 .11.088t-.11.088q-.726 0-1.078.506-.33.484-.33 1.65v5.126l5.258-5.28q-.022-1.1-.374-1.54-.33-.462-1.034-.462-.11 0-.11-.088t.11-.088q.66.044 1.364.044h2.618q.704 0 1.364-.044.11 0 .11.088t-.11.088q-.726 0-1.078.506-.33.484-.33 1.65v5.434q0 1.167.33 1.65.352.484 1.078.484m5.22-2.134q0 1.167.33 1.65.352.484 1.078.484.11 0 .11.088t-.11.088q-.33-.022-1.364-.022h-2.618q-1.034 0-1.386.022-.11 0-.11-.088 0-.087.11-.088.726 0 1.078-.484.352-.483.352-1.65v-5.456q0-1.165-.352-1.65-.352-.483-1.078-.484-.11 0-.11-.088t.11-.088l1.386.022h4.708q.968 0 1.496-.088.55-.088.704-.088.286 0 .286.352-.044.99.352 3.586.022.089-.022.11t-.088-.11q-.33-1.077-.616-1.694a3.8 3.8 0 0 0-.66-1.012q-.418-.44-1.144-.66-.703-.22-1.98-.22-.264 0-.374.198-.088.177-.088.572zm16.882-7.766q.088 0 .088.088t-.088.088q-.483 0-.814.418-.308.418-.792 1.584l-3.432 8.118q-.704 1.584-1.298 2.508-.571.946-1.254 1.408a2.7 2.7 0 0 1-1.562.462 3.43 3.43 0 0 1-1.76-.462q-.792-.462-.88-1.078-.021-.308.286-.99.309-.66.616-1.078.309-.395.286-.044-.022.462.308 1.188.353.726.902 1.276.55.55 1.166.55.639 0 1.122-.506.484-.505.99-1.65.066-.33-.154-.946a10 10 0 0 0-.462-1.144l-3.212-7.612q-.484-1.165-.814-1.584-.307-.417-.792-.418-.087 0-.088-.088 0-.088.088-.088l.968.022h2.794l1.628-.022q.154 0 .154.088t-.154.088q-1.32 0-1.32.968 0 .462.242 1.034l2.596 6.116q.044.132.11.154.089 0 .132-.132l2.596-6.138q.264-.637.264-1.012 0-.99-1.408-.99-.132 0-.132-.088t.132-.088l1.716.022h.264zm8.19-.33q1.145 0 2.09.638.969.616 1.54 1.804.594 1.167.594 2.706 0 1.452-.682 2.75a5.34 5.34 0 0 1-1.826 2.046 4.4 4.4 0 0 1-2.508.77q-.836 0-1.386-.22a5.4 5.4 0 0 1-1.034-.55q-.33-.22-.44-.22-.198 0-.198.374v2.42q0 1.167.308 1.628.33.485.99.528.11 0 .11.066 0 .088-.11.088a50 50 0 0 0-2.288-.044q-1.737 0-2.838.044-.11 0-.11-.088t.11-.088q.66.022.968-.462.33-.483.33-1.694v-9.328q0-.835-.22-1.21-.197-.396-.77-.396-.11 0-.374.044-.087.022-.11-.044 0-.087.066-.11 1.035-.242 2.112-.638 1.101-.396 1.782-.858.11-.066.176-.044.089.022.066.132a23 23 0 0 0-.154 1.936q0 .264.022.506.044.22.11.198.594-1.188 1.474-1.936.88-.747 2.2-.748M302.369 161q1.409 0 2.024-.792.638-.792.638-2.31 0-1.473-.506-2.838-.506-1.363-1.364-2.2-.836-.836-1.826-.836t-1.606.836q-.594.837-.594 2.244v1.474q0 1.914.858 3.168.88 1.254 2.376 1.254m15.722-1.958q.021-.021.066.022.066.044.022.11a5.64 5.64 0 0 1-2.068 1.606q-1.21.55-2.53.55a5.35 5.35 0 0 1-2.574-.638 4.85 4.85 0 0 1-1.892-1.804q-.682-1.188-.682-2.728 0-1.518.748-2.794a5.5 5.5 0 0 1 2.068-2.002 5.6 5.6 0 0 1 2.838-.748q1.716 0 2.86.946 1.144.925 1.144 2.53 0 .726-.264 1.562-2.31.045-7.084.198.373 1.21 1.144 2.178a6.2 6.2 0 0 0 1.804 1.496q1.011.528 1.98.528 1.605 0 2.42-1.012m-5.082-8.008q-1.232 0-1.892.77-.638.748-.638 2.266 0 .749.22 1.628a85 85 0 0 0 2.948-.11l.902-.044q.483-.022.968-.022.198-.33.198-.814 0-.726-.418-1.584a4.5 4.5 0 0 0-1.034-1.474q-.617-.615-1.254-.616m-217.737-1.658q0 4.444-4.268 11-3.3 5.105-8.184 10.032-4.312 4.4-5.28 4.4.132 4.136 2.596 4.136 1.892 0 4.092-1.628a3.5 3.5 0 0 1-.44-1.716q0-2.992 1.936-2.992.792 0 .924 1.1 0 1.54-1.32 3.08.748 1.232 2.332 1.232 1.716 0 3.344-1.408.132-.132.264-.132t.132.176-.44.528q-1.935 1.628-3.916 1.628-1.627 0-2.596-1.1-2.595 2.376-5.06 2.376-1.452 0-2.42-1.188-.924-1.232-.924-2.948 0-4.884 3.432-11.836 3.124-6.336 7.436-11.22 4.312-4.928 6.952-4.928 1.408 0 1.408 1.408m-1.276.66q0-1.012-.792-1.012-2.069 0-5.94 4.972-3.652 4.664-6.556 10.516-3.08 6.16-3.08 9.284 0 .176.088.176.835 0 4.84-4.312 4.444-4.752 7.524-9.592 3.916-6.16 3.916-10.032m-7.788 23.936q0-.44-.308-.44-.924 0-.924 1.804 0 .616.176 1.1 1.056-1.188 1.056-2.464m26.606 2.684q0 .528-2.728 2.024-2.86 1.584-4.092 1.584-2.288 0-2.288-2.42 0-.66.704-1.496 0-.044-.044-.044.043 0-2.376 1.848-2.42 1.804-3.476 1.804-1.012 0-1.012-.836 0-2.024 3.388-4.708 3.212-2.596 5.016-2.596.264.044.572.308.352.22.352.352 0 .044-.044.088-2.464 0-6.292 3.828-1.233 1.232-1.232 2.068 0 .308.308.308.967 0 3.696-2.244 2.2-1.848 3.124-2.948.44-.528.616-.528.44 0 .44.616 0 .22-.572 1.012-1.892 2.596-1.892 3.3 0 1.232 1.364 1.232 2.244 0 6.072-2.596.132-.132.264-.132t.132.176m26.555 0q0 .264-.66.704a288 288 0 0 1-3.476 2.332q-1.98 1.188-3.3 1.188-.748 0-1.276-.528a1.82 1.82 0 0 1-.484-1.276q0-2.2 2.816-6.292.22-.308.22-.396 0-.044-.044-.044-.177 0-.616.308l-5.456 4.092a154 154 0 0 1-3.74 3.08q-.353.264-.968.484-.308 0-.308-.44 0-.88 1.452-2.816 1.496-1.98 1.496-2.772 0-.748-.704-.748-1.056 0-4.224 2.86a51 51 0 0 0-3.784 3.74q-.617.66-.968.66-.573 0-.572-.616 0-.176.308-.88a179 179 0 0 0 2.068-2.904q1.54-2.2 1.54-3.124 0-.396-.264-.396-.132 0-.528.176l-6.38 4.752h-.308q-.309 0-.308-.088 0-.132.484-.44a416 416 0 0 1 6.82-5.236q.528-.44 1.364-.44.88 0 .88.792 0 .175-.088.528l-2.244 3.916q-.177.308-.176.396 0 .044.088.044l.132-.044 3.256-2.816q2.507-2.112 3.608-2.112 1.452 0 1.452.924 0 .792-.88 2.42-.836 1.584-.836 1.716t.088.132q.175 0 .616-.308l9.152-6.908q.44-.352.924-.352.308 0 .44.132.132.088.132.352a.82.82 0 0 1-.176.528q-1.233 1.76-2.508 3.564-1.496 2.287-1.496 3.96 0 1.056 1.144 1.012 1.364-.044 3.08-1.1l2.816-1.76q.132-.132.264-.132t.132.176m10.318 0q0 .308-1.804 1.452-4.443 2.816-6.38 2.816-2.86 0-2.86-3.344 0-2.464 2.376-4.928 2.42-2.508 4.576-2.508.66 0 .66.616 0 1.495-2.596 4.224-2.067 2.156-3.388 2.948.132 1.936 1.848 1.936 1.629 0 5.456-2.2.309-.175 1.716-1.056.132-.132.264-.132t.132.176m-4.796-5.06q0-.528-.308-.528-1.1 0-2.684 2.2t-1.628 3.96q.837-.264 2.64-2.288 1.98-2.2 1.98-3.344m5.561 7.348q.351 0 1.716-.616 2.42-1.144 4.268-2.728 1.892-1.628 3.212-3.344.66-.66.968-.66.572 0 .572.572 0 .352-.308.792-2.64 3.96-2.64 5.148 0 1.1 1.012 1.1 1.54 0 5.588-2.772.087-.088.396-.308.351-.22.484-.22.132 0 .132.176 0 .264-.66.704-5.457 3.652-7.304 3.652-1.233 0-1.232-1.408 0-.44.088-.924.132-.528.264-.924.175-.396.264-.66.132-.264.132-.22 0-.176-.132-.176-.22 0-.924.528-.66.528-2.2 1.408a19 19 0 0 0-1.364.704q-.616.353-1.188.66a7 7 0 0 1-1.1.484 2.8 2.8 0 0 1-1.1.132 3.2 3.2 0 0 1-1.1-.264q-.528-.264-.528-1.1 0-.484.264-.836.22-.352.484-.352.22 0 .352.22t.308.528q.175.264.396.484.22.22.616.22zm15.295-.704q0 1.188.968 1.188.703 0 1.408-.396a7 7 0 0 0 1.364-1.012q-.66-.66-.66-1.628 0-1.056.572-1.804.615-.792 1.364-.792.747 0 .88.704 0 .66-.22 1.452-.22.748-.792 1.628.66.66 1.848.66 1.452 0 2.992-1.188.132-.132.22-.132.132 0 .132.176 0 .353-.484.66a7 7 0 0 1-1.144.572 9 9 0 0 1-1.276.44q-.66.132-1.012.132-.617 0-.968-.132a4.6 4.6 0 0 1-.748-.484 6.9 6.9 0 0 1-2.112 1.716q-1.188.616-2.288.616-.836 0-1.232-.66a3.2 3.2 0 0 1-.396-1.584q0-.572.484-1.848.528-1.276 1.276-2.596a12.6 12.6 0 0 1 1.628-2.288q.924-1.012 1.672-1.012.351.088.352.22 0 .044-.748 1.012-.705.968-1.452 2.244a16.6 16.6 0 0 0-1.188 2.42q-.44 1.1-.44 1.716m5.412-3.564q.175-.089 0-.132a.54.54 0 0 0-.308-.088q-.353 0-.704.484-.308.484-.308 1.276 0 .66.308 1.1.528-.66.748-1.364.264-.749.264-1.188zm15.138 1.98q0 .308-1.804 1.452-4.445 2.816-6.38 2.816-2.86 0-2.86-3.344 0-2.464 2.376-4.928 2.42-2.508 4.576-2.508.66 0 .66.616 0 1.495-2.596 4.224-2.068 2.156-3.388 2.948.132 1.936 1.848 1.936 1.628 0 5.456-2.2.308-.175 1.716-1.056.132-.132.264-.132t.132.176m-4.796-5.06q0-.528-.308-.528-1.1 0-2.684 2.2t-1.628 3.96q.836-.264 2.64-2.288 1.98-2.2 1.98-3.344m21.964 5.06q0 .176-.66.704a350 350 0 0 0-3.476 2.288q-2.508 1.496-4.092 1.496-.924 0-1.628-.66t-.704-1.496q0-2.904 2.816-5.324 2.507-2.156 4.664-2.156 1.364 0 1.364 1.1 0 .616-1.804 2.42a.55.55 0 0 1-.396.176q-.352 0-.352-.396 0-.175.132-.264.132-.132.528-.968.396-.88.396-1.32 0-.132-.308-.132-1.1 0-3.212 1.804-2.553 2.156-2.552 4.444 0 1.672 1.452 1.672 2.244 0 6.82-3.036.22-.176.616-.396.132-.132.264-.132t.132.176m13.677 0q0 .528-2.728 2.024-2.86 1.584-4.092 1.584-2.289 0-2.288-2.42 0-.66.704-1.496 0-.044-.044-.044.043 0-2.376 1.848-2.42 1.804-3.476 1.804-1.012 0-1.012-.836 0-2.024 3.388-4.708 3.212-2.596 5.016-2.596.263.044.572.308.352.22.352.352 0 .044-.044.088-2.464 0-6.292 3.828-1.233 1.232-1.232 2.068 0 .308.308.308.968 0 3.696-2.244 2.2-1.848 3.124-2.948.44-.528.616-.528.44 0 .44.616 0 .22-.572 1.012-1.892 2.596-1.892 3.3 0 1.232 1.364 1.232 2.244 0 6.072-2.596.132-.132.264-.132t.132.176m.771 2.288q.351 0 1.716-.616 2.42-1.144 4.268-2.728 1.892-1.628 3.212-3.344.66-.66.968-.66.572 0 .572.572 0 .352-.308.792-2.64 3.96-2.64 5.148 0 1.1 1.012 1.1 1.54 0 5.588-2.772.087-.088.396-.308.351-.22.484-.22.132 0 .132.176 0 .264-.66.704-5.457 3.652-7.304 3.652-1.233 0-1.232-1.408 0-.44.088-.924.132-.528.264-.924.175-.396.264-.66.132-.264.132-.22 0-.176-.132-.176-.22 0-.924.528-.66.528-2.2 1.408a19 19 0 0 0-1.364.704q-.617.353-1.188.66a7 7 0 0 1-1.1.484 2.8 2.8 0 0 1-1.1.132 3.2 3.2 0 0 1-1.1-.264q-.528-.264-.528-1.1 0-.484.264-.836.22-.352.484-.352.22 0 .352.22t.308.528q.175.264.396.484.22.22.616.22zm26.559-2.288q0 .175-.44.528-1.936 1.628-3.916 1.628-1.233 0-2.112-.66-2.025 2.64-4.4 2.64-1.76 0-1.76-2.2 0-2.86 2.816-5.764 2.375-2.42 3.476-2.42.704 0 .704.44 0 .132-.264.352-1.056.22-2.86 2.244-2.2 2.464-2.2 4.752 0 1.496 1.056 1.496 1.54 0 3.124-1.804-.837-.924-.836-2.288 0-1.584.792-2.728.704-.968 1.496-.968t.924 1.1q0 1.936-1.364 4.18.747.836 2.024.836 1.716 0 3.344-1.408.132-.132.264-.132t.132.176m-4.84-3.388q0-.44-.308-.44-.396 0-.836.704t-.44 1.804q0 .924.396 1.54 1.188-1.848 1.188-3.608m8.82 5.808q-.132.176-.352.484l-.44.528a2.3 2.3 0 0 1-.352.484q-.177.22-.264.22-.572 0-.572-.616 0-.22.308-.88a61 61 0 0 1 1.056-1.452q.528-.703 1.012-1.452 1.54-2.2 1.54-3.124 0-.396-.264-.396-.177 0-.528.176-1.144.836-2.728 2.024a173 173 0 0 1-3.652 2.728h-.308q-.309 0-.308-.088 0-.088.484-.44a178 178 0 0 1 3.212-2.508 283 283 0 0 1 3.608-2.728q.483-.44 1.364-.44.88 0 .88.792 0 .88-1.276 2.816a2.3 2.3 0 0 1-.22.352 1.2 1.2 0 0 0-.22.308h.836q.483 0 1.1-.044 1.056-.088 1.804 0l.352-.616q.175-.308.396-.66.483-.748.924-1.364.483-.616.968-1.1.308-.396.968-.396.351.088.352.22l-1.54 2.552q-1.54 2.552-1.54 3.696 0 1.364 1.188 1.364 1.495 0 4.356-2.596.132-.132.264-.132t.132.176q0 .264-.88.88-1.409 1.232-2.552 1.892-1.145.616-2.156.616-1.98 0-1.98-1.672 0-1.1.484-2.244a16 16 0 0 0-2.86.044q-.617.044-.792.044h-.264a32 32 0 0 0-1.1 1.672q-.44.792-.44.88m26.569-2.42q0 .528-2.728 2.024-2.86 1.584-4.092 1.584-2.288 0-2.288-2.42 0-.66.704-1.496 0-.044-.044-.044.043 0-2.376 1.848-2.42 1.804-3.476 1.804-1.012 0-1.012-.836 0-2.024 3.388-4.708 3.212-2.596 5.016-2.596.263.044.572.308.351.22.352.352 0 .044-.044.088-2.464 0-6.292 3.828-1.233 1.232-1.232 2.068 0 .308.308.308.967 0 3.696-2.244 2.2-1.848 3.124-2.948.44-.528.616-.528.44 0 .44.616 0 .22-.572 1.012-1.893 2.596-1.892 3.3 0 1.232 1.364 1.232 2.244 0 6.072-2.596.132-.132.264-.132t.132.176"/><defs><clipPath id="a"><path fill="#fff" d="M0 0h63.26v115.05H0z"/></clipPath></defs></svg>