<svg xmlns="http://www.w3.org/2000/svg" viewBox="0 0 731.23 277.79"><defs><style>.st0{fill:#181818}</style></defs><path id="Layer_1" d="M294.17 242.14c-.41-2.63-3.68-11.1-6.63-12.44-1 7.09 10.72 19.93.88 23.21-18.41-12.81-34.36-31.32-53.13-43.17-32.72-20.61-70.88-25.9-92.49-63.56-26.04-45.33 27.02-116.81 70.69-74 14.89 14.64 21.51 36.54 35.85 51.28-2.9-32.35-18.04-56.38-14.89-90.43 2.75-29.99 20.41-34.36 31.81-5.33 10.31 26.44 3.92 58.73 6.34 86.61 2.16 24.77 4.36 49.82 6.65 74.69 1.27 13.86 1.72 31.57 13.24 40.69l-10.1-93.81c-.26-3.71.45-7.95 5.15-7.44 4 47.6 14.12 94.72 11.63 142.75h-4.96c-1-9.04 1.27-20.37-.03-29.07Zm-36.52-132.79c1.05 9.29 0 21.78 0 31.54 0 .19-2.42 3.32-3.33 1.72-14.12-29.05-46.38-66.67-82.25-64.06-19.62 1.43-20.61 32.24-16.58 46.67 6.48 23.5 46.88 53.03 67.84 64.95 17.62 10.03 36.5 15.07 54.21 24.62-5.5-20.32-4.52-41.5-6.63-62.24-1.6-15.74-5.62-32.64-6.61-48.1-1.44-22.49 4.45-42.95-.46-65.91-3.8-17.76-18.33-39.51-21.09-7.08-2.59 30.27 11.94 51.55 14.91 77.89Zm-34.87-15.77c1.87-1.99-14.02-18.9-16.54-20.79-15.24-11.68-33.38-11.2-46.52 3.44 5.15.12 7.92-2.63 14.1-2.63 18.04-.09 34.44 10.62 48.96 19.98m-52.53 64.16c-15.31-15.46-24.05-32.64-22.14-54.97.41-4.91 3.44-9.38 2.49-14.12-29.34 46.38 15.61 82.66 54.97 99.31 1.53.64 4.23 3.61 5.53 1.12-13.11-9.89-29.32-19.65-40.85-31.33ZM287.5 246.3c-2.66-5.77-6.48-23.72-9.98-27.35-1.51-1.56-10.48-5.45-13.26-6.65-9.57-4.16-20.24-6.67-29.86-10.81l53.1 44.8Z" style="fill:#f4cdcb"/><g id="Layer_2"><path d="M153.3 145.19q0 1.05-5.46 4.05c-3.81 2.11-6.54 3.17-8.18 3.17-3.05 0-4.58-1.61-4.58-4.84 0-.88.47-1.88 1.41-2.99q0-.09-.09-.09c.06 0-1.53 1.22-4.75 3.65-3.23 2.44-5.54 3.65-6.95 3.65s-2.02-.56-2.02-1.67q0-4.05 6.78-9.42c4.28-3.46 7.63-5.19 10.03-5.19.35.06.75.25 1.19.57q.66.48.66.75 0 .09-.09.18c-3.29 0-7.48 2.55-12.58 7.66q-2.46 2.46-2.46 4.14c0 .41.21.62.62.62 1.29 0 3.75-1.5 7.39-4.49 2.93-2.46 5.02-4.43 6.25-5.9.59-.7 1-1.06 1.23-1.06.59 0 .88.41.88 1.23 0 .29-.38.97-1.14 2.02q-3.78 5.19-3.78 6.6 0 2.46 2.73 2.46c2.99 0 7.04-1.73 12.14-5.19.18-.18.35-.26.53-.26s.26.12.26.35Zm39.51 0q0 .435-1.32 1.41l-12.14 8.98c-.12 4.52-2.23 10.53-6.34 18.04-3.81 7.04-8.18 13.26-13.11 18.65-5.22 5.69-9.33 8.51-12.32 8.45-1 0-1.85-.35-2.55-1.06-.7-.7-1.06-1.58-1.06-2.64q0-6.51 7.92-17.16c4.05-5.28 9.06-10.77 15.05-16.46 5.28-4.93 8.27-7.39 8.98-7.39 0-.35-.09-.68-.26-.97-.82-1.47-1.97-2.2-3.43-2.2-.59 0-1.23.12-1.94.35-1.41.47-2.26.7-2.55.7-.18 0-.29-.12-.35-.35 0-.59.59-1.12 1.76-1.58 1.88-.82 4.14-2.38 6.78-4.66 3.11-2.76 4.66-4.99 4.66-6.69q0-1.5-1.41-1.5-1.23 0-5.37 2.82c-2.17 1.58-4.34 3.17-6.51 4.75-.18.18-.35.26-.53.26-.12 0-.18-.32-.18-.97.18-.12 1.23-.92 3.17-2.42s3.92-3.05 5.94-4.66 3.86-2.42 5.5-2.42c2.11 0 3.17 1.12 3.17 3.34 0 2.7-3.46 6.31-10.38 10.82-.41.41-.62.7-.62.88 0 .24.21.35.62.35 2.58 0 4.28.76 5.1 2.29 1.35-.76 3.49-2.32 6.42-4.66 2.7-2.11 4.87-3.58 6.51-4.4.18-.18.35-.26.53-.26s.26.12.26.35Zm-16.46 12.67c0-.23-.03-.35-.09-.35-1.29 0-4.37 2.46-9.24 7.39q-7.74 7.74-13.38 15.93c-4.52 6.63-6.78 11.79-6.78 15.49 0 1.35.44 2.02 1.32 2.02 1.76 0 4.99-2.54 9.68-7.61a99.8 99.8 0 0 0 12.32-16.41c4.11-6.81 6.16-12.29 6.16-16.46Z" class="st0"/><path d="M200.55 150.03c-.18.24-.41.54-.7.92q-.435.57-.84 1.14c-.26.38-.51.7-.75.97-.24.26-.41.4-.53.4q-1.14 0-1.14-1.23c0-.29.2-.88.62-1.76.7-1 1.41-1.96 2.11-2.9s1.38-1.91 2.02-2.9c2.05-2.93 3.08-5.02 3.08-6.25 0-.53-.18-.79-.53-.79-.23 0-.59.12-1.06.35-1.53 1.11-3.33 2.46-5.41 4.05q-3.12 2.37-7.35 5.46h-.62c-.41 0-.62-.06-.62-.18s.32-.41.97-.88c2.05-1.64 4.21-3.33 6.47-5.06s4.65-3.53 7.17-5.41c.65-.59 1.55-.88 2.73-.88s1.76.53 1.76 1.58c0 1.17-.85 3.05-2.55 5.63-.12.23-.26.46-.44.66-.18.21-.32.43-.44.66h1.67c.65 0 1.38-.03 2.2-.09 1.41-.12 2.61-.12 3.61 0 .23-.41.47-.82.7-1.23s.5-.85.79-1.32c.64-1 1.28-1.91 1.89-2.73.62-.82 1.25-1.55 1.89-2.2.41-.53 1.06-.79 1.94-.79.47.12.7.26.7.44l-3.08 5.1c-2.05 3.4-3.08 5.87-3.08 7.39 0 1.82.79 2.73 2.38 2.73 1.99 0 4.9-1.73 8.71-5.19.18-.18.35-.26.53-.26s.26.12.26.35c0 .35-.59.94-1.76 1.76-1.88 1.64-3.58 2.89-5.1 3.74-1.53.85-2.96 1.28-4.31 1.28-2.64 0-3.96-1.11-3.96-3.34 0-1.47.32-2.96.97-4.49-.7-.06-1.54-.09-2.51-.09s-2.04.06-3.21.18c-.82.06-1.35.09-1.58.09h-.53c-.82 1.17-1.54 2.29-2.16 3.34s-.92 1.64-.92 1.76Z" class="st0"/><path d="M253.7 145.19q0 1.05-5.46 4.05c-3.81 2.11-6.54 3.17-8.18 3.17-3.05 0-4.58-1.61-4.58-4.84 0-.88.47-1.88 1.41-2.99q0-.09-.09-.09c.06 0-1.53 1.22-4.75 3.65-3.23 2.44-5.54 3.65-6.95 3.65s-2.02-.56-2.02-1.67q0-4.05 6.78-9.42c4.28-3.46 7.63-5.19 10.03-5.19.35.06.75.25 1.19.57q.66.48.66.75 0 .09-.09.18c-3.29 0-7.48 2.55-12.58 7.66q-2.46 2.46-2.46 4.14c0 .41.21.62.62.62 1.29 0 3.75-1.5 7.39-4.49 2.93-2.46 5.02-4.43 6.25-5.9.59-.7 1-1.06 1.23-1.06.59 0 .88.41.88 1.23 0 .29-.38.97-1.14 2.02q-3.78 5.19-3.78 6.6 0 2.46 2.73 2.46c2.99 0 7.04-1.73 12.14-5.19.18-.18.35-.26.53-.26s.26.12.26.35Z" class="st0"/><path d="M280.19 145.19c0 1.06-2.67 3.11-8.01 6.16-2.35 1.35-4.7 2.02-7.04 2.02-2.76 0-4.14-1.17-4.14-3.52 0-1.47 1.03-3.34 3.08-5.63 1.76-1.94 2.73-2.9 2.9-2.9-1.06 0-1.88-.62-2.46-1.85-.59-1.23-1.03-1.85-1.32-1.85-.24 0-.56.21-.97.62-.82 1.23-2.41 2.79-4.75 4.66q-1.845 1.5-5.19 3.78c-.18.18-.35.26-.53.26-.12 0-.18-.32-.18-.97.29-.18 1.35-.94 3.17-2.29 4.11-3.05 7.42-6.48 9.94-10.3.47-.76 1.08-1.14 1.85-1.14.35 0 .53.18.53.53 0 .24-.12.75-.35 1.54-.24.79-.35 1.36-.35 1.72 0 1.06.57 2 1.72 2.82 1.14.82 1.71 1.38 1.71 1.67 0 .53-.89 1.6-2.68 3.21s-2.68 3.12-2.68 4.53c0 2.05.94 3.08 2.82 3.08 1.76 0 4.08-.88 6.95-2.64 1.7-1.17 3.43-2.38 5.19-3.61.18-.18.35-.26.53-.26s.26.12.26.35Z" class="st0"/><path d="M308.79 145.19q0 .525-1.32 1.41c-7.22 4.87-12.09 7.3-14.61 7.3q-2.46 0-2.46-2.82c0-1.06.21-2.11.62-3.17.59-1.47.88-2.23.88-2.29 0-.23-.09-.35-.26-.35-.06 0-.21.06-.44.18-1.29 1.29-3.17 2.85-5.63 4.66-3.17 2.35-5.37 3.52-6.6 3.52-1.41 0-2.11-.7-2.11-2.11 0-.82 1.03-3.09 3.08-6.82s3.08-5.88 3.08-6.47c0-.64-.53-.97-1.58-.97-.24 0-.35-.35-.35-1.06.53-.18 1.08-.26 1.67-.26 2.05 0 3.08.59 3.08 1.76q0 1.935-2.73 6.51c-1.82 3.05-2.73 4.96-2.73 5.72 0 .47.21.7.62.7.94 0 3.24-1.55 6.91-4.66s6.5-5.92 8.49-8.45c.88-.88 1.52-1.32 1.94-1.32q1.14 0 1.14 1.14c0 .41-.21.94-.62 1.58-3.52 5.28-5.28 8.71-5.28 10.3 0 1.47.67 2.2 2.02 2.2 2.05 0 5.78-1.85 11.18-5.54.29-.23.7-.5 1.23-.79.18-.18.35-.26.53-.26s.26.12.26.35Z" class="st0"/><path d="M361.85 145.19q0 .525-1.32 1.41c-4.17 2.82-6.48 4.37-6.95 4.66-2.64 1.58-4.84 2.38-6.6 2.38-1 0-1.83-.35-2.51-1.06-.68-.7-1.01-1.55-1.01-2.55 0-2.93 1.88-7.13 5.63-12.58.29-.41.44-.67.44-.79q0-.09-.09-.09c-.24 0-.65.21-1.23.62-3.29 2.46-6.92 5.19-10.91 8.18-1.7 1.47-4.2 3.52-7.48 6.16-.47.35-1.12.67-1.94.97-.41 0-.62-.29-.62-.88 0-1.17.98-3.06 2.95-5.68 1.96-2.61 2.95-4.44 2.95-5.5q0-1.5-1.41-1.5c-1.41 0-4.22 1.91-8.45 5.72-2.88 2.58-5.4 5.07-7.57 7.48-.82.88-1.47 1.32-1.94 1.32q-1.14 0-1.14-1.23c0-.24.21-.82.62-1.76a347 347 0 0 0 4.14-5.81c2.05-2.93 3.08-5.02 3.08-6.25 0-.53-.18-.79-.53-.79-.18 0-.53.12-1.06.35-2.99 2.23-7.25 5.4-12.76 9.5h-.62c-.41 0-.62-.06-.62-.18 0-.18.32-.47.97-.88 4.11-3.23 8.65-6.72 13.64-10.47.7-.59 1.61-.88 2.73-.88 1.17 0 1.76.53 1.76 1.58 0 .24-.06.59-.18 1.06-1.17 2.05-2.67 4.66-4.49 7.83-.24.41-.35.68-.35.79q0 .09.18.09l.26-.09c2.17-1.88 4.34-3.75 6.51-5.63 3.34-2.82 5.75-4.22 7.22-4.22 1.94 0 2.9.62 2.9 1.85 0 1.06-.57 2.65-1.72 4.8-1.14 2.14-1.72 3.3-1.72 3.48s.06.26.18.26c.23 0 .64-.2 1.23-.62l18.3-13.82c.59-.47 1.2-.7 1.85-.7.41 0 .7.07.88.22s.26.4.26.75c0 .41-.12.76-.35 1.06-1.64 2.35-3.32 4.72-5.02 7.13-2 3.05-2.99 5.69-2.99 7.92 0 1.41.76 2.08 2.29 2.02 1.82-.06 3.87-.79 6.16-2.2 1.88-1.17 3.75-2.35 5.63-3.52.18-.18.35-.26.53-.26s.26.12.26.35Zm47.34-4.4c0 .88-.67 1.64-2.02 2.29a9.6 9.6 0 0 1-4.22.97c-1.64 0-3.81-.54-6.51-1.63-2.7-1.08-4.81-1.63-6.34-1.63q-.975 0-2.73.84c-1.17.56-1.91.84-2.2.84l-.18-.09c0-.41.7-1.08 2.11-2.02 1.7-1.06 3.43-1.58 5.19-1.58q2.205 0 6.51 1.8c2.87 1.2 4.81 1.8 5.81 1.8 1.11 0 2.13-.31 3.04-.92.91-.62 1.33-.92 1.28-.92.18 0 .26.09.26.26Zm48.05 4.4c-.24.76-2.26 2.27-6.07 4.53s-7.07 4.27-9.77 6.03c-8.39 16.43-13.61 26.34-15.66 29.74q-8.715 14.43-14.52 14.43c-1.76 0-2.64-1.14-2.64-3.43q0-20.235 30.54-40.83c1.35-2.64 3.81-7.66 7.39-15.05q0-.09-.18-.09c-.18 0-.32.15-.62.44-1.17 1.12-2.73 2.55-4.66 4.31-4.17 3.87-7.57 5.81-10.21 5.81-1.23 0-1.85-.73-1.85-2.2 0-2.64 1.91-5.69 5.72-9.15 4.11-3.75 8.12-5.63 12.06-5.63 1.11 0 2.05.23 2.82.7l1.85-2.55c.41-.53.82-.79 1.23-.79q1.14 0 1.14 1.23c0 .41-.15.82-.44 1.23-2.76 4.11-6.37 10.62-10.82 19.54 2.99-1.88 5.72-3.46 8.18-4.75 2.93-1.7 4.84-2.9 5.72-3.61.18-.18.35-.26.53-.26s.26.12.26.35m-19.36 13.03c-17.89 12.67-26.84 25.2-26.84 37.58 0 1.52.5 2.29 1.5 2.29 3.75 0 12.2-13.29 25.34-39.86Zm11.09-22.36c0-.23-.26-.35-.79-.35q-4.755 0-10.38 4.53c-3.75 3.02-5.63 5.71-5.63 8.05 0 .7.32 1.06.97 1.06 2.41 0 7.54-4.19 15.4-12.58.29-.41.44-.65.44-.7Z" class="st0"/><path d="M474.31 141.23q.18-2.205-.48-3.12c-.44-.62-1.16-.92-2.16-.92-1.53 0-3.36.73-5.5 2.2s-4.74 3.23-7.79 5.28c-.06.06-.22.18-.48.35-.26.18-.56.37-.88.57-.32.21-.63.38-.92.53s-.47.22-.53.22c-.18 0-.26-.15-.26-.44 0-.18.43-.6 1.28-1.28.85-.67 1.86-1.42 3.04-2.24a188 188 0 0 1 6.33-4.22c1.64-1 3.07-1.7 4.27-2.11s2.33-.62 3.39-.62c1.23 0 2.16.38 2.77 1.14q.93 1.14.66 3.78c-.18 1.76-.85 3.46-2.02 5.1a20.7 20.7 0 0 1-4.22 4.36 21 21 0 0 1-5.19 2.95c-1.82.7-3.52.97-5.1.79q-2.73-.27-2.46-2.46c.12-.88 1.5-2.38 4.14-4.49.23-.18.5-.26.79-.26.47.12.67.41.62.88-.06.29-.18.5-.35.62-.18.12-.59.67-1.23 1.67-.65 1.17-1 2.02-1.06 2.55 0 .18.21.29.62.35q1.32.18 3.39-.84c1.38-.67 2.74-1.57 4.09-2.68s2.54-2.35 3.56-3.7c1.03-1.35 1.6-2.67 1.72-3.96Zm5.46 7.04c.7-1 1.64-1.86 2.82-2.6 1.17-.73 2.2-1.28 3.08-1.63.12.47.03.81-.26 1.01-.29.21-.56.37-.79.48-.94.53-2.02 1.29-3.26 2.29-1.23 1-2.23 2.2-2.99 3.61-.47.23-.76.43-.88.57-.12.15-.24.22-.35.22-.29-.06-.56-.24-.79-.53q-.345-.435-.18-1.14c.12-.06.35-.4.7-1.01.35-.62.67-1.28.97-1.98.23-.65.56-1.45.97-2.42s.79-1.95 1.14-2.95c.12-.41.25-.82.4-1.23l.48-1.32c-.18 0-.32.15-.44.44-1.47 2.11-3.08 3.52-4.84 4.22-.18-.94-.09-1.5.26-1.67.94-.53 2.02-1.29 3.26-2.29 1.23-1 2.23-2.2 2.99-3.61.47-.23.76-.42.88-.57s.23-.22.35-.22c.29.06.56.24.79.53q.345.435.18 1.14c-.12.06-.35.4-.7 1.01-.35.62-.68 1.28-.97 1.98q-.435 1.23-1.14 3.21c-.47 1.32-1.03 2.8-1.67 4.44Zm24.29-2.55c0 .18-.31.5-.92.97-.62.47-1.36.97-2.24 1.5s-1.79 1.06-2.73 1.58c-.94.53-1.73 1-2.38 1.41-1.7 1.06-3.24 1.82-4.62 2.29s-2.57.7-3.56.7c-1.23 0-2.32-.44-3.26-1.32s-1.41-1.88-1.41-2.99c0-1.76.48-3.53 1.45-5.32s2.2-3.39 3.7-4.8 3.11-2.57 4.84-3.48 3.39-1.36 4.97-1.36c.94 0 1.64.18 2.11.53s.82.88 1.06 1.58c.12.29.04.88-.22 1.76s-1.16 1.58-2.68 2.11q-.36.18-.48-.18c-.09-.23-.04-.44.13-.62.7-.65 1.08-1.23 1.14-1.76s0-.95-.18-1.28c-.18-.32-.41-.54-.7-.66s-.44-.12-.44 0c0-.18-.21-.26-.62-.26q-1.32 0-3.3 1.23c-1.32.82-2.6 1.85-3.83 3.08a19.6 19.6 0 0 0-3.12 4.05c-.85 1.47-1.28 2.85-1.28 4.14 0 2.23.97 3.34 2.9 3.34 1.52 0 3.42-.41 5.68-1.23s4.91-2.26 7.96-4.31c.12-.12.4-.32.84-.62.44-.29.75-.44.92-.44s.26.12.26.35Z" class="st0"/><path d="M527.46 145.19c-.23.76-2.23 2.26-5.98 4.49-4.34 2.58-7.77 4.69-10.3 6.34-7.92 15.9-12.85 25.43-14.78 28.6-5.51 9.38-10.15 14.08-13.9 14.08-1.76 0-2.64-1.14-2.64-3.43 0-12.79 9.56-25.81 28.69-39.07l5.46-11.44c0-.23-.09-.35-.26-.35-6.45 4.93-10.41 7.39-11.88 7.39s-2.11-.7-2.11-2.11c0-.82.9-2.93 2.68-6.34 1.79-3.4 2.68-5.4 2.68-5.98 0-.65-.53-.97-1.58-.97-.24 0-.35-.35-.35-1.06.53-.18 1.08-.26 1.67-.26 2.05 0 3.08.59 3.08 1.76 0 1.29-.79 3.4-2.38 6.34-1.58 2.93-2.38 4.78-2.38 5.54 0 .47.2.7.62.7 1.41 0 3.67-1.23 6.78-3.7q5.28-4.23 7.92-9.06c.88-.88 1.53-1.32 1.94-1.32q1.14 0 1.14 1.14c0 .41-.21.94-.62 1.58-2.29 3.58-5.16 8.8-8.62 15.66 3.11-1.94 5.98-3.61 8.62-5.02 2.93-1.7 4.84-2.9 5.72-3.61.18-.18.35-.26.53-.26s.26.12.26.35Zm-19.97 13.38c-16.78 11.97-25.17 23.96-25.17 35.99 0 1.53.5 2.29 1.5 2.29 2.46 0 6.1-4.22 10.91-12.67 3.11-5.51 7.36-14.05 12.76-25.61" class="st0"/><path d="M529.05 149.77c.47 0 1.61-.41 3.43-1.23 3.23-1.52 6.08-3.36 8.58-5.5 2.49-2.14 4.62-4.36 6.38-6.64.88-.88 1.52-1.32 1.94-1.32q1.14 0 1.14 1.14c0 .47-.21 1-.62 1.58-3.52 5.28-5.28 8.71-5.28 10.3 0 1.47.67 2.2 2.02 2.2 2.05 0 5.78-1.85 11.18-5.54.12-.12.4-.32.84-.62.44-.29.75-.44.92-.44s.26.12.26.35q0 .525-1.32 1.41c-7.28 4.87-12.14 7.3-14.61 7.3q-2.46 0-2.46-2.82c0-.59.07-1.22.22-1.89s.32-1.28.53-1.8c.21-.53.38-.97.53-1.32s.22-.5.22-.44c0-.23-.09-.35-.26-.35-.29 0-.9.35-1.8 1.06q-1.365 1.05-4.44 2.82-1.5.705-2.73 1.41c-.82.47-1.61.91-2.38 1.32-.76.41-1.5.73-2.2.97a5.6 5.6 0 0 1-2.2.26c-.82-.06-1.57-.25-2.24-.57s-1.01-1.04-1.01-2.16c0-.64.16-1.2.48-1.67s.66-.7 1.01-.7c.29 0 .53.15.7.44.18.29.38.63.62 1.01.23.38.5.72.79 1.01s.7.44 1.23.44h.53Z" class="st0"/><path d="M586.78 145.19q0 .525-1.32 1.41c-7.22 4.87-12.09 7.3-14.61 7.3q-2.46 0-2.46-2.82c0-1.06.21-2.11.62-3.17.59-1.47.88-2.23.88-2.29 0-.23-.09-.35-.26-.35-.06 0-.21.06-.44.18-1.29 1.29-3.17 2.85-5.63 4.66-3.17 2.35-5.37 3.52-6.6 3.52-1.41 0-2.11-.7-2.11-2.11 0-.82 1.03-3.09 3.08-6.82s3.08-5.88 3.08-6.47c0-.64-.53-.97-1.58-.97-.24 0-.35-.35-.35-1.06.53-.18 1.08-.26 1.67-.26 2.05 0 3.08.59 3.08 1.76q0 1.935-2.73 6.51c-1.82 3.05-2.73 4.96-2.73 5.72 0 .47.21.7.62.7.94 0 3.24-1.55 6.91-4.66s6.5-5.92 8.49-8.45c.88-.88 1.52-1.32 1.94-1.32q1.14 0 1.14 1.14c0 .41-.21.94-.62 1.58-3.52 5.28-5.28 8.71-5.28 10.3 0 1.47.67 2.2 2.02 2.2 2.05 0 5.78-1.85 11.18-5.54.29-.23.7-.5 1.23-.79.18-.18.35-.26.53-.26s.26.12.26.35Zm49.36-35.64c-.7.06-1.86.07-3.48.04-1.61-.03-3.46 0-5.54.09s-4.21.26-6.38.53q-3.255.39-5.94 1.32c-1.79.62-3.23 1.41-4.31 2.38-1.09.97-1.57 2.24-1.45 3.83.12 1.17.67 2.51 1.67 4 1 1.5 2.05 3.14 3.17 4.93a35 35 0 0 1 2.82 5.63c.76 1.97.97 4 .62 6.12 0 1.29-.26 2.8-.79 4.53s-1.41 3.36-2.64 4.88q-2.025 2.64-4.62 4.14c-1.73 1-3.39 1.5-4.97 1.5-2.35 0-3.52-1.47-3.52-4.4 0-3.87 1.88-7.71 5.63-11.53 3.17-3.23 5.48-4.84 6.95-4.84.94 0 1.41.29 1.41.88 0 .24-.18.47-.53.7-1.47.29-3.38 1.79-5.72 4.49-2.93 3.29-4.4 6.45-4.4 9.5 0 2 .7 2.99 2.11 2.99 2.05 0 4.14-1.2 6.25-3.61.53-.7 1.03-1.47 1.5-2.29q.705-1.23 1.23-2.46c.35-.82.63-1.63.84-2.42s.31-1.48.31-2.07c0-1.41-.09-2.58-.26-3.52-.18-.94-.44-1.77-.79-2.51q-.525-1.095-1.32-2.16c-.53-.7-1.12-1.55-1.76-2.55-.7-1.06-1.38-2.08-2.02-3.08-.65-1-1.2-1.99-1.67-2.99s-.78-1.99-.92-2.99c-.15-1-.04-2.02.31-3.08.88-1.41 2.23-2.64 4.05-3.7s3.86-1.92 6.12-2.6c2.26-.67 4.63-1.19 7.13-1.54 2.49-.35 4.88-.56 7.17-.62s4.37.03 6.25.26 3.31.56 4.31.97c.82.35 1.19.66 1.1.92s-.81.37-2.16.31h-5.72Z" class="st0"/><path d="M645.82 145.19c0 .82-2.11 2.35-6.34 4.58-4.22 2.23-9.36 3.34-15.4 3.34-3.46 0-5.34-.35-5.63-1.06 0-.41.32-.62.97-.62.88.18 1.44.26 1.67.26 2.99 0 6.19-1.52 9.59-4.58 3.23-2.87 4.84-5.34 4.84-7.39 0-.88-.56-1.32-1.67-1.32-5.52 0-11.53 5.22-18.04 15.66-.53.82-3.74 7.05-9.64 18.7-5.9 11.64-9.02 17.88-9.37 18.7-.41 1-.94 1.5-1.58 1.5-.23 0-.41-.03-.53-.09-.35-.12-.53-.47-.53-1.06q0-3.165 39.6-73.92.705-1.23 1.32-1.23c.06 0 .18.06.35.18.18.12.26.35.26.7 0 .65-.18 1.14-.53 1.5-.06.18-2.46 4.52-7.22 13.02q-6.78 12.315-6.78 13.11 0 .09.09.18c.06-.12.26-.35.62-.7 1.41-1.7 3.34-3.43 5.81-5.19 3.29-2.23 6.16-3.34 8.62-3.34 1.82 0 2.73.7 2.73 2.11 0 4.28-3.43 8.48-10.3 12.58 5.22 0 10.65-1.91 16.28-5.72.18-.18.35-.26.53-.26s.26.12.26.35Z" class="st0"/><path d="M673.45 145.19q0 1.05-5.46 4.05c-3.81 2.11-6.54 3.17-8.18 3.17-3.05 0-4.58-1.61-4.58-4.84 0-.88.47-1.88 1.41-2.99q0-.09-.09-.09c.06 0-1.53 1.22-4.75 3.65-3.23 2.44-5.54 3.65-6.95 3.65s-2.02-.56-2.02-1.67q0-4.05 6.78-9.42c4.28-3.46 7.63-5.19 10.03-5.19.35.06.75.25 1.19.57q.66.48.66.75 0 .09-.09.18c-3.29 0-7.48 2.55-12.58 7.66q-2.46 2.46-2.46 4.14c0 .41.2.62.62.62 1.29 0 3.75-1.5 7.39-4.49 2.93-2.46 5.02-4.43 6.25-5.9.59-.7 1-1.06 1.23-1.06.59 0 .88.41.88 1.23 0 .29-.38.97-1.14 2.02q-3.78 5.19-3.78 6.6 0 2.46 2.73 2.46c2.99 0 7.04-1.73 12.14-5.19.18-.18.35-.26.53-.26s.26.12.26.35Z" class="st0"/><path d="M701.96 145.19q0 .525-1.32 1.41c-7.22 4.87-12.09 7.3-14.61 7.3q-2.46 0-2.46-2.82c0-1.06.21-2.11.62-3.17.59-1.47.88-2.23.88-2.29 0-.23-.09-.35-.26-.35-.06 0-.21.06-.44.18-1.29 1.29-3.17 2.85-5.63 4.66-3.17 2.35-5.37 3.52-6.6 3.52-1.41 0-2.11-.7-2.11-2.11 0-.82 1.03-3.09 3.08-6.82s3.08-5.88 3.08-6.47c0-.64-.53-.97-1.58-.97-.24 0-.35-.35-.35-1.06.53-.18 1.08-.26 1.67-.26 2.05 0 3.08.59 3.08 1.76q0 1.935-2.73 6.51c-1.82 3.05-2.73 4.96-2.73 5.72 0 .47.21.7.62.7.94 0 3.24-1.55 6.91-4.66s6.5-5.92 8.49-8.45c.88-.88 1.52-1.32 1.94-1.32q1.14 0 1.14 1.14c0 .41-.21.94-.62 1.58-3.52 5.28-5.28 8.71-5.28 10.3 0 1.47.67 2.2 2.02 2.2 2.05 0 5.78-1.85 11.18-5.54.29-.23.7-.5 1.23-.79.18-.18.35-.26.53-.26s.26.12.26.35ZM698 122.4c0 .53-1.09 1.35-3.26 2.46-3.29 1.7-6.19 3.73-8.71 6.07-.12 0-.18-.15-.18-.44 0-.35.06-.59.18-.7.82-1 1.67-1.98 2.55-2.95s1.73-1.95 2.55-2.95q3.525-3.78 5.37-3.78h.18c.88.29 1.32.91 1.32 1.85z" class="st0"/><path d="M728.19 145.19c-.24.76-2.26 2.27-6.07 4.53s-7.07 4.27-9.77 6.03c-8.39 16.43-13.61 26.34-15.66 29.74q-8.715 14.43-14.52 14.43c-1.76 0-2.64-1.14-2.64-3.43q0-20.235 30.54-40.83c1.35-2.64 3.81-7.66 7.39-15.05q0-.09-.18-.09c-.18 0-.32.15-.62.44-1.17 1.12-2.73 2.55-4.66 4.31-4.17 3.87-7.57 5.81-10.21 5.81-1.23 0-1.85-.73-1.85-2.2 0-2.64 1.91-5.69 5.72-9.15 4.11-3.75 8.12-5.63 12.06-5.63 1.11 0 2.05.23 2.82.7l1.85-2.55c.41-.53.82-.79 1.23-.79q1.14 0 1.14 1.23c0 .41-.15.82-.44 1.23-2.76 4.11-6.37 10.62-10.82 19.54 2.99-1.88 5.72-3.46 8.18-4.75 2.93-1.7 4.84-2.9 5.72-3.61.18-.18.35-.26.53-.26s.26.12.26.35m-19.36 13.03c-17.89 12.67-26.84 25.2-26.84 37.58 0 1.52.5 2.29 1.5 2.29 3.75 0 12.2-13.29 25.34-39.86Zm11.08-22.36c0-.23-.26-.35-.79-.35q-4.755 0-10.38 4.53c-3.75 3.02-5.63 5.71-5.63 8.05 0 .7.32 1.06.97 1.06 2.41 0 7.54-4.19 15.4-12.58.29-.41.44-.65.44-.7ZM34.75 110.62c0 .12-.07.18-.22.18-.44-.03-1.35-.04-2.73-.04h-5.24c-1.29 0-2.16.01-2.6.04-.15 0-.22-.06-.22-.18s.07-.18.22-.18c.94 0 1.62-.32 2.05-.97.42-.65.64-1.75.64-3.3v-5.76c0-.35-.13-.51-.4-.48-1.56.24-3.1.35-4.62.35s-3.07-.12-4.62-.35h-.04c-.18 0-.26.16-.26.48v5.76c0 1.56.21 2.66.64 3.3.42.65 1.11.97 2.05.97.15 0 .22.06.22.18s-.07.18-.22.18c-.44-.03-1.31-.04-2.6-.04h-5.24c-1.38 0-2.3.01-2.77.04-.15 0-.22-.06-.22-.18s.07-.18.22-.18c.97 0 1.69-.32 2.16-.97s.7-1.75.7-3.3V95.26c0-1.55-.23-2.65-.7-3.3s-1.19-.97-2.16-.97c-.15 0-.22-.06-.22-.18s.07-.18.22-.18l2.77.04h5.24l2.6-.04c.15 0 .22.06.22.18s-.07.18-.22.18c-.94 0-1.62.32-2.05.97s-.64 1.75-.64 3.3v3.83c0 .32.1.5.31.53 1.5.23 2.99.35 4.49.35 1.58 0 3.17-.12 4.75-.35.15-.03.25-.09.31-.18s.09-.2.09-.35v-3.83c0-1.55-.21-2.65-.64-3.3s-1.11-.97-2.05-.97c-.15 0-.22-.06-.22-.18s.07-.18.22-.18l2.6.04h5.24l2.73-.04c.15 0 .22.06.22.18s-.07.18-.22.18c-.97 0-1.68.32-2.13.97-.46.65-.68 1.75-.68 3.3v10.91c0 1.56.23 2.66.68 3.3.45.65 1.17.97 2.13.97.15 0 .22.06.22.18Zm21.54-3.74c.07.06.08.13.02.22a11.16 11.16 0 0 1-4.14 3.21c-1.61.73-3.3 1.1-5.06 1.1-1.85 0-3.56-.43-5.15-1.28a9.5 9.5 0 0 1-3.76-3.63c-.92-1.57-1.39-3.38-1.39-5.43s.51-3.89 1.52-5.59 2.38-3.04 4.11-4.03c1.73-.98 3.62-1.47 5.68-1.47 2.29 0 4.19.62 5.72 1.87 1.52 1.25 2.29 2.94 2.29 5.08 0 .97-.18 2.01-.53 3.12-3.08.06-7.8.19-14.17.4.5 1.61 1.27 3.06 2.31 4.33 1.04 1.28 2.24 2.27 3.59 2.99q2.025 1.08 3.96 1.08c2.14 0 3.75-.67 4.84-2.02.03-.03.08-.01.15.04ZM42.21 92.34c-.87 1.01-1.3 2.53-1.3 4.55 0 1 .15 2.08.44 3.26 1.67-.03 3.64-.1 5.9-.22.59-.03 1.19-.06 1.83-.09.63-.03 1.27-.04 1.91-.04.26-.44.4-.98.4-1.63 0-.97-.27-2.03-.81-3.19s-1.23-2.14-2.07-2.95-1.68-1.21-2.53-1.21c-1.64 0-2.9.51-3.76 1.52Zm16.43 18.41c-.15 0-.22-.06-.22-.18s.07-.18.22-.18c1 .03 1.72-.28 2.18-.92.45-.65.68-1.75.68-3.3V95.3c0-1.55-.23-2.65-.68-3.3-.46-.64-1.17-.97-2.13-.97-.15 0-.22-.06-.22-.18s.07-.18.22-.18q1.32.09 2.73.09c3.7-.09 7.05-.13 10.08-.13 2.32 0 4.12.39 5.41 1.17s1.94 1.97 1.94 3.59c0 1.06-.45 2-1.34 2.84-.9.84-2 1.33-3.32 1.47 1.7.09 3.12.59 4.27 1.5 1.14.91 1.72 2.16 1.72 3.74 0 1.85-.73 3.3-2.18 4.36s-3.45 1.58-6.01 1.58l-10.56-.18-2.77.04Zm11.75-11.26c1.5-.18 2.57-.58 3.21-1.21s.97-1.61.97-2.93c0-1.44-.37-2.51-1.12-3.21s-1.69-1.07-2.84-1.1l-3.12-.13h-.13c-.29 0-.48.07-.57.22s-.13.41-.13.79v17.34q0 .795.24 1.08c.16.19.48.29.95.29l2.77-.04c1.5 0 2.66-.43 3.5-1.3.84-.86 1.25-2.15 1.25-3.85s-.37-3.06-1.12-3.98q-1.125-1.38-3.72-1.47l-1.5-.04c-.12 0-.18-.04-.18-.13s.04-.15.13-.18l1.41-.13Zm31.7 7.39c.07.06.08.13.02.22a11.16 11.16 0 0 1-4.14 3.21c-1.61.73-3.3 1.1-5.06 1.1-1.85 0-3.56-.43-5.15-1.28A9.5 9.5 0 0 1 84 106.5c-.92-1.57-1.39-3.38-1.39-5.43s.51-3.89 1.52-5.59 2.38-3.04 4.11-4.03c1.73-.98 3.62-1.47 5.68-1.47 2.29 0 4.19.62 5.72 1.87 1.52 1.25 2.29 2.94 2.29 5.08 0 .97-.18 2.01-.53 3.12-3.08.06-7.8.19-14.17.4.5 1.61 1.27 3.06 2.31 4.33 1.04 1.28 2.24 2.27 3.59 2.99q2.025 1.08 3.96 1.08c2.14 0 3.75-.67 4.84-2.02.03-.03.08-.01.15.04ZM88.01 92.34c-.87 1.01-1.3 2.53-1.3 4.55 0 1 .15 2.08.44 3.26 1.67-.03 3.64-.1 5.9-.22.59-.03 1.19-.06 1.83-.09.63-.03 1.27-.04 1.91-.04.26-.44.4-.98.4-1.63 0-.97-.27-2.03-.81-3.19s-1.23-2.14-2.07-2.95-1.68-1.21-2.53-1.21c-1.64 0-2.9.51-3.76 1.52Zm33.07 9.26c-.06.15-.14.21-.24.2s-.12-.11-.07-.29c.15-.59.22-1.16.22-1.72 0-1.35-.32-2.72-.97-4.11q-.975-2.085-2.55-3.45c-1.06-.91-2.17-1.36-3.34-1.36q-5.19 0-5.19 5.94c0 2.17.5 4.19 1.5 6.05s2.29 3.34 3.89 4.42c1.6 1.09 3.22 1.63 4.86 1.63 2.11 0 3.72-.67 4.84-2.02.12-.12.21-.14.26-.07q.09.105 0 .24c-2.32 2.9-5.38 4.36-9.2 4.36-1.88 0-3.61-.43-5.19-1.28q-2.37-1.275-3.81-3.63c-.95-1.57-1.43-3.38-1.43-5.43s.51-3.84 1.52-5.54q1.515-2.55 4.11-4.05c1.73-1 3.61-1.5 5.63-1.5q2.115 0 3.96.57c1.23.38 2.18.87 2.84 1.47s.92 1.2.77 1.78l-2.42 7.79Zm24.85-3.13q-.135 0-.18-.18c-1.09-4.08-2.29-6.35-3.61-6.82-.26-.21-1.29-.31-3.08-.31-.18 0-.32.1-.44.29s-.18.43-.18.73v13.99c0 1.56.23 2.66.68 3.3.45.65 1.17.97 2.13.97.15 0 .22.06.22.18s-.07.18-.22.18c-.44-.03-1.35-.04-2.73-.04h-5.24c-1.38 0-2.29.01-2.73.04-.15 0-.22-.06-.22-.18s.07-.18.22-.18c.97 0 1.68-.32 2.13-.97s.68-1.75.68-3.3V92.18c0-.29-.06-.54-.18-.73s-.26-.29-.44-.29c-1.79 0-2.82.1-3.08.31-1.32.47-2.52 2.74-3.61 6.82q-.045.18-.18.18c-.135 0-.12-.06-.09-.18.35-2.61.53-5 .53-7.17 0-.47.19-.7.57-.7.18 0 .68.06 1.52.18s2.49.18 4.95.18h5.06c2.38 0 4-.06 4.88-.18s1.42-.18 1.63-.18c.35 0 .53.24.53.7 0 2.17.18 4.56.53 7.17q.045.18-.09.18Zm13.82.8c6.01-.09 9.02 1.75 9.02 5.5 0 1.94-.7 3.42-2.11 4.44-1.41 1.03-3.51 1.54-6.29 1.54h-9.24c-1.38 0-2.3.01-2.77.04-.15 0-.22-.06-.22-.18s.07-.18.22-.18c.97 0 1.69-.32 2.16-.97s.7-1.75.7-3.3V95.25c0-1.55-.24-2.65-.7-3.3-.47-.65-1.19-.97-2.16-.97-.15 0-.22-.06-.22-.18s.07-.18.22-.18l2.77.04h5.24l2.73-.04c.15 0 .22.06.22.18s-.07.18-.22.18c-.97 0-1.68.32-2.13.97-.46.65-.68 1.75-.68 3.3v3.56c0 .32.13.48.4.48l3.08-.04Zm-.7 11.13c1.41-.03 2.5-.54 3.28-1.54s1.17-2.33 1.17-4-.4-2.93-1.19-3.85-1.94-1.37-3.43-1.34l-2.2.04c-.26 0-.4.16-.4.48v9.06c0 .47.06.79.18.95s.35.24.7.24zm20.37.22c0 .12-.07.18-.22.18-.47-.03-1.38-.04-2.73-.04h-5.24c-1.38 0-2.3.01-2.77.04q-.18 0-.18-.18c0-.18.06-.18.18-.18 1 0 1.72-.32 2.18-.97s.68-1.75.68-3.3V95.13c0-1.55-.23-2.65-.68-3.3-.46-.65-1.18-.97-2.18-.97q-.18 0-.18-.18c0-.18.06-.18.18-.18l2.77.04h5.24l2.73-.04c.15 0 .22.06.22.18s-.07.18-.22.18c-.97 0-1.68.32-2.13.97-.46.65-.68 1.75-.68 3.3v11.04c0 1.56.23 2.66.68 3.3.45.65 1.17.97 2.13.97.15 0 .22.06.22.18m12.05.13c-.15 0-.22-.06-.22-.18s.07-.18.22-.18c1 .03 1.72-.28 2.18-.92.45-.65.68-1.75.68-3.3V95.3c0-1.55-.23-2.65-.68-3.3-.46-.64-1.17-.97-2.13-.97-.15 0-.22-.06-.22-.18s.07-.18.22-.18q1.32.09 2.73.09c3.7-.09 7.05-.13 10.08-.13 2.32 0 4.12.39 5.41 1.17s1.94 1.97 1.94 3.59c0 1.06-.45 2-1.34 2.84-.9.84-2 1.33-3.32 1.47 1.7.09 3.12.59 4.27 1.5 1.14.91 1.72 2.16 1.72 3.74 0 1.85-.73 3.3-2.18 4.36s-3.45 1.58-6.01 1.58l-10.56-.18-2.77.04Zm11.75-11.26c1.5-.18 2.57-.58 3.21-1.21s.97-1.61.97-2.93c0-1.44-.37-2.51-1.12-3.21s-1.69-1.07-2.84-1.1l-3.12-.13h-.13c-.29 0-.48.07-.57.22s-.13.41-.13.79v17.34q0 .795.24 1.08c.16.19.48.29.95.29l2.77-.04c1.5 0 2.66-.43 3.5-1.3.84-.86 1.25-2.15 1.25-3.85s-.37-3.06-1.12-3.98q-1.125-1.38-3.72-1.47l-1.5-.04c-.12 0-.18-.04-.18-.13s.04-.15.13-.18l1.41-.13Zm23.41-.22c6.01-.09 9.02 1.75 9.02 5.5 0 1.94-.7 3.42-2.11 4.44-1.41 1.03-3.51 1.54-6.29 1.54h-9.24c-1.38 0-2.3.01-2.77.04-.15 0-.22-.06-.22-.18s.07-.18.22-.18c.97 0 1.69-.32 2.16-.97s.7-1.75.7-3.3V95.25c0-1.55-.24-2.65-.7-3.3-.47-.65-1.19-.97-2.16-.97-.15 0-.22-.06-.22-.18s.07-.18.22-.18l2.77.04h5.24l2.73-.04c.15 0 .22.06.22.18s-.07.18-.22.18c-.97 0-1.68.32-2.13.97-.46.65-.68 1.75-.68 3.3v3.56c0 .32.13.48.4.48l3.08-.04Zm-.71 11.13c1.41-.03 2.5-.54 3.28-1.54s1.17-2.33 1.17-4-.4-2.93-1.19-3.85-1.94-1.37-3.43-1.34l-2.2.04c-.26 0-.4.16-.4.48v9.06c0 .47.06.79.18.95s.35.24.7.24zm20.38.22c0 .12-.07.18-.22.18-.47-.03-1.38-.04-2.73-.04h-5.24c-1.38 0-2.3.01-2.77.04q-.18 0-.18-.18c0-.18.06-.18.18-.18 1 0 1.72-.32 2.18-.97s.68-1.75.68-3.3V95.13c0-1.55-.23-2.65-.68-3.3-.46-.65-1.18-.97-2.18-.97q-.18 0-.18-.18c0-.18.06-.18.18-.18l2.77.04h5.24l2.73-.04c.15 0 .22.06.22.18s-.07.18-.22.18c-.97 0-1.68.32-2.13.97-.46.65-.68 1.75-.68 3.3v11.04c0 1.56.23 2.66.68 3.3.45.65 1.17.97 2.13.97.15 0 .22.06.22.18m20.43-18.37c1.66.87 2.96 2.05 3.92 3.54s1.43 3.2 1.43 5.1-.54 3.71-1.61 5.32-2.54 2.89-4.4 3.83-3.91 1.41-6.14 1.41c-2 0-3.79-.4-5.39-1.19s-2.87-1.91-3.81-3.34c-.94-1.44-1.44-3.08-1.5-4.93v-2.24c0-3.75.62-6.92 1.85-9.5s2.84-4.55 4.82-5.9q2.97-2.025 6.45-2.46c2.11-.29 3.7-.58 4.75-.86 1.06-.28 1.75-.57 2.09-.88s.51-.68.51-1.12c0-.15.05-.22.15-.22s.17.07.2.22c.06.47.09.84.09 1.1 0 1.44-.48 2.72-1.43 3.85q-1.425 1.695-5.04 2.31c-1.47.26-3.12.51-4.97.75-1.76.23-3.03.44-3.81.62s-1.43.47-1.96.88c-.62.41-1.07 1.04-1.36 1.89s-.44 2.02-.44 3.52c0 .79.01 1.42.04 1.89 1.08-1.5 2.51-2.68 4.27-3.56s3.65-1.32 5.68-1.32 3.95.43 5.61 1.3Zm-.43 16.78c.95-.97 1.43-2.42 1.43-4.36 0-1.64-.43-3.48-1.3-5.5s-1.98-3.75-3.34-5.17-2.75-2.13-4.16-2.13c-1.7 0-3.03.48-3.98 1.43s-1.43 2.41-1.43 4.38c0 1.61.43 3.44 1.3 5.48s1.97 3.77 3.32 5.19 2.71 2.13 4.09 2.13c1.76 0 3.12-.48 4.07-1.45m34.56 1.59c0 .12-.07.18-.22.18-.44-.03-1.35-.04-2.73-.04h-5.24c-1.38 0-2.29.01-2.73.04-.15 0-.22-.06-.22-.18s.07-.18.22-.18c.97 0 1.68-.32 2.13-.97s.68-1.75.68-3.3v-10.6l-10.52 10.56v.04c0 1.56.23 2.66.68 3.3.45.65 1.17.97 2.13.97.15 0 .22.06.22.18s-.07.18-.22.18c-.47-.03-1.38-.04-2.73-.04h-5.24c-1.38 0-2.3.01-2.77.04-.15 0-.22-.06-.22-.18s.07-.18.22-.18c.97 0 1.69-.32 2.16-.97s.7-1.75.7-3.3V95.3c0-1.55-.24-2.66-.7-3.32q-.705-.99-2.16-.99c-.15 0-.22-.06-.22-.18s.07-.18.22-.18c.94.06 1.86.09 2.77.09h5.24q1.32 0 2.73-.09c.15 0 .22.06.22.18s-.07.18-.22.18q-1.455 0-2.13.99c-.46.66-.68 1.77-.68 3.32v10.25l10.52-10.56c-.03-1.47-.27-2.5-.73-3.1s-1.15-.9-2.09-.9c-.15 0-.22-.06-.22-.18s.07-.18.22-.18q1.32.09 2.73.09h5.24q1.41 0 2.73-.09c.15 0 .22.06.22.18s-.07.18-.22.18q-1.455 0-2.13.99c-.46.66-.68 1.77-.68 3.32v10.87c0 1.56.23 2.66.68 3.3.45.65 1.17.97 2.13.97.15 0 .22.06.22.18Zm21.76-19.38c1.28.84 2.3 2.04 3.08 3.61q1.17 2.355 1.17 5.43c0 1.94-.45 3.76-1.34 5.48-.9 1.72-2.11 3.09-3.65 4.11s-3.22 1.54-5.04 1.54c-1.12 0-2.04-.15-2.77-.44s-1.42-.66-2.07-1.1c-.44-.29-.73-.44-.88-.44-.26 0-.4.25-.4.75v4.84c0 1.55.21 2.65.64 3.28.42.63 1.08.98 1.96 1.03.15 0 .22.05.22.15s-.07.15-.22.15c-1.23-.06-2.76-.09-4.58-.09-2.32 0-4.21.03-5.68.09-.15 0-.22-.06-.22-.18s.07-.18.22-.18c.88.03 1.53-.28 1.96-.92.43-.65.64-1.77.64-3.39V96.3c0-1.11-.14-1.93-.42-2.44s-.8-.77-1.56-.77q-.225 0-.75.09c-.12.03-.18 0-.2-.11-.02-.1.02-.17.11-.2 1.38-.32 2.79-.75 4.25-1.28 1.45-.53 2.63-1.1 3.54-1.72.15-.09.27-.12.37-.09s.14.12.11.26c-.18 1.53-.28 2.82-.31 3.87 0 .35.02.68.07.99s.11.45.2.42c.79-1.58 1.77-2.87 2.95-3.87 1.17-1 2.64-1.5 4.4-1.5 1.52 0 2.93.42 4.2 1.25Zm-1.37 17.93c.84-1.06 1.25-2.6 1.25-4.62s-.34-3.86-1.01-5.68-1.58-3.29-2.71-4.4-2.35-1.67-3.67-1.67-2.38.56-3.19 1.67-1.21 2.61-1.21 4.49v2.95c0 2.55.58 4.66 1.74 6.34 1.16 1.67 2.73 2.51 4.73 2.51 1.88 0 3.23-.53 4.07-1.58Zm30.16-6.16c.09 0 .13.07.13.22 0 2.23-.48 4.14-1.43 5.72s-2.19 2.38-3.72 2.38c-1.12 0-2.05-.37-2.82-1.12s-1.19-1.87-1.28-3.37q-1.05 2.205-2.79 3.39c-1.74 1.185-2.43 1.19-3.81 1.19-2.32 0-4.03-.65-5.15-1.96-1.11-1.31-1.67-2.82-1.67-4.55s.77-3.06 2.31-4.09 3.47-1.54 5.79-1.54c.79 0 1.68.07 2.66.22s1.87.34 2.66.57v-1.94c0-4.52-1.96-6.78-5.9-6.78-1.61 0-2.99.53-4.11 1.58-1.13 1.06-1.69 2.64-1.69 4.75 0 .12-.03.21-.09.26q-.09.09-.18.09c-.12 0-.18-.12-.18-.35q0-2.46 1.23-4.2a7.77 7.77 0 0 1 3.17-2.62c1.29-.59 2.65-.88 4.09-.88 5.81 0 8.71 2.71 8.71 8.14v7.22c0 1.94.5 2.9 1.5 2.9s1.6-.43 1.89-1.3c.29-.86.47-2.1.53-3.72 0-.15.04-.22.13-.22Zm-9.1.66v-.26c-.32-1.06-.94-1.9-1.85-2.53s-1.91-.95-2.99-.95c-2.9 0-4.36 1.12-4.36 3.34 0 1.5.42 2.81 1.28 3.94.85 1.13 2.05 1.69 3.61 1.69 2.87 0 4.31-1.74 4.31-5.24Z" class="st0"/><path d="M381.88 91.32c1.66.87 2.95 2.08 3.89 3.63.94 1.56 1.41 3.33 1.41 5.32s-.54 3.94-1.61 5.65c-1.07 1.72-2.54 3.07-4.4 4.05s-3.91 1.47-6.14 1.47c-2.02 0-3.84-.43-5.46-1.3a9.76 9.76 0 0 1-3.83-3.63c-.94-1.55-1.41-3.33-1.41-5.32 0-.12-.02-.2-.07-.24s-.14-.07-.29-.07h-4.27c-.18 0-.26.16-.26.48v4.8c0 1.56.23 2.66.68 3.3.45.65 1.17.97 2.13.97.15 0 .22.06.22.18s-.07.18-.22.18c-.47-.03-1.38-.04-2.73-.04h-5.24c-1.38 0-2.3.01-2.77.04-.15 0-.22-.06-.22-.18s.07-.18.22-.18c.97 0 1.69-.32 2.16-.97s.7-1.75.7-3.3V95.34c0-1.55-.24-2.66-.7-3.32q-.705-.99-2.16-.99c-.15 0-.22-.06-.22-.18s.07-.18.22-.18c.94.06 1.86.09 2.77.09h5.24q1.32 0 2.73-.09c.15 0 .22.06.22.18s-.07.18-.22.18q-1.455 0-2.13.99c-.46.66-.68 1.77-.68 3.32v4.71c0 .32.1.5.31.53h4.22c.15 0 .24-.02.29-.07s.08-.14.11-.29c.15-1.91.77-3.64 1.87-5.19s2.53-2.78 4.29-3.67 3.68-1.34 5.76-1.34 3.91.43 5.57 1.3Zm-.46 17.67c.97-.97 1.45-2.38 1.45-4.22s-.46-3.78-1.39-5.96c-.92-2.19-2.08-4.04-3.48-5.57-1.39-1.52-2.75-2.29-4.07-2.29-1.64 0-2.94.48-3.89 1.45s-1.43 2.39-1.43 4.27c0 1.76.46 3.73 1.39 5.92.92 2.19 2.09 4.04 3.5 5.57s2.77 2.29 4.09 2.29c1.58 0 2.86-.48 3.83-1.45Zm27.98-10.52q-.135 0-.18-.18c-1.09-4.08-2.29-6.35-3.61-6.82-.26-.21-1.29-.31-3.08-.31-.18 0-.32.1-.44.29s-.18.43-.18.73v13.99c0 1.56.23 2.66.68 3.3.45.65 1.17.97 2.13.97.15 0 .22.06.22.18s-.07.18-.22.18c-.44-.03-1.35-.04-2.73-.04h-5.24c-1.38 0-2.29.01-2.73.04-.15 0-.22-.06-.22-.18s.07-.18.22-.18c.97 0 1.68-.32 2.13-.97s.68-1.75.68-3.3V92.18c0-.29-.06-.54-.18-.73s-.26-.29-.44-.29c-1.79 0-2.82.1-3.08.31-1.32.47-2.52 2.74-3.61 6.82q-.045.18-.18.18c-.135 0-.12-.06-.09-.18.35-2.61.53-5 .53-7.17 0-.47.19-.7.57-.7.18 0 .68.06 1.52.18s2.49.18 4.95.18h5.06c2.38 0 4-.06 4.88-.18s1.42-.18 1.63-.18c.35 0 .53.24.53.7 0 2.17.18 4.56.53 7.17q.045.18-.09.18Zm28.43 3.13c-.06.15-.14.21-.24.2s-.12-.11-.07-.29c.15-.59.22-1.16.22-1.72 0-1.35-.32-2.72-.97-4.11q-.975-2.085-2.55-3.45c-1.06-.91-2.17-1.36-3.34-1.36q-5.19 0-5.19 5.94c0 2.17.5 4.19 1.5 6.05s2.29 3.34 3.89 4.42c1.6 1.09 3.22 1.63 4.86 1.63 2.11 0 3.72-.67 4.84-2.02.12-.12.21-.14.26-.07q.09.105 0 .24c-2.32 2.9-5.38 4.36-9.2 4.36-1.88 0-3.61-.43-5.19-1.28q-2.37-1.275-3.81-3.63c-.95-1.57-1.43-3.38-1.43-5.43s.51-3.84 1.52-5.54q1.515-2.55 4.11-4.05c1.73-1 3.61-1.5 5.63-1.5q2.115 0 3.96.57c1.23.38 2.18.87 2.84 1.47s.92 1.2.77 1.78l-2.42 7.79Zm24.13 5.28c.07.06.08.13.02.22a11.16 11.16 0 0 1-4.14 3.21c-1.61.73-3.3 1.1-5.06 1.1-1.85 0-3.56-.43-5.15-1.28a9.5 9.5 0 0 1-3.76-3.63c-.92-1.57-1.39-3.38-1.39-5.43s.51-3.89 1.52-5.59 2.38-3.04 4.11-4.03c1.73-.98 3.62-1.47 5.68-1.47 2.29 0 4.19.62 5.72 1.87 1.52 1.25 2.29 2.94 2.29 5.08 0 .97-.18 2.01-.53 3.12-3.08.06-7.8.19-14.17.4.5 1.61 1.27 3.06 2.31 4.33 1.04 1.28 2.24 2.27 3.59 2.99q2.025 1.08 3.96 1.08c2.14 0 3.75-.67 4.84-2.02.03-.03.08-.01.15.04Zm-14.08-14.54c-.87 1.01-1.3 2.53-1.3 4.55 0 1 .15 2.08.44 3.26 1.67-.03 3.64-.1 5.9-.22.59-.03 1.19-.06 1.83-.09.63-.03 1.27-.04 1.91-.04.26-.44.4-.98.4-1.63 0-.97-.27-2.03-.81-3.19s-1.23-2.14-2.07-2.95-1.68-1.21-2.53-1.21c-1.64 0-2.9.51-3.76 1.52Zm35.9-1.1c1.28.84 2.3 2.04 3.08 3.61q1.17 2.355 1.17 5.43c0 1.94-.45 3.76-1.34 5.48-.9 1.72-2.11 3.09-3.65 4.11s-3.22 1.54-5.04 1.54c-1.12 0-2.04-.15-2.77-.44s-1.42-.66-2.07-1.1c-.44-.29-.73-.44-.88-.44-.26 0-.4.25-.4.75v4.84c0 1.55.21 2.65.64 3.28.42.63 1.08.98 1.96 1.03.15 0 .22.05.22.15s-.07.15-.22.15c-1.23-.06-2.76-.09-4.58-.09-2.32 0-4.21.03-5.68.09-.15 0-.22-.06-.22-.18s.07-.18.22-.18c.88.03 1.53-.28 1.96-.92.43-.65.64-1.77.64-3.39V96.3c0-1.11-.14-1.93-.42-2.44s-.8-.77-1.56-.77q-.225 0-.75.09c-.12.03-.18 0-.2-.11-.02-.1.02-.17.11-.2 1.38-.32 2.79-.75 4.25-1.28 1.45-.53 2.63-1.1 3.54-1.72.15-.09.27-.12.37-.09s.14.12.11.26c-.18 1.53-.28 2.82-.31 3.87 0 .35.02.68.07.99s.11.45.2.42c.79-1.58 1.77-2.87 2.95-3.87 1.17-1 2.64-1.5 4.4-1.5 1.52 0 2.93.42 4.2 1.25Zm-1.36 17.93c.84-1.06 1.25-2.6 1.25-4.62s-.34-3.86-1.01-5.68-1.58-3.29-2.71-4.4-2.35-1.67-3.67-1.67-2.38.56-3.19 1.67-1.21 2.61-1.21 4.49v2.95c0 2.55.58 4.66 1.74 6.34 1.16 1.67 2.73 2.51 4.73 2.51 1.88 0 3.23-.53 4.07-1.58Zm30.25-18.46c0 .1-.09.17-.26.2-1.03.03-1.81.39-2.35 1.08q-.81 1.035-.81 3.45v15h2.46c.21 0 .31.1.31.31l.09 1.54c.15 1.85.23 2.96.26 3.34.03.18 0 .26-.11.26s-.17-.07-.2-.22c-.32-1.7-.86-2.95-1.61-3.74s-1.86-1.19-3.32-1.19h-12.41c-1.47 0-2.57.4-3.32 1.19s-1.28 2.04-1.61 3.74c-.03.15-.1.22-.2.22s-.14-.09-.11-.26c.18-1.53.26-2.64.26-3.34l.09-1.54c0-.21.1-.31.31-.31h1.36c1.03 0 1.81-1.63 2.35-4.88.54-3.26.89-7.02 1.03-11.31-.12-1.2-.44-2.05-.97-2.55s-1.25-.76-2.16-.79c-.18-.03-.26-.09-.24-.2q.015-.15.24-.15c1.23.09 2.08.13 2.55.13h15.53c.56 0 1.41-.04 2.55-.13.18 0 .26.05.26.15Zm-8.49 19.73V90.99h-8.93c0 4.19-.24 8.28-.73 12.25-.48 3.98-1.22 6.37-2.22 7.19h11.88Zm35.95 5.46c-.09 0-.16-.07-.22-.22-.32-1.67-.85-2.91-1.58-3.72s-1.85-1.21-3.34-1.21h-18.22c-1.38 0-2.3.01-2.77.04-.15 0-.22-.06-.22-.18s.07-.18.22-.18c.97 0 1.69-.32 2.16-.97s.7-1.75.7-3.3V95.25c0-1.55-.24-2.66-.7-3.32q-.705-.99-2.16-.99c-.15 0-.22-.06-.22-.18s.07-.18.22-.18c.94.06 1.86.09 2.77.09h5.24c.85 0 1.72-.03 2.6-.09.15 0 .22.06.22.18s-.07.18-.22.18c-.94 0-1.62.33-2.05.99s-.64 1.77-.64 3.32v15.18h10.12V95.25c0-1.55-.21-2.66-.64-3.32s-1.11-.99-2.05-.99c-.15 0-.22-.06-.22-.18s.07-.18.22-.18c.88.06 1.75.09 2.6.09h5.24c.91 0 1.83-.03 2.77-.09.15 0 .22.06.22.18s-.07.18-.22.18c-1 0-1.72.33-2.18.99s-.68 1.77-.68 3.32v15.18h2.51c.21 0 .31.1.31.31l.09 1.54c0 .32.07 1.44.22 3.34.03.18 0 .26-.09.26Zm20.7-9.02c.07.06.08.13.02.22a11.16 11.16 0 0 1-4.14 3.21c-1.61.73-3.3 1.1-5.06 1.1-1.85 0-3.56-.43-5.15-1.28a9.5 9.5 0 0 1-3.76-3.63c-.92-1.57-1.39-3.38-1.39-5.43s.51-3.89 1.52-5.59 2.38-3.04 4.11-4.03c1.73-.98 3.62-1.47 5.68-1.47 2.29 0 4.19.62 5.72 1.87 1.52 1.25 2.29 2.94 2.29 5.08 0 .97-.18 2.01-.53 3.12-3.08.06-7.8.19-14.17.4.5 1.61 1.27 3.06 2.31 4.33 1.04 1.28 2.24 2.27 3.59 2.99q2.025 1.08 3.96 1.08c2.14 0 3.75-.67 4.84-2.02.03-.03.08-.01.15.04Zm-14.08-14.54c-.87 1.01-1.3 2.53-1.3 4.55 0 1 .15 2.08.44 3.26 1.67-.03 3.64-.1 5.9-.22.59-.03 1.19-.06 1.83-.09.63-.03 1.27-.04 1.91-.04.26-.44.4-.98.4-1.63 0-.97-.27-2.03-.81-3.19s-1.23-2.14-2.07-2.95-1.68-1.21-2.53-1.21c-1.64 0-2.9.51-3.76 1.52Zm44.9 18.28c0 .12-.07.18-.22.18-.47-.03-1.38-.04-2.73-.04h-5.28c-1.35 0-2.26.01-2.73.04-.15 0-.22-.06-.22-.18s.07-.18.22-.18c.88 0 1.53-.25 1.96-.75.42-.5.64-1.33.64-2.51 0-.44-.01-.78-.04-1.01l-.97-11.66c-.03-.35-.12-.53-.26-.53-.09 0-.16.04-.22.13s-.12.22-.18.4l-6.2 15.71q-.18.48-.48.48c-.26 0-.46-.16-.57-.48l-6.16-15.88c-.09-.23-.18-.35-.26-.35h-.09l.31 1.14-.31-1.1c-.09.03-.13.13-.13.31l-1.06 11.84c-.03.26-.04.63-.04 1.1 0 1.14.21 1.96.62 2.44s1.06.73 1.94.73c.15 0 .22.06.22.18s-.07.18-.22.18c-.44-.03-1.35-.04-2.73-.04h-.53c-1.38 0-2.29.01-2.73.04-.15 0-.22-.06-.22-.18s.07-.18.22-.18c.97 0 1.69-.31 2.18-.95.48-.63.8-1.74.95-3.32l1.19-13.07c-.29-.76-.66-1.3-1.1-1.63-.44-.32-1-.48-1.67-.48-.15 0-.22-.06-.22-.18s.07-.18.22-.18l2.6.04h4.22c.41 0 .67.16.79.48l4.88 12.06c.09.21.19.31.31.31.15 0 .23-.1.26-.31l4.75-12.1c.06-.18.13-.29.22-.35s.22-.09.4-.09h3.87l2.77-.04c.15 0 .22.06.22.18s-.07.18-.22.18c-.88 0-1.53.24-1.96.73-.42.48-.64 1.3-.64 2.44 0 .47.01.84.04 1.1l1.06 10.91c.15 1.58.46 2.69.95 3.32.48.63 1.21.95 2.18.95.15 0 .22.06.22.18Zm2.82 6.29c-.03-.09.03-.18.18-.26 2.35-1.09 3.52-2.57 3.52-4.44 0-.35-.15-.59-.44-.73s-.75-.24-1.36-.33c-.82-.12-1.44-.29-1.85-.51s-.62-.67-.62-1.34c0-.35.16-.73.48-1.12q.48-.6 1.32-.99c.56-.26 1.17-.4 1.85-.4 1.14 0 1.98.26 2.51.79s.79 1.2.79 2.02c0 1.09-.34 2.14-1.01 3.17s-1.49 1.91-2.44 2.66-1.84 1.25-2.66 1.52c-.15.06-.23.04-.26-.04Z" class="st0"/></g></svg>