<svg xmlns="http://www.w3.org/2000/svg" id="Layer_2" viewBox="0 0 515.74 127.66"><defs><style>.st0{fill:#181818}</style></defs><path d="M49.42 19.14c0 5.93-2.85 13.26-8.54 22-4.4 6.81-9.86 13.49-16.37 20.06-5.75 5.87-9.27 8.8-10.56 8.8.18 5.52 1.91 8.27 5.19 8.27 2.52 0 5.25-1.08 8.18-3.26-.59-1.06-.88-2.2-.88-3.43 0-3.99 1.29-5.98 3.87-5.98 1.06 0 1.67.73 1.85 2.2 0 2.05-.88 4.11-2.64 6.16 1 1.64 2.55 2.46 4.66 2.46q3.435 0 6.69-2.82c.18-.18.35-.26.53-.26s.26.12.26.35-.29.59-.88 1.06c-2.58 2.17-5.19 3.26-7.83 3.26-2.17 0-3.9-.73-5.19-2.2-3.46 3.17-6.83 4.75-10.12 4.75-1.94 0-3.54-.81-4.8-2.42q-1.89-2.415-1.89-5.85c0-6.51 2.29-14.4 6.86-23.67 4.16-8.45 9.12-15.94 14.87-22.48s10.38-9.81 13.9-9.81q2.82 0 2.82 2.82Zm-2.55 1.32c0-1.35-.53-2.02-1.58-2.02-2.76 0-6.72 3.32-11.88 9.94q-7.305 9.33-13.11 21.03c-4.11 8.21-6.16 14.4-6.16 18.57 0 .24.06.35.18.35 1.11 0 4.34-2.87 9.68-8.62 5.93-6.34 10.94-12.73 15.05-19.18 5.22-8.21 7.83-14.9 7.83-20.06ZM31.29 68.33c0-.59-.21-.88-.62-.88-1.23 0-1.85 1.2-1.85 3.61 0 .82.12 1.56.35 2.2 1.41-1.58 2.11-3.23 2.11-4.93Zm33.7 10.21c-.18.24-.41.54-.7.92q-.435.57-.84 1.14c-.26.38-.51.7-.75.97-.24.26-.41.4-.53.4q-1.14 0-1.14-1.23c0-.29.2-.88.62-1.76.7-1 1.41-1.96 2.11-2.9s1.38-1.91 2.02-2.9c2.05-2.93 3.08-5.02 3.08-6.25 0-.53-.18-.79-.53-.79-.23 0-.59.12-1.06.35-1.53 1.11-3.33 2.46-5.41 4.05q-3.12 2.37-7.35 5.46h-.62c-.41 0-.62-.06-.62-.18s.32-.41.97-.88c2.05-1.64 4.21-3.33 6.47-5.06s4.65-3.53 7.17-5.41c.65-.59 1.55-.88 2.73-.88s1.76.53 1.76 1.58c0 1.17-.85 3.05-2.55 5.63-.12.23-.26.46-.44.66-.18.21-.32.43-.44.66h1.67c.65 0 1.38-.03 2.2-.09 1.41-.12 2.61-.12 3.61 0 .23-.41.47-.82.7-1.23s.5-.85.79-1.32c.64-1 1.28-1.91 1.89-2.73.62-.82 1.25-1.55 1.89-2.2.41-.53 1.06-.79 1.94-.79.47.12.7.26.7.44l-3.08 5.1c-2.05 3.4-3.08 5.87-3.08 7.39 0 1.82.79 2.73 2.38 2.73 1.99 0 4.9-1.73 8.71-5.19.18-.18.35-.26.53-.26s.26.12.26.35c0 .35-.59.94-1.76 1.76-1.88 1.64-3.58 2.89-5.1 3.74-1.53.85-2.96 1.28-4.31 1.28-2.64 0-3.96-1.11-3.96-3.34 0-1.47.32-2.96.97-4.49-.7-.06-1.54-.09-2.51-.09s-2.04.06-3.21.18c-.82.06-1.35.09-1.58.09h-.53c-.82 1.17-1.54 2.29-2.16 3.34s-.92 1.64-.92 1.76Z" class="st0"/><path d="M118.14 73.7q0 1.05-5.46 4.05c-3.81 2.11-6.54 3.17-8.18 3.17-3.05 0-4.58-1.61-4.58-4.84 0-.88.47-1.88 1.41-2.99q0-.09-.09-.09c.06 0-1.53 1.22-4.75 3.65-3.23 2.44-5.54 3.65-6.95 3.65s-2.02-.56-2.02-1.67q0-4.05 6.78-9.42c4.28-3.46 7.63-5.19 10.03-5.19.35.06.75.25 1.19.57q.66.48.66.75 0 .09-.09.18c-3.29 0-7.48 2.55-12.58 7.66q-2.46 2.46-2.46 4.14c0 .41.21.62.62.62 1.29 0 3.75-1.5 7.39-4.49 2.93-2.46 5.02-4.43 6.25-5.9.59-.7 1-1.06 1.23-1.06.59 0 .88.41.88 1.23 0 .29-.38.97-1.14 2.02q-3.78 5.19-3.78 6.6 0 2.46 2.73 2.46c2.99 0 7.04-1.73 12.14-5.19.18-.18.35-.26.53-.26s.26.12.26.35Z" class="st0"/><path d="M137.06 67.46c-.12.29-.46 1-1.01 2.11-.56 1.12-1.16 2.29-1.8 3.52-.65 1.23-1.23 2.39-1.76 3.48s-.79 1.72-.79 1.89c0 .47.21.7.62.7.94 0 3.23-1.55 6.86-4.66 3.64-2.99 6.48-5.81 8.54-8.45.88-.88 1.52-1.32 1.94-1.32q1.14 0 1.14 1.14c0 .47-.21 1-.62 1.58-3.52 5.28-5.28 8.71-5.28 10.3 0 1.47.67 2.2 2.02 2.2 2.05 0 5.78-1.85 11.18-5.54.23-.23.64-.5 1.23-.79.18-.18.35-.26.53-.26s.26.12.26.35q0 .525-1.32 1.41c-7.27 4.87-12.14 7.3-14.61 7.3q-2.46 0-2.46-2.82c0-1.11.21-2.17.62-3.17.59-1.41.88-2.17.88-2.29 0-.23-.09-.35-.26-.35.06 0-.09.06-.44.18-.65.65-1.44 1.35-2.38 2.11s-2.02 1.61-3.26 2.55c-3.11 2.35-5.31 3.52-6.6 3.52-1.41 0-2.11-.7-2.11-2.11 0-.41.23-1.08.7-2.02s1.2-2.35 2.2-4.22c.06 0-.09.06-.44.18-.65.65-1.44 1.35-2.38 2.11s-2.02 1.61-3.26 2.55c-3.11 2.35-5.31 3.52-6.6 3.52-1.41 0-2.11-.7-2.11-2.11 0-.76 1.03-3.02 3.08-6.78 2.05-3.81 3.08-5.98 3.08-6.51 0-.64-.53-.97-1.58-.97-.23 0-.35-.35-.35-1.06.53-.18 1.08-.26 1.67-.26 2.05 0 3.08.59 3.08 1.76q0 1.935-2.73 6.51c-1.82 3.05-2.73 4.96-2.73 5.72 0 .47.2.7.62.7.94 0 3.23-1.55 6.86-4.66 1.41-1.17 2.77-2.51 4.09-4q1.98-2.25 3.21-4.44c.88-.88 1.52-1.32 1.94-1.32q1.14 0 1.14 1.14c0 .47-.21 1-.62 1.58Z" class="st0"/><path d="M180.62 73.7c0 .41-1.2 1.38-3.61 2.9-5.93 3.76-10.18 5.63-12.76 5.63-3.81 0-5.72-2.23-5.72-6.69 0-3.29 1.6-6.58 4.8-9.9 3.2-3.31 6.23-4.97 9.11-4.97q1.32 0 1.32 1.23c0 2-1.73 4.81-5.19 8.45-2.76 2.88-5.02 4.84-6.78 5.9.18 2.58 1.41 3.87 3.7 3.87 2.17 0 5.81-1.47 10.91-4.4.41-.23 1.55-.94 3.43-2.11.18-.18.35-.26.53-.26s.26.12.26.35m-9.59-10.12c0-.7-.21-1.06-.62-1.06-1.47 0-3.26 1.47-5.37 4.4s-3.2 5.57-3.26 7.92c1.11-.35 2.87-1.88 5.28-4.58q3.96-4.395 3.96-6.69Z" class="st0"/><path d="M203.5 71.68c.7-.82 1.6-1.88 2.68-3.17s2.1-2.52 3.04-3.7c.53-.35 1.06-.44 1.58-.26.53.18.67.41.44.7-1.76 2.64-3.05 4.99-3.87 7.04s-1.23 3.49-1.23 4.31c0 1.47.67 2.2 2.02 2.2 2.05 0 5.78-1.85 11.18-5.54.12-.12.4-.32.84-.62.44-.29.75-.44.92-.44s.26.12.26.35q0 .525-1.32 1.41c-7.28 4.87-12.14 7.3-14.61 7.3q-2.46 0-2.46-2.82c0-.59.07-1.22.22-1.89s.32-1.28.53-1.8c.21-.53.38-.97.53-1.32s.22-.5.22-.44c0-.23-.09-.35-.26-.35-.41.47-1.06 1.14-1.94 2.02q-1.32 1.32-2.82 2.64c-1 .88-2 1.63-2.99 2.24-1 .62-1.79.89-2.38.84q-1.05-.09-1.32-.75c-.27-.66-.18-.98 0-1.63s.47-1.35.88-2.11.85-1.5 1.32-2.2c.12-.18.32-.51.62-1.01.29-.5.57-.98.84-1.45q.39-.705.57-1.14t-.18-.18q-.09-.18-.66.48c-.38.44-.89 1.01-1.54 1.72-.65.7-1.39 1.45-2.24 2.24s-1.8 1.51-2.86 2.16c-.76.47-1.56.95-2.38 1.45s-1.63.94-2.42 1.32-1.58.69-2.38.92c-.79.23-1.57.32-2.33.26-.82-.06-1.57-.25-2.24-.57s-1.01-1.04-1.01-2.16c0-.64.16-1.2.48-1.67s.66-.7 1.01-.7c.29 0 .53.15.7.44.18.29.38.63.62 1.01.23.38.5.72.79 1.01s.7.44 1.23.44h.53c.47 0 1.61-.41 3.43-1.23 3.23-1.52 5.94-3.4 8.14-5.63q3.3-3.345 5.94-6.78c.88-.88 1.52-1.32 1.94-1.32.18 0 .4.07.66.22s.44.4.53.75 0 .84-.26 1.45c-.26.62-.78 1.39-1.54 2.33-.47.47-1.01 1.17-1.63 2.11s-1.23 1.94-1.85 2.99c-.62 1.06-1.17 2.05-1.67 2.99s-.84 1.61-1.01 2.02c.06.47.45.5 1.19.09.73-.41 1.58-1 2.55-1.76s1.92-1.6 2.86-2.51 1.64-1.69 2.11-2.33Zm85.54 2.02q0 .525-1.32 1.41c-4.17 2.82-6.48 4.37-6.95 4.66-2.64 1.58-4.84 2.38-6.6 2.38-1 0-1.83-.35-2.51-1.06-.68-.7-1.01-1.55-1.01-2.55 0-2.93 1.88-7.13 5.63-12.58.29-.41.44-.67.44-.79q0-.09-.09-.09c-.24 0-.65.21-1.23.62-3.29 2.46-6.92 5.19-10.91 8.18-1.7 1.47-4.2 3.52-7.48 6.16-.47.35-1.12.67-1.94.97-.41 0-.62-.29-.62-.88 0-1.17.98-3.06 2.95-5.68 1.96-2.61 2.95-4.44 2.95-5.5q0-1.5-1.41-1.5c-1.41 0-4.22 1.91-8.45 5.72-2.88 2.58-5.4 5.07-7.57 7.48-.82.88-1.47 1.32-1.94 1.32q-1.14 0-1.14-1.23c0-.24.21-.82.62-1.76a347 347 0 0 0 4.14-5.81c2.05-2.93 3.08-5.02 3.08-6.25 0-.53-.18-.79-.53-.79-.18 0-.53.12-1.06.35-2.99 2.23-7.25 5.4-12.76 9.5h-.62c-.41 0-.62-.06-.62-.18 0-.18.32-.47.97-.88 4.11-3.23 8.65-6.72 13.64-10.47.7-.59 1.61-.88 2.73-.88 1.17 0 1.76.53 1.76 1.58 0 .24-.06.59-.18 1.06-1.17 2.05-2.67 4.66-4.49 7.83-.24.41-.35.68-.35.79q0 .09.18.09l.26-.09c2.17-1.88 4.34-3.75 6.51-5.63 3.34-2.82 5.75-4.22 7.22-4.22 1.94 0 2.9.62 2.9 1.85 0 1.06-.57 2.65-1.72 4.8-1.14 2.14-1.72 3.3-1.72 3.48s.06.26.18.26c.23 0 .64-.2 1.23-.62l18.3-13.82c.59-.47 1.2-.7 1.85-.7.41 0 .7.07.88.22s.26.4.26.75c0 .41-.12.76-.35 1.06-1.64 2.35-3.32 4.72-5.02 7.13-2 3.05-2.99 5.69-2.99 7.92 0 1.41.76 2.08 2.29 2.02 1.82-.06 3.87-.79 6.16-2.2 1.88-1.17 3.75-2.35 5.63-3.52.18-.18.35-.26.53-.26s.26.12.26.35Z" class="st0"/><path d="M309.72 73.7c0 .41-1.2 1.38-3.61 2.9-5.93 3.76-10.18 5.63-12.76 5.63-3.81 0-5.72-2.23-5.72-6.69 0-3.29 1.6-6.58 4.8-9.9 3.2-3.31 6.23-4.97 9.11-4.97q1.32 0 1.32 1.23c0 2-1.73 4.81-5.19 8.45-2.76 2.88-5.02 4.84-6.78 5.9.18 2.58 1.41 3.87 3.7 3.87 2.17 0 5.81-1.47 10.91-4.4.41-.23 1.55-.94 3.43-2.11.18-.18.35-.26.53-.26s.27.12.27.35Zm-9.6-10.12c0-.7-.21-1.06-.62-1.06-1.47 0-3.26 1.47-5.37 4.4s-3.2 5.57-3.26 7.92c1.11-.35 2.87-1.88 5.28-4.58q3.96-4.395 3.96-6.69Z" class="st0"/><path d="M311.21 78.28c.47 0 1.61-.41 3.43-1.23 3.23-1.52 6.08-3.36 8.58-5.5 2.49-2.14 4.62-4.36 6.38-6.64.88-.88 1.52-1.32 1.94-1.32q1.14 0 1.14 1.14c0 .47-.21 1-.62 1.58-3.52 5.28-5.28 8.71-5.28 10.3 0 1.47.67 2.2 2.02 2.2 2.05 0 5.78-1.85 11.18-5.54.12-.12.4-.32.84-.62.44-.29.75-.44.92-.44s.26.12.26.35q0 .525-1.32 1.41c-7.28 4.87-12.14 7.3-14.61 7.3q-2.46 0-2.46-2.82c0-.59.07-1.22.22-1.89s.32-1.28.53-1.8c.21-.53.38-.97.53-1.32s.22-.5.22-.44c0-.23-.09-.35-.26-.35-.29 0-.9.35-1.8 1.06q-1.365 1.05-4.44 2.82-1.5.705-2.73 1.41c-.82.47-1.61.91-2.38 1.32-.76.41-1.5.73-2.2.97a5.6 5.6 0 0 1-2.2.26c-.82-.06-1.57-.25-2.24-.57s-1.01-1.04-1.01-2.16c0-.64.16-1.2.48-1.67s.66-.7 1.01-.7c.29 0 .53.15.7.44.18.29.38.63.62 1.01.23.38.5.72.79 1.01s.7.44 1.23.44h.53Z" class="st0"/><path d="M361.11 73.7c0 .41-1.2 1.38-3.61 2.9-5.93 3.76-10.18 5.63-12.76 5.63-3.81 0-5.72-2.23-5.72-6.69 0-3.29 1.6-6.58 4.8-9.9 3.2-3.31 6.23-4.97 9.11-4.97q1.32 0 1.32 1.23c0 2-1.73 4.81-5.19 8.45-2.76 2.88-5.02 4.84-6.78 5.9.18 2.58 1.41 3.87 3.7 3.87 2.17 0 5.81-1.47 10.91-4.4.41-.23 1.55-.94 3.43-2.11.18-.18.35-.26.53-.26s.26.12.26.35m-9.6-10.12c0-.7-.21-1.06-.62-1.06-1.47 0-3.26 1.47-5.37 4.4s-3.2 5.57-3.26 7.92c1.11-.35 2.87-1.88 5.28-4.58q3.96-4.395 3.96-6.69Z" class="st0"/><path d="M373.42 80.48c-1.06.35-2.07.65-3.04.88s-1.85.35-2.64.35-1.47-.15-2.02-.44c-.56-.29-.92-.82-1.1-1.58-.18-.59.01-1.33.57-2.24s1.28-1.86 2.16-2.86 1.8-2.01 2.77-3.04 1.82-1.96 2.55-2.82c.73-.85 1.26-1.55 1.58-2.11s.22-.89-.31-1.01c-.29-.35-.9-.23-1.8.35-.91.59-1.98 1.38-3.21 2.38s-2.54 2.05-3.92 3.17-2.66 2-3.83 2.64h-.09c-.12 0-.22-.12-.31-.35s-.13-.41-.13-.53c1.41-.94 2.87-2.02 4.4-3.26 1.53-1.23 2.98-2.41 4.36-3.52s2.6-2.05 3.65-2.82c1.06-.76 1.85-1.14 2.38-1.14.7-.12 1.28.07 1.72.57s.72.95.84 1.36c.18 1-.16 2.05-1.01 3.17-.85 1.11-2.24 2.55-4.18 4.31-1 .88-1.91 1.83-2.73 2.86s-1.41 1.94-1.76 2.73-.38 1.41-.09 1.85 1.06.54 2.29.31c1.23 0 2.35-.13 3.34-.4 1-.26 2.01-.65 3.04-1.14 1.03-.5 2.14-1.11 3.34-1.85 1.2-.73 2.62-1.57 4.27-2.51.12-.06.21-.12.26-.18.06-.06.15-.09.26-.09.06 0 .09.21.09.62 0 .35-.15.56-.44.62-1.29.88-2.35 1.58-3.17 2.11s-1.6.97-2.33 1.32-1.53.69-2.38 1.01-1.98.75-3.39 1.28Z" class="st0"/><path d="M410.74 73.7c0 .82-2.11 2.35-6.34 4.58-4.22 2.23-9.36 3.34-15.4 3.34-3.46 0-5.34-.35-5.63-1.06 0-.41.32-.62.97-.62.88.18 1.44.26 1.67.26 2.99 0 6.19-1.52 9.59-4.58 3.23-2.87 4.84-5.34 4.84-7.39 0-.88-.56-1.32-1.67-1.32-5.52 0-11.53 5.22-18.04 15.66-.53.82-3.74 7.05-9.64 18.7-5.9 11.64-9.02 17.88-9.37 18.7-.41 1-.94 1.5-1.58 1.5-.23 0-.41-.03-.53-.09-.35-.12-.53-.47-.53-1.06q0-3.165 39.6-73.92.705-1.23 1.32-1.23c.06 0 .18.06.35.18.18.12.26.35.26.7 0 .65-.18 1.14-.53 1.5-.06.18-2.46 4.52-7.22 13.02q-6.78 12.315-6.78 13.11 0 .09.09.18c.06-.12.26-.35.62-.7 1.41-1.7 3.34-3.43 5.81-5.19 3.29-2.23 6.16-3.34 8.62-3.34 1.82 0 2.73.7 2.73 2.11 0 4.28-3.43 8.48-10.3 12.58 5.22 0 10.65-1.91 16.28-5.72.18-.18.35-.26.53-.26s.26.12.26.35Z" class="st0"/><path d="M438.37 73.7q0 1.05-5.46 4.05c-3.81 2.11-6.54 3.17-8.18 3.17-3.05 0-4.58-1.61-4.58-4.84 0-.88.47-1.88 1.41-2.99q0-.09-.09-.09c.06 0-1.53 1.22-4.75 3.65-3.23 2.44-5.54 3.65-6.95 3.65s-2.02-.56-2.02-1.67q0-4.05 6.78-9.42c4.28-3.46 7.63-5.19 10.03-5.19.35.06.75.25 1.19.57q.66.48.66.75 0 .09-.09.18c-3.29 0-7.48 2.55-12.58 7.66q-2.46 2.46-2.46 4.14c0 .41.2.62.62.62 1.29 0 3.75-1.5 7.39-4.49 2.93-2.46 5.02-4.43 6.25-5.9.59-.7 1-1.06 1.23-1.06.59 0 .88.41.88 1.23 0 .29-.38.97-1.14 2.02q-3.78 5.19-3.78 6.6 0 2.46 2.73 2.46c2.99 0 7.04-1.73 12.14-5.19.18-.18.35-.26.53-.26s.26.12.26.35Z" class="st0"/><path d="M461.33 71.68c.7-.82 1.6-1.88 2.68-3.17s2.1-2.52 3.04-3.7c.53-.35 1.06-.44 1.58-.26.53.18.67.41.44.7-1.76 2.64-3.05 4.99-3.87 7.04s-1.23 3.49-1.23 4.31c0 1.47.67 2.2 2.02 2.2 2.05 0 5.78-1.85 11.18-5.54.12-.12.4-.32.84-.62.44-.29.75-.44.92-.44s.26.12.26.35q0 .525-1.32 1.41c-7.28 4.87-12.14 7.3-14.61 7.3q-2.46 0-2.46-2.82c0-.59.07-1.22.22-1.89s.32-1.28.53-1.8c.21-.53.38-.97.53-1.32s.22-.5.22-.44c0-.23-.09-.35-.26-.35-.41.47-1.06 1.14-1.94 2.02q-1.32 1.32-2.82 2.64c-1 .88-2 1.63-2.99 2.24-1 .62-1.79.89-2.38.84q-1.05-.09-1.32-.75c-.27-.66-.18-.98 0-1.63s.47-1.35.88-2.11.85-1.5 1.32-2.2c.12-.18.32-.51.62-1.01.29-.5.57-.98.84-1.45q.39-.705.57-1.14t-.18-.18q-.09-.18-.66.48c-.38.44-.89 1.01-1.54 1.72-.65.7-1.39 1.45-2.24 2.24s-1.8 1.51-2.86 2.16c-.76.47-1.56.95-2.38 1.45s-1.63.94-2.42 1.32-1.58.69-2.38.92c-.79.23-1.57.32-2.33.26-.82-.06-1.57-.25-2.24-.57s-1.01-1.04-1.01-2.16c0-.64.16-1.2.48-1.67s.66-.7 1.01-.7c.29 0 .53.15.7.44.18.29.38.63.62 1.01.23.38.5.72.79 1.01s.7.44 1.23.44h.53c.47 0 1.61-.41 3.43-1.23 3.23-1.52 5.94-3.4 8.14-5.63q3.3-3.345 5.94-6.78c.88-.88 1.52-1.32 1.94-1.32.18 0 .4.07.66.22s.44.4.53.75 0 .84-.26 1.45c-.26.62-.78 1.39-1.54 2.33-.47.47-1.01 1.17-1.63 2.11s-1.23 1.94-1.85 2.99c-.62 1.06-1.17 2.05-1.67 2.99s-.84 1.61-1.01 2.02c.06.47.45.5 1.19.09.73-.41 1.58-1 2.55-1.76s1.92-1.6 2.86-2.51 1.64-1.69 2.11-2.33Zm28.61 7.39c0 .65-.35 1.26-1.06 1.85-.7.59-1.32.88-1.85.88-1.12 0-1.73-.59-1.85-1.76 0-.82.32-1.47.97-1.94s1.26-.7 1.85-.7c1.29 0 1.94.56 1.94 1.67m18.65-52.45c0 .29-.15.68-.44 1.14-2.99 4.99-6.22 12.26-9.68 21.82-3.75 10.44-6.69 17.69-8.8 21.74-.29.53-.53.79-.7.79-.29 0-.44-.47-.44-1.41 1.23-5.46 3.52-12.55 6.86-21.3 5.22-13.49 8.01-20.77 8.36-21.82.06-.65.42-1.17 1.1-1.58.67-.41 1.36-.62 2.07-.62 1.11 0 1.67.41 1.67 1.23ZM74.98 20.76c1.66.87 2.96 2.05 3.92 3.54s1.43 3.2 1.43 5.1-.54 3.71-1.61 5.32-2.54 2.89-4.4 3.83-3.91 1.41-6.14 1.41c-2 0-3.79-.4-5.39-1.19s-2.87-1.91-3.81-3.34c-.94-1.44-1.44-3.08-1.5-4.93v-2.24c0-3.75.62-6.92 1.85-9.5s2.84-4.55 4.82-5.9q2.97-2.025 6.45-2.46c2.11-.29 3.7-.58 4.75-.86 1.06-.28 1.75-.57 2.09-.88s.51-.68.51-1.12c0-.15.05-.22.15-.22s.17.07.2.22c.06.47.09.84.09 1.1 0 1.44-.48 2.72-1.43 3.85q-1.425 1.695-5.04 2.31c-1.47.26-3.12.51-4.97.75-1.76.23-3.03.44-3.81.62s-1.43.47-1.96.88c-.62.41-1.07 1.04-1.36 1.89s-.44 2.02-.44 3.52c0 .79.01 1.42.04 1.89 1.08-1.5 2.51-2.68 4.27-3.56s3.65-1.32 5.68-1.32 3.95.43 5.61 1.3Zm-.44 16.79c.95-.97 1.43-2.42 1.43-4.36 0-1.64-.43-3.48-1.3-5.5s-1.98-3.75-3.34-5.17-2.75-2.13-4.16-2.13c-1.7 0-3.03.48-3.98 1.43s-1.43 2.41-1.43 4.38c0 1.61.43 3.44 1.3 5.48.86 2.04 1.97 3.77 3.32 5.19S69.09 39 70.47 39c1.76 0 3.12-.48 4.07-1.45m13.47 1.12c-1.63-.86-2.9-2.09-3.83-3.67s-1.39-3.39-1.39-5.41.53-3.92 1.58-5.61c1.06-1.69 2.5-3.01 4.33-3.98s3.85-1.45 6.05-1.45c2.05 0 3.91.43 5.57 1.3s2.96 2.08 3.89 3.63c.94 1.56 1.41 3.33 1.41 5.32s-.54 3.94-1.61 5.65c-1.07 1.72-2.54 3.07-4.4 4.05s-3.91 1.47-6.14 1.47c-2.02 0-3.85-.43-5.48-1.3Zm11.83-1.19c.95-.95 1.43-2.35 1.43-4.2s-.46-3.77-1.39-5.94q-1.38-3.255-3.48-5.52c-1.39-1.51-2.75-2.27-4.07-2.27q-2.46 0-3.87 1.41c-.94.94-1.41 2.35-1.41 4.22 0 1.76.45 3.73 1.36 5.92s2.06 4.03 3.45 5.54 2.73 2.27 4.03 2.27c1.67 0 2.98-.48 3.94-1.43Zm31.35 1.65c0 .12-.07.18-.22.18-.47-.03-1.38-.04-2.73-.04H123c-1.38 0-2.3.01-2.77.04-.15 0-.22-.06-.22-.18s.07-.18.22-.18c.97 0 1.69-.32 2.16-.97s.7-1.75.7-3.3V19.5h-8.93c-.12 2.38-.41 6.88-.88 13.51-.12 2.14-.45 3.84-.99 5.08-.54 1.25-1.49 1.87-2.84 1.87-1.58 0-2.38-.44-2.38-1.32 0-.18.01-.31.04-.4l1.06-4.18c.06-.15.13-.21.22-.2.09.02.13.1.13.24q.045 1.89.48 2.55c.29.44.78.66 1.45.66 1.47 0 2.3-1.44 2.51-4.31l.57-9.24.04-.88c0-1.2-.22-2.07-.66-2.6s-1.1-.79-1.98-.79c-.15 0-.22-.06-.22-.18s.07-.18.22-.18l2.73.04h14.56l2.73-.04c.15 0 .22.06.22.18s-.07.18-.22.18c-.97 0-1.68.32-2.13.97-.46.65-.68 1.75-.68 3.3v10.91c0 1.56.23 2.66.68 3.3.45.65 1.17.97 2.13.97.15 0 .22.06.22.18Zm13.64-11.35c6.01-.09 9.02 1.75 9.02 5.5 0 1.94-.7 3.42-2.11 4.44-1.41 1.03-3.51 1.54-6.29 1.54h-9.24c-1.38 0-2.3.01-2.77.04-.15 0-.22-.06-.22-.18s.07-.18.22-.18c.97 0 1.69-.32 2.16-.97s.7-1.75.7-3.3V23.76c0-1.55-.24-2.65-.7-3.3-.47-.65-1.19-.97-2.16-.97-.15 0-.22-.06-.22-.18s.07-.18.22-.18l2.77.04h5.24l2.73-.04c.15 0 .22.06.22.18s-.07.18-.22.18c-.97 0-1.68.32-2.13.97-.46.65-.68 1.75-.68 3.3v3.56c0 .32.13.48.4.48l3.08-.04Zm-.7 11.13c1.41-.03 2.5-.54 3.28-1.54s1.17-2.33 1.17-4-.4-2.93-1.19-3.85-1.94-1.37-3.43-1.34l-2.2.04c-.26 0-.4.16-.4.48v9.06c0 .47.06.79.18.95s.35.24.7.24zm48.09.22c0 .12-.07.18-.22.18-.47-.03-1.39-.04-2.77-.04h-30.76c-1.38 0-2.3.01-2.77.04-.15 0-.22-.06-.22-.18s.07-.18.22-.18c.97 0 1.69-.32 2.16-.97s.7-1.75.7-3.3V23.77c0-1.55-.24-2.65-.7-3.3-.47-.65-1.19-.97-2.16-.97-.15 0-.22-.06-.22-.18s.07-.18.22-.18l2.77.04h4.97l2.6-.04c.15 0 .22.06.22.18s-.07.18-.22.18c-.94 0-1.62.32-2.05.97s-.64 1.75-.64 3.3v15.18h8.05V23.77c0-1.55-.21-2.65-.64-3.3s-1.11-.97-2.05-.97c-.15 0-.22-.06-.22-.18s.07-.18.22-.18l2.6.04h5.02l2.6-.04c.15 0 .22.06.22.18s-.07.18-.22.18c-.94 0-1.62.32-2.05.97s-.64 1.75-.64 3.3v15.18h8.05V23.77c0-1.55-.21-2.65-.64-3.3s-1.11-.97-2.05-.97c-.15 0-.22-.06-.22-.18s.07-.18.22-.18l2.6.04h5.02l2.77-.04c.15 0 .22.06.22.18s-.07.18-.22.18c-.97 0-1.69.32-2.16.97s-.7 1.75-.7 3.3v10.91c0 1.56.23 2.66.7 3.3.47.65 1.19.97 2.16.97.15 0 .22.06.22.18Zm21.49-3.74c.07.06.08.13.02.22a11.16 11.16 0 0 1-4.14 3.21c-1.61.73-3.3 1.1-5.06 1.1-1.85 0-3.56-.43-5.15-1.28a9.5 9.5 0 0 1-3.76-3.63c-.92-1.57-1.39-3.38-1.39-5.43s.51-3.89 1.52-5.59 2.38-3.04 4.11-4.03c1.73-.98 3.62-1.47 5.68-1.47 2.29 0 4.19.62 5.72 1.87 1.52 1.25 2.29 2.94 2.29 5.08 0 .97-.18 2.01-.53 3.12-3.08.06-7.8.19-14.17.4.5 1.61 1.27 3.06 2.31 4.33 1.04 1.28 2.24 2.27 3.59 2.99q2.025 1.08 3.96 1.08c2.14 0 3.75-.67 4.84-2.02.03-.03.08-.01.15.04Zm-14.08-14.54c-.87 1.01-1.3 2.53-1.3 4.55 0 1 .15 2.08.44 3.26 1.67-.03 3.64-.1 5.9-.22.59-.03 1.19-.06 1.83-.09.63-.03 1.27-.04 1.91-.04.26-.44.4-.98.4-1.63 0-.97-.27-2.03-.81-3.19s-1.23-2.14-2.07-2.95-1.68-1.21-2.53-1.21c-1.64 0-2.9.51-3.76 1.52Zm52.78 18.28c0 .12-.07.18-.22.18-.44-.03-1.35-.04-2.73-.04h-5.24c-1.38 0-2.29.01-2.73.04-.15 0-.22-.06-.22-.18s.07-.18.22-.18c.97 0 1.68-.32 2.13-.97s.68-1.75.68-3.3v-10.6l-10.52 10.56v.04c0 1.56.23 2.66.68 3.3.45.65 1.17.97 2.13.97.15 0 .22.06.22.18s-.07.18-.22.18c-.47-.03-1.38-.04-2.73-.04h-5.24c-1.38 0-2.3.01-2.77.04-.15 0-.22-.06-.22-.18s.07-.18.22-.18c.97 0 1.69-.32 2.16-.97s.7-1.75.7-3.3V23.81c0-1.55-.24-2.66-.7-3.32q-.705-.99-2.16-.99c-.15 0-.22-.06-.22-.18s.07-.18.22-.18c.94.06 1.86.09 2.77.09h5.24q1.32 0 2.73-.09c.15 0 .22.06.22.18s-.07.18-.22.18q-1.455 0-2.13.99c-.46.66-.68 1.77-.68 3.32v10.25L244.3 23.5c-.03-1.47-.27-2.5-.73-3.1s-1.15-.9-2.09-.9c-.15 0-.22-.06-.22-.18s.07-.18.22-.18q1.32.09 2.73.09h5.24q1.41 0 2.73-.09c.15 0 .22.06.22.18s-.07.18-.22.18q-1.455 0-2.13.99c-.46.66-.68 1.77-.68 3.32v10.87c0 1.56.23 2.66.68 3.3.45.65 1.17.97 2.13.97.15 0 .22.06.22.18Zm28.25 0c0 .12-.07.18-.22.18-.44-.03-1.35-.04-2.73-.04h-5.24c-1.29 0-2.16.01-2.6.04-.15 0-.22-.06-.22-.18s.07-.18.22-.18c.94 0 1.62-.32 2.05-.97.42-.65.64-1.75.64-3.3v-5.76c0-.35-.13-.51-.4-.48-1.56.24-3.1.35-4.62.35s-3.07-.12-4.62-.35h-.04c-.18 0-.26.16-.26.48v5.76c0 1.56.21 2.66.64 3.3.42.65 1.11.97 2.05.97.15 0 .22.06.22.18s-.07.18-.22.18c-.44-.03-1.31-.04-2.6-.04h-5.24c-1.38 0-2.3.01-2.77.04-.15 0-.22-.06-.22-.18s.07-.18.22-.18c.97 0 1.69-.32 2.16-.97s.7-1.75.7-3.3V23.77c0-1.55-.24-2.65-.7-3.3-.47-.65-1.19-.97-2.16-.97-.15 0-.22-.06-.22-.18s.07-.18.22-.18l2.77.04h5.24l2.6-.04c.15 0 .22.06.22.18s-.07.18-.22.18c-.94 0-1.62.32-2.05.97s-.64 1.75-.64 3.3v3.83c0 .32.1.5.31.53 1.5.23 2.99.35 4.49.35 1.58 0 3.17-.12 4.75-.35.15-.03.25-.09.31-.18s.09-.2.09-.35v-3.83c0-1.55-.21-2.65-.64-3.3s-1.11-.97-2.05-.97c-.15 0-.22-.06-.22-.18s.07-.18.22-.18l2.6.04h5.24l2.73-.04c.15 0 .22.06.22.18s-.07.18-.22.18c-.97 0-1.68.32-2.13.97-.46.65-.68 1.75-.68 3.3v10.91c0 1.56.23 2.66.68 3.3.45.65 1.17.97 2.13.97.15 0 .22.06.22.18Zm22.26-12.14q-.135 0-.18-.18c-1.09-4.08-2.29-6.35-3.61-6.82-.26-.21-1.29-.31-3.08-.31-.18 0-.32.1-.44.29s-.18.43-.18.73v13.99c0 1.56.23 2.66.68 3.3.45.65 1.17.97 2.13.97.15 0 .22.06.22.18s-.07.18-.22.18c-.44-.03-1.35-.04-2.73-.04h-5.24c-1.38 0-2.29.01-2.73.04-.15 0-.22-.06-.22-.18s.07-.18.22-.18c.97 0 1.68-.32 2.13-.97s.68-1.75.68-3.3V20.7c0-.29-.06-.54-.18-.73s-.26-.29-.44-.29c-1.79 0-2.82.1-3.08.31-1.32.47-2.52 2.74-3.61 6.82q-.045.18-.18.18c-.135 0-.12-.06-.09-.18.35-2.61.53-5 .53-7.17 0-.47.19-.7.57-.7.18 0 .68.06 1.52.18s2.49.18 4.95.18h5.06c2.38 0 4-.06 4.88-.18s1.42-.18 1.63-.18c.35 0 .53.24.53.7 0 2.17.18 4.56.53 7.17q.045.18-.09.18Zm21.67 8.4c.07.06.08.13.02.22a11.16 11.16 0 0 1-4.14 3.21c-1.61.73-3.3 1.1-5.06 1.1-1.85 0-3.56-.43-5.15-1.28a9.5 9.5 0 0 1-3.76-3.63c-.92-1.57-1.39-3.38-1.39-5.43s.51-3.89 1.52-5.59 2.38-3.04 4.11-4.03c1.73-.98 3.62-1.47 5.68-1.47 2.29 0 4.19.62 5.72 1.87 1.52 1.25 2.29 2.94 2.29 5.08 0 .97-.18 2.01-.53 3.12-3.08.06-7.8.19-14.17.4.5 1.61 1.27 3.06 2.31 4.33 1.04 1.28 2.24 2.27 3.59 2.99q2.025 1.08 3.96 1.08c2.14 0 3.75-.67 4.84-2.02.03-.03.08-.01.15.04Zm-14.08-14.54c-.87 1.01-1.3 2.53-1.3 4.55 0 1 .15 2.08.44 3.26 1.67-.03 3.64-.1 5.9-.22.59-.03 1.19-.06 1.83-.09.63-.03 1.27-.04 1.91-.04.26-.44.4-.98.4-1.63 0-.97-.27-2.03-.81-3.19s-1.23-2.14-2.07-2.95-1.68-1.21-2.53-1.21c-1.64 0-2.9.51-3.76 1.52Zm35.91-1.1c1.28.84 2.3 2.04 3.08 3.61q1.17 2.355 1.17 5.43c0 1.94-.45 3.76-1.34 5.48-.9 1.72-2.11 3.09-3.65 4.11s-3.22 1.54-5.04 1.54c-1.12 0-2.04-.15-2.77-.44s-1.42-.66-2.07-1.1c-.44-.29-.73-.44-.88-.44-.26 0-.4.25-.4.75v4.84c0 1.55.21 2.65.64 3.28.42.63 1.08.98 1.96 1.03.15 0 .22.05.22.15s-.07.15-.22.15c-1.23-.06-2.76-.09-4.58-.09-2.32 0-4.21.03-5.68.09-.15 0-.22-.06-.22-.18s.07-.18.22-.18c.88.03 1.53-.28 1.96-.92.43-.65.64-1.77.64-3.39V24.81c0-1.11-.14-1.93-.42-2.44s-.8-.77-1.56-.77q-.225 0-.75.09c-.12.03-.18 0-.2-.11-.02-.1.02-.17.11-.2 1.38-.32 2.79-.75 4.25-1.28 1.45-.53 2.63-1.1 3.54-1.72.15-.09.27-.12.37-.09s.14.12.11.26c-.18 1.53-.28 2.82-.31 3.87 0 .35.02.68.07.99s.11.45.2.42c.79-1.58 1.77-2.87 2.95-3.87 1.17-1 2.64-1.5 4.4-1.5 1.52 0 2.93.42 4.2 1.25Zm-1.37 17.93c.84-1.06 1.25-2.6 1.25-4.62s-.34-3.86-1.01-5.68-1.58-3.29-2.71-4.4-2.35-1.67-3.67-1.67-2.38.56-3.19 1.67-1.21 2.61-1.21 4.49v2.95c0 2.55.58 4.66 1.74 6.34 1.16 1.67 2.73 2.51 4.73 2.51 1.88 0 3.23-.53 4.07-1.58Zm27.55-2.29c.07.06.08.13.02.22a11.16 11.16 0 0 1-4.14 3.21c-1.61.73-3.3 1.1-5.06 1.1-1.85 0-3.56-.43-5.15-1.28a9.5 9.5 0 0 1-3.76-3.63c-.92-1.57-1.39-3.38-1.39-5.43s.51-3.89 1.52-5.59 2.38-3.04 4.11-4.03c1.73-.98 3.62-1.47 5.68-1.47 2.29 0 4.19.62 5.72 1.87 1.52 1.25 2.29 2.94 2.29 5.08 0 .97-.18 2.01-.53 3.12-3.08.06-7.8.19-14.17.4.5 1.61 1.27 3.06 2.31 4.33 1.04 1.28 2.24 2.27 3.59 2.99q2.025 1.08 3.96 1.08c2.14 0 3.75-.67 4.84-2.02.03-.03.08-.01.15.04Zm-14.08-14.54c-.87 1.01-1.3 2.53-1.3 4.55 0 1 .15 2.08.44 3.26 1.67-.03 3.64-.1 5.9-.22.59-.03 1.19-.06 1.83-.09.63-.03 1.27-.04 1.91-.04.26-.44.4-.98.4-1.63 0-.97-.27-2.03-.81-3.19s-1.23-2.14-2.07-2.95-1.68-1.21-2.53-1.21c-1.64 0-2.9.51-3.76 1.52Zm33.06 9.26c-.06.15-.14.21-.24.2s-.12-.11-.07-.29c.15-.59.22-1.16.22-1.72 0-1.35-.32-2.72-.97-4.11q-.975-2.085-2.55-3.45c-1.06-.91-2.17-1.36-3.34-1.36q-5.19 0-5.19 5.94c0 2.17.5 4.19 1.5 6.05s2.29 3.34 3.89 4.42c1.6 1.09 3.22 1.63 4.86 1.63 2.11 0 3.72-.67 4.84-2.02.12-.12.21-.14.26-.07q.09.105 0 .24c-2.32 2.9-5.38 4.36-9.2 4.36-1.88 0-3.61-.43-5.19-1.28q-2.37-1.275-3.81-3.63c-.95-1.57-1.43-3.38-1.43-5.43s.51-3.84 1.52-5.54q1.515-2.55 4.11-4.05c1.73-1 3.61-1.5 5.63-1.5q2.115 0 3.96.57c1.23.38 2.18.87 2.84 1.47s.92 1.2.77 1.78l-2.42 7.79Zm30.85 9.02c0 .12-.07.18-.22.18-.44-.03-1.35-.04-2.73-.04h-5.24c-1.29 0-2.16.01-2.6.04-.15 0-.22-.06-.22-.18s.07-.18.22-.18c.94 0 1.62-.32 2.05-.97.42-.65.64-1.75.64-3.3v-5.76c0-.35-.13-.51-.4-.48-1.56.24-3.1.35-4.62.35s-3.07-.12-4.62-.35h-.04c-.18 0-.26.16-.26.48v5.76c0 1.56.21 2.66.64 3.3.42.65 1.11.97 2.05.97.15 0 .22.06.22.18s-.07.18-.22.18c-.44-.03-1.31-.04-2.6-.04h-5.24c-1.38 0-2.3.01-2.77.04-.15 0-.22-.06-.22-.18s.07-.18.22-.18c.97 0 1.69-.32 2.16-.97s.7-1.75.7-3.3V23.77c0-1.55-.24-2.65-.7-3.3-.47-.65-1.19-.97-2.16-.97-.15 0-.22-.06-.22-.18s.07-.18.22-.18l2.77.04h5.24l2.6-.04c.15 0 .22.06.22.18s-.07.18-.22.18c-.94 0-1.62.32-2.05.97s-.64 1.75-.64 3.3v3.83c0 .32.1.5.31.53 1.5.23 2.99.35 4.49.35 1.58 0 3.17-.12 4.75-.35.15-.03.25-.09.31-.18s.09-.2.09-.35v-3.83c0-1.55-.21-2.65-.64-3.3s-1.11-.97-2.05-.97c-.15 0-.22-.06-.22-.18s.07-.18.22-.18l2.6.04h5.24l2.73-.04c.15 0 .22.06.22.18s-.07.18-.22.18c-.97 0-1.68.32-2.13.97-.46.65-.68 1.75-.68 3.3v10.91c0 1.56.23 2.66.68 3.3.45.65 1.17.97 2.13.97.15 0 .22.06.22.18Zm7.28-.46a9.53 9.53 0 0 1-3.83-3.67c-.92-1.58-1.39-3.39-1.39-5.41s.53-3.92 1.58-5.61c1.06-1.69 2.5-3.01 4.33-3.98s3.85-1.45 6.05-1.45c2.05 0 3.91.43 5.57 1.3s2.96 2.08 3.89 3.63c.94 1.56 1.41 3.33 1.41 5.32s-.54 3.94-1.61 5.65c-1.07 1.72-2.54 3.07-4.4 4.05s-3.91 1.47-6.14 1.47c-2.02 0-3.85-.43-5.48-1.3Zm11.83-1.19c.95-.95 1.43-2.35 1.43-4.2s-.46-3.77-1.39-5.94q-1.38-3.255-3.48-5.52c-1.39-1.51-2.75-2.27-4.07-2.27q-2.46 0-3.87 1.41c-.94.94-1.41 2.35-1.41 4.22 0 1.76.45 3.73 1.36 5.92s2.06 4.03 3.45 5.54 2.74 2.27 4.03 2.27c1.67 0 2.98-.48 3.94-1.43Zm15.95-2.79c0 1.56.23 2.66.68 3.3.45.65 1.17.97 2.13.97.15 0 .22.06.22.18s-.07.18-.22.18c-.44-.03-1.35-.04-2.73-.04h-5.24c-1.38 0-2.3.01-2.77.04-.15 0-.22-.06-.22-.18s.07-.18.22-.18c.97 0 1.69-.32 2.16-.97s.7-1.75.7-3.3V23.78c0-1.55-.24-2.65-.7-3.3-.47-.65-1.19-.97-2.16-.97-.15 0-.22-.06-.22-.18s.07-.18.22-.18l2.77.04h9.42c1.29 0 2.29-.06 3.01-.18s1.18-.18 1.39-.18c.38 0 .57.24.57.7-.06 1.32.18 3.71.7 7.17.03.12.01.19-.04.22-.06.03-.12-.04-.18-.22q-.66-2.16-1.23-3.39c-.38-.82-.82-1.5-1.32-2.02-.56-.59-1.31-1.03-2.27-1.32-.95-.29-2.28-.44-3.98-.44-.35 0-.59.12-.73.37-.13.25-.2.64-.2 1.17v13.6Zm16.52 3.98a9.53 9.53 0 0 1-3.83-3.67c-.92-1.58-1.39-3.39-1.39-5.41s.53-3.92 1.58-5.61c1.06-1.69 2.5-3.01 4.33-3.98s3.85-1.45 6.05-1.45c2.05 0 3.91.43 5.57 1.3s2.96 2.08 3.89 3.63c.94 1.56 1.41 3.33 1.41 5.32s-.54 3.94-1.61 5.65c-1.07 1.72-2.54 3.07-4.4 4.05s-3.91 1.47-6.14 1.47c-2.02 0-3.85-.43-5.48-1.3Zm11.84-1.19c.95-.95 1.43-2.35 1.43-4.2s-.46-3.77-1.39-5.94q-1.38-3.255-3.48-5.52c-1.39-1.51-2.75-2.27-4.07-2.27q-2.46 0-3.87 1.41c-.94.94-1.41 2.35-1.41 4.22 0 1.76.45 3.73 1.36 5.92s2.06 4.03 3.45 5.54 2.74 2.27 4.03 2.27c1.67 0 2.98-.48 3.94-1.43Z" class="st0"/></svg>