<svg xmlns="http://www.w3.org/2000/svg" width="299" height="124" fill="none" viewBox="0 0 299 124"><path fill="#f5cdcb" d="M171.932 107.386c.4-.603.866-1.174 1.189-1.818 4.415-8.743 8.182-17.722 10.137-27.39 1.928-9.512.898-18.786-2.033-27.937a33 33 0 0 1-.919-3.328c-.29-1.403.231-2.26 1.629-2.562 3.376-.73 6.438-.02 8.967 2.373.498.474.794 1.334.864 2.047.147 1.461.102 2.943.085 4.417 0 .849.396 1.303 1.202 1.38 1.332.125 2.665.282 3.999.288 10.243.053 20.493-.087 30.73.213 3 .085 4.936-.775 7.02-2.818 3.04-2.994 6.546-5.52 9.829-8.28.67-.563 1.221-1.274 1.834-1.911-1.411-3.005-2.96-5.99-4.23-9.09-1.989-4.854-3.829-9.767-5.637-14.695-.396-1.062-.798-1.274-1.891-.947-4.598 1.346-9.22 2.605-13.85 3.845a7.1 7.1 0 0 1-2.765.098l17.212-6.266c-.104-.817-.212-1.594-.3-2.37l.545-.258 1.472 2.146c1.406-.55 2.979-1.062 4.468-1.762 4.118-1.97 8.35-3.771 12.228-6.14 2.206-1.351 3.852-1.075 5.956-.213 4.513 1.856 9.114 3.5 13.658 5.283 1.381.541 2.164.044 2.7-1.183a6 6 0 0 1 .604-1.238c.249-.337.638-.571.964-.85.319.406.761.77.919 1.232.13.493.125 1.012-.015 1.502-.322 1.335.291 1.73 1.521 1.938 3.274.552 6.529 1.22 9.786 1.875.84.168 1.659.45 2.489.681l.012.438c-.765.108-1.548.38-2.295.3-3.342-.357-6.674-.812-9.999-1.236-.54-.07-1.076-.17-1.778-.28-.292 1.942-.453 3.821-.868 5.628-1.625 7.087-3.191 14.194-5.093 21.211-.542 2.009.096 3.166 1.217 4.478 3.168 3.705 7.212 6.277 11.307 8.79 3.87 2.374 7.607 4.884 10.075 8.865 1.855 2.992 3.1 6.094 3.015 9.735-.039 1.616-1.277 1.563-1.96 2.194.685 1.273 1.428 2.469 1.97 3.75.241.564.194 1.326.064 1.955a5.7 5.7 0 0 1-.821 1.89c-1.277 1.963-2.683 3.821-3.174 6.231-.262 1.287-1.253 2.204-2.879 2.361-1.472.145-2.908.741-4.333 1.217-.27.089-.476.52-.611.836-.357.85-.619 1.74-.995 2.578-.694 1.546-1.651 1.883-3.087.945-1.064-.692-1.981-1.61-3.108-2.548l-2.242 3.319c-.889 1.316-1.702 2.76-3.732 1.857-.212-.095-.678.319-1.012.523-1.445.881-2.838 1.866-4.344 2.626-1 .508-2.179.62-3.111-.276-.931-.896-.687-2.021-.229-2.972.957-1.986 2.048-3.907 3.142-5.822.747-1.31 1.253-2.629.781-4.489-.639.737-1.181 1.274-1.624 1.862-3.203 4.323-7.086 7.822-11.928 10.292-1.757.896-3.559.864-5.352.879a2.79 2.79 0 0 1-2.872-2.366c-.283-1.526-.598-3.123-.426-4.639.364-3.35 1.021-6.67 1.56-10.003l.655.081c-.185 2.166-.426 4.327-.543 6.495-.125 2.242-.174 4.49-.178 6.735 0 .556.191 1.096.54 1.529.36.393.998.533 1.513.783l.544-1.138c.962-2.028 1.798-4.13 2.915-6.07 1.791-3.113 3.808-6.094 5.631-9.19.425-.717.876-2.165.579-2.422a6.5 6.5 0 0 0-3.23-1.486c-.917-.124-2.012.322-2.889.78a266 266 0 0 0-9.573 5.252c-1.519.874-2.919 1.957-4.631 3.123 3.604 1.274 6.052 3.072 6.835 6.431l-.425.406c-.426-.489-.89-.945-1.26-1.47-1.087-1.537-2.38-2.817-4.174-3.499-1.246-.473-2.325-.424-3.425.574a25 25 0 0 1-4.314 3.202c-1.968 1.138-3.355.405-3.589-1.862a25 25 0 0 1 .026-4.956c.933-9.555 4.012-18.51 7.952-27.2 1.902-4.195 3.888-8.35 5.831-12.526q.188-.47.323-.956l-.321-.272c-1.834 1.487-3.812 2.846-5.467 4.517-3.83 3.858-7.499 7.873-11.237 11.822-1.079 1.138-2.268 2.187-3.217 3.423a11.8 11.8 0 0 0-1.714 3.24c-.398 1.12-.032 1.37 1.172 1.185 2.042-.317 4.086-.693 6.141-.82.749-.047 1.928.35 2.202.898.275.548-.029 1.773-.504 2.35-1.132 1.372-2.468 2.587-3.801 3.776-1.617 1.437-3.368 2.724-4.962 4.185-1.084.995-.95 1.473.288 2.212a5 5 0 0 0 4.12.575 3.9 3.9 0 0 1 1.951-.123c-.457.425-.851 1.083-1.389 1.227-1.162.31-2.451.66-3.582.444-1.556-.297-3.204-.947-3.726-2.718s.947-2.694 2.004-3.637c1.787-1.592 3.749-2.987 5.566-4.548.951-.817 1.746-1.813 2.612-2.728l-.213-.448c-1.253.104-2.514.147-3.75.35-.324.053-.638.565-.828.934-.653 1.332-1.246 2.695-1.861 4.045l-.668-.235 1.163-4.005c-.068-.036-.148-.123-.212-.115-3.262.38-4.291-.732-3.279-3.845a10.4 10.4 0 0 1 2.064-3.522c2.523-2.87 5.195-5.614 7.803-8.41.338-.364.651-.75 1.223-1.408-.819-.06-1.325-.125-1.829-.13-10.66-.055-21.321-.09-31.979-.167a28 28 0 0 1-3.852-.357c-1.351-.197-2.145-1.021-2.219-2.418-.083-1.563-.019-3.143-.232-4.687-.1-.717-.534-1.585-1.1-2.01-1.859-1.397-4.042-1.652-6.322-1.37-1.239.155-.988.896-.775 1.712 1.043 3.962 2.249 7.892 3.047 11.903 1.748 8.79.561 17.42-1.902 25.93-2.068 7.148-4.927 13.98-8.278 20.613a11.2 11.2 0 0 1-1.687 2.506c-.949 1.042-2.127.93-2.893-.272a12.6 12.6 0 0 1-1.321-2.875c-1.702-5.325-2.115-10.828-2.157-16.376-.1-12.835 1.876-25.418 4.765-37.886 1.744-7.533 3.797-15.017 4.282-22.784.509-8.152-.666-15.993-4.544-23.29a19.4 19.4 0 0 0-1.938-2.843c-.638-.811-1.489-.816-2.11 0-.851 1.085-1.779 2.172-2.308 3.414-2.766 6.474-5.351 13.026-8.129 19.496-2.936 6.837-3.497 13.94-3.004 21.262.208 2.8.088 5.613-.357 8.385-.83 4.902-4.963 8.338-9.941 8.724-3.162.246-4.757-1.325-4.593-4.512.061-1.24.176-2.486.14-3.724a6.92 6.92 0 0 0-4.636-6.3 7 7 0 0 0-2.729-.38c-1.334.068-2.219.799-2.572 1.962a40 40 0 0 0-1.149 5.096c-.425 2.646-1.382 4.96-3.682 6.542-.077.05-.149.108-.213.161-3.559 2.41-5.971 1.389-6.62-2.834-.226-1.457-.304-2.933-.526-4.39-.104-.694-.378-1.362-.657-2.318-.485.541-.779.811-1.002 1.13-3.546 5.027-6.127 10.44-7.233 16.561a2429 2429 0 0 1-6.74 34.913c-.999 5.028-2.423 9.979-5.486 14.204a16 16 0 0 1-3.925 3.801c-2.1 1.423-4.125 1.087-5.603-.966a22.7 22.7 0 0 1-2.909-5.595c-2.163-6.102-2.765-12.489-2.865-18.907-.283-18.167 2.57-35.873 7.903-53.222a388 388 0 0 0 5.18-18.472c.513-2.011.54-4.21.409-6.3-.213-3.223-2.209-4.376-5.191-3.14-3.644 1.51-6.09 4.416-8.276 7.529-4.067 5.8-6.22 12.383-7.75 19.224-.723 3.375-1.62 6.71-2.686 9.994-1.213 3.63-2.243 4.161-6.57 4.172-7.475.017-14.953 0-22.429 0-3.367 0-6.74-.053-10.105.04-.738.022-1.557.425-2.178.884C24.508 61.477 20.338 64.73 16 67.74c-2.292 1.59-4.868 2.76-7.29 4.175a8.9 8.9 0 0 1-5.875 1.061c-.806-.119-1.701-1.061-2.127-1.868-.455-.85-.553-1.947-.564-2.94-.08-7.46-.212-14.921-.104-22.378.106-6.794 1.455-13.376 4.555-19.46 3.214-6.316 7.486-7.218 13.402-6.51 1.945.234 3.702 2.406 4.076 4.578.585 3.398 1.179 6.795 1.78 10.245 1.756.212 3.466.291 5.126.637 2.876.588 5.763 1.195 8.562 2.062 2.298.713 3.023 2.223 3.161 4.633.213 3.904-1.587 7.006-3.703 10.013-.379.535-1.064.866-1.615 1.274-1 .718-2.014 1.418-3.37 2.37.743.114 1.064.212 1.383.212l29.762-.053c.67 0 1.464.042 1.985.388 1.036.686 1.789.376 2.374-.452s1.144-1.699 1.413-2.654c.931-3.276 1.816-6.57 2.552-9.892 1.598-7.111 3.842-13.946 8.116-19.959 1.853-2.607 3.932-5.026 6.7-6.7a12.5 12.5 0 0 1 3.535-1.5c2.408-.56 4.361.438 4.938 2.82.485 2.01.838 4.278.402 6.242-1.379 6.192-2.921 12.37-4.823 18.42-5.559 17.667-8.7 35.69-8.526 54.236.063 6.699.657 13.349 2.87 19.746a21.7 21.7 0 0 0 1.776 3.886c1.589 2.686 3.504 2.942 5.914.902 2.019-1.699 3.342-3.913 4.433-6.272 2.323-5.028 3.338-10.423 4.366-15.81 1.857-9.729 3.761-19.449 5.507-29.197 1.138-6.37 3.889-11.96 7.572-17.175q.36-.506.78-.966c.679-.745 1.49-.758 1.96.07.562.99.967 2.06 1.202 3.172.344 1.663.389 3.398.714 5.056.371 1.91 1.332 2.359 3.111 1.552 1.929-.873 3.403-2.249 3.984-4.336.36-1.274.472-2.626.785-3.921.324-1.336.611-2.71 1.175-3.95.874-1.91 2.569-2.705 4.667-2.448 4.989.612 7.924 3.964 7.85 9-.017 1.105-.145 2.207-.17 3.31-.039 1.761.619 2.43 2.378 2.498 3.617.144 7.844-2.633 8.903-6.092.504-1.672.773-3.407.8-5.153.068-3.822-.085-7.644-.142-11.465a28.5 28.5 0 0 1 1.682-10.17c2.979-8.322 5.763-16.732 9.971-24.556a16 16 0 0 1 2.302-3.255c1.44-1.557 2.766-1.567 4.102.044a21.5 21.5 0 0 1 2.778 4.266c3.842 7.839 5.086 16.205 3.944 24.76-.985 7.378-2.527 14.694-4.123 21.973-2.791 12.74-4.861 25.542-4.38 38.611.166 4.48 1.081 8.937 1.761 13.389.169 1.092.764 2.124 1.164 3.185zm66.519-88.25-.166-.152.04.28c.183.663.294 1.355.56 1.981 2.657 6.272 5.367 12.528 7.992 18.81.698 1.673 1.636 2.82 3.523 3.25 1.081.247 2.128.92 3.038 1.596 1.702 1.256 3.274 2.688 4.963 3.968.383.289 1.098.478 1.521.325 2.819-1.01 5.555-2.268 8.408-3.153 1.555-.484 2.108-1.508 2.401-2.807 1.215-5.385 2.417-10.774 3.528-16.18.766-3.738 1.393-7.507 2.038-11.27.072-.424-.149-.896-.236-1.346-.396.234-.839.425-1.177.716-.338.29-.568.722-.851 1.076-3.006 3.654-6.169 7.124-10.758 8.854-.466.174-.945.308-1.417.463l-.198-.374c4.591-3.049 8.616-6.67 11.914-11.268-.6-.19-.996-.288-1.37-.437-4.442-1.784-8.935-3.472-13.299-5.417-1.504-.668-2.684-1.229-3.959.194-.207.185-.448.33-.71.424q-7.944 3.733-15.887 7.457c-.277.13-.545.274-.819.41q-.077.223-.158.442c3.649 1.89 7.233 3.917 10.965 5.626 3.731 1.71 7.635 3.109 11.779 4.771-2.742.452-4.916-.259-6.961-1.197-4.946-2.264-9.811-4.68-14.704-7.041m44.923 77.211c1.6-2.694 3.13-7.856 3.26-10.943.053-1.304.485-1.65 1.735-1.327 1.562.403 3.111.849 4.681 1.257.274.07.748.125.851-.013 1.091-1.554 2.127-3.149 3.176-4.733l-.279-.399c-2.127.505-4.28 1.074-6.382-.652l.194 2.368a31.5 31.5 0 0 1-2.804-5.718c-3.74-10.455-9.693-19.617-16.445-28.324-.54-.7-1.098-.98-2-.52-1.106.562-2.297.953-3.442 1.437-1.821.768-3.727 1.401-5.422 2.388-1.151.671-1.868.603-2.781-.244-3.055-2.828-6.095-5.696-10.452-6.688a9 9 0 0 0-.563.894c-2.002 3.99-4.089 7.943-5.972 11.99-4.652 9.998-8.935 20.139-10.173 31.241-.225 2.009-.761 4.06.172 6.406 1.277-.891 2.524-1.586 3.562-2.507 4.797-4.262 10.334-7.368 15.955-10.364a26.5 26.5 0 0 1 3.172-1.37c1.991-.751 3.997-1.246 6.012.315a6 6 0 0 0 0-.73c-.972-6.92-1.962-13.836-2.898-20.762-.083-.618-.638-1.615.487-1.792.258-.042.7 1.047 1.047 1.622.043.073.021.18.034.272.789 5.648 1.636 11.287 2.355 16.942.977 7.66 1.562 6.096-2.497 12.988-1.519 2.58-3.134 5.095-4.621 7.703-.666 1.165-1.123 2.45-1.717 3.771.411.065.555.136.666.102q.66-.204 1.291-.485c5.376-2.486 9.491-6.459 13.02-11.098.238-.314.2-.94.11-1.386-.697-3.52-1.489-7.022-2.14-10.549-.24-1.288-.189-2.632-.27-3.951l.426-.04c.187.637.41 1.289.555 1.947.808 3.688 1.6 7.378 2.397 11.066.213.934.313 1.852 1.387 2.368.398.19.626.991.703 1.543.261 1.911-.322 3.61-1.317 5.238a46 46 0 0 0-2.753 5.243c-.472 1.061.032 1.533 1.136 1.155 3.106-1.062 5.476-2.947 6.146-6.321a76 76 0 0 0 1.098-7.644c.246-2.582 1.025-3.692 3.554-4.442 1.943-.575 3.138.157 3.191 2.174a36 36 0 0 1-.338 5.487c-.389 2.558.345 3.987 2.893 5.091zm-6.382-43.782c5.853 7.298 9.756 15.288 12.39 23.78 1.308-.528 2.385-1.037 3.51-1.398 1.047-.338 2.166-.453 3.191-.81.313-.108.719-.768.638-1.06-1.244-4.75-3.159-9.24-7.113-12.316-3.725-2.909-7.787-5.387-11.701-8.043-.123-.085-.336-.057-.913-.146zm2.406 34.9c-.053-.69 0-1.32-.189-1.864a1.22 1.22 0 0 0-.959-.637c-1.583.115-2.594 1.202-2.704 2.792-.251 3.631-.556 7.247-1.938 10.676-.083.212.034.49.057.739.294-.032.666.034.862-.121.312-.246.506-.637.751-.975q1.457-2.003 2.916-4.004c.132-.18.332-.359.362-.56.302-2.03.576-4.077.844-6.04zm9.033-1.781c-.425 2.087-.832 3.975-1.232 5.888 3.328-.11 4.661-.966 5.532-3.304.334-.904.127-1.44-.762-1.688-1.149-.316-2.312-.582-3.536-.89zm7.82-6.644c-1.54-2.936-2.459-3.397-4.563-2.318-1.276.637-1.317 1.161-.142 2.05 1.465 1.115 3.035.687 4.707.275zm-53.524-30.849.098-.087-.092-.097-.102.136zm-12.52 8.381-.091.066c.025.03.047.076.076.08.03.005.06-.038.092-.061z"/><path fill="#f5cdcb" d="m242.728 48.198-.095-.048.102-.136.091.097zm-12.519 8.38.077.085c-.032.023-.064.064-.092.062s-.051-.051-.076-.081zm47.723 24.982c-.328-.528-.743-1.023-.971-1.592-3.144-7.856-7.382-15.124-11.623-22.404a9.6 9.6 0 0 1-.943-2.136c-.083-.283.245-.686.385-1.034.3.15.74.212.881.462 4.586 7.856 9.826 15.39 12.326 24.299.213.73.251 1.507.372 2.263zm-10.213-42.15c-.546.028-1.148.213-1.631.056a36 36 0 0 1-4.468-1.771c-.757-.372-1.338-.404-2.17-.236-2.825.571-5.69.945-8.541 1.386a.8.8 0 0 1-.541-.048q-.474-.39-.899-.833c.317-.189.619-.507.951-.543 1.276-.138 2.586-.072 3.844-.295 1.846-.327 3.655-.85 5.488-1.262.464-.101 1.032-.225 1.43-.053 1.978.85 3.919 1.803 5.863 2.735q.385.232.717.535c-.009.11-.026.227-.043.33"/></svg>