<svg xmlns="http://www.w3.org/2000/svg" width="410" height="154" fill="none" viewBox="0 0 410 154"><path fill="#f5cdcb" d="M92.132 136.251c-.24-1.53-2.14-6.46-3.86-7.24-.58 4.13 6.24 11.6.51 13.51-10.72-7.46-20-18.23-30.93-25.13-19.05-12-41.26-15.08-53.84-37-15.16-26.39 15.73-68 41.15-43.08 8.67 8.52 12.52 21.27 20.87 29.85-1.69-18.83-10.5-32.82-8.67-52.64 1.6-17.46 11.88-20 18.52-3.1 6 15.39 2.28 34.19 3.69 50.42 1.26 14.42 2.54 29 3.87 43.48.74 8.07 1 18.38 7.71 23.69l-5.88-54.61c-.15-2.16.26-4.63 3-4.33 2.33 27.71 8.22 55.14 6.77 83.1h-2.89c-.58-5.26.74-11.86-.02-16.92m-21.26-77.3c.61 5.41 0 12.68 0 18.36 0 .11-1.41 1.93-1.94 1-8.22-16.91-27-38.81-47.88-37.29-11.42.83-12 18.77-9.65 27.17 3.77 13.68 27.29 30.87 39.49 37.81 10.26 5.84 21.25 8.77 31.56 14.33-3.2-11.83-2.63-24.16-3.86-36.23-.93-9.16-3.27-19-3.85-28-.84-13.09 2.59-25-.27-38.37-2.21-10.34-10.67-23-12.28-4.12-1.51 17.62 6.95 30.01 8.68 45.34m-20.3-9.18c1.09-1.16-8.16-11-9.63-12.1-8.87-6.8-19.43-6.52-27.08 2 3 .07 4.61-1.53 8.21-1.53 10.5-.05 20.05 6.18 28.5 11.63m-30.58 37.35c-8.91-9-14-19-12.89-32 .24-2.86 2-5.46 1.45-8.22-17.08 27 9.09 48.12 32 57.81.89.37 2.46 2.1 3.22.65-7.63-5.76-17.07-11.44-23.78-18.24m68.26 51.55c-1.55-3.36-3.77-13.81-5.81-15.92-.88-.91-6.1-3.17-7.72-3.87-5.57-2.42-11.78-3.88-17.38-6.29z"/><path fill="#000" d="M87.486 40.01q-.044.11-.132.11-.066-.022-.022-.154.11-.44.11-.858 0-1.013-.484-2.046-.484-1.056-1.276-1.738t-1.672-.682q-2.596 0-2.596 2.97 0 1.628.748 3.036.748 1.386 1.936 2.2 1.21.814 2.442.814 1.584 0 2.42-1.012.088-.088.132-.022.045.045 0 .11-1.738 2.178-4.598 2.178a5.4 5.4 0 0 1-2.596-.638 5 5 0 0 1-1.914-1.804q-.704-1.188-.704-2.728 0-1.495.748-2.772a5.7 5.7 0 0 1 2.068-2.024 5.54 5.54 0 0 1 2.816-.748q1.056 0 1.98.286t1.408.748q.506.44.396.88zm20.2 4.422q.11 0 .11.088t-.11.088q-.33-.022-1.364-.022h-2.618q-.969 0-1.298.022-.11 0-.11-.088t.11-.088q.703 0 1.012-.484.33-.485.33-1.65v-2.882q0-.264-.198-.242-1.167.176-2.31.176a15.5 15.5 0 0 1-2.31-.176h-.022q-.132 0-.132.242v2.882q0 1.165.308 1.65.33.484 1.034.484.11 0 .11.088t-.11.088q-.33-.022-1.298-.022h-2.618q-1.035 0-1.386.022-.11 0-.11-.088t.11-.088q.726 0 1.078-.484.351-.485.352-1.65v-5.456q0-1.166-.352-1.65t-1.078-.484q-.11 0-.11-.088t.11-.088l1.386.022h2.618l1.298-.022q.11 0 .11.088t-.11.088q-.704 0-1.034.484-.309.485-.308 1.65v1.914q0 .242.154.264 1.122.176 2.244.176 1.188 0 2.376-.176.11-.022.154-.088a.3.3 0 0 0 .044-.176v-1.914q0-1.166-.33-1.65-.309-.484-1.012-.484-.11 0-.11-.088t.11-.088l1.298.022h2.618l1.364-.022q.11 0 .11.088t-.11.088q-.726 0-1.078.484-.33.485-.33 1.65v5.456q0 1.165.33 1.65.351.484 1.078.484m12.333-3.608q0-.11.066-.11t.066.11q0 1.672-.726 2.86-.704 1.188-1.848 1.188-.836 0-1.408-.55-.572-.572-.638-1.694-.528 1.1-1.408 1.694a3.25 3.25 0 0 1-1.892.594q-1.739 0-2.574-.968a3.44 3.44 0 0 1-.836-2.288q0-1.276 1.144-2.046 1.165-.77 2.904-.77.594 0 1.32.11.748.11 1.342.286v-.968q0-3.388-2.948-3.388-1.21 0-2.068.792-.836.792-.836 2.376 0 .089-.044.132t-.088.044q-.088 0-.088-.176 0-1.232.616-2.09a3.85 3.85 0 0 1 1.584-1.32 4.9 4.9 0 0 1 2.046-.44q4.356 0 4.356 4.07v3.608q0 1.452.748 1.452.726 0 .946-.638.22-.66.264-1.87m-6.644 2.838q2.156 0 2.156-2.618v-.132a2.27 2.27 0 0 0-.924-1.254 2.53 2.53 0 0 0-1.496-.484q-2.178 0-2.178 1.672 0 1.122.638 1.98.638.836 1.804.836m20.916.77q.11 0 .11.088t-.11.088a27 27 0 0 0-1.364-.022h-2.64q-1.011 0-1.364.022-.11 0-.11-.088t.11-.088q.66 0 .968-.374.33-.374.33-1.254 0-.33-.022-.506l-.484-5.83q-.021-.264-.132-.264-.066 0-.11.066a1 1 0 0 0-.088.198l-3.102 7.854q-.087.242-.242.242-.198 0-.286-.242l-3.08-7.942q-.066-.176-.132-.176h-.044l.154.572-.154-.55q-.066.022-.066.154l-.528 5.918a6 6 0 0 0-.022.55q0 .858.308 1.232.309.352.968.352.11 0 .11.088t-.11.088a26 26 0 0 0-1.364-.022h-.264q-1.034 0-1.364.022-.11 0-.11-.088t.11-.088q.726 0 1.078-.462.375-.484.484-1.672l.594-6.534q-.22-.572-.55-.814t-.836-.242q-.11 0-.11-.088t.11-.088l1.298.022h2.112q.309 0 .396.242l2.442 6.028q.067.154.154.154.111 0 .132-.154l2.376-6.05q.044-.132.11-.176a.36.36 0 0 1 .198-.044h1.936l1.386-.022q.11 0 .11.088t-.11.088q-.66 0-.99.374-.308.352-.308 1.21 0 .352.022.55l.528 5.456q.111 1.189.462 1.672.374.462 1.1.462m-11.638-7.634v-.022zm25.688 7.634q.11 0 .11.088t-.11.088q-.33-.022-1.364-.022h-2.618q-1.034 0-1.364.022-.11 0-.11-.088t.11-.088q.726 0 1.056-.484.352-.485.352-1.65v-5.302l-5.258 5.28v.022q0 1.165.33 1.65.352.484 1.078.484.11 0 .11.088t-.11.088a27 27 0 0 0-1.364-.022h-2.618q-1.033 0-1.386.022-.11 0-.11-.088t.11-.088q.726 0 1.078-.484.352-.485.352-1.65v-5.434q0-1.165-.352-1.65-.352-.506-1.078-.506-.11 0-.11-.088t.11-.088q.704.044 1.386.044h2.618q.66 0 1.364-.044.11 0 .11.088t-.11.088q-.726 0-1.078.506-.33.485-.33 1.65v5.126l5.258-5.28q-.022-1.1-.374-1.54-.33-.462-1.034-.462-.11 0-.11-.088t.11-.088q.66.044 1.364.044h2.618q.704 0 1.364-.044.11 0 .11.088t-.11.088q-.726 0-1.078.506-.33.485-.33 1.65v5.434q0 1.165.33 1.65.352.484 1.078.484m13.792-10.23q1.145 0 2.09.638.969.615 1.54 1.804.594 1.166.594 2.706 0 1.452-.682 2.75a5.35 5.35 0 0 1-1.826 2.046 4.4 4.4 0 0 1-2.508.77q-.835 0-1.386-.22a5.4 5.4 0 0 1-1.034-.55q-.33-.22-.44-.22-.198 0-.198.374v2.42q0 1.166.308 1.628.33.484.99.528.11 0 .11.066 0 .088-.11.088a50 50 0 0 0-2.288-.044q-1.737 0-2.838.044-.11 0-.11-.088t.11-.088q.66.022.968-.462.33-.484.33-1.694V37.37q0-.835-.22-1.21-.198-.396-.77-.396a3 3 0 0 0-.374.044q-.087.022-.11-.044 0-.088.066-.11 1.035-.242 2.112-.638 1.101-.396 1.782-.858.11-.066.176-.044.088.022.066.132a23 23 0 0 0-.154 1.936q0 .264.022.506.044.22.11.198.594-1.188 1.474-1.936t2.2-.748m-.616 10.384q1.409 0 2.024-.792.639-.792.638-2.31a8.1 8.1 0 0 0-.506-2.838q-.506-1.365-1.364-2.2-.836-.836-1.826-.836t-1.606.836q-.594.836-.594 2.244v1.474q0 1.914.858 3.168.88 1.254 2.376 1.254m19.115-.154q.11 0 .11.088t-.11.088q-.33-.022-1.364-.022h-2.618q-1.034 0-1.364.022-.11 0-.11-.088t.11-.088q.726 0 1.056-.484.352-.485.352-1.65v-5.302l-5.258 5.28v.022q0 1.165.33 1.65.352.484 1.078.484.11 0 .11.088t-.11.088a27 27 0 0 0-1.364-.022h-2.618q-1.034 0-1.386.022-.11 0-.11-.088t.11-.088q.726 0 1.078-.484.352-.485.352-1.65v-5.434q0-1.165-.352-1.65-.352-.506-1.078-.506-.11 0-.11-.088t.11-.088q.704.044 1.386.044h2.618q.66 0 1.364-.044.11 0 .11.088t-.11.088q-.726 0-1.078.506-.33.485-.33 1.65v5.126l5.258-5.28q-.022-1.1-.374-1.54-.33-.462-1.034-.462-.11 0-.11-.088t.11-.088q.66.044 1.364.044h2.618q.704 0 1.364-.044.11 0 .11.088t-.11.088q-.726 0-1.078.506-.33.485-.33 1.65v5.434q0 1.165.33 1.65.352.484 1.078.484m12.81 0q.11 0 .11.088t-.11.088a27 27 0 0 0-1.364-.022h-2.618q-1.033 0-1.386.022-.11 0-.11-.088t.11-.088q.726 0 1.078-.484.352-.485.352-1.65v-7.59h-4.466q-.088 1.783-.44 6.754-.088 1.605-.506 2.552-.396.924-1.408.924-1.188 0-1.188-.66 0-.132.022-.198l.528-2.09q.044-.11.11-.088.066 0 .066.11.022.945.242 1.276.22.33.726.33 1.1 0 1.254-2.156l.286-4.62.022-.44q0-.902-.33-1.298t-.99-.396q-.11 0-.11-.088t.11-.088l1.364.022h7.282l1.364-.022q.11 0 .11.088t-.11.088q-.726 0-1.078.484-.33.485-.33 1.65v5.456q0 1.165.33 1.65.352.484 1.078.484m9.329-4.422q-.043.11-.132.11-.066-.022-.022-.154.11-.44.11-.858 0-1.013-.484-2.046-.484-1.056-1.276-1.738t-1.672-.682q-2.596 0-2.596 2.97 0 1.628.748 3.036.748 1.386 1.936 2.2 1.21.814 2.442.814 1.584 0 2.42-1.012.089-.088.132-.022.044.045 0 .11-1.738 2.178-4.598 2.178a5.4 5.4 0 0 1-2.596-.638 5 5 0 0 1-1.914-1.804q-.704-1.188-.704-2.728 0-1.495.748-2.772a5.7 5.7 0 0 1 2.068-2.024 5.54 5.54 0 0 1 2.816-.748q1.056 0 1.98.286t1.408.748q.505.44.396.88zm16.555 4.422q.11 0 .11.088t-.11.088a27 27 0 0 0-1.364-.022h-2.64q-1.011 0-1.364.022-.11 0-.11-.088t.11-.088q.66 0 .968-.374.33-.374.33-1.254 0-.33-.022-.506l-.484-5.83q-.021-.264-.132-.264-.066 0-.11.066a1 1 0 0 0-.088.198l-3.102 7.854q-.087.242-.242.242-.198 0-.286-.242l-3.08-7.942q-.066-.176-.132-.176h-.044l.154.572-.154-.55q-.066.022-.066.154l-.528 5.918a6 6 0 0 0-.022.55q0 .858.308 1.232.308.352.968.352.11 0 .11.088t-.11.088a26 26 0 0 0-1.364-.022h-.264q-1.034 0-1.364.022-.11 0-.11-.088t.11-.088q.726 0 1.078-.462.375-.484.484-1.672l.594-6.534q-.22-.572-.55-.814t-.836-.242q-.11 0-.11-.088t.11-.088l1.298.022h2.112q.309 0 .396.242l2.442 6.028q.066.154.154.154.111 0 .132-.154l2.376-6.05q.044-.132.11-.176a.36.36 0 0 1 .198-.044h1.936l1.386-.022q.11 0 .11.088t-.11.088q-.66 0-.99.374-.308.352-.308 1.21 0 .352.022.55l.528 5.456q.111 1.189.462 1.672.375.462 1.1.462m-11.638-7.634v-.022zm22.08 5.83q.022-.022.066.022.066.044.022.11a5.64 5.64 0 0 1-2.068 1.606q-1.21.55-2.53.55a5.36 5.36 0 0 1-2.574-.638 4.86 4.86 0 0 1-1.892-1.804q-.682-1.188-.682-2.728 0-1.518.748-2.794a5.53 5.53 0 0 1 2.068-2.002 5.6 5.6 0 0 1 2.838-.748q1.716 0 2.86.946 1.144.925 1.144 2.53 0 .726-.264 1.562-2.31.044-7.084.198a6.6 6.6 0 0 0 1.144 2.178 6.2 6.2 0 0 0 1.804 1.496q1.013.528 1.98.528 1.606 0 2.42-1.012m-5.082-8.008q-1.232 0-1.892.77-.638.748-.638 2.266 0 .748.22 1.628a87 87 0 0 0 2.948-.11q.44-.023.902-.044.484-.022.968-.022.198-.33.198-.814 0-.726-.418-1.584a4.5 4.5 0 0 0-1.034-1.474q-.617-.615-1.254-.616m19.497 9.812q.11 0 .11.088t-.11.088q-.33-.022-1.364-.022h-2.618q-1.035 0-1.364.022-.11 0-.11-.088t.11-.088q.726 0 1.056-.484.352-.485.352-1.65v-5.302l-5.258 5.28v.022q0 1.165.33 1.65.351.484 1.078.484.11 0 .11.088t-.11.088q-.353-.022-1.364-.022h-2.618q-1.035 0-1.386.022-.11 0-.11-.088t.11-.088q.726 0 1.078-.484.352-.485.352-1.65v-5.434q0-1.165-.352-1.65-.352-.506-1.078-.506-.11 0-.11-.088t.11-.088q.704.044 1.386.044h2.618q.66 0 1.364-.044.11 0 .11.088t-.11.088q-.727 0-1.078.506-.33.485-.33 1.65v5.126l5.258-5.28q-.023-1.1-.374-1.54-.33-.462-1.034-.462-.11 0-.11-.088t.11-.088q.66.044 1.364.044h2.618q.704 0 1.364-.044.11 0 .11.088t-.11.088q-.726 0-1.078.506-.33.485-.33 1.65v5.434q0 1.165.33 1.65.352.484 1.078.484m-8.712-14.366q.615 0 .814.066t.198.22q0 .835.462 1.54t1.342.704q.968 0 1.364-.704.418-.704.418-1.518 0-.132.088-.132.11 0 .11.132 0 1.1-.66 1.98-.66.858-2.068.858-.969 0-1.606-.44a2.94 2.94 0 0 1-.924-1.122 3.3 3.3 0 0 1-.286-1.32q0-.132.154-.198.153-.066.594-.066m21.786 14.41q.11 0 .11.088 0 .066-.11.066-.617-.044-3.014-.044-.594 0-.858-.22a1.1 1.1 0 0 1-.33-.55l-.682-1.914q-.33-.968-.638-1.474a1.87 1.87 0 0 0-.814-.77q-.485-.242-1.32-.242h-.198v2.882q0 1.165.33 1.65.351.484 1.078.484.11 0 .11.088t-.11.088q-.33-.022-1.364-.022h-2.618q-1.035 0-1.386.022-.11 0-.11-.088t.11-.088q.726 0 1.078-.484.352-.485.352-1.65v-5.434q0-1.165-.352-1.65t-1.078-.484q-.11 0-.11-.088t.11-.088l1.386.022h2.618l1.364-.022q.11 0 .11.088t-.11.088q-.727 0-1.078.484-.33.485-.33 1.65v2.42h.198q1.561 0 2.376-.484.814-.506 1.474-1.716l.22-.418q.374-.682.374-1.166 0-.792-1.056-.792-.11 0-.11-.088t.11-.088l1.364.022h.528l1.364-.022q.11 0 .11.088t-.11.088q-.683 0-1.122.418-.44.396-1.1 1.496l-.33.572q-.55.924-1.188 1.43-.616.485-1.54.66 1.671.022 2.618.594.946.55 1.54 1.936l.33.792q.462 1.078.814 1.474.351.374.99.396m10.345-1.848q.023-.022.066.022.066.044.022.11a5.64 5.64 0 0 1-2.068 1.606q-1.21.55-2.53.55a5.36 5.36 0 0 1-2.574-.638 4.86 4.86 0 0 1-1.892-1.804q-.682-1.188-.682-2.728 0-1.518.748-2.794a5.53 5.53 0 0 1 2.068-2.002 5.6 5.6 0 0 1 2.838-.748q1.716 0 2.86.946 1.144.925 1.144 2.53 0 .726-.264 1.562-2.31.044-7.084.198a6.6 6.6 0 0 0 1.144 2.178 6.2 6.2 0 0 0 1.804 1.496q1.012.528 1.98.528 1.606 0 2.42-1.012m-5.082-8.008q-1.232 0-1.892.77-.638.748-.638 2.266 0 .748.22 1.628a87 87 0 0 0 2.948-.11q.44-.023.902-.044.484-.022.968-.022.198-.33.198-.814 0-.726-.418-1.584a4.5 4.5 0 0 0-1.034-1.474q-.616-.615-1.254-.616m13.975-.418a3.66 3.66 0 0 1 2.09.638q.967.615 1.54 1.804.594 1.166.594 2.706 0 1.452-.682 2.75a5.35 5.35 0 0 1-1.826 2.046 4.4 4.4 0 0 1-2.508.77q-.837 0-1.386-.22a5.3 5.3 0 0 1-1.034-.55q-.33-.22-.44-.22-.198 0-.198.374v2.42q0 1.166.308 1.628.33.484.99.528.11 0 .11.066 0 .088-.11.088a50 50 0 0 0-2.288-.044q-1.739 0-2.838.044-.11 0-.11-.088t.11-.088q.66.022.968-.462.33-.484.33-1.694V37.37q0-.835-.22-1.21-.198-.396-.77-.396-.11 0-.374.044-.089.022-.11-.044 0-.088.066-.11a18 18 0 0 0 2.112-.638q1.1-.396 1.782-.858.11-.066.176-.044.087.022.066.132a23 23 0 0 0-.154 1.936q0 .264.022.506.044.22.11.198.594-1.188 1.474-1.936t2.2-.748m-.616 10.384q1.407 0 2.024-.792.638-.792.638-2.31 0-1.474-.506-2.838-.507-1.365-1.364-2.2-.837-.836-1.826-.836t-1.606.836q-.594.836-.594 2.244v1.474q0 1.914.858 3.168.879 1.254 2.376 1.254M89.228 62.658q-.176.572-3.036 2.288a119 119 0 0 0-4.884 2.992q-6.292 12.32-7.832 14.872-4.356 7.215-7.26 7.216-1.32 0-1.32-1.716 0-10.12 15.268-20.416 1.013-1.98 3.696-7.524 0-.044-.088-.044t-.308.22a151 151 0 0 1-2.332 2.156q-3.124 2.904-5.104 2.904-.924 0-.924-1.1 0-1.98 2.86-4.576 3.08-2.816 6.028-2.816.836 0 1.408.352l.924-1.276q.307-.396.616-.396.572 0 .572.616 0 .307-.22.616-2.068 3.08-5.412 9.768a61 61 0 0 1 4.092-2.376q2.2-1.276 2.86-1.804.132-.132.264-.132t.132.176m-4.136-4.664q0-.176-.396-.176-2.376 0-5.192 2.288-2.816 2.244-2.816 4.004 0 .528.484.528 1.805 0 7.7-6.292.22-.308.22-.352M79.548 69.17q-13.42 9.504-13.42 18.788 0 1.144.748 1.144 2.815 0 12.672-19.932m10.507-4.224q.353 0 1.716-.616 2.42-1.144 4.268-2.728 1.892-1.628 3.212-3.344.66-.66.968-.66.573 0 .572.572 0 .352-.308.792-2.64 3.96-2.64 5.148 0 1.1 1.012 1.1 1.54 0 5.588-2.772.088-.088.396-.308.352-.22.484-.22t.132.176q0 .264-.66.704-5.456 3.652-7.304 3.652-1.232 0-1.232-1.408 0-.44.088-.924.132-.528.264-.924.177-.396.264-.66.132-.265.132-.22 0-.176-.132-.176-.219 0-.924.528-.66.528-2.2 1.408-.747.353-1.364.704-.615.353-1.188.66a7 7 0 0 1-1.1.484 2.8 2.8 0 0 1-1.1.132 3.2 3.2 0 0 1-1.1-.264q-.528-.264-.528-1.1 0-.484.264-.836.22-.352.484-.352.22 0 .352.22t.308.528q.177.264.396.484t.616.22zm23.699-3.652q.66-.66.968-.66.572 0 .572.572 0 .352-.308.792a25 25 0 0 0-.88 1.408q-.352.572-.44.968-.088.397.176.616.264.22 1.012.22 1.54 0 5.588-2.772.088-.088.396-.308.352-.22.484-.22t.132.176q0 .264-.66.704-5.456 3.652-7.304 3.652-1.232 0-1.232-1.408 0-.616.176-1.188t.352-.924q-.308 0-.616-.044a25 25 0 0 0-.572-.088q-.792.572-1.804 1.188-1.012.571-2.024 1.056-1.012.484-1.936.792-.88.264-1.452.22a3.2 3.2 0 0 1-1.1-.264q-.528-.264-.528-1.1 0-.484.264-.836.22-.352.484-.352.22 0 .352.22t.308.528q.175.264.396.484.22.22.616.22h.264q.132 0 .528-.132.44-.132 1.188-.484a33 33 0 0 1 1.98-.88 12 12 0 0 0 1.628-.88 6 6 0 0 1-1.584-.572q-1.056-.528-.924-1.936.088-.968.792-1.584a4.2 4.2 0 0 1 1.584-.88 4.2 4.2 0 0 1 1.804-.132q.924.088 1.408.616.484.484.352 1.364-.088.88-1.232 2.2l-.308.308a1.8 1.8 0 0 1-.352.264l.748.22q.044-.088.176-.264.132-.22.264-.396a9 9 0 0 1 .22-.352q.088-.132.044-.132m-.836-.836q.132-.22.22-.396.132-.176.22-.396.132-.352.132-.748.043-.396-.264-.748-.396-.44-1.32-.176a3.76 3.76 0 0 0-1.584.836q-.703.616-.924 1.452-.175.792.792 1.408l1.32.352q.352-.308.704-.704t.704-.88m27.2 2.2q0 .175-.44.528-1.936 1.628-3.916 1.628-1.231 0-2.112-.66-2.024 2.64-4.4 2.64-1.76 0-1.76-2.2 0-2.86 2.816-5.764 2.376-2.42 3.476-2.42.704 0 .704.44 0 .132-.264.352-1.056.22-2.86 2.244-2.2 2.465-2.2 4.752 0 1.496 1.056 1.496 1.54 0 3.124-1.804-.836-.924-.836-2.288 0-1.584.792-2.728.704-.968 1.496-.968t.924 1.1q0 1.935-1.364 4.18.748.836 2.024.836 1.716 0 3.344-1.408.132-.132.264-.132t.132.176m-4.84-3.388q0-.44-.308-.44-.396 0-.836.704t-.44 1.804q0 .925.396 1.54 1.188-1.848 1.188-3.608m31.436 3.388q0 .264-.66.704-3.123 2.112-3.476 2.332-1.98 1.188-3.3 1.188a1.74 1.74 0 0 1-1.276-.528 1.82 1.82 0 0 1-.484-1.276q0-2.2 2.816-6.292.22-.308.22-.396 0-.044-.044-.044-.175 0-.616.308l-5.456 4.092q-1.275 1.1-3.74 3.08-.351.264-.968.484-.308 0-.308-.44 0-.88 1.452-2.816 1.496-1.98 1.496-2.772 0-.748-.704-.748-1.056 0-4.224 2.86a51 51 0 0 0-3.784 3.74q-.615.66-.968.66-.572 0-.572-.616 0-.175.308-.88 1.057-1.452 2.068-2.904 1.54-2.2 1.54-3.124 0-.396-.264-.396-.132 0-.528.176l-6.38 4.752h-.308q-.308 0-.308-.088 0-.132.484-.44a424 424 0 0 1 6.82-5.236q.528-.44 1.364-.44.88 0 .88.792 0 .175-.088.528-.879 1.54-2.244 3.916-.176.308-.176.396 0 .044.088.044l.132-.044 3.256-2.816q2.508-2.112 3.608-2.112 1.452 0 1.452.924 0 .792-.88 2.42-.836 1.584-.836 1.716t.088.132q.177 0 .616-.308l9.152-6.908q.441-.352.924-.352.309 0 .44.132.132.088.132.352a.8.8 0 0 1-.176.528 831 831 0 0 1-2.508 3.564q-1.496 2.288-1.496 3.96 0 1.056 1.144 1.012 1.364-.044 3.08-1.1l2.816-1.76q.132-.132.264-.132t.132.176m17.579 0q-.264.749-3.212 2.244t-4.356 1.496q-.748 0-.748-.528 0-.704 1.452-2.816 1.496-2.112 1.496-2.772 0-.748-.704-.748-1.056 0-4.224 2.86a51 51 0 0 0-3.784 3.74q-.616.66-.968.66-.572 0-.572-.616 0-.175.308-.88a179 179 0 0 0 2.068-2.904q1.54-2.2 1.54-3.124 0-.396-.264-.396-.132 0-.528.176l-6.38 4.752h-.308q-.308 0-.308-.088 0-.132.484-.44a420 420 0 0 1 6.82-5.236q.528-.44 1.364-.44.88 0 .88.792 0 .924-1.276 2.816-1.232 1.848-1.232 2.024 0 .044.088.044-.044 0 2.948-2.464 2.992-2.508 4.048-2.508 1.628 0 1.628 1.1 0 .968-1.408 3.168t-1.408 2.508q0 .352.44.352.836 0 3.212-1.276 1.627-.925 2.508-1.54.132-.132.264-.132t.132.176m13.702 0q0 .528-2.728 2.024-2.859 1.584-4.092 1.584-2.288 0-2.288-2.42 0-.66.704-1.496 0-.044-.044-.044.045 0-2.376 1.848-2.42 1.804-3.476 1.804-1.012 0-1.012-.836 0-2.025 3.388-4.708 3.213-2.595 5.016-2.596.264.044.572.308.352.22.352.352 0 .045-.044.088-2.463 0-6.292 3.828-1.232 1.231-1.232 2.068 0 .308.308.308.969 0 3.696-2.244 2.2-1.848 3.124-2.948.44-.528.616-.528.44 0 .44.616 0 .22-.572 1.012-1.892 2.595-1.892 3.3 0 1.232 1.364 1.232 2.244 0 6.072-2.596.132-.132.264-.132t.132.176m13.135 0q-.175.572-3.036 2.288a120 120 0 0 0-4.884 2.992q-6.291 12.32-7.832 14.872-4.356 7.215-7.26 7.216-1.32 0-1.32-1.716 0-10.12 15.268-20.416 1.013-1.98 3.696-7.524 0-.044-.088-.044-.087 0-.308.22a148 148 0 0 1-2.332 2.156q-3.123 2.904-5.104 2.904-.924 0-.924-1.1 0-1.98 2.86-4.576 3.08-2.816 6.028-2.816.837 0 1.408.352l.924-1.276q.309-.396.616-.396.573 0 .572.616 0 .307-.22.616-2.067 3.08-5.412 9.768a61 61 0 0 1 4.092-2.376q2.2-1.276 2.86-1.804.132-.132.264-.132t.132.176m-4.136-4.664q0-.176-.396-.176-2.375 0-5.192 2.288-2.816 2.244-2.816 4.004 0 .528.484.528 1.805 0 7.7-6.292.22-.308.22-.352M201.45 69.17q-13.42 9.504-13.42 18.788 0 1.144.748 1.144 2.817 0 12.672-19.932m13.676-4.092q-.132.176-.352.484l-.44.528a2.3 2.3 0 0 1-.352.484q-.177.22-.264.22-.572 0-.572-.616 0-.22.308-.88.528-.749 1.056-1.452.528-.704 1.012-1.452 1.54-2.2 1.54-3.124 0-.396-.264-.396-.177 0-.528.176a275 275 0 0 0-2.728 2.024 172 172 0 0 1-3.652 2.728h-.308q-.308 0-.308-.088t.484-.44a174 174 0 0 1 3.212-2.508q1.715-1.32 3.608-2.728.483-.44 1.364-.44.88 0 .88.792 0 .88-1.276 2.816a2.3 2.3 0 0 1-.22.352q-.133.131-.22.308h.836q.483 0 1.1-.044 1.056-.088 1.804 0l.352-.616q.175-.307.396-.66.483-.748.924-1.364.483-.615.968-1.1.308-.396.968-.396.351.088.352.22l-1.54 2.552q-1.54 2.552-1.54 3.696 0 1.364 1.188 1.364 1.495 0 4.356-2.596.132-.132.264-.132t.132.176q0 .264-.88.88-1.409 1.232-2.552 1.892-1.145.615-2.156.616-1.98 0-1.98-1.672 0-1.1.484-2.244a15.7 15.7 0 0 0-2.86.044q-.617.044-.792.044h-.264a32 32 0 0 0-1.1 1.672q-.44.792-.44.88m24.808-2.42q0 .175-.44.528-1.935 1.628-3.916 1.628-1.232 0-2.112-.66-2.024 2.64-4.4 2.64-1.76 0-1.76-2.2 0-2.86 2.816-5.764 2.376-2.42 3.476-2.42.704 0 .704.44 0 .132-.264.352-1.056.22-2.86 2.244-2.2 2.465-2.2 4.752 0 1.496 1.056 1.496 1.54 0 3.124-1.804-.836-.924-.836-2.288 0-1.584.792-2.728.704-.968 1.496-.968t.924 1.1q0 1.935-1.364 4.18.749.836 2.024.836 1.716 0 3.344-1.408.132-.132.264-.132t.132.176m-4.84-3.388q0-.44-.308-.44-.395 0-.836.704t-.44 1.804q0 .925.396 1.54 1.188-1.848 1.188-3.608m11.065 6.776q-.792.264-1.54.44-.705.176-1.32.176-.573 0-1.012-.22-.396-.22-.528-.792-.132-.44.264-1.1.44-.704 1.1-1.452t1.364-1.496q.747-.792 1.276-1.408.571-.66.792-1.056.264-.44-.132-.528-.22-.264-.924.176-.66.44-1.584 1.188-.924.749-1.98 1.584-1.013.836-1.892 1.32h-.044q-.089 0-.176-.176a1.2 1.2 0 0 1-.044-.264 30 30 0 0 0 2.2-1.628q1.143-.924 2.156-1.76a54 54 0 0 1 1.848-1.408q.792-.572 1.188-.572.528-.088.836.308.351.352.44.66.132.749-.528 1.584-.616.836-2.068 2.156-.749.66-1.364 1.452-.616.748-.88 1.364-.264.572-.044.924.22.308 1.144.132.924 0 1.672-.176.747-.22 1.496-.572a25 25 0 0 0 1.672-.924 71 71 0 0 1 2.156-1.276.5.5 0 0 0 .132-.088q.043-.044.132-.044.044 0 .044.308 0 .264-.22.308a77 77 0 0 1-1.584 1.056 10 10 0 0 1-1.188.66q-.528.264-1.188.528-.616.22-1.672.616m17.795-3.388q0 .175-.44.528-1.936 1.628-3.916 1.628-1.232 0-2.112-.66-2.024 2.64-4.4 2.64-1.76 0-1.76-2.2 0-2.86 2.816-5.764 2.376-2.42 3.476-2.42.704 0 .704.44 0 .132-.264.352-1.056.22-2.86 2.244-2.2 2.465-2.2 4.752 0 1.496 1.056 1.496 1.54 0 3.124-1.804-.836-.924-.836-2.288 0-1.584.792-2.728.704-.968 1.496-.968t.924 1.1q0 1.935-1.364 4.18.748.836 2.024.836 1.716 0 3.344-1.408.132-.132.264-.132t.132.176m-4.84-3.388q0-.44-.308-.44-.396 0-.836.704t-.44 1.804q0 .925.396 1.54 1.188-1.848 1.188-3.608m32.044-22.704q0 4.488-4.224 10.516-3.213 4.62-8.052 9.064-4.18 3.828-5.06 3.828-2.068 4.268-2.068 4.928a785 785 0 0 1 5.06-4.84q5.016-4.444 7.392-4.444.924.132.924.792 0 1.892-1.76 3.256a125 125 0 0 1-3.3 1.98q-1.76 1.1-1.76 2.332 0 1.935 1.54 1.936 1.803 0 6.38-2.904.22-.176.616-.396.132-.132.264-.132t.132.176q0 .045-.572.616-1.057 1.056-3.652 2.376-2.597 1.275-3.872 1.276-2.376 0-2.376-2.288 0-1.76 1.76-2.948 1.584-.924 3.256-1.892 1.716-1.012 1.716-2.376 0-.615-.572-.616-1.408 0-6.82 5.06-5.368 5.016-5.764 5.016-.528-.044-.528-.484 0-.308.264-.748l4.224-8.624q4.443-9.02 7.876-14.344 4.884-7.524 7.568-7.524 1.408 0 1.408 1.408m-1.276.66q0-1.012-.792-1.012-3.96 1.012-14.828 22.924 1.188-.396 4.928-4.18 4.224-4.313 7.084-8.624 3.608-5.456 3.608-9.108m9.263 25.432q0 .175-.44.528-1.935 1.628-3.916 1.628-1.231 0-2.112-.66-2.024 2.64-4.4 2.64-1.76 0-1.76-2.2 0-2.86 2.816-5.764 2.376-2.42 3.476-2.42.705 0 .704.44 0 .132-.264.352-1.056.22-2.86 2.244-2.2 2.465-2.2 4.752 0 1.496 1.056 1.496 1.54 0 3.124-1.804-.836-.924-.836-2.288 0-1.584.792-2.728.704-.968 1.496-.968t.924 1.1q0 1.935-1.364 4.18.749.836 2.024.836 1.716 0 3.344-1.408.132-.132.264-.132t.132.176m-4.84-3.388q0-.44-.308-.44-.395 0-.836.704t-.44 1.804q0 .925.396 1.54 1.188-1.848 1.188-3.608m8.821 5.808q-.133.176-.352.484l-.44.528a2.3 2.3 0 0 1-.352.484q-.177.22-.264.22-.572 0-.572-.616 0-.22.308-.88.528-.749 1.056-1.452.528-.704 1.012-1.452 1.54-2.2 1.54-3.124 0-.396-.264-.396-.177 0-.528.176a275 275 0 0 0-2.728 2.024 172 172 0 0 1-3.652 2.728h-.308q-.308 0-.308-.088t.484-.44a174 174 0 0 1 3.212-2.508q1.716-1.32 3.608-2.728.483-.44 1.364-.44.88 0 .88.792 0 .88-1.276 2.816a2.3 2.3 0 0 1-.22.352q-.132.131-.22.308h.836q.483 0 1.1-.044 1.056-.088 1.804 0l.352-.616q.176-.307.396-.66.483-.748.924-1.364.483-.615.968-1.1.308-.396.968-.396.351.088.352.22l-1.54 2.552q-1.54 2.552-1.54 3.696 0 1.364 1.188 1.364 1.495 0 4.356-2.596.132-.132.264-.132t.132.176q0 .264-.88.88-1.409 1.232-2.552 1.892-1.145.615-2.156.616-1.98 0-1.98-1.672 0-1.1.484-2.244a15.7 15.7 0 0 0-2.86.044q-.617.044-.792.044h-.264a32 32 0 0 0-1.1 1.672q-.44.792-.44.88m39.416-2.42q0 .264-.66.704-3.123 2.112-3.476 2.332-1.98 1.188-3.3 1.188a1.74 1.74 0 0 1-1.276-.528 1.82 1.82 0 0 1-.484-1.276q0-2.2 2.816-6.292.22-.308.22-.396 0-.044-.044-.044-.175 0-.616.308l-5.456 4.092q-1.275 1.1-3.74 3.08-.351.264-.968.484-.308 0-.308-.44 0-.88 1.452-2.816 1.496-1.98 1.496-2.772 0-.748-.704-.748-1.056 0-4.224 2.86a51 51 0 0 0-3.784 3.74q-.615.66-.968.66-.572 0-.572-.616 0-.175.308-.88 1.057-1.452 2.068-2.904 1.54-2.2 1.54-3.124 0-.396-.264-.396-.132 0-.528.176l-6.38 4.752h-.308q-.308 0-.308-.088 0-.132.484-.44a424 424 0 0 1 6.82-5.236q.528-.44 1.364-.44.88 0 .88.792 0 .175-.088.528-.879 1.54-2.244 3.916-.176.308-.176.396 0 .044.088.044l.132-.044 3.256-2.816q2.508-2.112 3.608-2.112 1.452 0 1.452.924 0 .792-.88 2.42-.836 1.584-.836 1.716t.088.132q.177 0 .616-.308l9.152-6.908q.441-.352.924-.352.308 0 .44.132.132.088.132.352a.8.8 0 0 1-.176.528 831 831 0 0 1-2.508 3.564q-1.496 2.288-1.496 3.96 0 1.056 1.144 1.012 1.365-.044 3.08-1.1l2.816-1.76q.132-.132.264-.132t.132.176m10.319 0q0 .308-1.804 1.452-4.444 2.816-6.38 2.816-2.86 0-2.86-3.344 0-2.464 2.376-4.928 2.42-2.508 4.576-2.508.66 0 .66.616 0 1.495-2.596 4.224-2.068 2.156-3.388 2.948.132 1.936 1.848 1.936 1.628 0 5.456-2.2.308-.176 1.716-1.056.132-.132.264-.132t.132.176m-4.796-5.06q0-.528-.308-.528-1.1 0-2.684 2.2t-1.628 3.96q.836-.264 2.64-2.288 1.98-2.2 1.98-3.344m8.729 7.48q-.133.176-.352.484l-.44.528a2.3 2.3 0 0 1-.352.484q-.177.22-.264.22-.572 0-.572-.616 0-.22.308-.88.528-.749 1.056-1.452.528-.704 1.012-1.452 1.54-2.2 1.54-3.124 0-.396-.264-.396-.177 0-.528.176a275 275 0 0 0-2.728 2.024 172 172 0 0 1-3.652 2.728h-.308q-.308 0-.308-.088t.484-.44a174 174 0 0 1 3.212-2.508q1.716-1.32 3.608-2.728.483-.44 1.364-.44.88 0 .88.792 0 .88-1.276 2.816a2.3 2.3 0 0 1-.22.352q-.132.131-.22.308h.836q.483 0 1.1-.044 1.056-.088 1.804 0l.352-.616q.176-.307.396-.66.483-.748.924-1.364.483-.615.968-1.1.308-.396.968-.396.351.088.352.22l-1.54 2.552q-1.54 2.552-1.54 3.696 0 1.364 1.188 1.364 1.496 0 4.356-2.596.132-.132.264-.132t.132.176q0 .264-.88.88-1.409 1.232-2.552 1.892-1.145.615-2.156.616-1.98 0-1.98-1.672 0-1.1.484-2.244a15.7 15.7 0 0 0-2.86.044q-.616.044-.792.044h-.264a32 32 0 0 0-1.1 1.672q-.44.792-.44.88m39.416-2.42q0 .264-.66.704-3.123 2.112-3.476 2.332-1.98 1.188-3.3 1.188a1.74 1.74 0 0 1-1.276-.528 1.82 1.82 0 0 1-.484-1.276q0-2.2 2.816-6.292.22-.308.22-.396 0-.044-.044-.044-.175 0-.616.308l-5.456 4.092q-1.275 1.1-3.74 3.08-.351.264-.968.484-.308 0-.308-.44 0-.88 1.452-2.816 1.496-1.98 1.496-2.772 0-.748-.704-.748-1.056 0-4.224 2.86a51 51 0 0 0-3.784 3.74q-.615.66-.968.66-.572 0-.572-.616 0-.175.308-.88 1.057-1.452 2.068-2.904 1.54-2.2 1.54-3.124 0-.396-.264-.396-.132 0-.528.176l-6.38 4.752h-.308q-.308 0-.308-.088 0-.132.484-.44a424 424 0 0 1 6.82-5.236q.528-.44 1.364-.44.88 0 .88.792 0 .175-.088.528-.879 1.54-2.244 3.916-.176.308-.176.396 0 .044.088.044l.132-.044 3.256-2.816q2.508-2.112 3.608-2.112 1.452 0 1.452.924 0 .792-.88 2.42-.836 1.584-.836 1.716t.088.132q.177 0 .616-.308l9.152-6.908q.441-.352.924-.352.309 0 .44.132.132.088.132.352a.8.8 0 0 1-.176.528 831 831 0 0 1-2.508 3.564q-1.496 2.288-1.496 3.96 0 1.056 1.144 1.012 1.365-.044 3.08-1.1l2.816-1.76q.132-.132.264-.132t.132.176m13.707 0q0 .528-2.728 2.024-2.86 1.584-4.092 1.584-2.288 0-2.288-2.42 0-.66.704-1.496 0-.044-.044-.044.043 0-2.376 1.848-2.42 1.804-3.476 1.804-1.012 0-1.012-.836 0-2.025 3.388-4.708 3.212-2.595 5.016-2.596.264.044.572.308.352.22.352.352 0 .045-.044.088-2.464 0-6.292 3.828-1.232 1.231-1.232 2.068 0 .308.308.308.967 0 3.696-2.244 2.2-1.848 3.124-2.948.44-.528.616-.528.44 0 .44.616 0 .22-.572 1.012-1.892 2.595-1.892 3.3 0 1.232 1.364 1.232 2.244 0 6.072-2.596.132-.132.264-.132t.132.176"/></svg>