<svg xmlns="http://www.w3.org/2000/svg" viewBox="0 0 506.55 214.47"><defs><style>.st0{fill:#181818}.st1{fill:#f4cdcb}</style></defs><g id="Layer_3"><path d="M54.78 112.67c-1.11-1.48-2.02-3.1-2.7-4.82-4.26-11.8 2.3-40.4 6.43-52.7C64.05 38.74 73.34 23.6 77.68 6.88c2.09 1.17 4.49 0 6.22.4s3.7 1.89 5.73 2.21c7.87 1.19 22.93-1.95 25.06 8.85l-10.52 1.75c3.1.19 6.12.65 9.24.91 1.37.12 3.51-.93 3.08 1.28-7.2 3.91-23.54.53-30.85-2.63-2.86-1.23-3.7-3.51-5.71-4.85-.89-.58-.68-1.42-1.75 0-5.12 16.63-12.53 32.55-16.58 49.53-2.21 9.24-7.26 34.13-5.85 42.54 1.07 6.33 11.45 12.01 17.23 12.76 14.32 1.86 21.16-7.12 25.69-19.1 8.99-23.61 11.66-50.41 16-75.12 1.12 0 2.37-.32 3.12.86 1.44 2.28-7.27 46.87-8.85 52.91-2.38 9.11-7.94 27.66-14.02 34.39-3.82 4.17-8.97 5.63-13.67 8.36 8.92 2.75 21.24 8.76 23.85 18.51s-11.09 9.78-17.53 7.76c-7.24-2.26-11.09-9.2-16.9-13.5.16 8.64 3.84 19.42 10.15 25.55 5.26 5.08 9.64 5.78 16.74 5.26 1.75-.12 4.5-1.56 5.26-1.45 3.51.42 1.3 3.51-1.02 4.85-15.34 9.13-29.92-9.66-33.18-22.98l-2.38-9.5-7.96 35.23c13.5 2.65 38.68 18.91 19.28 32.13-14.16 9.69-47.32 3.79-56.54-12.09-7.01-12.16-3.51-24.27 11.45-25.98 4.21-.49 14.49 2.31 17.53-.12 1.49-1.21 6.03-23.64 7.4-27.41l-10.99 10.6c-9.66 6.57-19.7 8.55-30.46 3.1-2.61-1.33-9.75-6.17-8.76-9.64 1.44-5 10.6 5.07 13.71 6.41 8.12 3.51 15.42 1.19 22.98-2.38 3.96-1.88 12.86-8.76 15.3-12.27.86-1.75 1.45-3.61 1.75-5.54-4.19 1.56-7.66 4.45-11.74 6.33-8.01 3.66-21.63 9.76-25.87-1.75-2.51-6.8 1.12-12.72 7.01-16.21 3.75-1.74 7.64-3.16 11.64-4.22zm30.85-99.62c-.65-1.42-1.95-2.91-3.51-2.61.61 1.44 1.91 2.87 3.51 2.61M31.3 122.66c-2.26 2.4-4.63 9.57-1.16 11.57 6.13 3.51 32.07-7.9 32.39-11.41.54-6.34-16.28-3.05-19.61-2.17s-12.95 6.84-7.54 0c-.63-.58-3.56 1.45-4.08 2.02Zm28.76 28.78c.72-6.89 4.52-13.76 5.63-20.45.25-1.51.93-2.17-.77-3.33-1.75 6.77-4.43 14.02-5.5 20.93-.16.95-.95 3.07.65 2.86Zm19.4-14.02c1.75 5.26 20.16 11.87 21.96 6.5 2.58-7.61-21.31-15.53-27.25-14.42l8.76 7.48zm-29.09 30.85c-6.43 1.63-14.88.18-20.56 3.68-5.68 3.51-6.66 6.27-4.1 12.18l2.61-6.17c-2.84 15.21 20.38 19.17 31.3 18.49 1.75-.11 10.11-3.24 9.25.46-11.3 6.38-25.13 1.75-35.69-3.96-.25 1.26 2.17 3.22 3.07 3.98 8.17 6.8 32.06 9.39 40.86 3.82 12.62-8.03-1.93-17.42-9.97-21.49-2.38-1.19-10.9-3.82-11.5-4.36a3.96 3.96 0 0 1-.88-3.1h-.86c-.81 4.42-6.7.67-3.54-3.59v.07Z" class="st1"/><path d="M104.17 65.89c-.49.42-5.17-1.59-6.13-2.24-2.17-1.45-4.22-5.64-5.26-6.15s-5.68 2.4-8.2 2.07c-4.43-.58-7.61-6.91-10.1-7.62s-4.35 1.3-6.41.3c6.92-8.92 12.46 2.31 15.55 2.91 2.37.46 6.4-3.51 10.94-2.1 1.28.4 9.73 9.27 10.11 10.2 0 .9-.17 1.8-.49 2.65Zm-22.08 36.19c1.03 3.82-4.85 6.17-6.15 3.08s4.14-2.47 6.15-3.08m-12.78-4.1c7.64-1.65 4.31 5.17.42 3.66-1.52-.6-2.63-3.17-.42-3.66m27.85-27.62c2 1.96-3.01 4.73-5.26 3.51-.84-2.51 4.17-4.47 5.26-3.51M86.51 97.69c-.6-.54-.19-5.26 3.08-4.4 2.94.75-1.19 6.03-3.08 4.4M69.33 77.42c3-.81 4.05 2.87 1.75 3.51-3.01.74-4.07-2.89-1.75-3.51m25.1 2.63.89 4.4h-3.51c-.25-2.12-.12-4.54 2.61-4.4ZM67.1 87.1c.63.54 1.17 4.38-.44 4.4s-1.96-6.33.44-4.4m42.33-45.75c.47.47-.96 4.84-2.63 3.51-.88-1.75 1.56-4.63 2.63-3.51M78.57 84.47c.3.32.56 3.3-1.3 2.63-2.72-.98.44-3.56 1.3-2.63m20.28-42.33h1.75v2.63h-1.75z" class="st1"/></g><g id="Layer_1"><g id="Layer_2"><path d="M170.28 142.13c-.35 1-2.49 2.49-6.42 4.49s-6.84 2.99-8.71 2.99c-1 0-1.5-.35-1.5-1.06 0-.94.98-2.82 2.95-5.63 1.96-2.82 2.95-4.66 2.95-5.54q0-1.5-1.41-1.5c-1.41 0-4.22 1.91-8.45 5.72-2.88 2.58-5.4 5.07-7.57 7.48-.82.88-1.47 1.32-1.94 1.32q-1.14 0-1.14-1.23c0-.24.2-.82.62-1.76a347 347 0 0 0 4.14-5.81c2.05-2.93 3.08-5.02 3.08-6.25 0-.53-.18-.79-.53-.79-.18 0-.53.12-1.06.35-2.99 2.23-7.25 5.4-12.76 9.5h-.62c-.41 0-.62-.06-.62-.18 0-.18.32-.47.97-.88 4.11-3.23 8.65-6.72 13.64-10.47.7-.59 1.61-.88 2.73-.88 1.17 0 1.76.53 1.76 1.58 0 1.23-.84 3.1-2.51 5.59s-2.51 3.86-2.51 4.09q0 .09.18.09c-.06 0 1.91-1.66 5.9-4.97s6.69-4.97 8.1-4.97c2.17 0 3.26.73 3.26 2.2 0 1.29-.94 3.4-2.82 6.34-1.88 2.93-2.82 4.61-2.82 5.02 0 .47.29.7.88.7 1.11 0 3.26-.85 6.42-2.55 2.17-1.23 3.84-2.26 5.02-3.08.18-.18.35-.26.53-.26s.26.12.26.35" class="st0"/><path d="M171.77 146.7c.47 0 1.61-.41 3.43-1.23 3.23-1.52 6.09-3.36 8.58-5.5s4.62-4.36 6.38-6.64c.88-.88 1.52-1.32 1.94-1.32q1.14 0 1.14 1.14c0 .47-.21 1-.62 1.58-3.52 5.28-5.28 8.71-5.28 10.3 0 1.47.67 2.2 2.02 2.2 2.05 0 5.78-1.85 11.18-5.54.12-.12.4-.32.84-.62.44-.29.75-.44.92-.44s.26.12.26.35q0 .525-1.32 1.41c-7.28 4.87-12.14 7.3-14.61 7.3q-2.46 0-2.46-2.82c0-.59.07-1.22.22-1.89s.32-1.28.53-1.8c.21-.53.38-.97.53-1.32s.22-.5.22-.44c0-.23-.09-.35-.26-.35-.29 0-.9.35-1.8 1.06q-1.365 1.05-4.44 2.82-1.5.705-2.73 1.41c-.82.47-1.61.91-2.38 1.32-.76.41-1.5.73-2.2.97a5.6 5.6 0 0 1-2.2.26c-.82-.06-1.57-.25-2.24-.57s-1.01-1.04-1.01-2.16c0-.64.16-1.2.48-1.67s.66-.7 1.01-.7c.29 0 .53.15.7.44.18.29.38.63.62 1.01.23.38.5.72.79 1.01s.7.44 1.23.44h.53Z" class="st0"/><path d="M228.44 142.13q0 1.05-5.46 4.05c-3.81 2.11-6.54 3.17-8.18 3.17-3.05 0-4.58-1.61-4.58-4.84 0-.88.47-1.88 1.41-2.99q0-.09-.09-.09c.06 0-1.53 1.22-4.75 3.65-3.23 2.44-5.54 3.65-6.95 3.65s-2.02-.56-2.02-1.67q0-4.05 6.78-9.42c4.28-3.46 7.63-5.19 10.03-5.19.35.06.75.25 1.19.57q.66.48.66.75 0 .09-.09.18c-3.29 0-7.48 2.55-12.58 7.66q-2.46 2.46-2.46 4.14c0 .41.21.62.62.62 1.29 0 3.75-1.5 7.39-4.49 2.93-2.46 5.02-4.43 6.25-5.9.59-.7 1-1.06 1.23-1.06.59 0 .88.41.88 1.23 0 .29-.38.97-1.14 2.02q-3.78 5.19-3.78 6.6 0 2.46 2.73 2.46c2.99 0 7.04-1.73 12.14-5.19.18-.18.35-.26.53-.26s.26.12.26.35Z" class="st0"/><path d="M281.59 142.13q0 .525-1.32 1.41c-4.17 2.82-6.48 4.37-6.95 4.66-2.64 1.58-4.84 2.38-6.6 2.38-1 0-1.83-.35-2.51-1.06-.68-.7-1.01-1.55-1.01-2.55 0-2.93 1.88-7.13 5.63-12.58.29-.41.44-.67.44-.79q0-.09-.09-.09c-.23 0-.65.21-1.23.62-3.29 2.46-6.92 5.19-10.91 8.18-1.7 1.47-4.19 3.52-7.48 6.16-.47.35-1.12.67-1.94.97-.41 0-.62-.29-.62-.88 0-1.17.98-3.06 2.95-5.68 1.96-2.61 2.95-4.44 2.95-5.5q0-1.5-1.41-1.5c-1.41 0-4.22 1.91-8.45 5.72-2.88 2.58-5.4 5.07-7.57 7.48-.82.88-1.47 1.32-1.94 1.32q-1.14 0-1.14-1.23c0-.24.2-.82.62-1.76a347 347 0 0 0 4.14-5.81c2.05-2.93 3.08-5.02 3.08-6.25 0-.53-.18-.79-.53-.79-.18 0-.53.12-1.06.35-2.99 2.23-7.25 5.4-12.76 9.5h-.62c-.41 0-.62-.06-.62-.18 0-.18.32-.47.97-.88 4.11-3.23 8.65-6.72 13.64-10.47.7-.59 1.61-.88 2.73-.88 1.17 0 1.76.53 1.76 1.58 0 .24-.06.59-.18 1.06-1.17 2.05-2.67 4.66-4.49 7.83-.24.41-.35.68-.35.79q0 .09.18.09l.26-.09c2.17-1.88 4.34-3.75 6.51-5.63 3.34-2.82 5.75-4.22 7.22-4.22 1.94 0 2.9.62 2.9 1.85 0 1.06-.57 2.65-1.72 4.8-1.14 2.14-1.72 3.3-1.72 3.48s.06.26.18.26c.23 0 .65-.2 1.23-.62l18.3-13.82c.59-.47 1.2-.7 1.85-.7.41 0 .7.07.88.22s.26.4.26.75c0 .41-.12.76-.35 1.06-1.64 2.35-3.32 4.72-5.02 7.13-2 3.05-2.99 5.69-2.99 7.92 0 1.41.76 2.08 2.29 2.02 1.82-.06 3.87-.79 6.16-2.2 1.88-1.17 3.75-2.35 5.63-3.52.18-.18.35-.26.53-.26s.26.12.26.35Z" class="st0"/><path d="M283 145.3c0 1.58.64 2.38 1.94 2.38.94 0 1.88-.26 2.82-.79s1.85-1.2 2.73-2.02c-.88-.88-1.32-1.96-1.32-3.26 0-1.41.4-2.62 1.19-3.65s1.69-1.54 2.68-1.54 1.58.47 1.76 1.41c0 .88-.15 1.83-.44 2.86s-.82 2.13-1.58 3.3c.88.88 2.11 1.32 3.7 1.32 1.94 0 3.93-.79 5.98-2.38.18-.18.32-.26.44-.26.18 0 .26.12.26.35 0 .47-.32.91-.97 1.32s-1.39.79-2.24 1.14-1.72.63-2.6.84-1.55.31-2.02.31c-.82 0-1.47-.1-1.94-.31s-.97-.51-1.5-.92c-1.23 1.47-2.64 2.61-4.22 3.43s-3.11 1.23-4.58 1.23c-1.12 0-1.94-.46-2.46-1.36-.53-.91-.79-1.95-.79-3.12 0-.76.34-1.99 1.01-3.7.67-1.7 1.51-3.43 2.51-5.19q1.5-2.64 3.3-4.62t3.3-1.98c.47.12.7.26.7.44 0 .06-.48.73-1.45 2.02s-1.95 2.79-2.95 4.49-1.79 3.3-2.38 4.8-.88 2.66-.88 3.48Zm10.83-7.13c.23-.12.25-.22.04-.31s-.43-.13-.66-.13c-.47 0-.92.32-1.36.97q-.66.975-.66 2.55c0 .88.21 1.61.62 2.2.7-.88 1.22-1.8 1.54-2.77s.48-1.74.48-2.33z" class="st0"/><path d="M311.34 146.97c-.18.24-.41.54-.7.92q-.435.57-.84 1.14c-.26.38-.51.7-.75.97s-.41.4-.53.4q-1.14 0-1.14-1.23c0-.29.21-.88.62-1.76.7-1 1.41-1.96 2.11-2.9s1.38-1.91 2.02-2.9c2.05-2.93 3.08-5.02 3.08-6.25 0-.53-.18-.79-.53-.79-.24 0-.59.12-1.06.35-1.53 1.11-3.33 2.46-5.41 4.05q-3.12 2.37-7.35 5.46h-.62c-.41 0-.62-.06-.62-.18s.32-.41.97-.88c2.05-1.64 4.21-3.33 6.47-5.06s4.65-3.53 7.17-5.41c.64-.59 1.55-.88 2.73-.88s1.76.53 1.76 1.58c0 1.17-.85 3.05-2.55 5.63-.29.41-.62.88-.97 1.41q1.41-.09 3.96-.18 1.5-.18 2.64-.09h.09c.94-1.94 2.38-3.9 4.31-5.9 3.17-3.23 5.49-4.84 6.95-4.84.94 0 1.41.29 1.41.88 0 .18-.18.41-.53.7-1.41.29-3.31 1.79-5.72 4.49q-2.91 3.255-3.96 6.42c0 .12-.03.21-.09.26-.24.94-.35 1.88-.35 2.82 0 2 .7 2.99 2.11 2.99 2.05 0 4.14-1.2 6.25-3.61-1.12-1.23-1.67-2.76-1.67-4.58 0-2.11.53-3.93 1.58-5.46.94-1.29 1.94-1.94 2.99-1.94s1.67.73 1.85 2.2c0 2.58-.91 5.37-2.73 8.36 1 1.11 2.35 1.67 4.05 1.67q3.435 0 6.69-2.82c.18-.18.35-.26.53-.26s.26.12.26.35-.29.59-.88 1.06c-2.58 2.17-5.19 3.26-7.83 3.26-1.64 0-3.05-.44-4.22-1.32-2.7 3.52-5.63 5.28-8.8 5.28-2.35 0-3.52-1.47-3.52-4.4 0-1.47.26-2.93.79-4.4-1.12-.06-2.73 0-4.84.18-.76.06-1.32.09-1.67.09h-.44c-.47.7-.91 1.41-1.32 2.11-.47.76-.88 1.44-1.23 2.02-.35.59-.53.91-.53.97Zm24.81-11.62c0-.59-.21-.88-.62-.88-.53 0-1.09.47-1.67 1.41-.59.94-.88 2.14-.88 3.61 0 1.23.26 2.26.79 3.08 1.58-2.46 2.38-4.87 2.38-7.22m51.39 6.78c-.24.76-2.26 2.27-6.07 4.53s-7.07 4.27-9.77 6.03c-8.39 16.43-13.61 26.34-15.66 29.74q-8.715 14.43-14.52 14.43c-1.76 0-2.64-1.14-2.64-3.43q0-20.235 30.54-40.83c1.35-2.64 3.81-7.66 7.39-15.05q0-.09-.18-.09c-.18 0-.32.15-.62.44-1.17 1.12-2.73 2.55-4.66 4.31-4.17 3.87-7.57 5.81-10.21 5.81-1.23 0-1.85-.73-1.85-2.2 0-2.64 1.91-5.69 5.72-9.15 4.11-3.75 8.12-5.63 12.06-5.63 1.11 0 2.05.23 2.82.7l1.85-2.55c.41-.53.82-.79 1.23-.79q1.14 0 1.14 1.23c0 .41-.15.82-.44 1.23-2.76 4.11-6.37 10.62-10.82 19.54 2.99-1.88 5.72-3.46 8.18-4.75 2.93-1.7 4.84-2.9 5.72-3.61.18-.18.35-.26.53-.26s.26.12.26.35m-19.36 13.02c-17.89 12.67-26.84 25.2-26.84 37.58 0 1.52.5 2.29 1.5 2.29 3.75 0 12.2-13.29 25.34-39.86Zm11.09-22.35c0-.23-.26-.35-.79-.35q-4.755 0-10.38 4.53c-3.75 3.02-5.63 5.71-5.63 8.05 0 .7.32 1.06.97 1.06 2.41 0 7.54-4.19 15.4-12.58.29-.41.44-.65.44-.7Z" class="st0"/><path d="M415.09 142.13q0 1.05-5.46 4.05c-3.81 2.11-6.54 3.17-8.18 3.17-3.05 0-4.58-1.61-4.58-4.84 0-.88.47-1.88 1.41-2.99q0-.09-.09-.09c.06 0-1.53 1.22-4.75 3.65-3.23 2.44-5.54 3.65-6.95 3.65s-2.02-.56-2.02-1.67q0-4.05 6.78-9.42c4.28-3.46 7.63-5.19 10.03-5.19.35.06.75.25 1.19.57q.66.48.66.75 0 .09-.09.18c-3.29 0-7.48 2.55-12.58 7.66q-2.46 2.46-2.46 4.14c0 .41.2.62.62.62 1.29 0 3.75-1.5 7.39-4.49 2.93-2.46 5.02-4.43 6.25-5.9.59-.7 1-1.06 1.23-1.06.59 0 .88.41.88 1.23 0 .29-.38.97-1.14 2.02q-3.78 5.19-3.78 6.6 0 2.46 2.73 2.46c2.99 0 7.04-1.73 12.14-5.19.18-.18.35-.26.53-.26s.26.12.26.35ZM36.21 98.53c-.06.15-.14.21-.24.2s-.13-.11-.07-.29c.15-.59.22-1.16.22-1.72 0-1.35-.32-2.72-.97-4.11q-.975-2.085-2.55-3.45c-1.06-.91-2.17-1.36-3.34-1.36q-5.19 0-5.19 5.94c0 2.17.5 4.19 1.5 6.05s2.29 3.34 3.89 4.42c1.6 1.09 3.22 1.63 4.86 1.63 2.11 0 3.72-.67 4.84-2.02.12-.12.2-.14.26-.07q.09.105 0 .24c-2.32 2.9-5.38 4.36-9.2 4.36-1.88 0-3.61-.43-5.19-1.28q-2.37-1.275-3.81-3.63c-.95-1.57-1.43-3.38-1.43-5.43s.51-3.84 1.52-5.54q1.515-2.55 4.11-4.05c1.73-1 3.61-1.5 5.63-1.5q2.115 0 3.96.57c1.23.38 2.18.87 2.84 1.47s.92 1.2.77 1.78l-2.42 7.79Zm29.75 9.02c0 .12-.07.18-.22.18-.44-.03-1.35-.04-2.73-.04h-5.23c-1.38 0-2.29.01-2.73.04-.15 0-.22-.06-.22-.18s.07-.18.22-.18c.97 0 1.68-.32 2.13-.97s.68-1.75.68-3.3v-5.63c-.94.97-2.06 1.72-3.37 2.24-1.31.53-2.68.79-4.11.79-2.14 0-3.9-.54-5.28-1.61s-2.07-2.82-2.07-5.26v-1.45c0-1.55-.23-2.65-.68-3.3-.46-.65-1.17-.97-2.13-.97-.15 0-.22-.06-.22-.18s.07-.18.22-.18l2.73.04h5.24l2.73-.04c.15 0 .22.06.22.18s-.07.18-.22.18c-.97 0-1.68.32-2.13.97-.46.65-.68 1.75-.68 3.3v2.02c0 1.85.42 3.18 1.28 3.98.85.81 1.88 1.21 3.08 1.21q1.41 0 2.79-.66c1.38-.66 1.8-1.1 2.62-1.98v-4.58c0-1.55-.23-2.65-.68-3.3-.46-.65-1.17-.97-2.13-.97-.15 0-.22-.06-.22-.18s.07-.18.22-.18l2.73.04h5.23l2.73-.04c.15 0 .22.06.22.18s-.07.18-.22.18c-.97 0-1.68.32-2.13.97-.46.65-.68 1.75-.68 3.3v10.91c0 1.56.23 2.66.68 3.3.45.65 1.17.97 2.13.97.15 0 .22.06.22.18Zm24.59-7.61c.09 0 .13.07.13.22 0 2.23-.48 4.14-1.43 5.72s-2.19 2.38-3.72 2.38c-1.12 0-2.05-.37-2.82-1.12s-1.19-1.87-1.28-3.37q-1.05 2.205-2.79 3.39c-1.74 1.185-2.43 1.19-3.81 1.19-2.32 0-4.03-.65-5.15-1.96-1.11-1.31-1.67-2.82-1.67-4.55s.77-3.06 2.31-4.09 3.47-1.54 5.79-1.54c.79 0 1.68.07 2.66.22s1.87.34 2.66.57v-1.94c0-4.52-1.96-6.78-5.9-6.78-1.61 0-2.99.53-4.11 1.58-1.13 1.06-1.69 2.64-1.69 4.75 0 .12-.03.21-.09.26q-.09.09-.18.09c-.12 0-.18-.12-.18-.35q0-2.46 1.23-4.2a7.77 7.77 0 0 1 3.17-2.62c1.29-.59 2.65-.88 4.09-.88 5.81 0 8.71 2.71 8.71 8.14v7.22c0 1.94.5 2.9 1.5 2.9s1.6-.43 1.89-1.3c.29-.86.47-2.1.53-3.72 0-.15.04-.22.13-.22Zm-9.1.66v-.26c-.32-1.06-.94-1.9-1.85-2.53s-1.91-.95-2.99-.95c-2.9 0-4.36 1.12-4.36 3.34 0 1.5.42 2.81 1.28 3.94.85 1.13 2.05 1.69 3.61 1.69 2.87 0 4.31-1.74 4.31-5.24Zm26.13-2.07c-.06.15-.14.21-.24.2s-.12-.11-.07-.29c.15-.59.22-1.16.22-1.72 0-1.35-.32-2.72-.97-4.11q-.975-2.085-2.55-3.45c-1.06-.91-2.17-1.36-3.34-1.36q-5.19 0-5.19 5.94c0 2.17.5 4.19 1.5 6.05s2.29 3.34 3.89 4.42c1.6 1.09 3.22 1.63 4.86 1.63 2.11 0 3.72-.67 4.84-2.02.12-.12.21-.14.26-.07q.09.105 0 .24c-2.32 2.9-5.38 4.36-9.2 4.36-1.88 0-3.61-.43-5.19-1.28q-2.37-1.275-3.81-3.63c-.95-1.57-1.43-3.38-1.43-5.43s.51-3.84 1.52-5.54q1.515-2.55 4.11-4.05c1.73-1 3.61-1.5 5.63-1.5q2.115 0 3.96.57c1.23.38 2.18.87 2.84 1.47s.92 1.2.77 1.78l-2.42 7.79Zm24.86-3.12q-.135 0-.18-.18c-1.09-4.08-2.29-6.35-3.61-6.82-.26-.21-1.29-.31-3.08-.31-.18 0-.32.1-.44.29s-.18.43-.18.73v13.99c0 1.56.23 2.66.68 3.3.45.65 1.17.97 2.13.97.15 0 .22.06.22.18s-.07.18-.22.18c-.44-.03-1.35-.04-2.73-.04h-5.24c-1.38 0-2.29.01-2.73.04-.15 0-.22-.06-.22-.18s.07-.18.22-.18c.97 0 1.68-.32 2.13-.97s.68-1.75.68-3.3V89.12c0-.29-.06-.54-.18-.73s-.26-.29-.44-.29c-1.79 0-2.82.1-3.08.31-1.32.47-2.52 2.74-3.61 6.82q-.045.18-.18.18c-.135 0-.12-.06-.09-.18.35-2.61.53-5 .53-7.17 0-.47.19-.7.57-.7.18 0 .68.06 1.52.18s2.49.18 4.95.18h5.06c2.38 0 4-.06 4.88-.18s1.42-.18 1.63-.18c.35 0 .53.24.53.7 0 2.17.18 4.56.53 7.17q.045.18-.09.18Zm24.24 12.14c0 .12-.07.18-.22.18-.47-.03-1.38-.04-2.73-.04h-5.24c-1.38 0-2.3.01-2.77.04-.15 0-.22-.06-.22-.18s.07-.18.22-.18c.97 0 1.69-.32 2.16-.97s.7-1.75.7-3.3V87.92h-8.93c-.12 2.38-.41 6.88-.88 13.51-.12 2.14-.45 3.84-.99 5.08-.54 1.25-1.49 1.87-2.84 1.87-1.58 0-2.38-.44-2.38-1.32 0-.18.01-.31.04-.4l1.06-4.18c.06-.15.13-.21.22-.2.09.02.13.1.13.24q.045 1.89.48 2.55c.29.44.78.66 1.45.66 1.47 0 2.3-1.44 2.51-4.31l.57-9.24.04-.88c0-1.2-.22-2.07-.66-2.6s-1.1-.79-1.98-.79c-.15 0-.22-.06-.22-.18s.07-.18.22-.18l2.73.04h14.56l2.73-.04c.15 0 .22.06.22.18s-.07.18-.22.18c-.97 0-1.68.32-2.13.97-.46.65-.68 1.75-.68 3.3v10.91c0 1.56.23 2.66.68 3.3.45.65 1.17.97 2.13.97.15 0 .22.06.22.18Zm28.78 0c0 .12-.07.18-.22.18-.44-.03-1.35-.04-2.73-.04h-5.24c-1.38 0-2.29.01-2.73.04-.15 0-.22-.06-.22-.18s.07-.18.22-.18c.97 0 1.68-.32 2.13-.97s.68-1.75.68-3.3V92.5l-10.52 10.56v.04c0 1.56.23 2.66.68 3.3.45.65 1.17.97 2.13.97.15 0 .22.06.22.18s-.07.18-.22.18c-.47-.03-1.38-.04-2.73-.04h-5.24c-1.38 0-2.3.01-2.77.04-.15 0-.22-.06-.22-.18s.07-.18.22-.18c.97 0 1.69-.32 2.16-.97s.7-1.75.7-3.3V92.23c0-1.55-.24-2.66-.7-3.32q-.705-.99-2.16-.99c-.15 0-.22-.06-.22-.18s.07-.18.22-.18c.94.06 1.86.09 2.77.09h5.24q1.32 0 2.73-.09c.15 0 .22.06.22.18s-.07.18-.22.18q-1.455 0-2.13.99c-.46.66-.68 1.77-.68 3.32v10.25l10.52-10.56c-.03-1.47-.27-2.5-.73-3.1s-1.15-.9-2.09-.9c-.15 0-.22-.06-.22-.18s.07-.18.22-.18q1.32.09 2.73.09h5.24q1.41 0 2.73-.09c.15 0 .22.06.22.18s-.07.18-.22.18q-1.455 0-2.13.99c-.46.66-.68 1.77-.68 3.32v10.87c0 1.56.23 2.66.68 3.3.45.65 1.17.97 2.13.97.15 0 .22.06.22.18Zm2.29.14c-.15 0-.22-.06-.22-.18s.07-.18.22-.18c1 .03 1.72-.28 2.18-.92.45-.65.68-1.75.68-3.3V92.24c0-1.55-.23-2.65-.68-3.3-.46-.64-1.17-.97-2.13-.97-.15 0-.22-.06-.22-.18s.07-.18.22-.18q1.32.09 2.73.09c3.7-.09 7.05-.13 10.08-.13 2.32 0 4.12.39 5.41 1.17s1.94 1.97 1.94 3.59c0 1.06-.45 2-1.34 2.84-.9.84-2 1.33-3.32 1.47 1.7.09 3.12.59 4.27 1.5 1.14.91 1.72 2.16 1.72 3.74 0 1.85-.73 3.3-2.18 4.36s-3.45 1.58-6.01 1.58l-10.56-.18-2.77.04Zm11.75-11.27c1.5-.18 2.57-.58 3.21-1.21s.97-1.61.97-2.93c0-1.44-.37-2.51-1.12-3.21s-1.69-1.07-2.84-1.1l-3.12-.13h-.13c-.29 0-.48.07-.57.22s-.13.41-.13.79v17.34q0 .795.24 1.08c.16.19.48.29.95.29l2.77-.04c1.5 0 2.66-.43 3.5-1.3.84-.86 1.25-2.15 1.25-3.85s-.37-3.06-1.12-3.98q-1.125-1.38-3.72-1.47l-1.5-.04c-.12 0-.18-.04-.18-.13s.04-.15.13-.18l1.41-.13Zm34.32 3.52c.09 0 .13.07.13.22 0 2.23-.48 4.14-1.43 5.72s-2.19 2.38-3.72 2.38c-1.12 0-2.05-.37-2.82-1.12s-1.19-1.87-1.28-3.37q-1.05 2.205-2.79 3.39c-1.74 1.185-2.43 1.19-3.81 1.19-2.32 0-4.03-.65-5.15-1.96-1.11-1.31-1.67-2.82-1.67-4.55s.77-3.06 2.31-4.09 3.47-1.54 5.79-1.54c.79 0 1.68.07 2.66.22s1.87.34 2.66.57v-1.94c0-4.52-1.96-6.78-5.9-6.78-1.61 0-2.99.53-4.11 1.58-1.13 1.06-1.69 2.64-1.69 4.75 0 .12-.03.21-.09.26q-.09.09-.18.09c-.12 0-.18-.12-.18-.35q0-2.46 1.23-4.2a7.77 7.77 0 0 1 3.17-2.62c1.29-.59 2.65-.88 4.09-.88 5.81 0 8.71 2.71 8.71 8.14v7.22c0 1.94.5 2.9 1.5 2.9s1.6-.43 1.89-1.3c.29-.86.47-2.1.53-3.72 0-.15.04-.22.13-.22Zm-9.11.66v-.26c-.32-1.06-.94-1.9-1.85-2.53s-1.91-.95-2.99-.95c-2.9 0-4.36 1.12-4.36 3.34 0 1.5.42 2.81 1.28 3.94.85 1.13 2.05 1.69 3.61 1.69 2.87 0 4.31-1.74 4.31-5.24Zm11.17 13.25c-.03-.09.03-.18.18-.26 2.35-1.09 3.52-2.57 3.52-4.44 0-.35-.15-.59-.44-.73s-.75-.24-1.36-.33c-.82-.12-1.44-.29-1.85-.51s-.62-.67-.62-1.34c0-.35.16-.73.48-1.12q.48-.6 1.32-.99c.56-.26 1.17-.4 1.85-.4 1.14 0 1.98.26 2.51.79s.79 1.2.79 2.02c0 1.09-.34 2.14-1.01 3.17s-1.49 1.91-2.44 2.66-1.84 1.25-2.66 1.52c-.15.06-.23.04-.26-.04Zm44.05-6.3c0 .12-.07.18-.22.18-.44-.03-1.35-.04-2.73-.04h-5.24c-1.38 0-2.29.01-2.73.04-.15 0-.22-.06-.22-.18s.07-.18.22-.18c.97 0 1.68-.32 2.13-.97s.68-1.75.68-3.3v-5.63c-.94.97-2.06 1.72-3.37 2.24-1.31.53-2.68.79-4.11.79-2.14 0-3.9-.54-5.28-1.61s-2.07-2.82-2.07-5.26v-1.45c0-1.55-.23-2.65-.68-3.3-.46-.65-1.17-.97-2.13-.97-.15 0-.22-.06-.22-.18s.07-.18.22-.18l2.73.04h5.24l2.73-.04c.15 0 .22.06.22.18s-.07.18-.22.18c-.97 0-1.68.32-2.13.97-.46.65-.68 1.75-.68 3.3v2.02c0 1.85.43 3.18 1.28 3.98.85.81 1.88 1.21 3.08 1.21q1.41 0 2.79-.66c1.38-.66 1.8-1.1 2.62-1.98v-4.58c0-1.55-.23-2.65-.68-3.3-.46-.65-1.17-.97-2.13-.97-.15 0-.22-.06-.22-.18s.07-.18.22-.18l2.73.04H277l2.73-.04c.15 0 .22.06.22.18s-.07.18-.22.18c-.97 0-1.68.32-2.13.97-.46.65-.68 1.75-.68 3.3v10.91c0 1.56.23 2.66.68 3.3.45.65 1.17.97 2.13.97.15 0 .22.06.22.18Zm22.26-12.14q-.135 0-.18-.18c-1.09-4.08-2.29-6.35-3.61-6.82-.26-.21-1.29-.31-3.08-.31-.18 0-.32.1-.44.29s-.18.43-.18.73v13.99c0 1.56.23 2.66.68 3.3.45.65 1.17.97 2.13.97.15 0 .22.06.22.18s-.07.18-.22.18c-.44-.03-1.35-.04-2.73-.04h-5.24c-1.38 0-2.29.01-2.73.04-.15 0-.22-.06-.22-.18s.07-.18.22-.18c.97 0 1.68-.32 2.13-.97s.68-1.75.68-3.3V89.12c0-.29-.06-.54-.18-.73s-.26-.29-.44-.29c-1.79 0-2.82.1-3.08.31-1.32.47-2.52 2.74-3.61 6.82q-.045.18-.18.18c-.135 0-.12-.06-.09-.18.35-2.61.53-5 .53-7.17 0-.47.19-.7.57-.7.18 0 .68.06 1.52.18s2.49.18 4.95.18h5.06c2.38 0 4-.06 4.88-.18s1.42-.18 1.63-.18c.35 0 .53.24.53.7 0 2.17.18 4.56.53 7.17q.045.18-.09.18Zm7.41 11.68a9.53 9.53 0 0 1-3.83-3.67c-.92-1.58-1.39-3.39-1.39-5.41s.53-3.92 1.58-5.61c1.06-1.69 2.5-3.01 4.33-3.98s3.85-1.45 6.05-1.45c2.05 0 3.91.43 5.57 1.3s2.96 2.08 3.89 3.63c.94 1.56 1.41 3.33 1.41 5.32s-.54 3.94-1.61 5.65c-1.07 1.72-2.54 3.07-4.4 4.05s-3.91 1.47-6.14 1.47c-2.02 0-3.85-.43-5.48-1.3Zm11.84-1.19c.95-.95 1.43-2.35 1.43-4.2s-.46-3.77-1.39-5.94q-1.38-3.255-3.48-5.52c-1.39-1.51-2.75-2.27-4.07-2.27q-2.46 0-3.87 1.41c-.94.94-1.41 2.35-1.41 4.22 0 1.76.45 3.73 1.36 5.92s2.06 4.03 3.45 5.54 2.74 2.27 4.03 2.27c1.67 0 2.98-.48 3.94-1.43Zm34.03-7.37c-.06.15-.14.21-.24.2s-.12-.11-.07-.29c.15-.59.22-1.16.22-1.72 0-1.35-.32-2.72-.97-4.11q-.975-2.085-2.55-3.45c-1.06-.91-2.17-1.36-3.34-1.36q-5.19 0-5.19 5.94c0 2.17.5 4.19 1.5 6.05s2.29 3.34 3.89 4.42c1.6 1.09 3.22 1.63 4.86 1.63 2.11 0 3.72-.67 4.84-2.02.12-.12.21-.14.26-.07q.09.105 0 .24c-2.32 2.9-5.38 4.36-9.2 4.36-1.88 0-3.61-.43-5.19-1.28q-2.37-1.275-3.81-3.63c-.95-1.57-1.43-3.38-1.43-5.43s.51-3.84 1.52-5.54q1.515-2.55 4.11-4.05c1.73-1 3.61-1.5 5.63-1.5q2.115 0 3.96.57c1.23.38 2.18.87 2.84 1.47s.92 1.2.77 1.78l-2.42 7.79Zm28.73 9.09c0 .1-.07.15-.22.15q-1.23-.09-6.03-.09c-.79 0-1.36-.15-1.69-.44-.34-.29-.56-.66-.68-1.1l-1.36-3.83c-.44-1.29-.87-2.28-1.28-2.97a3.85 3.85 0 0 0-1.61-1.52c-.66-.32-1.55-.48-2.66-.48h-.4v5.76c0 1.56.23 2.66.68 3.3.45.65 1.17.97 2.13.97.15 0 .22.06.22.18s-.07.18-.22.18c-.44-.03-1.35-.04-2.73-.04h-5.24c-1.38 0-2.3.01-2.77.04-.15 0-.22-.06-.22-.18s.07-.18.22-.18c.97 0 1.69-.32 2.16-.97s.7-1.75.7-3.3V92.23c0-1.55-.24-2.65-.7-3.3-.47-.64-1.19-.97-2.16-.97-.15 0-.22-.06-.22-.18s.07-.18.22-.18l2.77.04h5.24l2.73-.04c.15 0 .22.06.22.18s-.07.18-.22.18c-.97 0-1.68.32-2.13.97-.46.65-.68 1.75-.68 3.3v4.84h.4c2.08 0 3.67-.33 4.75-.99s2.07-1.8 2.95-3.41l.44-.84c.5-.91.75-1.69.75-2.33 0-1.06-.7-1.58-2.11-1.58-.15 0-.22-.06-.22-.18s.07-.18.22-.18l2.73.04h1.06l2.73-.04c.15 0 .22.06.22.18s-.07.18-.22.18c-.91 0-1.66.27-2.24.81-.59.54-1.32 1.55-2.2 3.01l-.66 1.14c-.73 1.23-1.52 2.18-2.35 2.84-.84.66-1.87 1.11-3.1 1.34 2.23.03 3.97.42 5.24 1.17 1.26.75 2.29 2.05 3.08 3.89l.66 1.58c.62 1.44 1.16 2.41 1.63 2.93.47.51 1.13.79 1.98.81.15 0 .22.05.22.15Zm23.68-7.68c.09 0 .13.07.13.22 0 2.23-.48 4.14-1.43 5.72s-2.19 2.38-3.72 2.38c-1.12 0-2.05-.37-2.82-1.12s-1.19-1.87-1.28-3.37q-1.05 2.205-2.79 3.39c-1.74 1.185-2.43 1.19-3.81 1.19-2.32 0-4.03-.65-5.15-1.96-1.11-1.31-1.67-2.82-1.67-4.55s.77-3.06 2.31-4.09 3.47-1.54 5.79-1.54c.79 0 1.68.07 2.66.22s1.87.34 2.66.57v-1.94c0-4.52-1.96-6.78-5.9-6.78-1.61 0-2.99.53-4.11 1.58-1.13 1.06-1.69 2.64-1.69 4.75 0 .12-.03.21-.09.26q-.09.09-.18.09c-.12 0-.18-.12-.18-.35q0-2.46 1.23-4.2a7.77 7.77 0 0 1 3.17-2.62c1.29-.59 2.65-.88 4.09-.88 5.81 0 8.71 2.71 8.71 8.14v7.22c0 1.94.5 2.9 1.5 2.9s1.6-.43 1.89-1.3c.29-.86.47-2.1.53-3.72 0-.15.04-.22.13-.22Zm-9.11.66v-.26c-.32-1.06-.94-1.9-1.85-2.53s-1.91-.95-2.99-.95c-2.9 0-4.36 1.12-4.36 3.34 0 1.5.42 2.81 1.28 3.94.85 1.13 2.05 1.69 3.61 1.69 2.87 0 4.31-1.74 4.31-5.24Zm23.03-12.36c1.36.88 2.05 2.05 2.05 3.52 0 1.26-.44 2.27-1.32 3.04-.88.76-2 1.23-3.34 1.41 1.67.09 3.09.62 4.27 1.61 1.17.98 1.76 2.27 1.76 3.85 0 2.05-.79 3.68-2.38 4.88s-3.73 1.8-6.42 1.8c-3.67 0-6.45-1.47-8.36-4.4-.06-.12-.05-.2.02-.24s.14-.02.2.07c1 1.53 2.87 2.29 5.63 2.29 2.05 0 3.61-.37 4.66-1.1 1.06-.73 1.58-2.08 1.58-4.05 0-1.5-.37-2.6-1.1-3.3s-1.98-1.07-3.74-1.1l-1.5-.09c-.12 0-.18-.04-.18-.13s.04-.13.13-.13l1.41-.13c1.61-.18 2.76-.6 3.45-1.28.69-.67 1.03-1.77 1.03-3.3 0-2.55-1.38-3.83-4.14-3.83-1.76 0-3.18.64-4.27 1.91-1.09 1.28-1.97 3.22-2.64 5.83-.03.12-.09.16-.2.13-.1-.03-.14-.1-.11-.22l.75-4.36c.12-.64.47-1.28 1.06-1.89.59-.62 1.41-1.12 2.46-1.52 1.06-.4 2.29-.59 3.7-.59q3.48 0 5.52 1.32Zm27.96 11.7c.09 0 .13.07.13.22 0 2.23-.48 4.14-1.43 5.72s-2.19 2.38-3.72 2.38c-1.12 0-2.05-.37-2.82-1.12s-1.19-1.87-1.28-3.37q-1.05 2.205-2.79 3.39c-1.74 1.185-2.43 1.19-3.81 1.19-2.32 0-4.03-.65-5.15-1.96-1.11-1.31-1.67-2.82-1.67-4.55s.77-3.06 2.31-4.09 3.47-1.54 5.79-1.54c.79 0 1.68.07 2.66.22s1.87.34 2.66.57v-1.94c0-4.52-1.96-6.78-5.9-6.78-1.61 0-2.99.53-4.11 1.58-1.13 1.06-1.69 2.64-1.69 4.75 0 .12-.03.21-.09.26q-.09.09-.18.09c-.12 0-.18-.12-.18-.35q0-2.46 1.23-4.2a7.77 7.77 0 0 1 3.17-2.62c1.29-.59 2.65-.88 4.09-.88 5.81 0 8.71 2.71 8.71 8.14v7.22c0 1.94.5 2.9 1.5 2.9s1.6-.43 1.89-1.3c.29-.86.47-2.1.53-3.72 0-.15.04-.22.13-.22Zm-9.1.66v-.26c-.32-1.06-.94-1.9-1.85-2.53s-1.91-.95-2.99-.95c-2.9 0-4.36 1.12-4.36 3.34 0 1.5.42 2.81 1.28 3.94.85 1.13 2.05 1.69 3.61 1.69 2.87 0 4.31-1.74 4.31-5.24Zm33.26 6.95c0 .12-.07.18-.22.18-.47-.03-1.38-.04-2.73-.04h-5.24c-1.38 0-2.3.01-2.77.04-.15 0-.22-.06-.22-.18s.07-.18.22-.18c.97 0 1.69-.32 2.16-.97s.7-1.75.7-3.3V87.92h-8.93c-.12 2.38-.41 6.88-.88 13.51-.12 2.14-.45 3.84-.99 5.08-.54 1.25-1.49 1.87-2.84 1.87-1.58 0-2.38-.44-2.38-1.32 0-.18.01-.31.04-.4l1.06-4.18c.06-.15.13-.21.22-.2.09.02.13.1.13.24q.045 1.89.48 2.55c.29.44.78.66 1.45.66 1.47 0 2.3-1.44 2.51-4.31l.57-9.24.04-.88c0-1.2-.22-2.07-.66-2.6s-1.1-.79-1.98-.79c-.15 0-.22-.06-.22-.18s.07-.18.22-.18l2.73.04h14.56l2.73-.04c.15 0 .22.06.22.18s-.07.18-.22.18c-.97 0-1.68.32-2.13.97-.46.65-.68 1.75-.68 3.3v10.91c0 1.56.23 2.66.68 3.3.45.65 1.17.97 2.13.97.15 0 .22.06.22.18Zm24.55-7.61c.09 0 .13.07.13.22 0 2.23-.48 4.14-1.43 5.72s-2.19 2.38-3.72 2.38c-1.12 0-2.05-.37-2.82-1.12s-1.19-1.87-1.28-3.37q-1.05 2.205-2.79 3.39c-1.74 1.185-2.43 1.19-3.81 1.19-2.32 0-4.03-.65-5.15-1.96-1.11-1.31-1.67-2.82-1.67-4.55s.77-3.06 2.31-4.09 3.47-1.54 5.79-1.54c.79 0 1.68.07 2.66.22s1.87.34 2.66.57v-1.94c0-4.52-1.96-6.78-5.9-6.78-1.61 0-2.99.53-4.11 1.58-1.13 1.06-1.69 2.64-1.69 4.75 0 .12-.03.21-.09.26q-.09.09-.18.09c-.12 0-.18-.12-.18-.35q0-2.46 1.23-4.2a7.77 7.77 0 0 1 3.17-2.62c1.29-.59 2.65-.88 4.09-.88 5.81 0 8.71 2.71 8.71 8.14v7.22c0 1.94.5 2.9 1.5 2.9s1.6-.43 1.89-1.3c.29-.86.47-2.1.53-3.72 0-.15.04-.22.13-.22Zm-9.11.66v-.26c-.32-1.06-.94-1.9-1.85-2.53s-1.91-.95-2.99-.95c-2.9 0-4.36 1.12-4.36 3.34 0 1.5.42 2.81 1.28 3.94.85 1.13 2.05 1.69 3.61 1.69 2.87 0 4.31-1.74 4.31-5.24Z" class="st0"/></g></g></svg>