<svg xmlns="http://www.w3.org/2000/svg" width="139" height="158" fill="none" viewBox="0 0 139 158"><g clip-path="url(#a)"><path fill="#681f2a" stroke="#f5cdcb" stroke-miterlimit="10" stroke-width="4" d="M128.242 67.22c.21-2.085.212-4.119.21-8.154-.011-2.988-.029-4.5-.241-6.451-.337-2.996-.544-4.683-1.564-6.686a14.7 14.7 0 0 0-3.558-4.381c-2.14-1.83-4.194-2.59-5.912-3.242-2.563-.974-4.536-1.225-8.358-1.697a63 63 0 0 0-9.194-.607c-3.215.026-5.214.033-7.922.567-4.413.837-5.898 2.043-7.646 1.089-.439-.23-.991-.684-2.755-4.462-1.283-2.718-2.008-4.72-2.327-5.48-1.328-3.385-3.084-5.751-6.527-10.5-3.442-4.75-4.962-5.848-6.03-6.484-.486-.307-1.395-.775-2.943-1.749-2.12-1.333-2.289-1.601-3.15-1.993-1.4-.612-2.609-.624-4.545-.603-2.006.037-3.985.245-5.92.692-2.885.593-4.876 1.29-7.79 2.303-2.915 1.013-4.375 1.535-6.15 2.576a30 30 0 0 0-3.694 2.575 31 31 0 0 0-3.245 2.906c-1.135 1.251-2.292 2.892-3.669 6.221a47.7 47.7 0 0 0-3.036 11.089c-.7 5.254-.692 10.57.088 15.798 1.696 11.734 4.042 16.99 6.555 27.432 3.698 15.469 7.04 39.45 9.621 46.989a68 68 0 0 0 2.594 6.329c.724 1.574 1.524 3.1 2.47 4.561a28.7 28.7 0 0 0 3.658 4.667c.858.981 1.838 1.86 2.946 2.603a11.2 11.2 0 0 0 4.177 1.799c1.952.344 3.47-.001 5.805-.62 1.81-.476 3.586-1.09 5.28-1.92 5.757-2.862 12.926-10.948 17.69-15.937 2.788-2.911 7.696-8.097 14.585-14.081 2.904-2.557 5.706-4.809 9.639-8.871a86 86 0 0 0 6.932-7.91c1.613-2.062 1.277-1.876 8.37-13.095 2.254-3.59 3.094-4.842 3.904-7.119 1.109-3.16 1.42-5.977 1.652-8.155Z"/><path fill="#f5cdcb" d="M125.635 69.91c-2.461-2.002-1.989-6.684 1.123-7.849 1.721-.66 1.251-3.062-.571-3.114-1.334-.04-2.315-1.345-2.351-2.632-.031-1.45.917-2.745 2.022-3.577 1.418-1.056.476-3.402-1.341-2.895-2.418.698-3.793-2.336-1.709-3.733 1.46-.949.37-3.656-1.341-2.896-3.152 1.484-7.114-.102-8.173-3.524-.368-1.264-2.334-1.546-2.919-.268-1.672 3.623-6.306 3.557-7.995.026-.779-1.62-3.556-.347-2.891 1.346.794 1.984-1.838 2.765-3.3 2.565-.73-.1-5.148-1.265-4.87-2.35.515-1.982-2.599-2.688-3.114-.705-.828 3.224-5.671 2.487-5.226-.922.158-1.276-.798-2.116-2.032-1.87-2.739.527-4.567-2.675-2.87-4.817.957-1.194-.045-3.126-1.638-2.602-1.169.392-2.433-.387-2.83-1.526-.489-1.456.253-2.994 1.214-4.055 1.134-1.252-.119-2.947-1.638-2.602-2.305.494-4.877-2.319-4.035-4.588.424-1.15-.434-2.854-1.878-2.263-1.62.65-3.73 1.288-5.37.293-.895-.531-1.59-1.804-1.162-2.822.188-.253.345-.512.502-.772.88-1.572-1.395-3.236-2.558-1.86a5.4 5.4 0 0 0-.593.883c-1.749 2.228-5.298 1.85-6.39-.988-.5-1.261-2.241-1.525-2.919-.268-.625 1.17-1.594 2.559-2.998 2.83-.819.144-2.302-.39-2.138-1.402.265-2.04-2.85-2.745-3.115-.705-.011.194-.053.38-.026.551-.802.212-1.46.949-1.104 1.98.588 1.741-1.252 3.358-2.898 2.821-1.951-.639-2.627 2.489-.707 3.12 2.372.8.826 4.879-.052 6.156-.722 1.017-2.296 2.038-3.636 2.03-.66-1.134-1.633-2.043-2.86-2.55-1.283-.554-2.812.412-2.347 1.83.44 1.378 1.41 2.45 2.601 3.114.271 1.407-.532 2.93-2.473 3.114-1.47.127-1.9 1.735-1.017 2.755 1.598 1.904 3.521 4.11 3.825 6.673.2 1.718-.598 4.227-2.535 4.543-1.297.23-2.1 1.754-1.017 2.754 2.507 2.372 2.651 6.505.343 9.033-.529.602-.62 1.73.08 2.25 2.237 1.687 3.426 4.679 2.354 7.388-.337.908-.086 2.113 1.05 2.305 2.207.369 3.431 2.483 3.508 4.6.113 2.682-1.25 5.227-2.462 7.544-.483.973.06 2.048 1.05 2.305 1.691.481 2.973 2.05 2.965 3.82-.003 2.034-.498 3.496.612 5.388.925 1.554 1.806 2.87 2.04 4.726.244 1.958-.149 3.837-1.057 5.534-.618 1.14.29 2.33 1.493 2.372 1.627.041 2.558 1.859 2.628 3.286.088 1.922-.91 3.73-1.78 5.402-.626 1.171.304 2.267 1.492 2.372 1.257.088 1.734 1.738 1.664 2.772-.08 1.36-.77 2.679-1.341 3.895-.668 1.358.543 2.518 1.878 2.262 1.944-.346 3.014 2.159 1.467 3.351-1.241.998-.727 2.919.932 2.966 3.093.078 5.879 3.104 5.528 6.239-.17 1.47 1.57 2.75 2.72 1.436 2.45-2.725 6.108.498 8.006 2.24.972.91 2.808.177 2.669-1.232-.297-3.315 2.673-6.742 5.947-4.426 1.47 1.022 2.689-1.031 2.12-2.275-2.258-4.776 2.584-10.108 7.56-8.227 1.415.551 2.99-.766 2.12-2.275-1.945-3.262 1.452-6.986 4.874-5.325 1.324.661 3.125-.932 2.12-2.275-1.412-1.862-1.41-4.617.32-6.324 1.858-1.843 4.76-1.645 6.78-.301 1.454.952 2.783-1.01 2.12-2.275-.856-1.572.531-3.357 1.903-4.063 1.67-.869 3.707-.899 5.557-.972 1.517-.05 2.134-2.338.678-2.995-1.541-.71-1.064-2.964.032-3.897 1.711-1.482 4.443-1.257 6.514-1.148 1.163.067 1.95-1.527 1.279-2.466-2.985-4.022 3.302-7.06 6.144-8.187.899-.354 1.517-1.493.87-2.394-2.183-3.086-.409-8.457 3.512-9.144 1.24.019 2.252-1.556 1.061-2.515m-8.139 11.933c-2.325 1.015-4.607 2.27-6.016 4.443-1.005 1.544-1.474 3.471-1.157 5.249-2.834.08-5.816.814-7.31 3.362-.89 1.472-1.12 3.355-.629 4.943-2.024.263-3.994.866-5.49 2.266-1.162 1.081-1.906 2.487-2.082 3.989-2.765-.659-5.803.03-7.88 2.118-1.834 1.881-2.526 4.644-2.021 7.186-1.812.048-3.602.725-4.935 2.129-1.424 1.515-1.953 3.56-1.716 5.549-2.684-.149-5.407.743-7.322 2.835-1.83 2.013-2.556 4.637-2.29 7.223a6.65 6.65 0 0 0-4.416 1.132c-1.435.987-2.394 2.475-2.855 4.076-1.26-.941-2.656-1.717-4.235-1.976-1.173-.167-2.334-.102-3.395.248-.7-2.98-2.885-5.476-5.79-6.528.5-1.199.548-2.565-.07-3.886-.634-1.391-1.777-2.273-3.095-2.67.645-1.691 1.055-3.5.537-5.258-.427-1.441-1.288-2.555-2.473-3.25 1.043-2.29 1.771-4.782 1.02-7.248-.542-1.796-1.751-3.251-3.387-3.982 1.327-3.833.559-7.812-1.663-11.3-.747-1.186-.535-2.122-.4-3.437a6.96 6.96 0 0 0-.58-3.51 7.27 7.27 0 0 0-2.985-3.3c1.357-2.81 2.507-5.862 1.88-9.022-.488-2.472-2.009-4.72-4.262-5.755.56-3.055-.26-6.226-2.432-8.49 1.992-3.156 1.956-7.33-.018-10.468 1.848-1.221 2.949-3.334 3.098-5.727.204-3.07-1.38-5.758-3.237-8.114 1.57-.858 2.73-2.367 2.992-4.243.042-.187.046-.35.05-.513 2.066-.156 3.907-1.346 5.165-2.996 1.77-2.322 2.75-6.07 1.553-8.735a5.88 5.88 0 0 0 2.92-3.636 5.3 5.3 0 0 0 2.226.866c2.16.292 4.019-.829 5.387-2.388 1.968 2.151 5.035 2.78 7.623 1.76a6 6 0 0 0 1.376 2.312c1.806 1.853 4.407 2.081 6.844 1.584.247 2.811 2.276 5.272 4.975 6.08-.753 1.732-.904 3.699-.029 5.472.745 1.48 2.078 2.537 3.566 2.907-.806 3.557 1.689 7.14 5.477 7.473.384 2.35 2.017 4.394 4.516 4.927 1.906.4 3.797-.288 5.102-1.567 1.863 1.603 5.043 2.455 6.913 2.583 2.095.147 4.396-.906 5.599-2.602 2.856 1.992 6.948 1.706 9.498-.735 1.66 2.213 4.317 3.636 7.071 3.767-.196 1.006-.117 2.106.346 3.097a4.9 4.9 0 0 0 2.666 2.539c-.838 1.385-1.26 2.962-.953 4.639.281 1.507 1.075 2.77 2.194 3.613-2.27 2.504-2.818 6.513-1.12 9.424-3.942 2.223-6.047 7.323-4.351 11.545"/><path fill="#f5cdcb" d="m71.029 62.19-5.98 5.579q-.864.805-1.786 1.056a2.96 2.96 0 0 1-1.784-.042 3.9 3.9 0 0 1-1.303-.77l.993-1.353q.463.336.808.452.369.126.723.053.358-.084.734-.383l.107-.073-1.254-7.48 2.13.722.721 5.405 3.933-3.829zm5.077 8.529-.923-.313-.852 2.512-1.896-.643.851-2.512-.923-.312-2.255 2.036-2.265-.768 3.24-2.718-.848-3.856 2.031.689.594 3.07.948.32.871-2.573 1.897.642-.872 2.574.936.317 2.349-2.073 2.031.688-3.017 2.547.933 4.132-2.277-.772zm11.178 2.922q-.013.037-.213.504l-5.01-1.697q-.075.66.31 1.19.384.527 1.135.782.517.175.961.16.46-.021.918-.237l.647 1.454q-1.299.754-3.097.145-1.12-.38-1.836-1.102a3.43 3.43 0 0 1-.917-1.67q-.205-.934.129-1.919.33-.973 1.048-1.594.735-.63 1.68-.79a3.9 3.9 0 0 1 1.96.17 3.9 3.9 0 0 1 1.62 1.016q.646.685.822 1.624.193.93-.157 1.964m-2.764-3.146q-.652-.221-1.221-.002t-.884.826l3.263 1.105q.114-.66-.204-1.18-.314-.533-.954-.75M51.324 80.27q1.036.79.636 1.972-.304.9-1.149 1.162-.844.264-2.186-.191l-3.534-1.198 2.244-6.624 3.386 1.147q1.244.422 1.791 1.115.552.681.277 1.494-.168.492-.555.786-.372.285-.91.337m-3.15-1.561 1.453.492q1.01.342 1.252-.372.236-.702-.772-1.044l-1.453-.492zm.733 3.144q1.058.36 1.305-.367.13-.382-.059-.638-.183-.269-.713-.447l-1.65-.56-.496 1.466zm16.162-.454-2.244 6.624-1.921-.65 1.71-5.049-2.758-.934-1.71 5.048-1.909-.646 2.244-6.625zm8.478 2.872-5.374 6.017q-.843.99-1.68 1.23-.822.242-1.77-.08a3.6 3.6 0 0 1-.968-.505q-.45-.331-.675-.723l1.165-1.13a1.76 1.76 0 0 0 .941.787q.395.133.707.02.31-.102.656-.478l.046-.053-.608-7.646 1.982.672.337 5.124 3.394-3.86zm6.018 3.796-2.24-.76-1.711 5.049-1.909-.647 1.71-5.048-2.24-.759.534-1.576 6.39 2.165zm1.558-1.23 1.908.647-1.335 3.94 4.561-2.847 1.76.597-2.243 6.624-1.909-.647 1.335-3.94-4.548 2.852-1.773-.601zm9.134.872 2.29.776-2.288 5.497-1.527-.517zm-1.808 9.105a1.27 1.27 0 0 1-.742-.608 1.15 1.15 0 0 1-.06-.913q.157-.468.594-.663.441-.208.959-.032.516.176.74.608.23.42.07.888-.157.468-.616.683-.441.208-.945.037"/></g><defs><clipPath id="a"><path fill="#fff" d="m30.05 0 108.257 24.527-30.05 132.638L0 132.638z"/></clipPath></defs></svg>