<svg xmlns="http://www.w3.org/2000/svg" width="134" height="154" fill="none" viewBox="0 0 134 154"><g clip-path="url(#a)"><path fill="#681f2a" stroke="#f5cdcb" stroke-miterlimit="10" stroke-width="4" d="M116.71 43.213c-.626-2-1.423-3.87-3.012-7.58-1.184-2.742-1.795-4.127-2.757-5.837-1.487-2.622-2.341-4.092-4.066-5.532a14.7 14.7 0 0 0-4.994-2.63c-2.686-.842-4.874-.733-6.71-.657-2.74.111-4.653.657-8.353 1.725a63 63 0 0 0-8.692 3.056c-2.946 1.288-4.781 2.08-7.06 3.636-3.73 2.505-4.621 4.197-6.604 4.007-.494-.04-1.18-.24-4.287-3.02-2.248-1.995-3.702-3.55-4.294-4.125-2.552-2.59-5.097-4.075-10.129-7.088s-6.861-3.427-8.093-3.591c-.568-.091-1.588-.165-3.394-.452-2.474-.392-2.734-.572-3.68-.594-1.528-.013-2.644.452-4.416 1.232-1.83.823-3.568 1.792-5.171 2.964-2.42 1.68-3.977 3.103-6.258 5.18s-3.42 3.13-4.642 4.786a30 30 0 0 0-2.385 3.82 31 31 0 0 0-1.841 3.947c-.552 1.597-.971 3.56-.928 7.163.058 3.86.593 7.664 1.567 11.389 1.423 5.106 3.52 9.99 6.292 14.492 6.172 10.122 10.395 14.032 16.81 22.647 9.482 12.769 21.982 33.506 27.32 39.424a68 68 0 0 0 4.872 4.799c1.284 1.163 2.62 2.252 4.064 3.223a28.7 28.7 0 0 0 5.198 2.854c1.175.565 2.42.987 3.732 1.235 1.486.313 3.046.32 4.547.012 1.93-.451 3.192-1.365 5.094-2.852 1.478-1.149 2.87-2.412 4.101-3.841 4.168-4.895 7.581-15.147 10.001-21.608 1.42-3.773 3.893-10.471 7.875-18.681 1.665-3.493 3.357-6.665 5.376-11.946a86 86 0 0 0 3.265-9.998c.673-2.53.436-2.226 2.548-15.33.661-4.187.942-5.67.792-8.082-.223-3.342-1.044-6.053-1.688-8.147Z"/><path fill="#f5cdcb" d="M115.371 46.71c-3.049-.872-4.457-5.362-2.052-7.657 1.323-1.283-.055-3.307-1.75-2.639-1.242.488-2.657-.326-3.196-1.496-.599-1.321-.236-2.884.453-4.084.889-1.529-.9-3.315-2.372-2.135-1.948 1.593-4.405-.656-3.038-2.76.969-1.447-1.097-3.507-2.371-2.136-2.315 2.604-6.582 2.703-8.9-.027-.837-1.018-2.755-.504-2.79.9-.113 3.99-4.4 5.75-7.341 3.167-1.353-1.183-3.406 1.08-2.13 2.375 1.51 1.512-.603 3.265-2.025 3.656-.71.195-5.231.86-5.401-.247-.307-2.025-3.448-1.45-3.141.576.505 3.29-4.237 4.516-5.168 1.207-.357-1.236-1.566-1.632-2.604-.922-2.311 1.562-5.251-.664-4.533-3.3.412-1.474-1.27-2.857-2.528-1.748-.921.819-2.39.6-3.203-.292-1.021-1.146-.944-2.852-.478-4.206.552-1.597-1.267-2.662-2.528-1.748-1.926 1.361-5.396-.215-5.514-2.633-.062-1.224-1.521-2.453-2.616-1.342-1.235 1.235-2.923 2.65-4.823 2.38-1.032-.136-2.17-1.033-2.178-2.138.074-.306.117-.606.159-.907.191-1.791-2.555-2.427-3.083-.704a5.3 5.3 0 0 0-.198 1.045c-.733 2.736-4.144 3.784-6.265 1.603-.955-.963-2.66-.52-2.789.901-.115 1.322-.46 2.98-1.645 3.782-.696.453-2.27.546-2.517-.45-.557-1.98-3.698-1.404-3.14.576.065.183.1.372.191.518-.653.51-.968 1.446-.236 2.255 1.225 1.369.17 3.579-1.556 3.732-2.045.18-1.437 3.32.577 3.147 2.496-.197 2.677 4.16 2.372 5.68-.264 1.22-1.31 2.777-2.546 3.296-1.052-.783-2.304-1.236-3.632-1.22-1.397-.005-2.423 1.484-1.438 2.605.947 1.095 2.26 1.7 3.616 1.842.802 1.186.662 2.903-1.05 3.835-1.302.694-1.065 2.342.147 2.932 2.219 1.123 4.855 2.396 6.14 4.632.86 1.502 1.113 4.122-.545 5.174-1.1.722-1.24 2.44.148 2.933 3.239 1.195 4.996 4.94 3.867 8.17-.25.762.109 1.835.958 2.037 2.72.672 4.989 2.956 5.068 5.87.047.966.752 1.976 1.871 1.705 2.176-.528 4.132.935 5.035 2.85 1.158 2.423.906 5.3.702 7.906a1.612 1.612 0 0 0 1.87 1.706c1.745-.222 3.54.718 4.229 2.348.797 1.87.917 3.41 2.682 4.713 1.46 1.065 2.788 1.928 3.733 3.544.994 1.704 1.371 3.587 1.203 5.504-.12 1.29 1.183 2.027 2.305 1.594 1.513-.602 3.083.704 3.708 1.988.837 1.733.63 3.787.487 5.667-.115 1.323 1.171 1.965 2.305 1.595 1.19-.414 2.278.916 2.62 1.894.461 1.282.344 2.767.297 4.109-.08 1.511 1.49 2.101 2.616 1.342 1.652-1.083 3.62.8 2.667 2.504-.75 1.405.479 2.969 2.023 2.361 2.875-1.145 6.625.542 7.535 3.563.423 1.419 2.526 1.912 3.066.252 1.182-3.47 5.812-1.943 8.242-1.088 1.251.454 2.651-.941 1.97-2.182-1.576-2.931-.193-7.25 3.728-6.407 1.754.361 2.067-2.005 1.055-2.926-3.954-3.504-1.597-10.31 3.718-10.536 1.517-.05 2.448-1.88 1.055-2.925-3.072-2.235-1.412-6.995 2.388-6.813 1.477.087 2.507-2.086 1.055-2.925-2.03-1.157-3.112-3.691-2.193-5.941.985-2.425 3.731-3.383 6.117-2.942 1.711.304 2.161-2.022 1.054-2.925-1.404-1.11-.831-3.296.153-4.484 1.194-1.455 3.055-2.284 4.728-3.078 1.375-.642 1.043-2.988-.554-3.021-1.697-.047-2.143-2.307-1.503-3.595.991-2.036 3.592-2.903 5.538-3.617 1.097-.396 1.194-2.17.207-2.77-4.326-2.525.261-7.789 2.431-9.943.688-.678.808-1.97-.141-2.543-3.22-1.98-3.7-7.616-.365-9.788 1.147-.47 1.459-2.317-.013-2.73m-2.793 14.173c-1.739 1.847-3.344 3.898-3.785 6.45-.317 1.815.009 3.772 1 5.282-2.574 1.187-5.028 3.035-5.4 5.965-.24 1.703.289 3.525 1.365 4.791-1.758 1.038-3.332 2.367-4.158 4.242-.643 1.452-.774 3.037-.346 4.487-2.801.481-5.323 2.31-6.413 5.046-.947 2.45-.496 5.262.967 7.401-1.647.757-3.027 2.083-3.701 3.898-.714 1.952-.396 4.041.603 5.776-2.526.919-4.68 2.809-5.617 5.486-.893 2.57-.529 5.268.732 7.541a6.66 6.66 0 0 0-3.614 2.777c-.932 1.471-1.229 3.217-1.023 4.871-1.529-.371-3.117-.535-4.67-.153-1.145.307-2.187.824-3.026 1.563-1.815-2.465-4.805-3.901-7.89-3.726-.01-1.299-.504-2.575-1.59-3.547-1.13-1.029-2.528-1.391-3.896-1.238-.072-1.808-.406-3.633-1.574-5.045-.959-1.158-2.188-1.844-3.55-2.017.058-2.515-.252-5.093-1.912-7.065-1.205-1.438-2.89-2.301-4.68-2.33-.287-4.046-2.557-7.403-5.972-9.737-1.152-.797-1.325-1.741-1.719-3.002a6.96 6.96 0 0 0-1.913-3 7.27 7.27 0 0 0-4.042-1.862c.143-3.116 0-6.374-1.817-9.034-1.42-2.081-3.703-3.55-6.182-3.616-.685-3.03-2.686-5.622-5.573-6.85.59-3.686-1.084-7.51-4.132-9.618 1.22-1.85 1.401-4.225.597-6.485-1.018-2.903-3.532-4.751-6.165-6.188 1.105-1.406 1.58-3.25 1.082-5.077a2.5 2.5 0 0 0-.155-.492c1.838-.955 3.063-2.773 3.571-4.785.715-2.83.143-6.661-2.005-8.642a5.88 5.88 0 0 0 1.255-4.49c.774.15 1.582.132 2.387-.08 2.102-.58 3.37-2.342 4.015-4.314 2.656 1.205 5.722.578 7.701-1.378a6 6 0 0 0 2.174 1.586c2.39.993 4.87.18 6.916-1.235 1.332 2.488 4.165 3.953 6.964 3.635-.011 1.889.623 3.756 2.125 5.043 1.267 1.068 2.907 1.516 4.421 1.271.657 3.588 4.36 5.901 7.974 4.719 1.278 2.01 3.582 3.247 6.089 2.755 1.91-.383 3.379-1.758 4.076-3.447 2.343.742 5.602.275 7.372-.342 1.984-.689 3.686-2.562 4.125-4.594 3.409.71 7.06-1.163 8.445-4.41 2.396 1.383 5.398 1.646 7.982.685.215 1.001.72 1.982 1.535 2.711a4.9 4.9 0 0 0 3.45 1.287c-.226 1.603.005 3.219.948 4.64.85 1.275 2.077 2.124 3.437 2.46-1.103 3.195-.031 7.096 2.675 9.105-2.751 3.594-2.682 9.11.537 12.326"/><path fill="#f5cdcb" d="M54.805 66.015q.849.181 1.333.705t.547 1.34q.093 1.205-.775 1.95-.854.746-2.553.876l-4.471.347-.704-9.073 4.226-.327q1.58-.123 2.51.418.928.54 1.016 1.669.052.673-.245 1.218a2.35 2.35 0 0 1-.884.877m-4.245-.258 1.958-.151q.687-.053 1.015-.353.328-.312.286-.857-.041-.531-.426-.788-.372-.258-1.046-.206l-1.957.152zm2.599 3.58q1.477-.114 1.387-1.28-.087-1.128-1.565-1.014l-2.307.179.178 2.294zm8.555 1.006q-1.115.087-2.044-.298a3.56 3.56 0 0 1-1.487-1.175q-.555-.779-.636-1.816t.349-1.891q.442-.855 1.288-1.378.859-.536 1.973-.622 1.102-.085 1.955.318.864.39 1.306 1.215l-1.503.964q-.619-.916-1.642-.837-.79.06-1.269.62-.478.558-.409 1.453.07.894.628 1.372t1.35.417q1.035-.08 1.493-1.08l1.635.733a2.8 2.8 0 0 1-1.105 1.39q-.78.53-1.882.615m10.766-4.42q.003.039.003.547l-5.275.41q.194.637.753.97.561.336 1.352.274.543-.042.947-.23.414-.2.75-.58l1.166 1.084q-.897 1.203-2.79 1.35-1.179.091-2.122-.291a3.43 3.43 0 0 1-1.499-1.175q-.555-.78-.636-1.815a3.6 3.6 0 0 1 .337-1.878 3.4 3.4 0 0 1 1.235-1.387 3.9 3.9 0 0 1 1.87-.614 3.9 3.9 0 0 1 1.887.297q.863.375 1.395 1.17.542.78.627 1.868m-3.778-1.807q-.687.053-1.123.479-.437.425-.488 1.107l3.434-.267q-.154-.653-.651-1.005-.498-.366-1.172-.314m10.77-.6-3.577.278.412 5.314-2.009.155-.54-6.973 5.586-.433zm4.467 5.104q-1.101.086-2.018-.3a3.5 3.5 0 0 1-1.46-1.177q-.556-.779-.637-1.816-.08-1.035.349-1.891a3.4 3.4 0 0 1 1.262-1.376q.846-.535 1.947-.62 1.102-.086 2.007.314a3.4 3.4 0 0 1 1.459 1.164q.556.779.636 1.816.08 1.035-.349 1.891a3.5 3.5 0 0 1-1.261 1.389q-.833.521-1.935.606m-.129-1.659q.779-.06 1.23-.617.465-.57.396-1.452-.068-.88-.614-1.36-.534-.493-1.311-.433t-1.242.63q-.466.559-.397 1.44.068.88.615 1.373.546.48 1.323.42M54.256 88.975q-1.101.085-2.018-.3a3.5 3.5 0 0 1-1.46-1.177q-.556-.779-.636-1.816-.081-1.036.348-1.891a3.4 3.4 0 0 1 1.263-1.376q.845-.535 1.947-.62 1.101-.086 2.006.314a3.4 3.4 0 0 1 1.46 1.164q.555.779.636 1.816.08 1.035-.35 1.891a3.5 3.5 0 0 1-1.26 1.389q-.834.521-1.936.606m-.128-1.659q.777-.06 1.23-.617.464-.57.396-1.452-.069-.88-.614-1.36-.534-.495-1.312-.433-.777.06-1.242.63-.465.558-.397 1.44.068.88.615 1.373.546.48 1.324.42m12.92-1.106.245 3.163-1.88.145-.116-1.503-4.899.38.117 1.503-1.88.146-.245-3.163.285-.022q.648-.063.835-.834.188-.771.146-2.162l-.097-2.418 6.08-.471.411 5.314zm-5.554-2.346q.044 1.065-.034 1.75-.064.683-.374 1.058l2.942-.228-.283-3.655-2.281.177zm6.415-3.066 2.009-.156.21 2.722 3.034-.235-.212-2.722 2.022-.157.541 6.973-2.022.157-.202-2.605-3.033.235.202 2.605-2.009.156zm12.814 6.126q-1.102.084-2.018-.3a3.5 3.5 0 0 1-1.46-1.178q-.556-.779-.637-1.815t.349-1.892a3.4 3.4 0 0 1 1.262-1.376q.846-.534 1.947-.62 1.102-.085 2.006.314a3.4 3.4 0 0 1 1.46 1.165q.555.779.636 1.815t-.349 1.892a3.5 3.5 0 0 1-1.261 1.388q-.833.522-1.935.607m-.129-1.66q.779-.06 1.23-.616.465-.57.396-1.452-.068-.882-.614-1.36-.534-.495-1.311-.434-.779.06-1.242.631-.465.557-.397 1.439.067.881.615 1.374.546.48 1.323.418m4.334-7.898 2.41-.187.058 5.954-1.608.125zm1.916 9.083a1.27 1.27 0 0 1-.92-.268 1.15 1.15 0 0 1-.415-.815q-.038-.493.286-.844.324-.364.868-.406.545-.042.92.268.376.296.414.79.038.491-.297.87a1.22 1.22 0 0 1-.856.405"/></g><defs><clipPath id="a"><path fill="#fff" d="M0 20.004 109.183 0l24.51 133.773L24.51 153.778z"/></clipPath></defs></svg>