<svg xmlns="http://www.w3.org/2000/svg" width="139" height="158" fill="none" viewBox="0 0 139 158"><g clip-path="url(#a)"><path fill="#681f2a" stroke="#f5cdcb" stroke-miterlimit="10" stroke-width="4" d="M128.242 67.22c.21-2.085.212-4.119.21-8.154-.011-2.988-.029-4.5-.241-6.451-.337-2.996-.544-4.683-1.564-6.685a14.7 14.7 0 0 0-3.558-4.382c-2.14-1.83-4.194-2.59-5.912-3.242-2.563-.974-4.536-1.225-8.358-1.697a63 63 0 0 0-9.194-.607c-3.215.026-5.214.033-7.922.567-4.413.837-5.898 2.043-7.646 1.09-.439-.231-.991-.685-2.755-4.463-1.283-2.718-2.008-4.72-2.327-5.48-1.328-3.385-3.084-5.751-6.527-10.5-3.442-4.75-4.962-5.848-6.03-6.483-.486-.308-1.395-.776-2.943-1.75-2.12-1.333-2.289-1.601-3.15-1.993-1.4-.612-2.609-.624-4.545-.603-2.006.037-3.985.245-5.92.692-2.885.593-4.876 1.29-7.79 2.303-2.915 1.013-4.375 1.535-6.15 2.576a30 30 0 0 0-3.694 2.575 31 31 0 0 0-3.245 2.906c-1.135 1.252-2.292 2.892-3.669 6.221a47.7 47.7 0 0 0-3.036 11.089c-.7 5.254-.692 10.57.088 15.798 1.696 11.734 4.042 16.99 6.555 27.432 3.698 15.469 7.04 39.45 9.621 46.989a68 68 0 0 0 2.594 6.329c.724 1.574 1.524 3.1 2.47 4.561a28.7 28.7 0 0 0 3.658 4.667c.858.982 1.838 1.86 2.946 2.603a11.2 11.2 0 0 0 4.177 1.799c1.952.344 3.47-.001 5.805-.62 1.81-.476 3.586-1.09 5.28-1.92 5.757-2.862 12.926-10.948 17.69-15.937 2.788-2.911 7.696-8.097 14.585-14.081 2.904-2.557 5.706-4.809 9.639-8.871a86 86 0 0 0 6.932-7.91c1.613-2.062 1.277-1.875 8.37-13.095 2.254-3.59 3.094-4.842 3.904-7.119 1.109-3.16 1.42-5.977 1.652-8.155Z"/><path fill="#f5cdcb" d="M125.635 69.91c-2.461-2.002-1.989-6.684 1.123-7.849 1.721-.66 1.251-3.062-.571-3.114-1.334-.04-2.315-1.345-2.351-2.632-.031-1.45.917-2.745 2.022-3.577 1.418-1.057.476-3.402-1.341-2.895-2.418.698-3.793-2.336-1.709-3.733 1.46-.95.37-3.656-1.341-2.896-3.152 1.484-7.114-.103-8.173-3.524-.368-1.265-2.334-1.546-2.919-.268-1.672 3.623-6.306 3.557-7.995.026-.779-1.62-3.556-.347-2.891 1.346.794 1.984-1.838 2.765-3.3 2.565-.73-.1-5.148-1.265-4.87-2.35.515-1.982-2.599-2.688-3.114-.705-.828 3.224-5.671 2.487-5.226-.922.158-1.276-.798-2.116-2.032-1.87-2.739.527-4.567-2.676-2.87-4.817.957-1.194-.045-3.127-1.638-2.602-1.169.392-2.433-.387-2.83-1.527-.489-1.455.253-2.993 1.214-4.055 1.134-1.251-.119-2.946-1.638-2.601-2.305.494-4.877-2.319-4.035-4.588.424-1.15-.434-2.854-1.878-2.263-1.62.65-3.73 1.287-5.37.292-.895-.53-1.59-1.803-1.162-2.821.188-.253.345-.513.502-.772.88-1.572-1.395-3.236-2.558-1.86a5.3 5.3 0 0 0-.593.883c-1.749 2.228-5.298 1.85-6.39-.988-.5-1.262-2.241-1.525-2.919-.268-.625 1.17-1.594 2.558-2.998 2.83-.819.143-2.302-.39-2.138-1.402.265-2.04-2.85-2.745-3.115-.706-.011.194-.053.382-.026.552-.802.212-1.46.949-1.104 1.98.588 1.741-1.252 3.358-2.898 2.821-1.951-.639-2.627 2.488-.707 3.12 2.372.8.826 4.878-.052 6.155-.722 1.018-2.296 2.039-3.636 2.03-.66-1.133-1.633-2.042-2.86-2.55-1.283-.553-2.812.413-2.347 1.83.44 1.38 1.41 2.452 2.601 3.115.271 1.407-.532 2.93-2.473 3.114-1.47.126-1.9 1.735-1.017 2.755 1.598 1.904 3.521 4.11 3.825 6.672.2 1.719-.598 4.228-2.535 4.543-1.297.231-2.1 1.755-1.017 2.755 2.507 2.372 2.651 6.505.343 9.033-.529.602-.62 1.73.08 2.249 2.237 1.688 3.426 4.68 2.354 7.389-.337.908-.086 2.113 1.05 2.304 2.207.37 3.431 2.484 3.508 4.6.113 2.683-1.25 5.228-2.462 7.545-.483.973.06 2.047 1.05 2.304 1.691.482 2.973 2.052 2.965 3.821-.003 2.034-.498 3.496.612 5.388.925 1.554 1.806 2.869 2.04 4.726.244 1.958-.149 3.837-1.057 5.534-.618 1.139.29 2.329 1.493 2.372 1.627.041 2.558 1.859 2.628 3.285.088 1.923-.91 3.73-1.78 5.403-.626 1.171.304 2.267 1.492 2.372 1.257.088 1.734 1.738 1.664 2.772-.08 1.36-.77 2.679-1.341 3.895-.668 1.357.543 2.517 1.878 2.262 1.944-.346 3.014 2.159 1.467 3.351-1.241.998-.727 2.918.932 2.966 3.093.078 5.879 3.103 5.528 6.239-.17 1.47 1.57 2.75 2.72 1.436 2.45-2.725 6.108.498 8.006 2.24.972.909 2.808.177 2.669-1.232-.297-3.315 2.673-6.742 5.947-4.426 1.47 1.022 2.689-1.031 2.12-2.275-2.258-4.776 2.584-10.109 7.56-8.227 1.415.55 2.99-.766 2.12-2.275-1.945-3.262 1.452-6.986 4.874-5.325 1.324.661 3.125-.932 2.12-2.275-1.412-1.862-1.41-4.617.32-6.325 1.858-1.842 4.76-1.644 6.78-.3 1.454.952 2.783-1.01 2.12-2.276-.856-1.571.531-3.356 1.903-4.063 1.67-.868 3.707-.898 5.557-.971 1.517-.05 2.134-2.338.678-2.996-1.541-.71-1.064-2.963.032-3.896 1.711-1.482 4.443-1.257 6.514-1.148 1.163.066 1.95-1.527 1.279-2.466-2.985-4.023 3.302-7.06 6.144-8.187.899-.354 1.517-1.493.87-2.394-2.183-3.086-.409-8.458 3.512-9.144 1.24.019 2.252-1.556 1.061-2.515m-8.139 11.933c-2.325 1.014-4.607 2.269-6.016 4.443-1.005 1.543-1.474 3.47-1.157 5.249-2.834.08-5.816.814-7.31 3.362-.89 1.472-1.12 3.355-.629 4.942-2.024.263-3.994.867-5.49 2.266-1.162 1.082-1.906 2.488-2.082 3.99-2.765-.659-5.803.03-7.88 2.118-1.834 1.881-2.526 4.644-2.021 7.186-1.812.048-3.602.725-4.935 2.129-1.424 1.514-1.953 3.56-1.716 5.549-2.684-.149-5.407.743-7.322 2.835-1.83 2.012-2.556 4.636-2.29 7.222a6.66 6.66 0 0 0-4.416 1.132c-1.435.987-2.394 2.476-2.855 4.077-1.26-.941-2.656-1.717-4.235-1.976-1.173-.168-2.334-.103-3.395.247-.7-2.979-2.885-5.475-5.79-6.527.5-1.199.548-2.566-.07-3.886-.634-1.391-1.777-2.273-3.095-2.67.645-1.691 1.055-3.5.537-5.258-.427-1.442-1.288-2.555-2.473-3.25 1.043-2.29 1.771-4.782 1.02-7.248-.542-1.796-1.751-3.251-3.387-3.982 1.327-3.833.559-7.812-1.663-11.3-.747-1.187-.535-2.123-.4-3.437a6.96 6.96 0 0 0-.58-3.51 7.27 7.27 0 0 0-2.985-3.3c1.357-2.81 2.507-5.862 1.88-9.022-.488-2.473-2.009-4.72-4.262-5.755.56-3.055-.26-6.226-2.432-8.49 1.992-3.157 1.956-7.33-.018-10.468 1.848-1.221 2.949-3.334 3.098-5.727.204-3.07-1.38-5.758-3.237-8.114 1.57-.859 2.73-2.367 2.992-4.243a2.5 2.5 0 0 0 .05-.514c2.066-.155 3.907-1.345 5.165-2.995 1.77-2.322 2.75-6.07 1.553-8.735a5.88 5.88 0 0 0 2.92-3.636 5.3 5.3 0 0 0 2.226.865c2.16.293 4.019-.828 5.387-2.388 1.968 2.152 5.035 2.781 7.623 1.76a6 6 0 0 0 1.376 2.313c1.806 1.853 4.407 2.08 6.844 1.583.247 2.812 2.276 5.273 4.975 6.08-.753 1.733-.904 3.7-.029 5.473.745 1.48 2.078 2.537 3.566 2.907-.806 3.557 1.689 7.14 5.477 7.473.384 2.35 2.017 4.394 4.516 4.927 1.906.399 3.797-.288 5.102-1.567 1.863 1.603 5.043 2.455 6.913 2.583 2.095.147 4.396-.906 5.599-2.602 2.856 1.992 6.948 1.705 9.498-.735 1.66 2.213 4.317 3.635 7.071 3.767-.196 1.006-.117 2.106.346 3.096a4.9 4.9 0 0 0 2.666 2.54c-.838 1.385-1.26 2.962-.953 4.639.281 1.507 1.075 2.77 2.194 3.613-2.27 2.504-2.818 6.513-1.12 9.423-3.942 2.224-6.047 7.323-4.351 11.546"/><path fill="#f5cdcb" d="M61.038 65.29q.71.5.948 1.172.24.671-.023 1.447-.389 1.145-1.48 1.489-1.078.348-2.691-.198l-4.248-1.44 2.92-8.618 4.014 1.36q1.501.509 2.143 1.37.64.863.278 1.934-.216.64-.704 1.025-.482.37-1.157.459m-3.802-1.906 1.86.63q.652.22 1.072.075.424-.158.6-.675.17-.506-.082-.893-.24-.384-.881-.6l-1.86-.63zm.982 4.313q1.404.475 1.78-.633.362-1.072-1.041-1.546l-2.192-.743-.738 2.18zm7.471 4.288q-1.059-.359-1.762-1.078a3.56 3.56 0 0 1-.905-1.665q-.206-.934.129-1.92.333-.984 1.064-1.601a3.47 3.47 0 0 1 1.726-.76q1-.156 2.059.203 1.047.355 1.672 1.06.642.699.724 1.632l-1.761.295q-.21-1.086-1.181-1.415-.752-.255-1.41.07-.66.327-.948 1.176-.289.85.038 1.509.325.66 1.077.914.984.334 1.798-.407l1.215 1.318a2.8 2.8 0 0 1-1.562.843q-.926.18-1.973-.174m11.637.168q-.012.036-.212.504l-5.011-1.697q-.073.66.31 1.19.385.527 1.135.782.517.175.962.16.46-.022.917-.237l.647 1.454q-1.299.754-3.096.145-1.121-.38-1.837-1.102a3.43 3.43 0 0 1-.916-1.67q-.205-.934.128-1.919.33-.972 1.048-1.594.735-.63 1.681-.79a3.9 3.9 0 0 1 1.96.17 3.9 3.9 0 0 1 1.62 1.016q.645.686.822 1.623.192.93-.158 1.965m-2.764-3.146q-.653-.222-1.22-.002-.57.219-.884.826l3.263 1.105q.114-.66-.204-1.18-.315-.533-.955-.75m10.14 3.682-3.399-1.152-1.71 5.048-1.908-.646 2.244-6.624 5.307 1.798zm2.1 6.449q-1.047-.355-1.738-1.07a3.5 3.5 0 0 1-.88-1.656q-.204-.934.13-1.92.332-.984 1.064-1.602a3.4 3.4 0 0 1 1.701-.769q.987-.159 2.034.195 1.047.355 1.721 1.078.68.71.885 1.644t-.13 1.92-1.064 1.602a3.5 3.5 0 0 1-1.705.78q-.971.153-2.018-.202m.534-1.576q.739.25 1.374-.084.65-.342.934-1.18t-.03-1.492q-.296-.663-1.035-.914-.739-.25-1.39.092-.646.33-.93 1.167-.284.838.025 1.505.314.656 1.052.906m-34.049 9.226q-1.047-.354-1.738-1.069a3.5 3.5 0 0 1-.88-1.657q-.204-.934.129-1.919t1.064-1.602a3.4 3.4 0 0 1 1.702-.769q.987-.159 2.034.195 1.047.355 1.721 1.077.68.71.884 1.645.205.935-.128 1.92-.335.984-1.065 1.601a3.5 3.5 0 0 1-1.705.781q-.971.152-2.018-.203m.534-1.576q.738.251 1.374-.084.65-.341.934-1.179.285-.837-.03-1.492-.296-.663-1.035-.914-.739-.25-1.39.092-.647.33-.93 1.167-.285.837.025 1.505.314.655 1.052.905m12.315 4.063-1.018 3.004-1.785-.605.484-1.428-4.654-1.577-.484 1.428-1.786-.605 1.018-3.004.271.092q.62.195 1.096-.439.476-.635.983-1.931l.863-2.261 5.774 1.956-1.71 5.048zm-4.184-4.342q-.38.998-.72 1.596-.327.603-.76.827l2.795.947 1.176-3.473-2.166-.734zm7.103-.297 1.908.646-.875 2.586 2.88.976.877-2.585 1.92.65-2.244 6.624-1.92-.65.838-2.475-2.881-.976-.839 2.475-1.908-.647zm9.374 10.67q-1.046-.354-1.737-1.07a3.5 3.5 0 0 1-.88-1.656q-.205-.935.128-1.92.335-.984 1.065-1.602a3.4 3.4 0 0 1 1.701-.768q.989-.16 2.034.195 1.047.354 1.722 1.077.678.71.884 1.645.204.934-.129 1.919-.333.984-1.064 1.602a3.5 3.5 0 0 1-1.706.781q-.97.151-2.018-.203m.534-1.576q.739.25 1.374-.084.651-.342.935-1.18.284-.836-.03-1.492-.297-.663-1.036-.913-.739-.251-1.39.092-.646.33-.93 1.167t.025 1.505q.314.654 1.052.905"/></g><defs><clipPath id="a"><path fill="#fff" d="m30.05 0 108.257 24.527-30.05 132.638L0 132.638z"/></clipPath></defs></svg>