<svg xmlns="http://www.w3.org/2000/svg" width="139" height="158" fill="none" viewBox="0 0 139 158"><g clip-path="url(#a)"><path fill="#681f2a" stroke="#f5cdcb" stroke-miterlimit="10" stroke-width="4" d="M128.242 67.22c.21-2.085.212-4.118.21-8.154-.011-2.987-.029-4.5-.241-6.45-.337-2.996-.544-4.684-1.564-6.686a14.7 14.7 0 0 0-3.558-4.382c-2.14-1.83-4.194-2.59-5.912-3.242-2.563-.974-4.536-1.224-8.358-1.697a63 63 0 0 0-9.194-.606c-3.215.026-5.214.032-7.922.567-4.413.837-5.898 2.042-7.646 1.088-.439-.23-.991-.683-2.755-4.462-1.283-2.718-2.008-4.719-2.327-5.48-1.328-3.385-3.084-5.75-6.527-10.5-3.442-4.749-4.962-5.848-6.03-6.483-.486-.307-1.395-.776-2.943-1.75-2.12-1.333-2.289-1.6-3.15-1.992-1.4-.613-2.609-.624-4.545-.604-2.006.038-3.985.246-5.92.693-2.885.593-4.876 1.29-7.79 2.302-2.915 1.013-4.375 1.535-6.15 2.576a30 30 0 0 0-3.694 2.575 31 31 0 0 0-3.245 2.906c-1.135 1.252-2.292 2.892-3.669 6.221a47.7 47.7 0 0 0-3.036 11.089c-.7 5.254-.692 10.57.088 15.798 1.696 11.735 4.042 16.99 6.555 27.433 3.698 15.468 7.04 39.45 9.621 46.989a68 68 0 0 0 2.594 6.328c.724 1.575 1.524 3.101 2.47 4.562a28.7 28.7 0 0 0 3.658 4.666c.858.982 1.838 1.86 2.946 2.603a11.2 11.2 0 0 0 4.177 1.799c1.952.344 3.47-.001 5.805-.62 1.81-.475 3.586-1.09 5.28-1.92 5.757-2.862 12.926-10.947 17.69-15.936 2.788-2.912 7.696-8.098 14.585-14.082 2.904-2.557 5.706-4.808 9.639-8.871a86 86 0 0 0 6.932-7.91c1.613-2.061 1.277-1.875 8.37-13.094 2.254-3.59 3.094-4.843 3.904-7.12 1.109-3.16 1.42-5.976 1.652-8.154Z"/><path fill="#f5cdcb" d="M125.635 69.909c-2.461-2.001-1.989-6.684 1.123-7.848 1.721-.66 1.251-3.063-.571-3.115-1.334-.04-2.315-1.344-2.351-2.632-.031-1.45.917-2.744 2.022-3.576 1.418-1.057.476-3.402-1.341-2.896-2.418.7-3.793-2.335-1.709-3.733 1.46-.948.37-3.656-1.341-2.895-3.152 1.484-7.114-.103-8.173-3.525-.368-1.264-2.334-1.545-2.919-.267-1.672 3.623-6.306 3.557-7.995.025-.779-1.62-3.556-.346-2.891 1.346.794 1.984-1.838 2.766-3.3 2.566-.73-.1-5.148-1.265-4.87-2.35.515-1.983-2.599-2.688-3.114-.706-.828 3.224-5.671 2.488-5.226-.921.158-1.276-.798-2.116-2.032-1.871-2.739.527-4.567-2.675-2.87-4.817.957-1.193-.045-3.126-1.638-2.601-1.169.391-2.433-.387-2.83-1.527-.489-1.456.253-2.993 1.214-4.055 1.134-1.252-.119-2.946-1.638-2.601-2.305.494-4.877-2.32-4.035-4.589.424-1.15-.434-2.854-1.878-2.262-1.62.65-3.73 1.287-5.37.292-.895-.53-1.59-1.803-1.162-2.822.188-.252.345-.512.502-.772.88-1.572-1.395-3.235-2.558-1.859-.226.277-.422.56-.593.883-1.749 2.228-5.298 1.85-6.39-.988-.5-1.262-2.241-1.525-2.919-.268-.625 1.17-1.594 2.558-2.998 2.83-.819.143-2.302-.39-2.138-1.402.265-2.04-2.85-2.745-3.115-.706-.011.194-.053.381-.026.552-.802.212-1.46.948-1.104 1.98.588 1.74-1.252 3.358-2.898 2.82-1.951-.638-2.627 2.49-.707 3.12 2.372.8.826 4.879-.052 6.156-.722 1.017-2.296 2.039-3.636 2.03-.66-1.133-1.633-2.043-2.86-2.55-1.283-.553-2.812.412-2.347 1.83.44 1.379 1.41 2.451 2.601 3.115.271 1.406-.532 2.93-2.473 3.114-1.47.126-1.9 1.734-1.017 2.754 1.598 1.904 3.521 4.111 3.825 6.673.2 1.718-.598 4.228-2.535 4.543-1.297.231-2.1 1.755-1.017 2.755 2.507 2.372 2.651 6.505.343 9.033-.529.602-.62 1.729.08 2.249 2.237 1.687 3.426 4.68 2.354 7.389-.337.907-.086 2.112 1.05 2.304 2.207.37 3.431 2.483 3.508 4.6.113 2.683-1.25 5.228-2.462 7.545-.483.973.06 2.047 1.05 2.304 1.691.482 2.973 2.051 2.965 3.821-.003 2.033-.498 3.496.612 5.387.925 1.555 1.806 2.87 2.04 4.727.244 1.958-.149 3.837-1.057 5.534-.618 1.139.29 2.329 1.493 2.372 1.627.041 2.558 1.859 2.628 3.285.088 1.923-.91 3.73-1.78 5.403-.626 1.17.304 2.267 1.492 2.372 1.257.088 1.734 1.738 1.664 2.771-.08 1.36-.77 2.68-1.341 3.895-.668 1.358.543 2.518 1.878 2.263 1.944-.347 3.014 2.159 1.467 3.35-1.241.998-.727 2.919.932 2.967 3.093.077 5.879 3.103 5.528 6.238-.17 1.471 1.57 2.751 2.72 1.437 2.45-2.725 6.108.498 8.006 2.24.972.909 2.808.177 2.669-1.232-.297-3.315 2.673-6.743 5.947-4.426 1.47 1.022 2.689-1.031 2.12-2.276-2.258-4.776 2.584-10.108 7.56-8.226 1.415.55 2.99-.766 2.12-2.275-1.945-3.262 1.452-6.986 4.874-5.326 1.324.661 3.125-.932 2.12-2.275-1.412-1.861-1.41-4.616.32-6.324 1.858-1.842 4.76-1.644 6.78-.301 1.454.953 2.783-1.01 2.12-2.275-.856-1.572.531-3.357 1.903-4.063 1.67-.868 3.707-.899 5.557-.972 1.517-.049 2.134-2.337.678-2.995-1.541-.71-1.064-2.964.032-3.896 1.711-1.483 4.443-1.257 6.514-1.149 1.163.067 1.95-1.526 1.279-2.466-2.985-4.022 3.302-7.059 6.144-8.186.899-.354 1.517-1.493.87-2.395-2.183-3.085-.409-8.457 3.512-9.143 1.24.018 2.252-1.557 1.061-2.515m-8.139 11.933c-2.325 1.015-4.607 2.27-6.016 4.443-1.005 1.544-1.474 3.472-1.157 5.25-2.834.079-5.816.814-7.31 3.362-.89 1.471-1.12 3.354-.629 4.942-2.024.263-3.994.866-5.49 2.266-1.162 1.082-1.906 2.488-2.082 3.99-2.765-.66-5.803.03-7.88 2.118-1.834 1.881-2.526 4.643-2.021 7.185-1.812.049-3.602.726-4.935 2.13-1.424 1.514-1.953 3.559-1.716 5.548-2.684-.148-5.407.744-7.322 2.836-1.83 2.012-2.556 4.636-2.29 7.222a6.66 6.66 0 0 0-4.416 1.132c-1.435.987-2.394 2.475-2.855 4.077-1.26-.942-2.656-1.717-4.235-1.976-1.173-.168-2.334-.103-3.395.247-.7-2.98-2.885-5.476-5.79-6.527.5-1.199.548-2.566-.07-3.887-.634-1.39-1.777-2.272-3.095-2.669.645-1.691 1.055-3.501.537-5.258-.427-1.442-1.288-2.556-2.473-3.25 1.043-2.29 1.771-4.782 1.02-7.249-.542-1.795-1.751-3.25-3.387-3.982 1.327-3.832.559-7.811-1.663-11.3-.747-1.186-.535-2.122-.4-3.437a6.96 6.96 0 0 0-.58-3.51 7.27 7.27 0 0 0-2.985-3.3c1.357-2.81 2.507-5.862 1.88-9.022-.488-2.472-2.009-4.72-4.262-5.754.56-3.055-.26-6.226-2.432-8.49 1.992-3.157 1.956-7.331-.018-10.468 1.848-1.222 2.949-3.334 3.098-5.728.204-3.07-1.38-5.758-3.237-8.114 1.57-.858 2.73-2.366 2.992-4.242.042-.188.046-.35.05-.514 2.066-.155 3.907-1.345 5.165-2.996 1.77-2.322 2.75-6.069 1.553-8.734a5.88 5.88 0 0 0 2.92-3.636 5.3 5.3 0 0 0 2.226.865c2.16.293 4.019-.828 5.387-2.388 1.968 2.152 5.035 2.78 7.623 1.76a6 6 0 0 0 1.376 2.313c1.806 1.852 4.407 2.08 6.844 1.583.247 2.812 2.276 5.272 4.975 6.08-.753 1.732-.904 3.7-.029 5.472.745 1.481 2.078 2.537 3.566 2.907-.806 3.557 1.689 7.14 5.477 7.474.384 2.35 2.017 4.393 4.516 4.926 1.906.4 3.797-.287 5.102-1.566 1.863 1.603 5.043 2.455 6.913 2.583 2.095.147 4.396-.907 5.599-2.602 2.856 1.992 6.948 1.705 9.498-.735 1.66 2.213 4.317 3.635 7.071 3.767-.196 1.005-.117 2.106.346 3.096a4.9 4.9 0 0 0 2.666 2.54c-.838 1.384-1.26 2.962-.953 4.639.281 1.506 1.075 2.769 2.194 3.613-2.27 2.503-2.818 6.512-1.12 9.423-3.942 2.223-6.047 7.323-4.351 11.545"/><path fill="#f5cdcb" d="m51.97 49.248 6.957 2.357-.538 1.588-4.975-1.685-.6 1.773 2.389.81q1.563.529 2.155 1.457.604.932.187 2.163-.439 1.293-1.592 1.699-1.152.405-2.815-.158l-4.088-1.385zm1.558 8.489q.763.259 1.27.1.51-.17.706-.748.384-1.132-1.192-1.667l-1.994-.676-.785 2.315zm12.918-1.361L64.202 63l-1.92-.65 1.71-5.049-2.094-.709-.458 1.149q-.49 1.288-.98 2.084-.488.795-1.1 1.137-.61.342-1.397.075a4.4 4.4 0 0 1-.947-.485l.632-1.543q.188.092.275.12.43.147.744-.09a2 2 0 0 0 .567-.7q.24-.467.549-1.256l1-2.626zm7.156 6.144a22 22 0 0 1-.212.505l-5.011-1.698q-.073.66.31 1.19.384.527 1.136.782.517.175.96.16.462-.021.919-.237l.646 1.454q-1.299.754-3.096.145-1.121-.38-1.837-1.102a3.43 3.43 0 0 1-.916-1.67q-.205-.933.128-1.919.33-.973 1.048-1.594.735-.63 1.681-.79a3.9 3.9 0 0 1 1.96.17q.974.33 1.62 1.016.645.685.822 1.624.192.93-.158 1.964m-2.764-3.146q-.651-.222-1.22-.002-.57.22-.884.826l3.263 1.105q.114-.66-.204-1.18-.315-.533-.955-.75m6.241 8.098q-1.058-.359-1.762-1.077a3.56 3.56 0 0 1-.904-1.665q-.205-.934.128-1.92.334-.984 1.065-1.602a3.47 3.47 0 0 1 1.726-.76q.999-.156 2.058.203 1.047.355 1.672 1.06.642.699.724 1.632l-1.76.296q-.21-1.086-1.182-1.416-.75-.255-1.41.071-.66.327-.947 1.176-.288.85.037 1.508.325.66 1.077.914.985.334 1.799-.406l1.214 1.317a2.8 2.8 0 0 1-1.562.844q-.926.18-1.973-.175m11.42-1.868-2.241-.76-1.71 5.049-1.909-.647 1.71-5.048-2.24-.76.534-1.575 6.39 2.165zm1.558-1.23 1.908.647-1.335 3.94 4.561-2.847 1.76.597-2.243 6.624-1.909-.647 1.335-3.94-4.549 2.852-1.772-.601zm13.772 6.424-2.24-.76-1.71 5.049-1.91-.647 1.711-5.048-2.24-.76.533-1.575 6.39 2.165zm-60.532-3.26 1.909.647-1.335 3.94 4.56-2.847 1.761.596-2.244 6.625-1.909-.647 1.335-3.94-4.548 2.851-1.773-.6zm16.165 5.367a3.5 3.5 0 0 1 1.528.998q.622.678.79 1.6.173.909-.174 1.93-.345 1.022-1.04 1.652-.69.618-1.599.79-.892.165-1.816-.149-1.268-.429-1.723-1.476l-1.047 3.09-1.921-.65 3.053-9.013 1.835.621-.259.764q1.006-.62 2.373-.157m-2.11 5.132q.739.251 1.374-.083.651-.342.935-1.18t-.03-1.492q-.297-.663-1.035-.914-.74-.25-1.39.092-.636.334-.919 1.171-.283.838.014 1.501.313.656 1.052.905m9.221-2.723q1.538.521 2.114 1.54.579 1.005.078 2.483l-1.28 3.78-1.798-.609.28-.825q-.855.74-2.333.24-.764-.26-1.242-.71a2.1 2.1 0 0 1-.608-1.001 1.96 1.96 0 0 1 .055-1.135q.314-.923 1.182-1.22.881-.291 2.334.201l1.527.518q.213-.629-.056-1.09-.266-.474-1.029-.733a3.5 3.5 0 0 0-1.105-.182 2.8 2.8 0 0 0-1.012.151l-.235-1.575a4.4 4.4 0 0 1 1.494-.153q.833.049 1.634.32m-2.02 5.478q.492.167.949.075.46-.104.77-.494l.23-.677-1.317-.446q-1.182-.4-1.445.375a.75.75 0 0 0 .083.687q.225.309.73.48m12.559 3.83-1.018 3.004-1.786-.605.484-1.428-4.654-1.577-.484 1.428-1.785-.605 1.018-3.004.27.092q.62.196 1.096-.439.475-.635.984-1.931l.862-2.261 5.775 1.956-1.71 5.048zm-4.185-4.341q-.378.996-.719 1.595-.327.603-.76.827l2.795.947 1.176-3.473-2.167-.734zm13.74 1.95-5.374 6.017q-.843.99-1.679 1.23-.824.242-1.771-.08a3.6 3.6 0 0 1-.968-.505q-.45-.331-.675-.723l1.165-1.13a1.76 1.76 0 0 0 .942.786q.393.135.707.02.309-.1.656-.477l.045-.054-.608-7.645 1.982.672.337 5.124 3.394-3.86zm6.055 5.771q-.012.037-.212.505L87.5 86.809q-.073.662.31 1.19.385.528 1.136.782.517.175.96.161.462-.022.919-.238l.646 1.455q-1.298.753-3.096.145-1.121-.379-1.836-1.103a3.43 3.43 0 0 1-.917-1.67q-.205-.934.129-1.918.33-.973 1.047-1.594.735-.63 1.681-.79a3.9 3.9 0 0 1 1.96.17 3.9 3.9 0 0 1 1.62 1.015q.645.686.822 1.624.193.93-.158 1.964m-2.763-3.146q-.652-.22-1.221-.002-.57.22-.884.826l3.263 1.106q.114-.662-.204-1.181-.314-.532-.954-.749m10.169 3.692-2.24-.759-1.711 5.048-1.909-.646 1.71-5.048-2.24-.76.534-1.575 6.39 2.164z"/></g><defs><clipPath id="a"><path fill="#fff" d="m30.05 0 108.257 24.527-30.05 132.638L0 132.638z"/></clipPath></defs></svg>