<svg xmlns="http://www.w3.org/2000/svg" width="153" height="167" fill="none" viewBox="0 0 153 167"><g clip-path="url(#a)"><path fill="#681f2a" stroke="#f5cdcb" stroke-miterlimit="10" stroke-width="4" d="M118.983 41.14c-.977-1.854-2.1-3.55-4.333-6.91-1.661-2.484-2.512-3.735-3.768-5.243-1.936-2.31-3.041-3.601-4.998-4.706a14.7 14.7 0 0 0-5.388-1.684c-2.794-.341-4.926.16-6.719.567-2.674.605-4.456 1.488-7.902 3.208a63 63 0 0 0-7.997 4.577c-2.664 1.8-4.326 2.91-6.287 4.853-3.214 3.137-3.785 4.962-5.77 5.135-.492.05-1.203-.022-4.761-2.196-2.572-1.555-4.283-2.822-4.97-3.28-2.978-2.085-5.75-3.086-11.244-5.14s-7.367-2.129-8.608-2.068c-.576.013-1.592.125-3.42.17-2.504.061-2.793-.069-3.727.08-1.505.264-2.518.923-4.12 2.01-1.651 1.141-3.185 2.408-4.55 3.85-2.076 2.09-3.35 3.772-5.219 6.227-1.868 2.455-2.797 3.697-3.7 5.546a30 30 0 0 0-1.654 4.188A31 31 0 0 0 8.75 54.54c-.253 1.67-.31 3.677.383 7.212a47.7 47.7 0 0 0 3.601 10.918c2.323 4.765 5.268 9.19 8.808 13.116 7.901 8.84 12.761 11.921 20.629 19.234 11.634 10.844 27.678 28.979 33.997 33.834a68 68 0 0 0 5.66 3.839c1.474.912 2.985 1.741 4.58 2.435a28.7 28.7 0 0 0 5.628 1.866c1.258.344 2.56.534 3.895.54 1.518.04 3.053-.236 4.474-.81 1.817-.793 2.892-1.92 4.494-3.726 1.246-1.397 2.386-2.891 3.339-4.52 3.214-5.567 4.717-16.268 5.929-23.059.714-3.968 1.935-11.003 4.367-19.798 1.007-3.736 2.096-7.161 3.127-12.72a86 86 0 0 0 1.404-10.424c.204-2.61.026-2.269-.267-15.539-.106-4.237-.099-5.746-.682-8.091-.823-3.247-2.122-5.765-3.133-7.708Z"/><path fill="#f5cdcb" d="M118.298 44.822c-3.157-.307-5.353-4.47-3.403-7.16 1.069-1.502-.651-3.244-2.198-2.28-1.133.704-2.672.16-3.414-.894-.828-1.19-.754-2.793-.293-4.098.598-1.664-1.484-3.098-2.718-1.67-1.628 1.918-4.452.15-3.487-2.167.691-1.597-1.714-3.25-2.719-1.67-1.806 2.978-5.985 3.847-8.759 1.581-1.006-.85-2.8.003-2.58 1.391.61 3.944-3.288 6.451-6.648 4.442-1.544-.92-3.154 1.677-1.665 2.72 1.76 1.214-.002 3.32-1.33 3.962-.664.32-4.99 1.793-5.358.734-.667-1.936-3.652-.802-2.985 1.134 1.092 3.145-3.35 5.209-4.864 2.122-.574-1.15-1.835-1.322-2.728-.436-1.99 1.954-5.284.297-5.055-2.426.139-1.524-1.766-2.58-2.802-1.262-.758.972-2.242 1.023-3.203.292-1.212-.942-1.444-2.634-1.23-4.05.253-1.67-1.728-2.39-2.803-1.262-1.648 1.687-5.346.764-5.9-1.592-.282-1.193-1.939-2.138-2.815-.847-.991 1.437-2.396 3.135-4.313 3.213-1.04.052-2.321-.624-2.528-1.71.017-.314.004-.617-.008-.92-.136-1.797-2.952-1.925-3.16-.135-.036.356-.041.7-.006 1.064-.226 2.823-3.392 4.47-5.871 2.709-1.114-.775-2.71-.031-2.58 1.39.126 1.322.085 3.014-.934 4.017-.603.572-2.134.948-2.557.013-.906-1.846-3.892-.712-2.985 1.134.098.169.166.348.282.475-.55.62-.69 1.597.176 2.26 1.452 1.126.813 3.49-.856 3.953-1.978.546-.812 3.526 1.136 2.99 2.42-.645 3.386 3.608 3.36 5.158-.038 1.247-.785 2.968-1.907 3.702-1.177-.58-2.49-.8-3.793-.544-1.375.249-2.115 1.898-.944 2.823 1.13.905 2.53 1.263 3.89 1.157 1.003 1.022 1.176 2.736-.34 3.962-1.154.918-.623 2.496.676 2.858 2.385.702 5.208 1.478 6.877 3.445 1.117 1.321 1.84 3.853.4 5.187-.954.91-.78 2.623.675 2.858 3.4.59 5.806 3.954 5.28 7.337-.108.794.44 1.784 1.31 1.83 2.798.169 5.442 2.005 6.046 4.855.222.943 1.097 1.808 2.15 1.34 2.043-.913 4.232.172 5.466 1.893 1.577 2.173 1.85 5.047 2.12 7.648.136 1.078 1.182 1.673 2.149 1.34 1.676-.534 3.611.065 4.583 1.544 1.122 1.696 1.518 3.188 3.49 4.15 1.63.784 3.09 1.393 4.312 2.811 1.286 1.496 1.998 3.279 2.179 5.195.115 1.292 1.53 1.781 2.555 1.152 1.38-.866 3.16.134 4.006 1.284 1.137 1.553 1.304 3.612 1.504 5.486.126 1.321 1.507 1.721 2.555 1.152 1.096-.622 2.406.489 2.919 1.389.686 1.177.84 2.659 1.036 3.987.194 1.5 1.845 1.798 2.816.847 1.429-1.364 3.705.132 3.075 1.98-.482 1.518 1.008 2.834 2.417 1.957 2.62-1.646 6.614-.664 8.055 2.142.672 1.319 2.83 1.423 3.06-.307.536-3.626 5.366-2.962 7.91-2.56 1.313.22 2.438-1.405 1.543-2.502-2.08-2.598-1.5-7.097 2.508-6.976 1.791.038 1.671-2.346.508-3.068-4.521-2.732-3.435-9.852 1.752-11.035 1.483-.324 2.068-2.291.509-3.068-3.425-1.642-2.653-6.624 1.116-7.132 1.469-.181 2.089-2.505.509-3.068-2.206-.771-3.727-3.067-3.231-5.446.53-2.563 3.058-4.002 5.484-4 1.738-.01 1.76-2.38.508-3.068-1.581-.836-1.413-3.09-.661-4.437.912-1.647 2.592-2.799 4.094-3.882 1.237-.88.486-3.128-1.091-2.871-1.677.26-2.525-1.882-2.128-3.264.606-2.181 3.007-3.504 4.793-4.559 1.006-.588.781-2.35-.298-2.762-4.711-1.7-1.151-7.707.594-10.218.553-.792.438-2.083-.599-2.476-3.525-1.365-5.017-6.821-2.129-9.561 1.043-.67 1.015-2.542-.507-2.682m-.184 14.443c-1.376 2.131-2.584 4.438-2.556 7.029.016 1.841.691 3.707 1.938 5.013-2.317 1.633-4.396 3.894-4.232 6.843.072 1.719.921 3.415 2.209 4.466-1.541 1.338-2.849 2.93-3.322 4.924-.37 1.543-.213 3.126.47 4.475-2.668.98-4.818 3.234-5.394 6.122-.489 2.581.463 5.266 2.289 7.105-1.483 1.042-2.601 2.596-2.935 4.503-.349 2.049.341 4.045 1.638 5.572-2.319 1.36-4.095 3.609-4.533 6.41-.414 2.69.433 5.277 2.084 7.285a6.66 6.66 0 0 0-3.053 3.384c-.65 1.616-.627 3.387-.125 4.976-1.571-.088-3.163.038-4.621.695-1.07.509-2.002 1.205-2.693 2.083-2.23-2.095-5.431-2.967-8.434-2.237-.245-1.276-.961-2.441-2.206-3.201-1.297-.807-2.737-.911-4.055-.513-.397-1.765-1.056-3.5-2.46-4.678-1.152-.965-2.486-1.417-3.857-1.341-.397-2.484-1.168-4.963-3.158-6.603-1.445-1.197-3.257-1.74-5.024-1.446-1.013-3.927-3.853-6.818-7.634-8.496-1.277-.575-1.618-1.473-2.233-2.642a6.95 6.95 0 0 0-2.424-2.604 7.26 7.26 0 0 0-4.312-1.1c-.423-3.091-1.152-6.27-3.421-8.557-1.774-1.79-4.283-2.822-6.734-2.438-1.221-2.856-3.658-5.045-6.72-5.73-.085-3.732-2.423-7.19-5.803-8.712.865-2.04.614-4.409-.585-6.486-1.527-2.671-4.334-4.035-7.183-4.971.834-1.583.966-3.482.147-5.19-.068-.179-.155-.317-.242-.455 1.635-1.272 2.511-3.282 2.647-5.352.192-2.914-1.064-6.578-3.535-8.137.77-1.388.93-3.126.422-4.644a5.3 5.3 0 0 0 2.334-.51c1.962-.95 2.89-2.912 3.169-4.968 2.83.705 5.732-.467 7.325-2.748.69.559 1.526.96 2.424 1.166 2.53.545 4.823-.703 6.58-2.465 1.76 2.206 4.81 3.135 7.506 2.316.33 1.86 1.292 3.582 3.002 4.575 1.44.823 3.133.966 4.578.452 1.295 3.409 5.355 5.015 8.696 3.199 1.62 1.746 4.11 2.545 6.486 1.608 1.81-.722 3.006-2.34 3.386-4.126 2.439.305 5.559-.743 7.188-1.67 1.827-1.036 3.162-3.186 3.227-5.264 3.48.08 6.732-2.42 7.508-5.864 2.606.926 5.607.642 7.974-.77.393.945 1.067 1.819 2 2.388a4.9 4.9 0 0 0 3.626.642c.068 1.617.587 3.165 1.771 4.392 1.067 1.1 2.427 1.714 3.826 1.798-.507 3.341 1.252 6.985 4.277 8.471-2.056 4.032-.99 9.445 2.757 12.026"/><path fill="#f5cdcb" d="m54.607 83.775 2.333 8.796-2.036.54-.956-3.606-3.996 1.06.956 3.606-2.036.54-2.332-8.797 2.036-.54.92 3.469 3.995-1.06-.92-3.468zm7.579 7.513q-1.068.283-2.04.07a3.5 3.5 0 0 1-1.649-.894q-.687-.666-.953-1.67-.267-1.005 0-1.924.269-.919.993-1.581.735-.68 1.803-.963t2.03-.054a3.4 3.4 0 0 1 1.646.882q.687.665.954 1.67t-.001 1.924a3.5 3.5 0 0 1-.99 1.594q-.725.663-1.793.946m-.427-1.608q.755-.2 1.099-.83.353-.645.127-1.5-.228-.854-.85-1.226-.615-.389-1.368-.19-.754.201-1.108.846-.357.632-.13 1.487t.853 1.24q.624.373 1.377.172m9.684-4.733q1.3.085 1.62 1.291.243.918-.315 1.604t-1.927 1.049l-3.607.956-1.792-6.76 3.455-.917q1.27-.337 2.11-.061.836.262 1.055 1.092.134.502-.027.962-.152.444-.572.784m-3.488.44 1.483-.393q1.03-.273.837-1.002-.19-.717-1.22-.443l-1.483.393zm2.35 2.215q1.08-.286.883-1.028-.103-.39-.4-.499-.302-.121-.843.022l-1.683.446.396 1.496zm2.934-6.588 1.947-.516 1.066 4.02 2.227-4.893 1.796-.477 1.793 6.76-1.948.517-1.066-4.021-2.213 4.89-1.81.48zm8.92-2.365 1.949-.517.7 2.639 2.94-.78-.7-2.639 1.96-.52 1.793 6.761-1.96.52-.67-2.526-2.94.78.67 2.525-1.949.517zm12.817 1.093-1.018.27.68 2.564-1.96.52-1.793-6.76 1.96-.52.696 2.626 1.056-.28 1.138-3.113 2.086-.553-1.503 3.868 3.459 2.849-2.312.613zm6.448-6.309q1.57-.417 2.612.114 1.039.519 1.439 2.026l1.023 3.858-1.835.486-.223-.841q-.303 1.089-1.811 1.488-.78.207-1.427.096a2.1 2.1 0 0 1-1.061-.499 1.96 1.96 0 0 1-.581-.975q-.25-.942.31-1.67.574-.729 2.056-1.123l1.558-.413q-.17-.641-.649-.877-.482-.249-1.262-.042-.54.144-1.021.46-.472.3-.76.685l-1.067-1.183q.45-.537 1.16-.953.721-.42 1.539-.637m1.345 5.682a1.8 1.8 0 0 0 .832-.463q.327-.342.37-.837l-.183-.692-1.345.357q-1.206.32-.996 1.111a.75.75 0 0 0 .449.527q.358.134.873-.003"/></g><defs><clipPath id="a"><path fill="#fff" d="M0 39.418 103.765 0l48.296 127.136-103.766 39.418z"/></clipPath></defs></svg>