<svg xmlns="http://www.w3.org/2000/svg" width="149" height="169" fill="none" viewBox="0 0 149 169"><g clip-path="url(#a)"><path fill="#681f2a" stroke="#f5cdcb" stroke-miterlimit="10" stroke-width="4" d="M137.659 72.155c.225-2.237.228-4.42.225-8.752-.011-3.207-.03-4.83-.259-6.925-.361-3.215-.583-5.026-1.678-7.176a15.8 15.8 0 0 0-3.819-4.703c-2.297-1.964-4.502-2.78-6.347-3.48-2.75-1.046-4.869-1.315-8.971-1.822q-4.905-.69-9.87-.651c-3.45.028-5.596.035-8.503.608-4.737.9-6.33 2.193-8.208 1.17-.47-.248-1.063-.735-2.956-4.79-1.378-2.918-2.156-5.067-2.498-5.884-1.427-3.633-3.312-6.172-7.007-11.27s-5.326-6.277-6.472-6.96c-.523-.33-1.498-.832-3.16-1.877-2.276-1.432-2.457-1.72-3.381-2.14-1.503-.657-2.8-.67-4.88-.648-2.152.04-4.276.264-6.353.744-3.097.637-5.235 1.385-8.363 2.472s-4.696 1.647-6.602 2.765a32 32 0 0 0-3.965 2.764 33 33 0 0 0-3.483 3.119c-1.218 1.344-2.46 3.104-3.938 6.678A51.2 51.2 0 0 0 23.91 37.3c-.75 5.64-.742 11.346.095 16.958 1.821 12.596 4.339 18.237 7.036 29.447 3.97 16.604 7.558 42.347 10.328 50.44a73 73 0 0 0 2.785 6.793c.776 1.69 1.635 3.328 2.65 4.897a31 31 0 0 0 3.927 5.009 16 16 0 0 0 3.163 2.794 12 12 0 0 0 4.483 1.931c2.096.369 3.726-.001 6.231-.666 1.944-.51 3.85-1.17 5.669-2.06 6.179-3.073 13.874-11.752 18.989-17.107 2.992-3.125 8.26-8.693 15.656-15.116 3.117-2.744 6.125-5.162 10.346-9.522a92 92 0 0 0 7.442-8.491c1.731-2.213 1.37-2.013 8.984-14.056 2.419-3.853 3.321-5.198 4.191-7.642 1.191-3.393 1.524-6.416 1.773-8.754Z"/><path fill="#f5cdcb" d="M134.861 75.043c-2.642-2.148-2.136-7.174 1.206-8.425 1.847-.708 1.342-3.287-.614-3.343-1.431-.042-2.485-1.443-2.523-2.825-.034-1.557.984-2.946 2.17-3.84 1.523-1.133.511-3.651-1.439-3.107-2.596.75-4.072-2.507-1.834-4.007 1.566-1.019.397-3.925-1.44-3.108-3.383 1.592-7.637-.11-8.773-3.784-.395-1.357-2.506-1.66-3.133-.287-1.795 3.89-6.77 3.818-8.582.027-.837-1.738-3.817-.371-3.104 1.445.853 2.13-1.973 2.969-3.542 2.754-.784-.107-5.526-1.358-5.227-2.522.552-2.129-2.79-2.886-3.343-.758-.89 3.461-6.088 2.67-5.61-.989.17-1.37-.857-2.271-2.182-2.008-2.94.566-4.902-2.871-3.081-5.17 1.028-1.281-.048-3.356-1.757-2.793-1.255.42-2.613-.416-3.038-1.639-.525-1.562.27-3.213 1.302-4.353 1.218-1.343-.127-3.162-1.757-2.792-2.475.53-5.236-2.49-4.332-4.925.455-1.235-.466-3.064-2.016-2.429-1.74.698-4.003 1.382-5.764.314-.961-.57-1.706-1.936-1.247-3.03.202-.27.37-.55.539-.828.945-1.687-1.498-3.473-2.746-1.995a5.7 5.7 0 0 0-.637.947c-1.877 2.392-5.687 1.986-6.86-1.061-.536-1.354-2.405-1.637-3.132-.287-.672 1.256-1.712 2.746-3.22 3.038-.878.153-2.47-.419-2.294-1.506.285-2.189-3.058-2.946-3.343-.757-.012.208-.058.41-.029.592-.86.228-1.566 1.018-1.185 2.126.632 1.868-1.343 3.604-3.11 3.028-2.095-.686-2.82 2.67-.76 3.349 2.547.859.888 5.236-.055 6.607-.775 1.092-2.464 2.188-3.903 2.18-.709-1.218-1.753-2.194-3.07-2.739-1.377-.593-3.018.444-2.52 1.965.474 1.48 1.513 2.631 2.793 3.344.29 1.51-.572 3.145-2.655 3.342-1.577.136-2.039 1.862-1.092 2.957 1.716 2.044 3.78 4.413 4.106 7.163.215 1.844-.641 4.538-2.721 4.877-1.392.248-2.255 1.883-1.092 2.957 2.692 2.546 2.846 6.983.369 9.696-.568.646-.667 1.856.086 2.414 2.401 1.811 3.677 5.023 2.526 7.932-.362.974-.092 2.267 1.126 2.473 2.37.396 3.684 2.666 3.767 4.938.12 2.88-1.342 5.612-2.643 8.099-.518 1.044.064 2.197 1.127 2.473 1.816.517 3.191 2.202 3.182 4.102-.002 2.182-.533 3.752.658 5.783.993 1.668 1.939 3.08 2.19 5.073.262 2.102-.16 4.119-1.135 5.941-.664 1.223.312 2.5 1.602 2.546 1.748.044 2.747 1.995 2.822 3.526.094 2.064-.978 4.004-1.912 5.8-.671 1.256.328 2.433 1.602 2.546 1.35.094 1.862 1.866 1.787 2.975-.085 1.46-.828 2.876-1.44 4.181-.717 1.458.583 2.703 2.016 2.429 2.087-.372 3.235 2.317 1.575 3.596-1.332 1.072-.78 3.133 1 3.185 3.32.083 6.31 3.331 5.935 6.696-.182 1.579 1.686 2.953 2.92 1.542 2.63-2.925 6.556.535 8.593 2.405 1.044.976 3.014.19 2.865-1.323-.319-3.558 2.87-7.237 6.383-4.751 1.58 1.097 2.887-1.107 2.276-2.442-2.424-5.127 2.775-10.851 8.116-8.831 1.518.591 3.21-.822 2.276-2.442-2.09-3.502 1.558-7.499 5.231-5.716 1.421.709 3.355-1.001 2.276-2.443-1.516-1.998-1.514-4.955.343-6.788 1.994-1.978 5.109-1.765 7.278-.323 1.561 1.022 2.987-1.084 2.276-2.443-.919-1.687.57-3.603 2.042-4.361 1.793-.932 3.979-.965 5.965-1.043 1.629-.053 2.291-2.509.729-3.215-1.655-.762-1.142-3.182.034-4.183 1.836-1.591 4.769-1.349 6.992-1.233 1.249.072 2.093-1.638 1.373-2.646-3.204-4.318 3.544-7.578 6.595-8.788.965-.38 1.629-1.603.934-2.57-2.343-3.313-.439-9.079 3.77-9.815 1.331.02 2.417-1.671 1.139-2.7m-8.737 12.81c-2.496 1.089-4.945 2.436-6.458 4.769-1.078 1.657-1.582 3.726-1.241 5.634-3.042.086-6.243.875-7.847 3.61-.956 1.579-1.203 3.601-.675 5.305-2.173.282-4.288.93-5.893 2.432-1.248 1.162-2.046 2.671-2.236 4.283-2.968-.708-6.228.032-8.458 2.274-1.969 2.019-2.711 4.984-2.17 7.713-1.945.052-3.866.779-5.297 2.285-1.529 1.626-2.096 3.822-1.842 5.957-2.88-.16-5.804.797-7.86 3.043-1.965 2.16-2.744 4.977-2.459 7.753a7.14 7.14 0 0 0-4.739 1.215c-1.54 1.06-2.57 2.657-3.065 4.376-1.353-1.01-2.85-1.843-4.545-2.121-1.26-.18-2.506-.11-3.645.266-.752-3.199-3.097-5.878-6.216-7.007.538-1.287.59-2.754-.074-4.172-.68-1.492-1.907-2.439-3.322-2.866.692-1.815 1.132-3.757.576-5.644-.458-1.547-1.382-2.743-2.654-3.489 1.119-2.457 1.9-5.132 1.095-7.78-.583-1.928-1.881-3.489-3.636-4.274 1.424-4.114.6-8.386-1.786-12.13-.801-1.274-.574-2.278-.43-3.69a7.47 7.47 0 0 0-.622-3.767c-.707-1.534-1.806-2.734-3.204-3.543 1.456-3.016 2.69-6.292 2.018-9.684-.523-2.654-2.156-5.066-4.575-6.178.602-3.279-.279-6.683-2.61-9.112 2.138-3.39 2.099-7.87-.02-11.238 1.984-1.31 3.166-3.578 3.326-6.148.22-3.295-1.482-6.18-3.475-8.71 1.685-.92 2.93-2.54 3.211-4.554.046-.2.05-.376.055-.55 2.217-.168 4.193-1.445 5.544-3.217 1.9-2.492 2.952-6.514 1.667-9.376a6.3 6.3 0 0 0 3.134-3.903c.7.476 1.506.8 2.39.93 2.319.313 4.314-.89 5.782-2.564 2.113 2.31 5.405 2.985 8.183 1.889.286.91.796 1.765 1.477 2.482 1.939 1.99 4.73 2.234 7.347 1.7.265 3.018 2.443 5.66 5.34 6.527-.808 1.86-.97 3.97-.03 5.874.799 1.59 2.23 2.723 3.826 3.12-.865 3.818 1.814 7.665 5.88 8.023.412 2.523 2.165 4.716 4.847 5.288 2.047.428 4.077-.309 5.477-1.682 2 1.721 5.414 2.635 7.421 2.773 2.249.157 4.719-.973 6.01-2.793 3.066 2.138 7.458 1.83 10.196-.789 1.781 2.376 4.634 3.902 7.589 4.043-.209 1.08-.125 2.26.372 3.324a5.27 5.27 0 0 0 2.862 2.726c-.899 1.486-1.353 3.18-1.023 4.98.301 1.617 1.154 2.973 2.355 3.878-2.437 2.688-3.025 6.991-1.202 10.116-4.231 2.386-6.491 7.86-4.671 12.393"/><path fill="#f5cdcb" d="m56.394 76.297 4.824 1.634-.722 2.131-4.824-1.634zm12.647-2.481-4.043 11.933-2.762-.935 3.292-9.718-2.386-.808.75-2.217zm3.075 14.573q-1.482-.503-2.394-1.628-.91-1.126-1.108-2.732-.174-1.618.479-3.544.652-1.927 1.768-3.088 1.139-1.173 2.546-1.513 1.408-.34 2.89.162 1.485.503 2.395 1.628.912 1.126 1.085 2.743.198 1.607-.455 3.533t-1.791 3.1q-1.116 1.16-2.524 1.501t-2.89-.162m.792-2.336q1.09.37 2.022-.36.948-.723 1.613-2.684t.35-3.112q-.296-1.146-1.386-1.515-1.074-.364-2.023.36-.931.73-1.595 2.69-.665 1.96-.368 3.106.312 1.152 1.387 1.515m10.356-.235q-1.313-.446-1.848-1.614-.513-1.181-.004-2.681.508-1.5 1.627-2.11 1.14-.62 2.454-.176 1.313.445 1.825 1.626.518 1.163.01 2.664-.509 1.5-1.633 2.126-1.119.609-2.431.165m9.292-4.036 2.029.687-12.192 9.173-2.029-.687zm-8.819 2.638q.58.196 1.066-.171.502-.363.82-1.3t.138-1.53a1.09 1.09 0 0 0-.742-.784q-.563-.19-1.07.188-.504.363-.815 1.283-.312.921-.139 1.53.18.594.742.784m5.719 9.767a3.2 3.2 0 0 1-1.402-.912 2.95 2.95 0 0 1-.647-1.511q-.121-.877.214-1.866t.964-1.612q.63-.624 1.427-.79a3.1 3.1 0 0 1 1.673.11q1.312.445 1.825 1.626.535 1.17.027 2.67-.51 1.5-1.65 2.12-1.119.61-2.431.165m.473-1.398q.58.197 1.066-.171.507-.38.82-1.3t.133-1.513q-.157-.605-.737-.8-.563-.191-1.065.17-.503.363-.82 1.3-.318.938-.139 1.53.18.594.742.784m10.611-5.338 1.517 1.636-1.309 1.115-1.5-1.744-.665 2.075-1.602-.543.722-2.074-2.257.49-.345-1.676 2.2-.376-1.512-1.652 1.292-1.121 1.494 1.76.687-2.085 1.603.543-.739 2.068 2.257-.49.361 1.681z"/></g><defs><clipPath id="a"><path fill="#fff" d="m32.257 0 116.206 26.328-32.257 142.378L0 142.38z"/></clipPath></defs></svg>