<svg xmlns="http://www.w3.org/2000/svg" width="223" height="254" fill="none" viewBox="0 0 223 254"><g clip-path="url(#a)"><path fill="#681f2a" d="M206.743 108.367c.339-3.361.343-6.639.339-13.144-.017-4.816-.045-7.255-.389-10.4-.542-4.83-.876-7.55-2.52-10.778a23.7 23.7 0 0 0-5.737-7.064c-3.449-2.95-6.76-4.176-9.531-5.227-4.131-1.57-7.312-1.973-13.474-2.735a101 101 0 0 0-14.822-.978c-5.183.042-8.405.052-12.77.914-7.115 1.35-9.509 3.293-12.327 1.755-.708-.371-1.598-1.102-4.441-7.193-2.069-4.382-3.238-7.609-3.752-8.836-2.142-5.456-4.973-9.27-10.523-16.927-5.55-7.656-7.999-9.427-9.72-10.452-.785-.495-2.25-1.25-4.745-2.82-3.419-2.15-3.69-2.581-5.078-3.213-2.258-.987-4.206-1.006-7.328-.973-3.234.061-6.424.396-9.543 1.117-4.651.956-7.862 2.08-12.56 3.712s-7.053 2.474-9.914 4.153a48 48 0 0 0-5.955 4.15 50 50 0 0 0-5.232 4.686c-1.83 2.018-3.695 4.662-5.914 10.03a77 77 0 0 0-4.895 17.876c-1.127 8.47-1.116 17.04.142 25.469 2.734 18.917 6.516 27.389 10.567 44.225 5.963 24.937 11.35 63.599 15.511 75.753 1.224 3.45 2.61 6.884 4.182 10.202 1.167 2.538 2.457 4.999 3.982 7.354a46.3 46.3 0 0 0 5.896 7.523 24.2 24.2 0 0 0 4.75 4.196 18.1 18.1 0 0 0 6.733 2.901c3.147.554 5.596-.002 9.359-1 2.918-.767 5.782-1.757 8.513-3.095 9.28-4.614 20.837-17.649 28.519-25.692 4.494-4.693 12.406-13.055 23.512-22.702 4.682-4.121 9.2-7.752 15.54-14.301a139 139 0 0 0 11.176-12.751c2.6-3.324 2.057-3.024 13.492-21.111 3.634-5.787 4.989-7.807 6.296-11.477 1.787-5.095 2.288-9.635 2.661-13.147"/><path fill="#f5cdcb" d="M68.672 131.98q-1.467-.498-2.44-1.492a4.93 4.93 0 0 1-1.253-2.306q-.284-1.293.178-2.657t1.474-2.219a4.8 4.8 0 0 1 2.39-1.053q1.385-.215 2.85.282 1.45.491 2.315 1.468a3.74 3.74 0 0 1 1.002 2.259l-2.438.41q-.288-1.505-1.635-1.961-1.04-.353-1.953.099-.913.45-1.312 1.627-.398 1.176.053 2.089.45.913 1.49 1.266 1.365.462 2.491-.563l1.682 1.824q-.864.924-2.163 1.168-1.282.25-2.732-.241m16.112.232q-.017.051-.294.699l-6.938-2.351a2.28 2.28 0 0 0 .43 1.647q.531.732 1.572 1.084.715.242 1.33.222.638-.03 1.271-.329l.896 2.013q-1.799 1.046-4.288.201-1.55-.525-2.542-1.526-.985-1.018-1.27-2.312-.284-1.293.178-2.657.457-1.347 1.451-2.207a4.7 4.7 0 0 1 2.328-1.093q1.333-.233 2.714.235 1.347.456 2.242 1.406a4.4 4.4 0 0 1 1.138 2.248q.267 1.288-.218 2.72m-3.826-4.356q-.904-.306-1.69-.003-.788.303-1.225 1.144l4.518 1.531q.158-.916-.282-1.636-.435-.736-1.321-1.036m7.43.426 2.642.896-1.212 3.58 3.989 1.351 1.213-3.58 2.66.901-3.108 9.172-2.66-.901 1.161-3.427-3.989-1.351-1.16 3.427-2.643-.896zm18.804 8.803-3.103-1.051-2.368 6.99-2.642-.895 2.367-6.99-3.102-1.051.739-2.182 8.848 2.997zm10.222 1.031-3.107 9.172-2.369-.803.889-2.625-1.961-.664-2.628 2.036-2.83-.959 3.113-2.29q-.827-.699-1.102-1.571-.252-.884.089-1.889.549-1.62 2.003-2.096 1.476-.489 3.522.205zm-5.063.698q-.853-.288-1.4-.132-.53.162-.761.844-.23.683.068 1.145.323.451 1.175.74l1.995.676.883-2.609zm12.708 2.595q1.313.444 2.117 1.325a3.86 3.86 0 0 1 1.009 2.014q.216 1.157-.217 2.436-.445 1.312-1.439 2.116-.972.791-2.305.968-1.326.157-2.776-.333-2.404-.815-3.265-2.816-.838-2.014.173-4.997.935-2.762 2.683-3.994 1.771-1.244 4.433-.912l4.659.609-.416 2.406-4.113-.538q-1.673-.225-2.682.231-.993.462-1.574 1.729a4.2 4.2 0 0 1 1.767-.504 4.85 4.85 0 0 1 1.946.26m-2.895 6.469q1.023.346 1.862-.11.856-.451 1.202-1.474.353-1.04-.07-1.868-.406-.821-1.429-1.168-1.04-.353-1.878.048-.84.4-1.191 1.44-.353 1.04.07 1.924.428.867 1.434 1.208m14.728-3.315q1.279.432 2.116 1.382a4.36 4.36 0 0 1 1.094 2.214q.239 1.258-.241 2.674-.48 1.414-1.44 2.287a4.5 4.5 0 0 1-2.214 1.093q-1.236.228-2.515-.206-1.756-.594-2.386-2.044l-1.45 4.28-2.659-.901 4.227-12.48 2.541.861-.358 1.057q1.392-.858 3.285-.217m-2.921 7.106q1.023.347 1.902-.116.902-.474 1.294-1.633.393-1.159-.041-2.066-.411-.919-1.434-1.265-1.023-.347-1.924.127-.879.462-1.272 1.622t.019 2.077q.433.907 1.456 1.254m17.174-2.126-3.108 9.172-2.369-.803.889-2.625-1.96-.664-2.629 2.036-2.83-.959 3.114-2.29q-.827-.698-1.103-1.571-.251-.883.089-1.889.55-1.62 2.003-2.096 1.476-.489 3.522.205zm-5.064.698q-.852-.288-1.4-.132-.53.162-.761.845t.069 1.144q.321.452 1.174.74l1.995.676.884-2.609zm-45.835-37.009q-.335.986-1.622.549-2.805-.95-5.953-3.622-.655-.56-5.263-4.908-5.249 2.277-7.976 1.353-2.198-.745-3.073-2.647-.802-1.622-.237-3.29 1.026-3.03 4.588-1.824 3.561 1.207 7.514 4.995 5.325-2.503 10.358-7.387 5.109-4.858 6.546-9.1 1.772-5.229-3.078-6.871-3.182-1.08-6.581.726-3.73 2.03-5.192 6.35-1.412 4.167 1.24 5.066 1.288.435 2.886-.29 1.623-.801 2.365-2.492.909.307.856.712-.667 1.97-3.456 3.221-2.688 1.201-4.733.508-3.335-1.13-1.563-6.357 1.72-5.077 6.868-7.556 4.767-2.355 9.01-.917 5.607 1.899 3.528 8.037-1.514 4.47-7.13 9.578-5.184 4.58-11.143 7.459 4.81 4.755 5.06 5.009 2.998 2.62 6.181 3.698m-13.67-8.769q-3.575-3.408-5.545-4.075-2.273-.77-2.864.973-.333.985.192 2.176.526 1.192 1.586 1.551 2.577.873 6.632-.625m43.188 7.536q-.385 1.136-2.41 1.379a8.8 8.8 0 0 1-3.919-.398q-2.123-.72-5.145-3.264-2.998-2.62-4.968-3.288-.834-.282-2.606-.038-1.746.169-2.125.041l-.126-.128q.18-.53 2.409-1.126 2.66-.62 4.933.15 1.894.642 5.068 3.491 3.198 2.773 4.487 3.21 1.44.487 2.833.115 1.494-.423 1.419-.449.226.078.15.305m36.417-9.118q-1.725.852-11.617 11.353a107 107 0 0 0-2.975 3.047l4.5.68q-.027.329-.156.707-.359 1.061-1.574 1.156-1.113.045-4.575-.705-5.139 5.692-6.037 8.344-.668 1.97-1.955 1.534-1.668-.565-1.539-.944 1.07-1.665 7.282-9.527-.683.022-5.634-1.571l-6.289-2.13q-.53-.18-.325-.786.154-.455.561-.908 2.203-.52 14.5-5.9 12.322-5.454 12.777-5.554 1.166-.45 2.076-.141 1.287.436.98 1.345m-3.164.364q-.228-.077-1.012-.005-10.091 4.606-24.263 10.532 4.194 1.336 11.445 3.118 11.924-12.01 13.83-13.645"/></g><defs><clipPath id="a"><path fill="#fff" d="M48.446 0 222.97 39.54l-48.445 213.832L0 213.832z"/></clipPath></defs></svg>