<svg xmlns="http://www.w3.org/2000/svg" width="121" height="132" fill="none" viewBox="0 0 121 132"><path fill="#f5cdcb" d="M107.805 63.318c.392-1.62.6-3.204 1.033-6.378.307-2.34.462-3.54.498-5.1.055-2.395.072-3.734-.513-5.403a11.2 11.2 0 0 0-2.345-3.816c-1.487-1.666-3.028-2.486-4.308-3.182-1.901-1.036-3.424-1.449-6.391-2.234a52 52 0 0 0-7.159-1.459c-2.526-.322-4.1-.522-6.296-.407-3.548.182-4.846.982-6.122.03-.317-.237-.717-.644-1.703-3.794-.709-2.263-1.086-3.925-1.245-4.56-.687-2.81-1.822-4.839-4.023-8.934-2.202-4.096-3.244-5.143-4.012-5.76-.351-.284-1.012-.767-2.117-1.691-1.517-1.274-1.638-1.509-2.268-1.894-1.056-.635-2.004-.769-3.523-.963a23.6 23.6 0 0 0-4.73-.093c-2.331.154-3.972.49-6.366.971-2.394.482-3.612.738-5.11 1.354a24 24 0 0 0-3.172 1.638 22 22 0 0 0-2.851 1.935c-1.034.86-2.114 2.031-3.538 4.5a38 38 0 0 0-3.573 8.372 44.6 44.6 0 0 0-1.615 12.414c.07 9.397 1.359 13.768 2.229 22.247 1.262 12.536 1.34 31.722 2.561 37.934q.549 2.658 1.36 5.248.596 1.967 1.452 3.836a24.5 24.5 0 0 0 2.363 4.061 12.5 12.5 0 0 0 2.033 2.349 8.9 8.9 0 0 0 3.091 1.863c1.501.495 2.735.364 4.626.143a22.5 22.5 0 0 0 4.343-.94c4.826-1.639 11.334-7.206 15.607-10.613 2.495-1.995 6.92-5.529 12.966-9.49 2.56-1.68 5.01-3.17 8.516-5.923a70 70 0 0 0 6.295-5.462c1.48-1.462 1.21-1.339 7.989-9.383 2.163-2.57 2.947-3.478 3.83-5.172 1.245-2.38 1.771-4.552 2.184-6.243"/></svg>