<svg xmlns="http://www.w3.org/2000/svg" width="98" height="112" fill="none" viewBox="0 0 98 112"><g clip-path="url(#a)"><path fill="#681f2a" stroke="#f5cdcb" stroke-miterlimit="10" stroke-width="4" d="M90.755 47.57c.15-1.475.15-2.914.149-5.77-.008-2.114-.02-3.184-.17-4.565-.239-2.12-.385-3.314-1.107-4.731a10.4 10.4 0 0 0-2.518-3.101c-1.514-1.295-2.968-1.833-4.184-2.294-1.814-.69-3.21-.867-5.915-1.201a44 44 0 0 0-6.507-.43c-2.275.019-3.69.023-5.605.402-3.124.592-4.174 1.445-5.412.77-.31-.163-.701-.484-1.949-3.157-.908-1.924-1.422-3.34-1.647-3.879-.94-2.395-2.183-4.07-4.62-7.43-2.436-3.361-3.51-4.139-4.266-4.589-.345-.217-.988-.548-2.083-1.238-1.501-.943-1.62-1.133-2.23-1.41-.99-.434-1.846-.442-3.216-.427-1.42.027-2.82.174-4.19.49-2.04.42-3.45.913-5.513 1.63s-3.096 1.086-4.352 1.823c-.91.536-1.79 1.15-2.614 1.822a22 22 0 0 0-2.297 2.056c-.803.886-1.622 2.047-2.596 4.403a33.8 33.8 0 0 0-2.148 7.847c-.495 3.719-.49 7.48.062 11.18 1.2 8.305 2.86 12.024 4.638 19.414 2.618 10.947 4.983 27.919 6.81 33.254a48 48 0 0 0 1.835 4.478 25.5 25.5 0 0 0 1.748 3.229 20.3 20.3 0 0 0 2.589 3.302c.607.695 1.3 1.316 2.085 1.842a7.9 7.9 0 0 0 2.955 1.273c1.382.244 2.457 0 4.108-.439 1.282-.336 2.539-.771 3.738-1.358 4.073-2.026 9.147-7.748 12.519-11.278 1.973-2.06 5.446-5.73 10.321-9.966 2.055-1.81 4.038-3.403 6.821-6.278a61 61 0 0 0 4.906-5.597c1.142-1.46.904-1.328 5.923-9.267 1.596-2.54 2.19-3.427 2.764-5.038.785-2.237 1.004-4.23 1.168-5.772Z"/><path fill="#f5cdcb" d="M88.91 49.474c-1.74-1.416-1.407-4.73.795-5.554 1.218-.467.885-2.167-.404-2.204-.944-.028-1.638-.952-1.663-1.863-.023-1.026.648-1.942 1.43-2.53 1.004-.748.337-2.409-.949-2.05-1.71.495-2.684-1.653-1.209-2.642 1.033-.671.262-2.587-.949-2.049-2.23 1.05-5.035-.073-5.784-2.494-.26-.895-1.652-1.094-2.065-.19-1.184 2.565-4.464 2.518-5.658.019-.552-1.147-2.517-.245-2.047.952.563 1.404-1.3 1.957-2.334 1.816-.517-.07-3.644-.895-3.447-1.663.364-1.403-1.84-1.903-2.204-.5-.586 2.282-4.014 1.761-3.699-.652.112-.903-.564-1.497-1.438-1.324-1.938.374-3.232-1.893-2.031-3.408.678-.845-.032-2.213-1.159-1.841-.827.277-1.722-.274-2.003-1.08-.346-1.03.18-2.12.86-2.87.802-.887-.085-2.086-1.16-1.842-1.631.35-3.451-1.64-2.855-3.247.3-.814-.307-2.02-1.33-1.6-1.146.46-2.639.91-3.8.206-.633-.376-1.124-1.276-.822-1.997.133-.179.245-.362.356-.546.622-1.113-.988-2.29-1.81-1.316-.161.196-.3.397-.42.625-1.238 1.577-3.75 1.31-4.523-.7-.354-.892-1.586-1.079-2.065-.19-.443.83-1.129 1.811-2.123 2.004-.578.101-1.628-.276-1.512-.993.188-1.443-2.017-1.942-2.205-.5-.008.138-.038.27-.018.391-.567.15-1.033.672-.781 1.402.416 1.232-.886 2.376-2.052 1.996-1.38-.452-1.858 1.761-.5 2.208 1.68.566.585 3.452-.037 4.356-.51.72-1.624 1.443-2.573 1.437-.467-.803-1.155-1.446-2.024-1.805-.907-.392-1.99.292-1.66 1.295.311.976.997 1.735 1.84 2.205.192.995-.377 2.073-1.75 2.203-1.04.09-1.344 1.228-.72 1.95 1.132 1.347 2.492 2.909 2.707 4.722.142 1.216-.422 2.991-1.794 3.215-.918.163-1.486 1.242-.72 1.95 1.775 1.678 1.877 4.603.244 6.392-.375.426-.44 1.224.056 1.591 1.583 1.195 2.424 3.312 1.666 5.23-.239.642-.061 1.495.742 1.63 1.563.261 2.43 1.758 2.484 3.256.08 1.898-.885 3.7-1.743 5.339a1.14 1.14 0 0 0 .743 1.63c1.197.342 2.104 1.452 2.098 2.705-.001 1.439-.352 2.474.434 3.812.655 1.1 1.278 2.031 1.444 3.345.172 1.386-.106 2.716-.749 3.916-.437.807.206 1.649 1.057 1.68 1.152.028 1.81 1.315 1.86 2.324.062 1.36-.645 2.64-1.26 3.824-.443.828.215 1.604 1.056 1.678.89.063 1.227 1.23 1.177 1.962-.055.962-.545 1.896-.949 2.756-.472.961.385 1.782 1.33 1.601 1.376-.245 2.132 1.528 1.038 2.371-.879.707-.515 2.066.66 2.1 2.188.055 4.16 2.196 3.912 4.415-.12 1.04 1.111 1.946 1.924 1.016 1.735-1.928 4.323.353 5.666 1.585.688.644 1.987.126 1.889-.872-.21-2.345 1.892-4.771 4.208-3.132 1.041.723 1.904-.73 1.5-1.61-1.597-3.38 1.83-7.153 5.351-5.822 1.001.39 2.116-.542 1.5-1.61-1.376-2.308 1.028-4.944 3.45-3.769.936.468 2.211-.66 1.5-1.61-1-1.317-.998-3.267.226-4.475 1.315-1.304 3.369-1.164 4.798-.213 1.03.674 1.97-.715 1.5-1.61-.605-1.112.377-2.376 1.347-2.876 1.182-.614 2.624-.636 3.933-.687 1.074-.035 1.51-1.654.48-2.12-1.09-.503-.753-2.097.022-2.758 1.211-1.048 3.145-.889 4.61-.812.824.047 1.38-1.08.905-1.745-2.112-2.847 2.337-4.996 4.349-5.794.636-.25 1.073-1.056.615-1.694-1.544-2.184-.29-5.985 2.486-6.471.877.013 1.593-1.102.75-1.78m-5.76 8.445c-1.645.718-3.26 1.606-4.257 3.145-.71 1.092-1.043 2.456-.818 3.714-2.006.056-4.116.577-5.174 2.38-.63 1.041-.792 2.374-.445 3.497-1.432.187-2.826.614-3.885 1.604-.822.766-1.349 1.76-1.474 2.823-1.956-.466-4.106.022-5.576 1.5-1.298 1.33-1.788 3.286-1.43 5.085-1.283.034-2.55.513-3.493 1.506-1.008 1.072-1.382 2.52-1.214 3.927-1.9-.105-3.827.526-5.182 2.007-1.296 1.424-1.809 3.28-1.621 5.11a4.7 4.7 0 0 0-3.125.802c-1.015.698-1.694 1.752-2.02 2.885-.892-.666-1.88-1.215-2.997-1.398-.83-.119-1.652-.073-2.403.175a6.52 6.52 0 0 0-4.098-4.62 3.34 3.34 0 0 0-.049-2.75c-.449-.984-1.257-1.608-2.19-1.89.457-1.196.747-2.477.38-3.72-.302-1.02-.911-1.809-1.75-2.3.738-1.62 1.253-3.384.722-5.13-.384-1.27-1.24-2.3-2.397-2.818.939-2.712.395-5.528-1.177-7.997-.529-.84-.378-1.502-.284-2.432a4.9 4.9 0 0 0-.41-2.484 5.15 5.15 0 0 0-2.112-2.336c.96-1.988 1.774-4.148 1.33-6.384-.345-1.75-1.421-3.34-3.016-4.073.397-2.162-.184-4.406-1.721-6.008 1.41-2.234 1.384-5.188-.013-7.408 1.308-.864 2.087-2.36 2.193-4.053.144-2.173-.977-4.075-2.291-5.743 1.11-.607 1.932-1.675 2.117-3.002.03-.133.033-.248.036-.364 1.461-.11 2.764-.952 3.655-2.12 1.253-1.643 1.946-4.295 1.099-6.181a4.16 4.16 0 0 0 2.066-2.573c.462.313.993.527 1.576.612 1.529.207 2.844-.586 3.812-1.69a4.9 4.9 0 0 0 5.395 1.246c.188.6.524 1.163.973 1.636 1.279 1.312 3.119 1.473 4.844 1.121.175 1.99 1.61 3.731 3.52 4.303-.532 1.226-.639 2.618-.02 3.872.528 1.048 1.47 1.796 2.523 2.058a4.354 4.354 0 0 0 3.877 5.289c.272 1.663 1.427 3.109 3.195 3.486 1.35.283 2.688-.203 3.611-1.109 1.32 1.135 3.57 1.738 4.893 1.828 1.482.104 3.11-.641 3.962-1.841 2.021 1.41 4.917 1.207 6.722-.52 1.174 1.566 3.055 2.572 5.003 2.666-.138.711-.082 1.49.245 2.19a3.48 3.48 0 0 0 1.887 1.798c-.593.98-.892 2.096-.674 3.283.199 1.066.76 1.96 1.552 2.557-1.606 1.772-1.994 4.609-.792 6.669-2.79 1.573-4.28 5.182-3.08 8.17"/><path fill="#f5cdcb" d="M39.104 52.796a6.4 6.4 0 0 1-1.6-.798q-.72-.51-1.084-1.052l1.004-1.077q.356.492.917.926.575.428 1.232.65.5.17.834.178.348.002.554-.126a.66.66 0 0 0 .283-.357.57.57 0 0 0-.074-.536 1.8 1.8 0 0 0-.509-.486 10 10 0 0 0-.763-.49q-.413-.256-.821-.558a4 4 0 0 1-.696-.654 2 2 0 0 1-.41-.812q-.102-.453.095-1.036.212-.626.718-1.023.52-.405 1.3-.477.795-.08 1.825.27a6 6 0 0 1 1.298.625q.615.383 1.015.878l-.955 1.105a4.5 4.5 0 0 0-.876-.773 3.8 3.8 0 0 0-.951-.485q-.49-.165-.841-.157-.352.009-.55.15a.7.7 0 0 0-.277.372.58.58 0 0 0 .074.536q.173.244.512.475.34.232.753.487.423.26.825.547.413.291.71.647t.4.81q.112.455-.082 1.028-.208.615-.725 1.009-.516.394-1.31.474-.783.083-1.825-.27m7.613 2.44.37-1.094-.022-.275.663-1.959q.177-.52-.047-.922-.215-.398-.87-.62a3 3 0 0 0-.935-.154q-.473-.01-.857.128l-.198-1.333a3.7 3.7 0 0 1 1.273-.126q.705.042 1.373.267 1.282.435 1.785 1.279.504.844.07 2.126l-1.084 3.198zm-1.737-.496q-.656-.222-1.05-.6a1.84 1.84 0 0 1-.511-.858q-.12-.47.043-.95.168-.5.536-.793.376-.29.979-.32.605-.038 1.46.252l1.49.504-.322.948-1.313-.444q-.573-.195-.855-.081a.64.64 0 0 0-.367.398.64.64 0 0 0 .07.581q.19.262.617.407.406.137.793.06.39-.09.663-.415l-.004.835q-.36.482-.925.604-.563.123-1.304-.128m4.73 1.51 2.618-7.731 1.625.55-2.619 7.73zm5.886 2.087q-.959-.325-1.56-.947a2.94 2.94 0 0 1-.77-1.399 3 3 0 0 1 .11-1.624q.285-.843.89-1.359a2.9 2.9 0 0 1 1.419-.658 3.3 3.3 0 0 1 1.658.144 3.24 3.24 0 0 1 1.36.856q.55.57.713 1.356.166.777-.14 1.683-.033.095-.085.216l-.095.211-4.553-1.542.322-.948 3.698 1.253-.72.07q.147-.438.08-.821a1.33 1.33 0 0 0-.32-.666 1.47 1.47 0 0 0-.666-.435 1.53 1.53 0 0 0-.803-.063 1.3 1.3 0 0 0-.663.345 1.7 1.7 0 0 0-.438.71l-.085.25q-.155.46-.077.88.091.416.393.726.315.304.815.473.449.153.827.13.39-.02.763-.195l.547 1.23a2.7 2.7 0 0 1-1.198.35q-.66.03-1.422-.226m4.792-1.292 1.29-4.87 1.938.656-1.937 4.651zm-.24 2.834a1.03 1.03 0 0 1-.624-.525.96.96 0 0 1-.055-.762.9.9 0 0 1 .503-.561q.374-.176.811-.028.449.153.627.515a.9.9 0 0 1 .059.751.96.96 0 0 1-.507.572q-.367.19-.814.038"/></g><defs><clipPath id="a"><path fill="#fff" d="M21.266 0 97.88 17.357l-21.267 93.867L0 93.867z"/></clipPath></defs></svg>