<svg xmlns="http://www.w3.org/2000/svg" viewBox="0 0 516.45 292.09"><defs><style>.st0{fill:#181818}</style></defs><g id="Layer_3"><path id="Layer_1" d="M486.66 133.86c.64-4.24.85-8.39 1.26-16.63.28-6.1.4-9.19.16-13.2-.38-6.15-.64-9.62-2.52-13.82a30.1 30.1 0 0 0-6.84-9.32c-4.19-3.96-8.32-5.72-11.77-7.23-5.14-2.25-9.15-2.97-16.93-4.33q-9.285-1.785-18.75-2.19c-6.58-.28-10.67-.47-16.26.34-9.11 1.25-12.27 3.56-15.75 1.43-.87-.52-1.96-1.5-5.18-9.4-2.35-5.68-3.63-9.85-4.2-11.43-2.37-7.05-5.73-12.06-12.29-22.12s-9.56-12.46-11.68-13.86c-.97-.68-2.78-1.73-5.84-3.88-4.2-2.94-4.52-3.51-6.24-4.4-2.8-1.4-5.27-1.54-9.24-1.7-4.11-.13-8.18.09-12.18.8-5.96.91-10.11 2.13-16.17 3.9s-9.11 2.68-12.84 4.63a61.5 61.5 0 0 0-7.82 4.88c-2.44 1.69-4.73 3.57-6.93 5.6-2.45 2.44-4.98 5.67-8.14 12.33-3.36 7.14-5.79 14.62-7.34 22.33-1.96 10.66-2.49 21.52-1.42 32.28 2.28 24.14 6.54 35.12 10.62 56.71 6 31.97 10.4 81.3 14.92 96.97 1.34 4.45 2.88 8.89 4.66 13.19 1.32 3.29 2.8 6.49 4.59 9.57 2 3.55 4.33 6.85 7.01 9.91 1.66 2.09 3.57 3.99 5.76 5.62 2.45 1.91 5.32 3.32 8.36 4.11 3.96.9 7.1.36 11.94-.67 3.75-.78 7.45-1.86 11-3.38 12.07-5.25 27.55-21.02 37.81-30.72 6-5.66 16.56-15.74 31.27-27.25 6.2-4.92 12.16-9.23 20.62-17.12 5.29-4.84 10.34-10.01 14.99-15.44 3.51-4.04 2.8-3.7 18.45-25.88 4.98-7.1 6.82-9.57 8.71-14.14 2.59-6.34 3.51-12.06 4.21-16.49" style="fill:#f4cdcb"/></g><g id="Layer_11" data-name="Layer_1"><g id="Layer_2"><path d="M112.88 167.83q0 .525-1.32 1.41c-7.22 4.87-12.09 7.3-14.61 7.3q-2.46 0-2.46-2.82c0-1.06.21-2.11.62-3.17.59-1.47.88-2.23.88-2.29 0-.23-.09-.35-.26-.35-.06 0-.21.06-.44.18-1.29 1.29-3.17 2.85-5.63 4.66-3.17 2.35-5.37 3.52-6.6 3.52-1.41 0-2.11-.7-2.11-2.11 0-.82 1.03-3.09 3.08-6.82s3.08-5.88 3.08-6.47c0-.64-.53-.97-1.58-.97-.23 0-.35-.35-.35-1.06.53-.18 1.08-.26 1.67-.26 2.05 0 3.08.59 3.08 1.76q0 1.935-2.73 6.51c-1.82 3.05-2.73 4.96-2.73 5.72 0 .47.2.7.62.7.94 0 3.24-1.55 6.91-4.66s6.5-5.92 8.49-8.45c.88-.88 1.52-1.32 1.94-1.32q1.14 0 1.14 1.14c0 .41-.21.94-.62 1.58-3.52 5.28-5.28 8.71-5.28 10.3 0 1.47.67 2.2 2.02 2.2 2.05 0 5.78-1.85 11.18-5.54.29-.23.7-.5 1.23-.79.18-.18.35-.26.53-.26s.26.12.26.35Z" class="st0"/><path d="M138.84 176.54q-2.46 0-2.46-2.82c0-1.11.21-2.17.62-3.17.59-1.41.88-2.17.88-2.29 0-.23-.09-.35-.26-.35.06 0-.09.06-.44.18-.65.65-1.44 1.35-2.38 2.11s-2.02 1.61-3.26 2.55c-3.11 2.35-5.31 3.52-6.6 3.52-1.41 0-2.11-.7-2.11-2.11 0-.41.23-1.08.7-2.02s1.2-2.35 2.2-4.22c.06 0-.09.06-.44.18-.65.65-1.44 1.35-2.38 2.11s-2.02 1.61-3.26 2.55c-3.11 2.35-5.31 3.52-6.6 3.52-1.41 0-2.11-.7-2.11-2.11 0-.76 1.03-3.02 3.08-6.78 2.05-3.81 3.08-5.98 3.08-6.51 0-.64-.53-.97-1.58-.97-.23 0-.35-.35-.35-1.06.53-.18 1.08-.26 1.67-.26 2.05 0 3.08.59 3.08 1.76q0 1.935-2.73 6.51c-1.82 3.05-2.73 4.96-2.73 5.72 0 .47.2.7.62.7.94 0 3.23-1.55 6.86-4.66 1.41-1.17 2.77-2.51 4.09-4q1.98-2.25 3.21-4.44c.88-.88 1.52-1.32 1.94-1.32q1.14 0 1.14 1.14c0 .47-.21 1-.62 1.58-.12.29-.46 1-1.01 2.11-.56 1.12-1.16 2.29-1.8 3.52-.65 1.23-1.23 2.39-1.76 3.48s-.79 1.72-.79 1.89c0 .47.21.7.62.7.94 0 3.23-1.55 6.86-4.66 3.64-2.99 6.48-5.81 8.54-8.45.88-.88 1.52-1.32 1.94-1.32q1.14 0 1.14 1.14c0 .47-.21 1-.62 1.58-3.52 5.28-5.28 8.71-5.28 10.3 0 1.47.67 2.2 2.02 2.2 1 0 2.08-.22 3.26-.66 1.17-.44 2.26-1.1 3.26-1.98.23-.23.65-.5 1.23-.79.18-.18.35-.26.53-.26s.26.12.26.35q0 .525-1.32 1.41c-1.88 1.47-3.68 2.57-5.41 3.3s-3.24 1.1-4.53 1.1m6.87-3.17.7-.7-.09.62c0 2.4-.26 4.85-.79 7.35-.53 2.49-1.5 4.5-2.9 6.03-1.23 1.06-2.67 1.44-4.31 1.14-1.64-.29-3.31-1.09-5.02-2.38-.06-.12-.12-.22-.18-.31a.54.54 0 0 1-.09-.31c-.12-.23-.16-.43-.13-.57.03-.15.04-.28.04-.4.23-.06.47.06.7.35.59.53 1.23.94 1.94 1.23.7.29 1.44.45 2.2.48s1.48-.09 2.16-.35c.67-.26 1.28-.69 1.8-1.28.88-1.06 1.52-2.02 1.94-2.9.41-.88.73-1.76.97-2.64.23-.88.4-1.75.48-2.6.09-.85.25-1.74.48-2.68l.09-.09Zm35.73-5.54q0 .525-1.32 1.41c-7.22 4.87-12.09 7.3-14.61 7.3q-2.46 0-2.46-2.82c0-1.06.21-2.11.62-3.17.59-1.47.88-2.23.88-2.29 0-.23-.09-.35-.26-.35-.06 0-.21.06-.44.18-1.29 1.29-3.17 2.85-5.63 4.66-3.17 2.35-5.37 3.52-6.6 3.52-1.41 0-2.11-.7-2.11-2.11 0-.82 1.03-3.09 3.08-6.82s3.08-5.88 3.08-6.47c0-.64-.53-.97-1.58-.97-.23 0-.35-.35-.35-1.06.53-.18 1.08-.26 1.67-.26 2.05 0 3.08.59 3.08 1.76q0 1.935-2.73 6.51c-1.82 3.05-2.73 4.96-2.73 5.72 0 .47.2.7.62.7.94 0 3.24-1.55 6.91-4.66s6.5-5.92 8.49-8.45c.88-.88 1.52-1.32 1.94-1.32q1.14 0 1.14 1.14c0 .41-.21.94-.62 1.58-3.52 5.28-5.28 8.71-5.28 10.3 0 1.47.67 2.2 2.02 2.2 2.05 0 5.78-1.85 11.18-5.54.29-.23.7-.5 1.23-.79.18-.18.35-.26.53-.26s.26.12.26.35Zm23.23 4.84c-.18.24-.41.54-.7.92q-.435.57-.84 1.14c-.26.38-.51.7-.75.97-.24.26-.41.4-.53.4q-1.14 0-1.14-1.23c0-.29.2-.88.62-1.76.7-1 1.41-1.96 2.11-2.9s1.38-1.91 2.02-2.9c2.05-2.93 3.08-5.02 3.08-6.25 0-.53-.18-.79-.53-.79-.23 0-.59.12-1.06.35-1.53 1.11-3.33 2.46-5.41 4.05q-3.12 2.37-7.35 5.46h-.62c-.41 0-.62-.06-.62-.18s.32-.41.97-.88c2.05-1.64 4.21-3.33 6.47-5.06s4.65-3.53 7.17-5.41c.65-.59 1.55-.88 2.73-.88s1.76.53 1.76 1.58c0 1.17-.85 3.05-2.55 5.63-.12.23-.26.46-.44.66-.18.21-.32.43-.44.66h1.67c.65 0 1.38-.03 2.2-.09 1.41-.12 2.61-.12 3.61 0 .23-.41.47-.82.7-1.23s.5-.85.79-1.32c.64-1 1.28-1.91 1.89-2.73.62-.82 1.25-1.55 1.89-2.2.41-.53 1.06-.79 1.94-.79.47.12.7.26.7.44l-3.08 5.1c-2.05 3.4-3.08 5.87-3.08 7.39 0 1.82.79 2.73 2.38 2.73 1.99 0 4.9-1.73 8.71-5.19.18-.18.35-.26.53-.26s.26.12.26.35c0 .35-.59.94-1.76 1.76-1.88 1.64-3.58 2.89-5.1 3.74-1.53.85-2.96 1.28-4.31 1.28-2.64 0-3.96-1.11-3.96-3.34 0-1.47.32-2.96.97-4.49-.7-.06-1.54-.09-2.51-.09s-2.04.06-3.21.18c-.82.06-1.35.09-1.58.09h-.53c-.82 1.17-1.54 2.29-2.16 3.34s-.92 1.64-.92 1.76Z" class="st0"/><path d="M257.82 167.83q0 1.05-5.46 4.05c-3.81 2.11-6.54 3.17-8.18 3.17-3.05 0-4.58-1.61-4.58-4.84 0-.88.47-1.88 1.41-2.99q0-.09-.09-.09c.06 0-1.53 1.22-4.75 3.65-3.23 2.44-5.54 3.65-6.95 3.65s-2.02-.56-2.02-1.67q0-4.05 6.78-9.42c4.28-3.46 7.63-5.19 10.03-5.19.35.06.75.25 1.19.57q.66.48.66.75 0 .09-.09.18c-3.29 0-7.48 2.55-12.58 7.66q-2.46 2.46-2.46 4.14c0 .41.2.62.62.62 1.29 0 3.75-1.5 7.39-4.49 2.93-2.46 5.02-4.43 6.25-5.9.59-.7 1-1.06 1.23-1.06.59 0 .88.41.88 1.23 0 .29-.38.97-1.14 2.02q-3.78 5.19-3.78 6.6 0 2.46 2.73 2.46c2.99 0 7.04-1.73 12.14-5.19.18-.18.35-.26.53-.26s.26.12.26.35Z" class="st0"/><path d="M276.83 167.83c0 .24-.44.7-1.32 1.41-2.35 1.53-4.66 3.05-6.95 4.58-3.34 1.99-6.07 2.99-8.18 2.99-1.23 0-2.32-.44-3.26-1.32s-1.41-1.88-1.41-2.99c0-3.87 1.88-7.42 5.63-10.65 3.34-2.87 6.45-4.31 9.33-4.31 1.82 0 2.73.73 2.73 2.2 0 .82-1.2 2.44-3.61 4.84-.23.23-.5.35-.79.35-.47 0-.7-.26-.7-.79 0-.23.09-.43.26-.57.18-.15.53-.79 1.06-1.94.53-1.14.79-2.01.79-2.6 0-.18-.21-.26-.62-.26-1.47 0-3.61 1.2-6.42 3.61-3.4 2.88-5.1 5.84-5.1 8.89 0 2.23.97 3.34 2.9 3.34 2.99 0 7.54-2.02 13.64-6.07.29-.23.7-.5 1.23-.79.18-.18.35-.26.53-.26s.26.12.26.35Zm39.42 0q0 .435-1.32 1.41l-12.14 8.98c-.12 4.52-2.23 10.53-6.34 18.04-3.81 7.04-8.18 13.26-13.11 18.65-5.22 5.69-9.33 8.51-12.32 8.45-1 0-1.85-.35-2.55-1.06-.7-.7-1.06-1.58-1.06-2.64q0-6.51 7.92-17.16c4.05-5.28 9.06-10.77 15.05-16.46 5.28-4.93 8.27-7.39 8.98-7.39 0-.35-.09-.68-.26-.97-.82-1.47-1.97-2.2-3.43-2.2-.59 0-1.23.12-1.94.35-1.41.47-2.26.7-2.55.7-.18 0-.29-.12-.35-.35 0-.59.58-1.12 1.76-1.58 1.88-.82 4.14-2.38 6.78-4.66 3.11-2.76 4.66-4.99 4.66-6.69q0-1.5-1.41-1.5-1.23 0-5.37 2.82c-2.17 1.58-4.34 3.17-6.51 4.75-.18.18-.35.26-.53.26-.12 0-.18-.32-.18-.97.18-.12 1.23-.92 3.17-2.42s3.92-3.05 5.94-4.66 3.86-2.42 5.5-2.42c2.11 0 3.17 1.12 3.17 3.34 0 2.7-3.46 6.31-10.38 10.82-.41.41-.62.7-.62.88 0 .24.21.35.62.35 2.58 0 4.28.76 5.1 2.29 1.35-.76 3.49-2.32 6.42-4.66 2.7-2.11 4.87-3.58 6.51-4.4.18-.18.35-.26.53-.26s.26.12.26.35Zm-16.46 12.67c0-.23-.03-.35-.09-.35-1.29 0-4.37 2.46-9.24 7.39q-7.74 7.74-13.38 15.93c-4.52 6.63-6.78 11.79-6.78 15.49 0 1.35.44 2.02 1.32 2.02 1.76 0 4.99-2.54 9.68-7.61a99.8 99.8 0 0 0 12.32-16.41c4.11-6.81 6.16-12.29 6.16-16.46Z" class="st0"/><path d="M342.38 167.83c-.24.76-2.26 2.27-6.07 4.53s-7.07 4.27-9.77 6.03c-8.39 16.43-13.61 26.34-15.66 29.74q-8.715 14.43-14.52 14.43c-1.76 0-2.64-1.14-2.64-3.43q0-20.235 30.54-40.83c1.35-2.64 3.81-7.66 7.39-15.05q0-.09-.18-.09c-.18 0-.32.15-.62.44-1.17 1.12-2.73 2.55-4.66 4.31-4.17 3.87-7.57 5.81-10.21 5.81-1.23 0-1.85-.73-1.85-2.2 0-2.64 1.91-5.69 5.72-9.15 4.11-3.75 8.12-5.63 12.06-5.63 1.11 0 2.05.23 2.82.7l1.85-2.55c.41-.53.82-.79 1.23-.79q1.14 0 1.14 1.23c0 .41-.15.82-.44 1.23-2.76 4.11-6.37 10.62-10.82 19.54 2.99-1.88 5.72-3.46 8.18-4.75 2.93-1.7 4.84-2.9 5.72-3.61.18-.18.35-.26.53-.26s.26.12.26.35m-19.36 13.02c-17.89 12.67-26.84 25.2-26.84 37.58 0 1.52.5 2.29 1.5 2.29 3.75 0 12.2-13.29 25.34-39.86Zm11.09-22.35c0-.23-.26-.35-.79-.35q-4.755 0-10.38 4.53c-3.75 3.02-5.63 5.71-5.63 8.05 0 .7.32 1.06.97 1.06 2.41 0 7.54-4.19 15.4-12.58.29-.41.44-.65.44-.7Z" class="st0"/><path d="M363.15 167.83c0 .41-1.2 1.38-3.61 2.9-5.93 3.76-10.18 5.63-12.76 5.63-3.81 0-5.72-2.23-5.72-6.69 0-3.29 1.6-6.58 4.8-9.9 3.2-3.31 6.23-4.97 9.11-4.97q1.32 0 1.32 1.23c0 2-1.73 4.81-5.19 8.45-2.76 2.88-5.02 4.84-6.78 5.9.18 2.58 1.41 3.87 3.7 3.87 2.17 0 5.81-1.47 10.91-4.4.41-.23 1.55-.94 3.43-2.11.18-.18.35-.26.53-.26s.26.12.26.35m-9.59-10.12c0-.7-.21-1.06-.62-1.06-1.47 0-3.26 1.47-5.37 4.4s-3.2 5.57-3.26 7.92c1.11-.35 2.87-1.88 5.28-4.58q3.96-4.395 3.96-6.69Z" class="st0"/><path d="M382.07 167.83c0 .24-.44.7-1.32 1.41-2.35 1.53-4.66 3.05-6.95 4.58-3.34 1.99-6.07 2.99-8.18 2.99-1.23 0-2.32-.44-3.26-1.32s-1.41-1.88-1.41-2.99c0-3.87 1.88-7.42 5.63-10.65 3.34-2.87 6.45-4.31 9.33-4.31 1.82 0 2.73.73 2.73 2.2 0 .82-1.2 2.44-3.61 4.84-.23.23-.5.35-.79.35-.47 0-.7-.26-.7-.79 0-.23.09-.43.26-.57.18-.15.53-.79 1.06-1.94.53-1.14.79-2.01.79-2.6 0-.18-.21-.26-.62-.26-1.47 0-3.61 1.2-6.42 3.61-3.4 2.88-5.1 5.84-5.1 8.89 0 2.23.97 3.34 2.9 3.34 2.99 0 7.54-2.02 13.64-6.07.29-.23.7-.5 1.23-.79.18-.18.35-.26.53-.26s.26.12.26.35Z" class="st0"/><path d="M383.39 171c0 1.58.64 2.38 1.94 2.38.94 0 1.88-.26 2.82-.79s1.85-1.2 2.73-2.02c-.88-.88-1.32-1.96-1.32-3.26 0-1.41.4-2.62 1.19-3.65s1.69-1.54 2.68-1.54 1.58.47 1.76 1.41c0 .88-.15 1.83-.44 2.86s-.82 2.13-1.58 3.3c.88.88 2.11 1.32 3.7 1.32 1.94 0 3.93-.79 5.98-2.38.18-.18.32-.26.44-.26.18 0 .26.12.26.35 0 .47-.32.91-.97 1.32s-1.39.79-2.24 1.14-1.72.63-2.6.84-1.55.31-2.02.31c-.82 0-1.47-.1-1.94-.31s-.97-.51-1.5-.92c-1.23 1.47-2.64 2.61-4.22 3.43s-3.11 1.23-4.58 1.23c-1.12 0-1.94-.46-2.46-1.36-.53-.91-.79-1.95-.79-3.12 0-.76.34-1.99 1.01-3.7.67-1.7 1.51-3.43 2.51-5.19q1.5-2.64 3.3-4.62t3.3-1.98c.47.12.7.26.7.44 0 .06-.48.73-1.45 2.02s-1.95 2.79-2.95 4.49-1.79 3.3-2.38 4.8-.88 2.66-.88 3.48Zm10.82-7.13c.23-.12.25-.22.04-.31s-.43-.13-.66-.13c-.47 0-.92.32-1.36.97q-.66.975-.66 2.55c0 .88.21 1.61.62 2.2.7-.88 1.22-1.8 1.54-2.77s.48-1.74.48-2.33zm16.99 9.33c0 .65-.35 1.26-1.06 1.85-.7.59-1.32.88-1.85.88-1.12 0-1.73-.59-1.85-1.76 0-.82.32-1.47.97-1.94.64-.47 1.26-.7 1.85-.7 1.29 0 1.94.56 1.94 1.67m3.96-12.41c0 .65-.35 1.26-1.06 1.85-.7.59-1.32.88-1.85.88-1.12 0-1.73-.59-1.85-1.76 0-.82.32-1.47.97-1.94.64-.47 1.26-.7 1.85-.7 1.29 0 1.94.56 1.94 1.67m-391.4-27.53c0 .12-.07.18-.22.18-.44-.03-1.35-.04-2.73-.04h-5.98c-1.38 0-2.3.01-2.77.04q-.18 0-.18-.18c0-.18.06-.18.18-.18.65 0 1.15-.12 1.52-.35s.55-.59.55-1.06c0-.59-.31-1.36-.92-2.33l-3.92-5.98-4.05 5.98c-.65 1-.97 1.77-.97 2.33 0 .94.67 1.41 2.02 1.41.15 0 .22.06.22.18s-.07.18-.22.18c-.47-.03-1.39-.04-2.77-.04h-.57c-1.38 0-2.29.01-2.73.04-.15 0-.22-.06-.22-.18s.07-.18.22-.18c.88 0 1.62-.26 2.22-.77s1.39-1.5 2.35-2.97l4.31-6.29-3.7-5.68c-.97-1.47-1.72-2.46-2.27-2.97-.54-.51-1.21-.77-2-.77q-.18 0-.18-.18c0-.18.06-.18.18-.18l2.46.04h6.03l2.99-.04c.15 0 .22.06.22.18s-.07.18-.22.18c-.7 0-1.25.12-1.65.37s-.59.62-.59 1.12c0 .62.29 1.36.88 2.24l3.04 4.66 3.21-4.66c.62-.91.92-1.67.92-2.29 0-.5-.2-.86-.59-1.1s-.95-.35-1.65-.35c-.18 0-.26-.06-.26-.18s.09-.18.26-.18l2.99.04h.62l2.73-.04c.15 0 .22.06.22.18s-.07.18-.22.18c-.91 0-1.67.26-2.27.79s-1.39 1.51-2.35 2.95l-3.43 5.02 4.53 6.95c.94 1.44 1.71 2.42 2.31 2.95s1.34.79 2.22.79c.15 0 .22.06.22.18Z" class="st0"/><path d="M28.14 132.79c-1.63-.86-2.9-2.09-3.83-3.67s-1.39-3.39-1.39-5.41.53-3.92 1.58-5.61c1.06-1.69 2.5-3.01 4.33-3.98s3.85-1.45 6.05-1.45c2.05 0 3.91.43 5.57 1.3s2.96 2.08 3.89 3.63c.94 1.56 1.41 3.33 1.41 5.32s-.54 3.94-1.61 5.65c-1.07 1.72-2.54 3.07-4.4 4.05s-3.91 1.47-6.14 1.47c-2.02 0-3.85-.43-5.48-1.3Zm11.83-1.18c.95-.95 1.43-2.35 1.43-4.2s-.46-3.77-1.39-5.94q-1.38-3.255-3.48-5.52c-1.39-1.51-2.75-2.27-4.07-2.27q-2.46 0-3.87 1.41c-.94.94-1.41 2.35-1.41 4.22 0 1.76.45 3.73 1.36 5.92s2.06 4.03 3.45 5.54 2.73 2.27 4.03 2.27c1.67 0 2.98-.48 3.94-1.43Zm32.89 1.65c0 .12-.07.18-.22.18-.44-.03-1.35-.04-2.73-.04h-5.24c-1.38 0-2.29.01-2.73.04-.15 0-.22-.06-.22-.18s.07-.18.22-.18c.97 0 1.68-.32 2.13-.97s.68-1.75.68-3.3v-5.63c-.94.97-2.06 1.72-3.37 2.24-1.31.53-2.68.79-4.11.79-2.14 0-3.9-.54-5.28-1.61s-2.07-2.82-2.07-5.26v-1.45c0-1.55-.23-2.65-.68-3.3-.46-.65-1.17-.97-2.13-.97-.15 0-.22-.06-.22-.18s.07-.18.22-.18l2.73.04h5.24l2.73-.04c.15 0 .22.06.22.18s-.07.18-.22.18c-.97 0-1.68.32-2.13.97-.46.65-.68 1.75-.68 3.3v2.02c0 1.85.43 3.18 1.28 3.98.85.81 1.88 1.21 3.08 1.21q1.41 0 2.79-.66c1.38-.66 1.8-1.1 2.62-1.98v-4.58c0-1.55-.23-2.65-.68-3.3-.46-.65-1.17-.97-2.13-.97-.15 0-.22-.06-.22-.18s.07-.18.22-.18l2.73.04h5.24l2.73-.04c.15 0 .22.06.22.18s-.07.18-.22.18c-.97 0-1.68.32-2.13.97-.46.65-.68 1.75-.68 3.3v10.91c0 1.56.23 2.66.68 3.3.45.65 1.17.97 2.13.97.15 0 .22.06.22.18Zm21.54-3.74c.07.06.08.13.02.22a11.16 11.16 0 0 1-4.14 3.21c-1.61.73-3.3 1.1-5.06 1.1-1.85 0-3.56-.43-5.15-1.28a9.5 9.5 0 0 1-3.76-3.63c-.92-1.57-1.39-3.38-1.39-5.43s.51-3.89 1.52-5.59 2.38-3.04 4.11-4.03c1.73-.98 3.62-1.47 5.68-1.47 2.29 0 4.19.62 5.72 1.87 1.52 1.25 2.29 2.94 2.29 5.08 0 .97-.18 2.01-.53 3.12-3.08.06-7.8.19-14.17.4.5 1.61 1.27 3.06 2.31 4.33 1.04 1.28 2.24 2.27 3.59 2.99q2.025 1.08 3.96 1.08c2.14 0 3.75-.67 4.84-2.02.03-.03.08-.01.15.04Zm-14.08-14.55c-.87 1.01-1.3 2.53-1.3 4.55 0 1 .15 2.08.44 3.26 1.67-.03 3.64-.1 5.9-.22.59-.03 1.19-.06 1.83-.09.63-.03 1.27-.04 1.91-.04.26-.44.4-.98.4-1.63 0-.97-.27-2.03-.81-3.19s-1.23-2.14-2.07-2.95-1.68-1.21-2.53-1.21c-1.64 0-2.9.51-3.76 1.52Zm52.95 18.29c0 .12-.07.18-.22.18-.47-.03-1.39-.04-2.77-.04H99.52c-1.38 0-2.3.01-2.77.04-.15 0-.22-.06-.22-.18s.07-.18.22-.18c.97 0 1.69-.32 2.16-.97s.7-1.75.7-3.3V117.9c0-1.55-.24-2.65-.7-3.3-.47-.65-1.19-.97-2.16-.97-.15 0-.22-.06-.22-.18s.07-.18.22-.18l2.77.04h4.97l2.6-.04c.15 0 .22.06.22.18s-.07.18-.22.18c-.94 0-1.62.32-2.05.97s-.64 1.75-.64 3.3v15.18h8.05V117.9c0-1.55-.21-2.65-.64-3.3s-1.11-.97-2.05-.97c-.15 0-.22-.06-.22-.18s.07-.18.22-.18l2.6.04h5.02l2.6-.04c.15 0 .22.06.22.18s-.07.18-.22.18c-.94 0-1.62.32-2.05.97s-.64 1.75-.64 3.3v15.18h8.05V117.9c0-1.55-.21-2.65-.64-3.3s-1.11-.97-2.05-.97c-.15 0-.22-.06-.22-.18s.07-.18.22-.18l2.6.04h5.02l2.77-.04c.15 0 .22.06.22.18s-.07.18-.22.18c-.97 0-1.69.32-2.16.97s-.7 1.75-.7 3.3v10.91c0 1.56.23 2.66.7 3.3.47.65 1.19.97 2.16.97.15 0 .22.06.22.18Zm13.65-11.36c6.01-.09 9.02 1.75 9.02 5.5 0 1.94-.7 3.42-2.11 4.44-1.41 1.03-3.51 1.54-6.29 1.54h-9.24c-1.38 0-2.3.01-2.77.04-.15 0-.22-.06-.22-.18s.07-.18.22-.18c.97 0 1.69-.32 2.16-.97s.7-1.75.7-3.3v-10.91c0-1.55-.24-2.65-.7-3.3-.47-.65-1.19-.97-2.16-.97-.15 0-.22-.06-.22-.18s.07-.18.22-.18l2.77.04h5.24l2.73-.04c.15 0 .22.06.22.18s-.07.18-.22.18c-.97 0-1.68.32-2.13.97-.46.65-.68 1.75-.68 3.3v3.56c0 .32.13.48.4.48l3.08-.04Zm-.71 11.14c1.41-.03 2.5-.54 3.28-1.54s1.17-2.33 1.17-4-.4-2.93-1.19-3.85-1.94-1.37-3.43-1.34l-2.2.04c-.26 0-.4.16-.4.48v9.06c0 .47.06.79.18.95s.35.24.7.24zm46.9.22c0 .12-.07.18-.22.18-.44-.03-1.35-.04-2.73-.04h-5.24c-1.29 0-2.16.01-2.6.04-.15 0-.22-.06-.22-.18s.07-.18.22-.18c.94 0 1.62-.32 2.05-.97s.64-1.75.64-3.3v-15.18h-9.5v15.18c0 1.56.21 2.66.64 3.3.42.65 1.11.97 2.05.97.15 0 .22.06.22.18s-.07.18-.22.18c-.44-.03-1.31-.04-2.6-.04h-5.24c-1.38 0-2.3.01-2.77.04-.15 0-.22-.06-.22-.18s.07-.18.22-.18c.97 0 1.69-.32 2.16-.97s.7-1.75.7-3.3V117.9c0-1.55-.24-2.65-.7-3.3-.47-.65-1.19-.97-2.16-.97-.15 0-.22-.06-.22-.18s.07-.18.22-.18l2.77.04h19.8l2.6-.04c.15 0 .22.06.22.18s-.07.18-.22.18c-.94 0-1.62.32-2.05.97-.42.65-.64 1.75-.64 3.3v10.91c0 1.56.23 2.66.68 3.3.45.65 1.17.97 2.13.97.15 0 .22.06.22.18Zm7.29-.47a9.53 9.53 0 0 1-3.83-3.67c-.92-1.58-1.39-3.39-1.39-5.41s.53-3.92 1.58-5.61c1.06-1.69 2.5-3.01 4.33-3.98s3.85-1.45 6.05-1.45c2.05 0 3.91.43 5.57 1.3s2.96 2.08 3.89 3.63c.94 1.56 1.41 3.33 1.41 5.32s-.54 3.94-1.61 5.65c-1.07 1.72-2.54 3.07-4.4 4.05s-3.91 1.47-6.14 1.47c-2.02 0-3.85-.43-5.48-1.3Zm11.83-1.18c.95-.95 1.43-2.35 1.43-4.2s-.46-3.77-1.39-5.94q-1.38-3.255-3.48-5.52c-1.39-1.51-2.75-2.27-4.07-2.27q-2.46 0-3.87 1.41c-.94.94-1.41 2.35-1.41 4.22 0 1.76.45 3.73 1.36 5.92s2.06 4.03 3.45 5.54 2.74 2.27 4.03 2.27c1.67 0 2.98-.48 3.94-1.43Zm24.66-7.37c-.06.15-.14.21-.24.2s-.12-.11-.07-.29c.15-.59.22-1.16.22-1.72 0-1.35-.32-2.72-.97-4.11q-.975-2.085-2.55-3.45c-1.06-.91-2.17-1.36-3.34-1.36q-5.19 0-5.19 5.94c0 2.17.5 4.19 1.5 6.05s2.29 3.34 3.89 4.42c1.6 1.09 3.22 1.63 4.86 1.63 2.11 0 3.72-.67 4.84-2.02.12-.12.21-.14.26-.07q.09.105 0 .24c-2.32 2.9-5.38 4.36-9.2 4.36-1.88 0-3.61-.43-5.19-1.28q-2.37-1.275-3.81-3.63c-.95-1.57-1.43-3.38-1.43-5.43s.51-3.84 1.52-5.54q1.515-2.55 4.11-4.05c1.73-1 3.61-1.5 5.63-1.5q2.115 0 3.96.57c1.23.38 2.18.87 2.84 1.47s.92 1.2.77 1.78l-2.42 7.79Zm30.41 9.02c0 .12-.07.18-.22.18-.44-.03-1.35-.04-2.73-.04h-5.24c-1.29 0-2.16.01-2.6.04-.15 0-.22-.06-.22-.18s.07-.18.22-.18c.94 0 1.62-.32 2.05-.97s.64-1.75.64-3.3v-15.18h-9.5v15.18c0 1.56.21 2.66.64 3.3.42.65 1.11.97 2.05.97.15 0 .22.06.22.18s-.07.18-.22.18c-.44-.03-1.31-.04-2.6-.04h-5.24c-1.38 0-2.3.01-2.77.04-.15 0-.22-.06-.22-.18s.07-.18.22-.18c.97 0 1.69-.32 2.16-.97s.7-1.75.7-3.3V117.9c0-1.55-.24-2.65-.7-3.3-.47-.65-1.19-.97-2.16-.97-.15 0-.22-.06-.22-.18s.07-.18.22-.18l2.77.04h19.8l2.6-.04c.15 0 .22.06.22.18s-.07.18-.22.18c-.94 0-1.62.32-2.05.97-.42.65-.64 1.75-.64 3.3v10.91c0 1.56.23 2.66.68 3.3.45.65 1.17.97 2.13.97.15 0 .22.06.22.18Zm25.6 0c0 .12-.07.18-.22.18-.47-.03-1.38-.04-2.73-.04h-5.24c-1.38 0-2.3.01-2.77.04-.15 0-.22-.06-.22-.18s.07-.18.22-.18c.97 0 1.69-.32 2.16-.97s.7-1.75.7-3.3v-15.18h-8.93c-.12 2.38-.41 6.88-.88 13.51-.12 2.14-.45 3.84-.99 5.08-.54 1.25-1.49 1.87-2.84 1.87-1.58 0-2.38-.44-2.38-1.32 0-.18.01-.31.04-.4l1.06-4.18c.06-.15.13-.21.22-.2.09.02.13.1.13.24q.045 1.89.48 2.55c.29.44.78.66 1.45.66 1.47 0 2.3-1.44 2.51-4.31l.57-9.24.04-.88c0-1.2-.22-2.07-.66-2.6s-1.1-.79-1.98-.79c-.15 0-.22-.06-.22-.18s.07-.18.22-.18l2.73.04h14.56l2.73-.04c.15 0 .22.06.22.18s-.07.18-.22.18c-.97 0-1.68.32-2.13.97-.46.65-.68 1.75-.68 3.3v10.91c0 1.56.23 2.66.68 3.3.45.65 1.17.97 2.13.97.15 0 .22.06.22.18Zm21.5-3.74c.07.06.08.13.02.22a11.16 11.16 0 0 1-4.14 3.21c-1.61.73-3.3 1.1-5.06 1.1-1.85 0-3.56-.43-5.15-1.28a9.5 9.5 0 0 1-3.76-3.63c-.92-1.57-1.39-3.38-1.39-5.43s.51-3.89 1.52-5.59 2.38-3.04 4.11-4.03c1.73-.98 3.62-1.47 5.68-1.47 2.29 0 4.19.62 5.72 1.87 1.52 1.25 2.29 2.94 2.29 5.08 0 .97-.18 2.01-.53 3.12-3.08.06-7.8.19-14.17.4.5 1.61 1.27 3.06 2.31 4.33 1.04 1.28 2.24 2.27 3.59 2.99q2.025 1.08 3.96 1.08c2.14 0 3.75-.67 4.84-2.02.03-.03.08-.01.15.04Zm-14.08-14.55c-.87 1.01-1.3 2.53-1.3 4.55 0 1 .15 2.08.44 3.26 1.67-.03 3.64-.1 5.9-.22.59-.03 1.19-.06 1.83-.09.63-.03 1.27-.04 1.91-.04.26-.44.4-.98.4-1.63 0-.97-.27-2.03-.81-3.19s-1.23-2.14-2.07-2.95-1.68-1.21-2.53-1.21c-1.64 0-2.9.51-3.76 1.52Zm36.41 6.14q-.135 0-.18-.18c-1.09-4.08-2.29-6.35-3.61-6.82-.26-.21-1.29-.31-3.08-.31-.18 0-.32.1-.44.29s-.18.43-.18.73v13.99c0 1.56.23 2.66.68 3.3.45.65 1.17.97 2.13.97.15 0 .22.06.22.18s-.07.18-.22.18c-.44-.03-1.35-.04-2.73-.04h-5.24c-1.38 0-2.29.01-2.73.04-.15 0-.22-.06-.22-.18s.07-.18.22-.18c.97 0 1.68-.32 2.13-.97s.68-1.75.68-3.3v-13.99c0-.29-.06-.54-.18-.73s-.26-.29-.44-.29c-1.79 0-2.82.1-3.08.31-1.32.47-2.52 2.74-3.61 6.82q-.045.18-.18.18c-.135 0-.12-.06-.09-.18.35-2.61.53-5 .53-7.17 0-.47.19-.7.57-.7.18 0 .68.06 1.52.18s2.49.18 4.95.18h5.06c2.38 0 4-.06 4.88-.18s1.42-.18 1.63-.18c.35 0 .53.24.53.7 0 2.17.18 4.56.53 7.17q.045.18-.09.18Zm28.38 12.15c0 .12-.07.18-.22.18-.44-.03-1.35-.04-2.73-.04h-5.24c-1.29 0-2.16.01-2.6.04-.15 0-.22-.06-.22-.18s.07-.18.22-.18c.94 0 1.62-.32 2.05-.97.42-.65.64-1.75.64-3.3v-5.76c0-.35-.13-.51-.4-.48-1.56.24-3.1.35-4.62.35s-3.07-.12-4.62-.35h-.04c-.18 0-.26.16-.26.48v5.76c0 1.56.21 2.66.64 3.3.42.65 1.11.97 2.05.97.15 0 .22.06.22.18s-.07.18-.22.18c-.44-.03-1.31-.04-2.6-.04h-5.24c-1.38 0-2.3.01-2.77.04-.15 0-.22-.06-.22-.18s.07-.18.22-.18c.97 0 1.69-.32 2.16-.97s.7-1.75.7-3.3V117.9c0-1.55-.24-2.65-.7-3.3-.47-.65-1.19-.97-2.16-.97-.15 0-.22-.06-.22-.18s.07-.18.22-.18l2.77.04h5.24l2.6-.04c.15 0 .22.06.22.18s-.07.18-.22.18c-.94 0-1.62.32-2.05.97s-.64 1.75-.64 3.3v3.83c0 .32.1.5.31.53 1.5.23 2.99.35 4.49.35 1.58 0 3.17-.12 4.75-.35.15-.03.25-.09.31-.18s.09-.2.09-.35v-3.83c0-1.55-.21-2.65-.64-3.3s-1.11-.97-2.05-.97c-.15 0-.22-.06-.22-.18s.07-.18.22-.18l2.6.04h5.24l2.73-.04c.15 0 .22.06.22.18s-.07.18-.22.18c-.97 0-1.68.32-2.13.97-.46.65-.68 1.75-.68 3.3v10.91c0 1.56.23 2.66.68 3.3.45.65 1.17.97 2.13.97.15 0 .22.06.22.18Zm28.82 0c0 .12-.07.18-.22.18-.44-.03-1.35-.04-2.73-.04h-5.24c-1.38 0-2.29.01-2.73.04-.15 0-.22-.06-.22-.18s.07-.18.22-.18c.97 0 1.68-.32 2.13-.97s.68-1.75.68-3.3v-10.6l-10.52 10.56v.04c0 1.56.23 2.66.68 3.3.45.65 1.17.97 2.13.97.15 0 .22.06.22.18s-.07.18-.22.18c-.47-.03-1.38-.04-2.73-.04h-5.24c-1.38 0-2.3.01-2.77.04-.15 0-.22-.06-.22-.18s.07-.18.22-.18c.97 0 1.69-.32 2.16-.97s.7-1.75.7-3.3v-10.87c0-1.55-.24-2.66-.7-3.32q-.705-.99-2.16-.99c-.15 0-.22-.06-.22-.18s.07-.18.22-.18c.94.06 1.86.09 2.77.09h5.24q1.32 0 2.73-.09c.15 0 .22.06.22.18s-.07.18-.22.18q-1.455 0-2.13.99c-.46.66-.68 1.77-.68 3.32v10.25l10.52-10.56c-.03-1.47-.27-2.5-.73-3.1s-1.15-.9-2.09-.9c-.15 0-.22-.06-.22-.18s.07-.18.22-.18q1.32.09 2.73.09h5.24q1.41 0 2.73-.09c.15 0 .22.06.22.18s-.07.18-.22.18q-1.455 0-2.13.99c-.46.66-.68 1.77-.68 3.32v10.87c0 1.56.23 2.66.68 3.3.45.65 1.17.97 2.13.97.15 0 .22.06.22.18Zm27.14 0c0 .12-.07.18-.22.18-.44-.03-1.35-.04-2.73-.04h-5.24c-1.38 0-2.29.01-2.73.04-.15 0-.22-.06-.22-.18s.07-.18.22-.18c.97 0 1.68-.32 2.13-.97s.68-1.75.68-3.3v-5.63c-.94.97-2.06 1.72-3.37 2.24-1.31.53-2.68.79-4.11.79-2.14 0-3.9-.54-5.28-1.61s-2.07-2.82-2.07-5.26v-1.45c0-1.55-.23-2.65-.68-3.3-.46-.65-1.17-.97-2.13-.97-.15 0-.22-.06-.22-.18s.07-.18.22-.18l2.73.04h5.24l2.73-.04c.15 0 .22.06.22.18s-.07.18-.22.18c-.97 0-1.68.32-2.13.97-.46.65-.68 1.75-.68 3.3v2.02c0 1.85.43 3.18 1.28 3.98.85.81 1.88 1.21 3.08 1.21q1.41 0 2.79-.66c1.38-.66 1.8-1.1 2.62-1.98v-4.58c0-1.55-.23-2.65-.68-3.3-.46-.65-1.17-.97-2.13-.97-.15 0-.22-.06-.22-.18s.07-.18.22-.18l2.73.04h5.24l2.73-.04c.15 0 .22.06.22.18s-.07.18-.22.18c-.97 0-1.68.32-2.13.97-.46.65-.68 1.75-.68 3.3v10.91c0 1.56.23 2.66.68 3.3.45.65 1.17.97 2.13.97.15 0 .22.06.22.18Zm24.6-7.62c.09 0 .13.07.13.22 0 2.23-.48 4.14-1.43 5.72s-2.19 2.38-3.72 2.38c-1.12 0-2.05-.37-2.82-1.12s-1.19-1.87-1.28-3.37q-1.05 2.205-2.79 3.39c-1.74 1.185-2.43 1.19-3.81 1.19-2.32 0-4.03-.65-5.15-1.96-1.11-1.31-1.67-2.82-1.67-4.55s.77-3.06 2.31-4.09 3.47-1.54 5.79-1.54c.79 0 1.68.07 2.66.22s1.87.34 2.66.57v-1.94c0-4.52-1.96-6.78-5.9-6.78-1.61 0-2.99.53-4.11 1.58-1.13 1.06-1.69 2.64-1.69 4.75 0 .12-.03.21-.09.26q-.09.09-.18.09c-.12 0-.18-.12-.18-.35q0-2.46 1.23-4.2a7.77 7.77 0 0 1 3.17-2.62c1.29-.59 2.65-.88 4.09-.88 5.81 0 8.71 2.71 8.71 8.14v7.22c0 1.94.5 2.9 1.5 2.9s1.6-.43 1.89-1.3c.29-.86.47-2.1.53-3.72 0-.15.04-.22.13-.22Zm-9.11.66v-.26c-.32-1.06-.94-1.9-1.85-2.53s-1.91-.95-2.99-.95c-2.9 0-4.36 1.12-4.36 3.34 0 1.5.42 2.81 1.28 3.94.85 1.13 2.05 1.69 3.61 1.69 2.87 0 4.31-1.74 4.31-5.24Zm29.44-5.19q-.135 0-.18-.18c-1.09-4.08-2.29-6.35-3.61-6.82-.26-.21-1.29-.31-3.08-.31-.18 0-.32.1-.44.29s-.18.43-.18.73v13.99c0 1.56.23 2.66.68 3.3.45.65 1.17.97 2.13.97.15 0 .22.06.22.18s-.07.18-.22.18c-.44-.03-1.35-.04-2.73-.04h-5.24c-1.38 0-2.29.01-2.73.04-.15 0-.22-.06-.22-.18s.07-.18.22-.18c.97 0 1.68-.32 2.13-.97s.68-1.75.68-3.3v-13.99c0-.29-.06-.54-.18-.73s-.26-.29-.44-.29c-1.79 0-2.82.1-3.08.31-1.32.47-2.52 2.74-3.61 6.82q-.045.18-.18.18c-.135 0-.12-.06-.09-.18.35-2.61.53-5 .53-7.17 0-.47.19-.7.57-.7.18 0 .68.06 1.52.18s2.49.18 4.95.18h5.06c2.38 0 4-.06 4.88-.18s1.42-.18 1.63-.18c.35 0 .53.24.53.7 0 2.17.18 4.56.53 7.17q.045.18-.09.18Zm13.81.79c6.01-.09 9.02 1.75 9.02 5.5 0 1.94-.7 3.42-2.11 4.44-1.41 1.03-3.51 1.54-6.29 1.54h-9.24c-1.38 0-2.3.01-2.77.04-.15 0-.22-.06-.22-.18s.07-.18.22-.18c.97 0 1.69-.32 2.16-.97s.7-1.75.7-3.3v-10.91c0-1.55-.24-2.65-.7-3.3-.47-.65-1.19-.97-2.16-.97-.15 0-.22-.06-.22-.18s.07-.18.22-.18l2.77.04h5.24l2.73-.04c.15 0 .22.06.22.18s-.07.18-.22.18c-.97 0-1.68.32-2.13.97-.46.65-.68 1.75-.68 3.3v3.56c0 .32.13.48.4.48l3.08-.04Zm-.7 11.14c1.41-.03 2.5-.54 3.28-1.54s1.17-2.33 1.17-4-.4-2.93-1.19-3.85-1.94-1.37-3.43-1.34l-2.2.04c-.26 0-.4.16-.4.48v9.06c0 .47.06.79.18.95s.35.24.7.24zm20.53-12.01c.54-1.14 1.39-2.42 2.53-3.83q1.5-1.89 2.22-3.3c.48-.94.73-2.07.73-3.39 0-2.26-.59-3.99-1.76-5.19s-2.73-1.8-4.66-1.8c-4.4 0-7 2.05-7.79 6.16-.03.15-.08.26-.15.35s-.14.13-.2.13-.11-.04-.15-.13a.46.46 0 0 1-.02-.31c.35-1.5 1.06-2.84 2.11-4.03 1.06-1.19 2.35-2.11 3.87-2.77s3.14-.99 4.84-.99c1.85 0 3.53.33 5.06.99s2.74 1.61 3.63 2.86 1.34 2.71 1.34 4.38q0 1.935-.81 3.3c-.54.91-1.21 1.67-2 2.27s-1.85 1.28-3.17 2.05c-1.32.76-2.37 1.44-3.15 2.02-.78.59-1.44 1.34-1.98 2.24-.54.91-.81 2-.81 3.26 0 .18-.06.27-.18.29s-.18-.07-.18-.24c-.09-1.73.14-3.17.68-4.31Zm-3.35 12.31c-.51-.35-.77-.79-.77-1.32q0-1.05 1.14-1.83c.76-.51 1.72-.77 2.86-.77.85 0 1.53.18 2.05.55.51.37.77.83.77 1.39q0 .975-1.14 1.74c-.76.51-1.72.77-2.86.77-.85 0-1.53-.18-2.05-.53" class="st0"/></g></g></svg>