<svg width="355" height="130" viewBox="0 0 355 130" fill="none" xmlns="http://www.w3.org/2000/svg">
<path d="M278.042 61.3178C278.435 59.6976 278.643 58.114 279.076 54.9394C279.383 52.5999 279.537 51.3993 279.574 49.8408C279.629 47.4448 279.645 46.1061 279.06 44.4368C278.544 43.02 277.746 41.7221 276.716 40.6208C275.229 38.9547 273.687 38.1344 272.408 37.4392C270.506 36.4029 268.983 35.9899 266.016 35.2044C263.667 34.5508 261.275 34.0635 258.858 33.7462C256.332 33.4235 254.758 33.2243 252.562 33.3386C249.013 33.5209 247.716 34.3207 246.44 33.3697C246.123 33.132 245.723 32.7253 244.737 29.5746C244.028 27.312 243.651 25.6503 243.491 25.0141C242.805 22.2055 241.67 20.1761 239.468 16.0806C237.266 11.985 236.224 10.9374 235.456 10.3201C235.105 10.0371 234.444 9.55432 233.34 8.6296C231.822 7.35545 231.701 7.1209 231.071 6.73631C230.016 6.10049 229.067 5.96738 227.549 5.77268C225.979 5.58315 224.394 5.55217 222.818 5.68022C220.488 5.83375 218.846 6.16951 216.453 6.65117C214.059 7.13282 212.84 7.38849 211.343 8.00536C210.246 8.4722 209.186 9.01966 208.17 9.64325C207.171 10.2133 206.218 10.86 205.319 11.5775C204.286 12.4382 203.206 13.6092 201.782 16.0773C200.259 18.7147 199.06 21.5256 198.208 24.4494C197.089 28.4912 196.546 32.6705 196.593 36.8641C196.663 46.2611 197.952 50.6323 198.822 59.1112C200.085 71.6473 200.163 90.8329 201.384 97.0453C201.749 98.816 202.203 100.567 202.743 102.292C203.14 103.603 203.625 104.884 204.195 106.129C204.851 107.555 205.642 108.915 206.559 110.19C207.136 111.054 207.819 111.843 208.591 112.539C209.484 113.365 210.536 113.999 211.683 114.402C213.184 114.896 214.418 114.766 216.308 114.545C217.783 114.376 219.238 114.061 220.651 113.605C225.478 111.966 231.985 106.399 236.259 102.992C238.753 100.997 243.179 97.4633 249.224 93.5013C251.785 91.8211 254.234 90.3318 257.74 87.5792C259.946 85.8859 262.048 84.0619 264.035 82.117C265.516 80.655 265.245 80.7783 272.025 72.7344C274.188 70.164 274.972 69.2558 275.854 67.562C277.1 65.1812 277.625 63.01 278.039 61.3192" fill="#F5CDCB"/>
<path d="M67.4112 55.656C67.4112 56.008 66.5019 56.6827 64.6832 57.68C62.7766 58.736 61.4126 59.264 60.5912 59.264C59.0659 59.264 58.3032 58.4573 58.3032 56.844C58.3032 56.404 58.5379 55.9053 59.0072 55.348C59.0072 55.3187 58.9926 55.304 58.9632 55.304C58.9926 55.304 58.2006 55.92 56.5872 57.152C54.9739 58.3547 53.8152 58.956 53.1112 58.956C52.4366 58.956 52.0992 58.6773 52.0992 58.12C52.0992 56.7707 53.2286 55.2013 55.4872 53.412C57.6286 51.6813 59.3006 50.816 60.5032 50.816C60.6792 50.8453 60.8699 50.948 61.0752 51.124C61.3099 51.2707 61.4272 51.388 61.4272 51.476C61.4272 51.5053 61.4126 51.5347 61.3832 51.564C59.7406 51.564 57.6432 52.84 55.0912 55.392C54.2699 56.2133 53.8592 56.9027 53.8592 57.46C53.8592 57.6653 53.9619 57.768 54.1672 57.768C54.8126 57.768 56.0446 57.02 57.8632 55.524C59.3299 54.292 60.3712 53.3093 60.9872 52.576C61.2806 52.224 61.4859 52.048 61.6032 52.048C61.8966 52.048 62.0432 52.2533 62.0432 52.664C62.0432 52.8107 61.8526 53.148 61.4712 53.676C60.2099 55.4067 59.5792 56.5067 59.5792 56.976C59.5792 57.7973 60.0339 58.208 60.9432 58.208C62.4392 58.208 64.4632 57.3427 67.0152 55.612C67.1032 55.524 67.1912 55.48 67.2792 55.48C67.3672 55.48 67.4112 55.5387 67.4112 55.656ZM87.1377 55.656C87.1377 55.8027 86.9177 56.0373 86.4777 56.36L80.4057 60.848C80.347 63.1067 79.291 66.1133 77.2377 69.868C75.331 73.388 73.1457 76.4973 70.6817 79.196C68.071 82.0413 66.0177 83.4493 64.5217 83.42C64.023 83.42 63.5977 83.244 63.2457 82.892C62.8937 82.54 62.7177 82.1 62.7177 81.572C62.7177 79.4013 64.0377 76.5413 66.6777 72.992C68.7017 70.352 71.2097 67.6093 74.2017 64.764C76.8417 62.3 78.3377 61.068 78.6897 61.068C78.6897 60.892 78.6457 60.7307 78.5577 60.584C78.147 59.8507 77.575 59.484 76.8417 59.484C76.5483 59.484 76.2257 59.5427 75.8737 59.66C75.1697 59.8947 74.7443 60.012 74.5977 60.012C74.5097 60.012 74.451 59.9533 74.4217 59.836C74.4217 59.5427 74.715 59.2787 75.3017 59.044C76.2403 58.6333 77.3697 57.856 78.6897 56.712C80.2443 55.3333 81.0217 54.2187 81.0217 53.368C81.0217 52.8693 80.787 52.62 80.3177 52.62C79.907 52.62 79.0123 53.0893 77.6337 54.028C76.5483 54.82 75.463 55.612 74.3777 56.404C74.2897 56.492 74.2017 56.536 74.1137 56.536C74.055 56.536 74.0257 56.3747 74.0257 56.052C74.1137 55.9933 74.6417 55.5973 75.6097 54.864C76.5777 54.1013 77.5603 53.324 78.5577 52.532C79.5843 51.7107 80.5083 51.3 81.3297 51.3C82.3857 51.3 82.9137 51.8573 82.9137 52.972C82.9137 54.3213 81.183 56.1253 77.7217 58.384C77.5163 58.5893 77.4137 58.736 77.4137 58.824C77.4137 58.9413 77.5163 59 77.7217 59C79.0123 59 79.863 59.3813 80.2737 60.144C80.9483 59.7627 82.019 58.9853 83.4857 57.812C84.835 56.756 85.9203 56.0227 86.7417 55.612C86.8297 55.524 86.9177 55.48 87.0057 55.48C87.0937 55.48 87.1377 55.5387 87.1377 55.656ZM78.9097 61.992C78.9097 61.8747 78.895 61.816 78.8657 61.816C78.2203 61.816 76.6803 63.048 74.2457 65.512C71.6643 68.0933 69.435 70.748 67.5577 73.476C65.299 76.7907 64.1697 79.372 64.1697 81.22C64.1697 81.8947 64.3897 82.232 64.8297 82.232C65.7097 82.232 67.323 80.956 69.6697 78.404C72.0163 75.8813 74.0697 73.1533 75.8297 70.22C77.883 66.8173 78.9097 64.0747 78.9097 61.992ZM91.0299 58.076C90.9419 58.1933 90.8246 58.3547 90.6779 58.56C90.5313 58.736 90.3846 58.912 90.2379 59.088C90.1206 59.2933 90.0033 59.4547 89.8859 59.572C89.7686 59.7187 89.6806 59.792 89.6219 59.792C89.2406 59.792 89.0499 59.5867 89.0499 59.176C89.0499 59.0293 89.1526 58.736 89.3579 58.296C89.7099 57.7973 90.0619 57.3133 90.4139 56.844C90.7659 56.3747 91.1033 55.8907 91.4259 55.392C92.4526 53.9253 92.9659 52.884 92.9659 52.268C92.9659 52.004 92.8779 51.872 92.7019 51.872C92.5846 51.872 92.4086 51.9307 92.1739 52.048C91.4113 52.6053 90.5019 53.28 89.4459 54.072C88.4193 54.864 87.2019 55.7733 85.7939 56.8H85.4859C85.2806 56.8 85.1779 56.7707 85.1779 56.712C85.1779 56.6533 85.3393 56.5067 85.6619 56.272C86.6886 55.4507 87.7593 54.6147 88.8739 53.764C90.0179 52.884 91.2206 51.9747 92.4819 51.036C92.8046 50.7427 93.2593 50.596 93.8459 50.596C94.4326 50.596 94.7259 50.86 94.7259 51.388C94.7259 51.9747 94.3006 52.9133 93.4499 54.204C93.3913 54.3213 93.3179 54.4387 93.2299 54.556C93.1419 54.644 93.0686 54.7467 93.0099 54.864C93.2446 54.864 93.5233 54.864 93.8459 54.864C94.1686 54.864 94.5353 54.8493 94.9459 54.82C95.6499 54.7613 96.2513 54.7613 96.7499 54.82C96.8673 54.6147 96.9846 54.4093 97.1019 54.204C97.2193 53.9987 97.3513 53.7787 97.4979 53.544C97.8206 53.0453 98.1286 52.5907 98.4219 52.18C98.7446 51.7693 99.0673 51.4027 99.3899 51.08C99.5953 50.816 99.9179 50.684 100.358 50.684C100.593 50.7427 100.71 50.816 100.71 50.904C100.71 50.904 100.197 51.7547 99.1699 53.456C98.1433 55.1573 97.6299 56.3893 97.6299 57.152C97.6299 58.0613 98.0259 58.516 98.8179 58.516C99.8153 58.516 101.267 57.6507 103.174 55.92C103.262 55.832 103.35 55.788 103.438 55.788C103.526 55.788 103.57 55.8467 103.57 55.964C103.57 56.14 103.277 56.4333 102.69 56.844C101.751 57.6653 100.901 58.296 100.138 58.736C99.3753 59.1467 98.6566 59.352 97.9819 59.352C96.6619 59.352 96.0019 58.7947 96.0019 57.68C96.0019 56.9467 96.1633 56.1987 96.4859 55.436C96.1339 55.4067 95.7086 55.392 95.2099 55.392C94.7406 55.392 94.2126 55.4213 93.6259 55.48C93.2153 55.5093 92.9513 55.524 92.8339 55.524C92.7166 55.524 92.6286 55.524 92.5699 55.524C92.1593 56.1107 91.7926 56.668 91.4699 57.196C91.1766 57.724 91.0299 58.0173 91.0299 58.076ZM117.599 55.656C117.599 56.008 116.689 56.6827 114.871 57.68C112.964 58.736 111.6 59.264 110.779 59.264C109.253 59.264 108.491 58.4573 108.491 56.844C108.491 56.404 108.725 55.9053 109.195 55.348C109.195 55.3187 109.18 55.304 109.151 55.304C109.18 55.304 108.388 55.92 106.775 57.152C105.161 58.3547 104.003 58.956 103.299 58.956C102.624 58.956 102.287 58.6773 102.287 58.12C102.287 56.7707 103.416 55.2013 105.675 53.412C107.816 51.6813 109.488 50.816 110.691 50.816C110.867 50.8453 111.057 50.948 111.263 51.124C111.497 51.2707 111.615 51.388 111.615 51.476C111.615 51.5053 111.6 51.5347 111.571 51.564C109.928 51.564 107.831 52.84 105.279 55.392C104.457 56.2133 104.047 56.9027 104.047 57.46C104.047 57.6653 104.149 57.768 104.355 57.768C105 57.768 106.232 57.02 108.051 55.524C109.517 54.292 110.559 53.3093 111.175 52.576C111.468 52.224 111.673 52.048 111.791 52.048C112.084 52.048 112.231 52.2533 112.231 52.664C112.231 52.8107 112.04 53.148 111.659 53.676C110.397 55.4067 109.767 56.5067 109.767 56.976C109.767 57.7973 110.221 58.208 111.131 58.208C112.627 58.208 114.651 57.3427 117.203 55.612C117.291 55.524 117.379 55.48 117.467 55.48C117.555 55.48 117.599 55.5387 117.599 55.656ZM130.822 55.656C130.822 56.184 129.487 57.2107 126.818 58.736C125.644 59.4107 124.471 59.748 123.298 59.748C121.919 59.748 121.23 59.1613 121.23 57.988C121.23 57.2547 121.743 56.316 122.77 55.172C123.65 54.204 124.134 53.72 124.222 53.72C123.694 53.72 123.283 53.412 122.99 52.796C122.696 52.18 122.476 51.872 122.33 51.872C122.212 51.872 122.051 51.9747 121.846 52.18C121.435 52.796 120.643 53.5733 119.47 54.512C118.854 55.0107 117.988 55.6413 116.874 56.404C116.786 56.492 116.698 56.536 116.61 56.536C116.551 56.536 116.522 56.3747 116.522 56.052C116.668 55.964 117.196 55.5827 118.106 54.908C120.159 53.3827 121.816 51.6667 123.078 49.76C123.312 49.3787 123.62 49.188 124.002 49.188C124.178 49.188 124.266 49.276 124.266 49.452C124.266 49.5693 124.207 49.8333 124.09 50.244C123.972 50.6253 123.914 50.904 123.914 51.08C123.914 51.608 124.192 52.0773 124.75 52.488C125.336 52.8987 125.63 53.1773 125.63 53.324C125.63 53.588 125.175 54.1307 124.266 54.952C123.386 55.744 122.946 56.492 122.946 57.196C122.946 58.2227 123.415 58.736 124.354 58.736C125.234 58.736 126.392 58.296 127.83 57.416C128.68 56.8293 129.546 56.228 130.426 55.612C130.514 55.524 130.602 55.48 130.69 55.48C130.778 55.48 130.822 55.5387 130.822 55.656ZM145.111 55.656C145.111 55.832 144.891 56.0667 144.451 56.36C140.843 58.7947 138.408 60.012 137.147 60.012C136.326 60.012 135.915 59.5427 135.915 58.604C135.915 58.076 136.018 57.548 136.223 57.02C136.516 56.2867 136.663 55.9053 136.663 55.876C136.663 55.7587 136.619 55.7 136.531 55.7C136.502 55.7 136.428 55.7293 136.311 55.788C135.666 56.4333 134.727 57.2107 133.495 58.12C131.911 59.2933 130.811 59.88 130.195 59.88C129.491 59.88 129.139 59.528 129.139 58.824C129.139 58.4133 129.652 57.284 130.679 55.436C131.706 53.5587 132.219 52.4733 132.219 52.18C132.219 51.8573 131.955 51.696 131.427 51.696C131.31 51.696 131.251 51.52 131.251 51.168C131.515 51.08 131.794 51.036 132.087 51.036C133.114 51.036 133.627 51.3293 133.627 51.916C133.627 52.5613 133.172 53.6467 132.263 55.172C131.354 56.6973 130.899 57.6507 130.899 58.032C130.899 58.2667 131.002 58.384 131.207 58.384C131.676 58.384 132.82 57.6067 134.639 56.052C136.487 54.4973 137.91 53.0893 138.907 51.828C139.347 51.388 139.67 51.168 139.875 51.168C140.256 51.168 140.447 51.3587 140.447 51.74C140.447 51.9453 140.344 52.2093 140.139 52.532C138.379 55.172 137.499 56.888 137.499 57.68C137.499 58.4133 137.836 58.78 138.511 58.78C139.538 58.78 141.4 57.856 144.099 56.008C144.246 55.8907 144.451 55.7587 144.715 55.612C144.803 55.524 144.891 55.48 144.979 55.48C145.067 55.48 145.111 55.5387 145.111 55.656ZM171.654 55.656C171.654 55.832 171.434 56.0667 170.994 56.36C168.911 57.768 167.752 58.5453 167.518 58.692C166.198 59.484 165.098 59.88 164.218 59.88C163.719 59.88 163.294 59.704 162.942 59.352C162.619 59 162.458 58.5747 162.458 58.076C162.458 56.6093 163.396 54.512 165.274 51.784C165.42 51.5787 165.494 51.4467 165.494 51.388C165.494 51.3587 165.479 51.344 165.45 51.344C165.332 51.344 165.127 51.4467 164.834 51.652C163.191 52.884 161.372 54.248 159.378 55.744C158.527 56.4773 157.28 57.504 155.638 58.824C155.403 59 155.08 59.1613 154.67 59.308C154.464 59.308 154.362 59.1613 154.362 58.868C154.362 58.2813 154.846 57.3427 155.814 56.052C156.811 54.732 157.31 53.808 157.31 53.28C157.31 52.7813 157.075 52.532 156.606 52.532C155.902 52.532 154.494 53.4853 152.382 55.392C150.944 56.6827 149.683 57.9293 148.598 59.132C148.187 59.572 147.864 59.792 147.63 59.792C147.248 59.792 147.058 59.5867 147.058 59.176C147.058 59.0587 147.16 58.7653 147.366 58.296C148.07 57.328 148.759 56.36 149.434 55.392C150.46 53.9253 150.974 52.884 150.974 52.268C150.974 52.004 150.886 51.872 150.71 51.872C150.622 51.872 150.446 51.9307 150.182 52.048C148.686 53.1627 146.559 54.7467 143.802 56.8H143.494C143.288 56.8 143.186 56.7707 143.186 56.712C143.186 56.624 143.347 56.4773 143.67 56.272C145.723 54.6587 147.996 52.9133 150.49 51.036C150.842 50.7427 151.296 50.596 151.854 50.596C152.44 50.596 152.734 50.86 152.734 51.388C152.734 51.5053 152.704 51.6813 152.646 51.916C152.059 52.9427 151.311 54.248 150.402 55.832C150.284 56.0373 150.226 56.1693 150.226 56.228C150.226 56.2573 150.255 56.272 150.314 56.272L150.446 56.228C151.531 55.2893 152.616 54.3507 153.702 53.412C155.374 52.004 156.576 51.3 157.31 51.3C158.278 51.3 158.762 51.608 158.762 52.224C158.762 52.752 158.468 53.5587 157.882 54.644C157.324 55.7 157.046 56.272 157.046 56.36C157.046 56.448 157.075 56.492 157.134 56.492C157.251 56.492 157.456 56.3893 157.75 56.184L166.902 49.276C167.195 49.0413 167.503 48.924 167.826 48.924C168.031 48.924 168.178 48.968 168.266 49.056C168.354 49.1147 168.398 49.232 168.398 49.408C168.398 49.6133 168.339 49.7893 168.222 49.936C167.4 51.1093 166.564 52.2973 165.714 53.5C164.716 55.0253 164.218 56.3453 164.218 57.46C164.218 58.164 164.599 58.5013 165.362 58.472C166.271 58.4427 167.298 58.076 168.442 57.372C169.38 56.7853 170.319 56.1987 171.258 55.612C171.346 55.524 171.434 55.48 171.522 55.48C171.61 55.48 171.654 55.5387 171.654 55.656ZM195.296 53.456C195.296 53.896 194.959 54.2773 194.284 54.6C193.609 54.9227 192.905 55.084 192.172 55.084C191.351 55.084 190.265 54.82 188.916 54.292C187.567 53.7347 186.511 53.456 185.748 53.456C185.425 53.456 184.971 53.6027 184.384 53.896C183.797 54.16 183.431 54.292 183.284 54.292L183.196 54.248C183.196 54.0427 183.548 53.7053 184.252 53.236C185.103 52.708 185.968 52.444 186.848 52.444C187.581 52.444 188.667 52.752 190.104 53.368C191.541 53.9547 192.509 54.248 193.008 54.248C193.565 54.248 194.064 54.1013 194.504 53.808C194.973 53.4853 195.193 53.324 195.164 53.324C195.252 53.324 195.296 53.368 195.296 53.456ZM219.292 55.656C219.175 56.0373 218.163 56.8 216.256 57.944C214.35 59.0587 212.722 60.056 211.372 60.936C207.178 69.1493 204.567 74.1067 203.54 75.808C200.636 80.6187 198.216 83.024 196.28 83.024C195.4 83.024 194.96 82.452 194.96 81.308C194.96 74.5613 200.05 67.756 210.228 60.892C210.903 59.572 212.135 57.064 213.924 53.368C213.924 53.3387 213.895 53.324 213.836 53.324C213.778 53.324 213.675 53.3973 213.528 53.544C212.942 54.1013 212.164 54.82 211.196 55.7C209.114 57.636 207.412 58.604 206.092 58.604C205.476 58.604 205.168 58.2373 205.168 57.504C205.168 56.184 206.122 54.6587 208.028 52.928C210.082 51.0507 212.091 50.112 214.056 50.112C214.614 50.112 215.083 50.2293 215.464 50.464L216.388 49.188C216.594 48.924 216.799 48.792 217.004 48.792C217.386 48.792 217.576 48.9973 217.576 49.408C217.576 49.6133 217.503 49.8187 217.356 50.024C215.978 52.0773 214.174 55.3333 211.944 59.792C213.44 58.8533 214.804 58.0613 216.036 57.416C217.503 56.5653 218.456 55.964 218.896 55.612C218.984 55.524 219.072 55.48 219.16 55.48C219.248 55.48 219.292 55.5387 219.292 55.656ZM215.156 50.992C215.156 50.8747 215.024 50.816 214.76 50.816C213.176 50.816 211.446 51.5787 209.568 53.104C207.691 54.6 206.752 55.9347 206.752 57.108C206.752 57.46 206.914 57.636 207.236 57.636C208.439 57.636 211.006 55.5387 214.936 51.344C215.083 51.1387 215.156 51.0213 215.156 50.992ZM209.612 62.168C200.666 68.504 196.192 74.7667 196.192 80.956C196.192 81.7187 196.442 82.1 196.94 82.1C198.818 82.1 203.042 75.456 209.612 62.168ZM242.692 55.92C242.692 56.008 242.53 56.1693 242.208 56.404C241.914 56.6387 241.548 56.888 241.108 57.152C240.668 57.416 240.213 57.68 239.744 57.944C239.274 58.208 238.878 58.4427 238.556 58.648C237.705 59.176 236.928 59.5573 236.224 59.792C235.549 60.0267 234.962 60.144 234.464 60.144C233.848 60.144 233.305 59.924 232.836 59.484C232.366 59.044 232.132 58.5453 232.132 57.988C232.132 57.108 232.366 56.228 232.836 55.348C233.334 54.4387 233.95 53.632 234.684 52.928C235.446 52.224 236.253 51.652 237.104 51.212C237.984 50.7427 238.82 50.508 239.612 50.508C240.081 50.508 240.433 50.596 240.668 50.772C240.902 50.948 241.078 51.212 241.196 51.564C241.254 51.7107 241.21 52.004 241.064 52.444C240.946 52.884 240.506 53.236 239.744 53.5C239.626 53.5587 239.538 53.5293 239.48 53.412C239.45 53.2947 239.48 53.192 239.568 53.104C239.92 52.7813 240.11 52.488 240.14 52.224C240.169 51.96 240.14 51.7547 240.052 51.608C239.964 51.432 239.846 51.3147 239.7 51.256C239.553 51.1973 239.48 51.1973 239.48 51.256C239.48 51.168 239.377 51.124 239.172 51.124C238.732 51.124 238.174 51.3293 237.5 51.74C236.854 52.1507 236.224 52.664 235.608 53.28C234.992 53.896 234.464 54.5707 234.024 55.304C233.613 56.0373 233.408 56.7267 233.408 57.372C233.408 58.4867 233.892 59.044 234.86 59.044C235.622 59.044 236.561 58.8387 237.676 58.428C238.82 58.0173 240.154 57.2987 241.68 56.272C241.738 56.2133 241.87 56.1107 242.076 55.964C242.31 55.8173 242.472 55.744 242.56 55.744C242.648 55.744 242.692 55.8027 242.692 55.92ZM227.82 53.676C227.878 52.9427 227.79 52.4293 227.556 52.136C227.35 51.8133 226.998 51.652 226.5 51.652C225.737 51.652 224.813 52.0187 223.728 52.752C222.672 53.4853 221.381 54.3653 219.856 55.392C219.826 55.4213 219.738 55.48 219.592 55.568C219.474 55.656 219.328 55.7587 219.152 55.876C219.005 55.964 218.858 56.052 218.712 56.14C218.565 56.1987 218.477 56.228 218.448 56.228C218.36 56.228 218.316 56.1547 218.316 56.008C218.316 55.92 218.521 55.7147 218.932 55.392C219.372 55.04 219.885 54.6587 220.472 54.248C221.058 53.8373 221.645 53.4413 222.232 53.06C222.848 52.6493 223.317 52.3413 223.64 52.136C224.461 51.6373 225.165 51.2853 225.752 51.08C226.368 50.8747 226.94 50.772 227.468 50.772C228.084 50.772 228.538 50.9627 228.832 51.344C229.154 51.7253 229.272 52.356 229.184 53.236C229.096 54.116 228.758 54.9667 228.172 55.788C227.585 56.6093 226.881 57.3427 226.06 57.988C225.238 58.604 224.373 59.088 223.464 59.44C222.554 59.792 221.704 59.924 220.912 59.836C220.002 59.748 219.592 59.3373 219.68 58.604C219.738 58.164 220.428 57.416 221.748 56.36C221.865 56.272 221.997 56.228 222.144 56.228C222.378 56.2867 222.481 56.4333 222.452 56.668C222.422 56.8147 222.364 56.9173 222.276 56.976C222.188 57.0347 221.982 57.3133 221.66 57.812C221.337 58.3987 221.161 58.824 221.132 59.088C221.132 59.176 221.234 59.2347 221.44 59.264C221.88 59.3227 222.437 59.1907 223.112 58.868C223.816 58.516 224.505 58.0613 225.18 57.504C225.854 56.9467 226.441 56.3307 226.94 55.656C227.468 54.9813 227.761 54.3213 227.82 53.676ZM230.548 57.196C230.9 56.6973 231.369 56.272 231.956 55.92C232.542 55.5387 233.056 55.26 233.496 55.084C233.554 55.3187 233.51 55.4947 233.364 55.612C233.217 55.7 233.085 55.7733 232.968 55.832C232.498 56.096 231.956 56.4773 231.34 56.976C230.724 57.4747 230.225 58.076 229.844 58.78C229.609 58.8973 229.462 58.9853 229.404 59.044C229.345 59.132 229.286 59.176 229.228 59.176C229.081 59.1467 228.949 59.0587 228.832 58.912C228.714 58.7653 228.685 58.5747 228.744 58.34C228.802 58.3107 228.92 58.1493 229.096 57.856C229.272 57.5333 229.433 57.196 229.58 56.844C229.697 56.5213 229.858 56.1253 230.064 55.656C230.269 55.1573 230.46 54.6587 230.636 54.16C230.694 53.9547 230.753 53.7493 230.812 53.544C230.9 53.3387 230.988 53.1187 231.076 52.884C230.988 52.884 230.914 52.9573 230.856 53.104C230.122 54.16 229.316 54.864 228.436 55.216C228.348 54.7467 228.392 54.468 228.568 54.38C229.037 54.116 229.58 53.7347 230.196 53.236C230.812 52.7373 231.31 52.136 231.692 51.432C231.926 51.3147 232.073 51.2267 232.132 51.168C232.19 51.08 232.249 51.036 232.308 51.036C232.454 51.0653 232.586 51.1533 232.704 51.3C232.821 51.4467 232.85 51.6373 232.792 51.872C232.733 51.9013 232.616 52.0773 232.44 52.4C232.264 52.6933 232.102 53.016 231.956 53.368C231.809 53.7787 231.618 54.3213 231.384 54.996C231.149 55.6413 230.87 56.3747 230.548 57.196ZM254.386 55.656C254.269 56.0373 253.272 56.7853 251.394 57.9C249.224 59.1907 247.508 60.2467 246.246 61.068C242.286 69.0173 239.822 73.784 238.854 75.368C236.097 80.0613 233.78 82.408 231.902 82.408C231.022 82.408 230.582 81.836 230.582 80.692C230.582 74.2973 235.364 67.7853 244.926 61.156L247.654 55.436C247.654 55.3187 247.61 55.26 247.522 55.26C244.296 57.724 242.316 58.956 241.582 58.956C240.878 58.956 240.526 58.604 240.526 57.9C240.526 57.4893 240.966 56.4333 241.846 54.732C242.756 53.0307 243.21 52.0333 243.21 51.74C243.21 51.4173 242.946 51.256 242.418 51.256C242.301 51.256 242.242 51.08 242.242 50.728C242.506 50.64 242.785 50.596 243.078 50.596C244.105 50.596 244.618 50.8893 244.618 51.476C244.618 52.1213 244.222 53.1773 243.43 54.644C242.638 56.1107 242.242 57.0347 242.242 57.416C242.242 57.6507 242.345 57.768 242.55 57.768C243.254 57.768 244.384 57.152 245.938 55.92C247.698 54.512 249.018 53.0013 249.898 51.388C250.338 50.948 250.661 50.728 250.866 50.728C251.248 50.728 251.438 50.9187 251.438 51.3C251.438 51.5053 251.336 51.7693 251.13 52.092C249.986 53.8813 248.549 56.492 246.818 59.924C248.373 58.956 249.81 58.12 251.13 57.416C252.597 56.5653 253.55 55.964 253.99 55.612C254.078 55.524 254.166 55.48 254.254 55.48C254.342 55.48 254.386 55.5387 254.386 55.656ZM244.398 62.344C236.009 68.328 231.814 74.3267 231.814 80.34C231.814 81.1027 232.064 81.484 232.562 81.484C233.794 81.484 235.613 79.372 238.018 75.148C239.573 72.3907 241.7 68.1227 244.398 62.344ZM255.182 57.944C255.417 57.944 255.989 57.7387 256.898 57.328C258.512 56.5653 259.934 55.656 261.166 54.6C262.428 53.5147 263.498 52.4 264.378 51.256C264.818 50.816 265.141 50.596 265.346 50.596C265.728 50.596 265.918 50.7867 265.918 51.168C265.918 51.4027 265.816 51.6667 265.61 51.96C263.85 54.6 262.97 56.316 262.97 57.108C262.97 57.8413 263.308 58.208 263.982 58.208C265.009 58.208 266.872 57.284 269.57 55.436C269.629 55.3773 269.761 55.2747 269.966 55.128C270.201 54.9813 270.362 54.908 270.45 54.908C270.538 54.908 270.582 54.9667 270.582 55.084C270.582 55.26 270.362 55.4947 269.922 55.788C266.285 58.2227 263.85 59.44 262.618 59.44C261.797 59.44 261.386 58.9707 261.386 58.032C261.386 57.7387 261.416 57.4307 261.474 57.108C261.562 56.756 261.65 56.448 261.738 56.184C261.856 55.92 261.944 55.7 262.002 55.524C262.09 55.348 262.134 55.2747 262.134 55.304C262.134 55.1867 262.09 55.128 262.002 55.128C261.856 55.128 261.548 55.304 261.078 55.656C260.638 56.008 259.905 56.4773 258.878 57.064C258.38 57.2987 257.925 57.5333 257.514 57.768C257.104 58.0027 256.708 58.2227 256.326 58.428C255.945 58.6333 255.578 58.7947 255.226 58.912C254.874 59.0293 254.508 59.0733 254.126 59.044C253.716 59.0147 253.349 58.9267 253.026 58.78C252.674 58.604 252.498 58.2373 252.498 57.68C252.498 57.3573 252.586 57.0787 252.762 56.844C252.909 56.6093 253.07 56.492 253.246 56.492C253.393 56.492 253.51 56.5653 253.598 56.712C253.686 56.8587 253.789 57.0347 253.906 57.24C254.024 57.416 254.156 57.5773 254.302 57.724C254.449 57.8707 254.654 57.944 254.918 57.944H255.182ZM284.029 55.656C284.029 55.832 283.809 56.0667 283.369 56.36C279.761 58.7947 277.326 60.012 276.065 60.012C275.244 60.012 274.833 59.5427 274.833 58.604C274.833 58.076 274.936 57.548 275.141 57.02C275.434 56.2867 275.581 55.9053 275.581 55.876C275.581 55.7587 275.537 55.7 275.449 55.7C275.42 55.7 275.346 55.7293 275.229 55.788C274.584 56.4333 273.645 57.2107 272.413 58.12C270.829 59.2933 269.729 59.88 269.113 59.88C268.409 59.88 268.057 59.528 268.057 58.824C268.057 58.4133 268.57 57.284 269.597 55.436C270.624 53.5587 271.137 52.4733 271.137 52.18C271.137 51.8573 270.873 51.696 270.345 51.696C270.228 51.696 270.169 51.52 270.169 51.168C270.433 51.08 270.712 51.036 271.005 51.036C272.032 51.036 272.545 51.3293 272.545 51.916C272.545 52.5613 272.09 53.6467 271.181 55.172C270.272 56.6973 269.817 57.6507 269.817 58.032C269.817 58.2667 269.92 58.384 270.125 58.384C270.594 58.384 271.738 57.6067 273.557 56.052C275.405 54.4973 276.828 53.0893 277.825 51.828C278.265 51.388 278.588 51.168 278.793 51.168C279.174 51.168 279.365 51.3587 279.365 51.74C279.365 51.9453 279.262 52.2093 279.057 52.532C277.297 55.172 276.417 56.888 276.417 57.68C276.417 58.4133 276.754 58.78 277.429 58.78C278.456 58.78 280.318 57.856 283.017 56.008C283.164 55.8907 283.369 55.7587 283.633 55.612C283.721 55.524 283.809 55.48 283.897 55.48C283.985 55.48 284.029 55.5387 284.029 55.656ZM308.715 37.836C308.363 37.8653 307.776 37.88 306.955 37.88C306.163 37.8507 305.239 37.8653 304.183 37.924C303.156 37.9533 302.1 38.0413 301.015 38.188C299.93 38.3053 298.932 38.5253 298.023 38.848C297.143 39.1413 296.424 39.5373 295.867 40.036C295.339 40.5053 295.104 41.136 295.163 41.928C295.222 42.5147 295.5 43.1893 295.999 43.952C296.498 44.6853 297.026 45.5067 297.583 46.416C298.14 47.296 298.61 48.2347 298.991 49.232C299.372 50.2 299.475 51.212 299.299 52.268C299.299 52.9133 299.167 53.676 298.903 54.556C298.639 55.4067 298.199 56.2133 297.583 56.976C296.908 57.856 296.131 58.5453 295.251 59.044C294.4 59.5427 293.579 59.792 292.787 59.792C291.614 59.792 291.027 59.0587 291.027 57.592C291.027 55.656 291.966 53.7347 293.843 51.828C295.427 50.2147 296.586 49.408 297.319 49.408C297.788 49.408 298.023 49.5547 298.023 49.848C298.023 49.9653 297.935 50.0827 297.759 50.2C297.026 50.3467 296.072 51.0947 294.899 52.444C293.432 54.0867 292.699 55.6707 292.699 57.196C292.699 58.1933 293.051 58.692 293.755 58.692C294.782 58.692 295.823 58.0907 296.879 56.888C297.143 56.536 297.392 56.1547 297.627 55.744C297.862 55.3333 298.067 54.9227 298.243 54.512C298.419 54.1013 298.551 53.7053 298.639 53.324C298.756 52.9133 298.815 52.5613 298.815 52.268C298.815 51.564 298.771 50.9773 298.683 50.508C298.595 50.0387 298.463 49.628 298.287 49.276C298.111 48.8947 297.891 48.528 297.627 48.176C297.363 47.824 297.07 47.3987 296.747 46.9C296.395 46.372 296.058 45.8587 295.735 45.36C295.412 44.8613 295.134 44.3627 294.899 43.864C294.664 43.3653 294.503 42.8667 294.415 42.368C294.356 41.8693 294.415 41.356 294.591 40.828C295.031 40.124 295.706 39.508 296.615 38.98C297.524 38.452 298.536 38.0267 299.651 37.704C300.795 37.352 301.983 37.088 303.215 36.912C304.476 36.736 305.679 36.6333 306.823 36.604C307.967 36.5747 309.008 36.6187 309.947 36.736C310.886 36.8533 311.604 37.0147 312.103 37.22C312.514 37.396 312.69 37.5573 312.631 37.704C312.602 37.8213 312.25 37.8653 311.575 37.836H308.715ZM313.559 55.656C313.559 56.0667 312.503 56.8293 310.391 57.944C308.279 59.0587 305.712 59.616 302.691 59.616C300.96 59.616 300.021 59.44 299.875 59.088C299.875 58.8827 300.036 58.78 300.359 58.78C300.799 58.868 301.077 58.912 301.195 58.912C302.691 58.912 304.289 58.1493 305.991 56.624C307.604 55.1867 308.411 53.9547 308.411 52.928C308.411 52.488 308.132 52.268 307.575 52.268C304.817 52.268 301.811 54.8787 298.555 60.1C298.291 60.5107 296.692 63.62 293.759 69.428C290.796 75.2653 289.227 78.3893 289.051 78.8C288.845 79.2987 288.581 79.548 288.259 79.548C288.141 79.548 288.053 79.5333 287.995 79.504C287.819 79.4453 287.731 79.2693 287.731 78.976C287.731 77.92 294.331 65.6 307.531 42.016C307.765 41.6053 307.985 41.4 308.191 41.4C308.22 41.4 308.279 41.4293 308.367 41.488C308.455 41.5467 308.499 41.664 308.499 41.84C308.499 42.1627 308.411 42.412 308.235 42.588C308.205 42.676 307.003 44.8467 304.627 49.1C302.368 53.2067 301.239 55.392 301.239 55.656C301.239 55.6853 301.253 55.7147 301.283 55.744C301.312 55.6853 301.415 55.568 301.591 55.392C302.295 54.5413 303.263 53.676 304.495 52.796C306.137 51.6813 307.575 51.124 308.807 51.124C309.716 51.124 310.171 51.476 310.171 52.18C310.171 54.3213 308.455 56.4187 305.023 58.472C307.633 58.472 310.347 57.5187 313.163 55.612C313.251 55.524 313.339 55.48 313.427 55.48C313.515 55.48 313.559 55.5387 313.559 55.656ZM327.372 55.656C327.372 56.008 326.463 56.6827 324.644 57.68C322.737 58.736 321.373 59.264 320.552 59.264C319.027 59.264 318.264 58.4573 318.264 56.844C318.264 56.404 318.499 55.9053 318.968 55.348C318.968 55.3187 318.953 55.304 318.924 55.304C318.953 55.304 318.161 55.92 316.548 57.152C314.935 58.3547 313.776 58.956 313.072 58.956C312.397 58.956 312.06 58.6773 312.06 58.12C312.06 56.7707 313.189 55.2013 315.448 53.412C317.589 51.6813 319.261 50.816 320.464 50.816C320.64 50.8453 320.831 50.948 321.036 51.124C321.271 51.2707 321.388 51.388 321.388 51.476C321.388 51.5053 321.373 51.5347 321.344 51.564C319.701 51.564 317.604 52.84 315.052 55.392C314.231 56.2133 313.82 56.9027 313.82 57.46C313.82 57.6653 313.923 57.768 314.128 57.768C314.773 57.768 316.005 57.02 317.824 55.524C319.291 54.292 320.332 53.3093 320.948 52.576C321.241 52.224 321.447 52.048 321.564 52.048C321.857 52.048 322.004 52.2533 322.004 52.664C322.004 52.8107 321.813 53.148 321.432 53.676C320.171 55.4067 319.54 56.5067 319.54 56.976C319.54 57.7973 319.995 58.208 320.904 58.208C322.4 58.208 324.424 57.3427 326.976 55.612C327.064 55.524 327.152 55.48 327.24 55.48C327.328 55.48 327.372 55.5387 327.372 55.656ZM341.607 55.656C341.607 55.832 341.387 56.0667 340.947 56.36C337.339 58.7947 334.905 60.012 333.643 60.012C332.822 60.012 332.411 59.5427 332.411 58.604C332.411 58.076 332.514 57.548 332.719 57.02C333.013 56.2867 333.159 55.9053 333.159 55.876C333.159 55.7587 333.115 55.7 333.027 55.7C332.998 55.7 332.925 55.7293 332.807 55.788C332.162 56.4333 331.223 57.2107 329.991 58.12C328.407 59.2933 327.307 59.88 326.691 59.88C325.987 59.88 325.635 59.528 325.635 58.824C325.635 58.4133 326.149 57.284 327.175 55.436C328.202 53.5587 328.715 52.4733 328.715 52.18C328.715 51.8573 328.451 51.696 327.923 51.696C327.806 51.696 327.747 51.52 327.747 51.168C328.011 51.08 328.29 51.036 328.583 51.036C329.61 51.036 330.123 51.3293 330.123 51.916C330.123 52.5613 329.669 53.6467 328.759 55.172C327.85 56.6973 327.395 57.6507 327.395 58.032C327.395 58.2667 327.498 58.384 327.703 58.384C328.173 58.384 329.317 57.6067 331.135 56.052C332.983 54.4973 334.406 53.0893 335.403 51.828C335.843 51.388 336.166 51.168 336.371 51.168C336.753 51.168 336.943 51.3587 336.943 51.74C336.943 51.9453 336.841 52.2093 336.635 52.532C334.875 55.172 333.995 56.888 333.995 57.68C333.995 58.4133 334.333 58.78 335.007 58.78C336.034 58.78 337.897 57.856 340.595 56.008C340.742 55.8907 340.947 55.7587 341.211 55.612C341.299 55.524 341.387 55.48 341.475 55.48C341.563 55.48 341.607 55.5387 341.607 55.656ZM339.627 44.26C339.627 44.524 339.085 44.9347 337.999 45.492C336.357 46.3427 334.905 47.3547 333.643 48.528C333.585 48.528 333.555 48.4547 333.555 48.308C333.555 48.132 333.585 48.0147 333.643 47.956C334.054 47.4573 334.479 46.9733 334.919 46.504C335.359 46.0053 335.785 45.5067 336.195 45.008C337.369 43.7467 338.263 43.116 338.879 43.116H338.967C339.407 43.2627 339.627 43.5707 339.627 44.04V44.26ZM354.73 55.656C354.613 56.0373 353.601 56.8 351.694 57.944C349.787 59.0587 348.159 60.056 346.81 60.936C342.615 69.1493 340.005 74.1067 338.978 75.808C336.074 80.6187 333.654 83.024 331.718 83.024C330.838 83.024 330.398 82.452 330.398 81.308C330.398 74.5613 335.487 67.756 345.666 60.892C346.341 59.572 347.573 57.064 349.362 53.368C349.362 53.3387 349.333 53.324 349.274 53.324C349.215 53.324 349.113 53.3973 348.966 53.544C348.379 54.1013 347.602 54.82 346.634 55.7C344.551 57.636 342.85 58.604 341.53 58.604C340.914 58.604 340.606 58.2373 340.606 57.504C340.606 56.184 341.559 54.6587 343.466 52.928C345.519 51.0507 347.529 50.112 349.494 50.112C350.051 50.112 350.521 50.2293 350.902 50.464L351.826 49.188C352.031 48.924 352.237 48.792 352.442 48.792C352.823 48.792 353.014 48.9973 353.014 49.408C353.014 49.6133 352.941 49.8187 352.794 50.024C351.415 52.0773 349.611 55.3333 347.382 59.792C348.878 58.8533 350.242 58.0613 351.474 57.416C352.941 56.5653 353.894 55.964 354.334 55.612C354.422 55.524 354.51 55.48 354.598 55.48C354.686 55.48 354.73 55.5387 354.73 55.656ZM350.594 50.992C350.594 50.8747 350.462 50.816 350.198 50.816C348.614 50.816 346.883 51.5787 345.006 53.104C343.129 54.6 342.19 55.9347 342.19 57.108C342.19 57.46 342.351 57.636 342.674 57.636C343.877 57.636 346.443 55.5387 350.374 51.344C350.521 51.1387 350.594 51.0213 350.594 50.992ZM345.05 62.168C336.103 68.504 331.63 74.7667 331.63 80.956C331.63 81.7187 331.879 82.1 332.378 82.1C334.255 82.1 338.479 75.456 345.05 62.168Z" fill="black"/>
<path d="M12.9792 38.846C13.0525 38.846 13.0892 38.8753 13.0892 38.934C13.0892 38.9927 13.0525 39.022 12.9792 39.022C12.7592 39.0073 12.3045 39 11.6152 39H8.99716C8.35183 39 7.91916 39.0073 7.69916 39.022C7.62583 39.022 7.58916 38.9927 7.58916 38.934C7.58916 38.8753 7.62583 38.846 7.69916 38.846C8.1685 38.846 8.50583 38.6847 8.71116 38.362C8.93116 38.0393 9.04116 37.4893 9.04116 36.712V33.83C9.04116 33.654 8.97516 33.5733 8.84316 33.588C8.06583 33.7053 7.29583 33.764 6.53316 33.764C5.7705 33.764 5.0005 33.7053 4.22316 33.588H4.20116C4.11316 33.588 4.06916 33.6687 4.06916 33.83V36.712C4.06916 37.4893 4.17183 38.0393 4.37716 38.362C4.59716 38.6847 4.94183 38.846 5.41116 38.846C5.4845 38.846 5.52116 38.8753 5.52116 38.934C5.52116 38.9927 5.4845 39.022 5.41116 39.022C5.19116 39.0073 4.7585 39 4.11316 39H1.49516C0.805831 39 0.343831 39.0073 0.109164 39.022C0.0358308 39.022 -0.000835896 38.9927 -0.000835896 38.934C-0.000835896 38.8753 0.0358308 38.846 0.109164 38.846C0.593164 38.846 0.952498 38.6847 1.18716 38.362C1.42183 38.0393 1.53916 37.4893 1.53916 36.712V31.256C1.53916 30.4787 1.42183 29.9287 1.18716 29.606C0.952498 29.2833 0.593164 29.122 0.109164 29.122C0.0358308 29.122 -0.000835896 29.0927 -0.000835896 29.034C-0.000835896 28.9753 0.0358308 28.946 0.109164 28.946L1.49516 28.968H4.11316L5.41116 28.946C5.4845 28.946 5.52116 28.9753 5.52116 29.034C5.52116 29.0927 5.4845 29.122 5.41116 29.122C4.94183 29.122 4.59716 29.2833 4.37716 29.606C4.17183 29.9287 4.06916 30.4787 4.06916 31.256V33.17C4.06916 33.3313 4.1205 33.4193 4.22316 33.434C4.97116 33.5513 5.71916 33.61 6.46716 33.61C7.25916 33.61 8.05116 33.5513 8.84316 33.434C8.9165 33.4193 8.96783 33.39 8.99716 33.346C9.0265 33.302 9.04116 33.2433 9.04116 33.17V31.256C9.04116 30.4787 8.93116 29.9287 8.71116 29.606C8.50583 29.2833 8.1685 29.122 7.69916 29.122C7.62583 29.122 7.58916 29.0927 7.58916 29.034C7.58916 28.9753 7.62583 28.946 7.69916 28.946L8.99716 28.968H11.6152L12.9792 28.946C13.0525 28.946 13.0892 28.9753 13.0892 29.034C13.0892 29.0927 13.0525 29.122 12.9792 29.122C12.4952 29.122 12.1358 29.2833 11.9012 29.606C11.6812 29.9287 11.5712 30.4787 11.5712 31.256V36.712C11.5712 37.4893 11.6812 38.0393 11.9012 38.362C12.1358 38.6847 12.4952 38.846 12.9792 38.846ZM23.7724 37.042C23.7871 37.0273 23.8091 37.0347 23.8384 37.064C23.8824 37.0933 23.8897 37.13 23.8604 37.174C23.2884 37.878 22.5991 38.4133 21.7924 38.78C20.9857 39.1467 20.1424 39.33 19.2624 39.33C18.3384 39.33 17.4804 39.1173 16.6884 38.692C15.8964 38.2667 15.2657 37.6653 14.7964 36.888C14.3417 36.096 14.1144 35.1867 14.1144 34.16C14.1144 33.148 14.3637 32.2167 14.8624 31.366C15.3757 30.5153 16.0651 29.848 16.9304 29.364C17.7957 28.8653 18.7417 28.616 19.7684 28.616C20.9124 28.616 21.8657 28.9313 22.6284 29.562C23.3911 30.178 23.7724 31.0213 23.7724 32.092C23.7724 32.576 23.6844 33.0967 23.5084 33.654C21.9684 33.6833 19.6071 33.7493 16.4244 33.852C16.6737 34.6587 17.0551 35.3847 17.5684 36.03C18.0964 36.6607 18.6977 37.1593 19.3724 37.526C20.0471 37.878 20.7071 38.054 21.3524 38.054C22.4231 38.054 23.2297 37.7167 23.7724 37.042ZM18.6904 29.034C17.8691 29.034 17.2384 29.2907 16.7984 29.804C16.3731 30.3027 16.1604 31.058 16.1604 32.07C16.1604 32.5687 16.2337 33.1113 16.3804 33.698C17.2164 33.6833 18.1991 33.6467 19.3284 33.588C19.6217 33.5733 19.9224 33.5587 20.2304 33.544C20.5531 33.5293 20.8757 33.522 21.1984 33.522C21.3304 33.302 21.3964 33.0307 21.3964 32.708C21.3964 32.224 21.2571 31.696 20.9784 31.124C20.7144 30.5373 20.3697 30.046 19.9444 29.65C19.5337 29.2393 19.1157 29.034 18.6904 29.034ZM25.031 39C24.9577 39 24.921 38.9707 24.921 38.912C24.921 38.8533 24.9577 38.824 25.031 38.824C25.5297 38.8387 25.889 38.6847 26.109 38.362C26.3437 38.0393 26.461 37.4893 26.461 36.712V31.278C26.461 30.5007 26.3437 29.9507 26.109 29.628C25.889 29.3053 25.537 29.144 25.053 29.144C24.9797 29.144 24.943 29.1147 24.943 29.056C24.943 28.9973 24.9797 28.968 25.053 28.968C25.493 28.9973 25.9477 29.012 26.417 29.012C28.265 28.968 29.9444 28.946 31.455 28.946C32.6137 28.946 33.5157 29.144 34.161 29.54C34.8064 29.9213 35.129 30.5153 35.129 31.322C35.129 31.85 34.9017 32.3267 34.447 32.752C34.007 33.1627 33.457 33.4047 32.797 33.478C33.6477 33.522 34.359 33.7713 34.931 34.226C35.503 34.6807 35.789 35.304 35.789 36.096C35.789 37.02 35.4224 37.746 34.689 38.274C33.9704 38.802 32.973 39.066 31.697 39.066L26.417 38.978L25.031 39ZM30.905 33.368C31.653 33.28 32.1884 33.082 32.511 32.774C32.8337 32.4513 32.995 31.96 32.995 31.3C32.995 30.5813 32.8044 30.046 32.423 29.694C32.0564 29.342 31.587 29.1587 31.015 29.144L29.453 29.078H29.387C29.2404 29.078 29.145 29.1147 29.101 29.188C29.057 29.2613 29.035 29.3933 29.035 29.584V38.252C29.035 38.516 29.0717 38.6993 29.145 38.802C29.233 38.89 29.3944 38.934 29.629 38.934L31.015 38.912C31.763 38.912 32.3424 38.6993 32.753 38.274C33.1784 37.834 33.391 37.1887 33.391 36.338C33.391 35.4727 33.2004 34.8127 32.819 34.358C32.4524 33.8887 31.8364 33.6393 30.971 33.61L30.223 33.588C30.1644 33.588 30.135 33.566 30.135 33.522C30.135 33.478 30.157 33.4487 30.201 33.434L30.905 33.368ZM46.6747 37.042C46.6894 37.0273 46.7114 37.0347 46.7407 37.064C46.7847 37.0933 46.7921 37.13 46.7627 37.174C46.1907 37.878 45.5014 38.4133 44.6947 38.78C43.8881 39.1467 43.0447 39.33 42.1647 39.33C41.2407 39.33 40.3827 39.1173 39.5907 38.692C38.7987 38.2667 38.1681 37.6653 37.6987 36.888C37.2441 36.096 37.0167 35.1867 37.0167 34.16C37.0167 33.148 37.2661 32.2167 37.7647 31.366C38.2781 30.5153 38.9674 29.848 39.8327 29.364C40.6981 28.8653 41.6441 28.616 42.6707 28.616C43.8147 28.616 44.7681 28.9313 45.5307 29.562C46.2934 30.178 46.6747 31.0213 46.6747 32.092C46.6747 32.576 46.5867 33.0967 46.4107 33.654C44.8707 33.6833 42.5094 33.7493 39.3267 33.852C39.5761 34.6587 39.9574 35.3847 40.4707 36.03C40.9987 36.6607 41.6001 37.1593 42.2747 37.526C42.9494 37.878 43.6094 38.054 44.2547 38.054C45.3254 38.054 46.1321 37.7167 46.6747 37.042ZM41.5927 29.034C40.7714 29.034 40.1407 29.2907 39.7007 29.804C39.2754 30.3027 39.0627 31.058 39.0627 32.07C39.0627 32.5687 39.1361 33.1113 39.2827 33.698C40.1187 33.6833 41.1014 33.6467 42.2307 33.588C42.5241 33.5733 42.8247 33.5587 43.1327 33.544C43.4554 33.5293 43.7781 33.522 44.1007 33.522C44.2327 33.302 44.2987 33.0307 44.2987 32.708C44.2987 32.224 44.1594 31.696 43.8807 31.124C43.6167 30.5373 43.2721 30.046 42.8467 29.65C42.4361 29.2393 42.0181 29.034 41.5927 29.034ZM56.2442 34.424C56.2149 34.4973 56.1709 34.534 56.1122 34.534C56.0682 34.5193 56.0609 34.468 56.0902 34.38C56.1636 34.0867 56.2002 33.8007 56.2002 33.522C56.2002 32.8473 56.0389 32.1653 55.7162 31.476C55.3936 30.772 54.9682 30.1927 54.4402 29.738C53.9122 29.2833 53.3549 29.056 52.7682 29.056C51.0376 29.056 50.1722 30.046 50.1722 32.026C50.1722 33.1113 50.4216 34.1233 50.9202 35.062C51.4189 35.986 52.0642 36.7193 52.8562 37.262C53.6629 37.8047 54.4769 38.076 55.2982 38.076C56.3542 38.076 57.1609 37.7387 57.7182 37.064C57.7769 37.0053 57.8209 36.998 57.8502 37.042C57.8796 37.0713 57.8796 37.108 57.8502 37.152C56.6916 38.604 55.1589 39.33 53.2522 39.33C52.3136 39.33 51.4482 39.1173 50.6562 38.692C49.8642 38.2667 49.2262 37.6653 48.7422 36.888C48.2729 36.096 48.0382 35.1867 48.0382 34.16C48.0382 33.1627 48.2876 32.2387 48.7862 31.388C49.2996 30.5373 49.9889 29.8627 50.8542 29.364C51.7196 28.8653 52.6582 28.616 53.6702 28.616C54.3742 28.616 55.0342 28.7113 55.6502 28.902C56.2662 29.0927 56.7356 29.342 57.0582 29.65C57.3956 29.9433 57.5276 30.2367 57.4542 30.53L56.2442 34.424ZM68.7076 32.774C68.7222 32.8327 68.7076 32.862 68.6636 32.862C68.6196 32.862 68.5902 32.8327 68.5756 32.774C68.0329 30.7353 67.4316 29.5987 66.7716 29.364C66.6396 29.2613 66.1262 29.21 65.2316 29.21C65.1436 29.21 65.0702 29.2613 65.0116 29.364C64.9529 29.452 64.9236 29.5693 64.9236 29.716V36.712C64.9236 37.4893 65.0336 38.0393 65.2536 38.362C65.4882 38.6847 65.8476 38.846 66.3316 38.846C66.4049 38.846 66.4416 38.8753 66.4416 38.934C66.4416 38.9927 66.4049 39.022 66.3316 39.022C66.1116 39.0073 65.6569 39 64.9676 39H62.3496C61.6602 39 61.2056 39.0073 60.9856 39.022C60.9122 39.022 60.8756 38.9927 60.8756 38.934C60.8756 38.8753 60.9122 38.846 60.9856 38.846C61.4696 38.846 61.8216 38.6847 62.0416 38.362C62.2762 38.0393 62.3936 37.4893 62.3936 36.712V29.716C62.3936 29.5693 62.3642 29.452 62.3056 29.364C62.2469 29.2613 62.1736 29.21 62.0856 29.21C61.1909 29.21 60.6776 29.2613 60.5456 29.364C59.8856 29.5987 59.2842 30.7353 58.7416 32.774C58.7269 32.8327 58.6976 32.862 58.6536 32.862C58.6096 32.862 58.5949 32.8327 58.6096 32.774C58.7856 31.4687 58.8736 30.2733 58.8736 29.188C58.8736 28.9533 58.9689 28.836 59.1596 28.836C59.2476 28.836 59.4969 28.8653 59.9076 28.924C60.3329 28.9827 61.1616 29.012 62.3936 29.012H64.9236C66.1116 29.012 66.9256 28.9827 67.3656 28.924C67.8056 28.8653 68.0769 28.836 68.1796 28.836C68.3556 28.836 68.4436 28.9533 68.4436 29.188C68.4436 30.2733 68.5316 31.4687 68.7076 32.774ZM85.2909 38.846C85.3643 38.846 85.4009 38.8753 85.4009 38.934C85.4009 38.9927 85.3643 39.022 85.2909 39.022C85.0563 39.0073 84.6016 39 83.9269 39H81.3089C80.6196 39 80.1576 39.0073 79.9229 39.022C79.8643 39.022 79.8349 38.9927 79.8349 38.934C79.8349 38.8753 79.8643 38.846 79.9229 38.846C80.4216 38.846 80.7809 38.6847 81.0009 38.362C81.2356 38.0393 81.3529 37.4893 81.3529 36.712V31.19C81.3529 30.4127 81.2356 29.8627 81.0009 29.54C80.7809 29.2173 80.4216 29.056 79.9229 29.056C79.8643 29.056 79.8349 29.0267 79.8349 28.968C79.8349 28.9093 79.8643 28.88 79.9229 28.88L81.3089 28.902H83.9269L85.2909 28.88C85.3643 28.88 85.4009 28.9093 85.4009 28.968C85.4009 29.0267 85.3643 29.056 85.2909 29.056C84.8069 29.056 84.4476 29.2173 84.2129 29.54C83.9929 29.8627 83.8829 30.4127 83.8829 31.19V36.712C83.8829 37.4893 83.9929 38.0393 84.2129 38.362C84.4476 38.6847 84.8069 38.846 85.2909 38.846ZM75.5669 33.258C78.5736 33.214 80.0769 34.1307 80.0769 36.008C80.0769 36.976 79.7249 37.7167 79.0209 38.23C78.3169 38.7433 77.2683 39 75.8749 39H73.8289H71.2549C70.5656 39 70.1036 39.0073 69.8689 39.022C69.7956 39.022 69.7589 38.9927 69.7589 38.934C69.7589 38.8753 69.7956 38.846 69.8689 38.846C70.3529 38.846 70.7123 38.6847 70.9469 38.362C71.1816 38.0393 71.2989 37.4893 71.2989 36.712V31.256C71.2989 30.4787 71.1816 29.9287 70.9469 29.606C70.7123 29.2833 70.3529 29.122 69.8689 29.122C69.7956 29.122 69.7589 29.0927 69.7589 29.034C69.7589 28.9753 69.7956 28.946 69.8689 28.946L71.2549 28.968H73.8729L75.2369 28.946C75.3103 28.946 75.3469 28.9753 75.3469 29.034C75.3469 29.0927 75.3103 29.122 75.2369 29.122C74.7529 29.122 74.3936 29.2833 74.1589 29.606C73.9389 29.9287 73.8289 30.4787 73.8289 31.256V33.038C73.8289 33.1993 73.8949 33.28 74.0269 33.28L75.5669 33.258ZM75.2149 38.824C75.9189 38.8093 76.4616 38.5527 76.8429 38.054C77.2389 37.5553 77.4369 36.888 77.4369 36.052C77.4369 35.2307 77.2389 34.5927 76.8429 34.138C76.4469 33.6687 75.8749 33.4413 75.1269 33.456L74.0269 33.478C73.8949 33.478 73.8289 33.5587 73.8289 33.72V38.252C73.8289 38.4867 73.8583 38.648 73.9169 38.736C73.9756 38.8093 74.0929 38.846 74.2689 38.846L75.2149 38.824ZM91.4178 39C91.3444 39 91.3078 38.9707 91.3078 38.912C91.3078 38.8533 91.3444 38.824 91.4178 38.824C91.9164 38.8387 92.2758 38.6847 92.4958 38.362C92.7304 38.0393 92.8478 37.4893 92.8478 36.712V31.278C92.8478 30.5007 92.7304 29.9507 92.4958 29.628C92.2758 29.3053 91.9238 29.144 91.4398 29.144C91.3664 29.144 91.3298 29.1147 91.3298 29.056C91.3298 28.9973 91.3664 28.968 91.4398 28.968C91.8798 28.9973 92.3344 29.012 92.8038 29.012C94.6518 28.968 96.3311 28.946 97.8418 28.946C99.0004 28.946 99.9024 29.144 100.548 29.54C101.193 29.9213 101.516 30.5153 101.516 31.322C101.516 31.85 101.288 32.3267 100.834 32.752C100.394 33.1627 99.8438 33.4047 99.1838 33.478C100.034 33.522 100.746 33.7713 101.318 34.226C101.89 34.6807 102.176 35.304 102.176 36.096C102.176 37.02 101.809 37.746 101.076 38.274C100.357 38.802 99.3598 39.066 98.0838 39.066L92.8038 38.978L91.4178 39ZM97.2918 33.368C98.0398 33.28 98.5751 33.082 98.8978 32.774C99.2204 32.4513 99.3818 31.96 99.3818 31.3C99.3818 30.5813 99.1911 30.046 98.8098 29.694C98.4431 29.342 97.9738 29.1587 97.4018 29.144L95.8398 29.078H95.7738C95.6271 29.078 95.5318 29.1147 95.4878 29.188C95.4438 29.2613 95.4218 29.3933 95.4218 29.584V38.252C95.4218 38.516 95.4584 38.6993 95.5318 38.802C95.6198 38.89 95.7811 38.934 96.0158 38.934L97.4018 38.912C98.1498 38.912 98.7291 38.6993 99.1398 38.274C99.5651 37.834 99.7778 37.1887 99.7778 36.338C99.7778 35.4727 99.5871 34.8127 99.2058 34.358C98.8391 33.8887 98.2231 33.6393 97.3578 33.61L96.6098 33.588C96.5511 33.588 96.5218 33.566 96.5218 33.522C96.5218 33.478 96.5438 33.4487 96.5878 33.434L97.2918 33.368ZM118.721 38.846C118.794 38.846 118.831 38.8753 118.831 38.934C118.831 38.9927 118.794 39.022 118.721 39.022C118.486 39.0073 118.031 39 117.357 39H114.739C114.049 39 113.587 39.0073 113.353 39.022C113.294 39.022 113.265 38.9927 113.265 38.934C113.265 38.8753 113.294 38.846 113.353 38.846C113.851 38.846 114.211 38.6847 114.431 38.362C114.665 38.0393 114.783 37.4893 114.783 36.712V31.19C114.783 30.4127 114.665 29.8627 114.431 29.54C114.211 29.2173 113.851 29.056 113.353 29.056C113.294 29.056 113.265 29.0267 113.265 28.968C113.265 28.9093 113.294 28.88 113.353 28.88L114.739 28.902H117.357L118.721 28.88C118.794 28.88 118.831 28.9093 118.831 28.968C118.831 29.0267 118.794 29.056 118.721 29.056C118.237 29.056 117.877 29.2173 117.643 29.54C117.423 29.8627 117.313 30.4127 117.313 31.19V36.712C117.313 37.4893 117.423 38.0393 117.643 38.362C117.877 38.6847 118.237 38.846 118.721 38.846ZM108.997 33.258C112.003 33.214 113.507 34.1307 113.507 36.008C113.507 36.976 113.155 37.7167 112.451 38.23C111.747 38.7433 110.698 39 109.305 39H107.259H104.685C103.995 39 103.533 39.0073 103.299 39.022C103.225 39.022 103.189 38.9927 103.189 38.934C103.189 38.8753 103.225 38.846 103.299 38.846C103.783 38.846 104.142 38.6847 104.377 38.362C104.611 38.0393 104.729 37.4893 104.729 36.712V31.256C104.729 30.4787 104.611 29.9287 104.377 29.606C104.142 29.2833 103.783 29.122 103.299 29.122C103.225 29.122 103.189 29.0927 103.189 29.034C103.189 28.9753 103.225 28.946 103.299 28.946L104.685 28.968H107.303L108.667 28.946C108.74 28.946 108.777 28.9753 108.777 29.034C108.777 29.0927 108.74 29.122 108.667 29.122C108.183 29.122 107.823 29.2833 107.589 29.606C107.369 29.9287 107.259 30.4787 107.259 31.256V33.038C107.259 33.1993 107.325 33.28 107.457 33.28L108.997 33.258ZM108.645 38.824C109.349 38.8093 109.891 38.5527 110.273 38.054C110.669 37.5553 110.867 36.888 110.867 36.052C110.867 35.2307 110.669 34.5927 110.273 34.138C109.877 33.6687 109.305 33.4413 108.557 33.456L107.457 33.478C107.325 33.478 107.259 33.5587 107.259 33.72V38.252C107.259 38.4867 107.288 38.648 107.347 38.736C107.405 38.8093 107.523 38.846 107.699 38.846L108.645 38.824ZM126.241 29.1C127.282 29.1 128.214 29.32 129.035 29.76C129.871 30.1853 130.524 30.772 130.993 31.52C131.477 32.268 131.719 33.1187 131.719 34.072C131.719 35.04 131.448 35.9273 130.905 36.734C130.377 37.5407 129.644 38.1787 128.705 38.648C127.781 39.1173 126.762 39.352 125.647 39.352C124.65 39.352 123.748 39.154 122.941 38.758C122.149 38.362 121.518 37.8047 121.049 37.086C120.58 36.3673 120.33 35.546 120.301 34.622V33.5C120.301 31.6227 120.609 30.0387 121.225 28.748C121.841 27.4573 122.64 26.4747 123.623 25.8C124.62 25.1253 125.698 24.7147 126.857 24.568C127.913 24.4213 128.705 24.282 129.233 24.15C129.761 24.0033 130.106 23.8567 130.267 23.71C130.443 23.5487 130.531 23.358 130.531 23.138C130.531 23.0647 130.553 23.028 130.597 23.028C130.656 23.028 130.692 23.0647 130.707 23.138C130.736 23.3727 130.751 23.556 130.751 23.688C130.751 24.4067 130.509 25.052 130.025 25.624C129.556 26.1813 128.72 26.5627 127.517 26.768C126.784 26.9 125.955 27.0247 125.031 27.142C124.151 27.2593 123.513 27.362 123.117 27.45C122.736 27.538 122.413 27.6847 122.149 27.89C121.841 28.0953 121.614 28.4107 121.467 28.836C121.32 29.2613 121.247 29.848 121.247 30.596C121.247 30.992 121.254 31.3073 121.269 31.542C121.812 30.794 122.523 30.2 123.403 29.76C124.283 29.32 125.229 29.1 126.241 29.1ZM126.791 38.868C127.671 38.868 128.346 38.626 128.815 38.142C129.299 37.658 129.541 36.932 129.541 35.964C129.541 35.1427 129.321 34.226 128.881 33.214C128.456 32.202 127.898 31.344 127.209 30.64C126.534 29.9213 125.845 29.562 125.141 29.562C124.29 29.562 123.623 29.804 123.139 30.288C122.67 30.7573 122.435 31.4833 122.435 32.466C122.435 33.2727 122.648 34.1893 123.073 35.216C123.513 36.228 124.07 37.0933 124.745 37.812C125.42 38.516 126.102 38.868 126.791 38.868ZM145.996 38.846C146.069 38.846 146.106 38.8753 146.106 38.934C146.106 38.9927 146.069 39.022 145.996 39.022C145.776 39.0073 145.321 39 144.632 39H142.014C141.324 39 140.87 39.0073 140.65 39.022C140.576 39.022 140.54 38.9927 140.54 38.934C140.54 38.8753 140.576 38.846 140.65 38.846C141.134 38.846 141.486 38.6847 141.706 38.362C141.94 38.0393 142.058 37.4893 142.058 36.712V31.41L136.8 36.69V36.712C136.8 37.4893 136.91 38.0393 137.13 38.362C137.364 38.6847 137.724 38.846 138.208 38.846C138.281 38.846 138.318 38.8753 138.318 38.934C138.318 38.9927 138.281 39.022 138.208 39.022C137.973 39.0073 137.518 39 136.844 39H134.226C133.536 39 133.074 39.0073 132.84 39.022C132.766 39.022 132.73 38.9927 132.73 38.934C132.73 38.8753 132.766 38.846 132.84 38.846C133.324 38.846 133.683 38.6847 133.918 38.362C134.152 38.0393 134.27 37.4893 134.27 36.712V31.278C134.27 30.5007 134.152 29.9507 133.918 29.628C133.683 29.2907 133.324 29.122 132.84 29.122C132.766 29.122 132.73 29.0927 132.73 29.034C132.73 28.9753 132.766 28.946 132.84 28.946C133.309 28.9753 133.771 28.99 134.226 28.99H136.844C137.284 28.99 137.738 28.9753 138.208 28.946C138.281 28.946 138.318 28.9753 138.318 29.034C138.318 29.0927 138.281 29.122 138.208 29.122C137.724 29.122 137.364 29.2907 137.13 29.628C136.91 29.9507 136.8 30.5007 136.8 31.278V36.404L142.058 31.124C142.043 30.3907 141.918 29.8773 141.684 29.584C141.464 29.276 141.119 29.122 140.65 29.122C140.576 29.122 140.54 29.0927 140.54 29.034C140.54 28.9753 140.576 28.946 140.65 28.946C141.09 28.9753 141.544 28.99 142.014 28.99H144.632C145.101 28.99 145.556 28.9753 145.996 28.946C146.069 28.946 146.106 28.9753 146.106 29.034C146.106 29.0927 146.069 29.122 145.996 29.122C145.512 29.122 145.152 29.2907 144.918 29.628C144.698 29.9507 144.588 30.5007 144.588 31.278V36.712C144.588 37.4893 144.698 38.0393 144.918 38.362C145.152 38.6847 145.512 38.846 145.996 38.846ZM154.89 28.616C155.652 28.616 156.349 28.8287 156.98 29.254C157.625 29.6647 158.138 30.266 158.52 31.058C158.916 31.8353 159.114 32.7373 159.114 33.764C159.114 34.732 158.886 35.6487 158.432 36.514C157.992 37.3647 157.383 38.0467 156.606 38.56C155.843 39.0733 155.007 39.33 154.098 39.33C153.54 39.33 153.078 39.2567 152.712 39.11C152.345 38.9633 152 38.78 151.678 38.56C151.458 38.4133 151.311 38.34 151.238 38.34C151.106 38.34 151.04 38.4647 151.04 38.714V41.134C151.04 41.9113 151.142 42.454 151.348 42.762C151.568 43.0847 151.898 43.2607 152.338 43.29C152.411 43.29 152.448 43.312 152.448 43.356C152.448 43.4147 152.411 43.444 152.338 43.444C151.722 43.4147 150.959 43.4 150.05 43.4C148.891 43.4 147.945 43.4147 147.212 43.444C147.138 43.444 147.102 43.4147 147.102 43.356C147.102 43.2973 147.138 43.268 147.212 43.268C147.652 43.2827 147.974 43.1287 148.18 42.806C148.4 42.4833 148.51 41.9187 148.51 41.112V31.784C148.51 31.2267 148.436 30.8233 148.29 30.574C148.158 30.31 147.901 30.178 147.52 30.178C147.446 30.178 147.322 30.1927 147.146 30.222C147.087 30.2367 147.05 30.222 147.036 30.178C147.036 30.1193 147.058 30.0827 147.102 30.068C147.791 29.9067 148.495 29.694 149.214 29.43C149.947 29.166 150.541 28.88 150.996 28.572C151.069 28.528 151.128 28.5133 151.172 28.528C151.23 28.5427 151.252 28.5867 151.238 28.66C151.15 29.4227 151.098 30.068 151.084 30.596C151.084 30.772 151.091 30.9407 151.106 31.102C151.135 31.2487 151.172 31.3147 151.216 31.3C151.612 30.508 152.103 29.8627 152.69 29.364C153.276 28.8653 154.01 28.616 154.89 28.616ZM154.274 39C155.212 39 155.887 38.736 156.298 38.208C156.723 37.68 156.936 36.91 156.936 35.898C156.936 34.9153 156.767 33.9693 156.43 33.06C156.092 32.1507 155.638 31.4173 155.066 30.86C154.508 30.3027 153.9 30.024 153.24 30.024C152.58 30.024 152.044 30.3027 151.634 30.86C151.238 31.4173 151.04 32.1653 151.04 33.104V34.578C151.04 35.854 151.326 36.91 151.898 37.746C152.484 38.582 153.276 39 154.274 39ZM171.32 35.238C171.32 35.1647 171.342 35.128 171.386 35.128C171.43 35.128 171.452 35.1647 171.452 35.238C171.452 36.3527 171.21 37.306 170.726 38.098C170.257 38.89 169.641 39.286 168.878 39.286C168.321 39.286 167.852 39.1027 167.47 38.736C167.089 38.3547 166.876 37.79 166.832 37.042C166.48 37.7753 166.011 38.34 165.424 38.736C164.852 39.132 164.222 39.33 163.532 39.33C162.374 39.33 161.516 39.0073 160.958 38.362C160.401 37.702 160.122 36.9393 160.122 36.074C160.122 35.2233 160.504 34.5413 161.266 34.028C162.044 33.5147 163.012 33.258 164.17 33.258C164.566 33.258 165.006 33.2947 165.49 33.368C165.989 33.4413 166.436 33.5367 166.832 33.654V32.686C166.832 30.4273 165.85 29.298 163.884 29.298C163.078 29.298 162.388 29.562 161.816 30.09C161.259 30.618 160.98 31.41 160.98 32.466C160.98 32.5247 160.966 32.5687 160.936 32.598C160.907 32.6273 160.878 32.642 160.848 32.642C160.79 32.642 160.76 32.5833 160.76 32.466C160.76 31.6447 160.966 30.948 161.376 30.376C161.787 29.7893 162.315 29.3493 162.96 29.056C163.606 28.7627 164.288 28.616 165.006 28.616C167.91 28.616 169.362 29.9727 169.362 32.686V36.294C169.362 37.262 169.612 37.746 170.11 37.746C170.594 37.746 170.91 37.5333 171.056 37.108C171.203 36.668 171.291 36.0447 171.32 35.238ZM164.676 38.076C166.114 38.076 166.832 37.2033 166.832 35.458V35.326C166.671 34.798 166.363 34.38 165.908 34.072C165.454 33.7493 164.955 33.588 164.412 33.588C162.96 33.588 162.234 34.1453 162.234 35.26C162.234 36.008 162.447 36.668 162.872 37.24C163.298 37.7973 163.899 38.076 164.676 38.076ZM183.855 28.638C184.881 28.638 185.805 28.858 186.627 29.298C187.463 29.7233 188.115 30.3247 188.585 31.102C189.054 31.8793 189.289 32.7667 189.289 33.764C189.289 34.7907 189.017 35.7367 188.475 36.602C187.947 37.4527 187.213 38.1273 186.275 38.626C185.351 39.11 184.331 39.352 183.217 39.352C182.205 39.352 181.295 39.1393 180.489 38.714C179.682 38.274 179.044 37.6653 178.575 36.888C178.105 36.1107 177.871 35.2233 177.871 34.226C177.871 34.1673 177.856 34.1307 177.827 34.116C177.812 34.0867 177.768 34.072 177.695 34.072H175.583H175.561C175.473 34.072 175.429 34.1527 175.429 34.314V36.712C175.429 37.4893 175.539 38.0393 175.759 38.362C175.993 38.6847 176.353 38.846 176.837 38.846C176.91 38.846 176.947 38.8753 176.947 38.934C176.947 38.9927 176.91 39.022 176.837 39.022C176.602 39.0073 176.147 39 175.473 39H172.855C172.165 39 171.703 39.0073 171.469 39.022C171.395 39.022 171.359 38.9927 171.359 38.934C171.359 38.8753 171.395 38.846 171.469 38.846C171.953 38.846 172.312 38.6847 172.547 38.362C172.781 38.0393 172.899 37.4893 172.899 36.712V31.3C172.899 30.5227 172.781 29.9727 172.547 29.65C172.312 29.3127 171.953 29.144 171.469 29.144C171.395 29.144 171.359 29.1147 171.359 29.056C171.359 28.9973 171.395 28.968 171.469 28.968C171.938 28.9973 172.4 29.012 172.855 29.012H175.473C175.913 29.012 176.367 28.9973 176.837 28.968C176.91 28.968 176.947 28.9973 176.947 29.056C176.947 29.1147 176.91 29.144 176.837 29.144C176.353 29.144 175.993 29.3127 175.759 29.65C175.539 29.9727 175.429 30.5227 175.429 31.3V33.654C175.429 33.8153 175.48 33.9033 175.583 33.918H177.695C177.768 33.918 177.812 33.9107 177.827 33.896C177.856 33.8667 177.878 33.8153 177.893 33.742C177.966 32.7887 178.274 31.9233 178.817 31.146C179.374 30.3687 180.093 29.76 180.973 29.32C181.853 28.8653 182.813 28.638 183.855 28.638ZM184.493 38.846C185.285 38.846 185.923 38.604 186.407 38.12C186.891 37.636 187.133 36.932 187.133 36.008C187.133 35.1133 186.898 34.1233 186.429 33.038C185.974 31.938 185.395 31.0067 184.691 30.244C184.001 29.4813 183.327 29.1 182.667 29.1C181.845 29.1 181.193 29.342 180.709 29.826C180.239 30.31 180.005 31.0213 180.005 31.96C180.005 32.84 180.232 33.83 180.687 34.93C181.156 36.0153 181.743 36.9393 182.447 37.702C183.151 38.4647 183.833 38.846 184.493 38.846ZM200.45 32.774C200.464 32.8327 200.45 32.862 200.406 32.862C200.362 32.862 200.332 32.8327 200.318 32.774C199.775 30.7353 199.174 29.5987 198.514 29.364C198.382 29.2613 197.868 29.21 196.974 29.21C196.886 29.21 196.812 29.2613 196.754 29.364C196.695 29.452 196.666 29.5693 196.666 29.716V36.712C196.666 37.4893 196.776 38.0393 196.996 38.362C197.23 38.6847 197.59 38.846 198.074 38.846C198.147 38.846 198.184 38.8753 198.184 38.934C198.184 38.9927 198.147 39.022 198.074 39.022C197.854 39.0073 197.399 39 196.71 39H194.092C193.402 39 192.948 39.0073 192.728 39.022C192.654 39.022 192.618 38.9927 192.618 38.934C192.618 38.8753 192.654 38.846 192.728 38.846C193.212 38.846 193.564 38.6847 193.784 38.362C194.018 38.0393 194.136 37.4893 194.136 36.712V29.716C194.136 29.5693 194.106 29.452 194.048 29.364C193.989 29.2613 193.916 29.21 193.828 29.21C192.933 29.21 192.42 29.2613 192.288 29.364C191.628 29.5987 191.026 30.7353 190.484 32.774C190.469 32.8327 190.44 32.862 190.396 32.862C190.352 32.862 190.337 32.8327 190.352 32.774C190.528 31.4687 190.616 30.2733 190.616 29.188C190.616 28.9533 190.711 28.836 190.902 28.836C190.99 28.836 191.239 28.8653 191.65 28.924C192.075 28.9827 192.904 29.012 194.136 29.012H196.666C197.854 29.012 198.668 28.9827 199.108 28.924C199.548 28.8653 199.819 28.836 199.922 28.836C200.098 28.836 200.186 28.9533 200.186 29.188C200.186 30.2733 200.274 31.4687 200.45 32.774ZM214.606 34.424C214.576 34.4973 214.532 34.534 214.474 34.534C214.43 34.5193 214.422 34.468 214.452 34.38C214.525 34.0867 214.562 33.8007 214.562 33.522C214.562 32.8473 214.4 32.1653 214.078 31.476C213.755 30.772 213.33 30.1927 212.802 29.738C212.274 29.2833 211.716 29.056 211.13 29.056C209.399 29.056 208.534 30.046 208.534 32.026C208.534 33.1113 208.783 34.1233 209.282 35.062C209.78 35.986 210.426 36.7193 211.218 37.262C212.024 37.8047 212.838 38.076 213.66 38.076C214.716 38.076 215.522 37.7387 216.08 37.064C216.138 37.0053 216.182 36.998 216.212 37.042C216.241 37.0713 216.241 37.108 216.212 37.152C215.053 38.604 213.52 39.33 211.614 39.33C210.675 39.33 209.81 39.1173 209.018 38.692C208.226 38.2667 207.588 37.6653 207.104 36.888C206.634 36.096 206.4 35.1867 206.4 34.16C206.4 33.1627 206.649 32.2387 207.148 31.388C207.661 30.5373 208.35 29.8627 209.216 29.364C210.081 28.8653 211.02 28.616 212.032 28.616C212.736 28.616 213.396 28.7113 214.012 28.902C214.628 29.0927 215.097 29.342 215.42 29.65C215.757 29.9433 215.889 30.2367 215.816 30.53L214.606 34.424ZM226.585 37.042C226.6 37.0273 226.622 37.0347 226.651 37.064C226.695 37.0933 226.702 37.13 226.673 37.174C226.101 37.878 225.412 38.4133 224.605 38.78C223.798 39.1467 222.955 39.33 222.075 39.33C221.151 39.33 220.293 39.1173 219.501 38.692C218.709 38.2667 218.078 37.6653 217.609 36.888C217.154 36.096 216.927 35.1867 216.927 34.16C216.927 33.148 217.176 32.2167 217.675 31.366C218.188 30.5153 218.878 29.848 219.743 29.364C220.608 28.8653 221.554 28.616 222.581 28.616C223.725 28.616 224.678 28.9313 225.441 29.562C226.204 30.178 226.585 31.0213 226.585 32.092C226.585 32.576 226.497 33.0967 226.321 33.654C224.781 33.6833 222.42 33.7493 219.237 33.852C219.486 34.6587 219.868 35.3847 220.381 36.03C220.909 36.6607 221.51 37.1593 222.185 37.526C222.86 37.878 223.52 38.054 224.165 38.054C225.236 38.054 226.042 37.7167 226.585 37.042ZM221.503 29.034C220.682 29.034 220.051 29.2907 219.611 29.804C219.186 30.3027 218.973 31.058 218.973 32.07C218.973 32.5687 219.046 33.1113 219.193 33.698C220.029 33.6833 221.012 33.6467 222.141 33.588C222.434 33.5733 222.735 33.5587 223.043 33.544C223.366 33.5293 223.688 33.522 224.011 33.522C224.143 33.302 224.209 33.0307 224.209 32.708C224.209 32.224 224.07 31.696 223.791 31.124C223.527 30.5373 223.182 30.046 222.757 29.65C222.346 29.2393 221.928 29.034 221.503 29.034ZM235.478 28.616C236.24 28.616 236.937 28.8287 237.568 29.254C238.213 29.6647 238.726 30.266 239.108 31.058C239.504 31.8353 239.702 32.7373 239.702 33.764C239.702 34.732 239.474 35.6487 239.02 36.514C238.58 37.3647 237.971 38.0467 237.194 38.56C236.431 39.0733 235.595 39.33 234.686 39.33C234.128 39.33 233.666 39.2567 233.3 39.11C232.933 38.9633 232.588 38.78 232.266 38.56C232.046 38.4133 231.899 38.34 231.826 38.34C231.694 38.34 231.628 38.4647 231.628 38.714V41.134C231.628 41.9113 231.73 42.454 231.936 42.762C232.156 43.0847 232.486 43.2607 232.926 43.29C232.999 43.29 233.036 43.312 233.036 43.356C233.036 43.4147 232.999 43.444 232.926 43.444C232.31 43.4147 231.547 43.4 230.638 43.4C229.479 43.4 228.533 43.4147 227.8 43.444C227.726 43.444 227.69 43.4147 227.69 43.356C227.69 43.2973 227.726 43.268 227.8 43.268C228.24 43.2827 228.562 43.1287 228.768 42.806C228.988 42.4833 229.098 41.9187 229.098 41.112V31.784C229.098 31.2267 229.024 30.8233 228.878 30.574C228.746 30.31 228.489 30.178 228.108 30.178C228.034 30.178 227.91 30.1927 227.734 30.222C227.675 30.2367 227.638 30.222 227.624 30.178C227.624 30.1193 227.646 30.0827 227.69 30.068C228.379 29.9067 229.083 29.694 229.802 29.43C230.535 29.166 231.129 28.88 231.584 28.572C231.657 28.528 231.716 28.5133 231.76 28.528C231.818 28.5427 231.84 28.5867 231.826 28.66C231.738 29.4227 231.686 30.068 231.672 30.596C231.672 30.772 231.679 30.9407 231.694 31.102C231.723 31.2487 231.76 31.3147 231.804 31.3C232.2 30.508 232.691 29.8627 233.278 29.364C233.864 28.8653 234.598 28.616 235.478 28.616ZM234.862 39C235.8 39 236.475 38.736 236.886 38.208C237.311 37.68 237.524 36.91 237.524 35.898C237.524 34.9153 237.355 33.9693 237.018 33.06C236.68 32.1507 236.226 31.4173 235.654 30.86C235.096 30.3027 234.488 30.024 233.828 30.024C233.168 30.024 232.632 30.3027 232.222 30.86C231.826 31.4173 231.628 32.1653 231.628 33.104V34.578C231.628 35.854 231.914 36.91 232.486 37.746C233.072 38.582 233.864 39 234.862 39ZM251.886 28.902C251.974 28.902 252.018 28.9313 252.018 28.99C252.018 29.034 251.974 29.0633 251.886 29.078C251.373 29.0927 250.977 29.276 250.698 29.628C250.434 29.9653 250.302 30.5373 250.302 31.344V38.846H251.534C251.637 38.846 251.688 38.8973 251.688 39L251.732 39.77C251.805 40.694 251.849 41.2513 251.864 41.442C251.879 41.53 251.857 41.574 251.798 41.574C251.754 41.574 251.725 41.5373 251.71 41.464C251.549 40.6133 251.277 39.99 250.896 39.594C250.529 39.198 249.979 39 249.246 39H243.042C242.309 39 241.751 39.198 241.37 39.594C241.003 39.99 240.739 40.6133 240.578 41.464C240.563 41.5373 240.527 41.574 240.468 41.574C240.424 41.574 240.409 41.53 240.424 41.442C240.512 40.6793 240.556 40.122 240.556 39.77L240.6 39C240.6 38.8973 240.651 38.846 240.754 38.846H241.436C241.949 38.846 242.338 38.032 242.602 36.404C242.881 34.776 243.057 32.8913 243.13 30.75C243.071 30.1487 242.91 29.7233 242.646 29.474C242.382 29.2247 242.023 29.0927 241.568 29.078C241.48 29.0633 241.436 29.034 241.436 28.99C241.451 28.9313 241.495 28.902 241.568 28.902C242.184 28.946 242.609 28.968 242.844 28.968H250.61C250.889 28.968 251.314 28.946 251.886 28.902ZM247.772 38.846V29.122H243.306C243.306 31.2193 243.181 33.2653 242.932 35.26C242.697 37.24 242.331 38.4353 241.832 38.846H247.772ZM265.791 41.442C265.806 41.53 265.791 41.574 265.747 41.574C265.703 41.574 265.667 41.5373 265.637 41.464C265.476 40.628 265.212 40.0047 264.845 39.594C264.479 39.198 263.921 39 263.173 39H254.065C253.376 39 252.914 39.0073 252.679 39.022C252.606 39.022 252.569 38.9927 252.569 38.934C252.569 38.8753 252.606 38.846 252.679 38.846C253.163 38.846 253.523 38.6847 253.757 38.362C253.992 38.0393 254.109 37.4893 254.109 36.712V31.256C254.109 30.4787 253.992 29.9287 253.757 29.606C253.523 29.2687 253.163 29.1 252.679 29.1C252.606 29.1 252.569 29.0707 252.569 29.012C252.569 28.9533 252.606 28.924 252.679 28.924C253.149 28.9533 253.611 28.968 254.065 28.968H256.683C257.109 28.968 257.541 28.9533 257.981 28.924C258.055 28.924 258.091 28.9533 258.091 29.012C258.091 29.0707 258.055 29.1 257.981 29.1C257.512 29.1 257.167 29.2687 256.947 29.606C256.742 29.9287 256.639 30.4787 256.639 31.256V38.846H261.699V31.256C261.699 30.4787 261.589 29.9287 261.369 29.606C261.164 29.2687 260.827 29.1 260.357 29.1C260.284 29.1 260.247 29.0707 260.247 29.012C260.247 28.9533 260.284 28.924 260.357 28.924C260.797 28.9533 261.23 28.968 261.655 28.968H264.273C264.728 28.968 265.19 28.9533 265.659 28.924C265.733 28.924 265.769 28.9533 265.769 29.012C265.769 29.0707 265.733 29.1 265.659 29.1C265.161 29.1 264.794 29.2687 264.559 29.606C264.339 29.9287 264.229 30.4787 264.229 31.256V38.846H265.483C265.586 38.846 265.637 38.8973 265.637 39L265.681 39.77C265.681 39.9313 265.718 40.4887 265.791 41.442ZM276.02 37.042C276.035 37.0273 276.057 37.0347 276.086 37.064C276.13 37.0933 276.138 37.13 276.108 37.174C275.536 37.878 274.847 38.4133 274.04 38.78C273.234 39.1467 272.39 39.33 271.51 39.33C270.586 39.33 269.728 39.1173 268.936 38.692C268.144 38.2667 267.514 37.6653 267.044 36.888C266.59 36.096 266.362 35.1867 266.362 34.16C266.362 33.148 266.612 32.2167 267.11 31.366C267.624 30.5153 268.313 29.848 269.178 29.364C270.044 28.8653 270.99 28.616 272.016 28.616C273.16 28.616 274.114 28.9313 274.876 29.562C275.639 30.178 276.02 31.0213 276.02 32.092C276.02 32.576 275.932 33.0967 275.756 33.654C274.216 33.6833 271.855 33.7493 268.672 33.852C268.922 34.6587 269.303 35.3847 269.816 36.03C270.344 36.6607 270.946 37.1593 271.62 37.526C272.295 37.878 272.955 38.054 273.6 38.054C274.671 38.054 275.478 37.7167 276.02 37.042ZM270.938 29.034C270.117 29.034 269.486 29.2907 269.046 29.804C268.621 30.3027 268.408 31.058 268.408 32.07C268.408 32.5687 268.482 33.1113 268.628 33.698C269.464 33.6833 270.447 33.6467 271.576 33.588C271.87 33.5733 272.17 33.5587 272.478 33.544C272.801 33.5293 273.124 33.522 273.446 33.522C273.578 33.302 273.644 33.0307 273.644 32.708C273.644 32.224 273.505 31.696 273.226 31.124C272.962 30.5373 272.618 30.046 272.192 29.65C271.782 29.2393 271.364 29.034 270.938 29.034ZM291.403 38.846C291.476 38.846 291.513 38.8753 291.513 38.934C291.513 38.9927 291.476 39.022 291.403 39.022C291.168 39.0073 290.714 39 290.039 39H287.399C286.724 39 286.27 39.0073 286.035 39.022C285.962 39.022 285.925 38.9927 285.925 38.934C285.925 38.8753 285.962 38.846 286.035 38.846C286.475 38.846 286.798 38.7213 287.003 38.472C287.223 38.2227 287.333 37.8047 287.333 37.218C287.333 36.998 287.326 36.8293 287.311 36.712L286.827 30.882C286.812 30.706 286.768 30.618 286.695 30.618C286.651 30.618 286.614 30.64 286.585 30.684C286.556 30.728 286.526 30.794 286.497 30.882L283.395 38.736C283.336 38.8973 283.256 38.978 283.153 38.978C283.021 38.978 282.926 38.8973 282.867 38.736L279.787 30.794C279.743 30.6767 279.699 30.618 279.655 30.618H279.611L279.765 31.19L279.611 30.64C279.567 30.6547 279.545 30.706 279.545 30.794L279.017 36.712C279.002 36.844 278.995 37.0273 278.995 37.262C278.995 37.834 279.098 38.2447 279.303 38.494C279.508 38.7287 279.831 38.846 280.271 38.846C280.344 38.846 280.381 38.8753 280.381 38.934C280.381 38.9927 280.344 39.022 280.271 39.022C280.051 39.0073 279.596 39 278.907 39H278.643C277.954 39 277.499 39.0073 277.279 39.022C277.206 39.022 277.169 38.9927 277.169 38.934C277.169 38.8753 277.206 38.846 277.279 38.846C277.763 38.846 278.122 38.692 278.357 38.384C278.606 38.0613 278.768 37.504 278.841 36.712L279.435 30.178C279.288 29.7967 279.105 29.5253 278.885 29.364C278.665 29.2027 278.386 29.122 278.049 29.122C277.976 29.122 277.939 29.0927 277.939 29.034C277.939 28.9753 277.976 28.946 278.049 28.946L279.347 28.968H281.459C281.664 28.968 281.796 29.0487 281.855 29.21L284.297 35.238C284.341 35.3407 284.392 35.392 284.451 35.392C284.524 35.392 284.568 35.3407 284.583 35.238L286.959 29.188C286.988 29.1 287.025 29.0413 287.069 29.012C287.113 28.9827 287.179 28.968 287.267 28.968H289.203L290.589 28.946C290.662 28.946 290.699 28.9753 290.699 29.034C290.699 29.0927 290.662 29.122 290.589 29.122C290.149 29.122 289.819 29.2467 289.599 29.496C289.394 29.7307 289.291 30.134 289.291 30.706C289.291 30.9407 289.298 31.124 289.313 31.256L289.841 36.712C289.914 37.504 290.068 38.0613 290.303 38.384C290.552 38.692 290.919 38.846 291.403 38.846ZM279.765 31.212V31.19V31.212ZM293.045 42.102C292.971 42.1313 292.927 42.124 292.913 42.08C292.898 42.036 292.927 41.992 293.001 41.948C294.174 41.4053 294.761 40.6647 294.761 39.726C294.761 39.55 294.687 39.4253 294.541 39.352C294.394 39.2933 294.167 39.242 293.859 39.198C293.448 39.1393 293.14 39.0587 292.935 38.956C292.729 38.8387 292.627 38.6113 292.627 38.274C292.627 38.098 292.707 37.9147 292.869 37.724C293.03 37.5187 293.25 37.35 293.529 37.218C293.807 37.086 294.115 37.02 294.453 37.02C295.025 37.02 295.443 37.152 295.707 37.416C295.971 37.68 296.103 38.0173 296.103 38.428C296.103 38.9707 295.934 39.4987 295.597 40.012C295.259 40.5253 294.849 40.9653 294.365 41.332C293.895 41.7133 293.455 41.97 293.045 42.102Z" fill="black"/>
</svg>
