<svg xmlns="http://www.w3.org/2000/svg" width="250" height="482" fill="none" viewBox="0 0 250 482"><path fill="#181818" d="M96.056 3.68A2 2 0 0 0 93.888.32L94.972 2zm152.745 470.14a2 2 0 0 0 .991-2.649l-7.459-16.381a2 2 0 1 0-3.64 1.657l6.63 14.562-14.561 6.63a2 2 0 1 0 1.657 3.641zM12.972 294.5l-1.947.459zm82-292.5L93.888.32h-.002l-.002.002-.01.006-.029.02a25 25 0 0 0-.511.341c-.35.239-.863.594-1.521 1.066L92.98 3.38l1.167 1.624a69 69 0 0 1 1.8-1.25l.087-.058.019-.013.004-.003zm-6.036 4.43L87.7 4.86a156 156 0 0 0-3.927 3.198l1.287 1.531 1.287 1.53a152 152 0 0 1 3.827-3.115zm-7.683 6.454-1.33-1.493a192 192 0 0 0-3.753 3.436l1.37 1.457 1.37 1.457a188 188 0 0 1 3.674-3.363zm-7.344 6.901-1.406-1.422q-1.756 1.734-3.596 3.641l1.44 1.388 1.44 1.388a208 208 0 0 1 3.528-3.572zm-7 7.26-1.472-1.355a222 222 0 0 0-3.375 3.754l1.502 1.32 1.502 1.321a219 219 0 0 1 3.315-3.687zm-6.642 7.558-1.532-1.287a231 231 0 0 0-3.219 3.921l1.56 1.253 1.56 1.252a226 226 0 0 1 3.163-3.853zm-6.284 7.827-1.587-1.218a235 235 0 0 0-3.08 4.106l1.612 1.183 1.613 1.183a231 231 0 0 1 3.028-4.036zm-5.954 8.112-1.637-1.149a239 239 0 0 0-2.888 4.213l1.661 1.113 1.662 1.113q1.418-2.115 2.84-4.142zm-5.604 8.362-1.685-1.078a243 243 0 0 0-2.7 4.318l1.708 1.042 1.707 1.042a237 237 0 0 1 2.654-4.246zm-5.246 8.589-1.728-1.007a245 245 0 0 0-2.515 4.423l1.749.97 1.749.97a240 240 0 0 1 2.473-4.35zm-4.882 8.796-1.768-.935a248 248 0 0 0-2.333 4.529l1.787.897 1.788.898a243 243 0 0 1 2.295-4.455zm-4.514 8.986-1.805-.86a250 250 0 0 0-2.153 4.635l1.822.824 1.823.824a246 246 0 0 1 2.118-4.561zm-4.145 9.164-1.839-.787a254 254 0 0 0-1.968 4.727l1.854.75 1.855.75a249 249 0 0 1 1.936-4.653zm-3.775 9.328-1.869-.714a256 256 0 0 0-1.768 4.775l1.882.676 1.882.676q.855-2.38 1.741-4.7zm-3.407 9.48-1.895-.64a262 262 0 0 0-1.57 4.808l1.907.603 1.907.602q.757-2.394 1.546-4.734zm-3.039 9.623-1.918-.566q-.705 2.39-1.373 4.828l1.929.529 1.928.529q.66-2.403 1.353-4.755zm-2.654 9.684-1.939-.493a273 273 0 0 0-1.198 4.91l1.947.457 1.947.456q.573-2.444 1.181-4.838zm-2.289 9.766-1.955-.42a279 279 0 0 0-1.032 5.023l1.963.384 1.963.385q.49-2.5 1.016-4.951zm-1.935 9.873-1.97-.349a284 284 0 0 0-.84 5.003l1.974.314 1.976.314q.395-2.488.83-4.933zm-1.587 9.978-1.98-.28a294 294 0 0 0-.658 4.972l1.985.245 1.985.245q.306-2.472.648-4.903zm-1.23 9.956-1.988-.211a301 301 0 0 0-.495 5.057l1.992.178 1.992.178q.225-2.516.488-4.991zm-.893 9.994-1.995-.145a312 312 0 0 0-.328 5.08l1.997.112 1.997.113q.143-2.526.324-5.014zm-.57 10.087-1.997-.08q-.101 2.488-.163 5.013l2 .049 1.999.049q.06-2.493.16-4.951zm-.246 10.035-2-.018a333 333 0 0 0-.007 5.093l2-.013 2-.012q-.015-2.533.007-5.032zm.061 10.036-2 .042a344 344 0 0 0 .145 5.069l1.999-.072 1.998-.071q-.09-2.522-.142-5.01zm.363 10.135-1.997.101q.124 2.472.286 4.974l1.995-.128 1.996-.129q-.159-2.474-.282-4.918zm.642 9.954-1.994.156q.198 2.533.435 5.096l1.991-.184 1.992-.183q-.234-2.536-.43-5.041zm.926 10.05-1.99.21q.263 2.479.56 4.985l1.987-.236 1.986-.236a381 381 0 0 1-.554-4.933zm1.186 9.974-1.983.262q.333 2.523.703 5.073l1.98-.287 1.979-.287a397 397 0 0 1-.696-5.023zm1.44 9.945-1.975.311q.39 2.474.815 4.973l1.971-.336 1.972-.335q-.42-2.475-.807-4.924zm1.693 9.949-1.968.358q.453 2.48.94 4.985l1.963-.381 1.963-.382a429 429 0 0 1-.93-4.939zm1.911 9.831-1.959.404q.508 2.458 1.049 4.94l1.954-.426 1.954-.426q-.537-2.46-1.04-4.896zM12.39 292l-1.949.447q.288 1.254.584 2.512l1.947-.459 1.947-.459q-.294-1.247-.58-2.489zm.582 2.5-1.947.459q.295 1.248.628 2.491l1.932-.517 1.931-.518a79 79 0 0 1-.597-2.374zm2.065 7.274-1.899.629a94 94 0 0 0 1.755 4.841l1.862-.732 1.86-.732a90 90 0 0 1-1.68-4.636zm3.69 9.399-1.82.826a110 110 0 0 0 2.227 4.621l1.78-.91 1.782-.91a106 106 0 0 1-2.147-4.452zm4.59 8.996-1.74.987a128 128 0 0 0 2.612 4.398l1.7-1.055 1.699-1.054a125 125 0 0 1-2.53-4.262zm5.322 8.582-1.66 1.117q1.417 2.104 2.926 4.189l1.62-1.173 1.62-1.172q-1.47-2.03-2.847-4.078zm5.915 8.182-1.583 1.223a177 177 0 0 0 3.183 3.998l1.547-1.269 1.546-1.268a173 173 0 0 1-3.11-3.906zm6.4 7.81-1.513 1.309a204 204 0 0 0 3.4 3.826l1.478-1.347 1.478-1.347a200 200 0 0 1-3.332-3.75zm6.798 7.469-1.447 1.381a240 240 0 0 0 3.58 3.669l1.417-1.412 1.416-1.412a232 232 0 0 1-3.52-3.607zm7.132 7.158-1.388 1.44a273 273 0 0 0 3.715 3.51l1.36-1.467 1.36-1.467a262 262 0 0 1-3.66-3.457zm7.412 6.875-1.334 1.49a301 301 0 0 0 3.822 3.361l1.308-1.513 1.308-1.513a297 297 0 0 1-3.77-3.316zm7.649 6.616-1.284 1.533a338 338 0 0 0 3.913 3.227l1.261-1.552 1.261-1.553a337 337 0 0 1-3.867-3.189zm7.85 6.377-1.239 1.57a380 380 0 0 0 3.995 3.109l1.218-1.587 1.218-1.586a378 378 0 0 1-3.953-3.076zm8.006 6.146-1.197 1.602A408 408 0 0 0 88.688 390l1.178-1.616 1.178-1.616A412 412 0 0 1 87 383.782zm8.164 5.95-1.16 1.63q2.07 1.472 4.157 2.922l1.14-1.643 1.142-1.642a461 461 0 0 1-4.12-2.896zm8.3 5.768-1.124 1.655a476 476 0 0 0 4.21 2.828l1.107-1.665 1.107-1.666a507 507 0 0 1-4.177-2.806zm8.417 5.595-1.091 1.677q2.127 1.384 4.263 2.746l1.075-1.687 1.075-1.686a562 562 0 0 1-4.231-2.726zm8.517 5.432-1.06 1.696q2.156 1.348 4.316 2.673l1.046-1.705 1.045-1.705a578 578 0 0 1-4.287-2.655zm8.611 5.282-1.032 1.713q2.183 1.313 4.364 2.603l1.017-1.722 1.018-1.721a660 660 0 0 1-4.336-2.587zm8.706 5.146-1.005 1.73a671 671 0 0 0 4.39 2.527l.991-1.737.992-1.737a639 639 0 0 1-4.364-2.512zm8.783 5.014-.979 1.744q2.207 1.238 4.402 2.45l.967-1.751.966-1.751a791 791 0 0 1-4.377-2.436zm8.851 4.885-.954 1.757a684 684 0 0 0 4.441 2.392l.942-1.764.943-1.764a704 704 0 0 1-4.418-2.379zm8.911 4.762-.931 1.77q2.254 1.185 4.485 2.34l.919-1.776.92-1.776a856 856 0 0 1-4.462-2.328zm8.967 4.643-.909 1.782q2.282 1.164 4.529 2.292l.898-1.787.897-1.787a839 839 0 0 1-4.506-2.281zm9.021 4.532-.887 1.793q2.307 1.142 4.571 2.245l.876-1.798.877-1.798a887 887 0 0 1-4.55-2.234zm9.077 4.426-.866 1.803a843 843 0 0 0 4.607 2.196l.855-1.808.856-1.808a835 835 0 0 1-4.586-2.186zm9.139 4.325-.846 1.812q2.352 1.097 4.627 2.141l.834-1.817.835-1.818a865 865 0 0 1-4.605-2.131zm9.203 4.227-.825 1.822q2.359 1.067 4.611 2.071l.814-1.827.815-1.827a875 875 0 0 1-4.591-2.061zm9.257 4.125-.803 1.831q2.365 1.038 4.582 1.994l.793-1.836.792-1.836a824 824 0 0 1-4.56-1.985zm9.252 3.993-.782 1.841q2.48 1.052 4.706 1.98l.77-1.846.77-1.846a868 868 0 0 1-4.683-1.97zm9.372 3.907-.756 1.851a700 700 0 0 0 4.705 1.903l.742-1.858.742-1.857a616 616 0 0 1-4.676-1.891zm9.274 3.704-.724 1.864a293 293 0 0 0 2.215.85l.116.044.03.011.008.003.002.001h.001l.701-1.873.701-1.873h-.002l-.006-.003-.027-.01-.111-.042-.442-.168c-.392-.149-.975-.373-1.738-.669z"/></svg>