<svg xmlns="http://www.w3.org/2000/svg" width="38" height="38" fill="none" viewBox="0 0 38 38"><path fill="#681f2a" d="M18.56 37.134a18.573 18.573 0 0 1-7.226-35.677 18.574 18.574 0 0 1 14.459 34.218 18.5 18.5 0 0 1-7.232 1.459m2.294-15.691v8.04a.22.22 0 0 0 .207.208h1.832c.164 0 .237-.073.237-.237V7.738q.001-.3-.326-.3h-3.37a5.9 5.9 0 0 0-2.353.47 5.55 5.55 0 0 0-1.95 1.4 8.14 8.14 0 0 0-1.818 5.55 7.1 7.1 0 0 0 .983 3.786 6.1 6.1 0 0 0 2.8 2.384l-4.523 8.189a.34.34 0 0 0-.024.34.29.29 0 0 0 .26.134h2.1a.335.335 0 0 0 .355-.208l4.11-8.04zm0-1.9h-1.242a3.5 3.5 0 0 1-2.654-1.157 4.3 4.3 0 0 1-.864-1.546 7.4 7.4 0 0 1-.326-2.281 8.5 8.5 0 0 1 .305-2.381 4.7 4.7 0 0 1 .807-1.621 3.1 3.1 0 0 1 2.465-1.22h1.508v10.208z"/></svg>