<svg xmlns="http://www.w3.org/2000/svg" width="24" height="24" fill="none" viewBox="0 0 24 24"><path fill="#f5cdcb" d="M11.602 5.62c3.248 0 5.93 2.682 5.93 5.93a5.93 5.93 0 0 1-5.93 5.93c-3.3 0-5.93-2.63-5.93-5.93a5.93 5.93 0 0 1 5.93-5.93m0 9.797c2.114 0 3.815-1.701 3.815-3.867a3.807 3.807 0 0 0-3.815-3.815c-2.166 0-3.867 1.701-3.867 3.815a3.86 3.86 0 0 0 3.867 3.867M19.13 5.414c0 .774-.619 1.392-1.392 1.392a1.386 1.386 0 0 1-1.392-1.392c0-.773.618-1.392 1.392-1.392s1.392.619 1.392 1.392m3.919 1.392c.103 1.908.103 7.632 0 9.54-.104 1.856-.516 3.454-1.857 4.846-1.34 1.341-2.99 1.753-4.846 1.857-1.908.103-7.632.103-9.54 0-1.856-.104-3.454-.516-4.846-1.857C.619 19.8.206 18.202.103 16.346 0 14.438 0 8.714.103 6.806.206 4.95.62 3.3 1.96 1.96 3.352.619 4.95.206 6.806.103 8.714 0 14.438 0 16.346.103c1.856.103 3.506.516 4.846 1.857s1.753 2.99 1.857 4.846m-2.475 11.55c.618-1.495.464-5.104.464-6.806 0-1.65.154-5.26-.464-6.806-.413-.98-1.186-1.805-2.166-2.166-1.547-.618-5.156-.464-6.806-.464-1.702 0-5.311-.154-6.807.464a3.98 3.98 0 0 0-2.217 2.166C1.96 6.29 2.114 9.9 2.114 11.55c0 1.702-.154 5.311.464 6.806a3.9 3.9 0 0 0 2.217 2.218c1.496.618 5.105.464 6.807.464 1.65 0 5.26.154 6.806-.464.98-.413 1.805-1.186 2.166-2.218"/></svg>