<svg xmlns="http://www.w3.org/2000/svg" width="26" height="15" fill="none" viewBox="0 0 26 15"><path fill="#f5cdcb" d="M24.703 1.031c-.375 1.594-3.75 6.375-3.75 6.375-.281.469-.422.703 0 1.219.188.234 3.703 3.61 4.219 5.203.234.797-.14 1.172-.937 1.172h-2.766c-1.031 0-1.36-.797-3.235-2.672-1.64-1.594-2.343-1.828-2.765-1.828-.844 0-.703.328-.703 3.469 0 .656-.235 1.031-1.969 1.031-2.906 0-6.14-1.734-8.438-5.016C.938 5.156 0 1.547 0 .797 0 .375.188 0 .938 0h2.765c.703 0 .985.328 1.266 1.078 1.36 3.938 3.61 7.406 4.547 7.406.375 0 .515-.187.515-1.078V3.328C9.938 1.453 8.953 1.313 8.953.656c0-.328.235-.656.703-.656h4.313c.61 0 .797.328.797 1.031v5.485c0 .562.281.797.422.797.375 0 .656-.235 1.312-.844 1.97-2.25 3.375-5.672 3.375-5.672.188-.422.516-.797 1.219-.797h2.765c.844 0 .985.469.844 1.031"/></svg>