<svg xmlns="http://www.w3.org/2000/svg" width="115" height="38" fill="none" viewBox="0 0 115 38"><g clip-path="url(#a)"><g clip-path="url(#b)"><g clip-path="url(#c)"><path fill="#181818" d="M109.142 13.617h5.246c-.66-5.108-4.391-7.793-9.577-7.793-5.253 0-8.756 2.783-8.756 7.563 0 5.435 4.522 6.647 6.924 7.138 3.1.622 6.128.688 6.128 3.437 0 1.867-1.512 2.783-3.667 2.783-2.656 0-4.426-1.375-4.863-3.864h-5.186c.313 5.37 4.081 8.251 9.607 8.251 5.121 0 9.331-2.422 9.331-7.661 0-5.633-4.835-6.648-8.221-7.171-2.309-.36-4.839-.687-4.839-3.209 0-1.768 1.299-2.847 3.476-2.847a4.12 4.12 0 0 1 4.397 3.373M92.515 6.645h-4.96v23.737h4.96zM72.572 22.1h6.476a5.975 5.975 0 0 1-5.905 3.765c-4.617 0-6.769-3.7-6.769-7.367 0-3.7 2.027-7.464 6.735-7.464 2.879 0 5.024 1.375 5.851 3.83h5.34c-.915-5.532-5.598-8.708-11.128-8.708-6.829 0-11.953 4.813-11.953 12.41 0 7.698 5.567 12.245 11.924 12.245 6.259 0 11.158-4.224 11.158-10.837v-1.932H72.574zM49.87 6.156c-5.69 0-9.892 3.7-9.862 9.856h5.122c-.064-2.686 1.582-5.14 4.488-5.14a3.827 3.827 0 0 1 4.017 3.929c0 2.1-1.488 3.273-4.24 4.551-3.76 1.736-6.45 2.849-9.198 3.831v7.2h19.157v-4.84H46.202l.065-.02a49 49 0 0 0 5.915-2.37c4.265-1.964 6.698-4.42 6.698-8.61.002-5.145-3.665-8.387-9.01-8.387"/><path fill="#681f2a" d="M26.54 22.035c-6.45.033-7.493 4.06-7.84 7.465l-.158 1.506h-1.3l-.158-1.506c-.345-3.404-1.42-7.434-7.65-7.465a13.56 13.56 0 0 1-1.487-6.057 9.827 9.827 0 0 1 9.959-9.822 9.76 9.76 0 0 1 9.898 9.855 12.7 12.7 0 0 1-1.265 6.024M17.845 0C8.047 0 .016 8.317.016 18.497c0 10.215 8.03 18.532 17.83 18.532 9.898 0 17.897-8.317 17.897-18.532C35.743 8.315 27.744 0 17.846 0"/></g></g></g><defs><clipPath id="a"><path fill="#fff" d="M0 0h114.39v37.03H0z"/></clipPath><clipPath id="b"><path fill="#fff" d="M0 0h114.39v37.03H0z"/></clipPath><clipPath id="c"><path fill="#fff" d="M.016 0h114.368v37.03H.016z"/></clipPath></defs></svg>