<svg xmlns="http://www.w3.org/2000/svg" viewBox="0 0 500.43 276.77"><defs><style>.st0{fill:#181818}.st1{fill:#681f2a}</style></defs><g id="Layer_4"><path d="m99.05 39.87 4.05-3.98c7.39-4.67 3.29 8.08 2.19 11.33 1.77-.89 5.87-5.17 7.31-1.77 1.55 3.69-2.9 13.43-5.38 16.49-.45.56-1.42.88-1.59 1.28-.37.84-.53 6.36-1.27 8.61-.97 2.91-2.93 4.61-4.5 7.1 15.62-5.93 23.47-23.79 15.64-39.02C103.38 16.34 61.76-.21 37.26 10.68c-2.32 1.03-5.2 3.42-7.16 4.15-3.39 1.26-1.36-1.3.21-2.54 25.89-20.37 94.37 7.57 89.94 43.31-.59 4.79-2.93 10.46-4.77 14.94-5.07 12.38-9.06 18.42-21.97 23.18-.94.36-5.04 1.65-2.42-.42 6.67-5.27 16.01-7.9 18.41-17.47-1.79 1.1-3.42 2.48-5.25 3.53-1.09.62-6.2 2.61-6.44 2.87-.27.3.08 1.36-.14 1.48-.84.53-1-.99-1.08-.99-1.28 0-5.34 1.56-7.09 1.88-26.62 4.95-67-12.85-76.26-39.61l-1.61-5.56c-3.05 10.46 1.83 20.32 7.32 28.91.99-1.42-.79-4.93 1.39-5.49.34 1.89.42 3.9.51 5.82.02.74-.45 1.6-.23 2.29.09.27 2.74 3.29 3.2 3.78.91.96 3.47 3.61 4.4 4.24.71.48.53-.27.55-.66.08-1.55-.29-3.32-.29-4.88l-.95.91c-1.38-1.04.51-3.8 1.83-2.24 1.28 1.5.31 8.05.58 8.38.08.1.78.12 1.07.23.51-2.12 1.76-5.64 4.04-2.97l.88 4.41c2.83-7.09 8.2-6.1 6.69 2.01-.42 2.25-1.69 4.79-2.1 1.04-.18-1.66.11-3.69.04-5.39-2.47.08-3.07 3.69-4.18 5.42 4.28 2.93 9.03 5.05 13.77 7.15-.16-2.07 4.62-12.64 7.28-8.49 1.17 1.82.08 6.45.21 6.77.37.82.66-.08.86-.34.93-1.25 1.51-3.46 3.25-4.01 4.68-1.48 3.37 7.16 2.6 9.56.73.21 5 .71 5.23.16-.25-1.6.91-4.69.35-6.04-.52-1.25-1.76.54-2.55.56.55-2.33 3.33-3.5 3.94-.54.18.9-.41 2.07.45 2.62.46-2.37 6.72-7.39 7.44-3.07l.06 4.71c.83-2.06 4.13-7.51 6.61-7.11 2.71.43.65 6.48-.4 7.95-.35.48-.61.9-1.29.62l1.56-7.14c-1.51-.27-3.1 1.55-4 2.61-1.94 2.28-3.3 5.18-4.64 7.83.78.87 7.49.11 8.9-.22 1.21-.29 3.87-1.67 4.78-1.64.56.02.63.15.42.65-.29.41-4.29 1.92-5.08 2.14-4.51 1.26-10.87 1.03-15.45.31-1.46-.23-6.53-1.77-7.39-1.45-.49.19-1.14 2.19-1.2-.45-.82.31-5.1-.56-5.33-.42-.17.11-.16 1.33-.31 1.43-1.12.74-.94-1.57-1.29-1.78-.4-.23-1.3-.04-1.37.26l-1.68 7.67c5.06-2.35 10.6-4.54 16.3-4.48 3.71.04 8.9.77 12.59 1.45 4.02.73 12.54 1.95 9.42 8-3.28 6.35-22.02 7.43-28.34 6.53-4.48-.64-7.88-2.56-11.89-4.42-.7 3.11 2.28 6.57 4.74 8.16 2.81 1.81 8.35 3.49 11.65 3.3.52-.03 1.12.2 1.39-.46l-15.03-6.18c-1.92-4.45 5.52-.58 7.27.23 3.67 1.68 7.1 3.85 10.45 6.07 16.56-5.69 42.64-6.26 39.21 18.57-.81 5.85-5.19 14.1-3.25 19.57 1.04 2.94 3.97 4.09 6.04 1.58.65-.79 1.16-4.27 2.33-2.67 1.8 2.48-3.82 6.2-6.29 6.06-4.53-.27-6.34-4.36-6.32-8.39.03-6.03 3.19-11.16 3.87-17.21 1.58-14.26-4.98-17.62-18.13-17.54-5.1.03-9.99 1.27-14.81 2.74 2.21 1.66 3.31 7.7 4.53 9.06.59.66 4.49 1.43 6.22 2.76 6.18 4.79 5.83 19.75 3.63 26.44-1.61 4.9-7.82 11.99-2.91 16.97 3.49 3.54 6.77.41 10.68.67-2.13 5.75-10.05 5.21-13.81 1.02-6.06-6.77.73-14.12 2.73-20.47 1.83-5.81 3.12-20.94-4.49-23.2-.38-.11-1.01-.53-.96.31.05.8.76 2.37.93 3.4 3.17 20-13.26 26.71-30.31 25.47-25.43-1.85-66.27-30.92-31.38-52.82l7.53-2.84c-3.08-.93-6.07-2.15-8.93-3.64-1.32-.69-6.23-3.48-7.03-4.32-.87-.91.21-1.77 1-2.21 1.83-1.05 6.76-2.45 9.02-3.16 6.63-2.1 12.95-4.4 19.73-1.49 3.2 1.37 5.11 3.67 8.17 5.04l1.29-5.89c.45-2.05-4.19-2.79-5.87-3.6-2.5-1.22-4.92-3.25-7.09-4.99-.6-.43-.6.66-1.26.76-1.99.29-.9-1.8-1.5-2.81-.2-.34-2.59-1.89-2.82-1.8s-.46 1.17-1.16.83c-.63-.55-.21-1.82-.53-2.27s-4.2-3.23-5.17-4.2c-1.01-1.02-4.94-5.48-5.01-6.62-.19-3.32-1.72-3.93-3.27-6.8-2.87-5.33-6.11-12.76-5.98-18.88.09-4.09 1.32-7.46 1.97-11.38 1.03-6.27.33-10.75 4.95-16.18.36-.42 1.57-1.78 2.27-1.48C6.86 30.82 14.51 49.47 25.21 60c2.3-2.35 6.06-2.91 9.22-3.31 5.38-.67 10.51-.16 15.87.58l-14.71-6.99c-3.18-2.08-9.13-3.95-9.67-8.07l-2.9 2.83c-.92.87-1.42 1.97-2.06 3.04-.3.52.09 1.09-.93.67 11.66-23.35 41.5-25.17 62.75-14.28 9.79 5.02 20.83 13.6 22.58 25.11 1.85-1.44 7.21-12.62 5.86-14.03-1.59-1.68-6.3 4.62-7.42 4.93-2.66.76.57-6.24.77-6.97.4-1.51.91-3.49 1.12-5 .23-1.7.53-3.35-1.64-2.04-1.96 1.19-5.02 5.86-5.81 6.25-.73.36-1.7-.06-1.59-.57l3.2-14.63c.09-.43-.28-2.37-.79-2.57-1.07-.42-4.12 2.46-4.9 3.27-.97 1-3.18 4.4-3.94 4.86-3.02 1.82-1.13-6.96-1.06-8.22.35-6.06-.91-8.68-6.32-3.76-1.26 1.15-4.75 6.44-5.14 6.58-.26.09-.92-.08-1.17-.24-1.22-.79 1.41-9.34-.41-11.09-2.19-2.11-6.22 2.77-7.33 4.38-.77 1.11-3.4 6.67-3.76 6.82-.54.22-1.84-.42-1.57-1.24.24-1.79 2.64-12.57 1.17-13.01-1.69-.5-7.21 6.23-8.29 7.64-.85 1.1-4.14 7.01-5.26 6.56-.4-.16-.66-.98-.65-1.44.06-2.23 1.18-5.85 1.42-8.28.13-1.3-.06-2.61.11-3.9-.94-1.21-5.16 3.28-5.82 4.08-2.81 3.44-4.38 7.05-6.11 11.06-.45 1.04-1.66 1.35-1.42-.29.45-3.11 2.17-10.53.97-13.21-.87-1.93-3.25 1.43-3.9 2.39-3.01 4.4-4.48 10.34-5.57 15.49l-1.42-.53-.1-12.15c-.37-.93-1.44.46-1.66.76-3.94 5.02-5.22 13.05-6.62 19.12-.6-.32-.7-.89-.76-1.5-.47-4.36 2.72-14.07 5.09-17.85 1.3-2.06 3.49-4.98 5.64-2.13l.72 5.13c.85-2.76 5.17-12.75 9.04-10.86 2.53 1.24 1.37 6.77 1.28 9.01 2.43-3.04 4.11-6.81 7.29-9.22 2.62-1.98 4.93-1.91 5.27 1.79l-.33 7.11c1.75-3.06 4.26-6.77 6.92-9.08 6.55-5.67 8.53.42 6.75 6.46l4.35-4.47c6.39-3.7 8 2.08 7.18 7.37 8.79-10.79 15.37-5.53 11.73 7.06.79.36.6.02.9-.28 1.75-1.76 7.35-9.03 9.71-4.52.26.49.64 2.95.56 3.32l-2.62 11.95Zm-70.71.97c1.48.09 3.79.83 5.35 1.17 1.43.31 5.62 3.1 7.02 4.09 2.39 1.7 4.41 3.88 6.74 5.65-2.36-4.34-5.22-9.46-6.01-14.41-1.42-9.01 5.6-1.17 6.75 2.42-.5.51-.75-.33-.99-.59-1.24-1.35-2.35-3.22-3.98-4.05-1.17.8 3.94 12.66 4.73 14.3.57 1.19 4.69 8.03 4.49 8.46-.3.66-4.68-.19-5.69-.25-5.79-.33-12.43-.12-17.61 2.44.9 1.03 16.8-1.37 19.82-.89.39.06 1.4.06 1.17.63-6.61 2.65-14.44 3.23-21.55 2.76-.65.27 5.86 4.97 6.33 5.3 11.81 8.14 26.97 13.84 41.3 14.64 1.44-4.19.84-6.54-1.56-10.04-1.44-2.1-5.09-5.11-5.98-6.91-1.31-2.65.75-3.16 2.98-2.54 5.88 1.65 12.76 6.63 18.37 9.26-.26.67-1.86-.03-2.34-.19-4.5-1.45-8.74-4.01-13.25-5.47-.41.78.06.64.27.92 3.29 4.36 8.16 9.92 3.3 15.2 5.28.38 10.6-.16 15.69-1.6.64-.19 3.65-1.11 3.91-1.32.84-.72 4.65-5.49 5.17-6.53 5.71-11.3-1.52-23.29-10.32-30.34-14.68-11.76-35.97-17.29-53.81-9.9-2.87 1.19-9.98 5.24-11.66 7.67-.13.19-.2.59.06.57.34-.1 1.01-.48 1.25-.46Zm20.63 14.24c-3.64-4.96-10.64-10.26-16.66-11.87-.81-.22-5.06-1.11-3.54.43.63.64 1.85 1.46 2.63 1.99 5.5 3.73 11.78 6.23 17.57 9.44ZM33.2 82.67c.38-1.23.27-2.56-.11-3.76-1.52 1.17-2.18 3.08.11 3.76m22.51 11.66c.45-.29.68-6.3.58-7.28-.04-.43-.28-2.58-1.12-2.19-.45.21-3.59 6.8-3.5 7.59.1.88 3.18 1.56 4.04 1.88m21.94-4.54c-1.37-1.43-6.71 4.97-7.01 6.48l1.92 1.38-2.02.68 5.79.89c.76-3.1 1.41-6.23 1.31-9.43Zm-14.8 6.1c.5-1.26 1.5-7.93-.24-8.3-3.02.71-3.71 4.76-5.11 7.13zm-9.63 1.26c-.53-.02-2.29-.66-2.49-.53-.89.57-1.09 9.88-2.16 11.48l1.5-.29 3.14-10.66Zm.24 14.27c8.29 3.81 19.45 3.99 28.2 1.65 2.45-.66 10.56-4.4 4.82-6.39-.98-.34-8.51-1.45-8.88-1.15-.16.13-.32 1.48-.66 2.08-3.37 6.03-16.88 3.7-22.37 3.41-.33-.02-1.1-.09-1.11.4m21.62-6.49c-7.04-1.39-15-.92-21.68 1.83-.8.33-2.09.52-2.24 1.53 5.51.65 11.65 1.65 17.15.68 2.61-.46 5.66-1.38 6.77-4.04m-33.5-2.47c-7.03-4.63-14.53-2.67-21.95-.52-1.72.5-4.66 1.19-6.14 1.91-.46.22-.82.19-.82.88 7.58 3.66 13.84 5.84 22.38 5.01 2.84-.27 8.5-.71 8.85-4.15-1.3-.35-2.64-.59-3.98-.7-3.36-.22-8.38 1.5-10.93 1.16-.69-.09-1.15-.13-1.45-.86 1.79-2.18 5.15-1.65 7.69-2.35l6.35-.37Zm3.29 12.31c-.19-1.25 2.02-4.23.92-5.04-.73-.52-.72-.11-1.07.24-1.68 1.71-3.25 2.65-5.75 2.75l3.59 1.53 2.31.51Zm4.04-3.2c-.09-.21-1.05-.8-1.4-.1-.17.35-1.49 4.14-1.37 4.33.06.09.79.13 1.07.23-.27-1.24 2.09-3.6 1.7-4.46m-4.63 4.19-7.32-1.6c-6.67-1.46-18.92 3.9-23.5 8.82-18.48 19.87 16.45 40.84 33.36 43.46 18.14 2.81 38.29-5.72 30.6-27.29-9.66-1.42-22.56.68-28.73-8.57-.78 3.34-1.49 2.19-1.91-.31-.44-2.65-.18-7.26-.07-10.08.06-1.53 1.39-3.75-1.09-3.75-.7 2.49-2.03 5.23-3.33 7.5-.7 1.22-1.51 2.85-2.82 3.5.81-4.15 3.63-7.59 4.8-11.66Zm32.32 19.8c-.52-1.9-2.93-8.1-4.68-8.78-.52-.2-3.9.27-4.95.23-6.26-.28-13.12-2.95-16.58-8.4-.8 5.59.89 12.27 6.8 14.21 6.18 2.01 13.05 1.8 19.41 2.75Z" class="st1"/><path d="M58.67 155.95c-.33 1.97-2.6 2.64-4.3 3.1-10.49 2.85-24.65-1.71-32.23-9.3-4.67-4.67-8.78-12.23-5.86-18.79l.08 5.63c3.01 13.28 18.51 20.49 31.12 20.34 3.89-.06 7.52-1.7 11.2-.97ZM25.25 74.57c-1.25-1.37-1.1-4.36-1.07-6.22.02-.72-.12-4.91 1.02-4.64.58.15.7 9.72.05 10.86m66.79 16.12.78-3.57-1.78-.39c3.29-2.65 3.62 2.96 1 3.96M69.54 55.1c4.64-3.12 7.62-8.54 12.3-11.7 3.21-2.17 5.63-1.98 3.26 2.21-2.19 3.87-5.89 6.61-8.26 10.33 5.03-2.47 10.48-4.72 16.12-5.24 10.76-1 8.84 3.32.75 5.96l-16.17 4.68c5.81 1.76 11.34 3.46 16.72 6.31 2.51 1.33 6.01 3.03 7.21 5.66-4.95-1.96-9.52-4.63-14.54-6.48-3.77-1.4-9.12-2.37-12.44-3.99-2.2-1.07-.35-2.5-.44-2.63-.79-.36-1.22.6-1.9.64-1.85.12-1.53-1.44-.74-2.62 1.72-2.59 6.16-6.22 8.44-8.85 1.49-1.68 2.86-3.46 4.09-5.34-1.69.87-3.41 2.43-4.8 3.76-2.27 2.17-6.76 8.28-8.94 9.51-3.03 1.71-2.64-2.39-2.85-2.65s-1.2-.15-1.7-.59c-1.82-1.62 2.43-14.58 3.54-17.01.58-1.27 2.59-5.43 4.01-2.85.13.25.14 3.62.07 3.94l-3.74 16.94Zm-1.91-1.54c.6-5.16 2.72-10.12 3.18-15.39-.76-.17-3.69 12.04-3.84 13.2-.09.67-.47 2.21.66 2.18Zm31.7-1.29c-8.64-1.26-17.89 2.79-24.86 7.65 7.04-1.56 16.44-2.35 22.78-5.86.36-.21 2.43-1.34 2.08-1.79M59.3 50.61c-.26.17-1.13-.55-1.31-.93-1.17-2.5-1.08-7.24-1.96-10.02l-1.46-5.04c0 2.56.3 5.18.65 7.71.48 3.47 2.71 10.91 2.51 13.73-.01.22-.03.61-.3.5-2.56-5.53-4.03-12.79-4.46-18.93-.1-1.39-.81-6.93 1.17-6.83 1.54.08 3.37 9.73 3.7 11.38.19.96 1.81 8.2 1.45 8.43Z" class="st1"/></g><g id="Layer_1"><g id="Layer_2"><path d="M51.89 213.79q0 .525-1.32 1.41c-7.22 4.87-12.09 7.3-14.61 7.3q-2.46 0-2.46-2.82c0-1.06.21-2.11.62-3.17.59-1.47.88-2.23.88-2.29 0-.23-.09-.35-.26-.35-.06 0-.21.06-.44.18-1.29 1.29-3.17 2.85-5.63 4.66-3.17 2.35-5.37 3.52-6.6 3.52-1.41 0-2.11-.7-2.11-2.11 0-.82 1.03-3.09 3.08-6.82s3.08-5.88 3.08-6.47c0-.64-.53-.97-1.58-.97-.23 0-.35-.35-.35-1.06.53-.18 1.08-.26 1.67-.26 2.05 0 3.08.59 3.08 1.76q0 1.935-2.73 6.51c-1.82 3.05-2.73 4.96-2.73 5.72 0 .47.2.7.62.7.94 0 3.24-1.55 6.91-4.66s6.5-5.92 8.49-8.45c.88-.88 1.52-1.32 1.94-1.32q1.14 0 1.14 1.14c0 .41-.21.94-.62 1.58-3.52 5.28-5.28 8.71-5.28 10.3 0 1.47.67 2.2 2.02 2.2 2.05 0 5.78-1.85 11.18-5.54.29-.23.7-.5 1.23-.79.18-.18.35-.26.53-.26s.26.12.26.35Zm39.24 0c0 .24-.29.59-.88 1.06-2.58 2.17-5.19 3.26-7.83 3.26-1.64 0-3.05-.44-4.22-1.32-2.7 3.52-5.63 5.28-8.8 5.28-2.35 0-3.52-1.47-3.52-4.4 0-3.81 1.88-7.66 5.63-11.53 3.17-3.23 5.48-4.84 6.95-4.84.94 0 1.41.29 1.41.88 0 .18-.18.41-.53.7-1.41.29-3.31 1.79-5.72 4.49-2.93 3.29-4.4 6.45-4.4 9.5 0 2 .7 2.99 2.11 2.99 2.05 0 4.14-1.2 6.25-3.61-1.12-1.23-1.67-2.76-1.67-4.58 0-2.11.53-3.93 1.58-5.46.94-1.29 1.94-1.94 2.99-1.94s1.67.73 1.85 2.2c0 2.58-.91 5.37-2.73 8.36 1 1.11 2.35 1.67 4.05 1.67q3.435 0 6.69-2.82c.18-.18.35-.26.53-.26s.26.12.26.35Zm-9.68-6.78c0-.59-.21-.88-.62-.88-.53 0-1.09.47-1.67 1.41-.59.94-.88 2.14-.88 3.61 0 1.23.26 2.26.79 3.08 1.58-2.46 2.38-4.87 2.38-7.22" class="st0"/><path d="M117.62 213.79c0 1.06-2.67 3.11-8.01 6.16-2.35 1.35-4.69 2.02-7.04 2.02-2.76 0-4.14-1.17-4.14-3.52 0-1.47 1.03-3.34 3.08-5.63 1.76-1.94 2.73-2.9 2.9-2.9-1.06 0-1.88-.62-2.46-1.85-.59-1.23-1.03-1.85-1.32-1.85-.24 0-.56.21-.97.62-.82 1.23-2.41 2.79-4.75 4.66q-1.845 1.5-5.19 3.78c-.18.18-.35.26-.53.26-.12 0-.18-.32-.18-.97.29-.18 1.35-.94 3.17-2.29 4.11-3.05 7.42-6.48 9.94-10.3.47-.76 1.08-1.14 1.85-1.14.35 0 .53.18.53.53 0 .24-.12.75-.35 1.54-.24.79-.35 1.36-.35 1.72 0 1.06.57 2 1.72 2.82 1.14.82 1.72 1.38 1.72 1.67 0 .53-.9 1.6-2.68 3.21-1.79 1.61-2.68 3.12-2.68 4.53 0 2.05.94 3.08 2.82 3.08 1.76 0 4.08-.88 6.95-2.64 1.7-1.17 3.43-2.38 5.19-3.61.18-.18.35-.26.53-.26s.26.12.26.35Z" class="st0"/><path d="M138.39 213.79c0 .41-1.2 1.38-3.61 2.9-5.93 3.76-10.18 5.63-12.76 5.63-3.81 0-5.72-2.23-5.72-6.69 0-3.29 1.6-6.58 4.8-9.9 3.2-3.31 6.23-4.97 9.11-4.97q1.32 0 1.32 1.23c0 2-1.73 4.81-5.19 8.45-2.76 2.88-5.02 4.84-6.78 5.9.18 2.58 1.41 3.87 3.7 3.87 2.17 0 5.81-1.47 10.91-4.4.41-.23 1.55-.94 3.43-2.11.18-.18.35-.26.53-.26s.26.12.26.35m-9.6-10.12c0-.7-.21-1.06-.62-1.06-1.47 0-3.26 1.47-5.37 4.4s-3.2 5.57-3.26 7.92c1.11-.35 2.87-1.88 5.28-4.58q3.96-4.395 3.96-6.69Z" class="st0"/><path d="M146.22 218.63c-.18.24-.41.54-.7.92q-.435.57-.84 1.14c-.26.38-.51.7-.75.97-.24.26-.41.4-.53.4q-1.14 0-1.14-1.23c0-.29.2-.88.62-1.76.7-1 1.41-1.96 2.11-2.9s1.38-1.91 2.02-2.9c2.05-2.93 3.08-5.02 3.08-6.25 0-.53-.18-.79-.53-.79-.23 0-.59.12-1.06.35-1.53 1.11-3.33 2.46-5.41 4.05q-3.12 2.37-7.35 5.46h-.62c-.41 0-.62-.06-.62-.18s.32-.41.97-.88c2.05-1.64 4.21-3.33 6.47-5.06s4.65-3.53 7.17-5.41c.65-.59 1.55-.88 2.73-.88s1.76.53 1.76 1.58c0 1.17-.85 3.05-2.55 5.63-.12.23-.26.46-.44.66-.18.21-.32.43-.44.66h1.67c.65 0 1.38-.03 2.2-.09 1.41-.12 2.61-.12 3.61 0 .23-.41.47-.82.7-1.23s.5-.85.79-1.32c.64-1 1.28-1.91 1.89-2.73.62-.82 1.25-1.55 1.89-2.2.41-.53 1.06-.79 1.94-.79.47.12.7.26.7.44l-3.08 5.1c-2.05 3.4-3.08 5.87-3.08 7.39 0 1.82.79 2.73 2.38 2.73 1.99 0 4.9-1.73 8.71-5.19.18-.18.35-.26.53-.26s.26.12.26.35c0 .35-.59.94-1.76 1.76-1.88 1.64-3.58 2.89-5.1 3.74-1.53.85-2.96 1.28-4.31 1.28-2.64 0-3.96-1.11-3.96-3.34 0-1.47.32-2.96.97-4.49-.7-.06-1.54-.09-2.51-.09s-2.04.06-3.21.18c-.82.06-1.35.09-1.58.09h-.53c-.82 1.17-1.54 2.29-2.16 3.34s-.92 1.64-.92 1.76Z" class="st0"/><path d="M173.32 216.96c0 1.58.64 2.38 1.94 2.38.94 0 1.88-.26 2.82-.79s1.85-1.2 2.73-2.02c-.88-.88-1.32-1.96-1.32-3.26 0-1.41.4-2.62 1.19-3.65s1.69-1.54 2.68-1.54 1.58.47 1.76 1.41c0 .88-.15 1.83-.44 2.86s-.82 2.13-1.58 3.3c.88.88 2.11 1.32 3.7 1.32 1.94 0 3.93-.79 5.98-2.38.18-.18.32-.26.44-.26.18 0 .26.12.26.35 0 .47-.32.91-.97 1.32s-1.39.79-2.24 1.14-1.72.63-2.6.84-1.55.31-2.02.31c-.82 0-1.47-.1-1.94-.31s-.97-.51-1.5-.92c-1.23 1.47-2.64 2.61-4.22 3.43s-3.11 1.23-4.58 1.23c-1.12 0-1.94-.46-2.46-1.36-.53-.91-.79-1.95-.79-3.12 0-.76.34-1.99 1.01-3.7.67-1.7 1.51-3.43 2.51-5.19q1.5-2.64 3.3-4.62t3.3-1.98c.47.12.7.26.7.44 0 .06-.48.73-1.45 2.02s-1.95 2.79-2.95 4.49-1.79 3.3-2.38 4.8-.88 2.66-.88 3.48Zm10.82-7.13c.23-.12.25-.22.04-.31s-.43-.13-.66-.13c-.47 0-.92.32-1.36.97q-.66.975-.66 2.55c0 .88.21 1.61.62 2.2.7-.88 1.22-1.8 1.54-2.77s.48-1.74.48-2.33zm60.19 3.96c-.35 1-2.49 2.49-6.42 4.49s-6.83 2.99-8.71 2.99c-1 0-1.5-.35-1.5-1.06 0-.94.98-2.82 2.95-5.63 1.96-2.82 2.95-4.66 2.95-5.54q0-1.5-1.41-1.5c-1.41 0-4.22 1.91-8.45 5.72-2.88 2.58-5.4 5.07-7.57 7.48-.82.88-1.47 1.32-1.94 1.32q-1.14 0-1.14-1.23c0-.24.21-.82.62-1.76a347 347 0 0 0 4.14-5.81c2.05-2.93 3.08-5.02 3.08-6.25 0-.53-.18-.79-.53-.79-.18 0-.53.12-1.06.35-2.99 2.23-7.25 5.4-12.76 9.5h-.62c-.41 0-.62-.06-.62-.18 0-.18.32-.47.97-.88 4.11-3.23 8.65-6.72 13.64-10.47.7-.59 1.61-.88 2.73-.88 1.17 0 1.76.53 1.76 1.58 0 1.23-.84 3.1-2.51 5.59s-2.51 3.86-2.51 4.09q0 .09.18.09c-.06 0 1.91-1.66 5.9-4.97s6.69-4.97 8.1-4.97c2.17 0 3.26.73 3.26 2.2 0 1.29-.94 3.4-2.82 6.34-1.88 2.93-2.82 4.61-2.82 5.02 0 .47.29.7.88.7 1.11 0 3.26-.85 6.42-2.55 2.17-1.23 3.84-2.26 5.02-3.08.18-.18.35-.26.53-.26s.26.12.26.35" class="st0"/><path d="M269.94 213.79c0 .82-2.11 2.35-6.34 4.58-4.22 2.23-9.36 3.34-15.4 3.34-3.46 0-5.34-.35-5.63-1.06 0-.41.32-.62.97-.62.88.18 1.44.26 1.67.26 2.99 0 6.19-1.52 9.59-4.58 3.23-2.87 4.84-5.34 4.84-7.39 0-.88-.56-1.32-1.67-1.32-5.52 0-11.53 5.22-18.04 15.66-.53.82-3.74 7.05-9.64 18.7-5.9 11.64-9.02 17.88-9.37 18.7-.41 1-.94 1.5-1.58 1.5-.23 0-.41-.03-.53-.09-.35-.12-.53-.47-.53-1.06q0-3.165 39.6-73.92.705-1.23 1.32-1.23c.06 0 .18.06.35.18.18.12.26.35.26.7 0 .65-.18 1.14-.53 1.5-.06.18-2.46 4.52-7.22 13.02q-6.78 12.315-6.78 13.11 0 .09.09.18c.06-.12.26-.35.62-.7 1.41-1.7 3.34-3.43 5.81-5.19 3.29-2.23 6.16-3.34 8.62-3.34 1.82 0 2.73.7 2.73 2.11 0 4.28-3.43 8.48-10.3 12.58 5.22 0 10.65-1.91 16.28-5.72.18-.18.35-.26.53-.26s.26.12.26.35Z" class="st0"/><path d="M297.57 213.79q0 1.05-5.46 4.05c-3.81 2.11-6.54 3.17-8.18 3.17-3.05 0-4.58-1.61-4.58-4.84 0-.88.47-1.88 1.41-2.99q0-.09-.09-.09c.06 0-1.53 1.22-4.75 3.65-3.23 2.44-5.54 3.65-6.95 3.65s-2.02-.56-2.02-1.67q0-4.05 6.78-9.42c4.28-3.46 7.63-5.19 10.03-5.19.35.06.75.25 1.19.57q.66.48.66.75 0 .09-.09.18c-3.29 0-7.48 2.55-12.58 7.66q-2.46 2.46-2.46 4.14c0 .41.2.62.62.62 1.29 0 3.75-1.5 7.39-4.49 2.93-2.46 5.02-4.43 6.25-5.9.59-.7 1-1.06 1.23-1.06.59 0 .88.41.88 1.23 0 .29-.38.97-1.14 2.02q-3.78 5.19-3.78 6.6 0 2.46 2.73 2.46c2.99 0 7.04-1.73 12.14-5.19.18-.18.35-.26.53-.26s.26.12.26.35Z" class="st0"/><path d="M321.68 213.79q0 .435-1.32 1.41l-12.14 8.98c-.12 4.52-2.23 10.53-6.34 18.04-3.81 7.04-8.18 13.26-13.11 18.65-5.22 5.69-9.33 8.51-12.32 8.45-1 0-1.85-.35-2.55-1.06-.7-.7-1.06-1.58-1.06-2.64q0-6.51 7.92-17.16c4.05-5.28 9.06-10.77 15.05-16.46 5.28-4.93 8.27-7.39 8.98-7.39 0-.35-.09-.68-.26-.97-.82-1.47-1.97-2.2-3.43-2.2-.59 0-1.23.12-1.94.35-1.41.47-2.26.7-2.55.7-.18 0-.29-.12-.35-.35 0-.59.58-1.12 1.76-1.58 1.88-.82 4.14-2.38 6.78-4.66 3.11-2.76 4.66-4.99 4.66-6.69q0-1.5-1.41-1.5-1.23 0-5.37 2.82c-2.17 1.58-4.34 3.17-6.51 4.75-.18.18-.35.26-.53.26-.12 0-.18-.32-.18-.97.18-.12 1.23-.92 3.17-2.42s3.92-3.05 5.94-4.66 3.86-2.42 5.5-2.42c2.11 0 3.17 1.12 3.17 3.34 0 2.7-3.46 6.31-10.38 10.82-.41.41-.62.7-.62.88 0 .24.21.35.62.35 2.58 0 4.28.76 5.1 2.29 1.35-.76 3.49-2.32 6.42-4.66 2.7-2.11 4.87-3.58 6.51-4.4.18-.18.35-.26.53-.26s.26.12.26.35Zm-16.45 12.67c0-.23-.03-.35-.09-.35-1.29 0-4.37 2.46-9.24 7.39q-7.74 7.74-13.38 15.93c-4.52 6.63-6.78 11.79-6.78 15.49 0 1.35.44 2.02 1.32 2.02 1.76 0 4.99-2.54 9.68-7.61a99.8 99.8 0 0 0 12.32-16.41c4.11-6.81 6.16-12.29 6.16-16.46Z" class="st0"/><path d="M347.82 213.79c-.24.76-2.26 2.27-6.07 4.53s-7.07 4.27-9.77 6.03c-8.39 16.43-13.61 26.34-15.66 29.74q-8.715 14.43-14.52 14.43c-1.76 0-2.64-1.14-2.64-3.43q0-20.235 30.54-40.83c1.35-2.64 3.81-7.66 7.39-15.05q0-.09-.18-.09c-.18 0-.32.15-.62.44-1.17 1.12-2.73 2.55-4.66 4.31-4.17 3.87-7.57 5.81-10.21 5.81-1.23 0-1.85-.73-1.85-2.2 0-2.64 1.91-5.69 5.72-9.15 4.11-3.75 8.12-5.63 12.06-5.63 1.11 0 2.05.23 2.82.7l1.85-2.55c.41-.53.82-.79 1.23-.79q1.14 0 1.14 1.23c0 .41-.15.82-.44 1.23-2.76 4.11-6.37 10.62-10.82 19.54 2.99-1.88 5.72-3.46 8.18-4.75 2.93-1.7 4.84-2.9 5.72-3.61.18-.18.35-.26.53-.26s.26.12.26.35m-19.36 13.02c-17.89 12.67-26.84 25.2-26.84 37.58 0 1.52.5 2.29 1.5 2.29 3.75 0 12.2-13.29 25.34-39.86Zm11.09-22.35c0-.23-.26-.35-.79-.35q-4.755 0-10.38 4.53c-3.75 3.02-5.63 5.71-5.63 8.05 0 .7.32 1.06.97 1.06 2.41 0 7.54-4.19 15.4-12.58.29-.41.44-.65.44-.7Z" class="st0"/><path d="M355.82 218.63c-.18.24-.41.54-.7.92q-.435.57-.84 1.14c-.26.38-.51.7-.75.97s-.41.4-.53.4q-1.14 0-1.14-1.23c0-.29.21-.88.62-1.76.7-1 1.41-1.96 2.11-2.9s1.38-1.91 2.02-2.9c2.05-2.93 3.08-5.02 3.08-6.25 0-.53-.18-.79-.53-.79-.24 0-.59.12-1.06.35-1.53 1.11-3.33 2.46-5.41 4.05q-3.12 2.37-7.35 5.46h-.62c-.41 0-.62-.06-.62-.18s.32-.41.97-.88c2.05-1.64 4.21-3.33 6.47-5.06s4.65-3.53 7.17-5.41c.64-.59 1.55-.88 2.73-.88s1.76.53 1.76 1.58c0 1.17-.85 3.05-2.55 5.63-.12.23-.26.46-.44.66-.18.21-.32.43-.44.66h1.67c.65 0 1.38-.03 2.2-.09 1.41-.12 2.61-.12 3.61 0 .23-.41.47-.82.7-1.23s.5-.85.79-1.32c.64-1 1.28-1.91 1.89-2.73.62-.82 1.25-1.55 1.89-2.2.41-.53 1.06-.79 1.94-.79.47.12.7.26.7.44l-3.08 5.1c-2.05 3.4-3.08 5.87-3.08 7.39 0 1.82.79 2.73 2.38 2.73 1.99 0 4.9-1.73 8.71-5.19.18-.18.35-.26.53-.26s.26.12.26.35c0 .35-.59.94-1.76 1.76-1.88 1.64-3.58 2.89-5.1 3.74-1.53.85-2.96 1.28-4.31 1.28-2.64 0-3.96-1.11-3.96-3.34 0-1.47.32-2.96.97-4.49-.7-.06-1.54-.09-2.51-.09s-2.04.06-3.21.18c-.82.06-1.35.09-1.58.09h-.53c-.82 1.17-1.54 2.29-2.16 3.34-.62 1.06-.92 1.64-.92 1.76Z" class="st0"/><path d="M410.03 213.79q0 .525-1.32 1.41c-7.22 4.87-12.09 7.3-14.61 7.3q-2.46 0-2.46-2.82c0-1.06.21-2.11.62-3.17.59-1.47.88-2.23.88-2.29 0-.23-.09-.35-.26-.35-.06 0-.21.06-.44.18-1.29 1.29-3.17 2.85-5.63 4.66-3.17 2.35-5.37 3.52-6.6 3.52-1.41 0-2.11-.7-2.11-2.11 0-.82 1.03-3.09 3.08-6.82s3.08-5.88 3.08-6.47c0-.64-.53-.97-1.58-.97-.24 0-.35-.35-.35-1.06.53-.18 1.09-.26 1.67-.26 2.05 0 3.08.59 3.08 1.76q0 1.935-2.73 6.51c-1.82 3.05-2.73 4.96-2.73 5.72 0 .47.21.7.62.7.94 0 3.24-1.55 6.91-4.66s6.5-5.92 8.49-8.45c.88-.88 1.52-1.32 1.94-1.32q1.14 0 1.14 1.14c0 .41-.21.94-.62 1.58-3.52 5.28-5.28 8.71-5.28 10.3 0 1.47.67 2.2 2.02 2.2 2.05 0 5.78-1.85 11.18-5.54.29-.23.7-.5 1.23-.79.18-.18.35-.26.53-.26s.26.12.26.35Z" class="st0"/><path d="M436.43 213.79c0 1.06-2.67 3.11-8.01 6.16-2.35 1.35-4.69 2.02-7.04 2.02-2.76 0-4.14-1.17-4.14-3.52 0-1.47 1.03-3.34 3.08-5.63 1.76-1.94 2.73-2.9 2.9-2.9-1.06 0-1.88-.62-2.46-1.85-.59-1.23-1.03-1.85-1.32-1.85-.23 0-.56.21-.97.62-.82 1.23-2.41 2.79-4.75 4.66q-1.845 1.5-5.19 3.78c-.18.18-.35.26-.53.26-.12 0-.18-.32-.18-.97.29-.18 1.35-.94 3.17-2.29 4.11-3.05 7.42-6.48 9.94-10.3.47-.76 1.08-1.14 1.85-1.14.35 0 .53.18.53.53 0 .24-.12.75-.35 1.54-.24.79-.35 1.36-.35 1.72 0 1.06.57 2 1.72 2.82 1.14.82 1.72 1.38 1.72 1.67 0 .53-.9 1.6-2.68 3.21-1.79 1.61-2.68 3.12-2.68 4.53 0 2.05.94 3.08 2.82 3.08 1.76 0 4.08-.88 6.95-2.64 1.7-1.17 3.43-2.38 5.19-3.61.18-.18.35-.26.53-.26s.26.12.26.35Z" class="st0"/><path d="M444.44 218.63c-.18.24-.41.54-.7.92q-.435.57-.84 1.14c-.26.38-.51.7-.75.97s-.41.4-.53.4q-1.14 0-1.14-1.23c0-.29.21-.88.62-1.76.7-1 1.41-1.96 2.11-2.9s1.38-1.91 2.02-2.9c2.05-2.93 3.08-5.02 3.08-6.25 0-.53-.18-.79-.53-.79-.24 0-.59.12-1.06.35-1.53 1.11-3.33 2.46-5.41 4.05q-3.12 2.37-7.35 5.46h-.62c-.41 0-.62-.06-.62-.18s.32-.41.97-.88c2.05-1.64 4.21-3.33 6.47-5.06s4.65-3.53 7.17-5.41c.64-.59 1.55-.88 2.73-.88s1.76.53 1.76 1.58c0 1.17-.85 3.05-2.55 5.63-.12.23-.26.46-.44.66-.18.21-.32.43-.44.66h1.67c.65 0 1.38-.03 2.2-.09 1.41-.12 2.61-.12 3.61 0 .23-.41.47-.82.7-1.23s.5-.85.79-1.32c.64-1 1.28-1.91 1.89-2.73.62-.82 1.25-1.55 1.89-2.2.41-.53 1.06-.79 1.94-.79.47.12.7.26.7.44l-3.08 5.1c-2.05 3.4-3.08 5.87-3.08 7.39 0 1.82.79 2.73 2.38 2.73 1.99 0 4.9-1.73 8.71-5.19.18-.18.35-.26.53-.26s.26.12.26.35c0 .35-.59.94-1.76 1.76-1.88 1.64-3.58 2.89-5.1 3.74-1.53.85-2.96 1.28-4.31 1.28-2.64 0-3.96-1.11-3.96-3.34 0-1.47.32-2.96.97-4.49-.7-.06-1.54-.09-2.51-.09s-2.04.06-3.21.18c-.82.06-1.35.09-1.58.09h-.53c-.82 1.17-1.54 2.29-2.16 3.34-.62 1.06-.92 1.64-.92 1.76Z" class="st0"/><path d="M494.07 213.79c0 .24-.29.59-.88 1.06-2.58 2.17-5.19 3.26-7.83 3.26-1.64 0-3.05-.44-4.22-1.32-2.7 3.52-5.63 5.28-8.8 5.28-2.35 0-3.52-1.47-3.52-4.4 0-3.81 1.88-7.66 5.63-11.53 3.17-3.23 5.48-4.84 6.95-4.84.94 0 1.41.29 1.41.88 0 .18-.18.41-.53.7-1.41.29-3.32 1.79-5.72 4.49-2.93 3.29-4.4 6.45-4.4 9.5 0 2 .7 2.99 2.11 2.99 2.05 0 4.14-1.2 6.25-3.61-1.11-1.23-1.67-2.76-1.67-4.58 0-2.11.53-3.93 1.58-5.46.94-1.29 1.94-1.94 2.99-1.94s1.67.73 1.85 2.2c0 2.58-.91 5.37-2.73 8.36 1 1.11 2.35 1.67 4.05 1.67q3.435 0 6.69-2.82c.18-.18.35-.26.53-.26s.26.12.26.35Zm-9.68-6.78c0-.59-.21-.88-.62-.88-.53 0-1.09.47-1.67 1.41-.59.94-.88 2.14-.88 3.61 0 1.23.26 2.26.79 3.08 1.58-2.46 2.38-4.87 2.38-7.22m-331.67-47.6q0 .18-.18.18c-.65 0-1.18.28-1.61.84s-.96 1.61-1.61 3.17l-6.86 16.24c-.94 2.11-1.8 3.79-2.57 5.04-.78 1.25-1.62 2.18-2.53 2.79-.91.62-1.95.92-3.12.92-1.29 0-2.46-.31-3.52-.92-1.06-.62-1.64-1.33-1.76-2.16-.03-.41.16-1.06.57-1.96s.82-1.61 1.23-2.16c.41-.54.6-.58.57-.11-.03.62.18 1.41.64 2.38.45.97 1.05 1.82 1.78 2.55s1.51 1.1 2.33 1.1 1.6-.34 2.24-1.01q.96-1.02 1.98-3.3c.09-.44 0-1.06-.29-1.87-.28-.81-.59-1.58-.95-2.31l-6.42-15.22c-.65-1.55-1.18-2.61-1.61-3.17s-.96-.84-1.61-.84q-.18 0-.18-.18c0-.18.06-.18.18-.18l1.94.04h5.59l3.26-.04c.21 0 .31.06.31.18s-.1.18-.31.18c-1.76 0-2.64.65-2.64 1.94q0 .93.48 2.07l5.19 12.23c.06.18.14.27.24.29s.18-.07.24-.24l5.19-12.28c.35-.85.53-1.52.53-2.02q0-1.98-2.82-1.98c-.18 0-.26-.06-.26-.18s.09-.18.26-.18l3.43.04h.53l1.94-.04q.18 0 .18.18Zm31.26.51c1.66.87 2.95 2.08 3.89 3.63.94 1.56 1.41 3.33 1.41 5.32s-.54 3.94-1.61 5.65c-1.07 1.72-2.54 3.07-4.4 4.05s-3.91 1.47-6.14 1.47c-2.02 0-3.84-.43-5.46-1.3a9.76 9.76 0 0 1-3.83-3.63c-.94-1.55-1.41-3.33-1.41-5.32 0-.12-.02-.2-.07-.24-.04-.04-.14-.07-.29-.07h-4.27c-.18 0-.26.16-.26.48v4.8c0 1.56.23 2.66.68 3.3.45.65 1.17.97 2.13.97.15 0 .22.06.22.18s-.07.18-.22.18c-.47-.03-1.38-.04-2.73-.04h-5.24c-1.38 0-2.3.01-2.77.04-.15 0-.22-.06-.22-.18s.07-.18.22-.18c.97 0 1.69-.32 2.16-.97s.7-1.75.7-3.3v-10.82c0-1.55-.23-2.66-.7-3.32q-.705-.99-2.16-.99c-.15 0-.22-.06-.22-.18s.07-.18.22-.18c.94.06 1.86.09 2.77.09h5.24q1.32 0 2.73-.09c.15 0 .22.06.22.18s-.07.18-.22.18q-1.455 0-2.13.99c-.46.66-.68 1.77-.68 3.32v4.71c0 .32.1.5.31.53h4.22c.15 0 .24-.02.29-.07.04-.04.08-.14.11-.29.15-1.91.77-3.64 1.87-5.19s2.53-2.78 4.29-3.67 3.68-1.34 5.76-1.34 3.91.43 5.57 1.3Zm-.46 17.67c.97-.97 1.45-2.38 1.45-4.22s-.46-3.78-1.38-5.96c-.92-2.19-2.08-4.04-3.48-5.57-1.39-1.52-2.75-2.29-4.07-2.29-1.64 0-2.94.48-3.89 1.45-.96.97-1.43 2.39-1.43 4.27 0 1.76.46 3.73 1.39 5.92.92 2.19 2.09 4.04 3.5 5.57s2.77 2.29 4.09 2.29c1.58 0 2.86-.48 3.83-1.45Zm27.98-10.52q-.135 0-.18-.18c-1.09-4.08-2.29-6.35-3.61-6.82-.26-.21-1.29-.31-3.08-.31-.18 0-.32.1-.44.29s-.18.43-.18.73v13.99c0 1.56.23 2.66.68 3.3.45.65 1.17.97 2.13.97.15 0 .22.06.22.18s-.07.18-.22.18c-.44-.03-1.35-.04-2.73-.04h-5.24c-1.38 0-2.29.01-2.73.04-.15 0-.22-.06-.22-.18s.07-.18.22-.18c.97 0 1.68-.32 2.13-.97s.68-1.75.68-3.3v-13.99c0-.29-.06-.54-.18-.73s-.26-.29-.44-.29c-1.79 0-2.82.1-3.08.31-1.32.47-2.52 2.74-3.61 6.82q-.045.18-.18.18c-.135 0-.12-.06-.09-.18.35-2.61.53-5 .53-7.17 0-.47.19-.7.57-.7.18 0 .68.06 1.52.18s2.49.18 4.95.18h5.06c2.38 0 4-.06 4.88-.18s1.42-.18 1.63-.18c.35 0 .53.24.53.7 0 2.17.18 4.56.53 7.17q.045.18-.09.18Zm28.38 12.14c0 .12-.07.18-.22.18-.44-.03-1.35-.04-2.73-.04h-5.24c-1.29 0-2.16.01-2.6.04-.15 0-.22-.06-.22-.18s.07-.18.22-.18c.94 0 1.62-.32 2.05-.97.42-.65.64-1.75.64-3.3V169c0-.35-.13-.51-.4-.48-1.56.24-3.1.35-4.62.35s-3.07-.12-4.62-.35h-.04c-.18 0-.26.16-.26.48v5.76c0 1.56.21 2.66.64 3.3.42.65 1.11.97 2.05.97.15 0 .22.06.22.18s-.07.18-.22.18c-.44-.03-1.31-.04-2.6-.04h-5.24c-1.38 0-2.3.01-2.77.04-.15 0-.22-.06-.22-.18s.07-.18.22-.18c.97 0 1.69-.32 2.16-.97s.7-1.75.7-3.3v-10.91c0-1.55-.24-2.65-.7-3.3-.47-.65-1.19-.97-2.16-.97-.15 0-.22-.06-.22-.18s.07-.18.22-.18l2.77.04h5.24l2.6-.04c.15 0 .22.06.22.18s-.07.18-.22.18c-.94 0-1.62.32-2.05.97s-.64 1.75-.64 3.3v3.83c0 .32.1.5.31.53 1.5.23 2.99.35 4.49.35 1.58 0 3.17-.12 4.75-.35.15-.03.25-.09.31-.18s.09-.2.09-.35v-3.83c0-1.55-.21-2.65-.64-3.3s-1.11-.97-2.05-.97c-.15 0-.22-.06-.22-.18s.07-.18.22-.18l2.6.04h5.24l2.73-.04c.15 0 .22.06.22.18s-.07.18-.22.18c-.97 0-1.68.32-2.13.97-.46.65-.68 1.75-.68 3.3v10.91c0 1.56.23 2.66.68 3.3.45.65 1.17.97 2.13.97.15 0 .22.06.22.18Zm7.28-.46a9.53 9.53 0 0 1-3.83-3.67c-.92-1.58-1.39-3.39-1.39-5.41s.53-3.92 1.58-5.61c1.06-1.69 2.5-3.01 4.33-3.98s3.85-1.45 6.05-1.45c2.05 0 3.91.43 5.57 1.3s2.96 2.08 3.89 3.63c.94 1.56 1.41 3.33 1.41 5.32s-.54 3.94-1.61 5.65c-1.07 1.72-2.54 3.07-4.4 4.05s-3.91 1.47-6.14 1.47c-2.02 0-3.85-.43-5.48-1.3Zm11.84-1.19c.95-.95 1.43-2.35 1.43-4.2s-.46-3.77-1.39-5.94q-1.38-3.255-3.48-5.52c-1.39-1.51-2.75-2.27-4.07-2.27q-2.46 0-3.87 1.41c-.94.94-1.41 2.35-1.41 4.22 0 1.76.45 3.73 1.36 5.92s2.06 4.03 3.45 5.54 2.74 2.27 4.03 2.27c1.67 0 2.98-.48 3.94-1.43Zm8.33 7.95c-.03-.09.03-.18.18-.26 2.35-1.09 3.52-2.57 3.52-4.44 0-.35-.15-.59-.44-.73s-.75-.24-1.36-.33c-.82-.12-1.44-.29-1.85-.51s-.62-.67-.62-1.34c0-.35.16-.73.48-1.12q.48-.6 1.32-.99c.56-.26 1.17-.4 1.85-.4 1.14 0 1.98.26 2.51.79s.79 1.2.79 2.02c0 1.09-.34 2.14-1.01 3.17s-1.49 1.91-2.44 2.66-1.84 1.25-2.66 1.52c-.15.06-.23.04-.26-.04Zm35.38-15.32c-.06.15-.14.21-.24.2s-.12-.11-.07-.29c.15-.59.22-1.16.22-1.72 0-1.35-.32-2.72-.97-4.11q-.975-2.085-2.55-3.45c-1.06-.91-2.17-1.36-3.34-1.36q-5.19 0-5.19 5.94c0 2.17.5 4.19 1.5 6.05s2.29 3.34 3.89 4.42c1.6 1.09 3.22 1.63 4.86 1.63 2.11 0 3.72-.67 4.84-2.02.12-.12.21-.14.26-.07q.09.105 0 .24c-2.32 2.9-5.38 4.36-9.2 4.36-1.88 0-3.61-.43-5.19-1.28q-2.37-1.275-3.81-3.63c-.95-1.57-1.43-3.38-1.43-5.43s.51-3.84 1.52-5.54q1.515-2.55 4.11-4.05c1.73-1 3.61-1.5 5.63-1.5q2.115 0 3.96.57c1.23.38 2.18.87 2.84 1.47s.92 1.2.77 1.78l-2.42 7.79Zm24.86-3.12q-.135 0-.18-.18c-1.09-4.08-2.29-6.35-3.61-6.82-.26-.21-1.29-.31-3.08-.31-.18 0-.32.1-.44.29s-.18.43-.18.73v13.99c0 1.56.23 2.66.68 3.3.45.65 1.17.97 2.13.97.15 0 .22.06.22.18s-.07.18-.22.18c-.44-.03-1.35-.04-2.73-.04h-5.24c-1.38 0-2.29.01-2.73.04-.15 0-.22-.06-.22-.18s.07-.18.22-.18c.97 0 1.68-.32 2.13-.97s.68-1.75.68-3.3v-13.99c0-.29-.06-.54-.18-.73s-.26-.29-.44-.29c-1.79 0-2.82.1-3.08.31-1.32.47-2.52 2.74-3.61 6.82q-.045.18-.18.18c-.135 0-.12-.06-.09-.18.35-2.61.53-5 .53-7.17 0-.47.19-.7.57-.7.18 0 .68.06 1.52.18s2.49.18 4.95.18h5.06c2.38 0 4-.06 4.88-.18s1.42-.18 1.63-.18c.35 0 .53.24.53.7 0 2.17.18 4.56.53 7.17q.045.18-.09.18Zm28.95 12.14c0 .12-.07.18-.22.18-.44-.03-1.35-.04-2.73-.04h-5.24c-1.38 0-2.29.01-2.73.04-.15 0-.22-.06-.22-.18s.07-.18.22-.18c.97 0 1.68-.32 2.13-.97s.68-1.75.68-3.3v-10.6l-10.52 10.56v.04c0 1.56.23 2.66.68 3.3.45.65 1.17.97 2.13.97.15 0 .22.06.22.18s-.07.18-.22.18c-.47-.03-1.38-.04-2.73-.04h-5.24c-1.38 0-2.3.01-2.77.04-.15 0-.22-.06-.22-.18s.07-.18.22-.18c.97 0 1.69-.32 2.16-.97s.7-1.75.7-3.3v-10.87c0-1.55-.24-2.66-.7-3.32q-.705-.99-2.16-.99c-.15 0-.22-.06-.22-.18s.07-.18.22-.18c.94.06 1.86.09 2.77.09h5.24q1.32 0 2.73-.09c.15 0 .22.06.22.18s-.07.18-.22.18q-1.455 0-2.13.99c-.46.66-.68 1.77-.68 3.32v10.25l10.52-10.56c-.03-1.47-.27-2.5-.73-3.1s-1.15-.9-2.09-.9c-.15 0-.22-.06-.22-.18s.07-.18.22-.18q1.32.09 2.73.09h5.24q1.41 0 2.73-.09c.15 0 .22.06.22.18s-.07.18-.22.18q-1.455 0-2.13.99c-.46.66-.68 1.77-.68 3.32v10.87c0 1.56.23 2.66.68 3.3.45.65 1.17.97 2.13.97.15 0 .22.06.22.18Zm25.61 0c0 .12-.07.18-.22.18-.47-.03-1.38-.04-2.73-.04h-5.24c-1.38 0-2.3.01-2.77.04-.15 0-.22-.06-.22-.18s.07-.18.22-.18c.97 0 1.69-.32 2.16-.97s.7-1.75.7-3.3v-15.18h-8.93c-.12 2.38-.41 6.88-.88 13.51-.12 2.14-.45 3.84-.99 5.08-.54 1.25-1.49 1.87-2.84 1.87-1.58 0-2.38-.44-2.38-1.32 0-.18.01-.31.04-.4l1.06-4.18c.06-.15.13-.21.22-.2.09.02.13.1.13.24q.045 1.89.48 2.55c.29.44.78.66 1.45.66 1.47 0 2.3-1.44 2.51-4.31l.57-9.24.04-.88c0-1.2-.22-2.07-.66-2.6s-1.1-.79-1.98-.79c-.15 0-.22-.06-.22-.18s.07-.18.22-.18l2.73.04h14.56l2.73-.04c.15 0 .22.06.22.18s-.07.18-.22.18c-.97 0-1.68.32-2.13.97-.46.65-.68 1.75-.68 3.3v10.91c0 1.56.23 2.66.68 3.3.45.65 1.17.97 2.13.97.15 0 .22.06.22.18Zm13.64-11.35c6.01-.09 9.02 1.75 9.02 5.5 0 1.94-.7 3.42-2.11 4.44-1.41 1.03-3.51 1.54-6.29 1.54h-9.24c-1.38 0-2.3.01-2.77.04-.15 0-.22-.06-.22-.18s.07-.18.22-.18c.97 0 1.69-.32 2.16-.97s.7-1.75.7-3.3v-10.91c0-1.55-.24-2.65-.7-3.3-.47-.65-1.19-.97-2.16-.97-.15 0-.22-.06-.22-.18s.07-.18.22-.18l2.77.04h5.24l2.73-.04c.15 0 .22.06.22.18s-.07.18-.22.18c-.97 0-1.68.32-2.13.97-.46.65-.68 1.75-.68 3.3v3.56c0 .32.13.48.4.48l3.08-.04Zm-.7 11.13c1.41-.03 2.5-.54 3.28-1.54s1.17-2.33 1.17-4-.4-2.93-1.19-3.85-1.94-1.37-3.43-1.34l-2.2.04c-.26 0-.4.16-.4.48v9.06c0 .47.06.79.18.95s.35.24.7.24zm37.53.22c0 .12-.07.18-.22.18-.44-.03-1.35-.04-2.73-.04h-5.24c-1.29 0-2.16.01-2.6.04-.15 0-.22-.06-.22-.18s.07-.18.22-.18c.94 0 1.62-.32 2.05-.97.42-.65.64-1.75.64-3.3V169c0-.35-.13-.51-.4-.48-1.56.24-3.1.35-4.62.35s-3.07-.12-4.62-.35h-.04c-.18 0-.26.16-.26.48v5.76c0 1.56.21 2.66.64 3.3.42.65 1.11.97 2.05.97.15 0 .22.06.22.18s-.07.18-.22.18c-.44-.03-1.31-.04-2.6-.04h-5.24c-1.38 0-2.3.01-2.77.04-.15 0-.22-.06-.22-.18s.07-.18.22-.18c.97 0 1.69-.32 2.16-.97s.7-1.75.7-3.3v-10.91c0-1.55-.24-2.65-.7-3.3-.47-.65-1.19-.97-2.16-.97-.15 0-.22-.06-.22-.18s.07-.18.22-.18l2.77.04h5.24l2.6-.04c.15 0 .22.06.22.18s-.07.18-.22.18c-.94 0-1.62.32-2.05.97s-.64 1.75-.64 3.3v3.83c0 .32.1.5.31.53 1.5.23 2.99.35 4.49.35 1.58 0 3.17-.12 4.75-.35.15-.03.25-.09.31-.18s.09-.2.09-.35v-3.83c0-1.55-.21-2.65-.64-3.3s-1.11-.97-2.05-.97c-.15 0-.22-.06-.22-.18s.07-.18.22-.18l2.6.04h5.24l2.73-.04c.15 0 .22.06.22.18s-.07.18-.22.18c-.97 0-1.68.32-2.13.97-.46.65-.68 1.75-.68 3.3v10.91c0 1.56.23 2.66.68 3.3.45.65 1.17.97 2.13.97.15 0 .22.06.22.18Zm7.28-.46a9.53 9.53 0 0 1-3.83-3.67c-.92-1.58-1.39-3.39-1.39-5.41s.53-3.92 1.58-5.61c1.06-1.69 2.5-3.01 4.33-3.98s3.85-1.45 6.05-1.45c2.05 0 3.91.43 5.57 1.3s2.96 2.08 3.89 3.63c.94 1.56 1.41 3.33 1.41 5.32s-.54 3.94-1.61 5.65c-1.07 1.72-2.54 3.07-4.4 4.05s-3.91 1.47-6.14 1.47c-2.02 0-3.85-.43-5.48-1.3Zm11.84-1.19c.95-.95 1.43-2.35 1.43-4.2s-.46-3.77-1.39-5.94q-1.38-3.255-3.48-5.52c-1.39-1.51-2.75-2.27-4.07-2.27q-2.46 0-3.87 1.41c-.94.94-1.41 2.35-1.41 4.22 0 1.76.45 3.73 1.36 5.92s2.06 4.03 3.45 5.54 2.74 2.27 4.03 2.27c1.67 0 2.98-.48 3.94-1.43Z" class="st0"/></g></g></svg>