<svg xmlns="http://www.w3.org/2000/svg" width="128" height="110" fill="none" viewBox="0 0 128 110"><path fill="#681f2a" d="M10.007 31.956c2.012-5.649 6.09-10.235 10.96-13.628 5.025-3.499 10.74-5.934 16.472-8.012 2.945-1.054 5.918-2.085 8.946-2.887a72 72 0 0 1 9.884-1.854 75.5 75.5 0 0 1 20.191.349 69.9 69.9 0 0 1 19.317 5.818c5.498 2.607 10.689 5.959 14.942 10.34a44 44 0 0 1 8.84 13.367 48.3 48.3 0 0 1 3.692 15.294 52.5 52.5 0 0 1-1.232 15.956 51.5 51.5 0 0 1-6.073 14.946 49.6 49.6 0 0 1-11.245 12.808c-4.843 3.918-10.411 6.946-16.254 9.084a70.6 70.6 0 0 1-18.38 3.992 79.6 79.6 0 0 1-18.918-.676c-6.279-.984-12.456-2.684-18.237-5.342a59.7 59.7 0 0 1-16.103-10.769c-4.664-4.407-8.565-9.649-11.2-15.508a44.85 44.85 0 0 1-3.9-18.886c.073-6.379 1.519-12.78 4.496-18.441s7.5-10.406 12.818-13.979c5.393-3.623 11.461-6.11 17.675-7.928 6.299-1.85 12.783-3.073 19.28-3.997 6.559-.933 13.202-1.467 19.83-1.28 6.487.182 12.987 1.078 19.144 3.188 5.843 2.002 11.302 5.175 15.701 9.533 3.711 3.676 6.627 8.089 8.886 12.783a61.7 61.7 0 0 1 5.048 15.885 63 63 0 0 1 .76 16.736c-.481 5.327-1.709 10.663-3.906 15.55-2.306 5.13-5.664 9.682-10.077 13.195-5.107 4.073-11.311 6.576-17.634 8.022-6.002 1.374-12.187 1.749-18.329 1.482a87 87 0 0 1-16.856-2.413 78 78 0 0 1-16.194-5.84c-5.08-2.522-9.871-5.66-14.052-9.497a46.9 46.9 0 0 1-10.182-13.306 44.9 44.9 0 0 1-4.762-17.836 48.1 48.1 0 0 1 2.576-17.989c1.986-5.828 4.98-11.29 8.623-16.243A72.9 72.9 0 0 1 44.98 5.315c2.55-1.56 5.159-3.075 7.888-4.303.651-.292.087-1.249-.56-.958-2.89 1.3-5.725 2.68-8.42 4.357a76 76 0 0 0-7.82 5.602 72.7 72.7 0 0 0-13.135 13.948c-3.666 5.128-6.641 10.794-8.568 16.81-1.894 5.905-2.761 12.182-2.32 18.385A46.6 46.6 0 0 0 17.228 77.4c2.663 5.079 6.313 9.624 10.563 13.47 4.325 3.914 9.258 7.127 14.49 9.703a80.7 80.7 0 0 0 16.683 5.963 87.5 87.5 0 0 0 17.371 2.369c6.387.224 12.842-.259 19.052-1.817 6.516-1.629 12.803-4.458 17.972-8.808 4.386-3.69 7.724-8.476 9.964-13.734 2.212-5.191 3.428-10.74 3.87-16.357a65.2 65.2 0 0 0-1.037-17.36 63 63 0 0 0-5.433-16.202c-2.391-4.788-5.499-9.29-9.391-12.983-4.708-4.465-10.475-7.66-16.626-9.663-6.36-2.07-13.092-2.902-19.754-3.02-6.814-.122-13.624.51-20.365 1.51-6.63.985-13.237 2.278-19.656 4.276-6.325 1.967-12.518 4.643-17.921 8.515-5.403 3.87-9.894 8.854-12.802 14.827S-.057 50.674.002 57.278a46.8 46.8 0 0 0 4.415 19.435c2.802 5.963 6.908 11.306 11.747 15.76a61.5 61.5 0 0 0 16.668 10.871c5.973 2.647 12.3 4.364 18.763 5.295a81.4 81.4 0 0 0 19.475.515c6.435-.611 12.803-2.016 18.842-4.338a58.9 58.9 0 0 0 16.65-9.675 50.4 50.4 0 0 0 11.264-13.313 53.2 53.2 0 0 0 5.993-15.514 53.9 53.9 0 0 0 .998-16.408 50.4 50.4 0 0 0-4.152-15.899 44.9 44.9 0 0 0-9.368-13.514c-4.501-4.446-9.979-7.847-15.734-10.431a71.9 71.9 0 0 0-19.785-5.588 77 77 0 0 0-20.705 0c-6.547.896-12.807 2.85-18.956 5.23-5.787 2.24-11.48 4.932-16.402 8.756-4.507 3.501-8.172 7.943-9.958 13.421-.055.163.203.23.254.07z"/></svg>