<svg xmlns="http://www.w3.org/2000/svg" width="95" height="145" fill="none" viewBox="0 0 95 145"><path fill="#f5cdcb" d="M40.736 51.52c-2.16-2.48-1.79-15.63-2.4-19.55-1.51-9.78-5.13-27.56-17.76-27.28-20.14.45-15.63 29.5-11.5 42.24 7.61 23.45 30.31 38.54 30.91 64.09 10-7.44 17.86-14.81 25.26-24.8 9.46-12.75 26.77-40.24 24.05-56.18-4.05-23.76-29 2.69-33.37 13.15-3.5 8.46-.68 15.81-2.37 23.17-1.18 5.15-5.48 5.18-6.69 0-1.3-5.56 2.46-30.73 4.68-36.75 7.75-21 40.25-32.8 43.09-4.9 2.92 28.59-14.55 58.84-35.2 77.15-3.1 2.74-19.08 13.46-19.71 14.51-1.45 2.41-2.27 14.23-5.18 19.86-10.3 19.93-12.73-1.72-6.13-13.28 4.12-7.2 9-6.19 7.73-16.26-1.85-15.27-12.51-24-20.39-35.79-10.58-15.84-20.92-39.54-12.9-58.31 7.21-16.87 25.81-16.52 34-.55 5.31 10.4 4.78 20.8 5.85 32 .19 2 2.08 6.22 1.93 7.24-.31 1.72-3.01 1.25-3.9.24m49.82-29.38c-6.5-22.5-35.23-2.07-34.72 14.3 8.23-9.45 21.95-28.31 34.72-14.3m-54.14 98.09c-8.29 2.93-10.63 14.85-9.18 22.46 1.68-1.17 3.71-4.29 4.58-6.12 2.53-5.34 3.18-10.74 4.6-16.34"/></svg>