<svg xmlns="http://www.w3.org/2000/svg" width="126" height="111" fill="none" viewBox="0 0 126 111"><path fill="#681f2a" d="M.49 44.944c1.33-6.906 6.405-12.198 11.995-16.091 6.256-4.357 13.399-7.44 20.52-10.084 3.26-1.209 6.555-2.315 9.86-3.387 3.713-1.2 7.42-2.42 11.26-3.17 8.928-1.746 18.175-1.781 26.999.588a49.94 49.94 0 0 1 23.363 13.85 45.93 45.93 0 0 1 11.85 23.866c1.45 8.72.05 17.918-4.896 25.345-5.254 7.888-13.636 12.977-22.167 16.677a142 142 0 0 1-14.15 5.135c-5.488 1.714-11.07 3.167-16.753 4.071-10.284 1.633-21.24 1.412-30.917-2.8-7.964-3.465-15.137-9.325-19.04-17.197A28.34 28.34 0 0 1 5.55 68.159c.186-5.524 1.781-10.94 3.946-15.997A96.6 96.6 0 0 1 16.693 38.6 80.5 80.5 0 0 1 25.2 27.3c6.155-6.755 13.824-12.32 22.816-14.503 10.562-2.544 21.671-.048 31.386 4.361 8.695 3.947 16.86 9.415 23.284 16.519 6.125 6.776 10.356 15.114 11.196 24.277a38.7 38.7 0 0 1-5.297 23.304c-4.117 6.97-10.148 12.69-16.939 17.03a65 65 0 0 1-23.04 9.104 62.9 62.9 0 0 1-25.396-.547c-8.211-1.873-16.173-5.445-22.546-11.022a39.6 39.6 0 0 1-8.04-9.613C10.041 81.84 8.39 76.99 7.512 72c-1.8-10.233-.38-20.808 2.29-30.754 2.397-8.906 6.03-17.641 12.653-24.262 7.356-7.353 17.41-11.618 27.48-13.694 10.283-2.12 21.094-2.11 31.323.316 9.669 2.29 18.765 6.8 26.075 13.567 6.746 6.241 11.997 14.22 14.481 23.108a41.5 41.5 0 0 1-1.759 27.167c-3.562 8.585-9.791 16.089-17.33 21.493-8.445 6.054-18.498 9.575-28.74 11.026-9.187 1.302-18.704 1.147-27.764-.94-7.756-1.78-15.244-4.928-21.735-9.569-6.201-4.435-11.387-10.348-14.43-17.379-3.29-7.608-3.76-16.23-2.002-24.281A40.16 40.16 0 0 1 19.66 27.255c5.748-5.484 12.9-9.354 20.386-11.896 7.799-2.648 16.03-3.93 24.244-4.058 8.697-.137 17.541.992 25.699 4.15 7.422 2.88 14.45 7.794 18.696 14.643.542.873 1.929.072 1.384-.809a35.7 35.7 0 0 0-8.704-9.707 44.7 44.7 0 0 0-11.45-6.163c-8.463-3.162-17.687-4.223-26.679-3.969-8.432.24-16.89 1.7-24.826 4.58-7.682 2.799-14.969 6.949-20.75 12.783A42.07 42.07 0 0 0 6.154 48.725c-1.562 8.425-.799 17.167 2.779 24.994 3.307 7.226 8.829 13.216 15.307 17.73 6.781 4.727 14.638 7.888 22.702 9.63 9.529 2.036 19.536 2.092 29.136.509 10.387-1.715 20.585-5.597 28.974-12.048 7.664-5.888 13.811-13.77 17.261-22.829a43.1 43.1 0 0 0 .881-28.154c-2.835-9.096-8.438-17.249-15.565-23.526C99.889 8.21 90.345 3.73 80.282 1.581 69.689-.679 58.57-.477 48.02 1.935 37.776 4.275 27.589 8.96 20.333 16.74c-6.58 7.056-10.119 16.157-12.467 25.373-2.631 10.313-3.87 21.26-1.723 31.778 1.91 9.35 6.773 17.773 14.109 23.903 6.77 5.656 15.08 9.279 23.684 11.073a65.25 65.25 0 0 0 26.307.084 66.4 66.4 0 0 0 23.48-9.786c6.974-4.661 13.122-10.76 17.183-18.15a40.37 40.37 0 0 0 4.715-24.655c-1.245-9.511-5.871-18.002-12.412-24.936-6.827-7.229-15.45-12.801-24.575-16.674-10.146-4.304-21.564-6.474-32.382-3.45-9.173 2.562-16.987 8.5-23.203 15.577a85.7 85.7 0 0 0-8.577 11.732 95 95 0 0 0-7.3 14.287C5.05 58.19 3.587 63.836 3.645 69.587a30.2 30.2 0 0 0 3.489 13.798c4.254 8.069 11.837 14.074 20.165 17.539 10.101 4.209 21.373 4.308 32.034 2.545 5.83-.965 11.555-2.496 17.178-4.293a142 142 0 0 0 14.412-5.364c8.829-3.923 17.332-9.432 22.566-17.762 4.919-7.83 6.107-17.39 4.524-26.386A47.63 47.63 0 0 0 105.469 25.1a51.43 51.43 0 0 0-24.243-14.04c-9.097-2.331-18.73-2.29-27.888-.321-3.87.832-7.61 2.091-11.36 3.34-3.423 1.14-6.83 2.324-10.196 3.624-7.28 2.812-14.504 6.134-20.71 10.913-5.277 4.053-9.94 9.415-11.068 16.175-.053.318.428.458.489.135z"/></svg>