<svg xmlns="http://www.w3.org/2000/svg" width="80" height="39" fill="none" viewBox="0 0 80 39"><path fill="#681f2a" d="M39.821 12.619c.404 1.653 1.98 2.89 2.25 4.639.448 2.934-1.551 5.407-1.167 8.361.18 1.429.724 1.672 2.044 2.07 3.646 1.095 5.126-1.436 8.33-2.064a28.4 28.4 0 0 1 7.099-.211c2.351.442 4.485 3.806 4.485 6.125a7.52 7.52 0 0 1 5.28.577c.948.455 1.775 1.397 2.825 1.493a9 9 0 0 0 4.306-1.07c.25-.167.852-1.282 1.365-.795q.145.653.192 1.32c0 .641-.551 1.135-.602 1.762.948.308 2.69-.73 3.146.27.55 1.204-3.736 2.723-4.69 2.812-2.813.276-5.665-.967-8.125-2.153-1.281-.64-2.339-1.71-3.985-1.768-.699 1.544-1.121 3.088-2.8 3.844a12.5 12.5 0 0 1-2.127.513 4.7 4.7 0 0 1-.865-1.627c-.167-1.167 1.512-3.883 2.562-4.255.513-.18.859.423.827-.18-.077-1.428-1.986-3.812-3.351-4.26-1.736-.577-2.396.34-3.8.82-4.933 1.679-13.147 5.062-15.78-1.602-1.923-4.799 2.357-9.162 1.537-13.98-3.556 4.83-8.72 8.848-11.886 13.922-2.563 4.133-3.043 8.195-9.2 7.69-2.076-.174-3.896-1.468-5.242-2.987-1.666-1.87-1.448-3.037-4.267-3.953a12.7 12.7 0 0 0-4.677-.474c-1 .115-1.884 1.493-2.967.718-2.089-1.5 2.563-2.839 2.78-3.172.123-.167-.23-.64-.115-.827a9 9 0 0 1 1.538-.416c2.403-.23 7.087 1.621 8.849 3.287 1.345 1.281 1.755 2.986 3.921 3.274 3.844.506 8.022-4.216 9.88-7.15.705-1.122 1.07-2.333 1.922-3.416 1.282-1.646 3.492-2.85 4.729-4.632-4.71 1.403-11.796 5.164-16.14 1.025-2.108-2.006-1.237-6.85 1.14-8.522 1.769-1.236 8.772-2.172 10.963-1.922a34 34 0 0 1 8.163 2.742c.468.27 1.43 1.416 1.826 1.135a6.1 6.1 0 0 1 1.057-1.519C43.397 6.07 49.965 1.265 52.707.374c6.818-2.165 7.779 5.568 6.28 10.393-1.923 6.17-5.863 6.593-11.578 5.08-2.506-.71-5.46-1.748-7.587-3.228m11.822 1.64c-1.019.096-2.153-.064-3.204 0l2.16.64c2.973.25 4.267-.057 5.817-2.607a10.9 10.9 0 0 0 1.596-7.689c-.404-1.967-2.768-3.953-4.774-2.697l-2.127 1.236c4.78-.865 7.689.083 6.446 5.517-.564 2.441-1.525 4.664-4.171 5.292q-.864.199-1.743.308m-11.001-2.672c3.376.48 6.74 1.281 10.187 1.038 1.243-.083 2.563-.167 3.466-1.057.904-.89 2.91-5.389 1.762-6.446-1.332-1.23-3.472-.73-4.933 0-1.09.525-3.44 2.512-4.261 2.736a1.205 1.205 0 0 1-1.589-.775c-1.8 1.352-4.684 1.704-4.632 4.504m-3.909-2.262c-2.512-.564-5.196-2.37-7.734-2.652-1.678-.186-7.01.531-8.45 1.377-1.98 1.16-3.25 4.697-1.487 6.504.64.685 3.05 1.627 4.017 1.742 3.486.404 7.131-1.774 10.52-2.39l1.692-.64c-3.71.557-6.939 1.992-10.79 1.64-4.735-.43-4.248-4.831-.198-6.151 4.427-1.448 7.599-.237 11.808.718.206.012.667.243.622-.148m.827 1.852c-4.03-.64-10.13-3.204-13.853-.583-1.762 1.23-1.519 2.185.48 2.749 2.826.788 7.913-.564 10.893-1.282.718-.173 1.935-.378 2.48-.884m-7.593 10.079c1.999-2.07 4.543-4.101 6.375-6.273.192-.23.5-.333.41-.724l-5.965 5.651zm9.047 2.877c.102-2.832 2.345-5.26 1.442-8.227l-1.621 6.503zM24.822 28.45l-2.48 1.73a9.7 9.7 0 0 1-4.222 1.538c-4.184.346-4.184-3.146-7.266-4.818a31 31 0 0 0-4.434-1.743c-.545-.084.083.91-.513 1.134 1.679.217 3.297.766 4.761 1.614.859.584 1.429 1.827 2.127 2.602 4.3 4.87 9.99 4.6 12.008-2.057zm19.132 1.442a5.25 5.25 0 0 1-3.902-1.96l-1.032-1.539c.564 2.46 1.769 3.845 4.421 3.806.16-.006.551-.032.494-.307zm9.047-3.499a7.18 7.18 0 0 0-4.933 2.262l2.6-.993zm7.606 2.467a3.09 3.09 0 0 0-2.877-2.467zm11.418 8.022c1.038.141 2.325-.102 3.395 0 .052-.32-.422-.237-.64-.275-.93-.135-1.987.282-1.602-1.16-3.204 1.236-4.793-2.397-7.689-2.685l-1.96.212c2.172.256 3.613 2.056 5.619 2.915.923.41 1.879.742 2.857.993z"/></svg>