<svg xmlns="http://www.w3.org/2000/svg" width="43" height="42" fill="none" viewBox="0 0 43 42"><path fill="#681f2a" stroke="#681f2a" stroke-width="4" d="M2 12.578c.025-3.186 1.083-5.781 3.238-8.282 2.154-2.5 4.587-2.77 7.882-1.712.544.174 1.134.55 1.643.824.947.507 2.012 1.148 2.94 1.62.926.474 1.575 1.036 2.167 1.704s1.154 1.156 1.836 1.707c.374.302.78.283 1.136.02.357-.261.612-.52.913-.798 1.094-1.017 2.092-1.738 3.698-2.163.577-.153.936-.453 1.574-.742.64-.29 1.07-.591 1.848-.877 1.167-.43 2.092-.283 3.426-.094.453.065 1.36.489 1.754.859.395.37 1.1.773 1.61 1.186 1.391 1.124 2.283 2.495 2.751 4.077.467 1.58.308 2.94-.467 4.414-.353.67-.617 1.349-.862 2.045-.596 1.69-1.417 3.29-2.65 4.71-2.236 2.57-4.816 5.496-7.279 7.697-1.34 1.199-2.572 1.788-3.765 2.704-1.894 1.454-3 2.484-4.299 4.316-.268.378-.74.772-1.183 1.239-1.01 1.065-2.334 1.792-3.978 2.228-1.643.435-2.555.088-3.217-1.284-.359-.742-.484-1.777-1.077-2.386-1.31-1.347-1.808-2.684-2.263-4.304-.125-.448-.422-.804-.634-1.194-.426-.783-.849-1.63-1.299-2.376-.979-1.622-2.14-3.584-2.93-5.13-.394-.771-1.02-1.738-1.158-2.181-.83-2.707-1.373-5.241-1.355-7.827Z"/></svg>