<svg xmlns="http://www.w3.org/2000/svg" width="65" height="92" fill="none" viewBox="0 0 65 92"><path fill="#f5cdcb" d="M23.746 81.378c.462-.871 1.38-4.108.803-5.162-1.874 1.88-1.26 8.291-4.907 7.073-2.604-7.897-3.208-16.929-6.133-24.621C8.4 45.274-1.727 35.214.253 19.244 2.629.01 34.266-9.363 37.675 13.044c1.155 7.654-1.761 15.617-.792 23.178C43.223 25.99 44.089 15.498 52.6 6.106 60.093-2.17 66.297.466 63.214 11.61c-2.832 10.13-11.915 18.28-17.405 27.082a6280 6280 0 0 0-14.658 23.616c-2.71 4.392-6.52 9.74-5.135 15.01l17.891-30.052c.75-1.157 1.903-2.258 3.184-1.058-9.412 15-16.904 31.217-28.335 44.898L17.285 90c1.716-2.9 4.912-5.756 6.46-8.622m18.74-47.485c-1.758 2.987-4.85 6.456-7.021 9.347-.043.056-1.456.444-1.37-.232 2.282-11.753 1.098-30.083-10.111-37.293-6.13-3.945-13.287 4.968-15.303 10.143-3.312 8.407 2.086 26.152 5.642 34.35 2.99 6.896 7.463 12.59 10.585 19.363 2.895-7.247 7.9-13.306 11.89-19.922 3.03-5.019 5.602-10.924 8.749-15.728 4.578-6.985 10.88-11.737 14.537-19.638 2.83-6.11 3.364-15.79-4.675-6.793-7.508 8.393-7.94 17.936-12.922 26.403m-6.822-12.436c.998-.174.053-8.72-.275-9.843C33.475 4.761 27.992.866 20.84 2.278c1.501 1.183 2.933.984 4.765 2.36 5.364 3.99 7.843 10.813 10.06 16.819M5.814 28.78c-1.094-7.989.14-15.026 5.676-21.22 1.216-1.365 3.106-2.016 3.882-3.631-19.02 7.216-13.776 27.975-5.82 41.668.311.529.449 2.01 1.39 1.563-1.68-5.85-4.314-12.352-5.129-18.38m15.03 52.346c.497-2.303 3.363-8.473 3.132-10.327-.1-.8-1.893-3.946-2.45-4.922-1.91-3.362-4.512-6.48-6.441-9.848z"/></svg>