<svg xmlns="http://www.w3.org/2000/svg" width="29" height="30" fill="none" viewBox="0 0 29 30"><path fill="#f5cdcb" d="M2.506 22.912C.6 20.48.498 17.201.64 14.231.808 10.8 1.728 7.666 3.933 5.009 6.33 2.119 10.294.987 13.866.677c1.867-.19 3.752.035 5.524.66a12.9 12.9 0 0 1 4.744 2.957 15.3 15.3 0 0 1 2.83 4.043c.985 1.946 1.085 3.83.979 5.974a18.7 18.7 0 0 1-.978 5.452 28 28 0 0 1-1.167 2.8c-.304.637-.534.717-.963 1.237a13.5 13.5 0 0 1-4.214 3.348 13.3 13.3 0 0 1-5.16 1.42c-2.925.166-6.17.09-8.611-1.767-.304-.232-.647.26-.395.523 2.144 2.246 5.771 2.218 8.642 2.097 3.548-.148 6.7-1.593 9.313-4.022 1.175-1.092 1.823-1.875 2.5-3.366a19.1 19.1 0 0 0 1.68-5.627c.25-1.878.264-3.78.04-5.662-.274-1.856-1.383-3.672-2.43-5.157C21.642-.91 13.246-1.235 6.633 1.983.583 4.928-.802 13.247.392 19.286a7.16 7.16 0 0 0 1.916 3.833.139.139 0 0 0 .226-.102.14.14 0 0 0-.028-.096z"/></svg>