<svg xmlns="http://www.w3.org/2000/svg" width="29" height="43" fill="none" viewBox="0 0 29 43"><path fill="#681f2a" d="M14.83 16.65c-.878-.363-2.476-3.813-3.14-4.749-1.65-2.336-4.877-6.47-8.109-4.77-5.153 2.71-.244 9.646 2.466 12.41 4.99 5.088 12.807 6.068 16.254 12.602 1.629-3.213 2.713-6.133 3.341-9.67.806-4.518 1.743-13.861-1.014-17.635-4.108-5.627-7.157 4.431-6.94 7.7.184 2.64 1.86 4.18 2.371 6.301.358 1.485-.75 2.047-1.731.862-1.053-1.271-3.322-8.268-3.523-10.112-.7-6.432 6.19-13.672 10.518-6.819 4.439 7.022 3.815 17.1.83 24.498-.449 1.108-3.203 5.94-3.23 6.293-.065.81 1.245 3.974 1.218 5.806-.098 6.484-3.516 1.195-3.297-2.646.138-2.394 1.531-2.761-.095-5.204-2.445-3.712-6.328-4.598-9.886-6.634C6.085 22.148.357 17.347.013 11.457c-.307-5.294 4.551-7.6 8.728-4.522 2.713 2.007 3.916 4.766 5.635 7.527.307.493 1.34 1.341 1.432 1.624.142.485-.617.712-.978.565m9.107-14.019c-4.58-4.985-9.383 4.003-7.142 8.173.912-3.506 2.033-10.153 7.142-8.173m-1.374 32.355c-1.767 1.826-.837 5.212.518 6.994.284-.519.408-1.588.397-2.173-.033-1.708-.56-3.189-.915-4.82"/></svg>