<svg xmlns="http://www.w3.org/2000/svg" width="96" height="154" fill="none" viewBox="0 0 96 154"><path fill="#f5cdcb" d="M92.132 136.251c-.24-1.53-2.14-6.46-3.86-7.24-.58 4.13 6.24 11.6.51 13.51-10.72-7.46-20-18.23-30.93-25.13-19.05-12-41.26-15.08-53.84-37-15.16-26.39 15.73-68 41.15-43.08 8.67 8.52 12.52 21.27 20.87 29.85-1.69-18.83-10.5-32.82-8.67-52.64 1.6-17.46 11.88-20 18.52-3.1 6 15.39 2.28 34.19 3.69 50.42 1.26 14.42 2.54 29 3.87 43.48.74 8.07 1 18.38 7.71 23.69l-5.88-54.61c-.15-2.16.26-4.63 3-4.33 2.33 27.71 8.22 55.14 6.77 83.1h-2.89c-.58-5.26.74-11.86-.02-16.92m-21.26-77.3c.61 5.41 0 12.68 0 18.36 0 .11-1.41 1.93-1.94 1-8.22-16.91-27-38.81-47.88-37.29-11.42.83-12 18.77-9.65 27.17 3.77 13.68 27.29 30.87 39.49 37.81 10.26 5.84 21.25 8.77 31.56 14.33-3.2-11.83-2.63-24.16-3.86-36.23-.93-9.16-3.27-19-3.85-28-.84-13.09 2.59-25-.27-38.37-2.21-10.34-10.67-23-12.28-4.12-1.51 17.62 6.95 30.01 8.68 45.34m-20.3-9.18c1.09-1.16-8.16-11-9.63-12.1-8.87-6.8-19.43-6.52-27.08 2 3 .07 4.61-1.53 8.21-1.53 10.5-.05 20.05 6.18 28.5 11.63m-30.58 37.35c-8.91-9-14-19-12.89-32 .24-2.86 2-5.46 1.45-8.22-17.08 27 9.09 48.12 32 57.81.89.37 2.46 2.1 3.22.65-7.63-5.76-17.07-11.44-23.78-18.24m68.26 51.55c-1.55-3.36-3.77-13.81-5.81-15.92-.88-.91-6.1-3.17-7.72-3.87-5.57-2.42-11.78-3.88-17.38-6.29z"/></svg>