<svg xmlns="http://www.w3.org/2000/svg" width="12" height="12" fill="none" viewBox="0 0 12 12"><path stroke="#681f2a" d="M6.005 11.247a.17.17 0 0 0 .112-.044l.054-.051 4.517-5.238.006-.007c.578-.646.853-1.434.81-2.398-.04-.964-.382-1.73-1.016-2.334C9.944.657 9.347.447 8.664.51c-.698.066-1.298.378-1.814.972l-.005.004-.47.525-.371.417-.373-.417-.469-.525-.004-.004C4.643.889 4.042.577 3.345.51c-.683-.064-1.281.146-1.824.664l-.115.115C.846 1.875.543 2.605.504 3.51c-.042.964.233 1.752.81 2.398l.006.007 4.518 5.238c.077.086.129.095.167.095Z"/></svg>