<svg xmlns="http://www.w3.org/2000/svg" width="42" height="28" fill="none" viewBox="0 0 42 28"><path fill="#681f2a" d="M4.613 26.05c.414-.085 1.733-.667 1.924-1.146-1.134-.105-3.082 1.85-3.677.313 1.895-3.018 4.712-5.687 6.452-8.756 3.026-5.348 3.579-11.443 9.392-15.156 7-4.473 18.742 3.411 12.276 10.663-2.21 2.474-5.637 3.688-7.869 6.075 5.112-.704 8.813-3.286 14.24-3.043 4.78.21 5.605 2.98 1.084 5.009-4.119 1.834-9.292 1.063-13.699 1.657-3.915.529-7.873 1.066-11.803 1.616-2.19.305-4.998.51-6.36 2.407l14.813-2.308c.587-.068 1.265.012 1.219.762-7.524.993-14.926 2.953-22.568 2.918L0 26.273c1.427-.226 3.243.05 4.613-.223m20.8-6.794c-1.468.236-3.458.164-5.006.237-.03.002-.545-.36-.298-.516 4.504-2.459 10.232-7.861 9.548-13.534-.373-3.103-5.271-3.03-7.531-2.28-3.681 1.204-8.064 7.838-9.799 11.253-1.46 2.873-2.116 5.907-3.5 8.79 3.185-1.026 6.554-1.03 9.828-1.52 2.485-.372 5.138-1.137 7.584-1.411 3.558-.398 6.849.383 10.457-.569 2.79-.736 6.133-3.206.965-3.401-4.823-.184-8.092 2.282-12.249 2.951m2.24-5.652c.33.282 2.893-2.367 3.174-2.782 1.74-2.506 1.527-5.381-.894-7.357.02.82.476 1.237.523 2.219.149 2.862-1.426 5.546-2.803 7.92M17.076 5.749c2.339-2.545 4.999-4.062 8.558-3.927.782.028 1.514.475 2.26.289-7.582-4.308-13.002 3.099-15.348 9.47-.09.247-.541.698-.136.886 1.472-2.154 2.899-4.801 4.666-6.718M3.903 25.023c.896-.466 3.716-1.206 4.265-1.79.237-.25.785-1.703.955-2.154.588-1.55.906-3.261 1.491-4.82z"/></svg>