<svg xmlns="http://www.w3.org/2000/svg" width="63" height="73" fill="none" viewBox="0 0 63 73"><path fill="#681f2a" stroke="#f5cdcb" stroke-miterlimit="10" stroke-width="2" d="M58.266 31.124c.089-.955.083-1.886.07-3.735-.015-1.369-.028-2.062-.13-2.956-.163-1.374-.262-2.147-.73-3.068a6.9 6.9 0 0 0-1.628-2.02c-.976-.845-1.91-1.2-2.69-1.504-1.166-.455-2.061-.576-3.796-.805a28 28 0 0 0-4.17-.309c-1.458.001-2.364-.003-3.59.233-1.998.37-2.668.916-3.464.474-.2-.107-.451-.317-1.263-2.054-.59-1.25-.925-2.169-1.072-2.518-.613-1.555-1.417-2.645-2.993-4.832s-2.268-2.696-2.754-2.99c-.222-.143-.636-.36-1.34-.812-.966-.618-1.044-.74-1.435-.923-.637-.285-1.185-.295-2.063-.292-.91.01-1.806.1-2.682.298-1.306.262-2.207.575-3.525 1.029s-1.978.688-2.78 1.16a13 13 0 0 0-1.666 1.167c-.52.402-1.002.844-1.463 1.32-.51.57-1.03 1.317-1.643 2.838a21.8 21.8 0 0 0-1.341 5.07c-.3 2.405-.28 4.84.09 7.238.806 5.381 1.886 7.797 3.059 12.59 1.726 7.098 3.317 18.096 4.512 21.558.35.983.747 1.962 1.196 2.908.333.724.7 1.425 1.134 2.098a13.4 13.4 0 0 0 1.673 2.15c.392.453.84.858 1.345 1.202a5.1 5.1 0 0 0 1.899.838c.886.164 1.573.012 2.63-.264.82-.212 1.623-.488 2.388-.862 2.6-1.292 5.826-4.973 7.97-7.242 1.255-1.325 3.463-3.684 6.568-6.403 1.309-1.162 2.572-2.184 4.342-4.032a39 39 0 0 0 3.118-3.6c.725-.94.573-.855 3.753-5.971 1.01-1.637 1.388-2.209 1.748-3.249.493-1.444.625-2.733.723-3.73Z"/><path fill="#f5cdcb" d="M57.04 32.25c-1.117-.922-.912-3.07.494-3.6.777-.3.56-1.403-.264-1.43-.603-.02-1.049-.62-1.067-1.211-.017-.666.41-1.258.908-1.638.64-.483.21-1.56-.612-1.331-1.092.316-1.719-1.079-.778-1.716.658-.433.16-1.677-.612-1.332-1.423.676-3.218-.06-3.702-1.631-.169-.581-1.058-.714-1.32-.128-.75 1.66-2.847 1.621-3.616-.003-.355-.744-1.609-.165-1.305.613.362.912-.827 1.266-1.488 1.172-.33-.047-2.33-.59-2.206-1.087.229-.91-1.18-1.239-1.41-.33-.37 1.478-2.56 1.132-2.365-.432.07-.585-.364-.972-.922-.862-1.238.238-2.07-1.235-1.307-2.215.432-.546-.025-1.435-.744-1.197-.528.178-1.101-.182-1.283-.705-.223-.67.11-1.374.542-1.86.511-.572-.058-1.351-.745-1.196-1.042.223-2.21-1.073-1.832-2.113.19-.527-.201-1.31-.853-1.041-.732.295-1.685.584-2.429.125-.405-.246-.721-.83-.53-1.297a4 4 0 0 0 .226-.354c.395-.72-.636-1.487-1.16-.857-.102.126-.19.256-.267.404-.787 1.019-2.392.84-2.891-.465-.228-.58-1.016-.704-1.32-.128-.281.536-.717 1.171-1.352 1.294-.37.064-1.041-.184-.97-.648.117-.935-1.292-1.265-1.409-.33-.005.09-.023.176-.01.254-.363.096-.66.433-.497.907.27.8-.56 1.538-1.305 1.29-.884-.298-1.184 1.136-.315 1.43 1.074.371.382 2.24-.013 2.824-.325.466-1.035.932-1.64.925a2.75 2.75 0 0 0-1.299-1.175c-.58-.256-1.27.184-1.058.836a2.54 2.54 0 0 0 1.182 1.434c.125.646-.236 1.344-1.113 1.424-.665.056-.856.793-.456 1.263.726.876 1.6 1.893 1.742 3.069.093.788-.264 1.939-1.14 2.08-.585.104-.946.802-.455 1.262 1.138 1.093 1.21 2.99.171 4.146-.238.275-.278.793.04 1.032 1.015.779 1.557 2.154 1.077 3.395-.15.416-.035.97.478 1.06 1 .173 1.557 1.145 1.595 2.117.056 1.231-.556 2.397-1.1 3.458-.217.445.03.94.478 1.059.766.224 1.348.947 1.347 1.759.003.933-.219 1.603.287 2.473.42.715.821 1.32.93 2.173.114.899-.06 1.76-.469 2.537-.277.522.136 1.07.68 1.091.735.022 1.16.858 1.193 1.513.044.882-.405 1.71-.796 2.476-.28.536.142 1.04.68 1.091.568.043.787.8.757 1.275-.034.624-.344 1.228-.6 1.785-.3.622.25 1.156.853 1.041.879-.155 1.367.997.669 1.54-.56.456-.324 1.339.427 1.364 1.399.04 2.663 1.434 2.51 2.872-.074.675.715 1.265 1.233.664 1.103-1.246 2.763.24 3.624 1.042.441.42 1.27.086 1.205-.56-.14-1.522 1.197-3.09 2.682-2.021.667.471 1.214-.469.955-1.04-1.03-2.196 1.151-4.635 3.405-3.763.64.255 1.35-.346.955-1.04-.886-1.5.644-3.203 2.195-2.435.6.305 1.412-.422.955-1.04-.642-.857-.646-2.122.133-2.902.838-.843 2.15-.746 3.066-.126.66.44 1.257-.459.955-1.04-.39-.723.235-1.54.854-1.862.753-.395 1.675-.406 2.511-.436.686-.02.961-1.069.302-1.373-.699-.329-.486-1.362.008-1.788.77-.678 2.007-.57 2.944-.516.526.033.879-.697.574-1.13-1.357-1.85 1.481-3.233 2.764-3.745.406-.161.684-.683.39-1.098-.992-1.42-.2-3.881 1.572-4.19.561.011 1.016-.71.476-1.152m-3.661 5.462c-1.05.462-2.08 1.033-2.714 2.029-.451.706-.66 1.59-.514 2.406-1.281.032-2.629.364-3.3 1.53-.4.674-.5 1.538-.276 2.267-.915.118-1.805.391-2.479 1.03a2.98 2.98 0 0 0-.935 1.828c-1.251-.307-2.624.004-3.56.958-.826.86-1.134 2.127-.902 3.294-.819.02-1.627.327-2.228.968-.641.693-.877 1.63-.766 2.544-1.214-.073-2.444.331-3.307 1.288-.824.92-1.148 2.123-1.024 3.31a2.96 2.96 0 0 0-1.994.512c-.647.45-1.079 1.132-1.285 1.866-.571-.434-1.204-.793-1.918-.914a3.3 3.3 0 0 0-1.535.107c-.322-1.368-1.314-2.518-2.63-3.005a2.2 2.2 0 0 0-.038-1.784 2.24 2.24 0 0 0-1.404-1.23c.29-.775.471-1.605.234-2.413-.195-.662-.587-1.174-1.124-1.495.468-1.05.793-2.192.45-3.325-.25-.825-.799-1.495-1.54-1.833.594-1.756.24-3.584-.77-5.189-.34-.545-.246-.974-.187-1.578a3.25 3.25 0 0 0-.269-1.611 3.36 3.36 0 0 0-1.355-1.52c.609-1.287 1.124-2.686.835-4.137-.225-1.135-.917-2.17-1.938-2.648.25-1.401-.127-2.858-1.114-3.9.896-1.445.873-3.361-.026-4.804.834-.558 1.329-1.525 1.392-2.623.087-1.409-.634-2.645-1.478-3.73a2.6 2.6 0 0 0 1.346-1.941c.019-.086.02-.16.022-.236.934-.067 1.765-.61 2.33-1.366.797-1.062 1.234-2.78.688-4.005a2.66 2.66 0 0 0 1.314-1.663c.296.204.636.344 1.009.4.977.139 1.816-.372 2.432-1.086a3.11 3.11 0 0 0 3.45.821c.122.39.338.756.626 1.064.82.853 1.997.963 3.098.739.117 1.29 1.038 2.423 2.26 2.798-.337.794-.402 1.696-.003 2.512.34.68.943 1.168 1.617 1.34-.359 1.63.776 3.28 2.49 3.44.177 1.078.92 2.019 2.05 2.268.863.186 1.717-.126 2.305-.71.845.739 2.285 1.135 3.13 1.197.948.071 1.987-.408 2.528-1.184 1.295.92 3.145.795 4.294-.32.755 1.018 1.959 1.675 3.204 1.74-.086.462-.05.967.162 1.422.249.555.693.96 1.21 1.17-.376.634-.565 1.357-.423 2.127a2.7 2.7 0 0 0 .998 1.662c-1.022 1.145-1.263 2.984-.49 4.323-1.78 1.013-2.722 3.35-1.948 5.29"/><path fill="#f5cdcb" d="m21.267 26.711 1.526-4.595 2.34.808q.86.297 1.239.78.383.475.195 1.04a1.07 1.07 0 0 1-.754.729q-.556.16-1.305-.099l.239-.26q.832.288 1.14.736.315.451.118 1.041-.201.606-.777.798-.575.192-1.52-.135zm1.517-.485 1.114.385q.366.126.585.068.23-.062.314-.32.089-.264-.042-.443-.128-.186-.493-.313l-1.14-.394zm.599-1.802 1.004.346q.349.12.561.052a.44.44 0 0 0 .3-.306q.083-.248-.056-.429-.13-.178-.48-.299l-1.003-.346zm5.33 4.936q-.74-.255-1.219-.755a2.5 2.5 0 0 1-.629-1.16 2.46 2.46 0 0 1 .083-1.333q.23-.69.729-1.11a2.36 2.36 0 0 1 1.188-.522 2.9 2.9 0 0 1 1.42.148q.724.25 1.157.742.437.485.505 1.136l-1.214.2a1.3 1.3 0 0 0-.292-.634 1.2 1.2 0 0 0-.527-.354 1.3 1.3 0 0 0-.664-.058q-.323.06-.578.286a1.5 1.5 0 0 0-.38.63 1.5 1.5 0 0 0-.074.737q.067.338.289.585.22.248.561.365.315.11.627.055.323-.06.613-.331l.842.92a1.95 1.95 0 0 1-1.078.589q-.635.114-1.358-.136m5.036 1.74q-.783-.271-1.276-.784a2.45 2.45 0 0 1-.632-1.152 2.46 2.46 0 0 1 .083-1.333q.23-.692.72-1.113a2.34 2.34 0 0 1 1.154-.534 2.66 2.66 0 0 1 1.353.125q.672.231 1.112.707.45.47.586 1.117.14.639-.108 1.381-.026.077-.068.177l-.076.173-3.718-1.284.258-.777 3.02 1.043-.587.054q.12-.358.063-.673a1.1 1.1 0 0 0-.264-.548 1.2 1.2 0 0 0-.544-.36 1.24 1.24 0 0 0-.655-.054 1.05 1.05 0 0 0-.54.28 1.35 1.35 0 0 0-.354.582l-.068.205q-.125.375-.06.722.077.34.324.597.258.252.666.392.366.127.675.11.318-.015.62-.157l.452 1.012q-.435.25-.976.282a3.1 3.1 0 0 1-1.16-.19m3.252 1.046 1.527-4.595 3.666 1.267-.363 1.093-2.646-.914.394-.187-1.26 3.792zm6.3 2.252a2.9 2.9 0 0 1-1.2-.757 2.6 2.6 0 0 1-.615-1.145 2.46 2.46 0 0 1 .083-1.333q.23-.691.729-1.11.51-.423 1.17-.528.673-.111 1.405.142.723.25 1.19.754.471.496.618 1.137t-.085 1.342a2.4 2.4 0 0 1-.729 1.11 2.4 2.4 0 0 1-1.171.528 2.8 2.8 0 0 1-1.395-.14m.363-1.093q.33.115.646.052a1.14 1.14 0 0 0 .562-.291q.25-.239.38-.63.133-.402.074-.737a1.2 1.2 0 0 0-.272-.58 1.24 1.24 0 0 0-.545-.359 1.2 1.2 0 0 0-.646-.052q-.315.063-.57.289a1.5 1.5 0 0 0-.38.63 1.5 1.5 0 0 0-.074.736q.068.338.28.583t.545.36m-22.789 6.042a2.9 2.9 0 0 1-1.2-.757 2.6 2.6 0 0 1-.614-1.146 2.46 2.46 0 0 1 .082-1.333q.23-.69.73-1.11a2.4 2.4 0 0 1 1.17-.528q.673-.11 1.404.142.724.25 1.191.754.471.496.618 1.137.147.642-.085 1.342a2.4 2.4 0 0 1-.73 1.11 2.4 2.4 0 0 1-1.17.528 2.8 2.8 0 0 1-1.396-.14m.363-1.093q.332.114.647.052.315-.064.561-.292.25-.238.38-.63.134-.401.075-.737a1.2 1.2 0 0 0-.273-.58 1.24 1.24 0 0 0-.544-.359 1.2 1.2 0 0 0-.647-.052q-.315.063-.57.29a1.5 1.5 0 0 0-.38.63 1.5 1.5 0 0 0-.074.736q.07.337.281.582.213.245.544.36m4.227 1.593-1.248-.64a.6.6 0 0 0 .448-.008q.204-.1.377-.336.176-.245.332-.57.159-.336.304-.715l.587-1.568 3.99 1.378-1.328 3.998-1.327-.459.965-2.904-1.498-.517-.22.58q-.14.362-.276.686t-.304.571q-.156.242-.354.382a.72.72 0 0 1-.448.122m-2.093 1.39.692-2.084 5.682 1.963-.692 2.084-1.233-.426.329-.99-3.216-1.111-.329.99zm6.846 1.261 1.527-4.595 1.318.456-.595 1.793 1.99.688.596-1.794 1.327.459-1.526 4.595-1.328-.459.57-1.716-1.99-.688-.57 1.717zm8.028 2.85a2.9 2.9 0 0 1-1.2-.758 2.6 2.6 0 0 1-.615-1.145 2.46 2.46 0 0 1 .083-1.333q.23-.692.729-1.11.51-.424 1.171-.528.672-.111 1.404.142.723.25 1.19.754.471.496.619 1.137t-.086 1.341a2.4 2.4 0 0 1-.729 1.11 2.4 2.4 0 0 1-1.171.529 2.8 2.8 0 0 1-1.395-.14m.363-1.094q.332.115.647.052t.561-.291q.25-.239.38-.63.135-.402.074-.737a1.2 1.2 0 0 0-.272-.58 1.24 1.24 0 0 0-.544-.36 1.2 1.2 0 0 0-.647-.051q-.315.063-.57.289a1.5 1.5 0 0 0-.38.63 1.5 1.5 0 0 0-.074.736q.068.338.28.583t.545.36"/></svg>