<svg xmlns="http://www.w3.org/2000/svg" width="34" height="35" fill="none" viewBox="0 0 34 35"><g fill="#681f2a" clip-path="url(#a)"><path d="m11.407 7.302 2.322 4.692s.338 1.787-1.685 3.06a11.5 11.5 0 0 0 3.037 4.664 11.26 11.26 0 0 0 4.852 2.653l2.08-2.321s.32-.653 1.374 0 4.139 2.285 4.139 2.285a4.46 4.46 0 0 1-.42 2.3 4.4 4.4 0 0 1-1.521 1.76c-2.28 1.538-4.338 1.22-6.61.174 0 0-7.992-2.4-11.856-12.131-2.261-5.689 2.048-7.111 2.048-7.111zM3.152 26.55C1.524 28.757.802 31.839.018 34.438c-.136.455.555.643.712.195.855-2.667 2.009-5.244 2.85-7.908.085-.264-.264-.361-.407-.174z"/><path d="M.506 34.953c2.318-1.501 4.726-2.823 7.478-3.248.317-.051.243-.585-.074-.563-2.55.158-6.083 1.284-7.743 3.389-.181.227.05.613.332.433z"/><path d="M3.194 26.731C.961 23.894.84 20.068 1.008 16.603c.196-4.003 1.275-7.659 3.86-10.76 2.81-3.37 7.458-4.692 11.646-5.052 2.188-.222 4.398.04 6.476.768a15.15 15.15 0 0 1 5.561 3.45 17.8 17.8 0 0 1 3.32 4.718c1.153 2.27 1.27 4.469 1.146 6.97a21.7 21.7 0 0 1-1.147 6.36 33 33 0 0 1-1.367 3.266c-.356.744-.627.838-1.13 1.444a15.9 15.9 0 0 1-4.94 3.906 15.7 15.7 0 0 1-6.05 1.656c-3.429.195-7.232.105-10.096-2.061-.356-.27-.758.303-.463.61 2.515 2.62 6.767 2.588 10.132 2.447 4.16-.173 7.856-1.859 10.92-4.692 1.377-1.274 2.136-2.187 2.93-3.927a22.2 22.2 0 0 0 1.97-6.565c.294-2.191.31-4.41.046-6.606-.32-2.165-1.62-4.284-2.85-6.016-5.341-7.58-15.185-7.959-22.938-4.205C.94 5.75-.684 15.455.716 22.5a8.34 8.34 0 0 0 2.247 4.472.16.16 0 0 0 .216-.013.17.17 0 0 0 .015-.218z"/></g><defs><clipPath id="a"><path fill="#fff" d="M0 0h34v35H0z"/></clipPath></defs></svg>