<svg xmlns="http://www.w3.org/2000/svg" width="29" height="30" fill="none" viewBox="0 0 29 30"><g fill="#f5cdcb" clip-path="url(#a)"><path d="m9.73 6.258 1.98 4.022s.288 1.531-1.437 2.623a9.84 9.84 0 0 0 2.59 3.997 9.6 9.6 0 0 0 4.139 2.274l1.773-1.99s.274-.56 1.173 0c.9.56 3.53 1.96 3.53 1.96a3.84 3.84 0 0 1-.358 1.972 3.76 3.76 0 0 1-1.298 1.508c-1.944 1.318-3.7 1.045-5.638.148 0 0-6.816-2.057-10.112-10.398C4.143 7.498 7.82 6.28 7.82 6.28zM2.688 22.757C1.3 24.647.683 27.29.015 29.517c-.115.39.474.55.608.167.729-2.286 1.713-4.495 2.43-6.778.073-.226-.225-.31-.347-.149z"/><path d="M.431 29.959c1.978-1.287 4.031-2.42 6.38-2.784.27-.044.206-.502-.065-.483-2.174.136-5.188 1.101-6.603 2.905-.155.195.042.526.282.371z"/><path d="M2.725 22.912C.82 20.48.717 17.201.86 14.231c.167-3.431 1.087-6.565 3.292-9.222C6.55 2.119 10.513.987 14.085.677c1.867-.19 3.752.035 5.524.66a12.9 12.9 0 0 1 4.743 2.957 15.3 15.3 0 0 1 2.831 4.043c.985 1.946 1.085 3.83.979 5.974a18.7 18.7 0 0 1-.979 5.452 28 28 0 0 1-1.166 2.8c-.304.637-.535.717-.963 1.237a13.5 13.5 0 0 1-4.214 3.348 13.3 13.3 0 0 1-5.16 1.42c-2.925.166-6.17.09-8.612-1.767-.303-.232-.647.26-.394.523 2.144 2.246 5.771 2.218 8.642 2.097 3.547-.148 6.7-1.593 9.313-4.022 1.175-1.092 1.822-1.875 2.5-3.366a19.1 19.1 0 0 0 1.68-5.627c.25-1.878.264-3.78.04-5.662-.274-1.856-1.383-3.672-2.431-5.157C21.862-.91 13.466-1.235 6.853 1.983.802 4.928-.583 13.247.61 19.286a7.16 7.16 0 0 0 1.916 3.833.139.139 0 0 0 .226-.102.14.14 0 0 0-.028-.096z"/></g><defs><clipPath id="a"><path fill="#fff" d="M0 0h29v30H0z"/></clipPath></defs></svg>