<svg xmlns="http://www.w3.org/2000/svg" width="295" height="116" fill="none" viewBox="0 0 295 116"><g fill="#f5cdcb" clip-path="url(#a)"><path d="M28.19 60.36a12 12 0 0 1-1.54-2.75c-2.43-6.73 1.31-23.05 3.67-30.07 3.16-9.36 8.46-18 10.94-27.54 1.19.67 2.56 0 3.55.23s2.11 1.08 3.27 1.26c4.49.68 13.08-1.11 14.3 5.05l-6 1c1.77.11 3.49.37 5.27.52.78.07 2-.53 1.76.73-4.11 2.23-13.43.3-17.6-1.5-1.63-.7-2.11-2-3.26-2.77-.51-.33-.39-.81-1 0-2.92 9.49-7.15 18.57-9.46 28.26-1.26 5.27-4.14 19.47-3.34 24.27.61 3.61 6.53 6.85 9.83 7.28 8.17 1.06 12.07-4.06 14.66-10.9 5.13-13.47 6.65-28.76 9.13-42.86.64 0 1.35-.18 1.78.49.82 1.3-4.15 26.74-5.05 30.19-1.36 5.2-4.53 15.78-8 19.62-2.18 2.38-5.12 3.21-7.8 4.77 5.09 1.57 12.12 5 13.61 10.56s-6.33 5.58-10 4.43c-4.13-1.29-6.33-5.25-9.64-7.7.09 4.93 2.19 11.08 5.79 14.58 3 2.9 5.5 3.3 9.55 3 1-.07 2.57-.89 3-.83 2 .24.74 2-.58 2.77-8.75 5.21-17.07-5.51-18.93-13.11l-1.36-5.42-4.54 20.1c7.7 1.51 22.07 10.79 11 18.33-8.08 5.53-27 2.16-32.26-6.9-4-6.94-2-13.85 6.53-14.82 2.4-.28 8.27 1.32 10-.07.85-.69 3.44-13.49 4.22-15.64l-6.27 6.05c-5.51 3.75-11.24 4.88-17.38 1.77-1.49-.76-5.56-3.52-5-5.5.82-2.85 6.05 2.89 7.82 3.66 4.63 2 8.8.68 13.11-1.36 2.26-1.07 7.34-5 8.73-7 .492-.996.83-2.062 1-3.16-2.39.89-4.37 2.54-6.7 3.61-4.57 2.09-12.34 5.57-14.76-1-1.43-3.88.64-7.26 4-9.25a41 41 0 0 1 6.64-2.41zm17.6-56.84c-.37-.81-1.11-1.66-2-1.49.35.82 1.09 1.64 2 1.49m-31 62.54c-1.29 1.37-2.64 5.46-.66 6.6 3.5 2 18.3-4.51 18.48-6.51.31-3.62-9.29-1.74-11.19-1.24s-7.39 3.9-4.3 0c-.36-.33-2.03.83-2.33 1.15M31.2 82.48c.41-3.93 2.58-7.85 3.21-11.67.14-.86.53-1.24-.44-1.9-1 3.86-2.53 8-3.14 11.94-.09.54-.54 1.75.37 1.63m11.07-8c1 3 11.5 6.77 12.53 3.71 1.47-4.34-12.16-8.86-15.55-8.23l5 4.27zm-16.6 17.6c-3.67.93-8.49.1-11.73 2.1s-3.8 3.58-2.34 6.95l1.49-3.52c-1.62 8.68 11.63 10.94 17.86 10.55 1-.06 5.77-1.85 5.28.26-6.45 3.64-14.34 1-20.36-2.26-.14.72 1.24 1.84 1.75 2.27 4.66 3.88 18.29 5.36 23.31 2.18 7.2-4.58-1.1-9.94-5.69-12.26-1.36-.68-6.22-2.18-6.56-2.49a2.27 2.27 0 0 1-.5-1.77h-.49c-.46 2.52-3.82.38-2.02-2.05z"/><path d="M56.37 33.67c-.28.24-2.95-.91-3.5-1.28-1.24-.83-2.41-3.22-3-3.51s-3.24 1.37-4.68 1.18c-2.53-.33-4.34-3.94-5.76-4.35s-2.48.74-3.66.17c3.95-5.09 7.11 1.32 8.87 1.66 1.35.26 3.65-2 6.24-1.2.73.23 5.55 5.29 5.77 5.82a4.3 4.3 0 0 1-.28 1.51m-12.6 20.65c.59 2.18-2.77 3.52-3.51 1.76s2.36-1.41 3.51-1.76m-7.29-2.34c4.36-.94 2.46 2.95.24 2.09-.87-.34-1.5-1.81-.24-2.09m15.89-15.76c1.14 1.12-1.72 2.7-3 2-.48-1.43 2.38-2.55 3-2m-6.08 15.59c-.34-.31-.11-3 1.76-2.51 1.68.43-.68 3.44-1.76 2.51m-9.8-11.56c1.71-.46 2.31 1.64 1 2-1.72.42-2.32-1.65-1-2m14.32 1.5.51 2.51h-2c-.14-1.21-.07-2.59 1.49-2.51m-15.59 4.02c.36.31.67 2.5-.25 2.51s-1.12-3.61.25-2.51m24.15-26.1c.27.27-.55 2.76-1.5 2-.5-1 .89-2.64 1.5-2m-17.61 24.6c.17.18.32 1.88-.74 1.5-1.55-.56.25-2.03.74-1.5m12.57-24.15h-1v1.5h1z"/></g><path fill="#000" d="M35.069 55.249q1.737 0 2.75.66 1.033.66 1.033 1.76 0 .946-.66 1.518t-1.672.704q1.255.066 2.134.814.88.726.88 1.914 0 1.539-1.187 2.442-1.189.902-3.212.902-2.75 0-4.18-2.2-.045-.089 0-.11.066-.044.11.022.748 1.144 2.815 1.144 1.54 0 2.332-.55t.792-2.024q0-1.122-.55-1.65t-1.87-.55L33.837 60q-.087 0-.087-.066t.066-.066l.704-.066q1.21-.131 1.715-.638.529-.506.529-1.65 0-1.914-2.068-1.914-1.32 0-2.135.968-.813.945-1.32 2.904-.02.088-.11.066-.065-.023-.043-.11l.373-2.178q.09-.484.528-.946.441-.462 1.233-.748.792-.309 1.848-.308m16.67 6.622q0-.11.067-.11.066 0 .066.11 0 1.671-.726 2.86-.705 1.188-1.848 1.188-.837 0-1.408-.55-.572-.573-.638-1.694-.529 1.1-1.408 1.694a3.25 3.25 0 0 1-1.892.594q-1.739 0-2.574-.968a3.44 3.44 0 0 1-.836-2.288q0-1.276 1.144-2.046 1.166-.77 2.904-.77.594 0 1.32.11.748.11 1.342.286v-.968q0-3.388-2.948-3.388-1.21 0-2.068.792-.836.792-.836 2.376 0 .088-.044.132-.045.044-.088.044-.088 0-.088-.176 0-1.232.616-2.09a3.84 3.84 0 0 1 1.584-1.32 4.9 4.9 0 0 1 2.046-.44q4.356 0 4.356 4.07v3.608q0 1.452.748 1.452.726 0 .946-.638.219-.66.264-1.87m-6.643 2.838q2.156 0 2.156-2.618v-.132a2.27 2.27 0 0 0-.924-1.254 2.53 2.53 0 0 0-1.496-.484q-2.178 0-2.178 1.672 0 1.122.638 1.98.637.836 1.804.836m6.792.924q-.11 0-.11-.088t.11-.088q.748.022 1.078-.462.352-.484.352-1.65V57.91q0-1.167-.352-1.65-.33-.484-1.056-.484-.11 0-.11-.088t.11-.088q.66.044 1.364.044 2.772-.066 5.038-.066 1.738 0 2.706.594.968.572.968 1.782 0 .792-.682 1.43-.66.616-1.65.726 1.275.066 2.134.748.858.681.858 1.87 0 1.386-1.1 2.178-1.078.792-2.992.792l-5.28-.088zM57.762 60q1.122-.132 1.606-.594.484-.484.484-1.474 0-1.078-.572-1.606-.55-.528-1.408-.55l-1.562-.066h-.066q-.22 0-.286.11t-.066.396v8.668q0 .396.11.55.133.132.484.132l1.386-.022q1.122 0 1.738-.638.638-.66.638-1.936 0-1.297-.572-1.98-.55-.705-1.848-.748l-.748-.022q-.088 0-.088-.066t.066-.088zm16.039-.594q.022.088-.044.088t-.088-.088q-.814-3.058-1.804-3.41-.198-.154-1.54-.154-.133 0-.22.154a.63.63 0 0 0-.088.352v6.996q0 1.166.33 1.65.352.484 1.078.484.11 0 .11.088t-.11.088a26 26 0 0 0-1.364-.022h-2.618q-1.035 0-1.364.022-.11 0-.11-.088t.11-.088q.726 0 1.056-.484.351-.484.352-1.65v-6.996a.63.63 0 0 0-.088-.352q-.088-.154-.22-.154-1.342 0-1.54.154-.99.351-1.804 3.41-.022.088-.088.088t-.044-.088q.264-1.957.264-3.586 0-.352.286-.352.132 0 .748.088.638.087 2.486.088h2.53q1.782 0 2.442-.088t.814-.088q.264 0 .264.352 0 1.627.264 3.586m8.795-4.158q1.145 0 2.09.638.968.616 1.54 1.804.594 1.166.594 2.706 0 1.452-.682 2.75a5.35 5.35 0 0 1-1.826 2.046 4.4 4.4 0 0 1-2.508.77q-.836 0-1.386-.22a5.4 5.4 0 0 1-1.034-.55q-.33-.22-.44-.22-.198 0-.198.374v2.42q0 1.166.308 1.628.33.484.99.528.11 0 .11.066 0 .088-.11.088a50 50 0 0 0-2.288-.044q-1.739 0-2.838.044-.11 0-.11-.088t.11-.088q.66.021.968-.462.33-.484.33-1.694v-9.328q0-.836-.22-1.21-.198-.396-.77-.396-.11 0-.374.044-.088.022-.11-.044 0-.089.066-.11 1.034-.243 2.112-.638 1.1-.396 1.782-.858.11-.066.176-.044.088.021.066.132a23 23 0 0 0-.154 1.936q0 .264.022.506.045.22.11.198.595-1.188 1.474-1.936.88-.748 2.2-.748m-.616 10.384q1.409 0 2.024-.792.638-.792.638-2.31 0-1.474-.506-2.838t-1.364-2.2q-.836-.837-1.826-.836-.99 0-1.606.836-.594.836-.594 2.244v1.474q0 1.914.858 3.168.88 1.254 2.376 1.254m17.047-3.762q0-.11.066-.11t.066.11q0 1.671-.726 2.86-.705 1.188-1.848 1.188-.837 0-1.408-.55-.573-.573-.638-1.694-.528 1.1-1.408 1.694a3.25 3.25 0 0 1-1.892.594q-1.739 0-2.574-.968a3.44 3.44 0 0 1-.836-2.288q0-1.276 1.144-2.046 1.166-.77 2.904-.77.594 0 1.32.11a10 10 0 0 1 1.342.286v-.968q0-3.388-2.948-3.388-1.21 0-2.068.792-.837.792-.836 2.376 0 .088-.044.132-.045.044-.088.044-.088 0-.088-.176 0-1.232.616-2.09a3.84 3.84 0 0 1 1.584-1.32 4.9 4.9 0 0 1 2.046-.44q4.356 0 4.356 4.07v3.608q0 1.452.748 1.452.726 0 .946-.638.219-.66.264-1.87m-6.644 2.838q2.156 0 2.156-2.618v-.132a2.28 2.28 0 0 0-.924-1.254 2.53 2.53 0 0 0-1.496-.484q-2.178 0-2.178 1.672 0 1.122.638 1.98.637.836 1.804.836m18.606.814q.11 0 .11.088 0 .066-.11.066-.616-.044-3.014-.044-.594 0-.858-.22a1.1 1.1 0 0 1-.33-.55l-.682-1.914q-.33-.968-.638-1.474a1.87 1.87 0 0 0-.814-.77q-.485-.242-1.32-.242h-.198v2.882q0 1.166.33 1.65.352.484 1.078.484.11 0 .11.088t-.11.088a26 26 0 0 0-1.364-.022h-2.618q-1.034 0-1.386.022-.11 0-.11-.088t.11-.088q.726 0 1.078-.484t.352-1.65V57.91q0-1.167-.352-1.65-.352-.484-1.078-.484-.11 0-.11-.088t.11-.088l1.386.022h2.618l1.364-.022q.11 0 .11.088t-.11.088q-.726 0-1.078.484-.33.483-.33 1.65v2.42h.198q1.561 0 2.376-.484.814-.506 1.474-1.716l.22-.418q.374-.682.374-1.166 0-.792-1.056-.792-.11 0-.11-.088t.11-.088l1.364.022h.528l1.364-.022q.11 0 .11.088 0 .087-.11.088-.683 0-1.122.418-.44.396-1.1 1.496l-.33.572q-.55.924-1.188 1.43-.616.484-1.54.66 1.672.021 2.618.594.946.55 1.54 1.936l.33.792q.462 1.078.814 1.474.353.374.99.396m13.953-.044q.11 0 .11.088t-.11.088q-.33-.022-1.364-.022h-2.618q-1.034 0-1.364.022-.11 0-.11-.088t.11-.088q.726 0 1.056-.484.352-.484.352-1.65v-5.302l-5.258 5.28v.022q0 1.166.33 1.65.352.484 1.078.484.11 0 .11.088t-.11.088a27 27 0 0 0-1.364-.022h-2.618q-1.034 0-1.386.022-.11 0-.11-.088t.11-.088q.726 0 1.078-.484t.352-1.65V57.91q0-1.167-.352-1.65-.351-.506-1.078-.506-.11 0-.11-.088t.11-.088q.705.044 1.386.044h2.618q.66 0 1.364-.044.11 0 .11.088 0 .087-.11.088-.726 0-1.078.506-.33.483-.33 1.65v5.126l5.258-5.28q-.021-1.1-.374-1.54-.33-.462-1.034-.462-.11 0-.11-.088t.11-.088q.66.044 1.364.044h2.618q.704 0 1.364-.044.11 0 .11.088 0 .087-.11.088-.726 0-1.078.506-.33.483-.33 1.65v5.434q0 1.166.33 1.65.352.484 1.078.484m19.315 0q.11 0 .11.088t-.11.088a26 26 0 0 0-1.364-.022h-2.618q-1.034 0-1.364.022-.11 0-.11-.088t.11-.088q.726 0 1.056-.484.352-.484.352-1.65v-5.302l-5.258 5.28v.022q0 1.166.33 1.65.352.484 1.078.484.11 0 .11.088t-.11.088a27 27 0 0 0-1.364-.022h-2.618q-1.034 0-1.386.022-.11 0-.11-.088t.11-.088q.726 0 1.078-.484t.352-1.65V57.91q0-1.167-.352-1.65-.352-.506-1.078-.506-.11 0-.11-.088t.11-.088q.704.044 1.386.044h2.618q.66 0 1.364-.044.11 0 .11.088 0 .087-.11.088-.726 0-1.078.506-.33.483-.33 1.65v5.126l5.258-5.28q-.022-1.1-.374-1.54-.33-.462-1.034-.462-.11 0-.11-.088t.11-.088q.66.044 1.364.044h2.618q.704 0 1.364-.044.11 0 .11.088 0 .087-.11.088-.726 0-1.078.506-.33.483-.33 1.65v5.434q0 1.166.33 1.65.352.484 1.078.484m11.394.506q-1.517 0-2.75-.638a4.94 4.94 0 0 1-1.914-1.848q-.681-1.188-.682-2.706 0-1.54.792-2.794a5.56 5.56 0 0 1 2.156-2.002q1.386-.726 3.036-.726 1.54 0 2.772.66a4.75 4.75 0 0 1 1.958 1.804q.704 1.166.704 2.662a5.24 5.24 0 0 1-.814 2.838q-.792 1.275-2.2 2.024-1.386.726-3.058.726m1.21-.528q1.254 0 1.958-.704.726-.726.726-2.112 0-1.343-.704-2.97-.681-1.628-1.738-2.75-1.034-1.144-2.024-1.144-1.231 0-1.936.704t-.704 2.112q0 1.32.682 2.97.683 1.628 1.716 2.772 1.056 1.122 2.024 1.122m12.286-9.724q1.561 0 2.794.66 1.254.638 1.958 1.76.726 1.122.726 2.552 0 1.452-.814 2.662-.792 1.21-2.2 1.914-1.387.704-3.058.704-1.497 0-2.706-.594a4.75 4.75 0 0 1-1.892-1.672q-.705-1.078-.748-2.464v-1.122q0-2.817.924-4.752t2.398-2.948a7.35 7.35 0 0 1 3.234-1.232q1.584-.22 2.376-.418.792-.22 1.034-.44a.75.75 0 0 0 .264-.572q0-.11.066-.11.087 0 .11.11.044.352.044.55 0 1.078-.726 1.936-.705.836-2.508 1.144-1.1.197-2.486.374-1.32.176-1.914.308a2.45 2.45 0 0 0-.968.44q-.463.307-.682.946-.22.638-.22 1.76 0 .594.022.946.814-1.122 2.134-1.782t2.838-.66m.55 9.768q1.32 0 2.024-.726.726-.726.726-2.178 0-1.233-.66-2.75-.639-1.518-1.672-2.574-1.012-1.078-2.068-1.078-1.276 0-2.002.726-.705.704-.704 2.178 0 1.21.638 2.75.66 1.518 1.672 2.596 1.011 1.056 2.046 1.056m15.811-1.826q.022-.023.066.022.067.045.022.11a5.64 5.64 0 0 1-2.068 1.606q-1.21.55-2.53.55a5.36 5.36 0 0 1-2.574-.638 4.87 4.87 0 0 1-1.892-1.804q-.681-1.189-.682-2.728 0-1.519.748-2.794a5.54 5.54 0 0 1 2.068-2.002 5.6 5.6 0 0 1 2.838-.748q1.716 0 2.86.946 1.144.925 1.144 2.53 0 .726-.264 1.562-2.31.044-7.084.198a6.6 6.6 0 0 0 1.144 2.178 6.2 6.2 0 0 0 1.804 1.496q1.013.528 1.98.528 1.607 0 2.42-1.012m-5.082-8.008q-1.232 0-1.892.77-.638.747-.638 2.266 0 .747.22 1.628a87 87 0 0 0 2.948-.11q.44-.023.902-.044a21 21 0 0 1 .968-.022q.198-.33.198-.814 0-.726-.418-1.584a4.5 4.5 0 0 0-1.034-1.474q-.615-.615-1.254-.616m17.407-.132q.132 0 .132.088 0 .066-.132.088-.77.022-1.188.55-.396.506-.396 1.716v7.502h1.232q.154 0 .154.154l.044.77.132 1.672q.022.132-.066.132-.066 0-.088-.11-.242-1.275-.814-1.87-.55-.594-1.65-.594h-6.204q-1.1 0-1.672.594-.55.594-.792 1.87-.022.11-.11.11-.066 0-.044-.132.132-1.144.132-1.672l.044-.77q0-.154.154-.154h.682q.77 0 1.166-2.442.419-2.442.528-5.654-.088-.903-.484-1.276-.396-.375-1.078-.396-.132-.022-.132-.088.022-.088.132-.088.924.066 1.276.066h7.766q.418 0 1.276-.066m-4.114 9.944v-9.724h-4.466q0 3.145-.374 6.138-.352 2.97-1.1 3.586zm20.329 0q.11 0 .11.088t-.11.088a27 27 0 0 0-1.364-.022h-2.618q-1.033 0-1.386.022-.087 0-.088-.088 0-.088.088-.088.748 0 1.078-.484.352-.484.352-1.65v-5.522q0-1.167-.352-1.65-.33-.484-1.078-.484-.087 0-.088-.088 0-.088.088-.088l1.386.022h2.618l1.364-.022q.11 0 .11.088t-.11.088q-.726 0-1.078.484-.33.483-.33 1.65v5.522q0 1.166.33 1.65.352.484 1.078.484m-9.724-5.588q4.51-.066 4.51 2.75 0 1.452-1.056 2.222t-3.146.77h-4.62q-1.034 0-1.386.022-.11 0-.11-.088t.11-.088q.727 0 1.078-.484t.352-1.65v-5.456q0-1.167-.352-1.65-.351-.484-1.078-.484-.11 0-.11-.088t.11-.088l1.386.022h2.618l1.364-.022q.11 0 .11.088 0 .087-.11.088-.726 0-1.078.484-.33.484-.33 1.65v1.782q0 .242.198.242zm-.352 5.566q1.056-.022 1.628-.77.594-.748.594-2.002 0-1.233-.594-1.914-.594-.705-1.716-.682l-1.1.022q-.198 0-.198.242v4.532q0 .352.088.484.088.11.352.11zm-137.896 18.2q0 .264-.66.704-5.412 3.652-7.304 3.652-1.232 0-1.232-1.408 0-.792.308-1.584.44-1.1.44-1.144 0-.176-.132-.176-.045 0-.22.088-.968.968-2.816 2.332-2.376 1.76-3.3 1.76-1.056 0-1.056-1.056 0-.615 1.54-3.388 1.54-2.816 1.54-3.256 0-.484-.792-.484-.176 0-.176-.528.396-.132.836-.132 1.54 0 1.54.88 0 .967-1.364 3.256t-1.364 2.86q0 .352.308.352.704 0 3.432-2.332 2.772-2.332 4.268-4.224.66-.66.968-.66.572 0 .572.572 0 .308-.308.792-2.64 3.96-2.64 5.148 0 1.1 1.012 1.1 1.54 0 5.588-2.772.22-.176.616-.396.132-.132.264-.132t.132.176m12.023 0q0 .22-.66.704l-6.072 4.488q-.09 3.388-3.168 9.02-2.86 5.28-6.556 9.328-3.916 4.267-6.16 4.224-.749 0-1.276-.528-.528-.528-.528-1.32 0-3.257 3.96-8.58 3.036-3.96 7.524-8.228 3.96-3.696 4.488-3.696a.9.9 0 0 0-.132-.484q-.616-1.1-1.716-1.1-.44 0-.968.176-1.056.352-1.276.352-.132 0-.176-.176 0-.44.88-.792 1.407-.615 3.388-2.332 2.332-2.068 2.332-3.344 0-.748-.704-.748-.617 0-2.684 1.408l-3.256 2.376q-.132.132-.264.132-.089 0-.088-.484.132-.088 1.584-1.188 1.452-1.144 2.948-2.332Q71.058 79.3 72.29 79.3q1.584 0 1.584 1.672 0 2.024-5.192 5.412-.309.308-.308.44 0 .176.308.176 1.935 0 2.552 1.144 1.011-.572 3.212-2.332 2.023-1.585 3.256-2.2.132-.132.264-.132t.132.176m-8.228 6.336q0-.176-.044-.176-.969 0-4.62 3.696-3.873 3.872-6.688 7.964-3.389 4.972-3.388 7.744 0 1.012.66 1.012 1.32 0 4.84-3.828a49 49 0 0 0 6.16-8.184q3.08-5.104 3.08-8.228m33.451-6.336q-.264.748-3.212 2.244t-4.356 1.496q-.748 0-.748-.528 0-.704 1.452-2.816 1.496-2.112 1.496-2.772 0-.748-.704-.748-1.056 0-4.224 2.86a51 51 0 0 0-3.784 3.74q-.615.66-.968.66-.572 0-.572-.616 0-.175.308-.88 1.056-1.452 2.068-2.904 1.54-2.2 1.54-3.124 0-.396-.264-.396-.132 0-.528.176l-6.38 4.752h-.308q-.308 0-.308-.088 0-.132.484-.44a420 420 0 0 1 6.82-5.236q.528-.44 1.364-.44.88 0 .88.792 0 .924-1.276 2.816-1.232 1.848-1.232 2.024 0 .044.088.044-.044 0 2.948-2.464 2.992-2.508 4.048-2.508 1.628 0 1.628 1.1 0 .967-1.408 3.168t-1.408 2.508q0 .352.44.352.837 0 3.212-1.276 1.629-.924 2.508-1.54.132-.132.264-.132t.132.176m14.231 0q0 .264-.66.704-5.412 3.652-7.304 3.652-1.232 0-1.232-1.408 0-.792.308-1.584.44-1.1.44-1.144 0-.176-.132-.176a.8.8 0 0 0-.22.088q-.968.968-2.816 2.332-2.376 1.76-3.301 1.76-1.056 0-1.056-1.056 0-.615 1.541-3.388 1.54-2.816 1.54-3.256 0-.484-.792-.484-.176 0-.176-.528.395-.132.836-.132 1.54 0 1.54.88 0 .967-1.364 3.256t-1.364 2.86q0 .352.308.352.703 0 3.432-2.332 2.772-2.332 4.268-4.224.66-.66.968-.66.572 0 .572.572 0 .308-.308.792-2.64 3.96-2.64 5.148 0 1.1 1.012 1.1 1.54 0 5.588-2.772.22-.176.616-.396.132-.132.264-.132t.132.176m3.926 2.42q-.132.176-.352.484l-.44.528a2.3 2.3 0 0 1-.352.484q-.175.22-.264.22-.572 0-.572-.616 0-.22.308-.88.528-.748 1.056-1.452t1.012-1.452q1.54-2.2 1.54-3.124 0-.396-.264-.396-.176 0-.528.176a275 275 0 0 0-2.728 2.024 172 172 0 0 1-3.652 2.728h-.308q-.308 0-.308-.088t.484-.44a179 179 0 0 1 3.212-2.508q1.716-1.32 3.608-2.728.484-.44 1.364-.44t.88.792q0 .88-1.276 2.816a2.3 2.3 0 0 1-.22.352q-.132.132-.22.308h.836q.484 0 1.1-.044 1.056-.088 1.804 0l.352-.616q.175-.307.396-.66.485-.748.924-1.364.484-.615.968-1.1.308-.396.968-.396.352.088.352.22l-1.54 2.552q-1.54 2.552-1.54 3.696 0 1.364 1.188 1.364 1.496 0 4.356-2.596.132-.132.264-.132t.132.176q0 .264-.88.88-1.408 1.232-2.552 1.892-1.144.616-2.156.616-1.98 0-1.98-1.672 0-1.1.484-2.244a15.7 15.7 0 0 0-2.86.044q-.616.044-.792.044h-.264a32 32 0 0 0-1.1 1.672q-.44.792-.44.88m39.417-2.42q0 .264-.66.704-3.124 2.112-3.476 2.332-1.98 1.188-3.3 1.188-.748 0-1.276-.528a1.82 1.82 0 0 1-.484-1.276q0-2.2 2.816-6.292.22-.307.22-.396 0-.044-.044-.044-.176 0-.616.308l-5.456 4.092q-1.276 1.1-3.74 3.08-.352.264-.968.484-.308 0-.308-.44 0-.88 1.452-2.816 1.496-1.98 1.496-2.772 0-.748-.704-.748-1.056 0-4.224 2.86a51 51 0 0 0-3.784 3.74q-.616.66-.968.66-.572 0-.572-.616 0-.175.308-.88a179 179 0 0 0 2.068-2.904q1.54-2.2 1.54-3.124 0-.396-.264-.396-.132 0-.528.176l-6.38 4.752h-.308q-.308 0-.308-.088 0-.132.484-.44a420 420 0 0 1 6.82-5.236q.528-.44 1.364-.44.88 0 .88.792 0 .175-.088.528-.88 1.54-2.244 3.916-.176.308-.176.396 0 .044.088.044l.132-.044 3.256-2.816q2.508-2.112 3.608-2.112 1.452 0 1.452.924 0 .792-.88 2.42-.836 1.584-.836 1.716t.088.132q.176 0 .616-.308l9.152-6.908q.44-.352.924-.352.308 0 .44.132.132.088.132.352a.82.82 0 0 1-.176.528 831 831 0 0 1-2.508 3.564q-1.496 2.287-1.496 3.96 0 1.056 1.144 1.012 1.364-.045 3.08-1.1l2.816-1.76q.132-.132.264-.132t.132.176m10.319 0q0 .308-1.804 1.452-4.445 2.816-6.38 2.816-2.86 0-2.86-3.344 0-2.464 2.376-4.928 2.42-2.508 4.576-2.508.66 0 .66.616 0 1.496-2.596 4.224-2.068 2.156-3.388 2.948.132 1.936 1.848 1.936 1.628 0 5.456-2.2.308-.176 1.716-1.056.132-.132.264-.132t.132.176m-4.796-5.06q0-.528-.308-.528-1.1 0-2.684 2.2t-1.628 3.96q.836-.264 2.64-2.288 1.98-2.2 1.98-3.344m17.616 5.06q0 .615-3.168 2.288t-7.7 1.672q-2.596 0-2.816-.528 0-.308.484-.308.66.132.836.132 2.244 0 4.796-2.288 2.42-2.156 2.42-3.696 0-.66-.836-.66-4.136 0-9.02 7.832-.396.615-4.796 9.328-4.444 8.755-4.708 9.372-.308.748-.792.748a.6.6 0 0 1-.264-.044q-.264-.088-.264-.528 0-1.584 19.8-36.96.353-.615.66-.616.044 0 .176.088t.132.352q0 .484-.264.748-.044.132-3.608 6.512-3.388 6.16-3.388 6.556 0 .045.044.088.044-.088.308-.352 1.056-1.275 2.904-2.596 2.464-1.672 4.312-1.672 1.364 0 1.364 1.056 0 3.212-5.148 6.292 3.916 0 8.14-2.86.132-.132.264-.132t.132.176m10.426 0q0 .308-1.804 1.452-4.445 2.816-6.38 2.816-2.86 0-2.86-3.344 0-2.464 2.376-4.928 2.42-2.508 4.576-2.508.66 0 .66.616 0 1.496-2.596 4.224-2.068 2.156-3.388 2.948.132 1.936 1.848 1.936 1.628 0 5.456-2.2.308-.176 1.716-1.056.132-.132.264-.132t.132.176m-4.796-5.06q0-.528-.308-.528-1.1 0-2.684 2.2t-1.628 3.96q.836-.264 2.64-2.288 1.98-2.2 1.98-3.344m14.272 5.06q0 .176-.66.704a362 362 0 0 0-3.476 2.288q-2.508 1.496-4.092 1.496-.923 0-1.628-.66t-.704-1.496q0-2.904 2.816-5.324 2.508-2.156 4.664-2.156 1.364 0 1.364 1.1 0 .615-1.804 2.42a.55.55 0 0 1-.396.176q-.352 0-.352-.396 0-.176.132-.264.132-.132.528-.968.396-.88.396-1.32 0-.132-.308-.132-1.1 0-3.212 1.804-2.552 2.156-2.552 4.444 0 1.672 1.452 1.672 2.245 0 6.82-3.036.22-.176.616-.396.132-.132.264-.132t.132.176m26.525 0q0 .264-.66.704-3.123 2.112-3.476 2.332-1.98 1.188-3.3 1.188a1.74 1.74 0 0 1-1.276-.528 1.82 1.82 0 0 1-.484-1.276q0-2.2 2.816-6.292.22-.307.22-.396 0-.044-.044-.044-.175 0-.616.308l-5.456 4.092q-1.275 1.1-3.74 3.08-.351.264-.968.484-.308 0-.308-.44 0-.88 1.452-2.816 1.496-1.98 1.496-2.772 0-.748-.704-.748-1.056 0-4.224 2.86a51 51 0 0 0-3.784 3.74q-.615.66-.968.66-.572 0-.572-.616 0-.175.308-.88 1.056-1.452 2.068-2.904 1.54-2.2 1.54-3.124 0-.396-.264-.396-.132 0-.528.176l-6.38 4.752h-.308q-.308 0-.308-.088 0-.132.484-.44a425 425 0 0 1 6.82-5.236q.528-.44 1.364-.44.88 0 .88.792 0 .175-.088.528a1664 1664 0 0 1-2.244 3.916q-.176.308-.176.396 0 .044.088.044l.132-.044 3.256-2.816q2.508-2.112 3.608-2.112 1.452 0 1.452.924 0 .792-.88 2.42-.836 1.584-.836 1.716t.088.132q.177 0 .616-.308l9.152-6.908q.441-.352.924-.352.309 0 .44.132.132.088.132.352a.8.8 0 0 1-.176.528 831 831 0 0 1-2.508 3.564q-1.496 2.287-1.496 3.96 0 1.056 1.144 1.012 1.365-.045 3.08-1.1l2.816-1.76q.132-.132.264-.132t.132.176m13.707 0q0 .528-2.728 2.024-2.86 1.584-4.092 1.584-2.288 0-2.288-2.42 0-.66.704-1.496 0-.044-.044-.044.043 0-2.376 1.848-2.42 1.804-3.476 1.804-1.012 0-1.012-.836 0-2.025 3.388-4.708 3.212-2.596 5.016-2.596.264.044.572.308.352.22.352.352 0 .045-.044.088-2.464 0-6.292 3.828-1.232 1.231-1.232 2.068 0 .308.308.308.968 0 3.696-2.244 2.2-1.848 3.124-2.948.44-.528.616-.528.44 0 .44.616 0 .22-.572 1.012-1.892 2.595-1.892 3.3 0 1.232 1.364 1.232 2.244 0 6.072-2.596.132-.132.264-.132t.132.176"/><defs><clipPath id="a"><path fill="#fff" d="M1 0h63.26v115.05H1z"/></clipPath></defs></svg>