<svg xmlns="http://www.w3.org/2000/svg" width="19" height="19" fill="none" viewBox="0 0 19 19"><path fill="#681f2a" d="M11.226 17.81A84.6 84.6 0 0 0 7.796 4.6a1 1 0 0 0-1.88.67 81.4 81.4 0 0 1 3.33 12.87 1.013 1.013 0 1 0 2-.33z"/><path fill="#681f2a" d="M1.796 14.79a35.4 35.4 0 0 1 11.56-7c1.19-.44.77-2.38-.45-1.95A37.5 37.5 0 0 0 .326 13.4c-1 .87.53 2.21 1.47 1.35z"/><path fill="#681f2a" d="M5.856 18.3c2.34-5.69 4.72-11.37 7.06-17.07.49-1.19-1.42-1.76-1.91-.58-2.36 5.63-4.67 11.28-7 16.92a1.004 1.004 0 0 0 1.87.73z"/><path fill="#681f2a" d="M3.106 7.84a126 126 0 0 1 14.48 8c1.09.7 1.95-1.09.89-1.79a120 120 0 0 0-14.67-8.12c-1.17-.55-1.86 1.33-.7 1.88z"/></svg>